<svg xmlns="http://www.w3.org/2000/svg" viewBox="0 0 238.88 48.37"><defs><style>.cls-1{fill:#2c2c2b;}.cls-2{fill:#7c7b7b;}</style></defs><title>logo</title><g id="Слой_2" data-name="Слой 2"><g id="Layer_1" data-name="Layer 1"><path class="cls-1" d="M14.6,22h4.2V.49H14.6Zm25.15-7L26.56.49H23.7V22h4.2V7.62L41,22h3V.49h-4.2ZM4.2.49H0V22H10.84v-3.5H4.2ZM48.77,22h12v-3.5H53v-6h7.34V9H53V4h7.78V.49h-12ZM214.2,10.28l9-9.74H218l-7.83,9v-9h-4V22h4V12.71l.48-.27L218.19,22h5.5L214.2,10.68ZM201.55,7c0-4.66-3.19-6.4-7.51-6.4h-2v0h-4V22h4V13.25h.34L198.21,22h5.24l-6.69-9A5.81,5.81,0,0,0,201.55,7Zm-8,3.42H192V4.06h1.52c2.15,0,3.74.87,3.74,3.19C197.3,9.33,195.74,10.38,193.56,10.38ZM233.13,9c-3.64-1-3.76-2.43-3.76-3.1,0-.89.81-2.38,3.06-2.38a4.65,4.65,0,0,1,3.51,1.68c1.12-1.24,2.16-2.57,2.16-2.57a7.27,7.27,0,0,0-6-2.53c-3.79,0-7,2.07-7,6.18,0,3.47,2.9,4.85,4.45,5.5s5.06,1,5.06,4a2.93,2.93,0,0,1-2.85,2.94,6.37,6.37,0,0,1-5.07-2.65c-2.64,2.41-2.62,2.41-2.62,2.41a8.28,8.28,0,0,0,7.26,4c4.76,0,7.53-3.07,7.53-7S235.66,9.7,233.13,9ZM174,0c-8,0-11.54,5.89-11.54,11.25,0,4.92,3.19,11.2,11.39,11.2s11.39-6.28,11.39-11.2S182,0,174,0Zm-.14,18.56c-5.18,0-7.19-4.1-7.19-7.32,0-3.5,2.22-7.35,7.28-7.35s7.1,4.14,7.1,7.36S179.05,18.56,173.88,18.56ZM112.41,7c0-4.66-3.19-6.4-7.51-6.4h-2v0h-4V22h4V13.25h.34L109.08,22h5.24l-6.69-9A5.81,5.81,0,0,0,112.41,7Zm-8,3.42H102.9V4.06h1.52c2.15,0,3.74.87,3.74,3.19C108.16,9.33,106.6,10.38,104.42,10.38ZM115.18,4H120V22h4V4h4.79V.53H115.18ZM83.73.53,74.63,22h4.29l1.86-4.54h9.12L91.78,22h4.29L87,.53ZM82.19,14l3.15-7.68L88.5,14Zm70.3,1.17L147.41.53h-2.15l-5.34,14.64L135.24.53h-4.36L138.21,22h3.24l.38-.91,4.47-12.74,4.35,12.74L151,22h3.24L162,.53h-4.36Z"/><path class="cls-2" d="M77.08,35.59h-.95l-.61,3.12H73.58l.59-3.12h-1l-.59,3.12H70.85l0,.82h1.6L72,42H70.24v.83h1.6l-.59,3.14h1l.59-3.14h1.93l-.58,3.14h1l.59-3.14h1.77l0-.83h-1.6l.48-2.44h1.75v-.82h-1.6ZM74.91,42H73l.46-2.44h1.95Zm10.8-3.7H84l-3.51,3.66V38.26H79.25v7.67h1.26v-2.6l1.2-1.17,2.79,3.77h1.6l-3.49-4.65ZM90.32,38c-2.32,0-3.76,1.56-3.76,4.09s1.4,4,3.75,4S94,44.65,94,42.05,92.64,38,90.32,38Zm0,7.06c-1.54,0-2.45-1.11-2.45-3s.94-3,2.42-3,2.41,1.16,2.41,3S91.8,45.1,90.32,45.1Zm8.4,0c-1.43,0-2.29-1.13-2.29-3s.92-3,2.38-3a1.85,1.85,0,0,1,1.93,1.67H102A3,3,0,0,0,98.79,38c-2.26,0-3.69,1.61-3.69,4.16,0,2.33,1.26,4,3.64,4a3.19,3.19,0,0,0,3.35-3h-1.28A2,2,0,0,1,98.72,45.1Zm8.92-.62h0l-2.33-6.21h-1.81v7.67h1.26v-6h0l2.27,6h1.16l2.27-6h0v6h1.26V38.26H110ZM117,38c-2.32,0-3.76,1.56-3.76,4.09s1.4,4,3.74,4,3.69-1.52,3.69-4.12S119.33,38,117,38Zm0,7.06c-1.55,0-2.45-1.11-2.45-3s.94-3,2.42-3,2.41,1.16,2.41,3S118.5,45.1,117,45.1Zm8.4,0c-1.43,0-2.29-1.13-2.29-3s.92-3,2.38-3a1.85,1.85,0,0,1,1.93,1.67h1.31A3,3,0,0,0,125.48,38c-2.26,0-3.69,1.61-3.69,4.16,0,2.33,1.26,4,3.64,4a3.19,3.19,0,0,0,3.34-3H127.5A2,2,0,0,1,125.41,45.1Zm9.21-3.34v0a1.63,1.63,0,0,0,1.23-1.62c0-1.43-1.31-2.07-2.88-2.07s-3.12.55-3.24,2.44H131c.1-1,1-1.41,1.95-1.41s1.62.54,1.62,1.1c0,.91-.73,1.25-1.62,1.25h-.85v1h1.05c1.18,0,1.64.48,1.64,1.25s-.68,1.46-1.89,1.46-2-.5-2-1.6H129.6c.09,1.66,1.32,2.63,3.33,2.63,1.62,0,3.18-.85,3.18-2.51A1.81,1.81,0,0,0,134.62,41.76ZM144,38.26h-5.47V39.9a12.81,12.81,0,0,1-1,4.92h-.83v3.55H138V45.93h5.86v2.44H145V44.82h-1Zm-1.26,6.55H138.9a12.85,12.85,0,0,0,.89-4.8v-.64h3ZM149.29,38c-2.13,0-3.57,1.68-3.57,4.16s1.35,4,3.61,4a3.12,3.12,0,0,0,3.34-2.68h-1.23a1.94,1.94,0,0,1-2.06,1.64A2.32,2.32,0,0,1,147,42.53l0-.09h5.77v-.18C152.77,40,151.81,38,149.29,38ZM147,41.41a2.31,2.31,0,0,1,2.26-2.33c1.26,0,2.08.88,2.2,2.33Zm10.33,3.69c-1.43,0-2.29-1.13-2.29-3s.92-3,2.38-3a1.85,1.85,0,0,1,1.93,1.67h1.31A2.94,2.94,0,0,0,157.4,38c-2.26,0-3.69,1.61-3.69,4.16,0,2.33,1.26,4,3.64,4a3.19,3.19,0,0,0,3.35-3h-1.28A2,2,0,0,1,157.33,45.1ZM166,41.19H163.3V38.26H162v7.67h4.06a2.37,2.37,0,1,0-.06-4.74Zm-.4,3.63H163.3V42.28h2.33c1.06,0,1.59.45,1.59,1.26S166.67,44.82,165.63,44.82Z"/></g></g></svg>