<svg xmlns="http://www.w3.org/2000/svg" xmlns:xlink="http://www.w3.org/1999/xlink"><defs>
    <style>
      .cls-1 {
        fill: #fff;
        fill-rule: evenodd;
      }
    </style>
  </defs><symbol id="calendar" viewBox="0 0 22.286 24">
  <path id="calendar" d="M1.714,1.714H5.571V-2.143H1.714Zm4.714,0h4.286V-2.143H6.429ZM1.714-3H5.571V-7.286H1.714ZM6.429-3h4.286V-7.286H6.429ZM1.714-8.143H5.571V-12H1.714Zm9.857,9.857h4.286V-2.143H11.571ZM6.429-8.143h4.286V-12H6.429ZM16.714,1.714h3.857V-2.143H16.714ZM11.571-3h4.286V-7.286H11.571ZM6.857-14.571v-3.857a.412.412,0,0,0-.127-.3.412.412,0,0,0-.3-.127H5.571a.412.412,0,0,0-.3.127.412.412,0,0,0-.127.3v3.857a.412.412,0,0,0,.127.3.412.412,0,0,0,.3.127h.857a.412.412,0,0,0,.3-.127A.412.412,0,0,0,6.857-14.571ZM16.714-3h3.857V-7.286H16.714ZM11.571-8.143h4.286V-12H11.571Zm5.143,0h3.857V-12H16.714Zm.429-6.429v-3.857a.412.412,0,0,0-.127-.3.412.412,0,0,0-.3-.127h-.857a.412.412,0,0,0-.3.127.412.412,0,0,0-.127.3v3.857a.412.412,0,0,0,.127.3.412.412,0,0,0,.3.127h.857a.412.412,0,0,0,.3-.127A.412.412,0,0,0,17.143-14.571Zm5.143-.857V1.714a1.647,1.647,0,0,1-.509,1.205,1.647,1.647,0,0,1-1.205.509H1.714A1.647,1.647,0,0,1,.509,2.92,1.647,1.647,0,0,1,0,1.714V-15.429a1.647,1.647,0,0,1,.509-1.205,1.647,1.647,0,0,1,1.205-.509H3.429v-1.286a2.063,2.063,0,0,1,.629-1.513,2.063,2.063,0,0,1,1.513-.629h.857a2.063,2.063,0,0,1,1.513.629,2.063,2.063,0,0,1,.629,1.513v1.286h5.143v-1.286a2.063,2.063,0,0,1,.629-1.513,2.063,2.063,0,0,1,1.513-.629h.857a2.063,2.063,0,0,1,1.513.629,2.063,2.063,0,0,1,.629,1.513v1.286h1.714a1.647,1.647,0,0,1,1.205.509A1.647,1.647,0,0,1,22.286-15.429Z" transform="translate(0 20.571)"/>
</symbol><symbol id="facebook" viewBox="0 0 11.571 22.286">
  <path id="facebook" d="M5.987-20.411v3.536h-2.1a1.968,1.968,0,0,0-1.554.482,2.218,2.218,0,0,0-.4,1.446v2.531H5.853L5.33-8.451h-3.4V1.714h-4.1V-8.451H-5.585v-3.964H-2.17v-2.92A5.181,5.181,0,0,1-.777-19.2a5.055,5.055,0,0,1,3.71-1.373A22.155,22.155,0,0,1,5.987-20.411Z" transform="translate(5.585 20.571)"/>
</symbol><symbol id="google" viewBox="0 0 20.156 20.571">
  <path id="google" d="M0-10.045H9.71A9.731,9.731,0,0,1,9.871-8.33a10.849,10.849,0,0,1-1.219,5.19A8.8,8.8,0,0,1,5.176.429,10.271,10.271,0,0,1,0,1.714,10.111,10.111,0,0,1-4,.9a10.286,10.286,0,0,1-3.281-2.19,10.286,10.286,0,0,1-2.19-3.281,10.111,10.111,0,0,1-.81-4,10.111,10.111,0,0,1,.81-4,10.286,10.286,0,0,1,2.19-3.281A10.286,10.286,0,0,1-4-18.047a10.111,10.111,0,0,1,4-.81,9.747,9.747,0,0,1,6.9,2.692L4.1-13.473A5.662,5.662,0,0,0,0-15.067a6.145,6.145,0,0,0-3.194.871,6.415,6.415,0,0,0-2.324,2.364,6.437,6.437,0,0,0-.857,3.261A6.437,6.437,0,0,0-5.518-5.31,6.415,6.415,0,0,0-3.194-2.946,6.145,6.145,0,0,0,0-2.076,6.828,6.828,0,0,0,2.143-2.4,5.4,5.4,0,0,0,3.75-3.2a5.815,5.815,0,0,0,1.1-1.1,5.117,5.117,0,0,0,.69-1.165,4.921,4.921,0,0,0,.3-1.045H0Z" transform="translate(10.286 18.857)"/>
</symbol><symbol id="info" viewBox="0 0 20.571 20.571">
  <path id="info" d="M13.714-2.143V-4.286a.417.417,0,0,0-.121-.308.417.417,0,0,0-.308-.121H12v-6.857a.417.417,0,0,0-.121-.308A.417.417,0,0,0,11.571-12H7.286a.417.417,0,0,0-.308.121.417.417,0,0,0-.121.308v2.143a.417.417,0,0,0,.121.308A.417.417,0,0,0,7.286-9H8.571v4.286H7.286a.417.417,0,0,0-.308.121.417.417,0,0,0-.121.308v2.143a.417.417,0,0,0,.121.308.417.417,0,0,0,.308.121h6a.417.417,0,0,0,.308-.121A.417.417,0,0,0,13.714-2.143ZM12-14.143v-2.143a.417.417,0,0,0-.121-.308.417.417,0,0,0-.308-.121H9a.417.417,0,0,0-.308.121.417.417,0,0,0-.121.308v2.143a.417.417,0,0,0,.121.308A.417.417,0,0,0,9-13.714h2.571a.417.417,0,0,0,.308-.121A.417.417,0,0,0,12-14.143Zm7.192.408a10.062,10.062,0,0,1,1.379,5.163,10.062,10.062,0,0,1-1.379,5.163A10.24,10.24,0,0,1,15.449.335a10.062,10.062,0,0,1-5.163,1.379A10.062,10.062,0,0,1,5.123.335,10.239,10.239,0,0,1,1.379-3.408,10.062,10.062,0,0,1,0-8.571a10.062,10.062,0,0,1,1.379-5.163,10.239,10.239,0,0,1,3.743-3.743,10.062,10.062,0,0,1,5.163-1.379,10.062,10.062,0,0,1,5.163,1.379A10.239,10.239,0,0,1,19.192-13.734Z" transform="translate(0 18.857)"/>
</symbol><symbol id="instagram" viewBox="0 0 20.571 20.571">
  <path id="instagram" d="M2.424-6.147a3.3,3.3,0,0,0,1-2.424,3.3,3.3,0,0,0-1-2.424A3.3,3.3,0,0,0,0-12a3.3,3.3,0,0,0-2.424,1,3.3,3.3,0,0,0-1,2.424,3.3,3.3,0,0,0,1,2.424A3.3,3.3,0,0,0,0-5.143,3.3,3.3,0,0,0,2.424-6.147Zm1.313-6.161a5.088,5.088,0,0,1,1.54,3.737,5.088,5.088,0,0,1-1.54,3.737A5.088,5.088,0,0,1,0-3.295a5.088,5.088,0,0,1-3.737-1.54,5.088,5.088,0,0,1-1.54-3.737,5.088,5.088,0,0,1,1.54-3.737A5.088,5.088,0,0,1,0-13.848,5.088,5.088,0,0,1,3.737-12.308Zm2.625-2.625a1.187,1.187,0,0,1,.362.871,1.187,1.187,0,0,1-.362.871,1.187,1.187,0,0,1-.871.362,1.187,1.187,0,0,1-.871-.362,1.187,1.187,0,0,1-.362-.871,1.187,1.187,0,0,1,.362-.871,1.187,1.187,0,0,1,.871-.362A1.187,1.187,0,0,1,6.362-14.933ZM1.025-17.016,0-17.009l-1.025-.007q-.931-.007-1.413,0t-1.292.04a10.613,10.613,0,0,0-1.379.134,5.37,5.37,0,0,0-.958.248,3.475,3.475,0,0,0-1.179.777,3.475,3.475,0,0,0-.777,1.179,5.37,5.37,0,0,0-.248.958A10.613,10.613,0,0,0-8.4-12.3q-.033.81-.04,1.292t0,1.413q.007.931.007,1.025t-.007,1.025q-.007.931,0,1.413t.04,1.292A10.613,10.613,0,0,0-8.27-3.462a5.37,5.37,0,0,0,.248.958,3.475,3.475,0,0,0,.777,1.179,3.475,3.475,0,0,0,1.179.777A5.37,5.37,0,0,0-5.109-.3,10.613,10.613,0,0,0-3.73-.167q.81.033,1.292.04t1.413,0L0-.134l1.025.007q.931.007,1.413,0T3.73-.167A10.613,10.613,0,0,0,5.109-.3a5.37,5.37,0,0,0,.958-.248,3.475,3.475,0,0,0,1.179-.777A3.475,3.475,0,0,0,8.022-2.5a5.37,5.37,0,0,0,.248-.958A10.613,10.613,0,0,0,8.4-4.842q.033-.81.04-1.292t0-1.413q-.007-.931-.007-1.025T8.444-9.6q.007-.931,0-1.413T8.4-12.3a10.613,10.613,0,0,0-.134-1.379,5.37,5.37,0,0,0-.248-.958,3.475,3.475,0,0,0-.777-1.179,3.475,3.475,0,0,0-1.179-.777,5.37,5.37,0,0,0-.958-.248,10.613,10.613,0,0,0-1.379-.134q-.81-.033-1.292-.04T1.025-17.016Zm9.194,4.2q.067,1.179.067,4.246t-.067,4.246A6.283,6.283,0,0,1,8.558-.013,6.283,6.283,0,0,1,4.246,1.647Q3.067,1.714,0,1.714t-4.246-.067A6.283,6.283,0,0,1-8.558-.013a6.283,6.283,0,0,1-1.661-4.313q-.067-1.179-.067-4.246t.067-4.246a6.283,6.283,0,0,1,1.661-4.312A6.283,6.283,0,0,1-4.246-18.79q1.179-.067,4.246-.067t4.246.067a6.283,6.283,0,0,1,4.313,1.661A6.283,6.283,0,0,1,10.219-12.817Z" transform="translate(10.286 18.857)"/>
</symbol><symbol id="logo" viewBox="0 0 252.282 42.219">
  
  <path id="EXGIFTS" class="cls-1" d="M317.02,73.337h8.64V33.2h-8.64v40.14Zm13.56,0h15.84v-8.4H330.58v8.4Zm0-15.84h15.84V49.1H330.58v8.4Zm0-15.9h15.84V33.2H330.58v8.4Zm22.08,31.74h10.62l7.08-9.6-5.28-7.2Zm30.78,0h10.68L364.66,33.2H353.98Zm-7.08-32.22,5.34,7.2L392.92,33.2H382.24Zm51.419,21.3a11.811,11.811,0,0,1-8.58,3.54,12.041,12.041,0,0,1-4.86-.992,12.409,12.409,0,0,1-3.96-2.707,13.081,13.081,0,0,1-2.67-4,12.122,12.122,0,0,1-.99-4.871,12.448,12.448,0,0,1,.96-4.871,12.054,12.054,0,0,1,2.67-3.969,12.569,12.569,0,0,1,8.91-3.609,11.911,11.911,0,0,1,4.65.87,14.5,14.5,0,0,1,4.23,2.91l6.3-6a20.532,20.532,0,0,0-15.18-6.48,20.747,20.747,0,0,0-8.28,1.65,21.176,21.176,0,0,0-6.709,4.53,21.57,21.57,0,0,0-4.53,6.72,21.17,21.17,0,0,0,0,16.44,21.345,21.345,0,0,0,11.3,11.25,21.175,21.175,0,0,0,14.1.81,20.938,20.938,0,0,0,9.72-6.18,22.151,22.151,0,0,0,3.36-5.04h-10.44Zm-8.58-4.8h20.52q0.238-1.26.33-2.16t0.09-2.04q0-1.139-.09-2.04t-0.33-2.16H419.2v8.4Zm32.94,15.72h8.64V33.2h-8.64v40.14Zm22.2,0h8.64V33.2h-8.64v40.14Zm13.14-15.84h15.06V49.1h-15.06v8.4Zm0-15.9h15.06V33.2h-15.06v8.4Zm30.66,31.74h8.64V46.517h-8.64v26.82ZM508.9,41.6h27.06V33.2H508.9v8.4Zm33.84,19.62a16.986,16.986,0,0,0,.57,3.723,13.053,13.053,0,0,0,1.35,3.072,12.8,12.8,0,0,0,4.83,4.714A13.148,13.148,0,0,0,556,74.417a13.012,13.012,0,0,0,5.25-1.058,13.47,13.47,0,0,0,4.23-2.87,13.2,13.2,0,0,0,2.82-4.252,13.5,13.5,0,0,0,1.02-5.26q0-8.22-8.04-11.88l-3.9,7.68a6.4,6.4,0,0,1,2.52,1.8,4.133,4.133,0,0,1,.78,2.58,4.656,4.656,0,0,1-1.32,3.39,4.426,4.426,0,0,1-3.3,1.35q-4.14,0-4.8-4.68h-8.52Zm24.72-17.04a14.152,14.152,0,0,0-1.05-4.9,11.585,11.585,0,0,0-2.52-3.773,11.037,11.037,0,0,0-3.72-2.417,12.65,12.65,0,0,0-4.71-.847,11.98,11.98,0,0,0-4.68.907A11.851,11.851,0,0,0,547,35.651a11.44,11.44,0,0,0-2.52,3.743,12.534,12.534,0,0,0-.03,9.252,11.043,11.043,0,0,0,2.43,3.69,10.717,10.717,0,0,0,2.4,1.74,18.046,18.046,0,0,0,3.36,1.26l3.9-7.8q-1.382-.3-1.74-0.42l-0.72-.24a2.961,2.961,0,0,1-1.86-2.82,3.3,3.3,0,0,1,.9-2.34,2.991,2.991,0,0,1,2.28-.96q2.7,0,3.12,3.42h8.94Z" transform="translate(-317.031 -32.25)"/>
</symbol><symbol id="mail" viewBox="0 0 24 18.857">
  <path id="mail" d="M24-11.063V-.429a2.063,2.063,0,0,1-.629,1.513,2.063,2.063,0,0,1-1.513.629H2.143A2.063,2.063,0,0,1,.629,1.085,2.063,2.063,0,0,1,0-.429V-11.063A7.1,7.1,0,0,0,1.353-9.9Q6.2-6.6,8.009-5.277q.763.563,1.239.877a7.653,7.653,0,0,0,1.266.643,3.86,3.86,0,0,0,1.473.328h.027a3.86,3.86,0,0,0,1.473-.328A7.653,7.653,0,0,0,14.752-4.4q.475-.315,1.239-.877,2.277-1.647,6.67-4.621A7.387,7.387,0,0,0,24-11.063ZM24-15a3.54,3.54,0,0,1-.656,2.022A6.368,6.368,0,0,1,21.71-11.33L15.442-6.978q-.134.094-.569.408t-.723.509q-.288.194-.7.435a4.057,4.057,0,0,1-.77.362,2.128,2.128,0,0,1-.67.121h-.027a2.128,2.128,0,0,1-.67-.121,4.057,4.057,0,0,1-.77-.362q-.408-.241-.7-.435t-.723-.509q-.435-.315-.569-.408Q7.339-7.835,5.049-9.422T2.3-11.33A6.65,6.65,0,0,1,.737-12.877,3.128,3.128,0,0,1,0-14.705a2.7,2.7,0,0,1,.556-1.741,1.913,1.913,0,0,1,1.587-.7H21.857a2.07,2.07,0,0,1,1.507.629A2.053,2.053,0,0,1,24-15Z" transform="translate(0 17.143)"/>
</symbol><symbol id="map_pin" viewBox="0 0 13.714 24">
  <path id="map_pin" d="M-8.571-6.2A7.264,7.264,0,0,0-6.857-6a7.264,7.264,0,0,0,1.714-.2V2.571a.824.824,0,0,1-.254.6.824.824,0,0,1-.6.254H-7.714a.824.824,0,0,1-.6-.254.824.824,0,0,1-.254-.6Zm-3.134-12.362a6.607,6.607,0,0,1,4.848-2.009,6.607,6.607,0,0,1,4.848,2.009A6.607,6.607,0,0,1,0-13.714,6.607,6.607,0,0,1-2.009-8.866,6.607,6.607,0,0,1-6.857-6.857a6.607,6.607,0,0,1-4.848-2.009,6.607,6.607,0,0,1-2.009-4.848A6.607,6.607,0,0,1-11.705-18.563Zm4.848.991a.417.417,0,0,0,.308-.121A.417.417,0,0,0-6.429-18a.417.417,0,0,0-.121-.308.417.417,0,0,0-.308-.121,4.543,4.543,0,0,0-3.335,1.379,4.543,4.543,0,0,0-1.379,3.335.417.417,0,0,0,.121.308.417.417,0,0,0,.308.121.417.417,0,0,0,.308-.121.417.417,0,0,0,.121-.308A3.715,3.715,0,0,1-9.583-16.44,3.715,3.715,0,0,1-6.857-17.571Z" transform="translate(13.714 20.571)"/>
</symbol><symbol id="phone" viewBox="0 0 18.857 18.857">
  <path id="phone" d="M0-3.964a4.421,4.421,0,0,1-.134.944A5.321,5.321,0,0,1-.415-2.1,3.591,3.591,0,0,1-2.049-.683,5.193,5.193,0,0,1-4.54,0a5.315,5.315,0,0,1-.71-.047,5.5,5.5,0,0,1-.77-.167q-.422-.121-.629-.194t-.743-.275q-.536-.2-.656-.241a12.13,12.13,0,0,1-2.344-1.112,20.187,20.187,0,0,1-3.536-2.893,20.187,20.187,0,0,1-2.893-3.536,12.13,12.13,0,0,1-1.112-2.344q-.04-.121-.241-.656t-.275-.743q-.074-.208-.194-.629a5.5,5.5,0,0,1-.167-.77,5.315,5.315,0,0,1-.047-.71,5.193,5.193,0,0,1,.683-2.491,3.591,3.591,0,0,1,1.42-1.634,5.321,5.321,0,0,1,.917-.281,4.421,4.421,0,0,1,.944-.134.75.75,0,0,1,.281.04q.241.08.71,1.018.147.254.4.723t.469.85q.214.382.415.717.04.054.234.335a3.741,3.741,0,0,1,.288.475.874.874,0,0,1,.094.382,1.112,1.112,0,0,1-.382.67,6.528,6.528,0,0,1-.83.737,8.066,8.066,0,0,0-.83.71,1.02,1.02,0,0,0-.382.616.9.9,0,0,0,.067.3,2.923,2.923,0,0,0,.114.275q.047.094.188.321t.154.254a14.058,14.058,0,0,0,2.33,3.147,14.058,14.058,0,0,0,3.147,2.33q.027.013.254.154t.321.188a2.924,2.924,0,0,0,.275.114.9.9,0,0,0,.3.067,1.02,1.02,0,0,0,.616-.382,8.065,8.065,0,0,0,.71-.83,6.529,6.529,0,0,1,.737-.83,1.112,1.112,0,0,1,.67-.382.874.874,0,0,1,.382.094,3.741,3.741,0,0,1,.475.288q.281.194.335.234.335.2.717.415t.85.469q.469.254.723.4.938.469,1.018.71A.75.75,0,0,1,0-3.964Z" transform="translate(18.857 18.857)"/>
</symbol><symbol id="star" viewBox="0 0 15.002 14.45">
  <path id="star" d="M10.674,13.242c-.986-.563-1.984-1.109-2.939-1.721a1.173,1.173,0,0,0-1.4-.07C5.3,12.067,4.262,12.689,3.22,13.3c-.558.327-.747.055-.642-.475.207-1.048.459-2.086.693-3.129.59-1.32-.649-1.744-1.213-2.5C1.48,6.692.9,6.188.327,5.68.159,5.532-.054,5.389.013,5.12c.073-.292.352-.26.562-.285C1.786,4.69,3,4.536,4.213,4.441A.908.908,0,0,0,5.089,3.8C5.539,2.724,6.02,1.66,6.5.6c.111-.244.15-.608.516-.6.31.008.364.33.462.554.307.7.593,1.413.887,2.12.066.129.116.283.19.452a4.668,4.668,0,0,0,.188.455,1.3,1.3,0,0,0,1.169.91c1.18.117,2.36.23,3.539.356.209.022.482-.014.542.293.045.23-.118.366-.267.5q-1.142,1.01-2.288,2.016a1.843,1.843,0,0,0-.61,2.364,25.169,25.169,0,0,1,.579,2.667c.047.239.154.526-.115.706a.318.318,0,0,1-.18.059C10.955,13.45,10.812,13.32,10.674,13.242ZM10.8,7.68c-1.27.945-2.554,1.871-3.811,2.832-.29.222-.651.446-.653.894,0-.449.363-.673.653-.894C8.243,9.551,9.528,8.625,10.8,7.68l.01-.008Zm.024-.018h0Zm.008-.006.015-.011Zm.026-.019a.6.6,0,0,1,.314-.15A.6.6,0,0,0,10.855,7.637Zm.564-.011-.005-.006Zm-.24-.139h0Z" transform="translate(0.499 0.5)" stroke="rgba(0,0,0,0)" stroke-miterlimit="10" stroke-width="1"/>
</symbol><symbol id="twitter" viewBox="0 0 24 24">
  <path id="twitter" d="M3.924-3.067l1.969-9.281a.883.883,0,0,0-.141-.844.61.61,0,0,0-.69-.094L-6.509-8.826a1.173,1.173,0,0,0-.529.335.289.289,0,0,0-.033.355.73.73,0,0,0,.429.261l2.96.924,6.871-4.326q.281-.187.429-.08.094.067-.054.2L-2-6.134h0L-2.21-3.08a.86.86,0,0,0,.6-.295L-.161-4.768l3,2.21Q3.7-2.076,3.924-3.067Zm7.125-10.165A11.731,11.731,0,0,1,12-8.571a11.731,11.731,0,0,1-.951,4.661A12.055,12.055,0,0,1,8.491-.08a12.055,12.055,0,0,1-3.83,2.558A11.731,11.731,0,0,1,0,3.429a11.731,11.731,0,0,1-4.661-.951A12.055,12.055,0,0,1-8.491-.08a12.055,12.055,0,0,1-2.558-3.83A11.731,11.731,0,0,1-12-8.571a11.731,11.731,0,0,1,.951-4.661,12.055,12.055,0,0,1,2.558-3.83,12.055,12.055,0,0,1,3.83-2.558A11.731,11.731,0,0,1,0-20.571a11.731,11.731,0,0,1,4.661.951,12.055,12.055,0,0,1,3.83,2.558A12.055,12.055,0,0,1,11.049-13.232Z" transform="translate(12 20.571)"/>
</symbol><symbol id="vk" viewBox="0 0 25.724 14.676">
  <path id="vk" d="M12.817-13.607q.308.857-2.009,3.938-.321.429-.871,1.138-.536.683-.737.964a6.437,6.437,0,0,0-.408.663.884.884,0,0,0-.161.563,3.023,3.023,0,0,0,.174.462,1.918,1.918,0,0,0,.435.576q.308.295.763.71a.145.145,0,0,1,.067.054,13.338,13.338,0,0,1,2.558,2.96,1.858,1.858,0,0,1,.087.167,1.648,1.648,0,0,1,.094.355A1.034,1.034,0,0,1,12.8-.6a.662.662,0,0,1-.335.368,1.552,1.552,0,0,1-.79.167L8.25-.013A1.5,1.5,0,0,1,7.5-.08a3.259,3.259,0,0,1-.7-.295L6.536-.536A6.278,6.278,0,0,1,5.6-1.393q-.536-.576-.917-1.038a4.437,4.437,0,0,0-.817-.777.85.85,0,0,0-.757-.208A.875.875,0,0,0,3-3.368a1.168,1.168,0,0,0-.228.194,1.7,1.7,0,0,0-.288.4,2.746,2.746,0,0,0-.228.7A4.416,4.416,0,0,0,2.17-1.045a1.363,1.363,0,0,1-.047.368.9.9,0,0,1-.1.248l-.054.067a1.064,1.064,0,0,1-.71.295H-.281A6.087,6.087,0,0,1-2.237-.288,7.475,7.475,0,0,1-4-1a16.061,16.061,0,0,1-1.379-.884,7.958,7.958,0,0,1-.944-.77l-.335-.321q-.134-.134-.368-.4t-.958-1.219q-.723-.951-1.42-2.022t-1.641-2.826q-.944-1.754-1.748-3.643a1.068,1.068,0,0,1-.08-.362.433.433,0,0,1,.04-.214l.054-.08A.933.933,0,0,1-12.013-14l3.67-.027a1.433,1.433,0,0,1,.308.087.909.909,0,0,1,.214.114l.067.04a.884.884,0,0,1,.321.429q.268.67.616,1.386t.549,1.092l.214.388q.388.8.75,1.393a6.88,6.88,0,0,0,.65.917,3.208,3.208,0,0,0,.556.516.849.849,0,0,0,.455.188,1,1,0,0,0,.362-.067.23.23,0,0,0,.067-.067A2.662,2.662,0,0,0-3.054-7.9a2.168,2.168,0,0,0,.181-.629q.06-.388.127-1.085a10.406,10.406,0,0,0,0-1.674,6.224,6.224,0,0,0-.121-.978,2.564,2.564,0,0,0-.187-.616l-.08-.161a1.642,1.642,0,0,0-1.138-.576q-.174-.027.067-.321a1.587,1.587,0,0,1,.509-.4,8.786,8.786,0,0,1,3.2-.321,8.9,8.9,0,0,1,1.808.174,1.542,1.542,0,0,1,.449.181.719.719,0,0,1,.275.321,2.094,2.094,0,0,1,.141.429,3.087,3.087,0,0,1,.047.609q0,.388-.013.737t-.033.944q-.02.6-.02,1.1,0,.147-.013.563t-.007.643q.007.228.047.542a1.473,1.473,0,0,0,.154.522.891.891,0,0,0,.3.328q.107.027.228.054t.348-.147a4.865,4.865,0,0,0,.509-.462,6.925,6.925,0,0,0,.7-.9q.415-.609.911-1.44a21.854,21.854,0,0,0,1.433-3.013.918.918,0,0,1,.134-.234.6.6,0,0,1,.147-.141l.054-.04.067-.033a.711.711,0,0,1,.174-.04,1.076,1.076,0,0,1,.268-.007L11.464-14a2.106,2.106,0,0,1,.857.033.782.782,0,0,1,.415.221Z" transform="translate(12.871 14.667)"/>
</symbol><symbol id="way_curve" viewBox="0 0 65.518 133.006"><g transform="translate(-828.445 -423.798)"><path d="M836.445,423.8h2.08l.037,0h.227l.038,0h.047l.04,0h.007l.037,0h.093l.037,0h.009l.037,0h.009l.037,0h.4l.037,0h.008l.038,0h0l.039,0h0l.039,0h.007l.037,0h.008l.038,0h0l.039,0h.008l.037,0h.008l.037,0h.008l.035,0h0l.038,0h.008l.038,0h.007l.038,0h.006l.034,0h.008l.036,0h.009l.037,0h.008l.035,0h.006l.036,0h.008l.036,0h.01l.036,0h.007l.034,0h.007l.037,0h.009l.035,0h.01l.037,0h.006l.032,0h.01l.035,0h.01l.036,0h.009l.034,0h.006l.035,0h.01l.035,0h.01l.036,0h.008l.032,0h.008l.035,0h.011l.035,0h.01l.036,0h.007l.032,0h.009l.035,0h.011l.035,0h.01l.032,0h.008l.035,0h.009l.035,0h.011l.035,0h.008l.032,0h.008l.035,0h.011l.034,0h.011l.035,0h.008l.031,0h.01l.034,0h.012l.033,0h.012l.031,0h.01l.031,0h.012l.033,0h.012l.034,0h.011l.029,0h.009l.034,0h.012l.034,0h.011l.031,0,.014,0,.028,0h.011l.034,0h.011l.034,0h.011l.03,0h.011l.031,0h.012l.033,0h.013l.033,0h.011l.028,0h.011l.033,0h.012l.034,0h.011l.034,0h.009l.029,0h.012l.033,0h.012l.033,0h.012l.03,0h.011l.031,0h.011l.034,0h.011l.035,0h.009l.031,0h.008l.035,0h.01l.035,0h.009l.036,0h.008l.031,0h.01l.034,0h.011l.034,0h.01l.032,0h.009l.032,0,.011,0,.034,0h.011l.035,0h.008l.031,0h.009l.034,0h.012l.032,0h.014l.03,0h.012l.028,0h.011l.034,0h.012l.033,0h.012l.028,0h.013l.03,0,.012,0,.033,0h.011l.034,0h.011l.028,0h.01l.033,0,.013,0,.032,0h.013l.028,0,.016,0,.026,0,.012,0,.032,0h.014l.032,0,.013,0,.026,0,.015,0,.028,0h.013l.031,0,.015,0,.031,0h.013l.025,0h.014l.031,0,.013,0,.031,0h.015l.025,0,.019,0,.023,0,.014,0,.031,0h.014l.031,0,.015,0,.023,0,.02,0,.024,0,.015,0,.03,0,.016,0,.028,0,.016,0,.022,0,.02,0,.024,0,.017,0,.028,0,.017,0,.023,0,.02,0,.023,0,.016,0,.028,0,.017,0,.029,0,.017,0,.018,0,.025,0,.021,0,.016,0,.028,0,.019,0,.021,0,.023,0,.02,0,.022,0,.023,0,.016,0,.029,0,.016,0,.023,0,.021,0,.022,0,.015,0,.029,0,.017,0,.026,0,.02,0,.019,0,.024,0,.021,0,.016,0,.029.005.016,0,.025,0,.02,0,.02,0,.021,0,.024,0,.017,0,.028.005.017,0,.019,0,.027,0,.017,0,.021,0,.025,0,.018,0,.028,0,.017,0,.018,0,.025,0,.02,0,.017,0,.028,0,.017,0,.024,0,.021,0,.018,0,.026,0,.02,0,.017,0,.028,0,.018,0,.019,0,.025,0,.018,0,.025,0,.02,0,.018,0,.025,0,.021,0,.017,0,.027,0,.018,0,.019,0,.026,0,.019,0,.018,0,.028,0,.014,0,.03.005.016,0,.019,0,.026.005.02,0,.015,0,.031.005.014,0,.032,0,.013,0,.021,0,.018,0,.027,0,.014,0,.031.006.014,0,.026,0,.019,0,.021,0,.013,0,.032.005.014,0,.033.005.012,0,.021,0h.007l.039.007.012,0,.033.006.013,0,.032.005.013,0,.022,0,.007,0,.039.006.01,0,.036.006.01,0,.04.007h.006l.022,0,.009,0,.038.006.009,0,.038.007h.008l.068.012.011,0,.035.006.011,0,.036.007h.01l.022,0,.006,0,.04.007h.008l.04.008h.006l.07.012.007,0,.039.007h.009l.037.007.009,0,.069.013h.007l.041.008h.005l.071.013h0l.046.009h.006l.041.008h.006l.07.013h.005l.042.008h.005l.119.023h0l.044.008h.005l.118.023h0l.045.009h0l.118.024h0l.046.009h0l.072.014h0l.043.009h.006l.116.023.006,0,.043.009h0l.119.025h0l.12.025h0l.048.01h0l.29.062h0a63.065,63.065,0,0,1,8.14,2.334l-5.094,14.108a48.382,48.382,0,0,0-16.472-2.864v-15Z" transform="translate(-8)" fill="#e6e6e6"/><path d="M871.386,434.267a63.831,63.831,0,0,1,11.521,9.746h0l.116.125h0l.028.031h0c.049.052.1.105.146.158h0l.116.126h0l.028.031h0l.027.031h0l.114.126h0l.114.126v0l.028.03v0l.028.03h0l.084.1h0l.026.03,0,0,.027.03,0,0,.027.03v0l.028.03h0l.026.03,0,0,.026.029,0,0,.025.028,0,0,.026.03h0l.027.031h0l.027.03,0,0,.025.028,0,.005.025.028,0,0,.026.029,0,0,.054.061,0,0,.025.029,0,0,.026.029,0,0,.026.029,0,0,.025.029,0,0,.026.03,0,0,.026.029,0,0,.025.029,0,0,.026.029,0,0,.053.061,0,0,.025.029,0,.005.024.027.005.006.024.028,0,0,.023.027,0,0,.024.027,0,.005.023.027.006.007.023.027.005.006.024.027.005.006.024.029h0l.023.027.006.007.022.026.007.007.022.026.006.008.022.026.007.007.02.025.007.008.02.024.006.006.022.026.007.009.022.025.007.008.021.026.007.008.02.024.008.008.018.023.007.007.021.026.008.008.021.025.007.01.021.024.008.01.018.021.01.012.017.02.01.012.017.021.009.011.02.024.009.01.02.024.008.01.018.021.01.012.015.019.012.014.017.02.009.011.019.023.01.011.018.023.01.012.015.018.013.016.015.017.011.014.017.02.009.011.019.023.009.012.019.022.01.013.014.017.015.017.012.016.015.018.013.015.012.016.016.018.012.015.015.019.013.016.012.014.016.02.012.015.016.019.011.014.016.02.012.015.012.015.016.019.013.016.011.013.017.022.01.011.019.024.009.011.017.022.011.013.013.016.016.02.012.015.01.013.019.023.008.01.02.025.008.01.023.028.005.007.043.053,0,0,.025.032.005.006.024.03.005.006.026.032,0,0,.044.054,0,0,.027.034,0,0,.027.034h0l.029.037h0l.074.093h0l.029.036v0c.315.4.623.8.927,1.208l-12.008,8.989a48.658,48.658,0,0,0-12.185-11.488Z" transform="translate(-6)" fill="#e6e6e6"/><path d="M894.809,462.238a63.037,63.037,0,0,1,4.495,16.006h0l.018.124h0l.007.046v.005l.017.121h0l.007.049h0l.017.123v0l.006.045v.005l.006.046v0l.01.072v0l.006.044v.006l.015.119v.006l.005.042v.007l.01.071v0l.005.043,0,.009,0,.04v.007l.009.072v0l.005.043v.01l.005.037v.01l.009.07v.008l0,.038,0,.011,0,.034v.013l.009.068v.013l0,.033,0,.014,0,.031,0,.016,0,.02,0,.026,0,.021,0,.016,0,.029,0,.016,0,.028,0,.019,0,.018,0,.027,0,.02,0,.016,0,.03,0,.017,0,.026,0,.02,0,.019,0,.027,0,.019,0,.017,0,.029,0,.016,0,.024,0,.023,0,.018,0,.027,0,.02,0,.019,0,.025,0,.02,0,.02,0,.026,0,.018,0,.025,0,.021,0,.019,0,.025,0,.02,0,.018,0,.028v.018l0,.025,0,.021,0,.021,0,.021,0,.024v.016l0,.03,0,.016,0,.028,0,.018,0,.022,0,.02,0,.024,0,.017,0,.029v.017l0,.024,0,.022,0,.021,0,.022,0,.023,0,.017,0,.03v.015l0,.027v.019l0,.023v.016l0,.029v.015l0,.031,0,.015,0,.024,0,.022,0,.022v.016l0,.03v.015l0,.031v.015l0,.027v.017l0,.025v.014l0,.031v.015l0,.031v.015l0,.025,0,.02,0,.025v.013l0,.032v.015l0,.031v.014l0,.026v.017l0,.028v.012l0,.033v.013l0,.033v.013l0,.027,0,.016,0,.028v.013l0,.033v.013l0,.034v.01l0,.03v.011l0,.033v.011l0,.035v.01l0,.036v.008l0,.032v.009l0,.035v.011l0,.035v.01l0,.036v.008l0,.032v.009l0,.035v.011l0,.035v.01l0,.036v.006l0,.034v.009l0,.035v.011l0,.035v.009l0,.038v.005l0,.035v.007l0,.038v.008l0,.037v.008l0,.038v0l0,.038v.006l0,.038v.008l0,.038v.007l0,.039v0l0,.038v.007l0,.038v.007l0,.038v.007l0,.038v0l0,.039v.005l-14.975.873a48.1,48.1,0,0,0-3.833-16.252l13.781-5.925Z" transform="translate(-6 2.936)" fill="#e6e6e6"/><path d="M884.194,495.859l14.769,2.625q-.274,1.542-.622,3.058v0l-.011.044v0l-.01.042v.006l-.016.069,0,0-.009.041,0,.007-.009.039,0,.007-.016.068v.009l-.009.037,0,.01-.008.034,0,.012-.005.025-.005.021-.005.019,0,.017-.007.028,0,.016-.007.027,0,.017-.005.023-.006.022,0,.018-.006.027-.005.018,0,.019-.006.023-.005.021-.005.019-.006.025,0,.015-.007.029,0,.015-.007.026,0,.018-.006.023,0,.016-.006.027,0,.014-.007.029,0,.015-.007.03,0,.013-.007.026,0,.015-.007.027,0,.012-.008.032,0,.012-.008.033,0,.009-.008.032,0,.01-.008.031,0,.008-.009.034,0,.01-.009.034,0,.008-.009.036v0l-.009.036v0l-.01.036,0,.008-.009.036v.006l-.01.038v0l-.01.041h0l-.01.038,0,.006-.009.037,0,0-.009.038,0,0-.02.079v0l-.01.039v0l-.01.039v0l-.022.081h0l-.011.04v0l-.011.04v0l-.045.166h0a63.1,63.1,0,0,1-4.353,11.535h0l-.018.037v0l-.037.074h0l-.019.037v0l-.019.036v0l-.037.074v0l-.018.035,0,0-.017.035,0,0-.018.035v0l-.018.035h0l-.018.035,0,.005-.017.034,0,0-.017.034,0,.005-.018.035h0l-.017.034,0,.006-.016.032,0,.007-.016.032,0,.007-.016.032,0,0-.016.031,0,.006-.017.032,0,.007-.016.032,0,.007-.016.032,0,.005-.015.03,0,.006-.015.031-.005.009-.015.029-.005.01-.015.03-.005.009-.013.025-.006.012-.014.026-.005.01-.014.028-.007.012-.014.028-.006.01-.012.024-.008.015-.011.022-.006.012-.014.026-.008.014-.013.026-.007.013-.012.023-.008.015-.011.021-.007.014-.013.024-.007.014-.014.026-.006.013-.014.026-.007.013-.01.019-.01.018-.01.02-.008.015-.013.024-.008.015-.013.024-.008.015-.01.019-.01.02-.009.017-.01.018-.012.022-.008.015-.012.024-.009.016-.009.017-.012.021-.007.015-.014.026-.008.013-.009.017-.012.023-.009.017-.008.014-.013.026-.007.012-.015.028-.006.012-.012.021-.01.019-.01.017-.006.012-.015.028-.006.011-.016.029-.005.01-.018.033,0,.007-.011.019,0,.005-.02.036,0,.005-.019.035,0,.007-.021.038v0l-.057.1h0l-.1.188h0c-.182.326-.365.65-.552.973l-12.985-7.51A47.979,47.979,0,0,0,884.194,495.859Z" transform="translate(-5 5.557)" fill="#e6e6e6"/><path d="M871.613,520.7l10.875,10.332q-2.071,2.181-4.343,4.16h0l-.035.03h0l-.126.109h0l-.036.031h0l-.126.109h0l-.035.031h0l-.126.108h0l-.162.138h0l-.034.029,0,0-.032.028,0,0-.089.075,0,0-.034.028,0,0-.089.076h0l-.033.028,0,0-.03.025-.007.005-.031.026,0,0-.054.045h0l-.034.028-.005,0-.031.026-.005,0-.031.026,0,0-.053.044-.007.006-.027.022-.01.008-.026.022-.008.007-.027.022-.008.007-.053.043-.007.005-.028.023-.007.006-.028.023-.008.006-.029.025-.006,0-.052.043-.009.007-.027.022-.007.006-.029.023-.006.006-.031.025-.005,0-.053.043-.008.007-.027.022-.008.007-.027.021-.009.007-.025.02-.011.009-.015.013-.02.016-.016.012-.01.009-.025.02-.011.008-.025.02-.01.008-.023.019-.013.01-.015.012-.016.013-.02.016-.01.008-.025.02-.01.008-.024.019-.012.01-.022.017-.012.01-.018.014-.018.014-.016.013-.011.009-.025.019-.01.009-.024.018-.012.01-.024.019-.011.009-.016.012-.02.016-.015.012-.013.01-.022.017-.013.01-.022.018-.013.01-.019.015-.016.013-.015.011-.021.016-.014.012-.014.011-.022.017-.013.01-.022.017-.012.01-.022.017-.014.011-.015.012-.02.015-.016.012-.016.012-.018.015-.014.011-.022.017-.013.01-.02.015-.015.012-.016.012-.021.016-.014.011-.017.013-.018.014-.015.012-.019.014-.016.012-.018.014-.017.014-.014.01-.022.017-.014.011-.018.013-.017.014-.015.011-.02.015-.015.012-.015.011-.021.016-.013.01-.023.017-.013.01-.018.014-.018.014-.015.012-.019.014-.017.012-.013.01-.023.018-.012.009-.023.017-.013.01-.021.016-.013.01-.018.014-.017.013-.018.013-.012.009-.023.017-.014.01-.022.017-.013.01-.021.015-.014.012-.018.013-.016.012-.019.014-.012.009-.023.017-.013.01-.023.017-.013.01-.019.014-.017.012-.016.013-.018.013-.018.013-.013.01-.022.016-.013.01-.023.017-.013.01-.02.014-.016.012-.018.013-.017.012-.017.014-.013.009-.024.017-.012.009-.023.017-.013.01-.024.018-.011.007-.019.015-.015.01-.021.016-.01.007-.025.018-.011.009-.026.018-.009.007-.026.019-.01.008-.022.015-.013.01-.02.014-.012.009-.025.018-.011.008-.025.018-.011.008-.025.019-.01.007-.021.015-.013.009-.023.016-.009.007-.026.019-.01.008-.026.018-.011.008-.023.016-.013.01-.02.014-.013.01-.023.016-.01.007-.026.019-.01.007-.026.018-.01.008-.026.018-.009.007-.023.016-.011.007-.024.018-.009.006-.026.019-.011.008-.026.018-.01.007-.026.019-.009.006-.024.017-.009.006-.025.018-.01.007-.026.018-.01.008-.027.018-.009.007-.027.019-.009.006-.023.016-.01.007-.025.018-.009.006-.027.019-.009.007-.028.019-.008.006-.028.019-.008.005-.025.018-.008.006-.027.018-.008.006-.028.019-.009.006-.027.019-.009.007-.028.019-.006,0-.027.019-.007.005-.028.019-.007.005-.028.02-.009.006-.028.019-.008.005-.029.02-.006.005-.027.018-.006.005-.028.019-.009.005-.027.02-.009.005-.028.02-.008,0-.029.02-.007,0-.026.019-.007,0-.028.019-.008.005-.028.02-.008.005-.028.019-.009.007-.028.018-.009.006-.025.017-.006.005-.029.019-.007.005-.03.02-.007.005-.029.019-.008.005-.029.02-.006,0-.028.019-.005,0-.03.021-.006,0-.029.019-.009.006-.028.019-.008.005-.03.02-.005,0-.029.019,0,0-.03.02-.007.005-.03.019-.007.005-.029.019-.008.006-.029.019-.006,0-.028.018-.006,0-.029.02-.007,0-.03.02-.007.005-.03.019-.007,0-.03.02-.005,0-.03.02,0,0-.031.02-.007.005-.03.019-.007.005-.029.019-.008.005-.03.02,0,0-.03.019,0,0-.031.02-.007.005-.029.019-.008.005-.03.019-.007.005-.029.019-.008.005-.026.017-.007,0-.028.018-.009.006-.028.018-.009.006-.029.019-.008.005-.029.019-.006,0-.029.018-.005,0-.03.02-.007,0-.03.02-.007,0-.03.019-.007.005-.03.019-.007,0-.028.018-.005,0-.03.02-.008,0-.029.019-.008.005-.029.019-.008.005-.03.019-.005,0-.029.019-.005,0-.031.019-.007.005-.029.018-.009.006-.029.018-.008.005-.029.019-.008,0-.027.017-.006,0-.029.019-.009.005-.029.018-.008.005-.029.019-.008,0-.03.018-.006,0-.028.018-.006,0-.03.019-.008.005-.029.018-.009.005-.029.018-.008.005-.029.019-.008,0-.026.017-.008,0-.028.018-.009.006-.029.017-.009.006-.028.017-.01.006-.029.018-.006,0-.027.017-.008,0-.029.018-.008.005-.029.018-.009.006-.03.018-.007,0-.03.019-.007,0-.028.017-.006,0-.03.019-.008.005-.03.018-.007,0-.031.019-.006,0-.032.019,0,0-.03.018-.005,0-.031.019-.008,0-.03.018-.008.005-.03.018-.008.005-.028.018-.009,0-.027.016-.006,0-.031.018-.007.005-.031.018-.007,0-.03.018-.008.005-.031.018-.005,0-.029.018-.006,0-.031.019-.007,0-.029.017-.01.006-.029.017-.008,0-.031.018-.006,0-.028.017-.006,0-.031.018-.008,0-.029.018-.009.005-.03.017-.008.005-.03.018-.008,0-.025.015-.009.006-.028.016-.01.006-.028.016-.011.006-.028.017-.009.005-.03.018-.007,0-.028.016-.006,0-.03.017-.009.005-.03.017-.009.006-.029.016-.009.006-.03.017-.006,0-.028.016-.007,0-.03.018-.008,0-.03.017-.009.005-.03.018-.007,0-.032.018-.006,0-.028.017-.007,0-.029.016-.01.006-.029.017-.009.005-.03.017-.008.005-.03.017-.008,0-.026.015-.008.005-.03.016-.009.006-.029.016-.01.006-.029.016-.009.006-.028.015-.01.006-.025.014-.01.006-.028.016-.01.005-.029.016-.01.006-.028.016-.011.006-.027.015-.01.006-.025.014-.01.005-.028.016-.01.006-.028.015-.012.007-.027.015-.011.006-.026.015-.013.007-.024.013-.009,0-.029.016-.01.006-.028.016-.011.006-.029.015-.009.006-.03.016-.007,0-.028.015-.007,0-.03.017-.01.005-.029.016-.009.005-.03.017-.009.005-.028.015-.01.006-.027.014-.007,0-.03.016-.01.006-.03.016-.009.005-.029.016-.01.006-.03.016-.006,0-.028.015-.008.005-.031.016-.008.005-.03.016-.01.005-.029.016-.009,0-.029.015-.01.006-.025.013-.01.006-.028.015-.012.006-.028.015-.011.006-.029.015-.009.006-.028.014-.011.006-.024.013-.011.006-.028.015-.011.006-.028.015-.011.006-.029.015-.011.006-.023.012-.016.009-.023.011-.012.007-.026.014-.012.006-.028.015-.011.006-.028.014-.013.007-.024.013-.014.007-.022.012-.014.007-.025.013-.012.007-.027.014-.014.007-.027.014-.012.006-.024.013-.014.007-.023.012-.013.007-.026.013-.013.007-.026.014-.013.006-.027.015-.013.006-.023.012-.016.008-.021.011-.016.008-.023.012-.014.007-.026.014-.013.007-.028.014-.012.006-.024.012-.014.008-.024.012-.012.006-.026.013-.013.007-.027.014-.013.006-.027.014-.014.007-.022.011-.016.008-.021.011-.017.009-.022.011-.014.007-.026.013-.015.008-.025.013-.014.007-.022.01-.018.01-.019.009-.019.01-.021.01-.009.005-6.733-13.4A48.53,48.53,0,0,0,871.613,520.7Z" transform="translate(-3 8.006)" fill="#e6e6e6"/><path d="M847.45,534.547l3.386,14.613a63.512,63.512,0,0,1-10.717,1.533h0l-.024,0h0l-.177.01h0l-.177.009h-.1l-.119.006h-.109l-.094,0h-.135l-.1,0h-.134l-.092,0h-.138l-.066,0h-4.134l-.06,0h-.322l-.063,0h-.143l-.062,0h-.14l-.037,0h-.947l-.027,0h-.148l-.057,0h-.063l-.021,0h-.035l-.086-.005h-.061l-.023,0h-.005l-.027,0h0l-.088-.005h0l-.028,0h0l-.027,0h0q-1.543-.1-3.069-.26l1.6-14.915a55.124,55.124,0,0,0,5.875.313A48.808,48.808,0,0,0,847.45,534.547Z" transform="translate(0 6.006)" fill="#e6e6e6"/></g></symbol><symbol id="whatsapp" viewBox="0 0 20.571 20.732">
  <path id="whatsapp" d="M2.21-6.877q.522-.65.7-.65a6.1,6.1,0,0,1,1.306.589,5.8,5.8,0,0,1,1.2.71.571.571,0,0,1,.027.2A2.822,2.822,0,0,1,5.21-5.009a1.8,1.8,0,0,1-.951.877,3.172,3.172,0,0,1-1.366.355,7.233,7.233,0,0,1-2.545-.83,7.643,7.643,0,0,1-2.277-1.58A17.647,17.647,0,0,1-3.911-8.665a4.687,4.687,0,0,1-.951-2.6v-.107a2.96,2.96,0,0,1,.991-2.116,1.013,1.013,0,0,1,.7-.295,2.132,2.132,0,0,1,.241.02,2.169,2.169,0,0,0,.254.02.55.55,0,0,1,.355.087.969.969,0,0,1,.208.368q.107.268.442,1.179a7.828,7.828,0,0,1,.335,1,1.359,1.359,0,0,1-.462.77q-.462.489-.462.623a.383.383,0,0,0,.067.2A6.03,6.03,0,0,0-.83-7.674,8.54,8.54,0,0,0,1.192-6.321a.594.594,0,0,0,.295.094Q1.688-6.228,2.21-6.877ZM.188-.429A8.185,8.185,0,0,0,3.449-1.1,8.482,8.482,0,0,0,6.134-2.893,8.482,8.482,0,0,0,7.929-5.578,8.185,8.185,0,0,0,8.6-8.839a8.185,8.185,0,0,0-.67-3.261,8.482,8.482,0,0,0-1.795-2.685A8.482,8.482,0,0,0,3.449-16.58a8.185,8.185,0,0,0-3.261-.67,8.185,8.185,0,0,0-3.261.67,8.482,8.482,0,0,0-2.685,1.795A8.482,8.482,0,0,0-7.554-12.1a8.185,8.185,0,0,0-.67,3.261A8.182,8.182,0,0,0-6.616-3.911L-7.674-.79l3.241-1.031A8.235,8.235,0,0,0,.188-.429ZM-3.73-18.134a9.812,9.812,0,0,1,3.917-.8,9.812,9.812,0,0,1,3.917.8,10.2,10.2,0,0,1,3.221,2.156,10.2,10.2,0,0,1,2.156,3.221,9.812,9.812,0,0,1,.8,3.917,9.812,9.812,0,0,1-.8,3.917A10.2,10.2,0,0,1,7.326-1.7,10.2,10.2,0,0,1,4.1.455a9.812,9.812,0,0,1-3.917.8A9.943,9.943,0,0,1-4.7,0l-5.585,1.795,1.821-5.424a9.857,9.857,0,0,1-1.446-5.21,9.812,9.812,0,0,1,.8-3.917,10.2,10.2,0,0,1,2.156-3.221A10.2,10.2,0,0,1-3.73-18.134Z" transform="translate(10.286 18.938)"/>
</symbol></svg>