<svg width="70" height="70" fill="none" xmlns="http://www.w3.org/2000/svg"><g clip-path="url(#clip0)"><path d="M58.201 1.367c-2.418 2.419-4.348 4.374-5.924 5.967l5.761 5.76c1.59-1.577 3.544-3.507 5.964-5.926l-5.8-5.8zm5.603 50.057l-1.687 8.605-.047-.01H7.93l-.047.01-1.687-8.605.093-.018h57.422l.093.018z" fill="#C1B0B5"/><path d="M23.301 39.102c.098-2.42.392-5.829 1.232-8.448a16.393 16.393 0 01-4.172-3.031l2.902-2.9a12.239 12.239 0 014.198-2.755 16.408 16.408 0 01-4.198-3.046l2.9-2.9c4.497-4.498 11.61-4.786 16.443-.864 2.91-1.073 4.045-2.14 9.671-7.824l5.761 5.76c-5.743 5.7-6.745 6.797-7.81 9.686 3.887 4.79 3.64 11.818-.744 16.322H23.301z" fill="#B8ECBC"/><path d="M7.883 60.03l1.687 8.603h50.86l1.687-8.604c-9.583-.022-42.423-.003-54.234 0zM60.02 26.797l-2.461 12.305H12.44L9.98 26.797H1.366c.019.095 4.795 24.454 4.83 24.627l.092-.018H63.71l.093.018 4.829-24.627H60.02z" fill="#FFDA8F"/><path d="M69.688 25.928a1.367 1.367 0 00-1.056-.498H60.02c-.651 0-1.213.46-1.34 1.099l-2.242 11.205H52.28c2.88-4.63 2.759-10.639-.498-15.172 1.119-2.669 3.16-4.401 8.36-9.626 1.385-1.373 2.954-2.93 4.827-4.8a1.369 1.369 0 000-1.935l-5.8-5.8a1.367 1.367 0 00-1.934 0c-2.046 2.045-3.778 3.796-5.17 5.203-.013.006-5.208 5.975-10.435.75a1.367 1.367 0 10-1.933 1.934 9.543 9.543 0 006.768 2.798h.045c-1.536 1.396-2.474 2.01-3.686 2.519a13.532 13.532 0 00-4.023-1.978 1.367 1.367 0 10-.785 2.62 10.818 10.818 0 013.729 1.973c.375.304.882.388 1.335.22 3.017-1.112 4.355-2.285 9.202-7.168l3.82 3.82c-4.87 4.847-6.04 6.186-7.156 9.215-.167.453-.083.96.221 1.335 3.37 4.152 3.218 10.112-.28 14.092h-4.02a15.11 15.11 0 01-1.329-11.107 1.367 1.367 0 00-2.642-.705c-.19.715-.337 1.447-.439 2.183a6.865 6.865 0 01-7.525-1.449 1.367 1.367 0 00-1.934 1.933c2.443 2.445 6.023 3.354 9.305 2.46a17.962 17.962 0 001.52 6.686H24.744c.143-2.124.448-4.659 1.091-6.664a1.367 1.367 0 00-.683-1.636 14.92 14.92 0 01-2.813-1.855l1.891-1.89a10.842 10.842 0 013.731-2.449 1.367 1.367 0 00.118-2.493 14.965 14.965 0 01-2.84-1.87c1.84-1.829 1.978-2.002 2.467-2.426a1.367 1.367 0 10-1.792-2.065c-.625.542-.766.73-3.618 3.569a1.368 1.368 0 000 1.933c.73.73 1.516 1.392 2.352 1.98a13.656 13.656 0 00-2.351 1.887l-2.902 2.9a1.367 1.367 0 000 1.934 17.821 17.821 0 003.525 2.738c-.528 2.08-.79 4.432-.916 6.407h-8.442l-2.241-11.206a1.367 1.367 0 00-1.34-1.1H1.366a1.367 1.367 0 00-1.342 1.63l8.203 41.837A1.367 1.367 0 009.57 70h50.86c.653 0 1.215-.463 1.341-1.104l8.203-41.836a1.367 1.367 0 00-.286-1.132zM58.202 3.301l3.866 3.866c-1.453 1.448-4.026 3.998-4.026 3.998l-3.837-3.837c1.174-1.186 2.473-2.499 3.997-4.027zm2.938 24.863h5.831l-1.876 9.57h-5.869l1.914-9.57zm1.542 21.875h-5.917l1.914-9.57h5.88l-1.877 9.57zm-1.689 8.613H9.006l-1.152-5.879h54.292l-1.153 5.88zM44.77 67.266l.8-5.88h6.235l-1.12 5.88H44.77zm-8.402 0v-5.88h6.442l-.8 5.88h-5.642zm-8.377 0l-.8-5.88h6.442v5.88H27.99zm-8.675 0l-1.12-5.88h6.236l.8 5.88h-5.916zM5.44 40.469h5.88l1.913 9.57H7.317l-1.876-9.57zm18.83 0h9.361v9.57H25.64l-1.368-9.57zm21.457 0l-1.367 9.57h-7.994v-9.57h9.361zm8.249 9.57h-6.854l1.367-9.57h7.4l-1.913 9.57zm-32.468-9.57l1.368 9.57h-6.854l-1.914-9.57h7.4zM8.86 28.164l1.914 9.57H4.905l-1.877-9.57H8.86zm.683 33.223h5.87l1.12 5.879h-5.837l-1.153-5.88zm49.762 5.879h-5.836l1.12-5.88h5.869l-1.153 5.88z" fill="#1E1E1E"/><path d="M32.266 13.945a1.367 1.367 0 100-2.734 1.367 1.367 0 000 2.734z" fill="#1E1E1E"/></g><defs><clipPath id="clip0"><path fill="#fff" d="M0 0h70v70H0z"/></clipPath></defs></svg>