<svg width="101" height="148" fill="none" xmlns="http://www.w3.org/2000/svg"><g filter="url(#filter0_d_20_1115)" fill="#1F9AD7" stroke="#fff" stroke-width=".5"><path d="M56.82 104.884h.001l.218.105c.312.152.726.353 1.148.52-4.924 2.505-9.137 5.979-10.727 11.293-1.53 5.107-.615 11.849 4.295 20.955-8.99-10.669-12.57-20.293-12.196-31.548.527.391 1.192.662 2.009.776h0c.225.031.478-.001.728-.061a5.89 5.89 0 00.779-.256c.417-.167.83-.368 1.14-.519l.2-.097a7.27 7.27 0 002.377-1.788v-.001c1.61-1.851 2.298-4.406 2.768-6.732.458-2.26.872-4.676 1.121-7.094a79.72 79.72 0 00.991 5.923h0c.473 2.326 1.158 4.88 2.768 6.732v.001a7.336 7.336 0 002.38 1.791zM91.768 64.3a35.569 35.569 0 001.174 4.88h0l-.927-4.921m-.247.04l.247-.04m-.247.04s0 0 0 0l.247-.04m-.247.04c-.317-1.935-.061-3.799.352-5.622.169-.746.365-1.49.56-2.228l.13-.491c.236-.903.462-1.8.63-2.703M92.015 64.26c-.436-2.661.235-5.2.906-7.745.282-1.067.564-2.135.765-3.213.26-1.404.38-2.826.5-4.251a81.05 81.05 0 01.19-2.079C96.364 28.298 78.159 9.236 74.903 7.316a52.337 52.337 0 01.522.673M93.44 53.255s0 0 0 0l.243.045-.243-.045zm0 0c.259-1.392.376-2.792.495-4.21.058-.695.117-1.395.192-2.1m0 0s0 0 0 0l.249.026-.249-.027zm0 0c1.05-9.868-3.59-19.872-8.672-27.376-2.539-3.747-5.18-6.86-7.26-9.004-1.04-1.073-1.935-1.9-2.605-2.444l-.165-.132m0 0a6.324 6.324 0 00-.689-.48c-.176-.225-.273-.344-.273-.344l11.322 28.126c.027.19.053.38.077.57l-.248.03-.239-.075c.057-.178.109-.357.155-.539C82.752 16.037 63.417-3.928 39.136.667a22.93 22.93 0 011.719-.033m34.57 7.355c.382.5.886 1.176 1.47 1.995 1.318 1.85 3.042 4.433 4.658 7.357 1.615 2.923 3.126 6.194 4.017 9.42.89 3.225 1.166 6.43.282 9.207l-.487-.045c-1.253-9.94-7.001-20.16-15.62-27.1C62.021 2.606 52.002-.973 40.854.635m0 0c-.56.08-1.123.175-1.689.282l1.689-.282zM73.86 33.168c.055-.38.068-.803.042-1.265.08.415.15.825.206 1.23l-.248.035zm0 0a23.26 23.26 0 00-.207-1.234c.024.44.011.842-.04 1.199l.247.035zm-11 70.336c.322-.76.425-1.629.364-2.506a8.283 8.283 0 00-.95-3.253 26.761 26.761 0 00-5.197-6.851c3.81-1.584 6.743-3.542 9.358-6.974l.482-.63c2.077-2.706 4.434-5.777 4.827-9.381m0 0s0 0 0 0l-.249-.027.249.027zM5.012 25.422a85.16 85.16 0 00-.717.655c.288-.151.575-.3.86-.447.241-.219.482-.435.722-.65-.287.146-.576.293-.865.442zm61.641 7.882l.124.22a4.04 4.04 0 01.202-.15l-.123-.219a4.229 4.229 0 00-.203.149zm.894-.51h-.001l.084.236-.082-.236h-.001z"/></g><path d="M36.62 52.538c-.662 1.221-1.84 2.606-3.336 2.279-1.382-.306-2.008-1.823-2.949-2.756-1.087-1.075-2.626-1.121-3.989-.644-1.47.516-2.419 2.243-2.568 3.866-.146 1.58.166 3.065 1.396 4.148 1.325 1.164 3.187.758 4.747 1.189.625.17 1.434.502 1.369 1.21-.55 6.003-5.627 10.87-5.409 11.439.224.577 4.859 2.805 6.884 4.183.754.513 2.575.2 3.265-1.773.492-1.41.098-3.069 1.026-4.329 1.046-1.42 3.14-1.51 4.648-1.029 1.41.449 2.704 1.58 2.97 3.165.244 1.453-1.271 3.23-2.2 4.183-.648.666-2.14 1.641-1.032 2.603.595.52 6.89 1.06 7.59 1.107.925-1.015 5.09-5.205 6.483-5.807 1.254-.54 2.195-.63 2.11.908-.048.851.17 1.784.683 2.015 1.396.627 5.062-3.3 5.188-5.226.2-3.033-1.81-1.602-2.528-2.442-.866-1.015-.513-1.606.02-2.827.595-1.364 1.696-2.35 2.535-3.535.795-1.122 1.233-2.443 1.013-3.845-.204-1.303-.925-2.382-1.665-3.41-.826-1.154-1.631-2.393-2.691-3.33-.951-.836-2.443-1.506-3.452-.377-1.03 1.15-.85 2.99-1.016 4.436-.075.662-.224 1.346-.656 1.862-.435.52-1.073.79-1.712.911-1.403.27-3.072-.057-4.064-1.196-.937-1.075-1.131-2.695-.815-4.07.343-1.494 1.335-2.555 2.263-3.684.825-1 1.532-2.214.781-3.496-.815-1.388-2.49-2.143-3.873-2.723-1.383-.58-2.806-1.05-4.2-1.613-.669-.27-1.335-.556-2-.837.04.296-4.088 8.103-4.815 9.445z" fill="#ACC917" stroke="#fff" stroke-width=".5" stroke-miterlimit="10"/><path d="M32.757 39.965c-.418-.228-.863-.54-1.03-1.029-.152-.452-.013-.929.167-1.345.472-1.086 1.356-2.044 1.488-3.269.15-1.377-1.023-2.26-2.083-2.77-1.335-.64-3-1.07-4.47-.811-1.227.217-2.213 1.563-2.21 2.798.007 2.154-.873 2.927-1.613 3.219-1.427.57-6.296-1.04-7.828-1.798-.496-.246-4.397 8.63-3.357 9.135 1.495.733 2.395-1.986 3.89-.416 1.78 1.865-.05 6.262-.5 7.006-.896 1.253-2.096 1.595-4.518-.694-.717-.677-1.862-.314-2.372.697-.632 1.25.554 6.843.765 8.196.893.836 2.952 2.282 3.86 3.293.703.783.73 1.598.336 2.56-.513 1.256-1.896 2.339-2.063 3.727-.17 1.41 1.852 4.048 2.895 4.995.816.744 1.475.52 2.294-.356.665-.712.628-3.617.598-4.009-.099-1.36 1.297-1.57 1.994-.943 1.213 1.09 5.232 4.354 6.584 4.952 4.091-4.639 5.427-10.723 5.47-11.24.062-.697-.662-.897-1.226-.968-1.858-.231-3.31-.235-4.614-1.157-1.386-.979-2.086-2.374-1.753-4.464.459-2.87 2.178-3.98 2.85-4.219.986-.299 3.065-.495 4.23.62 1.003.954 1.669 2.545 2.878 2.833.792.19 2.097-.313 3-2.221 2.267-3.913 3.901-7.768 4.696-9.192 0-.004-7.03-2.404-8.358-3.13z" fill="#FBEA24" stroke="#fff" stroke-width=".5" stroke-miterlimit="10"/><path d="M60.123 53.444c-1.145-.979-2.922-1.168-3.714-.367-.598.606-.758 2.215-.727 3.059.142 4.165-2.324 4.574-4.25 4.421-1.72-.135-2.644-1.652-2.858-3.428-.234-1.951 1.288-4.215 2.752-5.312 1.696-1.937.642-3.934.109-4.585-1.927-1.542-10.207-4.789-10.312-4.82.462-1.382 1.481-10.318 4.526-9.47.71.199 1.335.544 1.902.996.568.449 2.854 3.888 5.851 2.692 1.777-.709 1.933-2.418 1.434-3.739-1.339-3.04-8.474-2.442-7.855-3.638.316-.609 2.442-3.71 2.71-3.952.381-.345 1.4-.516 1.94-.313.816.31 6.613 4.806 7.194 5.112.475.1.428-.349-.428-1.096-1.234-1.075 1.08-.463.618-.35.513.264 4.519 4.337 4.682 4.946-.123.295-.856-.25-.965.306-.04.203 2.854 3.539 4.97 7.26.432 1.1.85 3.502.85 4.92 0 .33-.197.75-.557.804-.35.05-.605-.303-.768-.573-.428-.723-.7-1.581-.972-2.378-.292-.855-.76-1.503-1.719-1.385-.9.11-1.75.897-1.923 1.74-.503 2.432.812 4.71 3.486 5.757.713.278 1.44.61 1.685 1.431.245.823.136 1.855-.007 2.692-.146.869-.492 1.691-.74 2.531-.242.808-1.76 3.525-2.032 4.326-.404-2.923-3.74-6.608-4.882-7.587z" fill="#A591A0" stroke="#fff" stroke-width=".5" stroke-miterlimit="10"/><path d="M33.762 40.043c-.619-.256-1.397-.633-1.587-1.37-.187-.73.34-1.407.666-1.998.435-.783.941-1.559.904-2.474-.034-.783-.337-1.502-.935-2.004-1.21-1.026-4.515-2.396-6.798-1.488-.646.256-1.172.69-1.434 1.374-.31.804-.31 1.709-.469 2.552-.438 2.304-2.083 1.88-2.735 1.884-.815 0-4.92-1.132-5.674-1.542-1.053-.57 2.728-3.81 2.915-4.557.218-.876.007-1.26-.781-1.335-.493-.046-.992.01-1.485.057 9.245-8.516 29.223-12.168 42.093-1.11.218.184-.707.145-.639.444.068.3-.251.04.456.563.604.448.77 1.064.397.801-.414-.288-6.9-5.159-7.301-5.262-.449-.114-1.614.125-1.971.612 0 0-2.382 3.842-2.698 4.362-.306.712 6.908.85 7.859 3.431.533 1.446.02 2.799-1.128 3.344-2.688 1.267-5.548-2.382-5.735-2.592-.374-.424-1.685-.912-1.886-.983-3.36-1.125-4.937 9.171-5.042 9.573.004-.007-6.289-1.99-6.992-2.282z" fill="#E34D78" stroke="#fff" stroke-width=".5" stroke-miterlimit="10"/><path d="M14.838 34.938c-.478-.253-1.144-.602-1.678-.524-1.02.15-3.15 2.286-3.506 3.226-.449 1.193-.785 2.389-1.393 3.503-.486.89-1.264 2.343-2.005 2.788-.914.544-2.33 9.452-2.178 10.406.214 1.335.799-.947 1.01.612.166 1.218.264 4.789.264 4.789.16 2.15.636 2.947 1.383 2.004.693-.883 1.967-1.962 2.073-3.282 0 0-.7-4.867-.85-6.184-.132-1.165.041-1.467.177-1.901.248-.794 1.71-1.25 2.64-.794.768.377 2.603 3.424 4.247.865.663-1.03 1.964-4.454.503-6.348-1.2-1.549-1.583.395-3.476.427-.476.007-.778-.509-.513-1.993.092-.513 2.049-5.721 3.303-7.594z" fill="#39AC56" stroke="#fff" stroke-width=".5" stroke-miterlimit="10"/><path d="M22.11 79.551h0c.027-.161.102-.38.206-.628.104-.252.243-.547.402-.867a59.54 59.54 0 011.115-2.093c.13-.237.26-.47.385-.693.25-.45.48-.866.664-1.206.137-.255.246-.465.315-.615.03-.063.05-.112.063-.147a7.443 7.443 0 00-.403-.323c-.2-.152-.404-.298-.492-.355h-.001c-.239-.158-4.86-3.26-5.527-3.716h0c-.338-.231-.654-.385-.895-.419a.422.422 0 00-.264.03c-.057.032-.11.09-.145.206-.062.207-.094.551-.115.98-.012.225-.02.46-.027.704-.008.227-.016.461-.027.702-.022.49-.057.983-.13 1.405-.071.416-.183.792-.378 1.025-.306.367-.916.703-1.53.843-.607.139-1.291.1-1.689-.382h0l-.007-.008-.028-.031-.105-.12a21.889 21.889 0 01-1.469-1.892c-.392-.569-.776-1.199-1.042-1.803-.263-.599-.421-1.196-.328-1.69h0c.09-.478.412-.99.75-1.46.138-.189.282-.376.418-.553l.099-.129c.166-.216.314-.414.425-.588.468-.731.802-1.596.645-2.452h0c-.136-.759-.658-1.32-1.23-1.839h-.001l-.164-.15c-.557-.51-1.116-1.022-1.717-1.444a4.439 4.439 0 00-.393-.257c-.104-.056-.169-.072-.22-.07-.046.003-.104.024-.187.095a2.458 2.458 0 00-.32.361h0c-.062.08-.182.249-.339.469l-.087.122c-.198.277-.439.612-.68.937-.242.325-.487.641-.694.88-.104.12-.2.224-.284.3a1.049 1.049 0 01-.123.099.355.355 0 01-.138.059h0c-.252.038-.463-.093-.626-.27-.163-.177-.301-.423-.415-.676a7.177 7.177 0 01-.427-1.348h0c-.096-.475-.142-1.483-.184-2.468l-.007-.163c-.04-.941-.078-1.839-.15-2.265l-.008-.047.021-.044c.136-.28.032-.463-.053-.516-.043-.027-.081-.026-.111-.009-.034.02-.09.077-.121.226M22.11 79.55l-1.51 6.51c.016.392.151.848.322 1.276.114.287.247.567.377.813a4.979 4.979 0 01-.373-.187c-.322-.177-.71-.422-1.143-.718-.866-.591-1.9-1.38-2.914-2.216a41.589 41.589 0 01-2.786-2.494c-.39-.389-.727-.75-.986-1.065a4.2 4.2 0 01-.46-.653c.24-.148.502-.345.651-.603a.87.87 0 00.119-.535c-.021-.2-.111-.408-.278-.626h0c-.22-.286-.646-.92-1.117-1.62-.1-.15-.204-.303-.308-.456-.579-.859-1.172-1.726-1.469-2.065h0c-.14-.158-.45-.49-.779-.656-.164-.083-.36-.139-.549-.078a.593.593 0 00-.326.279 5.5 5.5 0 01-.55-.885 19.47 19.47 0 01-.833-1.885c-.578-1.484-1.178-3.37-1.692-5.37-.514-2.002-.94-4.116-1.17-6.057-.231-1.944-.264-3.704 0-5.002M22.11 79.55c-.178 1.1.069 2.362.974 3.103.444.362.976.607 1.517.8.346.123.706.229 1.05.33.189.055.373.109.548.164M22.11 79.55l4.089 4.397M4.337 55.258l-.147-.03.147.03zm21.862 28.69c.248.078.502.148.754.217l.062.016c.233.064.465.127.694.196.498.151.975.33 1.4.601h0c.363.23.732.655.948 1.112.217.463.259.913.048 1.23-.295.44-.768.712-1.297.843a3.382 3.382 0 01-1.583 0c-1.022-.256-2.024-.905-2.875-1.585h0a8.948 8.948 0 01-.636-.569l-.156-.152a18.822 18.822 0 00-.475-.45v-.001a4.332 4.332 0 00-.713-.548c-.27-.156-.582-.264-.911-.208l4.74-.702zM20.762 85.2c.131-.268.355-.492.697-.55l-.697.55zm0 0c-.13.265-.175.581-.162.861l.162-.86z" fill="#1F9AD7" stroke="#fff" stroke-width=".3"/><defs><filter id="filter0_d_20_1115" x=".295" y="0" width="100.705" height="147.783" filterUnits="userSpaceOnUse" color-interpolation-filters="sRGB"><feFlood flood-opacity="0" result="BackgroundImageFix"/><feColorMatrix in="SourceAlpha" values="0 0 0 0 0 0 0 0 0 0 0 0 0 0 0 0 0 0 127 0" result="hardAlpha"/><feOffset dy="4"/><feGaussianBlur stdDeviation="2"/><feColorMatrix values="0 0 0 0 0 0 0 0 0 0 0 0 0 0 0 0 0 0 0.25 0"/><feBlend in2="BackgroundImageFix" result="effect1_dropShadow_20_1115"/><feBlend in="SourceGraphic" in2="effect1_dropShadow_20_1115" result="shape"/></filter></defs></svg>