<svg id="Слой_1" data-name="Слой 1" xmlns="http://www.w3.org/2000/svg" viewBox="0 0 103.78 148.29"><defs><style>.cls-1{fill:#1f9ad7;stroke:#fff}</style></defs><g id="Сгруппировать_1" data-name="Сгруппировать 1"><g id="Сгруппировать_2" data-name="Сгруппировать 2"><path id="Контур_35" data-name="Контур 35" class="cls-1" d="M61.12 111.84A14.65 14.65 0 0159 111a7.79 7.79 0 01-2.54-1.82c-1.73-1.9-2.48-4.53-3-7a74.53 74.53 0 01-1.34-8.4L52 94a69.94 69.94 0 01-1.41 9.45c-.53 2.45-1.27 5.09-3 7a7.55 7.55 0 01-2.55 1.82 7.57 7.57 0 01-3 1 4.41 4.41 0 01-2.51-1.13c-.59 12.88 3.87 23.71 15.31 36-13.14-21.48-5.1-30.9 6.24-36.2" transform="translate(-.02 -.08)"/><path id="Контур_36" data-name="Контур 36" class="cls-1" d="M101.49 77.67a17.82 17.82 0 01-2.41-4.19 36.58 36.58 0 01-1.3-5.12c-.68-4 1.1-7.71 1.85-11.56.43-2.2.51-4.44.75-6.68 2.35-21-20.69-42.47-22-42 0 0 16.15 18.86 12.33 30.3-2.8-21.09-25.58-43.34-53.86-36.61C60.1-1.71 79 27.14 77.71 35.57 75 17 46.74-12.22.83 28.09 31.19 12.9 50.09 16.07 57 21.7c6 4.84 10.15 9.59 12.89 14.3a3.32 3.32 0 01.94-.52 4.21 4.21 0 014 1.21c2.17 1.92 3.08 4.84 3.45 7.62a10.84 10.84 0 01-.28 5.45 32.5 32.5 0 01-4 6.83c-.18.25-.38.49-.56.75a48.87 48.87 0 01-5.05 13 5.89 5.89 0 014.44 1.39 9.21 9.21 0 012.3 6.74c-.46 4-3.38 7.39-5.82 10.43a23.15 23.15 0 01-10.63 7.42 28.22 28.22 0 016 7.44c1.13 2 1.48 4.7.32 6.44 2.18-.79 3.7-1.15 3.93-1.25 1.82-.83 4.92-.1 6.74.37s4 1.69 6 1.88a15.26 15.26 0 002.53-.11 4.28 4.28 0 004.07-2.89 8.63 8.63 0 00.32-2.63 5.81 5.81 0 01.14-2.52 7.38 7.38 0 013.49-4.3 1.82 1.82 0 001.07-2.36c-.11-.37-.29-.68 0-1s.7-.4 1-.64a4.34 4.34 0 001-2.71 19.44 19.44 0 00-.11-2.41 6.33 6.33 0 01.58-2.63 3.29 3.29 0 011.6-1.41 7.5 7.5 0 011.25-.16 12.15 12.15 0 001.77-.47 4.32 4.32 0 002.67-2c.84-1.79-.58-3.89-1.56-5.31m-6.92-27.28c-1.22 2.06-3.63 3.19-5.68 4.25a13.84 13.84 0 01-7.56 1.46 16.61 16.61 0 011.46 5.49c.18 2-.93 4.5-3.42 3.75-.45-.13-1.08-.9-1.39-1.25a4.58 4.58 0 01-.93-1.6 8.59 8.59 0 01.06-4.5 33.63 33.63 0 012.41-7.58 10.77 10.77 0 013.87-3.89c2.32-1.59 5.09-2.86 8-2.54A4.21 4.21 0 0195 46.15a5.46 5.46 0 01-.38 4.21" transform="translate(-.02 -.08)"/><path id="Контур_37" data-name="Контур 37" d="M36.58 56c-.75 1.28-2 2.75-3.69 2.4s-2.22-1.93-3.26-2.91a4.31 4.31 0 00-4.41-.68 4.78 4.78 0 00-2.84 4.08 4.69 4.69 0 001.55 4.37c1.46 1.23 3.52.8 5.26 1.25.69.18 1.58.53 1.5 1.28-.6 6.33-6.22 11.46-6 12.07s5.37 3 7.61 4.41c.83.53 2.85.21 3.61-1.88.54-1.5.11-3.24 1.13-4.57 1.15-1.5 3.47-1.59 5.13-1.08a4.49 4.49 0 013.28 3.34c.27 1.53-1.4 3.4-2.43 4.41-.71.7-2.36 1.73-1.12 2.75.66.54 7.61 1.12 8.39 1.16 1-1.07 5.63-5.49 7.16-6.12s2.43-.67 2.33 1c0 .9.2 1.87.75 2.13 1.55.66 5.6-3.49 5.74-5.52.22-3.2-2-1.69-2.79-2.58-1-1.06-.57-1.69 0-3s1.87-2.48 2.8-3.73a5.23 5.23 0 001.12-4 8.45 8.45 0 00-1.83-3.6 20.43 20.43 0 00-3-3.51c-1.05-.88-2.7-1.59-3.81-.4s-.94 3.15-1.13 4.68a3.59 3.59 0 01-.72 2 3.22 3.22 0 01-1.88 1 5 5 0 01-4.51-1.26 4.83 4.83 0 01-.9-4.3 9.73 9.73 0 012.5-3.89c.92-1 1.7-2.33.87-3.68s-2.75-2.25-4.28-2.87-3.1-1.11-4.64-1.7c-.75-.29-1.48-.59-2.22-.89 0 .32-4.52 8.55-5.33 10" transform="translate(-.02 -.08)" fill="#acc917" stroke="#fff"/><path id="Контур_38" data-name="Контур 38" d="M32.3 42.75a2.2 2.2 0 01-1.12-1.09 1.87 1.87 0 01.18-1.41c.52-1.13 1.5-2.16 1.65-3.45.16-1.45-1.13-2.39-2.3-2.92a9 9 0 00-4.94-.88 3.15 3.15 0 00-2.45 3c0 2.27-1 3.09-1.78 3.38-1.58.6-7-1.1-8.64-1.9-.54-.26-4.85 9.1-3.71 9.64 1.66.77 2.63-2.1 4.3-.44 2 2-.05 6.6-.54 7.39-1 1.32-2.32 1.68-5-.75a1.73 1.73 0 00-2.42.36 1.47 1.47 0 00-.21.39c-.7 1.32.61 7.21.85 8.63 1 .89 3.26 2.41 4.26 3.48a2.27 2.27 0 01.38 2.7c-.57 1.32-2.1 2.46-2.28 3.92s2 4.27 3.2 5.26c.9.79 1.62.55 2.53-.37.75-.75.7-3.82.66-4.23a1.29 1.29 0 012.21-1c1.34 1.15 5.78 4.59 7.28 5.22a26.43 26.43 0 006-11.85c.07-.75-.75-1-1.35-1-2.06-.24-3.66-.25-5.1-1.22a4.33 4.33 0 01-1.94-4.71 5.43 5.43 0 013.15-4.45c1.09-.31 3.38-.52 4.68.65 1.1 1 1.84 2.69 3.18 3 .87.2 2.32-.32 3.31-2.34 2.5-4.13 4.31-8.19 5.19-9.7 0 0-7.77-2.53-9.24-3.3" transform="translate(-.02 -.08)" fill="#fbea24" stroke="#fff"/><path id="Контур_39" data-name="Контур 39" d="M62.54 57c-1.26-1-3.23-1.23-4.1-.38-.66.64-.83 2.34-.8 3.23.16 4.39-2.57 4.83-4.7 4.66-1.9-.14-2.92-1.73-3.15-3.61-.26-2.07 1.44-4.45 3-5.62a3.53 3.53 0 00.12-4.83c-2.13-1.62-11.26-5-11.4-5.08.51-1.46 1.64-10.89 5-10a5.69 5.69 0 012.1 1.05c.63.47 3.16 4.1 6.47 2.84a2.78 2.78 0 001.58-3.95c-1.47-3.2-9.36-2.57-8.68-3.84a49.32 49.32 0 013-4.16 2.71 2.71 0 012.15-.33c.9.32 7.3 5.07 8 5.39.52.1.47-.38-.48-1.16-1.36-1.13 1.2-.49.69-.37.56.28 5 4.57 5.17 5.22-.14.31-.95-.27-1.07.32 0 .21 3.16 3.73 5.49 7.65a17.42 17.42 0 01.94 5.2.84.84 0 01-.61.85c-.38.05-.67-.32-.85-.61a13.53 13.53 0 01-1.07-2.51c-.32-.9-.84-1.58-1.9-1.46a2.57 2.57 0 00-2.14 1.8c-.56 2.58.89 5 3.84 6.08a2.65 2.65 0 011.86 1.5 6.15 6.15 0 010 2.83 20.81 20.81 0 01-.84 2.68c-.27.86-2 3.72-2.25 4.57-.44-3.09-4.13-7-5.39-8" transform="translate(-.02 -.08)" fill="#a591a0" stroke="#fff"/><path id="Контур_40" data-name="Контур 40" d="M33.42 42.82c-.69-.27-1.55-.67-1.76-1.45s.38-1.48.75-2.11a4.86 4.86 0 001-2.61 2.83 2.83 0 00-1-2.12C31 33.46 27.39 32 24.87 33a2.63 2.63 0 00-1.58 1.45 14.47 14.47 0 00-.52 2.7c-.49 2.43-2.3 2-3 2a32.28 32.28 0 01-6.27-1.62c-1.16-.6 3-4 3.22-4.81s0-1.33-.86-1.4a9 9 0 00-1.64.06c10.21-9 32.29-12.84 46.52-1.18.24.2-.78.16-.71.47s-.28 0 .5.6.85 1.12.44.84-7.66-5.45-8.11-5.55a2.82 2.82 0 00-2.18.64l-3 4.6c-.34.75 7.63.9 8.69 3.62a2.64 2.64 0 01-1.24 3.52h0c-3 1.34-6.13-2.51-6.34-2.73a7 7 0 00-2.08-1c-3.72-1.18-5.46 9.68-5.57 10.1 0 0-7-2.09-7.73-2.4" transform="translate(-.02 -.08)" fill="#e34d78" stroke="#fff"/><path id="Контур_41" data-name="Контур 41" d="M12.5 37.43a3.6 3.6 0 00-1.85-.55c-1.13.15-3.49 2.41-3.88 3.4A26 26 0 015.23 44 9.11 9.11 0 013 46.92c-1 .57-2.58 10-2.42 11 .24 1.41.89-1 1.13.65.18 1.28.29 5.05.29 5.05.18 2.25.7 3.11 1.53 2.11s2.17-2.06 2.29-3.46c0 0-.77-5.13-.94-6.52a3.54 3.54 0 01.2-2c.29-.88 1.92-1.36 2.92-.88.84.4 2.87 3.62 4.69.92.75-1.09 2.17-4.7.56-6.69-1.33-1.64-1.75.41-3.84.45-.53 0-.86-.54-.57-2.1a43.61 43.61 0 013.65-8" transform="translate(-.02 -.08)" fill="#39ac56" stroke="#fff"/><path id="Контур_42" data-name="Контур 42" class="cls-1" d="M20.7 84.51a3.24 3.24 0 001 3.12A10.31 10.31 0 0025.1 89a13.69 13.69 0 013.25 1.1c.86.53 1.72 1.88 1.15 2.69a3.28 3.28 0 01-3.36 1A9.5 9.5 0 0122.9 92c-.5-.38-.93-.84-1.4-1.25a2.18 2.18 0 00-1.66-.75 1.17 1.17 0 00-.84 1.35 6.16 6.16 0 001 2.48c-1.52-.21-9.36-6.28-10.13-8.07.59-.32 1.31-.85.62-1.7s-2.57-3.66-3.21-4.35c-.31-.34-1.3-1.32-1.65-.3-1.88-1.71-6.1-15-4.9-20.57.16-.75 1-.28.63.42.17 1 .16 4.19.37 5.16.11.52.64 2.41 1.43 2.29.38-.06 2.16-2.55 2.49-3 .59-.75.75-.66 1.46-.17a21.49 21.49 0 012.11 1.7 3.7 3.7 0 011.41 2A3.65 3.65 0 019.88 70c-.54.78-1.66 1.9-1.84 2.82-.38 1.88 3.25 5.71 3.25 5.71.75.88 2.69.23 3.3-.48s.41-4.06.72-5c.19-.62.93-.38 1.69.11l6.1 3.91a9.18 9.18 0 011.08.77c.16.16-3.29 5.47-3.5 6.68" transform="translate(-.02 -.08)"/></g></g></svg>