<svg xmlns="http://www.w3.org/2000/svg" width="656.482" height="148.373"><g id="Сгруппировать_1" data-name="Сгруппировать 1" transform="translate(130.068 -242.051)" stroke-width="1"><path id="Контур_28" data-name="Контур 28" d="M-904.15 183.07c1.62 5.35 4.82 14 8.79 26.07 2.07 6.34-.23 8.13-3.76 9.47-4.49 1.7-9 1.52-11.08-4.24l-5.53-15.74c-2.06-5.83-14-47-16-52.69q-5.12-14.7 3.29-16.95c1.16-.79 28.31-8.42 36.46-5.92q13.59 4.22 17.64 15.72 5.08 14.44-3.36 27c-5 7.38-23.83 16.66-26.44 17.28m-7.3-44.85c-1.2.42-2.26.81-3.17 1.15a24.651 24.651 0 00-2.3 1c.62 1.77 1.55 4.42 2.75 8q2.08 6.3 5.79 19.89a31.146 31.146 0 004-.9q8.8-3.09 13.14-9.31a14.68 14.68 0 002.06-14q-1.7-4.8-8.81-6.48a23.39 23.39 0 00-13.46.68" transform="translate(933.67 145.3)" fill="#e36daa" stroke="rgba(255,255,255,0.5)" stroke-linecap="round"/><path id="Контур_29" data-name="Контур 29" d="M-811.42 173.67c-.35 6.42-3.13 9.42-8.31 9.64-9.09.38-7.83-14.56-7.83-14.56a24.7 24.7 0 00-19.26 14.56l.06 31.69c0 8.75-19.15 9-19.15.29 0 0-1.92-51.79.78-52.5 2.27-.6 3.22-5.19 4.71-6.61 1.27-1.21 11.39-7.84 13.6 4.82a37.16 37.16 0 0123.51-8.31c13.87 0 12.11 17.77 11.89 21" transform="translate(933.67 145.3)" fill="#39ac56" stroke="rgba(255,255,255,0.5)" stroke-linecap="round"/><path id="Контур_30" data-name="Контур 30" d="M-782.9 235a26.53 26.53 0 01-17.67-10.35q-7.39-9.51-5.75-23.3c2-16.94 14.24-34 37.51-30.51a22.37 22.37 0 0117.38 12.3q5 9.45 3.08 22.06-2.07 13.71-10.86 22.3-9.85 9.59-23.69 7.5m11-48.67c-17.32-2.75-24 30.8-8.63 33.11 14.49 2.21 26.8-30.25 8.63-33.11" transform="translate(933.67 145.3)" fill="#1f9ad7" stroke="rgba(255,255,255,0.5)" stroke-linecap="round"/><path id="Контур_31" data-name="Контур 31" d="M-654.42 171.89c-.55 12.17-4 25.15-9.46 34.58-11.25 19.55-72.08 51-70.83-19 .43-24.14 2.86-40.08 16.83-57 4.62-5.57 14.48-9.44 20.71-10.57 3.81-.69 13.47-.36 20.54 1.07 24.69 5 22 29.11-3.52 18.5-4.31-1.79-11.65-1.1-15-.5-18.5 3.37-22.52 53.74-12.64 62.17 6.22 5.25 16.89 6.15 27.4-6.43a34.561 34.561 0 007.87-17.71 72.351 72.351 0 00-22.76 9.91 9.23 9.23 0 01-3.5 1.48 7.92 7.92 0 01-6.55-1.61 8.09 8.09 0 01-3.17-5.07c-2.86-15.79 42.38-33.12 55.87-24.17 1.87 1.24 2.6 3.52 3 5.75.52 2.86-2.72 6.6-4.79 8.6" transform="translate(933.67 145.3)" fill="#fbea24" stroke="rgba(255,255,255,0.5)"/><path id="Контур_32" data-name="Контур 32" d="M-598.8 213.74c-12.13 5.8-26.36 10.52-38.42-2.39-10.47-11.2-10.19-34.62 3.44-47.75 11.83-11.4 30.07-10.71 38.63-7.06 6 2.56 9 5.55 9 8.94 0 1.43-1.2 7.55-2.3 9.68-9.55 18.63 6.45 36.15 6.45 36.63 0 12.78-16.82 7.14-16.75 2m-5-45a46.341 46.341 0 00-6.85-1c-21.64 0-26.7 32.25-5.71 37.06 5.18 1.18 8.23.24 9.19-4-4.94-15.25 3-30.08 3.37-32.12" transform="translate(933.67 145.3)" fill="#e34d78" stroke="rgba(255,255,255,0.5)"/><path id="Контур_33" data-name="Контур 33" d="M-519.7 179.42q9-10.46 17.11-10.46 9.21 0 13.51 7a25.1 25.1 0 018.08-4.84 27.631 27.631 0 019.57-1.61q11.71 0 15.91 11.65.82 2.4 2.57 16.22 1.67 9.67 4.3 32.29a6.41 6.41 0 01-2.33 5.62c-1.71 1.47-13.31-.06-14.11-4.61-.72-4.11-5-45.57-6.64-45.57-.92 0-10.46 3.57-12 4.88 0 4.55.13 33.14.13 37.49 0 2.26.66 5.18-.89 6.69s-15.62-4.63-15.62-6.89c0-4.55-.77-40.82.78-41.06-4 .62-13.66 1.36-18.33 7.58-.19.27-1.46 33.15-1.46 34.07a5.89 5.89 0 01-2.63 5.08c-1.6 1.16-11.61.26-12.8-2.69q-1.26-3-1.26-9.51s-1.28-45.08 0-48c1.56-3.59 5.19-6.83 8-6.83a8.29 8.29 0 016 2.61 7.9 7.9 0 012.62 5.71c0-.84-.17.88-.54 5.14" transform="translate(907.264 142.043)" fill="#acc917" stroke="rgba(255,255,255,0.5)"/><path id="Контур_34" data-name="Контур 34" d="M-406.87 238.59c-43.14 0-48.69-58.37-1.49-60a33.42 33.42 0 0115.9 3.08c5.54 2.72 8 6.94 8.3 12.65 1.07 29.56-43.36 19.89-39.61 20 3.68 8 10.06 10.95 16.9 10.95 7.86 0 17.65-5.82 19.8-5.72 1.46.07 5.72 1.85 5.72 5.55q0 6.27-9.19 10.23a41 41 0 01-16.33 3.3M-425 200.89c4.2 2.54 6 3.69 10.39 4.27 10.28 1.36 21.28-5.81 15.46-12.41-4.79-4.47-19.32-2.91-25.85 8.14" transform="translate(907.264 142.043)" fill="#a591a0" stroke="rgba(255,255,255,0.5)"/><g id="Сгруппировать_2" data-name="Сгруппировать 2" transform="translate(112.995 43.81)" stroke="#fff"><path id="Контур_35" data-name="Контур 35" d="M-555.622 120.986a14.837 14.837 0 01-2.1-.849 7.758 7.758 0 01-2.542-1.825c-1.727-1.9-2.475-4.529-3-6.981a73.3 73.3 0 01-1.333-8.392l-.128.173a68.722 68.722 0 01-1.412 9.455c-.522 2.452-1.269 5.084-3 6.981a7.748 7.748 0 01-2.542 1.821 7.547 7.547 0 01-3 .965 4.39 4.39 0 01-2.512-1.126c-.589 12.88 3.864 23.709 15.309 35.969-13.142-21.482-5.1-30.9 6.241-36.2" transform="translate(373.679 189.095)" fill="#1f9ad7"/><path id="Контур_36" data-name="Контур 36" d="M-579.536-68.208a17.25 17.25 0 01-2.411-4.194 35.374 35.374 0 01-1.3-5.118c-.68-3.984 1.1-7.709 1.848-11.558.428-2.2.511-4.442.751-6.676 2.343-21-20.694-42.473-22.008-41.988 0 0 16.146 18.861 12.324 30.3-2.79-21.107-25.568-43.355-53.843-36.63 23.243-3.511 42.127 25.339 40.858 33.761-2.726-18.617-30.975-47.782-76.884-7.48 30.363-15.185 49.266-12.016 56.182-6.383 5.971 4.84 10.138 9.587 12.876 14.269a3.4 3.4 0 01.939-.522 4.236 4.236 0 014.029 1.205c2.167 1.923 3.075 4.84 3.447 7.623a10.915 10.915 0 01-.312 5.479 32.433 32.433 0 01-4 6.83c-.18.248-.375.492-.563.751a48.688 48.688 0 01-5.051 13.052 5.885 5.885 0 014.446 1.389 9.186 9.186 0 012.294 6.74c-.454 4.01-3.38 7.39-5.813 10.428a23.229 23.229 0 01-10.63 7.427 28.185 28.185 0 016.008 7.439c1.126 2.028 1.479 4.7.316 6.432 2.182-.781 3.706-1.145 3.935-1.25 1.821-.83 4.919-.1 6.74.375 1.93.5 3.969 1.686 5.952 1.878a15.749 15.749 0 002.523-.105 4.311 4.311 0 004.074-2.891 9.083 9.083 0 00.323-2.628 5.766 5.766 0 01.135-2.52 7.377 7.377 0 013.488-4.3 1.84 1.84 0 001.063-2.4c-.105-.375-.285-.683-.026-1.006s.7-.4.976-.638a4.3 4.3 0 001.048-2.707 19.055 19.055 0 00-.105-2.411 6.3 6.3 0 01.638-2.629 3.24 3.24 0 011.6-1.412 6.985 6.985 0 011.254-.158 12.971 12.971 0 001.761-.473 4.337 4.337 0 002.67-2c.841-1.791-.575-3.89-1.555-5.31m-6.924-27.295c-1.217 2.069-3.624 3.192-5.674 4.254a13.837 13.837 0 01-7.559 1.461 16.8 16.8 0 011.457 5.486c.184 2.058-.927 4.506-3.417 3.755-.458-.135-1.081-.9-1.389-1.247a4.6 4.6 0 01-.939-1.6 8.736 8.736 0 01.064-4.506 33.23 33.23 0 012.411-7.578 10.829 10.829 0 013.868-3.894c2.317-1.585 5.092-2.861 7.972-2.535a4.217 4.217 0 013.59 2.189 5.466 5.466 0 01-.376 4.209" transform="translate(437.967 344.119)" fill="#1f9ad7"/><path id="Контур_37" data-name="Контур 37" d="M-608.671-14.307c-.751 1.288-2.035 2.752-3.687 2.4-1.528-.323-2.219-1.923-3.259-2.906a4.313 4.313 0 00-4.408-.68 4.766 4.766 0 00-2.839 4.078 4.693 4.693 0 001.543 4.371c1.464 1.228 3.522.8 5.257 1.254.695.18 1.584.529 1.5 1.277-.6 6.331-6.214 11.464-5.974 12.065s5.37 2.963 7.608 4.412c.834.537 2.846.21 3.609-1.877.545-1.5.109-3.237 1.127-4.566 1.156-1.5 3.47-1.592 5.137-1.085a4.507 4.507 0 013.282 3.338c.27 1.536-1.4 3.406-2.43 4.416-.713.7-2.362 1.731-1.126 2.745.657.544 7.615 1.126 8.389 1.164 1.021-1.07 5.633-5.49 7.165-6.124 1.385-.571 2.426-.665 2.332.958-.049.9.192 1.877.751 2.129 1.543.661 5.595-3.485 5.738-5.516.218-3.2-2.005-1.69-2.794-2.576-.961-1.066-.567-1.693.019-2.981.657-1.434 1.877-2.478 2.8-3.729a5.293 5.293 0 001.126-4.055 8.406 8.406 0 00-1.836-3.6 20.622 20.622 0 00-2.974-3.511c-1.051-.882-2.7-1.585-3.815-.4s-.943 3.154-1.126 4.679a3.559 3.559 0 01-.725 1.964 3.236 3.236 0 01-1.877.961 5.013 5.013 0 01-4.506-1.262 4.788 4.788 0 01-.9-4.3 9.526 9.526 0 012.5-3.886c.912-1.051 1.693-2.336.864-3.684-.9-1.464-2.752-2.253-4.281-2.873s-3.1-1.108-4.641-1.7c-.751-.285-1.476-.586-2.212-.882.03.315-4.528 8.55-5.332 9.966" transform="translate(402.186 268.544)" fill="#acc917"/><path id="Контур_38" data-name="Контур 38" d="M-641.6-49.313a2.193 2.193 0 01-1.126-1.085 1.918 1.918 0 01.184-1.419c.522-1.126 1.5-2.155 1.645-3.447.165-1.453-1.127-2.384-2.3-2.921a8.931 8.931 0 00-4.942-.856 3.139 3.139 0 00-2.441 2.951c0 2.272-.965 3.087-1.784 3.379-1.577.6-6.958-1.1-8.637-1.9-.544-.259-4.855 9.1-3.71 9.635 1.656.774 2.629-2.092 4.3-.439 1.968 1.968-.052 6.605-.548 7.39-1 1.322-2.317 1.678-5-.751a1.727 1.727 0 00-2.629.751c-.7 1.318.612 7.217.849 8.636.984.882 3.263 2.407 4.266 3.473a2.264 2.264 0 01.375 2.7c-.571 1.326-2.1 2.467-2.279 3.928s2.046 4.269 3.2 5.257c.9.785 1.626.552 2.535-.375.751-.751.695-3.815.661-4.228a1.286 1.286 0 012.208-1c1.337 1.149 5.783 4.592 7.277 5.223a26.591 26.591 0 006.045-11.854c.068-.751-.751-.946-1.356-1.021-2.054-.24-3.657-.248-5.1-1.217a4.327 4.327 0 01-1.938-4.709 5.431 5.431 0 013.15-4.45c1.089-.315 3.379-.522 4.679.653 1.1 1.006 1.84 2.685 3.177 3 .879.2 2.321-.327 3.316-2.339 2.5-4.13 4.311-8.193 5.189-9.7 0 0-7.769-2.531-9.237-3.3" transform="translate(430.841 290.303)" fill="#fbea24"/><path id="Контур_39" data-name="Контур 39" d="M-550.778-45.244c-1.262-1.033-3.229-1.232-4.1-.376-.661.638-.837 2.336-.8 3.226.154 4.393-2.572 4.825-4.7 4.664-1.9-.143-2.925-1.739-3.158-3.616-.259-2.069 1.442-4.453 3.038-5.614a3.548 3.548 0 00.12-4.833c-2.129-1.626-11.265-5.05-11.4-5.084.511-1.461 1.637-10.889 5-9.992a6.006 6.006 0 012.1 1.051c.627.477 3.154 4.1 6.466 2.839a2.815 2.815 0 001.585-3.943c-1.479-3.2-9.365-2.576-8.682-3.838a47.885 47.885 0 013-4.168 2.73 2.73 0 012.144-.33c.9.327 7.307 5.073 7.949 5.392.526.105.473-.376-.473-1.157-1.363-1.127 1.194-.488.683-.375.567.282 4.99 4.574 5.174 5.219-.135.312-.946-.263-1.07.323-.045.214 3.158 3.732 5.494 7.656a17.617 17.617 0 01.939 5.193.834.834 0 01-.616.849c-.375.053-.668-.319-.849-.608A13.07 13.07 0 01-544-55.27c-.319-.9-.841-1.588-1.9-1.461a2.572 2.572 0 00-2.122 1.832c-.56 2.587.886 4.979 3.841 6.083a2.678 2.678 0 011.878 1.5 6.233 6.233 0 010 2.835 22.324 22.324 0 01-.837 2.681c-.267.852-1.949 3.717-2.253 4.562-.443-3.087-4.13-6.973-5.392-8.006" transform="translate(370.259 300.435)" fill="#a591a0"/><path id="Контур_40" data-name="Контур 40" d="M-626.89-65.985c-.683-.27-1.543-.668-1.753-1.446s.375-1.483.751-2.107a4.94 4.94 0 00.995-2.61 2.8 2.8 0 00-1.029-2.118c-1.337-1.078-4.99-2.527-7.51-1.57a2.606 2.606 0 00-1.581 1.449 14.834 14.834 0 00-.518 2.692c-.488 2.433-2.306 1.986-3 1.986a32.241 32.241 0 01-6.271-1.626c-1.164-.6 3-4.014 3.222-4.806.24-.924 0-1.329-.864-1.4a9.584 9.584 0 00-1.641.056c10.217-8.982 32.293-12.835 46.521-1.172.237.2-.781.154-.706.469s-.278.041.5.593c.668.473.852 1.127.439.845s-7.665-5.45-8.112-5.55a2.8 2.8 0 00-2.178.642s-2.629 4.052-2.981 4.6c-.338.751 7.634.9 8.685 3.616a2.64 2.64 0 01-1.247 3.526c-2.97 1.337-6.132-2.512-6.338-2.734a7.1 7.1 0 00-2.08-1.036c-3.717-1.187-5.456 9.673-5.572 10.1 0 0-6.958-2.092-7.732-2.4" transform="translate(417.244 307.042)" fill="#e34d78"/><path id="Контур_41" data-name="Контур 41" d="M-668.924-48.1a3.624 3.624 0 00-1.855-.552c-1.126.158-3.481 2.411-3.875 3.406a27 27 0 01-1.54 3.695 8.932 8.932 0 01-2.216 2.94c-1.01.575-2.576 9.969-2.411 10.976.236 1.408.882-1 1.126.65.18 1.28.293 5.047.293 5.047.176 2.253.7 3.109 1.525 2.114.77-.931 2.174-2.069 2.291-3.466 0 0-.774-5.129-.939-6.522a3.471 3.471 0 01.2-2.005c.274-.837 1.878-1.318 2.918-.837.845.4 2.876 3.612 4.694.912.751-1.085 2.17-4.7.556-6.691-1.325-1.633-1.75.417-3.841.451-.526 0-.86-.537-.567-2.1a43.213 43.213 0 013.654-8.013" transform="translate(438.362 283.77)" fill="#39ac56"/><path id="Контур_42" data-name="Контур 42" d="M-660.846 34.886a3.222 3.222 0 001.018 3.12 10.441 10.441 0 003.38 1.341 13.751 13.751 0 013.255 1.1c.86.522 1.716 1.877 1.149 2.689a3.3 3.3 0 01-3.361.954 9.151 9.151 0 01-3.237-1.7c-.5-.376-.935-.834-1.408-1.243a2.157 2.157 0 00-1.66-.751 1.174 1.174 0 00-.811 1.326 6.2 6.2 0 00.958 2.486c-1.525-.214-9.361-6.282-10.139-8.073.59-.323 1.311-.849.627-1.7-.6-.751-2.553-3.665-3.192-4.356-.308-.338-1.3-1.314-1.652-.3-1.877-1.709-6.094-14.99-4.9-20.566.158-.751.984-.282.627.417.173.976.169 4.191.375 5.159.113.526.638 2.411 1.434 2.294.375-.056 2.155-2.553 2.486-2.963.59-.751.751-.653 1.461-.169a21.508 21.508 0 012.107 1.7 3.712 3.712 0 011.412 2.028 3.635 3.635 0 01-.751 2.7c-.544.785-1.663 1.9-1.844 2.824-.375 1.877 3.256 5.715 3.256 5.715.751.879 2.685.222 3.3-.484.751-.849.413-4.063.717-5.024.188-.612.935-.375 1.693.109s5.839 3.755 6.1 3.916a10.944 10.944 0 011.078.766c.162.161-3.289 5.475-3.5 6.684" transform="translate(438.484 247.867)" fill="#1f9ad7"/></g></g></svg>