<svg width="185" height="61" fill="none" xmlns="http://www.w3.org/2000/svg"><g filter="url(#filter0_d_2_1701)"><path d="M24.532 40.15c-.253-.072-.544-.223-.712-.303a2.65 2.65 0 01-.862-.648c-.585-.673-.838-1.608-1.015-2.478a26.876 26.876 0 01-.452-2.98l-.044.062c-.073 1.133-.262 2.29-.479 3.356-.175.87-.43 1.805-1.015 2.479a2.625 2.625 0 01-.86.646c-.242.116-.743.379-1.012.342-.373-.052-.652-.195-.852-.396-.2 4.572 1.31 8.417 5.187 12.77-4.455-7.624-1.724-10.97 2.116-12.85z" fill="#1F9AD7"/></g><g filter="url(#filter1_d_2_1701)"><path d="M38.211 28.022c-.318-.482-.64-.928-.817-1.489a13.235 13.235 0 01-.436-1.814c-.231-1.415.372-2.737.626-4.104.145-.78.173-1.577.258-2.37.794-7.456-7.01-15.078-7.456-14.906 0 0 5.469 6.697 4.175 10.757-.945-7.494-8.663-15.393-18.244-13.006C24.192-.155 30.59 10.088 30.16 13.076c-.923-6.61-10.495-16.964-26.05-2.655C14.398 5.03 20.803 6.158 23.146 8.148c2.023 1.718 3.438 3.403 4.362 5.062.104-.083.212-.148.319-.186.49-.174 1.002.091 1.365.429.734.682 1.04 1.717 1.167 2.706.084.648.13 1.325-.106 1.945-.323.85-.851 1.698-1.361 2.435-.061.087-.125.175-.19.262-.312 1.558-.92 3.102-1.712 4.634.546-.031 1.093.093 1.506.494.528.512.86 1.648.779 2.393-.155 1.424-1.148 2.624-1.97 3.702-.997 1.31-2.118 2.039-3.6 2.637a9.91 9.91 0 012.034 2.641c.383.719.501 1.668.107 2.284.74-.277 1.256-.407 1.333-.444.617-.295 1.667-.036 2.285.132.654.179 1.345.599 2.017.668.278.028.576-.019.855-.038.597-.04 1.21-.38 1.38-1.026.075-.29.12-.63.11-.93-.012-.325-.069-.578.045-.894.247-.685.57-1.176 1.182-1.525.344-.195.473-.45.36-.85-.035-.127-.096-.243-.008-.358.077-.101.236-.142.33-.226.255-.227.307-.635.354-.962.042-.295-.042-.563-.035-.855.006-.302.08-.664.217-.93a1.11 1.11 0 01.542-.502c.135-.055.284-.028.425-.056.201-.039.402-.1.595-.168.362-.128.736-.332.905-.71.285-.64-.195-1.386-.527-1.89zm-2.346-9.689c-.412.733-1.228 1.132-1.922 1.51-.844.456-1.619.568-2.561.518.27.613.436 1.273.493 1.947.063.732-.314 1.598-1.157 1.338-.154-.048-.367-.319-.471-.442a1.655 1.655 0 01-.318-.569c-.163-.513-.084-1.085.021-1.601.181-.892.43-1.869.817-2.69.283-.599.794-1.015 1.31-1.383.786-.562 1.726-1.016 2.702-.9.482.058 1.012.28 1.216.779.17.41.087 1.11-.13 1.493z" fill="#1F9AD7"/></g><path d="M16.215 20.33c-.248.457-.69.976-1.25.853-.517-.115-.751-.683-1.104-1.032-.407-.402-.983-.42-1.493-.241-.551.193-.906.84-.962 1.448-.055.591.062 1.147.523 1.553.496.436 1.193.284 1.777.445.234.064.537.188.513.453-.206 2.248-2.107 4.07-2.025 4.284.083.216 1.819 1.05 2.577 1.566.283.192.965.075 1.223-.664.184-.528.037-1.149.384-1.621.392-.532 1.176-.565 1.74-.385.529.168 1.013.592 1.113 1.185.091.544-.476 1.21-.824 1.566-.243.25-.801.615-.386.975.222.195 2.58.397 2.842.415.346-.38 1.906-1.95 2.427-2.175.47-.202.822-.236.79.34-.017.319.064.668.256.755.523.234 1.896-1.236 1.943-1.957.075-1.136-.678-.6-.947-.915-.324-.38-.192-.601.008-1.058.223-.511.635-.88.95-1.324.297-.42.461-.915.378-1.44-.076-.488-.346-.892-.623-1.277-.31-.432-.61-.896-1.008-1.247-.356-.313-.915-.564-1.292-.141-.386.43-.319 1.12-.38 1.661-.029.248-.085.504-.246.697-.163.195-.402.296-.642.342-.525.101-1.15-.022-1.521-.448-.351-.403-.424-1.01-.306-1.524.129-.56.5-.957.848-1.38.309-.375.573-.83.292-1.309-.305-.52-.932-.803-1.45-1.02-.518-.217-1.051-.393-1.573-.604-.25-.101-.5-.208-.749-.313.015.11-1.53 3.034-1.803 3.537z" fill="#ACC917"/><path d="M14.768 15.622c-.156-.086-.323-.203-.385-.386-.057-.169-.005-.348.062-.504.177-.406.508-.765.557-1.223.056-.516-.383-.847-.78-1.038-.5-.24-1.123-.4-1.674-.303-.46.08-.828.585-.827 1.047.003.807-.327 1.096-.604 1.206-.535.213-2.358-.39-2.931-.674-.186-.092-1.647 3.232-1.258 3.421.56.275.897-.744 1.457-.156.667.699-.019 2.345-.187 2.624-.336.469-.785.597-1.692-.26-.268-.254-.697-.118-.888.261-.237.468.207 2.562.286 3.069.335.313 1.106.854 1.446 1.233.263.293.273.599.126.959-.193.47-.71.875-.773 1.395-.063.528.694 1.516 1.084 1.87.306.28.552.195.86-.133.248-.266.234-1.354.223-1.5-.037-.51.486-.589.747-.354.454.408 1.96 1.63 2.465 1.854 1.532-1.737 2.032-4.015 2.049-4.208.023-.262-.248-.336-.46-.363-.695-.087-1.239-.088-1.727-.433-.52-.367-.781-.89-.657-1.672.172-1.074.816-1.49 1.068-1.58.369-.112 1.147-.185 1.584.232.375.358.624.953 1.077 1.061.297.071.785-.117 1.124-.831.848-1.466 1.46-2.91 1.758-3.443 0 0-2.632-.9-3.13-1.171z" fill="#FBEA24"/><path d="M25.016 20.669c-.429-.367-1.094-.437-1.39-.137-.225.226-.285.829-.273 1.145.053 1.56-.87 1.713-1.592 1.655-.644-.05-.99-.618-1.07-1.283-.088-.73.482-1.579 1.03-1.99.636-.725.241-1.473.041-1.716-.72-.578-3.821-1.794-3.86-1.806.172-.517.554-3.863 1.694-3.546.266.075.5.204.712.374.213.168 1.069 1.455 2.191 1.007.666-.265.724-.905.537-1.4-.501-1.138-3.173-.914-2.942-1.362.119-.228.915-1.389 1.016-1.48.142-.129.524-.193.726-.117.306.116 2.476 1.8 2.694 1.915.178.037.16-.131-.16-.411-.462-.403.404-.173.231-.13.192.098 1.692 1.623 1.753 1.85-.046.112-.32-.092-.361.116-.015.076 1.069 1.325 1.861 2.718.162.412.318 1.312.318 1.842 0 .124-.074.282-.208.302-.131.018-.227-.114-.288-.215-.16-.27-.262-.592-.364-.89-.11-.32-.285-.563-.644-.52-.337.042-.655.337-.72.653-.188.91.304 1.763 1.306 2.155.267.104.54.228.63.536.092.308.052.695-.002 1.008-.055.325-.184.633-.277.948-.09.303-.66 1.32-.761 1.62-.151-1.095-1.4-2.475-1.828-2.841z" fill="#A591A0"/><path d="M15.145 15.65c-.232-.095-.523-.236-.595-.513-.07-.273.128-.526.25-.747.163-.294.352-.584.338-.927a1.013 1.013 0 00-.35-.75c-.453-.384-1.69-.898-2.545-.558-.242.096-.44.259-.537.515-.116.301-.116.64-.176.956-.164.862-.78.704-1.024.705-.305 0-1.842-.424-2.125-.577-.394-.214 1.022-1.427 1.092-1.707.081-.328.002-.472-.293-.5-.184-.017-.371.004-.556.022 3.462-3.19 10.943-4.557 15.763-.416.08.07-.265.054-.24.166.026.112-.094.015.17.211.227.168.29.399.15.3-.155-.108-2.584-1.932-2.734-1.97-.168-.043-.605.046-.738.229 0 0-.892 1.438-1.01 1.633-.115.267 2.586.319 2.942 1.285.2.541.008 1.048-.422 1.252-1.007.475-2.078-.892-2.148-.97-.14-.16-.63-.342-.706-.368-1.258-.422-1.849 3.434-1.888 3.584.001-.002-2.355-.745-2.618-.854z" fill="#E34D78"/><path d="M8.058 13.74c-.179-.095-.428-.226-.628-.197-.382.056-1.18.856-1.313 1.208-.168.447-.294.895-.522 1.312-.182.333-.473.877-.75 1.044-.343.204-.873 3.54-.816 3.896.08.5.3-.354.378.23.062.456.1 1.793.1 1.793.06.805.237 1.104.517.75.26-.33.737-.734.776-1.229 0 0-.262-1.822-.318-2.315-.05-.436.015-.55.066-.712.093-.298.64-.468.989-.298.287.142.974 1.283 1.59.324.248-.385.736-1.667.188-2.377-.449-.58-.592.148-1.301.16-.178.003-.291-.19-.192-.746.034-.192.767-2.142 1.236-2.844z" fill="#39AC56"/><path d="M10.837 30.454c-.065.4.027.849.345 1.109.318.26.77.356 1.147.475.367.116.773.18 1.104.392.29.185.58.669.389.955-.24.359-.763.432-1.139.339-.394-.099-.777-.348-1.098-.604-.169-.135-.317-.296-.477-.441-.148-.134-.351-.306-.561-.27-.211.037-.284.275-.275.471.012.275.191.656.325.883-.518-.076-3.173-2.23-3.435-2.867.2-.114.444-.3.212-.604-.202-.263-.865-1.3-1.081-1.547-.105-.119-.442-.467-.562-.107-.64-.605-2.064-5.322-1.66-7.302.054-.26.333-.1.213.149.058.346.057 1.486.127 1.831.038.187.216.856.486.815.128-.02.73-.907.842-1.052.201-.261.25-.232.496-.06.25.176.482.393.71.601.215.195.424.416.479.72.062.341-.072.68-.25.959-.173.27-.563.672-.626 1.002-.126.67 1.103 2.03 1.103 2.03.256.311.911.078 1.12-.173.25-.3.141-1.442.243-1.784.065-.215.317-.137.574.04.25.17 1.98 1.33 2.069 1.39.07.045.309.222.363.28.056.054-1.113 1.94-1.183 2.37z" fill="#1F9AD7"/><g filter="url(#filter2_d_2_1701)"><path d="M57.346 19.398c.405 1.339 1.206 3.491 2.2 6.525.52 1.587-.055 2.035-.941 2.37-1.122.426-2.26.38-2.773-1.061l-1.385-3.94c-.515-1.461-3.514-11.756-4.007-13.19-.853-2.453-.578-3.865.824-4.242.29-.198 7.085-2.108 9.125-1.482 2.268.703 3.74 2.015 4.415 3.934.849 2.41.566 4.66-.843 6.756-1.252 1.85-5.962 4.175-6.615 4.33zM55.52 8.172a34.9 34.9 0 00-.796.286 7.75 7.75 0 00-.575.242c.155.443.385 1.107.688 1.995.348 1.051.83 2.71 1.451 4.981.506-.095.839-.168 1.002-.225 1.469-.516 2.565-1.294 3.289-2.33.773-1.11.943-2.273.515-3.497-.283-.801-1.016-1.342-2.205-1.62a5.81 5.81 0 00-3.369.168z" fill="#E36DAA"/><path d="M80.558 17.043c-.09 1.609-.784 2.357-2.08 2.412-2.275.098-1.962-3.641-1.962-3.641-2.246.378-3.853 1.591-4.819 3.641l.015 7.932c0 2.19-4.793 2.253-4.793.073 0 0-.48-12.963.196-13.14.568-.15.806-1.297 1.176-1.652.318-.306 2.85-1.963 3.406 1.206 1.767-1.387 3.727-2.083 5.882-2.083 3.474 0 3.034 4.45 2.979 5.252z" fill="#39AC56"/><path d="M87.694 32.39c-1.825-.275-3.3-1.139-4.423-2.59-1.234-1.587-1.715-3.534-1.437-5.832.503-4.24 3.562-8.515 9.386-7.636 1.975.297 3.424 1.324 4.35 3.078.831 1.577 1.089 3.42.771 5.522-.345 2.287-1.251 4.15-2.718 5.584-1.645 1.594-3.62 2.222-5.93 1.874zm2.745-12.181c-4.335-.691-6.002 7.709-2.157 8.287 3.624.55 6.705-7.574 2.157-8.287z" fill="#1F9AD7"/><path d="M119.851 16.6c-.135 3.045-1.009 6.294-2.368 8.655-2.816 4.893-18.04 12.752-17.728-4.756.108-6.042.713-10.032 4.212-14.267 1.157-1.396 3.625-2.362 5.184-2.645.954-.173 3.371-.09 5.141.268 6.18 1.251 5.506 7.286-.881 4.63-1.079-.448-2.916-.275-3.749-.125-4.631.84-5.637 13.45-3.164 15.56 1.554 1.312 4.227 1.54 6.858-1.609.981-1.176 1.699-2.6 1.965-4.433-2.248.591-4.145 1.417-5.697 2.48a2.29 2.29 0 01-.876.374 1.98 1.98 0 01-1.639-.403c-.436-.336-.701-.761-.794-1.27-.718-3.951 10.607-8.289 13.984-6.049.468.313.648.881.751 1.44.132.713-.681 1.649-1.199 2.15z" fill="#FBEA24"/><path d="M133.774 27.074c-3.038 1.452-6.597 2.633-9.618-.598-2.621-2.803-2.551-8.668.861-11.951 2.961-2.854 7.526-2.684 9.669-1.768 1.506.641 2.26 1.39 2.26 2.238 0 .356-.303 1.89-.576 2.423-2.4 4.66 1.594 9.048 1.594 9.166 0 3.2-4.21 1.787-4.19.49zm-1.258-11.255c-.198-.1-1.605-.248-1.715-.248-5.416 0-6.683 8.072-1.429 9.276 1.296.295 2.06.06 2.298-.987-1.234-3.819.758-7.533.846-8.041z" fill="#E34D78"/><path d="M145.48 16.384c1.507-1.747 2.934-2.62 4.28-2.62 1.537 0 2.666.583 3.382 1.75a6.254 6.254 0 012.022-1.212 6.911 6.911 0 012.395-.403c1.958 0 3.284.97 3.982 2.918.138.4.353 1.752.644 4.057.28 1.617.638 4.31 1.078 8.082a1.614 1.614 0 01-.583 1.407c-.43.368-3.334-.015-3.531-1.154-.181-1.029-1.244-11.406-1.662-11.406-.231 0-2.618.891-2.996 1.222 0 1.139.032 8.294.032 9.383 0 .568.168 1.297-.222 1.677-.391.38-3.91-1.159-3.91-1.727 0-1.136-.195-10.214.195-10.277-.991.158-3.421.34-4.588 1.897-.047.07-.368 8.3-.368 8.528 0 .538-.22.963-.658 1.271-.398.288-2.903.065-3.204-.673-.21-.498-.312-1.291-.312-2.38 0 0-.321-11.283 0-12.004.39-.899 1.296-1.71 2.004-1.71.559 0 1.057.218 1.497.654.438.433.658.91.658 1.429 0-.208-.045.222-.135 1.291z" fill="#ACC917"/><path d="M173.718 31.194c-10.795 0-12.186-14.61-.373-15.017 1.597-.055 2.924.258 3.977.77 1.387.681 2 1.738 2.078 3.167.268 7.398-10.853 4.978-9.914 4.995.923 1.993 2.518 2.739 4.23 2.739 1.967 0 4.42-1.457 4.955-1.432.366.018 1.432.463 1.432 1.39 0 1.045-.766 1.899-2.298 2.56a10.215 10.215 0 01-4.087.828zm-4.545-9.436c1.051.636 1.492.924 2.6 1.069 2.573.34 5.327-1.454 3.87-3.106-1.201-1.119-4.838-.729-6.47 2.037z" fill="#A591A0"/></g><defs><filter id="filter0_d_2_1701" x="13.212" y="33.741" width="15.32" height="27.258" filterUnits="userSpaceOnUse" color-interpolation-filters="sRGB"><feFlood flood-opacity="0" result="BackgroundImageFix"/><feColorMatrix in="SourceAlpha" values="0 0 0 0 0 0 0 0 0 0 0 0 0 0 0 0 0 0 127 0" result="hardAlpha"/><feOffset dy="4"/><feGaussianBlur stdDeviation="2"/><feComposite in2="hardAlpha" operator="out"/><feColorMatrix values="0 0 0 0 0 0 0 0 0 0 0 0 0 0 0 0 0 0 0.25 0"/><feBlend in2="BackgroundImageFix" result="effect1_dropShadow_2_1701"/><feBlend in="SourceGraphic" in2="effect1_dropShadow_2_1701" result="shape"/></filter><filter id="filter1_d_2_1701" x=".11" y=".656" width="42.714" height="47.294" filterUnits="userSpaceOnUse" color-interpolation-filters="sRGB"><feFlood flood-opacity="0" result="BackgroundImageFix"/><feColorMatrix in="SourceAlpha" values="0 0 0 0 0 0 0 0 0 0 0 0 0 0 0 0 0 0 127 0" result="hardAlpha"/><feOffset dy="4"/><feGaussianBlur stdDeviation="2"/><feComposite in2="hardAlpha" operator="out"/><feColorMatrix values="0 0 0 0 0 0 0 0 0 0 0 0 0 0 0 0 0 0 0.25 0"/><feBlend in2="BackgroundImageFix" result="effect1_dropShadow_2_1701"/><feBlend in="SourceGraphic" in2="effect1_dropShadow_2_1701" result="shape"/></filter><filter id="filter2_d_2_1701" x="45.956" y="3.5" width="138.147" height="36.983" filterUnits="userSpaceOnUse" color-interpolation-filters="sRGB"><feFlood flood-opacity="0" result="BackgroundImageFix"/><feColorMatrix in="SourceAlpha" values="0 0 0 0 0 0 0 0 0 0 0 0 0 0 0 0 0 0 127 0" result="hardAlpha"/><feOffset dy="4"/><feGaussianBlur stdDeviation="2"/><feColorMatrix values="0 0 0 0 0 0 0 0 0 0 0 0 0 0 0 0 0 0 0.25 0"/><feBlend in2="BackgroundImageFix" result="effect1_dropShadow_2_1701"/><feBlend in="SourceGraphic" in2="effect1_dropShadow_2_1701" result="shape"/></filter></defs></svg>