<svg xmlns="http://www.w3.org/2000/svg" xmlns:xlink="http://www.w3.org/1999/xlink"><symbol id="bitcoin" viewBox="0 0 6 7">
<g opacity="0.28">
<path d="M1.38396 3.40513H3.06513C3.68156 3.40513 4.18591 2.89996 4.18591 2.28252C4.18591 1.66509 3.68156 1.15991 3.06513 1.15991H0.263184" stroke-linejoin="round"/>
<path d="M1.38391 0.0373535V6.77301" stroke-linejoin="round"/>
<path d="M3.06506 1.16033V0.0373535" stroke-linejoin="round"/>
<path d="M3.06506 6.21167V6.77371" stroke-linejoin="round"/>
<path d="M1.38396 3.40527H3.62552C4.24195 3.40527 4.7463 3.91045 4.7463 4.52788C4.7463 5.14532 4.24195 5.65049 3.62552 5.65049H0.263184" stroke-linejoin="round"/>
</g>
</symbol><symbol id="eye" viewBox="0 0 12 8">
<path d="M5.625 2.0625C5.41016 2.08203 5.19531 2.10156 5 2.16016C5.09766 2.31641 5.13672 2.51172 5.15625 2.6875C5.15625 3.29297 4.64844 3.78125 4.0625 3.78125C3.86719 3.78125 3.67188 3.74219 3.53516 3.64453C3.47656 3.83984 3.4375 4.03516 3.4375 4.25C3.4375 5.46094 4.41406 6.4375 5.625 6.4375C6.83594 6.4375 7.8125 5.46094 7.8125 4.25C7.8125 3.05859 6.83594 2.08203 5.625 2.08203V2.0625ZM11.1719 3.97656C10.1172 1.90625 8.00781 0.5 5.625 0.5C3.22266 0.5 1.11328 1.90625 0.0585938 3.97656C0.0195312 4.05469 0 4.15234 0 4.25C0 4.36719 0.0195312 4.46484 0.0585938 4.54297C1.11328 6.61328 3.22266 8 5.625 8C8.00781 8 10.1172 6.61328 11.1719 4.54297C11.2109 4.46484 11.2305 4.36719 11.2305 4.26953C11.2305 4.15234 11.2109 4.05469 11.1719 3.97656ZM5.625 7.0625C3.69141 7.0625 1.91406 5.98828 0.976562 4.25C1.91406 2.51172 3.69141 1.4375 5.625 1.4375C7.53906 1.4375 9.31641 2.51172 10.2539 4.25C9.31641 5.98828 7.53906 7.0625 5.625 7.0625Z"/>
</symbol><symbol id="tg" viewBox="0 0 23 19">
<path d="M21.9062 2.64062C22.1875 1.32812 21.4375 0.8125 20.5938 1.14062L1.9375 8.3125C0.671875 8.82812 0.71875 9.53125 1.75 9.85938L6.48438 11.3125L17.5469 4.375C18.0625 4 18.5781 4.23438 18.1562 4.5625L9.20312 12.625L8.875 17.5469C9.39062 17.5469 9.57812 17.3594 9.85938 17.0781L12.1562 14.8281L16.9844 18.3906C17.875 18.9062 18.5312 18.625 18.7656 17.5938L21.9062 2.64062Z"/>
</symbol><symbol id="vk" viewBox="0 0 27 16">
<path d="M25.5469 1.53125C25.6875 0.96875 25.5469 0.5 24.7031 0.5H21.9375C21.2344 0.5 20.9062 0.875 20.7188 1.29688C20.7188 1.29688 19.3125 4.71875 17.3438 6.96875C16.6875 7.57812 16.4062 7.8125 16.0312 7.8125C15.8906 7.8125 15.6094 7.57812 15.6094 7.01562V1.53125C15.6094 0.828125 15.4219 0.5 14.8125 0.5H10.5C10.0312 0.5 9.79688 0.828125 9.79688 1.15625C9.79688 1.8125 10.7812 1.95312 10.875 3.82812V7.90625C10.875 8.79688 10.7344 8.98438 10.3594 8.98438C9.42188 8.98438 7.17188 5.51562 5.8125 1.57812C5.53125 0.828125 5.25 0.5 4.54688 0.5H1.78125C1.03125 0.5 0.84375 0.875 0.84375 1.29688C0.84375 2.04688 1.78125 5.65625 5.20312 10.4844C7.5 13.7656 10.7344 15.5 13.6406 15.5C15.375 15.5 15.6094 15.125 15.6094 14.4688C15.6094 11.3281 15.4688 11 16.3125 11C16.7344 11 17.4375 11.2344 19.0781 12.8281C20.9531 14.7031 21.2812 15.5 22.3125 15.5H25.0781C25.875 15.5 26.25 15.125 26.0156 14.3281C25.5 12.7344 21.9844 9.35938 21.7969 9.125C21.375 8.60938 21.5156 8.375 21.7969 7.90625C21.7969 7.90625 25.1719 3.125 25.5469 1.53125Z"/>
</symbol></svg>