<svg xmlns="http://www.w3.org/2000/svg" xmlns:xlink="http://www.w3.org/1999/xlink"><defs><style>.cls-1{fill:#0bd505;}</style><style>.cls-1{fill:#ff7272;}</style><style>.cls-1{fill:#515151;}</style><style>.cls-1{fill:#7ea3cc;}</style><style>.cls-1{fill:none;stroke:#7ea3cc;stroke-linecap:round;stroke-linejoin:round;stroke-width:1.5px;}</style><style>.cls-1{fill:#999;}</style><style>.cls-1{fill:none;stroke:#7ea3cc;stroke-linecap:round;stroke-linejoin:round;stroke-width:1.5px;}</style><style>.cls-1{fill:none;stroke:#7ea3cc;stroke-linecap:round;stroke-linejoin:round;stroke-width:1.5px;}</style><style>.cls-1,.cls-2{fill:none;stroke:#7ea3cc;stroke-linecap:round;stroke-linejoin:round;}.cls-1{stroke-width:1.5px;}</style><style>.cls-1{fill:#7ea3cc;}</style></defs><symbol id="apple" viewBox="0 0 23.97 31.47"><path class="cls-1" d="M22.74,13.61a7.54,7.54,0,0,0-3.76-3,7.16,7.16,0,0,0-4-.27,6.28,6.28,0,0,0-1.7.63V9.14a7.39,7.39,0,0,0,7.37-7.38.92.92,0,0,0-.92-.92h-.92a7.36,7.36,0,0,0-6.26,3.48A6.46,6.46,0,0,0,6.78.84a.92.92,0,1,0,0,1.84,4.62,4.62,0,0,1,4.61,4.61V11a6.4,6.4,0,0,0-1.7-.63,7.16,7.16,0,0,0-4,.27,7.5,7.5,0,0,0-3.76,3A10.3,10.3,0,0,0,.33,19.4,16,16,0,0,0,3,28.4c1.71,2.49,4,3.91,6.17,3.91a4.5,4.5,0,0,0,3.16-1.42,4.54,4.54,0,0,0,3.17,1.42c2.21,0,4.46-1.42,6.17-3.91a16,16,0,0,0,2.65-9A10.3,10.3,0,0,0,22.74,13.61Zm-4-10.93a5.52,5.52,0,0,1-5.38,4.61A5.55,5.55,0,0,1,18.69,2.68ZM15.48,30.47c-.83,0-1.54-.44-2.47-1.52a.89.89,0,0,0-.7-.32.92.92,0,0,0-.7.32C10.69,30,10,30.47,9.15,30.47c-3.23,0-7-4.83-7-11.07,0-5,2.87-6.58,4.1-7a4.84,4.84,0,0,1,5.33,1.15h0a.92.92,0,0,0,1.43,0h0a4.84,4.84,0,0,1,5.33-1.15c1.23.44,4.1,2,4.1,7C22.46,25.64,18.7,30.47,15.48,30.47Z" transform="translate(-0.33 -0.84)"/></symbol><symbol id="basket" viewBox="0 0 17.5 19.5"><path d="M1.5,5h16" transform="translate(-0.75 -0.25)" style="fill:none;stroke:#eb5757;stroke-linecap:round;stroke-linejoin:round;stroke-width:1.5px"/><path d="M7.5,9v6" transform="translate(-0.75 -0.25)" style="fill:none;stroke:#eb5757;stroke-linecap:round;stroke-linejoin:round;stroke-width:1.5px"/><path d="M11.5,9v6" transform="translate(-0.75 -0.25)" style="fill:none;stroke:#eb5757;stroke-linecap:round;stroke-linejoin:round;stroke-width:1.5px"/><path d="M2.5,5l1,12a2,2,0,0,0,2,2h8a2,2,0,0,0,2-2l1-12" transform="translate(-0.75 -0.25)" style="fill:none;stroke:#eb5757;stroke-linecap:round;stroke-linejoin:round;stroke-width:1.5px"/><path d="M6.5,5V2a1,1,0,0,1,.29-.71A1,1,0,0,1,7.5,1h4a1,1,0,0,1,.71.29A1,1,0,0,1,12.5,2V5" transform="translate(-0.75 -0.25)" style="fill:none;stroke:#eb5757;stroke-linecap:round;stroke-linejoin:round;stroke-width:1.5px"/></symbol><symbol id="calendar" viewBox="0 0 20 19">
<path d="M14.2977 4.29761H4.79769C3.92324 4.29761 3.21436 5.00649 3.21436 5.88094V15.3809C3.21436 16.2554 3.92324 16.9643 4.79769 16.9643H14.2977C15.1721 16.9643 15.881 16.2554 15.881 15.3809V5.88094C15.881 5.00649 15.1721 4.29761 14.2977 4.29761Z" stroke="#7EA3CC" stroke-width="1.5" stroke-linecap="round" stroke-linejoin="round"/>
<path d="M12.7144 2.71436V5.88102" stroke="#7EA3CC" stroke-width="1.5" stroke-linecap="round" stroke-linejoin="round"/>
<path d="M6.38062 2.71436V5.88102" stroke="#7EA3CC" stroke-width="1.5" stroke-linecap="round" stroke-linejoin="round"/>
<path d="M3.21436 9.04785H15.881" stroke="#7EA3CC" stroke-width="1.5" stroke-linecap="round" stroke-linejoin="round"/>
</symbol><symbol id="check" viewBox="0 0 18 18">
<path d="M16 0H2C0.897 0 0 0.897 0 2V16C0 17.103 0.897 18 2 18H16C17.103 18 18 17.103 18 16V2C18 0.897 17.103 0 16 0ZM8.067 13.481L4.293 9.707L5.707 8.293L7.933 10.519L12.232 5.36L13.769 6.64L8.067 13.481Z" fill="#0BD505"/>
</symbol><symbol id="eye" viewBox="0 0 24 14">
<path opacity="0.6" d="M12 2.72894C9.70281 2.72894 7.83402 4.64473 7.83402 7C7.83402 9.35527 9.70281 11.2711 12 11.2711C14.2972 11.2711 16.166 9.35496 16.166 7C16.166 4.64504 14.2972 2.72894 12 2.72894ZM12 9.74087C10.5259 9.74087 9.32666 8.51121 9.32666 7C9.32666 5.48879 10.5262 4.25913 12 4.25913C13.4738 4.25913 14.6733 5.48879 14.6733 7C14.6733 8.51121 13.4741 9.74087 12 9.74087ZM23.6922 6.55624C20.7998 2.38985 16.538 0 12 0C7.46205 0 3.20024 2.38985 0.307784 6.55624L0 7L0.307784 7.44345C3.19994 11.6102 7.46175 14 12 14C16.5382 14 20.8001 11.6102 23.6922 7.44345L24 7L23.6922 6.55624ZM12 12.4698C8.11284 12.4698 4.43884 10.4836 1.84312 7C4.43884 3.51637 8.11314 1.53019 12 1.53019C15.8869 1.53019 19.5612 3.51637 22.1569 7C19.5612 10.4836 15.8872 12.4698 12 12.4698Z" fill="#999999"/>
</symbol><symbol id="filter" viewBox="0 0 20 20">
<path d="M13.2397 0C11.7124 0 10.4312 1.06855 10.0595 2.49695H0.848251C0.628943 2.49695 0.418618 2.58484 0.263543 2.74128C0.108469 2.89773 0.0213495 3.10992 0.0213495 3.33116C0.0213495 3.55241 0.108469 3.7646 0.263543 3.92104C0.418618 4.07749 0.628943 4.16538 0.848251 4.16538H10.0579C10.4277 5.59512 11.7104 6.66233 13.2397 6.66233C14.7689 6.66233 16.0567 5.59512 16.4279 4.16538H19.0272C19.2465 4.16538 19.4568 4.07749 19.6119 3.92104C19.767 3.7646 19.8541 3.55241 19.8541 3.33116C19.8541 3.10992 19.767 2.89773 19.6119 2.74128C19.4568 2.58484 19.2465 2.49695 19.0272 2.49695H16.4263C16.0533 1.06855 14.767 0 13.2397 0ZM13.2397 1.6668C14.1619 1.6668 14.8919 2.40481 14.8919 3.33523C14.8919 4.26565 14.1619 5.00204 13.2397 5.00204C12.3174 5.00204 11.5939 4.26565 11.5939 3.33523C11.5939 2.40481 12.3174 1.6668 13.2397 1.6668ZM6.63576 6.66233C5.10599 6.66233 3.81816 7.73553 3.44755 9.16741H0.848251C0.821913 9.16614 0.795529 9.16614 0.769191 9.16741C0.553537 9.18272 0.35239 9.28259 0.208807 9.44563C0.0652235 9.60868 -0.00938674 9.82196 0.000946368 10.0398C0.0112795 10.2577 0.105735 10.4628 0.264094 10.6112C0.422454 10.7597 0.632133 10.8398 0.848251 10.8342H3.44916C3.82216 12.2626 5.10845 13.3312 6.63576 13.3312C8.16306 13.3312 9.44935 12.2626 9.82235 10.8342H19.0272C19.1372 10.8367 19.2466 10.8169 19.349 10.7762C19.4513 10.7354 19.5446 10.6744 19.6233 10.5968C19.7019 10.5191 19.7645 10.4264 19.8071 10.3241C19.8498 10.2217 19.8718 10.1118 19.8718 10.0008C19.8718 9.88979 19.8498 9.77988 19.8071 9.67754C19.7645 9.57521 19.7019 9.4825 19.6233 9.40487C19.5446 9.32724 19.4513 9.26624 19.349 9.22546C19.2466 9.18469 19.1372 9.16495 19.0272 9.16741H9.82397C9.45335 7.73553 8.16553 6.66233 6.63576 6.66233ZM6.63576 8.32913C7.55802 8.32913 8.28795 9.06714 8.28795 9.99756C8.28795 10.928 7.55802 11.6644 6.63576 11.6644C5.71349 11.6644 4.98357 10.928 4.98357 9.99756C4.98357 9.06714 5.71349 8.32913 6.63576 8.32913ZM13.2397 13.3312C11.7099 13.3312 10.4272 14.4044 10.0579 15.8362H0.848251C0.821913 15.835 0.795529 15.835 0.769191 15.8362C0.55354 15.8516 0.352397 15.9514 0.208817 16.1145C0.0652368 16.2775 -0.00937149 16.4908 0.000961491 16.7086C0.0112945 16.9265 0.105748 17.1316 0.264104 17.2801C0.42246 17.4285 0.632136 17.5086 0.848251 17.5031H10.0595C10.4312 18.9315 11.7124 20 13.2397 20C14.767 20 16.0533 18.9315 16.4263 17.5031H19.0272C19.2431 17.4982 19.4486 17.4083 19.5996 17.2525C19.7506 17.0968 19.8351 16.8875 19.8351 16.6696C19.8351 16.4518 19.7506 16.2425 19.5996 16.0868C19.4486 15.931 19.2431 15.8411 19.0272 15.8362H16.4279C16.0573 14.4044 14.7694 13.3312 13.2397 13.3312ZM13.2397 14.998C14.1619 14.998 14.8919 15.736 14.8919 16.6664C14.8919 17.5968 14.1619 18.3332 13.2397 18.3332C12.3174 18.3332 11.5939 17.5968 11.5939 16.6664C11.5939 15.736 12.3174 14.998 13.2397 14.998Z" fill="white"/>
</symbol><symbol id="key" viewBox="0 0 18 18">
<path d="M5.07352 7.13019C4.66996 7.13019 4.27546 7.01052 3.93991 6.78632C3.60437 6.56211 3.34284 6.24344 3.1884 5.8706C3.03397 5.49776 2.99356 5.08749 3.07229 4.69169C3.15102 4.29588 3.34535 3.93231 3.63071 3.64695C3.91607 3.36159 4.27964 3.16725 4.67545 3.08852C5.07126 3.00979 5.48152 3.0502 5.85436 3.20464C6.2272 3.35907 6.54588 3.6206 6.77008 3.95615C6.99429 4.2917 7.11396 4.68619 7.11396 5.08976C7.11396 5.35771 7.06118 5.62304 6.95864 5.8706C6.8561 6.11815 6.7058 6.34309 6.51633 6.53256C6.32685 6.72203 6.10192 6.87233 5.85436 6.97487C5.6068 7.07742 5.34147 7.13019 5.07352 7.13019ZM5.07352 4.27358C4.9121 4.27358 4.7543 4.32145 4.62008 4.41113C4.48586 4.50081 4.38125 4.62828 4.31947 4.77742C4.2577 4.92656 4.24153 5.09066 4.27303 5.24898C4.30452 5.40731 4.38225 5.55273 4.4964 5.66688C4.61054 5.78102 4.75597 5.85876 4.91429 5.89025C5.07261 5.92174 5.23672 5.90558 5.38586 5.8438C5.53499 5.78203 5.66246 5.67742 5.75214 5.5432C5.84183 5.40898 5.88969 5.25118 5.88969 5.08976C5.88969 4.87329 5.8037 4.66569 5.65064 4.51263C5.49758 4.35957 5.28998 4.27358 5.07352 4.27358Z" fill="#7EA3CC"/>
<path d="M14.6635 14.1351C14.5012 14.1349 14.3456 14.0703 14.231 13.9555L10.0542 9.7726C9.94605 9.65656 9.88719 9.50308 9.88999 9.3445C9.89279 9.18591 9.95703 9.03461 10.0692 8.92245C10.1813 8.8103 10.3326 8.74606 10.4912 8.74326C10.6498 8.74046 10.8033 8.79933 10.9193 8.90745L15.1043 13.0904C15.1903 13.1764 15.2487 13.2862 15.272 13.4057C15.2953 13.5251 15.2825 13.6488 15.2352 13.7609C15.1879 13.873 15.1082 13.9685 15.0064 14.0352C14.9046 14.1018 14.7852 14.1366 14.6635 14.1351Z" fill="#7EA3CC"/>
<path d="M16.908 17.9445H13.6433C13.5057 17.9447 13.3721 17.8984 13.264 17.8133C13.1559 17.7281 13.0796 17.609 13.0475 17.4752L12.7353 16.1714L11.56 16.002C11.439 15.9847 11.3259 15.9315 11.2353 15.8493C11.1447 15.7672 11.0809 15.6597 11.052 15.5409L10.7092 14.1228L9.35839 13.829C9.24133 13.8039 9.13421 13.745 9.05028 13.6596L7.82602 12.4354C6.45324 12.7706 5.00774 12.6365 3.72005 12.0545C2.43236 11.4724 1.37666 10.476 0.721322 9.22398C0.065983 7.97201 -0.151247 6.53664 0.104278 5.14681C0.359803 3.75699 1.07337 2.49275 2.13116 1.55574C3.30408 0.541449 4.80596 -0.0114589 6.35658 0.000180079C7.90719 0.0118191 9.4006 0.58721 10.5582 1.61899C11.3751 2.3583 11.9843 3.29861 12.3251 4.34639C12.6658 5.39417 12.7264 6.51292 12.5007 7.59135L13.5209 8.61157L17.3365 12.4068C17.3946 12.4637 17.4407 12.5317 17.4723 12.6066C17.5038 12.6816 17.5201 12.7621 17.5201 12.8434V17.3324C17.5201 17.4948 17.4556 17.6504 17.3408 17.7652C17.2261 17.88 17.0704 17.9445 16.908 17.9445ZM14.1269 16.7203H16.2959V13.0985L11.3988 8.21573C11.323 8.13998 11.2684 8.04564 11.2404 7.94215C11.2125 7.83867 11.2122 7.72966 11.2397 7.62604C11.4826 6.71989 11.471 5.7643 11.2061 4.86433C10.9411 3.96437 10.4331 3.1549 9.73791 2.52495C8.80451 1.69314 7.6004 1.22929 6.35019 1.2199C5.09997 1.21051 3.88903 1.65624 2.94325 2.47394C2.06307 3.24574 1.47513 4.29679 1.27808 5.45073C1.08104 6.60467 1.28688 7.79126 1.86107 8.81141C2.43526 9.83156 3.34286 10.6232 4.43157 11.0534C5.52028 11.4837 6.72384 11.5264 7.8403 11.1744C7.94643 11.1416 8.05947 11.1384 8.1673 11.165C8.27513 11.1916 8.3737 11.247 8.45243 11.3254L9.79708 12.67L11.3519 13.0046C11.462 13.0304 11.5628 13.0862 11.6431 13.1658C11.7234 13.2454 11.7801 13.3457 11.8069 13.4556L12.1415 14.8431L13.3189 15.0124C13.4402 15.0299 13.5535 15.0834 13.6441 15.1659C13.7347 15.2485 13.7984 15.3564 13.8269 15.4756L14.1269 16.7203Z" fill="#7EA3CC"/>
</symbol><symbol id="logout" viewBox="0 0 22 20"><path class="cls-1" d="M12,22A10,10,0,1,1,20,6H17.29a8,8,0,1,0,0,12H20a10,10,0,0,1-8,4Zm7-6V13H11V11h8V8l5,4Z" transform="translate(-2 -2)"/></symbol><symbol id="magnifier" viewBox="0 0 19 18">
<path d="M7.7063 13.5C9.03753 13.4997 10.3304 13.0541 11.3791 12.234L14.6761 15.531L15.7366 14.4705L12.4396 11.1735C13.2601 10.1247 13.706 8.83158 13.7063 7.5C13.7063 4.19175 11.0146 1.5 7.7063 1.5C4.39805 1.5 1.7063 4.19175 1.7063 7.5C1.7063 10.8082 4.39805 13.5 7.7063 13.5ZM7.7063 3C10.1881 3 12.2063 5.01825 12.2063 7.5C12.2063 9.98175 10.1881 12 7.7063 12C5.22455 12 3.2063 9.98175 3.2063 7.5C3.2063 5.01825 5.22455 3 7.7063 3Z" fill="#7EA3CC"/>
</symbol><symbol id="mail" viewBox="0 0 15 12">
<path fill-rule="evenodd" clip-rule="evenodd" d="M2.04545 1.33333C1.67201 1.33333 1.36364 1.63486 1.36364 2V10C1.36364 10.3651 1.67201 10.6667 2.04545 10.6667H12.9545C13.328 10.6667 13.6364 10.3651 13.6364 10V2C13.6364 1.63486 13.328 1.33333 12.9545 1.33333H2.04545ZM0 2C0 0.898477 0.918897 0 2.04545 0H12.9545C14.0811 0 15 0.898477 15 2V10C15 11.1015 14.0811 12 12.9545 12H2.04545C0.918897 12 0 11.1015 0 10V2Z" fill="#7EA3CC"/>
<path fill-rule="evenodd" clip-rule="evenodd" d="M0.123309 1.28441C0.339249 0.982783 0.76438 0.909427 1.07287 1.12057L7.5 5.51958L13.9271 1.12057C14.2356 0.909427 14.6608 0.982783 14.8767 1.28441C15.0926 1.58604 15.0176 2.00173 14.7091 2.21287L7.89099 6.87949C7.65623 7.04017 7.34377 7.04017 7.10901 6.87949L0.290877 2.21287C-0.0176084 2.00173 -0.0926315 1.58604 0.123309 1.28441Z" fill="#7EA3CC"/>
</symbol><symbol id="pen" viewBox="0 0 9.99 13.12"><path class="cls-1" d="M6.61,12.12,3.36,13.68a.75.75,0,0,1-.36.07A.72.72,0,0,1,2.32,13l.22-3.61L8,1.35A1.65,1.65,0,0,1,10.22.91l1.36.92A1.63,1.63,0,0,1,12,4.1Zm4.46-8.66a.48.48,0,0,0-.13-.67L9.58,1.87A.48.48,0,0,0,8.91,2L3.67,9.76l-.16,2.57,2.32-1.11Z" transform="translate(-2.31 -0.63)"/><path class="cls-1" d="M8,3.34,10,4.7a.58.58,0,0,1-.65,1l-2-1.36a.57.57,0,1,1,.64-1ZM7.54,4a.2.2,0,0,0,.27-.06.18.18,0,0,0,0-.26L9.77,5a.18.18,0,0,0-.26.05.18.18,0,0,0,.05.26Z" transform="translate(-2.31 -0.63)"/></symbol><symbol id="persone" viewBox="0 0 14.2 15.21"><path class="cls-1" d="M0,15.21H14.2v-.76c0-3.94-2.52-6.12-7.09-6.12S0,10.51,0,14.45ZM7.09,9.84c3.38,0,5.26,1.29,5.54,3.85H1.56C1.84,11.13,3.72,9.84,7.09,9.84Z"/><path class="cls-1" d="M3.3,3.87A4,4,0,0,0,7.09,8a4,4,0,0,0,3.8-4.1A3.76,3.76,0,0,0,7.09,0,3.75,3.75,0,0,0,3.3,3.87Zm6.07,0A2.45,2.45,0,0,1,7.09,6.45,2.45,2.45,0,0,1,4.82,3.87,2.23,2.23,0,0,1,7.09,1.52,2.23,2.23,0,0,1,9.37,3.87Z"/></symbol><symbol id="phone" viewBox="0 0 12.33 18.83"><path d="M17.33,4.33H8.67A1.09,1.09,0,0,0,7.58,5.42V20.58a1.09,1.09,0,0,0,1.09,1.09h8.66a1.09,1.09,0,0,0,1.09-1.09V5.42A1.09,1.09,0,0,0,17.33,4.33Z" transform="translate(-6.83 -3.58)" style="fill:none;stroke:#7ea3cc;stroke-linecap:round;stroke-linejoin:round;stroke-width:1.5px"/><path d="M11.92,5.42h2.16" transform="translate(-6.83 -3.58)" style="fill:none;stroke:#7ea3cc;stroke-linecap:round;stroke-linejoin:round;stroke-width:2.75px"/><path d="M13,18.42h0" transform="translate(-6.83 -3.58)" style="fill:none;stroke:#7ea3cc;stroke-linecap:round;stroke-linejoin:round;stroke-width:2.75px"/></symbol><symbol id="role" viewBox="0 0 14.25 12.83"><path class="cls-1" d="M12.75,2.83H4.25A2.12,2.12,0,0,0,2.13,5V12a2.12,2.12,0,0,0,2.12,2.13h8.5A2.13,2.13,0,0,0,14.88,12V5A2.13,2.13,0,0,0,12.75,2.83Z" transform="translate(-1.38 -2.08)"/><path class="cls-1" d="M6.38,8.5A1.42,1.42,0,1,0,5,7.08,1.41,1.41,0,0,0,6.38,8.5Z" transform="translate(-1.38 -2.08)"/><path class="cls-1" d="M10.63,5.67H12" transform="translate(-1.38 -2.08)"/><path class="cls-1" d="M10.63,8.5H12" transform="translate(-1.38 -2.08)"/><path class="cls-1" d="M5,11.33H12" transform="translate(-1.38 -2.08)"/></symbol><symbol id="shirt" viewBox="0 0 29.15 29.15"><path class="cls-1" d="M28,3.17a6,6,0,0,0-3.58-2l-6-1H11.28l-6,1A6,6,0,0,0,.26,7V13a.86.86,0,0,0,.86.85H5.39V28.43a.86.86,0,0,0,.85.86h17.2a.86.86,0,0,0,.85-.86V13.8h4.27a.85.85,0,0,0,.85-.85V7A6,6,0,0,0,28,3.17ZM17.25,1.84a2.55,2.55,0,0,1-2.41,1.71,2.58,2.58,0,0,1-2.42-1.71ZM5.39,12.09H2V10.38H5.39Zm22.32,0H24.29V10.38h3.42Zm0-3.41H24.29V7.82a.86.86,0,0,0-1.71,0V27.58H7.1V7.82A.86.86,0,0,0,6.24,7a.85.85,0,0,0-.85.85v.86H2V7A4.25,4.25,0,0,1,5.54,2.83L10.69,2A4.27,4.27,0,0,0,19,2l5.15.85A4.25,4.25,0,0,1,27.71,7Z" transform="translate(-0.26 -0.14)"/></symbol><symbol id="today" viewBox="0 0 12.17 13.5"><path class="cls-1" d="M12,3.33H4A1.33,1.33,0,0,0,2.67,4.67v8A1.33,1.33,0,0,0,4,14h8a1.33,1.33,0,0,0,1.33-1.33v-8A1.33,1.33,0,0,0,12,3.33Z" transform="translate(-1.92 -1.25)"/><path class="cls-1" d="M10.67,2V4.67" transform="translate(-1.92 -1.25)"/><path class="cls-1" d="M5.33,2V4.67" transform="translate(-1.92 -1.25)"/><path class="cls-1" d="M2.67,7.33H13.33" transform="translate(-1.92 -1.25)"/><path class="cls-1" d="M6.67,10H5.33v1.33H6.67Z" transform="translate(-1.92 -1.25)"/></symbol><symbol id="total" viewBox="0 0 11.86 11.87"><path class="cls-1" d="M5.83,1.87A5.24,5.24,0,0,0,1.94,8.3,5.26,5.26,0,0,0,5.7,12.06a5.17,5.17,0,0,0,2.76,0,5.25,5.25,0,0,0,3.67-3.86A.59.59,0,0,0,12,7.75a.58.58,0,0,0-.41-.17h-4A1.16,1.16,0,0,1,6.42,6.42V2.33a.6.6,0,0,0-.06-.19A.54.54,0,0,0,6.22,2,.4.4,0,0,0,6,1.88.5.5,0,0,0,5.83,1.87Z" transform="translate(-1.02 -1.11)"/><path class="cls-1" d="M8.75,2A5.25,5.25,0,0,1,12,5.25H9.33a.58.58,0,0,1-.58-.58Z" transform="translate(-1.02 -1.11)"/></symbol><symbol id="week" viewBox="0 0 11.5 12.75"><path class="cls-1" d="M10.89,3.39H3.39A1.25,1.25,0,0,0,2.14,4.64v7.5a1.25,1.25,0,0,0,1.25,1.25h7.5a1.25,1.25,0,0,0,1.25-1.25V4.64A1.25,1.25,0,0,0,10.89,3.39Z" transform="translate(-1.39 -1.39)"/><path class="cls-1" d="M9.64,2.14v2.5" transform="translate(-1.39 -1.39)"/><path class="cls-1" d="M4.64,2.14v2.5" transform="translate(-1.39 -1.39)"/><path class="cls-1" d="M2.14,7.14h10" transform="translate(-1.39 -1.39)"/><path class="cls-2" d="M6.52,9.64h.62" transform="translate(-1.39 -1.39)"/><path class="cls-2" d="M7.14,9.64v1.88" transform="translate(-1.39 -1.39)"/></symbol><symbol id="writing" viewBox="0 0 18.09 18"><path class="cls-1" d="M17.11,12a.45.45,0,0,0-.45.45v4a1.37,1.37,0,0,1-1.36,1.36H2.66a1.36,1.36,0,0,1-1.35-1.36V4.73A1.36,1.36,0,0,1,2.66,3.38h4a.45.45,0,0,0,0-.9h-4A2.25,2.25,0,0,0,.41,4.73V16.47a2.26,2.26,0,0,0,2.25,2.26H15.3a2.26,2.26,0,0,0,2.26-2.26v-4A.45.45,0,0,0,17.11,12Z" transform="translate(-0.41 -0.73)"/><path class="cls-1" d="M17.38,1.32a2,2,0,0,0-2.87,0l-8,8a.43.43,0,0,0-.11.2L5.3,13.37a.45.45,0,0,0,.12.44.43.43,0,0,0,.43.12l3.82-1.06a.49.49,0,0,0,.2-.11l8-8a2,2,0,0,0,0-2.87ZM7.45,9.65,14,3.07,16.15,5.2,9.58,11.77ZM7,10.5l1.7,1.7-2.35.65ZM17.27,4.08l-.48.48L14.67,2.44,15.15,2a1.12,1.12,0,0,1,1.59,0l.53.53A1.12,1.12,0,0,1,17.27,4.08Z" transform="translate(-0.41 -0.73)"/></symbol></svg>