<svg xmlns="http://www.w3.org/2000/svg" xmlns:xlink="http://www.w3.org/1999/xlink"><defs><clipPath id="clip-path" transform="translate(-0.13 -0.75)"><rect y="0.58" width="26" height="28.42" fill="none"/></clipPath>
<clipPath id="clip0">
<rect width="44" height="26" fill="white"/>
</clipPath>

<clipPath id="clip0">
<rect width="102" height="86" fill="white"/>
</clipPath>

<clipPath id="clip0">
<rect width="61" height="41" fill="white" transform="translate(-0.000488281)"/>
</clipPath>

<clipPath id="clip0">
<rect width="100" height="98" fill="white"/>
</clipPath>

<clipPath id="clip0">
<rect width="100" height="75" fill="white"/>
</clipPath>
<style>.cls-1{fill:#020203;fill-rule:evenodd;}</style>
<clipPath id="clip0">
<rect width="100" height="100" fill="white"/>
</clipPath>
<style>.cls-1{fill:none;stroke:#222e59;stroke-linecap:round;stroke-linejoin:round;stroke-width:0.75px;}</style>
<clipPath id="clip0">
<rect width="81" height="98" fill="white"/>
</clipPath>

<clipPath id="clip0">
<rect width="61" height="61" fill="white" transform="translate(0.997437)"/>
</clipPath>
<style>.cls-1,.cls-3{fill:none;}.cls-2{clip-path:url(#clip-path);}.cls-3{stroke:#000;stroke-linecap:round;stroke-linejoin:round;stroke-width:0.75px;}</style><clipPath id="clip-path" transform="translate(0 0.1)"><rect class="cls-1" x="0.01" width="19.73" height="19.73"/></clipPath>
<clipPath id="clip0">
<rect width="60" height="60" fill="white"/>
</clipPath>
<style>.cls-1{fill:#020203;fill-rule:evenodd;}</style><style>.cls-1{fill:#020203;fill-rule:evenodd;}</style></defs><symbol id="cart" viewBox="0 0 25.76 28.09"><g clip-path="url(#clip-path)"><path d="M25.5,14.69,7.32,19v-12L25.5,6.88Z" transform="translate(-0.13 -0.75)" fill="#e30613"/><path d="M6.42,28.47a2.17,2.17,0,0,0,0-4.32,2.17,2.17,0,0,0,0,4.32Z" transform="translate(-0.13 -0.75)" fill="none" stroke="#000" stroke-linecap="round" stroke-linejoin="round" stroke-width="0.75"/><path d="M23.54,28.47a2.17,2.17,0,1,0-2-2.16A2.07,2.07,0,0,0,23.54,28.47Z" transform="translate(-0.13 -0.75)" fill="none" stroke="#000" stroke-linecap="round" stroke-linejoin="round" stroke-width="0.75"/><path d="M8.54,25.59h13" transform="translate(-0.13 -0.75)" fill="none" stroke="#000" stroke-linecap="round" stroke-linejoin="round" stroke-width="0.75"/><path d="M7.07,24.26V6.88" transform="translate(-0.13 -0.75)" fill="none" stroke="#000" stroke-linecap="round" stroke-linejoin="round" stroke-width="0.75"/><path d="M7.07,6.88H25.5v7.81L7.07,19.08" transform="translate(-0.13 -0.75)" fill="none" stroke="#000" stroke-linecap="round" stroke-linejoin="round" stroke-width="0.75"/><path d="M7.07,6.88,4.82,1.12H.5" transform="translate(-0.13 -0.75)" fill="none" stroke="#000" stroke-linecap="round" stroke-linejoin="round" stroke-width="0.75"/></g></symbol><symbol id="comparison" viewBox="0 0 44 26">
<g clip-path="url(#clip0)">
<path d="M26.5116 0.446794C25.9971 0.6205 25.4951 0.831428 25.0056 1.06097C24.6919 1.20986 24.5099 1.58829 24.6354 1.96051L25.3194 3.94572C25.4135 4.22489 25.288 4.59091 25.0307 4.76462C24.4032 5.19888 23.8197 5.67037 23.3428 6.2101C23.1106 6.47686 22.7843 6.5513 22.4706 6.40241L20.5441 5.50907C20.1928 5.34777 19.8037 5.45944 19.5966 5.77583C19.0193 6.65056 18.5675 7.61835 18.1848 8.62336C18.0467 8.97698 18.2412 9.37402 18.5487 9.52911L20.4437 10.4845C20.7261 10.6272 20.8767 10.9622 20.8265 11.2848C20.7136 11.9982 20.6571 12.7365 20.701 13.4933C20.7261 13.8469 20.5504 14.1137 20.2241 14.2192L18.2161 14.8954C17.8396 15.0194 17.6326 15.3482 17.7267 15.7329C17.8459 16.2602 17.984 16.7813 18.1597 17.29C18.3354 17.7987 18.5487 18.295 18.7809 18.7789C18.9315 19.0891 19.3143 19.269 19.6908 19.145L21.6987 18.4687C21.9811 18.3757 22.3513 18.4998 22.527 18.7541C22.9663 19.3745 23.4432 19.9514 23.9891 20.4229C24.2589 20.6525 24.3342 20.9751 24.1836 21.2853L23.28 23.1898C23.1169 23.5372 23.2298 23.9219 23.5499 24.1266C24.4346 24.6973 25.4135 25.144 26.4301 25.5224C26.7877 25.6589 27.1893 25.4666 27.3462 25.1626L28.3125 23.2891C28.4569 23.0099 28.7957 22.861 29.122 22.9106C29.8436 23.0223 30.5904 23.0781 31.3559 23.0347C31.7136 23.0099 31.9834 23.1836 32.0901 23.5062L32.774 25.4914C32.8995 25.8574 33.2321 26.0684 33.6212 25.9753C34.1545 25.8574 34.6816 25.721 35.1962 25.5472C35.7107 25.3735 36.2127 25.1626 36.7022 24.9331C37.0159 24.7842 37.1979 24.4058 37.0724 24.0335L36.3884 22.0483C36.2943 21.7691 36.4198 21.4031 36.6771 21.2294C37.3046 20.7952 37.8881 20.3237 38.365 19.7839C38.5972 19.5172 38.9235 19.4427 39.2372 19.5916L41.1637 20.485C41.5151 20.6463 41.9041 20.5346 42.1112 20.2182C42.6885 19.3435 43.1403 18.3757 43.523 17.3707C43.6611 17.0171 43.4666 16.62 43.1591 16.4649L41.2578 15.5095C40.9754 15.3669 40.8248 15.0319 40.875 14.7093C40.988 13.9958 41.0444 13.2576 41.0005 12.5007C40.9754 12.1471 41.1511 11.8803 41.4774 11.7749L43.4854 11.0987C43.8619 10.9746 44.069 10.6458 43.9748 10.2612C43.8556 9.73384 43.7176 9.21272 43.5419 8.70401C43.3662 8.1953 43.1528 7.699 42.9206 7.21511C42.77 6.90492 42.3873 6.72501 42.0108 6.84908L40.0028 7.5253C39.7204 7.61835 39.3502 7.49428 39.1745 7.23992C38.7352 6.61954 38.2583 6.04259 37.7124 5.57111C37.4489 5.34157 37.3736 5.02518 37.5242 4.71499L38.4278 2.81043C38.5909 2.46302 38.478 2.07839 38.158 1.87366C37.2732 1.30291 36.2943 0.856243 35.2777 0.477813C34.9201 0.34133 34.5185 0.533647 34.3616 0.837632L33.3953 2.71117C33.2509 2.99034 32.9121 3.13923 32.5858 3.0896C31.8642 2.97793 31.1174 2.9221 30.3519 2.96552C29.9942 2.99034 29.7244 2.81663 29.6177 2.49404L28.9338 0.508832C28.8083 0.14281 28.4757 -0.0681186 28.0866 0.0187341C27.547 0.14281 27.0199 0.273089 26.5116 0.446794ZM28.6326 6.73742C32.134 5.5525 35.9554 7.40742 37.154 10.8691C38.3525 14.3308 36.4763 18.1089 32.9811 19.2938C29.4797 20.4788 25.6582 18.6238 24.4597 15.1683C23.2612 11.7004 25.1311 7.92234 28.6326 6.73742Z" fill="#5F5F5F"/>
<path d="M9.55047 2.89111C9.14887 2.90972 8.74727 2.95314 8.34567 3.00898C8.0884 3.0462 7.88133 3.28194 7.89388 3.56732L7.95663 5.11826C7.9629 5.33539 7.79348 5.57113 7.57385 5.63938C7.03421 5.81308 6.51966 6.03021 6.06159 6.31559C5.84197 6.45207 5.59724 6.43966 5.40272 6.26596C5.01367 5.92475 4.62462 5.57734 4.2293 5.22993C4.01595 5.04381 3.71476 5.04381 3.49513 5.22372C2.89901 5.72623 2.37191 6.31559 1.88247 6.94837C1.70677 7.17171 1.76324 7.4943 1.94522 7.66801C2.32799 8.02783 2.70449 8.38765 3.08726 8.74746C3.25668 8.90876 3.29433 9.17552 3.18766 9.39266C2.95549 9.87655 2.75469 10.3853 2.62919 10.9312C2.56644 11.1855 2.39074 11.3406 2.13347 11.3468L0.564726 11.4089C0.269803 11.4213 0.056455 11.6074 0.0376301 11.899C0.0125303 12.296 -0.0062946 12.6931 0.0125303 13.0901C0.0313551 13.4871 0.0752798 13.8842 0.131754 14.2812C0.169404 14.5356 0.407853 14.7403 0.696501 14.7279L2.26524 14.6659C2.48486 14.6597 2.72331 14.8272 2.79234 15.0443C2.96803 15.5778 3.18766 16.0865 3.47631 16.5394C3.61436 16.7627 3.60181 17.0047 3.42611 17.1908C3.07471 17.5754 2.72331 17.9663 2.37191 18.3509C2.18367 18.5618 2.17739 18.8596 2.36564 19.0767C2.87391 19.6661 3.47003 20.1872 4.11008 20.6711C4.33598 20.8448 4.66227 20.789 4.83797 20.6029C5.20192 20.2244 5.56587 19.8522 5.92981 19.4738C6.09296 19.3063 6.36279 19.2691 6.58241 19.3745C7.07186 19.6041 7.5864 19.8026 8.14487 19.9267C8.40215 19.9887 8.55902 20.1624 8.5653 20.4168L8.62805 21.9677C8.6406 22.2593 8.82885 22.4702 9.12377 22.4888C9.52536 22.5136 9.92696 22.526 10.3286 22.5136C10.7302 22.495 11.1318 22.4578 11.5334 22.3958C11.7906 22.3585 11.9977 22.1228 11.9851 21.8374L11.9224 20.2865C11.9161 20.0693 12.0855 19.8336 12.3052 19.7654C12.8448 19.5917 13.3594 19.3745 13.8174 19.0891C14.0433 18.9527 14.2818 18.9651 14.4763 19.1388C14.8654 19.4862 15.2607 19.8336 15.6497 20.1748C15.8631 20.3609 16.1643 20.3671 16.3839 20.181C16.98 19.6785 17.5134 19.0891 17.9966 18.4564C18.1723 18.233 18.1158 17.9104 17.9338 17.7367C17.551 17.3769 17.1745 17.0171 16.7918 16.6635C16.6223 16.5022 16.591 16.2354 16.6914 16.0183C16.9235 15.5344 17.1243 15.0257 17.2498 14.4797C17.3126 14.2254 17.4883 14.0703 17.7456 14.0641L19.3143 14.0021C19.6092 13.9896 19.8226 13.8035 19.8414 13.512C19.8665 13.1149 19.8853 12.7117 19.8665 12.3146C19.8477 11.9176 19.8037 11.5205 19.7473 11.1235C19.7096 10.8692 19.4712 10.6644 19.1825 10.6768L17.6138 10.7389C17.3942 10.7451 17.162 10.5776 17.0867 10.3604C16.911 9.82692 16.6914 9.31821 16.4027 8.86534C16.2647 8.6482 16.2772 8.40005 16.4466 8.21394C16.798 7.82931 17.1494 7.43847 17.5008 7.05383C17.6891 6.84291 17.6954 6.54513 17.5071 6.32799C16.9988 5.73864 16.4027 5.21132 15.7627 4.73363C15.5368 4.55992 15.2105 4.61575 15.0348 4.80187C14.6708 5.1803 14.3069 5.55252 13.9429 5.93095C13.7798 6.09845 13.51 6.13568 13.2903 6.03021C12.8009 5.80067 12.2863 5.60215 11.7342 5.47808C11.4769 5.41604 11.32 5.24233 11.3137 4.98798L11.251 3.43704C11.2384 3.14546 11.0502 2.93453 10.7553 2.91592C10.3599 2.89111 9.95206 2.87249 9.55047 2.89111Z" fill="#E30613"/>
</g>

</symbol><symbol id="convenient-payment" viewBox="0 0 102 86">
<g clip-path="url(#clip0)">
<path d="M85.0786 53.9396H9.60461V55.2038H85.0786V53.9396Z" fill="#B2B2B2"/>
<path d="M6.49883 11.8335C2.93004 11.8335 -0.00354004 14.7732 -0.00354004 18.3495V68.1958C-0.00354004 71.7721 2.93004 74.7118 6.49883 74.7118H91.4686C95.0374 74.7118 97.9708 71.7721 97.9708 68.1958V18.3495C97.9708 14.7732 95.0374 11.8335 91.4686 11.8335H6.49883ZM6.49883 15.6687H91.4686C92.9842 15.6687 94.1437 16.8308 94.1437 18.3495V68.1958C94.1437 69.7145 92.9842 70.8766 91.4686 70.8766H6.49883C4.98329 70.8766 3.82358 69.7145 3.82358 68.1958V18.3495C3.82358 16.8308 4.98329 15.6687 6.49883 15.6687Z" fill="#5F5F5F"/>
<path d="M36.4137 72.4625H61.5522V85.7669H36.4137V72.4625Z" fill="#5F5F5F"/>
<path d="M48.9837 78.1271C35.1104 78.1309 23.2139 81.4426 20.6727 86.0084H77.2968C74.7556 81.4407 62.8571 78.129 48.9837 78.1271Z" fill="#5F5F5F"/>
<path d="M97.778 0H73.1695C70.8146 0 68.8466 1.88789 68.8466 4.24775V51.6472C68.8466 54.0071 70.8146 55.8949 73.1695 55.8949H97.778C100.133 55.8949 102 54.0071 102 51.6472V4.24775C102 1.88789 100.133 0 97.778 0ZM82.0003 2.1913H89.0145C89.4686 2.20815 89.8387 2.59584 89.8387 3.06782C89.8387 3.53979 89.4518 3.91062 89.0145 3.94434V3.96119H82.034V3.92748C81.4789 3.92748 81.1425 3.53979 81.1425 3.05096C81.1425 2.57899 81.5293 2.1913 82.0003 2.1913ZM85.4822 54.1756C84.0356 54.1756 82.8582 52.9957 82.8582 51.5461C82.8582 50.0964 84.0356 48.9165 85.4822 48.9165C86.9287 48.9165 88.1062 50.0964 88.1062 51.5461C88.0894 52.9957 86.9287 54.1756 85.4822 54.1756Z" fill="#5F5F5F"/>
<path d="M100.621 8.24268H70.3773V46.9949H100.621V8.24268Z" fill="white"/>
<path d="M82.5552 19.4689H87.7528C88.3247 19.4689 88.8629 19.5194 89.3844 19.6206C89.9058 19.7554 90.4441 20.042 90.9823 20.4634C91.4365 20.7837 91.8065 21.2388 92.0925 21.8456C92.3953 22.4187 92.5298 23.1098 92.5298 23.902C92.5298 24.964 92.1598 25.9416 91.4029 26.8181C90.6291 27.7452 89.519 28.2172 88.0387 28.2341H84.7251V29.9702V30.3579V30.9648V31.4199V33.8303H82.5552V31.3524V30.7962V30.3748V30.004V28.2509L81.0414 28.2678V26.1776H82.5552V19.4689ZM84.7251 26.1776H87.9546C88.762 26.1608 89.3676 25.9079 89.7713 25.4191C90.1581 24.9471 90.36 24.4246 90.36 23.8346C90.36 23.3458 90.2759 22.9412 90.1245 22.621C89.9563 22.3176 89.7376 22.0984 89.4348 21.913C88.9807 21.6265 88.4761 21.4916 87.8705 21.5085H84.7251V26.1776Z" fill="#CC1A25"/>
<path d="M87.3997 30.3411H81.0247V31.8413H87.3997V30.3411Z" fill="#CC1A25"/>
<path d="M17.9812 22.9918H20.8912C21.2107 22.9918 21.5135 23.0255 21.7995 23.0761C22.0854 23.1604 22.3882 23.3121 22.691 23.5481C22.9433 23.7335 23.1451 23.9863 23.3133 24.3235C23.4815 24.6437 23.5656 25.0314 23.5656 25.4697C23.5656 26.0596 23.3638 26.6159 22.9433 27.1047C22.5059 27.6273 21.8836 27.8801 21.0594 27.897H19.2091V28.8746V29.0937V29.4309V29.6837V31.0322H17.998V29.6669V29.3634V29.1275V28.8915V27.9138L17.157 27.9307V26.7676H17.998V22.9918H17.9812ZM19.1923 26.7507H20.9921C21.4462 26.7507 21.7826 26.599 22.0181 26.3293C22.2368 26.0596 22.3377 25.7731 22.3377 25.4528C22.3377 25.1831 22.2873 24.964 22.2032 24.7786C22.1191 24.61 21.9845 24.4752 21.8163 24.3909C21.564 24.2392 21.278 24.1549 20.9416 24.1718H19.1755V26.7507H19.1923Z" fill="#CC1A25"/>
<path d="M20.6893 29.0769H17.1233V29.9197H20.6893V29.0769Z" fill="#CC1A25"/>
<path d="M55.2388 21.5253H31.6732V22.7895H55.2388V21.5253Z" fill="#B2B2B2"/>
<path d="M55.2388 26.0259H31.6732V27.2901H55.2388V26.0259Z" fill="#B2B2B2"/>
<path d="M55.222 31.2175H31.8245V32.4817H55.222V31.2175Z" fill="#B2B2B2"/>
<path d="M55.222 36.7126H9.60461V37.9769H55.222V36.7126Z" fill="#B2B2B2"/>
<path d="M55.222 42.646H9.60461V43.9102H55.222V42.646Z" fill="#B2B2B2"/>
<path d="M55.222 48.2928H9.60461V49.5571H55.222V48.2928Z" fill="#B2B2B2"/>
<path d="M85.0786 59.5864H9.60461V60.8506H85.0786V59.5864Z" fill="#B2B2B2"/>
<path d="M85.0786 64.5421H9.60461V65.8063H85.0786V64.5421Z" fill="#B2B2B2"/>
</g>

</symbol><symbol id="courier" viewBox="0 0 60 60">
<path d="M10.625 20.0024C9.5925 20.0024 8.75 19.1624 8.75 18.1274C8.75 17.0924 9.5925 16.2524 10.625 16.2524C11.6575 16.2524 12.5 17.0949 12.5 18.1274C12.5 19.1599 11.6575 20.0024 10.625 20.0024Z" fill="#CC1A25"/>
<path d="M21.94 20.0024C20.9075 20.0024 20.065 19.1624 20.065 18.1274C20.065 17.0924 20.9075 16.2524 21.94 16.2524C22.9725 16.2524 23.815 17.0949 23.815 18.1274C23.815 19.1599 22.9725 20.0024 21.94 20.0024Z" fill="#CC1A25"/>
<path d="M16.265 27.5125C14.5775 27.5125 12.99 26.855 11.8 25.66C11.3125 25.1725 11.3125 24.38 11.8 23.8925C12.2875 23.4075 13.08 23.405 13.5675 23.895C15.0075 25.3375 17.5225 25.3375 18.9625 23.895C19.45 23.405 20.2425 23.4075 20.73 23.8925C21.2175 24.38 21.2175 25.1725 20.73 25.66C19.5375 26.855 17.9525 27.5125 16.265 27.5125Z" fill="#CC1A25"/>
<path d="M1.25252 16.245C0.870022 16.245 0.492522 16.07 0.247522 15.74C-0.159978 15.1876 -0.0499782 14.4076 0.502522 13.9976C0.720022 13.8351 5.98002 9.99255 16.265 9.99255C26.55 9.99255 31.7825 13.8351 32.0025 14.0001C32.5525 14.4151 32.6625 15.1925 32.2525 15.745C31.84 16.2975 31.06 16.415 30.505 16.0025C30.4575 15.9675 25.65 12.4951 16.2675 12.4951C6.88252 12.4951 2.04502 15.97 1.99752 16.005C1.77002 16.165 1.51002 16.245 1.25252 16.245Z" fill="#CC1A25"/>
<path d="M16.265 32.5249C12.18 32.5249 8.775 31.1324 6.14 28.3849C3.0775 25.1999 1.25 20.2149 1.25 15.0574C1.25 14.9524 1.2625 14.8499 1.2875 14.7524L3.0975 6.5524C3.6175 4.2049 5.4625 2.3399 7.805 1.8024L14.87 0.182402C15.7775 -0.0275977 16.7475 -0.0275977 17.665 0.182402L24.7 1.8024C27.0425 2.3424 28.8875 4.2049 29.4025 6.5524L31.2225 14.7874C31.24 14.8774 31.25 14.9674 31.25 15.0574V15.4349C31.25 19.2599 29.9725 24.6699 26.3925 28.3874C23.745 31.1324 20.3375 32.5249 16.265 32.5249ZM3.75 15.1899C3.785 18.7049 4.9 23.4849 7.9425 26.6549C10.0875 28.8924 12.89 30.0249 16.265 30.0249C19.635 30.0249 22.435 28.8899 24.59 26.6524C27.655 23.4699 28.75 18.7699 28.75 15.4349V15.1949L26.96 7.0924C26.65 5.6824 25.5425 4.5624 24.1375 4.2399L17.1025 2.6199C16.5575 2.4949 15.975 2.4949 15.425 2.6199L8.3625 4.2399C6.9575 4.5624 5.85 5.6824 5.5375 7.0924L3.75 15.1899Z" fill="#CC1A25"/>
<path d="M13.47 55H6.25C5.56 55 5 54.44 5 53.75V33.75C5 33.06 5.56 32.5 6.25 32.5C6.94 32.5 7.5 33.06 7.5 33.75V52.5H13.47C14.16 52.5 14.72 53.06 14.72 53.75C14.72 54.44 14.16 55 13.47 55Z" fill="#5F5F5F"/>
<path d="M41.25 55H23.75C23.06 55 22.5 54.44 22.5 53.75C22.5 53.06 23.06 52.5 23.75 52.5H40V27.5H33.75C33.06 27.5 32.5 26.94 32.5 26.25C32.5 25.56 33.06 25 33.75 25H41.25C41.94 25 42.5 25.56 42.5 26.25V53.75C42.5 54.44 41.94 55 41.25 55Z" fill="#5F5F5F"/>
<path d="M58.75 55H53.75C53.06 55 52.5 54.44 52.5 53.75C52.5 53.06 53.06 52.5 53.75 52.5H57.5V43.8C57.5 39.705 54.17 36.375 50.075 36.375H42.5V52.5H43.75C44.44 52.5 45 53.06 45 53.75C45 54.44 44.44 55 43.75 55H41.25C40.56 55 40 54.44 40 53.75V35.125C40 34.435 40.56 33.875 41.25 33.875H50.075C55.545 33.875 60 38.3275 60 43.8V53.75C60 54.44 59.44 55 58.75 55Z" fill="#5F5F5F"/>
<path d="M18.75 60C15.3025 60 12.5 57.195 12.5 53.75C12.5 50.305 15.3025 47.5 18.75 47.5C22.1975 47.5 25 50.305 25 53.75C25 57.195 22.1975 60 18.75 60ZM18.75 50C16.6825 50 15 51.6825 15 53.75C15 55.8175 16.6825 57.5 18.75 57.5C20.8175 57.5 22.5 55.8175 22.5 53.75C22.5 51.6825 20.8175 50 18.75 50Z" fill="#5F5F5F"/>
<path d="M48.75 60C45.3025 60 42.5 57.195 42.5 53.75C42.5 50.305 45.3025 47.5 48.75 47.5C52.1975 47.5 55 50.305 55 53.75C55 57.195 52.1975 60 48.75 60ZM48.75 50C46.6825 50 45 51.6825 45 53.75C45 55.8175 46.6825 57.5 48.75 57.5C50.8175 57.5 52.5 55.8175 52.5 53.75C52.5 51.6825 50.8175 50 48.75 50Z" fill="#5F5F5F"/>
</symbol><symbol id="delivery" viewBox="0 0 61 41">
<g clip-path="url(#clip0)">
<path d="M50.0666 31.5083C52.6532 31.5083 54.7477 33.6294 54.7477 36.2489C54.7477 38.8684 52.6532 40.9894 50.0666 40.9894C47.48 40.9894 45.3856 38.8684 45.3856 36.2489C45.3751 33.64 47.48 31.5083 50.0666 31.5083Z" fill="#5F5F5F"/>
<path d="M10.9114 31.5083C13.498 31.5083 15.5925 33.6294 15.5925 36.2489C15.5925 38.8684 13.498 40.9894 10.9114 40.9894C8.32483 40.9894 6.23041 38.8684 6.23041 36.2489C6.23041 33.64 8.32483 31.5083 10.9114 31.5083Z" fill="#5F5F5F"/>
<path d="M0.921057 0C0.418396 0 -0.000488281 0.424211 -0.000488281 0.933264V28.857V29.1433V33.4066C-0.000488281 33.9263 0.418396 34.3399 0.921057 34.3399H4.16741C4.5444 34.3399 4.87951 34.1172 5.01565 33.7672C5.97908 31.434 8.24106 29.7902 10.9114 29.7902C13.5714 29.7902 15.8333 31.434 16.7968 33.7672C16.9434 34.1172 17.2785 34.3399 17.645 34.3399H43.3121C43.6891 34.3399 44.0242 34.1172 44.1604 33.7672C45.1238 31.434 47.3858 29.7902 50.0457 29.7902C52.5799 29.7902 54.8314 31.5507 55.8472 33.799C55.9939 34.1278 56.329 34.3399 56.685 34.3399H60.0466C60.5597 34.3399 60.9681 33.9157 60.9681 33.4066V18.4532C60.9681 18.2941 60.9262 18.135 60.8424 17.9865L54.0565 5.90714C53.889 5.6208 53.5853 5.44051 53.2502 5.44051H40.3276V0.933264C40.3276 0.413606 39.9087 0 39.406 0H0.921057ZM20.1374 4.21029C26.5149 4.21029 31.6881 9.4493 31.6881 15.9079C31.6881 22.3665 26.5149 27.6161 20.1374 27.6161C13.7599 27.6161 8.58664 22.3771 8.58664 15.9079C8.57616 9.4493 13.7599 4.21029 20.1374 4.21029ZM41.9193 7.73125H51.9307C52.2658 7.73125 52.5695 7.91154 52.737 8.19788L57.8998 17.2866C58.1511 17.732 57.994 18.3047 57.5542 18.5592C57.4181 18.6441 57.261 18.6865 57.0934 18.6865H41.9193C41.4062 18.6865 40.9978 18.2623 40.9978 17.7532V8.66451C40.9978 8.15546 41.4167 7.73125 41.9193 7.73125Z" fill="#5F5F5F"/>
<path d="M13.4562 14.8368C13.2677 15.0277 13.2677 15.3459 13.4562 15.5367C15.5192 17.6896 17.3518 19.5986 19.2368 21.5605C19.331 21.656 19.4776 21.656 19.5719 21.5605C22.3889 18.6229 25.3211 15.5686 28.2532 12.5142C28.4417 12.3234 28.4417 12.0052 28.2532 11.8143L26.8186 10.319C26.6301 10.1281 26.3264 10.1281 26.1484 10.319L19.4148 17.3396L15.5715 13.3309C15.383 13.14 15.0793 13.14 14.9013 13.3309L13.4562 14.8368Z" fill="#CC1A25"/>
</g>

</symbol><symbol id="favorable-prices" viewBox="0 0 100 98">
<g clip-path="url(#clip0)">
<path d="M63.1351 -0.000488281C61.9596 -0.000488281 60.6572 0.130381 59.4879 0.261252H59.4818C57.8951 0.529126 56.8226 1.7499 56.8226 3.23241V6.40192C56.8226 7.0256 56.3286 7.65745 55.7137 7.78219H55.7076H55.7015C53.7478 8.44267 51.7902 9.23403 50.0946 10.1583V10.1644H50.0885C49.6006 10.5366 48.8628 10.4159 48.3628 9.90882L46.1509 7.66563L46.145 7.6595C45.0825 6.71682 43.4837 6.58186 42.2881 7.52454C40.3345 9.10929 38.6407 10.8331 37.0782 12.8166H37.0723C36.1449 14.0271 36.1468 15.6548 37.2113 16.7345L39.4232 18.9777C39.9272 19.4889 40.0522 20.0983 39.6752 20.7342V20.7404C38.6328 22.5909 37.8465 24.4374 37.3243 26.4209V26.4271C37.2013 27.0508 36.5783 27.5579 35.9634 27.5579H32.8443H32.8384C31.2517 27.6928 30.048 28.7705 29.915 30.255C29.7839 31.441 29.6507 32.6311 29.6507 33.9541C29.6507 35.1463 29.7859 36.4673 29.915 37.6533V37.6594C30.1791 39.2707 31.3826 40.3566 32.8443 40.3566H35.9634C36.5783 40.3566 37.2013 40.8575 37.3243 41.4812V41.4874L37.3302 41.4935C37.9815 43.4749 38.7619 45.4544 39.6752 47.1741V47.1802C40.0421 47.6751 39.9232 48.4296 39.4232 48.9367L37.2113 51.1799C36.9049 51.5357 36.6872 51.9549 36.5622 52.3946C40.8425 52.597 45.0784 53.4517 49.0442 55.1162C52.4515 56.3104 55.3629 58.7704 59.0061 59.2243C62.6271 59.666 66.3488 59.8807 70.0061 60.4062C70.1694 60.2733 70.3508 60.167 70.5545 60.1261H70.5606H70.5667C72.5203 59.4656 74.472 58.6743 76.1676 57.748L76.1735 57.7418C76.6614 57.3697 77.4054 57.4964 77.9054 58.0036L80.1172 60.2406L80.1231 60.2468C81.1857 61.1894 82.7786 61.3183 83.9722 60.3735H83.9781C85.9317 58.7888 87.6255 57.0711 89.188 55.0897C90.1154 53.8791 90.1194 52.2575 89.0549 51.1799L86.843 48.9367C86.339 48.4255 86.214 47.81 86.591 47.172C87.6333 45.3214 88.4197 43.4688 88.9419 41.4853V41.4792C89.0648 40.8555 89.6878 40.3484 90.3028 40.3484H93.4278C95.0145 40.2134 96.2182 39.1358 96.3512 37.6512C96.4803 36.4652 96.6155 35.2751 96.6155 33.9521C96.6155 32.76 96.4803 31.439 96.3512 30.253C96.0871 28.6437 94.8895 27.5558 93.4278 27.5558H90.3028C89.6878 27.5558 89.0648 27.0487 88.9419 26.425V26.4189C88.2906 24.4374 87.5043 22.4499 86.591 20.7322V20.726C86.2241 20.2312 86.343 19.4828 86.843 18.9757L89.0549 16.7325V16.7263C89.9843 15.6487 90.1174 14.0271 89.188 12.8145C87.6255 10.8331 85.9317 9.10929 83.9781 7.52454H83.9722C82.7786 6.58391 81.1798 6.58595 80.1172 7.66563L77.9054 9.90882C77.4013 10.42 76.8006 10.5407 76.1735 10.1583C74.3489 9.10111 72.5163 8.30976 70.5606 7.78219H70.5545C69.9396 7.65745 69.4456 7.0256 69.4456 6.40192V3.23241V3.22628C69.3125 1.61698 68.244 0.396211 66.7803 0.261252C65.6069 0.130381 64.4415 -0.000488281 63.1351 -0.000488281ZM63.1351 9.39966C64.1835 9.39966 65.0262 10.2585 65.0262 11.3239V14.6733C65.0343 14.6754 65.0385 14.6713 65.0445 14.6733C66.6534 14.8308 68.1775 15.1947 69.4678 15.7469C70.7582 16.3112 71.8852 17.168 72.8449 18.3152C73.603 19.1863 74.1837 20.0758 74.597 21.0001C75.0103 21.9223 75.2261 22.7729 75.2261 23.5438C75.2261 24.3986 74.9075 25.145 74.2946 25.7686C73.6777 26.3923 72.9335 26.7011 72.0585 26.7011C70.4073 26.7011 69.3429 25.7932 68.851 23.9794C68.3127 21.9161 67.0425 20.5257 65.0445 19.7997C65.0385 19.7977 65.0322 19.7956 65.0262 19.7936V30.4452C65.0322 30.4472 65.0385 30.4493 65.0445 30.4513C67.0284 31.0096 68.6251 31.5208 69.8207 31.985C71.0606 32.4614 72.1634 33.1567 73.1412 34.0625C74.1896 35.0032 74.9941 36.1258 75.5606 37.4365C76.1251 38.7452 76.4116 40.1746 76.4116 41.7307C76.4116 43.6815 75.9578 45.5034 75.0566 47.2068C74.1533 48.9101 72.8267 50.3027 71.0747 51.3803C69.2682 52.4027 67.1736 53.0121 65.0445 53.2391H65.0262V56.6008C65.0262 57.6621 64.1855 58.5168 63.1351 58.5168C62.0867 58.5168 61.2459 57.66 61.2459 56.6008V53.2391C59.5201 53.0571 57.873 52.6215 56.4455 51.9426C54.9717 51.2249 53.7397 50.3313 52.7538 49.2659C51.7659 48.1965 51.0341 47.078 50.5603 45.9247C50.0905 44.7693 49.8546 43.6426 49.8546 42.5323C49.8808 40.786 51.3225 39.4466 53.1693 39.3178C54.512 39.3321 55.6369 39.9271 56.1813 41.3749C56.6349 42.7777 57.0303 43.8532 57.367 44.5955C58.0867 46.1496 59.5424 47.3745 61.2481 47.9879V36.0072C59.1533 35.4019 57.381 34.7291 55.9496 33.995C54.4314 33.218 53.2014 32.1158 52.2579 30.6783C51.3103 29.2408 50.8406 27.3963 50.8406 25.1388C50.8406 22.2004 51.7661 19.7854 53.6129 17.9042C55.4435 16.0474 58.2863 15.0107 61.25 14.6958V11.3279C61.246 10.2605 62.0867 9.39966 63.1351 9.39966ZM61.2459 19.6811C58.9031 20.2885 57.2459 21.7996 57.1189 24.4927C57.1189 25.8423 57.4899 26.8585 58.2278 27.5538C59.0625 28.3165 60.1209 28.8441 61.2459 29.2653V19.6811ZM65.0262 37.1523V48.1944C66.3427 47.9511 67.5909 47.3295 68.7683 46.213C69.6957 45.1701 70.1615 43.9637 70.1615 42.5773C70.1615 41.0886 69.7097 39.9415 68.8065 39.1276C67.7803 38.2238 66.4395 37.6328 65.0262 37.1523Z" fill="#CC1A25"/>
<path d="M34.3344 55.2553C27.165 55.3391 20.06 57.2838 17.1487 58.0097C13.0196 59.0382 2.15856 58.1692 1.40452 58.4146C0.600072 58.6763 0.00738525 59.5065 0.00738525 60.3613V80.595C0.0456922 81.9691 0.922649 82.877 2.1021 82.9936C3.34405 83.014 13.564 83.0447 17.3745 83.0897C19.1366 83.2635 20.5741 83.5232 22.0278 84.0998C23.0278 84.5027 24.3039 85.0691 25.7455 85.7378C28.6306 87.0771 32.1851 88.8418 35.782 90.5963C39.3788 92.3508 43.0099 94.093 46.0705 95.4467C49.131 96.8004 51.3265 97.7982 53.3144 97.9516C56.3326 98.1888 61.4859 97.3422 66.7723 96.4916C72.0566 95.6409 77.4358 94.7187 78.8673 94.6512C83.1133 94.4488 86.6094 91.2159 88.9118 89.7027C91.9018 87.7335 95.3433 85.6232 98.1881 82.8791C99.4663 81.5867 99.9825 80.3067 99.9865 78.9059C99.799 77.5093 98.565 77.8651 98.2505 77.2864C98.6658 76.8325 99.8978 75.6751 99.9865 74.7999C100.283 72.1989 97.6578 70.8942 95.5267 70.7204C91.5811 70.5221 87.9965 72.935 86.0146 74.8449C82.9601 77.7976 79.6797 78.7955 75.1575 79.3231C69.7421 79.959 64.6674 80.3905 59.8246 78.8364C59.1028 78.6053 57.4456 77.8692 55.9234 77.2169C55.1613 76.8918 54.4113 76.585 53.75 76.3417C53.254 76.1577 52.9395 75.9757 52.379 75.9C54.0282 75.6833 56.7137 75.2927 59.1956 75.5892C62.1956 75.9491 71.4982 75.9675 75.341 76.6771C76.8107 76.949 78.2604 76.5994 79.3471 75.8898C80.4338 75.1802 81.1817 74.1762 81.6938 73.119C82.72 71.0067 83.1414 69.8534 81.6596 67.782C80.3128 65.9028 78.2422 65.275 75.9438 64.6125C73.6434 63.952 71.0466 63.496 68.7441 63.1259C63.98 62.3591 60.4214 62.5308 56.9093 61.8519C55.6431 61.6086 53.4414 60.3204 50.4172 58.8685C47.391 57.4167 43.4635 55.8933 38.296 55.4086C36.9936 55.2819 35.661 55.2389 34.3344 55.2553Z" fill="#5F5F5F"/>
</g>

</symbol><symbol id="field-repair" viewBox="0 0 61 59">
<path d="M30.3059 20.2622C29.6952 20.2622 29.082 20.3053 28.4725 20.3729C28.0818 20.4159 27.75 20.7625 27.75 21.2062V23.5957C27.75 23.9288 27.476 24.2767 27.1393 24.3738C26.3098 24.611 25.516 24.9072 24.8058 25.319C24.4592 25.5193 24.0881 25.4812 23.8055 25.2084L22.0827 23.5416C21.7706 23.2393 21.3135 23.2184 20.9718 23.4863C20.0355 24.2189 19.195 25.099 18.4159 26.0417C18.1394 26.376 18.1984 26.8714 18.4712 27.1529L20.1375 28.875C20.3845 29.1306 20.4225 29.5461 20.2481 29.8755C19.8659 30.602 19.5304 31.3775 19.3031 32.2097C19.1962 32.5993 18.9136 32.8206 18.5253 32.8206H16.1364C15.6916 32.8206 15.35 33.0971 15.3033 33.5433C15.2394 34.1542 15.1927 34.7663 15.1927 35.3772C15.1927 35.9881 15.2357 36.6014 15.3033 37.2111C15.3463 37.602 15.6928 37.9338 16.1364 37.9338H18.5253C18.8583 37.9338 19.206 38.2067 19.3031 38.5448C19.5403 39.3744 19.8364 40.1685 20.2481 40.879C20.4484 41.2256 20.4103 41.5967 20.1375 41.8794L18.4712 43.6015C18.1689 43.9137 18.148 44.371 18.4159 44.7127C19.1483 45.6493 20.0281 46.4888 20.9718 47.2681C21.3061 47.5447 21.8001 47.4857 22.0827 47.2128L23.8055 45.546C24.0611 45.299 24.4752 45.2609 24.8058 45.4354C25.532 45.8177 26.3074 46.1532 27.1393 46.3806C27.53 46.4876 27.75 46.7691 27.75 47.1587V49.5482C27.75 49.9931 28.0265 50.3348 28.4725 50.3815C29.0833 50.4454 29.694 50.4922 30.3059 50.4922C30.9166 50.4922 31.5286 50.4491 32.1393 50.3815C32.5301 50.3385 32.8618 49.9919 32.8618 49.5482V47.1587C32.8618 46.8256 33.1347 46.4777 33.4726 46.3806C34.302 46.1434 35.0959 45.8472 35.8061 45.4354C36.1527 45.2351 36.5237 45.2732 36.8064 45.546L38.5292 47.2128C38.8413 47.5152 39.2984 47.5361 39.64 47.2681C40.5764 46.5355 41.4157 45.6555 42.1947 44.7127C42.4712 44.3784 42.4122 43.883 42.1394 43.6015L40.4732 41.8794C40.2262 41.6238 40.188 41.2096 40.3625 40.879C40.7447 40.1525 41.0802 39.3769 41.3076 38.5448C41.4145 38.1551 41.6958 37.9338 42.0853 37.9338H44.4742C44.919 37.9338 45.2606 37.6573 45.3073 37.2111C45.3712 36.6002 45.4179 35.9881 45.4179 35.3772C45.4179 34.7663 45.3749 34.153 45.3073 33.5433C45.2643 33.1524 44.9178 32.8206 44.4742 32.8206H42.0853C41.7523 32.8206 41.4046 32.5477 41.3076 32.2097C41.0704 31.38 40.7742 30.586 40.3625 29.8755C40.1622 29.5289 40.2004 29.1577 40.4732 28.875L42.1394 27.1529C42.4417 26.8407 42.4626 26.3834 42.1947 26.0417C41.4624 25.1051 40.5825 24.2656 39.64 23.4863C39.3058 23.2098 38.8118 23.2688 38.5292 23.5416L36.8064 25.2084C36.5508 25.4554 36.1367 25.4935 35.8061 25.319C35.0799 24.9367 34.3045 24.6012 33.4726 24.3738C33.0818 24.2668 32.8618 23.9853 32.8618 23.5957V21.2062C32.8618 20.7613 32.5854 20.4196 32.1393 20.3729C31.5298 20.309 30.9179 20.2622 30.3059 20.2622ZM30.2506 27.8191C34.4175 27.8191 37.8054 31.2092 37.8054 35.376C37.8054 39.5441 34.4163 42.9329 30.2506 42.9329C26.0837 42.9329 22.6958 39.5429 22.6958 35.376C22.6958 31.2092 26.0837 27.8191 30.2506 27.8191Z" fill="#CC1A25"/>
<path d="M25.3759 0C22.1661 0 19.5196 2.70233 19.5196 5.98263V11.1236H2.97737C1.33311 11.1236 0 12.4867 0 14.1652V40.7618H14.2351C13.6349 38.9753 13.3091 37.0594 13.3091 35.0644C13.3091 25.3654 21.0052 17.5033 30.4994 17.5033C39.9935 17.5033 47.6897 25.3654 47.6897 35.0644C47.6897 37.0594 47.3626 38.9753 46.7637 40.7618H60.9987V14.1652C60.9987 12.4855 59.6693 11.1236 58.025 11.1236H41.4792V5.98263C41.4792 2.70359 38.8338 0 35.6228 0H25.3759ZM25.3759 3.98887H35.624C36.7394 3.98887 37.5757 4.84313 37.5757 5.98263V11.1236H23.4243V5.98263C23.4243 4.84313 24.2605 3.98887 25.3759 3.98887ZM0.00492406 43.2305V55.9584C0.00492406 57.6369 1.33437 59 2.97863 59H58.0263C59.6718 59 61 57.6369 61 55.9584V43.2305H45.7196C42.8418 48.8137 37.1072 52.6241 30.5006 52.6241C23.8941 52.6241 18.1595 48.8137 15.2817 43.2305H0.00492406Z" fill="#5F5F5F"/>
</symbol><symbol id="field-service" viewBox="0 0 100 75">
<g clip-path="url(#clip0)">
<path d="M33.0036 18.4523C32.4727 18.4523 31.8819 18.5118 31.351 18.5719C30.6427 18.6916 30.1705 19.2303 30.1705 19.8881V21.3239C30.1705 21.6234 29.9346 21.9222 29.6392 21.9817C28.7535 22.2811 27.8684 22.64 27.1014 23.0585C26.8653 23.2377 26.5113 23.1782 26.2752 22.9389L25.272 21.9222C24.7999 21.5031 24.0916 21.4436 23.5607 21.8627C22.6751 22.5806 21.9082 23.358 21.2 24.2557C20.7871 24.7938 20.787 25.5117 21.2592 25.9904L22.2624 27.0071C22.4985 27.2464 22.5572 27.5458 22.3804 27.8447C21.9083 28.6822 21.5541 29.5198 21.318 30.4169C21.2593 30.7157 20.9638 30.955 20.6684 30.955H19.2519C18.5436 31.0151 18.0121 31.4938 17.9534 32.1516C17.8946 32.6903 17.8353 33.2284 17.8353 33.8267C17.8353 34.3648 17.894 34.963 17.9534 35.5018C18.0714 36.2197 18.6029 36.6983 19.2519 36.6983H20.6684C20.9638 36.6983 21.2593 36.9376 21.318 37.2364C21.6128 38.1342 21.9676 39.0312 22.3804 39.8087C22.5578 40.048 22.4985 40.4069 22.2624 40.6462L21.2592 41.6636C20.8458 42.1422 20.7871 42.86 21.2 43.3981C21.9082 44.2952 22.6751 45.0734 23.5607 45.7913C24.0916 46.2104 24.7999 46.2103 25.272 45.7317L26.2752 44.7144C26.5113 44.475 26.806 44.4149 27.1014 44.5947C27.9277 45.0733 28.7542 45.4322 29.6392 45.6715C29.934 45.7317 30.1705 46.0306 30.1705 46.3294V47.7652C30.2292 48.4831 30.7015 49.0218 31.351 49.0813C31.8819 49.1408 32.4134 49.2011 33.0036 49.2011C33.5351 49.2011 34.1253 49.1408 34.6562 49.0813C35.3644 48.9617 35.8366 48.423 35.8366 47.7652V46.3294C35.8366 46.0306 36.0728 45.7311 36.3682 45.6715C37.2538 45.3727 38.1389 45.0132 38.9065 44.5947C39.1425 44.4156 39.4965 44.475 39.7326 44.7144L40.7358 45.7317C41.208 46.1502 41.9163 46.2104 42.4472 45.7913C43.3328 45.0734 44.0996 44.2958 44.8079 43.3981C45.2207 42.8594 45.2207 42.1416 44.7491 41.6636L43.7457 40.6462C43.5096 40.4069 43.4507 40.1081 43.6274 39.8087C44.0996 38.9711 44.4538 38.1335 44.6899 37.2364C44.7486 36.9376 45.0441 36.6983 45.3395 36.6983H46.756C47.4643 36.6388 47.9958 36.1602 48.0545 35.5018C48.1132 34.9636 48.1725 34.4249 48.1725 33.8267C48.1725 33.2879 48.1138 32.6903 48.0545 32.1516C47.9365 31.4337 47.4049 30.955 46.756 30.955H45.3395C45.0441 30.955 44.7492 30.7157 44.6899 30.4169C44.3951 29.5198 44.0409 28.6221 43.6274 27.8447C43.45 27.6054 43.5096 27.2464 43.7457 27.0071L44.7491 25.9904C45.162 25.5117 45.2214 24.7938 44.8079 24.2557C44.0996 23.3586 43.3328 22.5806 42.4472 21.8627C41.9163 21.4436 41.208 21.4436 40.7358 21.9222L39.7326 22.9389C39.4965 23.1782 39.2019 23.2377 38.9065 23.0585C38.0801 22.5799 37.2538 22.221 36.3682 21.9817C36.0734 21.9222 35.8366 21.6228 35.8366 21.3239V19.8881C35.7779 19.1702 35.3057 18.632 34.6562 18.5719C34.1247 18.5118 33.5938 18.4523 33.0036 18.4523ZM33.0036 25.8105C37.3712 25.8105 40.9126 29.4001 40.9126 33.8273C40.9126 38.2544 37.3712 41.844 33.0036 41.844C28.636 41.844 25.0948 38.2544 25.0948 33.8273C25.0948 29.4001 28.636 25.8105 33.0036 25.8105Z" fill="#CC1A25"/>
<path d="M33.0034 28.4956C35.9086 28.4956 38.2633 30.8825 38.2633 33.8273C38.2633 36.7714 35.9086 39.1589 33.0034 39.1589C30.0982 39.1589 27.7434 36.7721 27.7434 33.8273C27.7434 30.8825 30.0982 28.4956 33.0034 28.4956Z" fill="#CC1A25"/>
<path d="M82.0668 59.4321C86.3086 59.4321 89.7464 62.9147 89.7464 67.2123C89.7464 71.5139 86.3086 74.9966 82.0668 74.9966C77.8271 74.9966 74.3893 71.5139 74.3893 67.2123C74.3893 62.9127 77.8271 59.4321 82.0668 59.4321Z" fill="#5F5F5F"/>
<path d="M17.8885 59.4321C22.1283 59.4321 25.5621 62.9147 25.5621 67.2123C25.5621 71.5139 22.1263 74.9966 17.8885 74.9966C13.6448 74.9966 10.209 71.5139 10.209 67.2123C10.209 62.9127 13.6448 59.4321 17.8885 59.4321Z" fill="#5F5F5F"/>
<path d="M1.51332 7.72549C0.677366 7.72549 -0.00256348 8.41271 -0.00256348 9.26006V55.0736V55.5419V62.5416C-0.00256348 63.389 0.675366 64.0782 1.51332 64.0782H6.83304C7.44301 64.0782 7.99297 63.7073 8.22896 63.1356C9.80487 59.3043 13.5207 56.6082 17.8884 56.6082C22.2502 56.6082 25.964 59.3043 27.5419 63.1356C27.7779 63.7052 28.3279 64.0782 28.9378 64.0782H71.0175C71.6274 64.0782 72.1774 63.7073 72.4154 63.1356C73.9913 59.3043 77.7031 56.6082 82.0688 56.6082C86.2266 56.6082 89.9164 59.5009 91.5843 63.1822C91.8323 63.7275 92.3703 64.0762 92.9622 64.0762H98.4779C99.3139 64.0762 99.9939 63.389 99.9939 62.5396V37.999C99.9939 37.7314 99.9239 37.4678 99.7919 37.2367L88.6185 17.4214C88.3485 16.943 87.8486 16.649 87.3046 16.647H66.1177V9.256C66.1177 8.40865 65.4398 7.72144 64.6019 7.72144L1.51332 7.72549ZM33.0096 14.63C43.471 14.63 51.9486 23.2231 51.9486 33.8271C51.9486 44.4311 43.471 53.0303 33.0096 53.0303C22.5481 53.0303 14.0646 44.4311 14.0646 33.8271C14.0646 23.2231 22.5481 14.63 33.0096 14.63ZM68.7256 20.4134H85.1367C85.6787 20.4134 86.1786 20.7054 86.4506 21.1817L94.9141 36.1015C95.3281 36.8374 95.0762 37.776 94.3502 38.1976C94.1222 38.3294 93.8642 38.3983 93.6002 38.4003H68.7256C67.8896 38.4003 67.2097 37.7131 67.2097 36.8658V21.952C67.2097 21.1006 67.8876 20.4114 68.7256 20.4134Z" fill="#5F5F5F"/>
<path d="M76.7245 10.3894C74.3306 10.3894 72.3607 12.2481 72.1567 14.6219C75.1986 14.6462 78.2444 14.6404 81.2883 14.6282C81.0843 12.2524 79.1183 10.3894 76.7245 10.3894Z" fill="#CC1A25"/>
<path d="M76.1884 7.65472C75.7384 5.59311 75.5626 3.4786 75.4126 1.37847C75.3566 0.646671 75.9926 -0.0301591 76.6946 0.000248192C77.3945 -0.0382676 78.0406 0.628411 77.9926 1.36224C77.8686 3.46439 77.7166 5.58069 77.2926 7.64838C77.2206 8.01327 77.1325 8.91763 76.7485 8.92169C76.3645 8.92169 76.2644 8.0196 76.1884 7.65472Z" fill="#CC1A25"/>
<path d="M72.2365 9.05784C70.8006 7.52734 69.5707 5.81238 68.3687 4.09133C67.9468 3.49332 68.1489 2.58093 68.7629 2.24036C69.3428 1.84102 70.2346 2.07224 70.5686 2.72498C71.5346 4.58996 72.4847 6.48121 73.1767 8.47187C73.3027 8.82257 73.6867 9.64139 73.3587 9.84613C73.0307 10.0509 72.4865 9.33151 72.2365 9.05784Z" fill="#CC1A25"/>
<path d="M81.2763 9.00042C82.6943 7.45168 83.9021 5.72079 85.082 3.98758C85.496 3.38551 85.284 2.47506 84.664 2.14058C84.0801 1.74731 83.1901 1.99057 82.8641 2.64736C81.9202 4.5245 80.9944 6.42592 80.3264 8.42672C80.2044 8.77944 79.8304 9.6047 80.1604 9.80336C80.4924 10.004 81.0283 9.27611 81.2763 9.00042Z" fill="#CC1A25"/>
</g>

</symbol><symbol id="flip-phone" viewBox="0 0 107 78">
<path d="M75.4488 66.9583C83.6905 72.6207 65.1909 70.2496 75.4488 66.9583C93.1348 61.3313 102.897 42.4329 97.2733 24.7378C91.6491 7.0427 72.7605 -2.725 55.0746 2.90205C43.7556 6.51185 38.2729 20.1725 31.7291 31.0726" stroke="black" stroke-width="0.75" stroke-miterlimit="10" stroke-linecap="round" stroke-linejoin="round"/>
<path d="M31.6583 11.1123C31.6583 11.1123 31.6583 31.1432 31.6937 31.1078C31.6583 31.1432 49.7687 22.6141 49.7687 22.6141" stroke="black" stroke-width="0.75" stroke-miterlimit="10" stroke-linecap="round" stroke-linejoin="round"/>
<path d="M105.691 16.7045C105.691 14.6519 104.029 12.9531 101.942 12.9531H74.0685C72.0169 12.9531 70.3191 14.6165 70.3191 16.7045V72.9041C70.3191 74.9568 71.9816 76.6555 74.0685 76.6555H101.942C103.993 76.6555 105.691 74.9921 105.691 72.9041V16.7045Z" fill="white" stroke="black" stroke-width="0.75" stroke-miterlimit="10" stroke-linecap="round" stroke-linejoin="round"/>
<path d="M72.0876 69.5771H103.922" stroke="black" stroke-width="0.75" stroke-miterlimit="10" stroke-linecap="round" stroke-linejoin="round"/>
<path d="M72.0876 20.0312H103.922" stroke="black" stroke-width="0.75" stroke-miterlimit="10" stroke-linecap="round" stroke-linejoin="round"/>
<path d="M5.0585 41.2656C3.00693 41.2656 1.30908 42.929 1.30908 45.017V72.9045C1.30908 74.9571 2.97156 76.6558 5.0585 76.6558H61.2291C63.2807 76.6558 64.9785 74.9925 64.9785 72.9045V45.017C64.9785 42.9644 63.316 41.2656 61.2291 41.2656H5.0585Z" fill="white" stroke="black" stroke-width="0.75" stroke-miterlimit="10" stroke-linecap="round" stroke-linejoin="round"/>
<path d="M8.41821 74.8863V43.0352" stroke="black" stroke-width="0.75" stroke-miterlimit="10" stroke-linecap="round" stroke-linejoin="round"/>
<path d="M58.9648 74.8863V43.0352" stroke="black" stroke-width="0.75" stroke-miterlimit="10" stroke-linecap="round" stroke-linejoin="round"/>
</symbol><symbol id="guarantee" viewBox="0 0 94 94">
<path d="M15.2612 26.1708C15.0109 26.2784 14.7681 26.4171 14.5402 26.5955C12.2764 28.3563 10.3275 30.2779 8.54343 32.4989C7.48051 33.8202 7.48796 35.5943 8.68881 36.7756L11.242 39.2827C11.8416 39.8681 11.978 40.5996 11.5373 41.3473C10.3259 43.4001 9.40243 45.4677 8.83873 47.6887C8.65283 48.4201 7.94376 49.0159 7.19416 49.0159C5.99332 49.0159 5.07427 48.895 3.59158 49.0159C1.79555 49.1619 0.458278 50.3402 0.293368 51.9654C0.161439 53.2927 -0.00646973 54.6214 -0.00646973 56.0947C-0.00646973 57.4219 0.101472 58.9011 0.293368 60.2239C0.554226 62.001 1.94547 63.1734 3.59158 63.1734H7.19416C7.94376 63.1734 8.61985 63.7795 8.83873 64.5006C9.51786 66.7319 10.4159 68.9662 11.5373 70.842C11.9196 71.4791 11.8431 72.3168 11.242 72.9066C10.3919 73.7428 9.64529 74.343 8.68881 75.4137C7.63638 76.595 7.48051 78.3691 8.54343 79.686C10.3275 81.907 12.2764 83.833 14.5402 85.5894C15.879 86.635 17.6824 86.6232 18.8833 85.4419L21.4319 82.9349C22.0316 82.345 22.7707 82.2063 23.5308 82.6399C25.6236 83.8315 27.7195 84.7399 29.9773 85.2944C30.7209 85.4773 31.3265 86.1793 31.3265 86.9166C31.3265 88.0979 31.2036 88.9975 31.3265 90.456C31.4809 92.2227 32.6788 93.5382 34.3249 93.7004C35.6742 93.8317 37.0249 93.9954 38.5226 93.9954C39.8719 93.9954 41.3771 93.8892 42.7203 93.7004C44.5269 93.4438 45.7187 92.0767 45.7187 90.456V86.9166C45.7187 86.1793 46.3349 85.5083 47.068 85.2944C49.3363 84.6249 51.6075 83.743 53.5145 82.6399C54.1621 82.2638 55.0182 82.345 55.6134 82.9349C56.4634 83.771 57.0736 84.501 58.162 85.4419C59.3628 86.4757 61.1709 86.635 62.5141 85.5894C64.7719 83.833 66.7209 81.907 68.5109 79.686C69.5678 78.3691 69.5573 76.595 68.3564 75.4137L65.8124 72.9066C65.2127 72.3168 65.0732 71.5897 65.508 70.842C66.7193 68.7833 67.6428 66.7216 68.2065 64.5006C68.3924 63.7692 69.1061 63.1734 69.8602 63.1734C71.055 63.1734 71.971 63.2943 73.4537 63.1734C75.2542 63.0215 76.587 61.8432 76.7519 60.2239C76.8853 58.8967 77.0517 57.5679 77.0517 56.0947C77.0517 54.7674 76.9438 53.2868 76.7519 51.9654C76.491 50.1883 75.0998 49.0159 73.4537 49.0159H69.8602C69.1061 49.0159 68.4239 48.4098 68.2065 47.6887C67.5379 45.4957 66.6593 43.2998 65.5649 41.4446C62.8544 44.1021 60.1439 46.7581 57.4364 49.417C58.198 51.5038 58.6117 53.7513 58.6117 56.0947C58.6117 67.0062 49.6196 75.8561 38.5226 75.8561C27.4316 75.8561 18.4335 67.0062 18.4335 56.0947C18.4335 48.8286 22.4184 42.4814 28.3567 39.0482C24.0121 34.7744 19.9117 30.7454 15.2612 26.1708Z" fill="#5F5F5F"/>
<path d="M17.9523 22.3925C17.0003 23.329 17.0003 24.8376 17.9523 25.7741C28.4421 36.0928 37.782 45.2804 47.3858 54.7276C47.8626 55.1966 48.6286 55.1966 49.1053 54.7276C63.4646 40.6026 78.365 25.9452 93.2819 11.2715C94.2338 10.3351 94.2338 8.82641 93.2819 7.88996L85.9764 0.703564C85.0244 -0.232894 83.4907 -0.232894 82.5387 0.703564L48.2448 34.4367L28.6955 15.2061C27.7435 14.2697 26.2097 14.2697 25.2577 15.2061L17.9523 22.3925Z" fill="#CC1A25"/>
</symbol><symbol id="instagram" viewBox="0 0 30.99 29.65"><path class="cls-1" d="M28.73,24.17a2.91,2.91,0,0,1-3,2.84h-19a2.91,2.91,0,0,1-3-2.84V12H8.41a6,6,0,0,0-.3.84,7.67,7.67,0,0,0-.33,2.21,8.31,8.31,0,0,0,8.48,8.11,8.31,8.31,0,0,0,8.47-8.11,7.67,7.67,0,0,0-.33-2.21q-.13-.43-.3-.84h4.63V24.17ZM11.84,12a5.57,5.57,0,0,1,8.84,0,4.32,4.32,0,0,1,.33.5,4.94,4.94,0,0,1,.71,2.55,5.35,5.35,0,0,1-5.45,5.22,5.35,5.35,0,0,1-5.46-5.22,5.05,5.05,0,0,1,.7-2.55A4.32,4.32,0,0,1,11.84,12ZM27.48,3.67h.68v5H22.93v-5ZM25.76.25h-19A5.87,5.87,0,0,0,.76,6V24.17a5.87,5.87,0,0,0,6,5.73h19a5.87,5.87,0,0,0,6-5.73V6A5.87,5.87,0,0,0,25.76.25Z" transform="translate(-0.76 -0.25)"/></symbol><symbol id="mail" viewBox="0 0 26 17">
<path d="M25.5127 0.506592H0.5V16.5066H25.5127V0.506592Z" stroke="black" stroke-width="0.75" stroke-miterlimit="10" stroke-linecap="round" stroke-linejoin="round"/>
<path d="M0.5 0.506592L13.0063 8.50659L25.5127 0.506592" stroke="black" stroke-width="0.75" stroke-miterlimit="10" stroke-linecap="round" stroke-linejoin="round"/>
</symbol><symbol id="money" viewBox="0 0 100 100">
<g clip-path="url(#clip0)">
<path d="M84.9675 33.4165C84.9665 33.4165 84.9652 33.4165 84.9642 33.4165H1.43175C0.641948 33.4157 0.000836142 34.0551 8.17479e-07 34.8449C8.17479e-07 34.846 8.17479e-07 34.8472 8.17479e-07 34.8483V74.9438C-0.000834507 75.7336 0.638606 76.3747 1.42841 76.3756C1.42945 76.3756 1.4307 76.3756 1.43175 76.3756H58.2338C59.0244 76.3756 59.6655 75.7344 59.6655 74.9438C59.6655 74.1532 59.0244 73.5121 58.2338 73.5121H2.86349V36.28H83.5324V39.8602C83.5316 40.65 84.171 41.2911 84.9608 41.2919C84.9619 41.2919 84.9631 41.2919 84.9642 41.2919C85.754 41.2928 86.3951 40.6533 86.3959 39.8635C86.3959 39.8625 86.3959 39.8612 86.3959 39.8602V34.8483C86.3968 34.0585 85.7573 33.4175 84.9675 33.4165Z" fill="#5F5F5F"/>
<path d="M75.2544 26.7691L8.42847 11.7333C8.05759 11.6503 7.66895 11.7176 7.34756 11.9204C7.02659 12.1248 6.79959 12.4479 6.71606 12.8192L3.37476 27.855C3.2031 28.6273 3.6901 29.3924 4.46235 29.5641C5.23461 29.7357 5.99977 29.2487 6.17143 28.4765L9.20031 14.8423L74.6262 29.5624C74.7298 29.5864 74.8357 29.5983 74.942 29.5975C75.7326 29.596 76.3725 28.9539 76.3712 28.1632C76.37 27.4948 75.9064 26.9163 75.2544 26.7691Z" fill="#5F5F5F"/>
<path d="M67.1399 18.4842L27.0443 1.77775C26.3475 1.48726 25.5445 1.78568 25.2066 2.46104L21.8653 9.14364C21.488 9.84155 21.7477 10.7134 22.4459 11.0908C23.1438 11.4681 24.0157 11.2083 24.393 10.5102C24.4078 10.4829 24.4218 10.4549 24.4348 10.4265V10.4298L27.1763 4.94342L66.0339 21.1337C66.7657 21.439 67.6064 21.0936 67.9117 20.3618C68.217 19.6305 67.8716 18.7898 67.1399 18.4842Z" fill="#5F5F5F"/>
<path d="M68.1524 40.0991H54.8924C54.1018 40.0991 53.4607 40.7402 53.4607 41.5309C53.4607 42.3215 54.1018 42.9626 54.8924 42.9626H68.1524C68.943 42.9626 69.5841 42.3215 69.5841 41.5309C69.5841 40.7402 68.943 40.0991 68.1524 40.0991Z" fill="#5F5F5F"/>
<path d="M41.5271 40.1943C33.4076 40.1943 26.8254 46.7765 26.8254 54.896C26.8338 63.012 33.4111 69.5894 41.5271 69.5977C49.6467 69.5977 56.2289 63.0156 56.2289 54.896C56.2289 46.7765 49.6467 40.1943 41.5271 40.1943ZM41.5271 66.9247C34.8838 66.9247 29.4985 61.5394 29.4985 54.896C29.5058 48.2558 34.8869 42.8747 41.5271 42.8674C48.1705 42.8674 53.5558 48.2527 53.5558 54.896C53.5558 61.5394 48.1705 66.9247 41.5271 66.9247Z" fill="#5F5F5F"/>
<path d="M81.623 44.8721C72.7685 44.8721 63.2458 46.9637 63.2458 51.5547V91.6502C63.2458 96.2411 72.7685 98.3328 81.623 98.3328C90.4774 98.3328 100 96.2411 100 91.6502V51.5547C100 46.9637 90.4774 44.8721 81.623 44.8721ZM96.6588 91.6252C96.4065 92.5524 91.3963 94.9915 81.623 94.9915C71.8497 94.9915 66.8394 92.5524 66.5871 91.6502V89.024C70.1423 90.8149 76.0146 91.6502 81.623 91.6502C87.2313 91.6502 93.1053 90.8065 96.6588 89.0223V91.6252ZM96.6588 84.9426C96.4065 85.8698 91.3963 88.3089 81.623 88.3089C71.8497 88.3089 66.8394 85.8698 66.5871 84.9676V82.3414C70.1423 84.1323 76.0146 84.9676 81.623 84.9676C87.2313 84.9676 93.1053 84.1239 96.6588 82.3397V84.9426ZM96.6588 78.26C96.4065 79.1872 91.3963 81.6263 81.623 81.6263C71.8497 81.6263 66.8394 79.1872 66.5871 78.285V75.6588C70.1423 77.4497 76.0146 78.285 81.623 78.285C87.2313 78.285 93.1053 77.4414 96.6588 75.6571V78.26ZM96.6588 71.5774C96.4065 72.5046 91.3963 74.9437 81.623 74.9437C71.8497 74.9437 66.8394 72.5046 66.5871 71.6024V68.9762C70.1423 70.7671 76.0146 71.6024 81.623 71.6024C87.2313 71.6024 93.1053 70.7588 96.6588 68.9745V71.5774ZM96.6588 64.8948C96.4065 65.822 91.3963 68.2611 81.623 68.2611C71.8497 68.2611 66.8394 65.822 66.5871 64.9198V62.2936C70.1423 64.0762 76.0146 64.9198 81.623 64.9198C87.2313 64.9198 93.1053 64.0762 96.6588 62.2919V64.8948ZM96.6588 58.2122C96.4065 59.1394 91.3963 61.5785 81.623 61.5785C71.8497 61.5785 66.8394 59.1394 66.5871 58.2373V55.611C70.1423 57.3936 76.0146 58.2373 81.623 58.2373C87.2313 58.2373 93.1053 57.3936 96.6588 55.6093V58.2122ZM81.623 54.896C71.8647 54.896 66.8561 52.4635 66.5871 51.5847V51.5747C66.8561 50.6442 71.8647 48.2134 81.623 48.2134C91.3127 48.2134 96.3247 50.6091 96.6588 51.5547C96.3247 52.5002 91.3127 54.896 81.623 54.896Z" fill="#CC1A25"/>
<path d="M28.1621 66.8278H15.5337L9.54607 60.2789V49.4197L16.1585 42.9626H28.1621C28.9527 42.9626 29.5939 42.3215 29.5939 41.5309C29.5939 40.7402 28.9527 40.0991 28.1621 40.0991H15.5771C15.2029 40.0983 14.8431 40.2441 14.5747 40.5051L7.11194 47.7841C6.83315 48.1099 6.68028 48.5248 6.68091 48.9536V60.8352C6.68091 61.1925 6.81435 61.5369 7.05514 61.8008L13.843 69.2252C14.1143 69.5222 14.4981 69.6915 14.9005 69.6913H28.1621C28.9527 69.6913 29.5939 69.0502 29.5939 68.2596C29.5939 67.4689 28.953 66.8278 28.1621 66.8278Z" fill="#5F5F5F"/>
<path d="M42.3627 53.2253H40.692C40.1724 53.2253 39.8567 52.9346 39.8567 52.8077C39.8567 52.6807 40.1724 52.39 40.692 52.39H44.8686C45.7912 52.39 46.5393 51.642 46.5393 50.7193C46.5393 49.7967 45.7912 49.0487 44.8686 49.0487H43.198C43.198 48.1261 42.4499 47.3781 41.5273 47.3781C40.6047 47.3781 39.8567 48.1261 39.8567 49.0487V49.1239C38.0037 49.3855 36.6 50.9298 36.5154 52.7993C36.635 54.9897 38.5007 56.6727 40.692 56.5666H42.3627C42.8822 56.5666 43.198 56.8573 43.198 56.9843C43.198 57.1112 42.8822 57.4019 42.3627 57.4019H38.186C37.2634 57.4019 36.5154 58.15 36.5154 59.0726C36.5154 59.9952 37.2634 60.7432 38.186 60.7432H39.8567C39.8567 61.6658 40.6047 62.4139 41.5273 62.4139C42.4499 62.4139 43.198 61.6658 43.198 60.7432V60.668C45.0509 60.4064 46.4547 58.8621 46.5393 56.9926C46.4196 54.8022 44.5539 53.1192 42.3627 53.2253Z" fill="#5F5F5F"/>
</g>

</symbol><symbol id="payment" viewBox="0 0 100 100">
<path d="M98.0766 83.3734L90.2641 73.9984C89.7406 73.3734 88.8234 73.25 88.1547 73.7281L86.4969 74.9125L84.375 72.7906V50C84.375 47.4156 82.2719 45.3125 79.6875 45.3125H78.125V34.375C78.125 31.7906 76.0219 29.6875 73.4375 29.6875H51.5625C48.9781 29.6875 46.875 31.7906 46.875 34.375V45.3125H45.3125C42.7281 45.3125 40.625 47.4156 40.625 50C40.625 51.2047 41.0953 52.2938 41.8438 53.125C41.0938 53.9562 40.625 55.0453 40.625 56.25C40.625 57.4547 41.0953 58.5438 41.8438 59.375C41.0938 60.2062 40.625 61.2953 40.625 62.5C40.625 63.7047 41.0953 64.7938 41.8438 65.625C41.0938 66.4562 40.625 67.5453 40.625 68.75C40.625 71.3344 42.7281 73.4375 45.3125 73.4375H46.875V75C46.875 77.5844 48.9781 79.6875 51.5625 79.6875H55.6031L59.8328 83.9172C60.125 84.2109 60.5219 84.375 60.9375 84.375H66.3516L68.5766 87.7125L66.2797 89.3531C65.9359 89.5969 65.7078 89.9703 65.6438 90.3844C65.5797 90.8016 65.6844 91.225 65.9375 91.5609L70.625 97.8109C70.9188 98.2047 71.3828 98.4359 71.875 98.4359H96.875C97.7391 98.4359 98.4375 97.7375 98.4375 96.8734V84.3734C98.4375 84.0094 98.3094 83.6547 98.0766 83.3734ZM45.3125 48.4375H51.5625C52.425 48.4375 53.125 49.1375 53.125 50C53.125 50.8625 52.425 51.5625 51.5625 51.5625H45.3125C44.45 51.5625 43.75 50.8625 43.75 50C43.75 49.1375 44.45 48.4375 45.3125 48.4375ZM43.75 62.5C43.75 61.6375 44.45 60.9375 45.3125 60.9375H51.5625C52.425 60.9375 53.125 61.6375 53.125 62.5C53.125 63.3625 52.425 64.0625 51.5625 64.0625H45.3125C44.45 64.0625 43.75 63.3625 43.75 62.5ZM43.75 56.25C43.75 55.3875 44.45 54.6875 45.3125 54.6875H51.5625C52.425 54.6875 53.125 55.3875 53.125 56.25C53.125 57.1125 52.425 57.8125 51.5625 57.8125H45.3125C44.45 57.8125 43.75 57.1125 43.75 56.25ZM43.75 68.75C43.75 67.8875 44.45 67.1875 45.3125 67.1875H51.5625C52.425 67.1875 53.125 67.8875 53.125 68.75C53.125 69.6125 52.425 70.3125 51.5625 70.3125H45.3125C44.45 70.3125 43.75 69.6125 43.75 68.75ZM50 75V73.4375H51.5625C54.1469 73.4375 56.25 71.3344 56.25 68.75C56.25 67.5453 55.7797 66.4562 55.0313 65.625C55.7813 64.7938 56.25 63.7047 56.25 62.5C56.25 61.2953 55.7797 60.2062 55.0313 59.375C55.7813 58.5438 56.25 57.4547 56.25 56.25C56.25 55.0453 55.7797 53.9562 55.0313 53.125C55.7813 52.2938 56.25 51.2047 56.25 50C56.25 47.4156 54.1469 45.3125 51.5625 45.3125H50V34.375C50 33.5125 50.7 32.8125 51.5625 32.8125H53.125V43.75H56.25V32.8125H73.4375C74.3 32.8125 75 33.5125 75 34.375V45.3125H70.3125C67.7281 45.3125 65.625 47.4156 65.625 50C65.625 52.5844 67.7281 54.6875 70.3125 54.6875H75V75C75 75.8625 74.3 76.5625 73.4375 76.5625H56.25V73.4375H53.125V76.5625H51.5625C50.7 76.5625 50 75.8625 50 75ZM68.4875 81.9453C68.1969 81.5109 67.7094 81.25 67.1875 81.25H61.5844L60.0219 79.6875H73.4375C76.0219 79.6875 78.125 77.5844 78.125 75V53.125C78.125 52.2609 77.4266 51.5625 76.5625 51.5625H70.3125C69.45 51.5625 68.75 50.8625 68.75 50C68.75 49.1375 69.45 48.4375 70.3125 48.4375H79.6875C80.55 48.4375 81.25 49.1375 81.25 50V73.4375C81.25 73.8531 81.4141 74.25 81.7078 74.5422L83.9203 76.7547L71.1219 85.8969L68.4875 81.9453ZM95.3125 95.3125H72.6562L69.3969 90.9672L88.7906 77.1156L95.3125 84.9406V95.3125Z" fill="#CC1A25"/>
<path d="M42.1875 42.1875V6.25C42.1875 3.66562 40.0844 1.5625 37.5 1.5625H6.25C3.66562 1.5625 1.5625 3.66562 1.5625 6.25V56.25C1.5625 58.8344 3.66562 60.9375 6.25 60.9375H37.5V57.8125H35.9375V53.125C35.9375 52.2609 35.2391 51.5625 34.375 51.5625H9.375C8.51094 51.5625 7.8125 52.2609 7.8125 53.125V57.8125H6.25C5.3875 57.8125 4.6875 57.1125 4.6875 56.25V6.25C4.6875 5.3875 5.3875 4.6875 6.25 4.6875H37.5C38.3625 4.6875 39.0625 5.3875 39.0625 6.25V42.1875H42.1875ZM10.9375 54.6875H32.8125V57.8125H10.9375V54.6875Z" fill="#5F5F5F"/>
<path d="M35.9375 6.25H7.8125C6.94844 6.25 6.25 6.94844 6.25 7.8125V17.1875C6.25 18.0516 6.94844 18.75 7.8125 18.75H35.9375C36.8016 18.75 37.5 18.0516 37.5 17.1875V7.8125C37.5 6.94844 36.8016 6.25 35.9375 6.25ZM34.375 15.625H9.375V9.375H34.375V15.625Z" fill="#5F5F5F"/>
<path d="M7.8125 28.125H10.9375V31.25H7.8125V28.125Z" fill="#5F5F5F"/>
<path d="M14.0625 28.125H17.1875V31.25H14.0625V28.125Z" fill="#5F5F5F"/>
<path d="M20.3125 28.125H23.4375V31.25H20.3125V28.125Z" fill="#5F5F5F"/>
<path d="M26.5625 28.125H29.6875V31.25H26.5625V28.125Z" fill="#5F5F5F"/>
<path d="M32.8125 28.125H35.9375V31.25H32.8125V28.125Z" fill="#5F5F5F"/>
<path d="M7.8125 34.375H10.9375V37.5H7.8125V34.375Z" fill="#5F5F5F"/>
<path d="M14.0625 34.375H17.1875V37.5H14.0625V34.375Z" fill="#5F5F5F"/>
<path d="M20.3125 34.375H23.4375V37.5H20.3125V34.375Z" fill="#5F5F5F"/>
<path d="M26.5625 34.375H29.6875V37.5H26.5625V34.375Z" fill="#5F5F5F"/>
<path d="M32.8125 34.375H35.9375V37.5H32.8125V34.375Z" fill="#5F5F5F"/>
<path d="M7.8125 40.625H10.9375V43.75H7.8125V40.625Z" fill="#5F5F5F"/>
<path d="M14.0625 40.625H17.1875V43.75H14.0625V40.625Z" fill="#5F5F5F"/>
<path d="M20.3125 40.625H23.4375V43.75H20.3125V40.625Z" fill="#5F5F5F"/>
<path d="M26.5625 40.625H29.6875V43.75H26.5625V40.625Z" fill="#5F5F5F"/>
<path d="M32.8125 40.625H35.9375V43.75H32.8125V40.625Z" fill="#5F5F5F"/>
<path d="M7.8125 46.875H10.9375V50H7.8125V46.875Z" fill="#5F5F5F"/>
<path d="M14.0625 46.875H17.1875V50H14.0625V46.875Z" fill="#5F5F5F"/>
<path d="M20.3125 46.875H23.4375V50H20.3125V46.875Z" fill="#5F5F5F"/>
<path d="M26.5625 46.875H29.6875V50H26.5625V46.875Z" fill="#5F5F5F"/>
<path d="M32.8125 46.875H35.9375V50H32.8125V46.875Z" fill="#5F5F5F"/>
<path d="M67.1875 75C70.6344 75 73.4375 72.1969 73.4375 68.75C73.4375 67.9203 73.2672 67.1313 72.9734 66.4062C73.2672 65.6813 73.4375 64.8922 73.4375 64.0625C73.4375 60.6156 70.6344 57.8125 67.1875 57.8125C63.7406 57.8125 60.9375 60.6156 60.9375 64.0625C60.9375 64.8922 61.1078 65.6813 61.4016 66.4062C61.1078 67.1313 60.9375 67.9203 60.9375 68.75C60.9375 72.1969 63.7406 75 67.1875 75ZM67.1875 71.875C65.7234 71.875 64.5016 70.8594 64.1625 69.4984C65.0641 70.0016 66.0844 70.3125 67.1875 70.3125C68.2906 70.3125 69.3109 70.0016 70.2125 69.4984C69.8734 70.8594 68.6516 71.875 67.1875 71.875ZM65.1422 66.4062C65.6922 65.9266 66.4016 65.625 67.1875 65.625C67.9734 65.625 68.6828 65.9266 69.2328 66.4062C68.6828 66.8859 67.9734 67.1875 67.1875 67.1875C66.4016 67.1875 65.6922 66.8859 65.1422 66.4062ZM67.1875 60.9375C68.6516 60.9375 69.8734 61.9531 70.2125 63.3141C69.3109 62.8109 68.2906 62.5 67.1875 62.5C66.0844 62.5 65.0641 62.8109 64.1625 63.3141C64.5016 61.9531 65.7234 60.9375 67.1875 60.9375Z" fill="#5F5F5F"/>
<path d="M7.8125 21.875H35.9375V25H7.8125V21.875Z" fill="#5F5F5F"/>
<path d="M68.75 40.625H71.875V43.75H68.75V40.625Z" fill="#5F5F5F"/>
<path d="M68.75 34.375H71.875V37.5H68.75V34.375Z" fill="#5F5F5F"/>
</symbol><symbol id="post" viewBox="0 0 60 60">
<path d="M53.75 36.25V53.75C53.75 55.821 52.0711 57.5 50 57.5H9.99996C7.92891 57.5 6.24996 55.821 6.24996 53.75V36.25H3.75V53.75C3.7541 57.2001 6.54996 59.9958 9.99996 59.9999H49.9999C53.45 59.9958 56.2458 57.2 56.2499 53.75V36.25H53.75Z" fill="#5F5F5F"/>
<path d="M52.5 10H40C39.3096 10 38.7499 10.5597 38.7499 11.25V15C38.754 19.1405 42.1095 22.4959 46.2499 22.5C50.3904 22.4959 53.7458 19.1405 53.7499 15V11.25C53.75 10.5597 53.1904 10 52.5 10ZM51.25 15C51.25 17.7614 49.0113 20.0001 46.2499 20.0001C43.4885 20.0001 41.25 17.7614 41.25 15V12.5001H51.25V15Z" fill="#CC1A25"/>
<path d="M25 17.5H9.99996C7.92891 17.5 6.24996 19.1789 6.24996 21.25V35H0V36.25C0 36.9404 0.559687 37.5001 1.25004 37.5001H7.5C8.19035 37.5001 8.75004 36.9404 8.75004 36.25V21.25C8.75004 20.5597 9.30973 20 10.0001 20H25.0001C25.6904 20 26.2501 20.5597 26.2501 21.25V33.7501C26.2501 34.4404 25.6904 35.0001 25.0001 35.0001H11.25V37.5001H25C27.071 37.5001 28.75 35.8211 28.75 33.7501V21.25C28.75 19.1789 27.071 17.5 25 17.5Z" fill="#5F5F5F"/>
<path d="M25 0H9.99995C7.9289 0 6.24995 1.67895 6.24995 3.75V16.25C6.24995 18.3211 7.9289 20 9.99995 20H25C27.071 20 28.75 18.3211 28.75 16.25V3.75C28.75 1.67895 27.071 0 25 0ZM26.25 16.25C26.25 16.9404 25.6903 17.5001 25 17.5001H9.99995C9.3096 17.5001 8.74992 16.9404 8.74992 16.25V3.75C8.74992 3.05965 9.3096 2.49996 9.99995 2.49996H25C25.6903 2.49996 26.25 3.05965 26.25 3.75V16.25Z" fill="#5F5F5F"/>
<path d="M16.25 1.25V6.25004H13.7501V1.25H11.25V7.49996C11.25 8.19031 11.8097 8.75 12.5 8.75H17.5001C18.1903 8.75 18.75 8.19031 18.75 7.49996V1.25H16.25Z" fill="#5F5F5F"/>
<path d="M16.25 18.75V23.75H13.7501V18.75H11.25V25C11.25 25.6903 11.8097 26.25 12.5 26.25H17.5001C18.1904 26.25 18.7501 25.6903 18.7501 25V18.75H16.25Z" fill="#5F5F5F"/>
<path d="M17.4999 46.25H9.99995V48.75H17.4999V46.25Z" fill="#5F5F5F"/>
<path d="M17.4999 51.25H9.99995V53.75H17.4999V51.25Z" fill="#5F5F5F"/>
<path d="M30 35V37.5H58.75C59.4403 37.5 60 36.9403 60 36.2499V34.9999H30V35Z" fill="#5F5F5F"/>
<path d="M46.25 1.25C42.1079 1.25 38.75 4.60789 38.75 8.75V10H35V11.25C35 11.9403 35.5597 12.5 36.2501 12.5H40.0001C40.6904 12.5 41.2501 11.9403 41.2501 11.25V8.75C41.25 5.98859 43.4886 3.74996 46.25 3.74996C49.0114 3.74996 51.2501 5.98859 51.2501 8.75V11.25H53.75V8.75C53.75 4.60777 50.3921 1.25 46.25 1.25Z" fill="#CC1A25"/>
<path d="M51.25 21.25H41.25C37.7999 21.2541 35.0041 24.05 35 27.5V36.25H37.5V27.5C37.5 25.4289 39.1789 23.75 41.25 23.75H51.25C53.321 23.75 55 25.4289 55 27.5V36.25H57.4999V27.5C57.4958 24.05 54.7001 21.2542 51.25 21.25Z" fill="#CC1A25"/>
<path d="M47.5 22.5H45V36.25H47.5V22.5Z" fill="#CC1A25"/>
<path d="M47.8663 21.6163L46.25 23.2326L44.6338 21.6163L42.8662 23.3839L45.3662 25.8838C45.6006 26.1182 45.9185 26.25 46.2499 26.25C46.5814 26.2499 46.8993 26.1182 47.1336 25.8838L49.6336 23.3839L47.8663 21.6163Z" fill="#CC1A25"/>
<path d="M41.25 31.25H38.75V36.25H41.25V31.25Z" fill="#CC1A25"/>
<path d="M53.7499 31.25H51.25V36.25H53.7499V31.25Z" fill="#CC1A25"/>
</symbol><symbol id="profile" viewBox="0 0 25.76 25.76"><path class="cls-1" d="M16.71,16.48a1.89,1.89,0,0,1-.79-3.22,9.35,9.35,0,0,0,2.56-6.51C18.48,2.87,16,.5,13,.5S7.53,2.87,7.53,6.75a9.32,9.32,0,0,0,2.54,6.49h0a1.9,1.9,0,0,1-.79,3.24C4.19,17.47.5,20.27.5,22.38.5,25,6.1,25.51,13,25.51s12.5-.54,12.5-3.13C25.51,20.27,21.8,17.46,16.71,16.48Z" transform="translate(-0.13 -0.13)"/></symbol><symbol id="repair-base" viewBox="0 0 81 98">
<g clip-path="url(#clip0)">
<path d="M19.0409 57.4712C18.5708 57.4654 18.1027 57.5477 17.6603 57.7104C14.4409 58.8629 11.5369 60.2643 9.02361 61.9186C2.11268 66.466 -1.34483 73.1969 0.480098 79.5338C2.30503 85.8707 8.34319 90.7317 17.1128 93.9834C34.65 100.489 58.148 99.0679 71.9699 89.9712C78.8808 85.4238 82.3382 78.693 80.5133 72.358C78.6864 66.0211 72.6502 61.166 63.8806 57.9143C61.9089 57.1773 59.7071 58.1612 58.9613 60.1076C58.2154 62.0559 59.2112 64.2315 61.1809 64.9685C61.1849 64.9705 61.1889 64.9724 61.1928 64.9724C68.6393 67.7342 72.3447 71.5661 73.1679 74.4219C73.9911 77.2778 73.0013 80.2355 67.7407 83.699C57.2176 90.6259 34.6897 92.4487 19.7967 86.9253C12.3502 84.1635 8.63873 80.3256 7.81552 77.4698C6.99232 74.614 7.98817 71.6563 13.2507 68.1929C15.153 66.9404 17.5214 65.78 20.2568 64.8019C22.2464 64.1159 23.2957 61.9657 22.6014 59.9997C22.0738 58.4983 20.6476 57.4869 19.0409 57.4712Z" fill="#5F5F5F"/>
<path d="M40.4996 0.00195312C25.4777 0.00195312 13.3003 12.031 13.3003 26.8727C13.3003 32.6705 15.1549 38.045 18.3148 42.4375C18.3188 42.4414 18.3228 42.4513 18.3268 42.4552C25.6185 53.71 37.8515 63.5299 39.3155 77.8835C39.4603 78.3892 39.97 78.7656 40.4996 78.7656C41.0293 78.7656 41.545 78.3892 41.6898 77.8835C43.1557 63.5299 55.3828 53.71 62.6726 42.4552C62.6766 42.4494 62.6745 42.4395 62.6785 42.4375C65.8384 38.047 67.6931 32.6725 67.6931 26.8727C67.6951 12.031 55.5216 0.00195312 40.4996 0.00195312ZM40.4937 7.42085C41.2911 7.42085 42.0905 7.48553 42.886 7.56785C43.4672 7.62861 43.8282 8.06771 43.8282 8.64005V11.7154C43.8282 12.2172 44.1138 12.5837 44.6216 12.7209C45.7067 13.0129 46.7203 13.4422 47.6645 13.9342C48.0949 14.1576 48.6325 14.1126 48.9658 13.7931L51.2092 11.6429C51.5762 11.292 52.2249 11.2195 52.6593 11.5762C53.8891 12.5798 55.0336 13.6598 55.9878 14.8652C56.3369 15.3043 56.3071 15.8962 55.9124 16.298L53.7423 18.5149C53.3873 18.8775 53.3376 19.3538 53.5995 19.8007C54.135 20.7141 54.5179 21.7411 54.8273 22.8074C54.9523 23.2426 55.4085 23.5914 55.843 23.5914H58.9552C59.5345 23.5914 59.9828 24.0207 60.0403 24.5225C60.1296 25.3085 60.1891 26.0945 60.1891 26.8805C60.1891 27.6665 60.1236 28.4584 60.0403 29.2444C59.9788 29.8187 59.5345 30.1754 58.9552 30.1754H55.843C55.3351 30.1754 54.9642 30.4576 54.8273 30.9594C54.5318 32.0316 54.0974 33.0312 53.5995 33.9661C53.3733 34.3915 53.419 34.9227 53.7423 35.252L55.9124 37.4688C56.2694 37.8314 56.3468 38.4704 55.9878 38.9016C54.9721 40.1169 53.8792 41.2478 52.6593 42.1906C52.213 42.5356 51.6159 42.5062 51.2092 42.1161L48.9658 39.9718C48.5968 39.619 48.1148 39.5719 47.6645 39.8307C46.7401 40.3599 45.7007 40.7382 44.6216 41.0439C44.1813 41.1674 43.8282 41.6183 43.8282 42.0475V45.1229C43.8282 45.6952 43.3958 46.1382 42.886 46.1951C42.0905 46.2833 41.2892 46.3361 40.4937 46.3361C39.6983 46.3361 38.9028 46.2774 38.1074 46.1951C37.5262 46.1343 37.1651 45.6952 37.1651 45.1229V42.0475C37.1651 41.5477 36.8795 41.1792 36.3717 41.0439C35.2867 40.7519 34.2731 40.3226 33.3289 39.8307C32.8984 39.6072 32.3608 39.6523 32.0276 39.9718L29.7841 42.1161C29.4151 42.469 28.7705 42.5454 28.3341 42.1906C27.1042 41.187 25.9597 40.1071 25.0056 38.9016C24.6565 38.4606 24.6862 37.8706 25.0809 37.4688L27.251 35.252C27.6061 34.8894 27.6557 34.4111 27.3939 33.9661C26.8583 33.0528 26.4755 32.0257 26.166 30.9594C26.0411 30.5243 25.5829 30.1754 25.1485 30.1754H22.0361C21.4569 30.1754 21.0086 29.7481 20.9511 29.2444C20.8638 28.4584 20.8023 27.6665 20.8023 26.8805C20.8023 26.0945 20.8678 25.3085 20.9511 24.5225C21.0126 23.9482 21.4569 23.5914 22.0361 23.5914H25.1485C25.6563 23.5914 26.0272 23.3092 26.166 22.8074C26.4616 21.7353 26.896 20.7337 27.3939 19.8007C27.62 19.3754 27.5743 18.8442 27.251 18.5149L25.0809 16.298C24.7259 15.9335 24.6466 15.2945 25.0056 14.8652C26.0212 13.65 27.1141 12.519 28.3341 11.5762C28.7784 11.2313 29.3775 11.2548 29.7841 11.6429L32.0276 13.7931C32.3946 14.1439 32.8766 14.1929 33.3289 13.9342C34.2532 13.4049 35.2926 13.0267 36.3717 12.7209C36.8121 12.5974 37.1651 12.1466 37.1651 11.7154V8.64005C37.1651 8.06771 37.5996 7.62469 38.1074 7.56785C38.9028 7.47965 39.6963 7.42085 40.4937 7.42085Z" fill="#CC1A25"/>
<path d="M30.5776 26.8824C30.5776 21.5157 34.9951 17.1526 40.4243 17.1526C45.8535 17.1526 50.271 21.5177 50.271 26.8824C50.271 32.2471 45.8535 36.6122 40.4243 36.6122C34.9951 36.6122 30.5776 32.2491 30.5776 26.8824Z" fill="#5F5F5F"/>
</g>

</symbol><symbol id="repair" viewBox="0 0 65 65">
<path d="M40.7028 48.8407C41.5416 48.8407 42.4746 48.7465 43.3122 48.6536C44.4299 48.4677 45.177 47.6301 45.177 46.6055V44.3702C45.177 43.9043 45.5475 43.4397 46.0134 43.3467C47.411 42.8809 48.8112 42.3208 50.0218 41.6691C50.3947 41.3891 50.9523 41.4832 51.3253 41.8562L52.9075 43.4384C53.6534 44.0902 54.7712 44.1819 55.6088 43.5301C57.0065 42.4125 58.2207 41.202 59.3384 39.8043C59.9901 38.9655 59.9876 37.8479 59.2429 37.1032L57.6606 35.521C57.2876 35.148 57.1936 34.6797 57.4736 34.2138C58.2183 32.9091 58.7783 31.6068 59.1512 30.2092C59.2442 29.7433 59.71 29.3692 60.1759 29.3692H62.4112C63.5289 29.2762 64.3701 28.5328 64.463 27.5081C64.556 26.6693 64.6501 25.8304 64.6501 24.8987C64.6501 24.0599 64.556 23.1269 64.463 22.2893C64.2772 21.1717 63.436 20.4282 62.4112 20.4282H60.1759C59.71 20.4282 59.2454 20.0541 59.1512 19.5882C58.6853 18.1905 58.1266 16.7941 57.4736 15.5836C57.1936 15.2106 57.2876 14.653 57.6606 14.2801L59.2429 12.6941C59.8947 11.9495 59.9901 10.8306 59.3384 9.993C58.2207 8.59537 57.0065 7.38482 55.6088 6.2672C54.77 5.61546 53.6522 5.61301 52.9075 6.35891L51.3253 7.94485C50.9523 8.3178 50.4877 8.40828 50.0218 8.12827C48.717 7.38237 47.411 6.82724 46.0134 6.45429C45.5475 6.36136 45.177 5.89182 45.177 5.42595V3.1907C45.0841 2.07308 44.3369 1.23548 43.3122 1.14255C42.4734 1.04962 41.6346 0.95546 40.7028 0.95546C39.8639 0.95546 38.9347 1.04962 38.097 1.14255C36.9794 1.32841 36.2323 2.16602 36.2323 3.1907V5.42595C36.2323 5.89182 35.8617 6.36014 35.3958 6.45429C33.9981 6.92017 32.5981 7.4753 31.3875 8.12827C31.0145 8.40828 30.4569 8.3178 30.084 7.94485L28.498 6.35891C27.7521 5.70717 26.6344 5.61546 25.7968 6.2672C24.3991 7.38482 23.1886 8.59537 22.0709 9.993C21.4192 10.8318 21.4179 11.9495 22.1626 12.6941L23.7486 14.2801C24.1215 14.653 24.2157 15.1177 23.9357 15.5836C23.1898 16.8883 22.631 18.1905 22.258 19.5882C22.1651 20.0541 21.6992 20.4282 21.2345 20.4282H18.9955C17.8779 20.5211 17.0403 21.2646 16.9473 22.2893C16.8544 23.1281 16.7603 23.9669 16.7603 24.8987C16.7603 25.7375 16.8544 26.6705 16.9473 27.5081C17.1332 28.6257 17.9708 29.3692 18.9955 29.3692H21.2345C21.7004 29.3692 22.1651 29.7433 22.258 30.2092C22.7239 31.6068 23.2839 33.0033 23.9357 34.2138C24.0262 34.3349 24.0726 34.4755 24.0885 34.6222C25.7601 32.9262 27.4293 31.229 29.1167 29.5477C28.5396 28.1109 28.2192 26.5409 28.2192 24.8975C28.2192 18.0034 33.8086 12.4141 40.7028 12.4141C47.5969 12.4141 53.1901 18.0034 53.1901 24.8975C53.1901 31.7915 47.5969 37.3808 40.7028 37.3808C39.0654 37.3808 37.5002 37.0678 36.0671 36.4943C34.343 38.1377 32.6518 39.819 30.9729 41.515C31.1099 41.5346 31.2468 41.5847 31.3862 41.6679C32.6909 42.4138 33.9969 42.9726 35.3946 43.3455C35.8605 43.4384 36.231 43.9031 36.231 44.369V46.6042C36.3239 47.7219 37.071 48.5595 38.0957 48.6524C38.9358 48.7465 39.7722 48.8407 40.7028 48.8407Z" fill="#5F5F5F"/>
<path d="M6.3217 47.8341C4.06326 50.3351 3.4209 53.3798 4.52592 57.3397C4.54541 57.4083 4.59377 57.4756 4.656 57.529C4.84142 57.6893 5.17022 57.7402 5.33993 57.446L7.28027 54.0788C7.97672 52.8694 9.51361 52.4615 10.7223 53.1586C11.2516 53.4641 11.7815 53.769 12.3107 54.0744C13.5188 54.7721 13.9305 56.3102 13.2328 57.5182L11.3434 60.7918C11.1095 61.1966 11.249 61.5411 11.6356 61.5907C13.5974 61.839 16.2153 60.1149 17.448 58.9904C18.7428 57.8099 19.7951 56.1279 19.7762 54.686C19.748 52.5269 19.4267 50.6758 20.7354 49.3672C26.2605 43.8422 31.785 38.3178 37.3102 32.7927C38.6389 31.464 40.8176 31.3068 42.9358 31.3219C44.7404 31.3351 45.9831 31.0189 46.9762 30.0761C47.0428 30.0132 47.1095 29.9503 47.1723 29.8799C49.4126 27.3632 50.0713 24.3361 48.9656 20.3768C48.8889 20.1015 48.3779 19.8784 48.1523 20.27L46.2119 23.6372C45.5154 24.8465 43.9786 25.2545 42.7699 24.5574C42.2406 24.2519 41.7126 23.9452 41.1834 23.6397C39.9753 22.942 39.561 21.4064 40.2593 20.1977L42.1488 16.9242C42.3827 16.5194 42.2431 16.1749 41.8572 16.1259C39.8954 15.8776 37.275 17.6043 36.0423 18.7288C34.7475 19.9092 33.6971 21.5894 33.7166 23.0306C33.7449 25.1897 34.0698 27.037 32.7611 28.3457C27.2348 33.872 21.7084 39.3982 16.1827 44.9239C14.8539 46.2527 12.6747 46.4104 10.557 46.3947C8.63174 46.3802 7.32741 46.7203 6.3217 47.8341Z" fill="#CC1A25"/>
</symbol><symbol id="restoring-holes" viewBox="0 0 62 61">
<g clip-path="url(#clip0)">
<path d="M28.7845 -0.000854492C14.0253 1.2694 2.26543 13.0306 0.995178 27.7897L7.08806 28.3202C8.10375 16.5124 17.5084 7.104 29.3162 6.0883L28.7845 -0.000854492Z" fill="#CC1A25"/>
<path d="M34.0946 -0.000732422L33.564 6.09221C46.07 7.16965 55.8879 17.6581 55.8879 30.4437C55.8879 31.8942 55.7594 33.3144 55.5175 34.6956L61.5373 35.7579C61.8397 34.0314 61.9998 32.2571 61.9998 30.445C61.9985 14.461 49.727 1.34513 34.0946 -0.000732422Z" fill="#5F5F5F"/>
<path d="M7.08659 32.5669L0.993652 33.0974C2.33825 48.7324 15.4554 61.0014 31.4381 61.0014C36.0566 61.0014 40.4358 59.9744 44.3612 58.1408L41.7791 52.6024C38.6387 54.0705 35.1342 54.8908 31.4381 54.8908C18.6537 54.8908 8.16404 45.0741 7.08659 32.5669Z" fill="#5F5F5F"/>
<path d="M54.4199 38.801C52.6909 43.5544 49.5292 47.6159 45.4588 50.4715L48.9659 55.4794C54.0532 51.9119 58.0051 46.8334 60.1663 40.8954L54.4199 38.801Z" fill="#CC1A25"/>
<path d="M31.4961 11.173C30.7148 11.173 29.9309 11.2284 29.1509 11.3154C28.6519 11.3708 28.2272 11.8132 28.2272 12.3815V15.4374C28.2272 15.8633 27.8781 16.3082 27.4459 16.4317C26.3848 16.7354 25.3691 17.1134 24.4618 17.6402C24.0182 17.8973 23.5431 17.8481 23.1827 17.4978L20.98 15.3656C20.5817 14.98 19.9957 14.9523 19.5584 15.295C18.3613 16.2326 17.2864 17.3567 16.2896 18.5639C15.9367 18.9924 16.0111 19.6237 16.3601 19.9854L18.4923 22.1882C18.8086 22.5145 18.8566 23.0451 18.6348 23.4672C18.1458 24.396 17.7173 25.3877 17.4262 26.4525C17.2901 26.9516 16.9285 27.2339 16.4307 27.2339H13.3748C12.8065 27.2339 12.3692 27.588 12.3087 28.1576C12.2268 28.9376 12.1663 29.7202 12.1663 30.5028C12.1663 31.2853 12.2218 32.0679 12.3087 32.8479C12.3642 33.3469 12.8065 33.7716 13.3748 33.7716H16.4307C16.8567 33.7716 17.3015 34.1207 17.4262 34.5529C17.7287 35.614 18.108 36.6297 18.6348 37.537C18.8919 37.9806 18.8427 38.4557 18.4923 38.8161L16.3601 41.0189C15.9745 41.4184 15.9468 42.0031 16.2896 42.4404C17.2271 43.6375 18.3512 44.7124 19.5584 45.7092C19.9856 46.0621 20.6183 45.9877 20.98 45.6374L23.1827 43.5052C23.5091 43.1889 24.0396 43.141 24.4618 43.3628C25.3905 43.8518 26.3823 44.2802 27.4459 44.5713C27.9449 44.7074 28.2272 45.0691 28.2272 45.5656V48.6215C28.2272 49.1898 28.5813 49.6271 29.1509 49.6876C29.9309 49.7695 30.7135 49.83 31.4961 49.83C32.2774 49.83 33.0612 49.7746 33.8413 49.6876C34.3403 49.6322 34.765 49.1898 34.765 48.6215V45.5656C34.765 45.1396 35.114 44.6948 35.5463 44.5713C36.6073 44.2676 37.623 43.8883 38.5304 43.3628C38.9739 43.1057 39.4478 43.1549 39.8094 43.5052L42.0122 45.6374C42.4104 46.023 42.9964 46.0507 43.4337 45.7092C44.6309 44.7717 45.7058 43.6463 46.7026 42.4404C47.0554 42.0119 46.9811 41.3805 46.632 41.0189L44.4998 38.8161C44.1835 38.4897 44.1356 37.9592 44.3574 37.537C44.8463 36.6083 45.2748 35.6165 45.5659 34.5529C45.702 34.0539 46.0637 33.7716 46.5614 33.7716H49.6173C50.1857 33.7716 50.623 33.4175 50.6834 32.8479C50.7654 32.0679 50.8258 31.2841 50.8258 30.5028C50.8258 29.7215 50.7704 28.9376 50.6834 28.1576C50.628 27.6585 50.1857 27.2339 49.6173 27.2339H46.5614C46.1355 27.2339 45.6894 26.8848 45.5659 26.4525C45.2635 25.3915 44.8841 24.3758 44.3574 23.4672C44.1003 23.0236 44.1495 22.5498 44.4998 22.1882L46.632 19.9854C47.0176 19.5859 47.0453 19.0012 46.7026 18.5639C45.765 17.3667 44.6409 16.2918 43.4337 15.295C43.0052 14.9409 42.3739 15.0165 42.0122 15.3656L39.8094 17.4978C39.4818 17.8141 38.9525 17.862 38.5304 17.6402C37.6016 17.1512 36.6098 16.7228 35.5463 16.4317C35.0472 16.2956 34.765 15.9339 34.765 15.4374V12.3815C34.765 11.8132 34.4109 11.3759 33.8413 11.3154C33.0612 11.2322 32.2787 11.173 31.4961 11.173ZM31.4255 20.836C36.7548 20.836 41.0898 25.171 41.0898 30.5002C41.0898 35.8295 36.7548 40.1645 31.4255 40.1645C26.0963 40.1645 21.7613 35.8295 21.7613 30.5002C21.7613 25.171 26.0963 20.836 31.4255 20.836Z" fill="#5F5F5F"/>
</g>

</symbol><symbol id="rub" viewBox="0 0 13 15">
<path d="M1.71303 0H7.59443C8.24158 0 8.85066 0.0528172 9.4407 0.158451C10.0307 0.299296 10.6398 0.598592 11.2489 1.03873C11.7628 1.37324 12.1816 1.84859 12.5051 2.48239C12.8477 3.08099 13 3.80282 13 4.63028C13 5.73944 12.5813 6.76056 11.7247 7.67606C10.8492 8.64437 9.59297 9.13732 7.91801 9.15493H4.16837V10.9683V11.3732V12.007V12.4824V15H1.71303V12.412V11.831V11.3908V11.0035V9.17254L0 9.19014V7.00704H1.71303V0ZM4.16837 7.00704H7.82284C8.73646 6.98944 9.42167 6.72535 9.87848 6.21479C10.3163 5.72183 10.5447 5.17606 10.5447 4.55986C10.5447 4.0493 10.4495 3.62676 10.2782 3.29225C10.0879 2.97535 9.84041 2.74648 9.4978 2.55282C8.98389 2.25352 8.41289 2.11268 7.72768 2.13028H4.16837V7.00704Z" fill="black"/>
<path d="M7 11H0V13H7V11Z" fill="black"/>
</symbol><symbol id="search" viewBox="0 0 19.74 19.84"><g class="cls-2"><path class="cls-3" d="M7.33,14.27a7,7,0,1,0-6.95-7v.1a7,7,0,0,0,7,7Z" transform="translate(0 0.1)"/><path class="cls-3" d="M12.23,12.22l7.14,7.14" transform="translate(0 0.1)"/></g></symbol><symbol id="take-away" viewBox="0 0 60 60">
<g clip-path="url(#clip0)">
<path d="M27.383 43.6565H25.1843C24.6991 43.6565 24.3054 44.0502 24.3054 44.5354C24.3054 45.0206 24.6991 45.4143 25.1843 45.4143H27.383C27.8682 45.4143 28.2619 45.0206 28.2619 44.5354C28.2619 44.0502 27.8682 43.6565 27.383 43.6565Z" fill="#5F5F5F"/>
<path d="M21.264 31.9349H19.1684C16.4095 31.9349 13.8139 33.0075 11.8593 34.9543C10.9735 35.8369 9.97513 36.5941 8.89161 37.2052C8.28828 37.5457 7.98157 38.2525 8.14545 38.9241C8.54096 40.5427 9.98108 41.6734 11.6473 41.6734H21.264C21.9452 41.6734 22.4991 41.1195 22.4991 40.4384V33.17C22.4991 32.4888 21.9452 31.9349 21.264 31.9349ZM20.7413 39.9156H11.6473C10.8458 39.9156 10.1463 39.4052 9.89594 38.6558C11.0632 37.9815 12.1404 37.1557 13.0998 36.1999C14.7226 34.5831 16.8777 33.6927 19.1684 33.6927H20.7413V39.9156Z" fill="#5F5F5F"/>
<path d="M42.0639 38.1866C41.6954 37.9838 41.3315 37.7618 40.9822 37.5256L35.3334 33.7097C33.615 32.5488 31.6104 31.9349 29.5363 31.9349H25.2145C24.5901 31.9349 24.082 32.4431 24.082 33.0674V40.5409C24.082 41.1653 24.5901 41.6734 25.2145 41.6734H42.069C42.7808 41.6734 43.3631 41.0971 43.3672 40.3885C43.3717 39.4748 42.8723 38.6311 42.0639 38.1866ZM25.8398 39.9156V33.6927H29.5363C31.2579 33.6927 32.9224 34.2022 34.3492 35.1663L39.998 38.9822C40.3917 39.2482 40.8019 39.4986 41.2166 39.727C41.3059 39.776 41.3823 39.8405 41.4436 39.9156H25.8398Z" fill="#5F5F5F"/>
<path d="M10.67 47.8112C9.9028 47.8112 9.18137 48.1101 8.63846 48.653C8.09647 49.195 7.798 49.9164 7.798 50.6845C7.798 51.4522 8.09647 52.1741 8.63846 52.7161C9.18091 53.2585 9.9028 53.5575 10.67 53.5575C11.4377 53.5575 12.1591 53.2585 12.7016 52.7161C13.244 52.1736 13.5429 51.4522 13.5429 50.6845C13.5429 49.9173 13.2445 49.1954 12.7016 48.653C12.1591 48.1101 11.4377 47.8112 10.67 47.8112ZM11.4583 51.4733C11.2482 51.6838 10.968 51.7997 10.67 51.7997C10.372 51.7997 10.0919 51.6838 9.88129 51.4728C9.67163 51.2632 9.55582 50.983 9.55582 50.6845C9.55582 50.3861 9.67163 50.1059 9.88129 49.8958C10.0923 49.6852 10.3725 49.569 10.67 49.569C10.968 49.569 11.2482 49.6852 11.4587 49.8958C11.6693 50.1064 11.7851 50.3865 11.7851 50.6845C11.7851 50.9825 11.6693 51.2622 11.4583 51.4733Z" fill="#5F5F5F"/>
<path d="M49.2247 47.8112C48.4575 47.8112 47.7361 48.1101 47.1931 48.653C46.6512 49.195 46.3527 49.9164 46.3527 50.6845C46.3527 51.4522 46.6512 52.1741 47.1931 52.7161C47.7356 53.2585 48.4575 53.5575 49.2247 53.5575C49.9924 53.5575 50.7138 53.2585 51.2563 52.7161C51.7992 52.1736 52.0981 51.4522 52.0981 50.6845C52.0981 49.9173 51.7992 49.1954 51.2563 48.653C50.7138 48.1101 49.9924 47.8112 49.2247 47.8112ZM50.0134 51.4733C49.8029 51.6838 49.5227 51.7997 49.2247 51.7997C48.9267 51.7997 48.6465 51.6838 48.436 51.4728C48.2259 51.2632 48.1105 50.983 48.1105 50.6845C48.1105 50.3861 48.2259 50.1059 48.436 49.8958C48.6465 49.6852 48.9267 49.569 49.2247 49.569C49.5227 49.569 49.8029 49.6852 50.0134 49.8958C50.224 50.1064 50.3398 50.3865 50.3398 50.6845C50.3398 50.9825 50.224 51.2622 50.0134 51.4733Z" fill="#5F5F5F"/>
<path d="M59.2598 42.2173L58.9902 41.7692C58.9897 41.7687 58.9897 41.7687 58.9893 41.7682C57.9689 40.0754 56.2724 38.8839 54.3338 38.4984L46.5395 36.9485C44.9799 36.6385 43.4573 35.696 42.448 35.0139L36.7996 31.198C36.7383 31.1568 36.676 31.1179 36.6147 31.0781H49.1583C50.4108 31.0781 51.4297 30.0591 51.4297 28.8067V22.3765C52.6872 21.7544 53.5542 20.458 53.5542 18.9625V17.4253C53.5542 17.4235 53.5542 17.4212 53.5542 17.4193C53.5542 17.4106 53.5529 17.4019 53.5529 17.3932C53.5519 17.3681 53.5506 17.3434 53.5474 17.3191C53.5464 17.309 53.5442 17.299 53.5428 17.2889C53.5391 17.2651 53.5345 17.2413 53.5286 17.2179C53.5268 17.2088 53.5245 17.1996 53.5217 17.1905C53.5144 17.1639 53.5057 17.1378 53.4961 17.1126C53.4947 17.1085 53.4938 17.1039 53.492 17.0998L53.4865 17.0856C53.486 17.0847 53.4856 17.0833 53.4851 17.0824L51.8729 13.0381C51.6257 12.4174 51.0342 12.0164 50.3664 12.0164H25.697C25.0291 12.0164 24.4377 12.4174 24.1905 13.0381L22.5783 17.0824C22.5778 17.0833 22.5774 17.0843 22.5769 17.0856L22.571 17.1003C22.5696 17.1044 22.5687 17.1085 22.5668 17.1131C22.5572 17.1383 22.5485 17.1644 22.5412 17.1909C22.5389 17.1996 22.5366 17.2088 22.5343 17.2179C22.5288 17.2413 22.5238 17.2651 22.5201 17.2889C22.5188 17.299 22.5169 17.309 22.5156 17.3191C22.5128 17.3434 22.511 17.3685 22.5105 17.3932C22.5101 17.4019 22.5092 17.4106 22.5092 17.4193C22.5092 17.4212 22.5087 17.4235 22.5087 17.4253V18.9625C22.5087 20.6296 23.5863 22.0492 25.0809 22.5632V28.8067C25.0809 28.863 25.0859 28.9188 25.09 28.9747H19.1679C15.7114 28.9747 12.4594 30.3182 10.0108 32.7581C8.46771 34.2953 6.52542 35.3435 4.39316 35.7903L3.16727 36.0471C1.33301 36.4312 0.00183105 38.0704 0.00183105 39.9445V42.1789C0.0013733 42.1903 0 42.2013 0 42.2127V45.7288C0 45.7403 0.0013733 45.7517 0.00183105 45.7632V47.2779C0.00183105 48.2744 0.590057 49.1794 1.50101 49.5841L5.20569 51.2311C5.32654 52.4506 5.85251 53.6371 6.78497 54.5696C7.85614 55.6408 9.26331 56.1764 10.6705 56.1764C12.0772 56.1764 13.4843 55.6408 14.5555 54.5696C15.4028 53.7223 15.9137 52.6649 16.0904 51.5635H43.8011C43.9824 52.6969 44.5125 53.742 45.3397 54.5696C46.3774 55.6074 47.7571 56.1791 49.2252 56.1791C50.6923 56.1791 52.0724 55.6074 53.1097 54.5696C53.9374 53.742 54.4675 52.6969 54.6487 51.5635H56.8085C58.5681 51.5635 60 50.1316 60 48.3715V44.8797C60 43.9417 59.7441 43.0207 59.2598 42.2173ZM49.6719 28.8067C49.6719 29.09 49.4412 29.3203 49.1583 29.3203H32.5127C31.544 29.0923 30.547 28.9747 29.5363 28.9747H26.868C26.8506 28.9257 26.8387 28.8703 26.8387 28.8067V22.7331C27.8018 22.6003 28.6514 22.1068 29.2451 21.3927C29.9442 22.2336 30.9975 22.7701 32.1739 22.7701C33.3504 22.7701 34.4037 22.2336 35.1027 21.3927C35.8017 22.2336 36.855 22.7701 38.0315 22.7701C39.2079 22.7701 40.2612 22.2336 40.9602 21.3927C41.6592 22.2336 42.7126 22.7701 43.889 22.7701C45.0655 22.7701 46.1188 22.2336 46.8178 21.3927C47.5017 22.2153 48.5257 22.7459 49.6715 22.7679V28.8067H49.6719ZM30.1241 18.9625V18.3042H34.2238V18.9625C34.2238 20.0927 33.3041 21.0123 32.1739 21.0123C31.0437 21.0123 30.1241 20.0927 30.1241 18.9625ZM35.9816 18.9625V18.3042H40.0813V18.9625C40.0813 20.0927 39.1617 21.0123 38.0315 21.0123C36.9012 21.0123 35.9816 20.0927 35.9816 18.9625ZM41.8391 18.9625V18.3042H45.9389V18.9625C45.9389 20.0927 45.0192 21.0123 43.889 21.0123C42.7588 21.0123 41.8391 20.0927 41.8391 18.9625ZM51.7964 18.3042V18.9625C51.7964 19.9476 51.0974 20.7725 50.1691 20.9679C50.1544 20.9711 50.1393 20.973 50.1242 20.9757C50.0784 20.9844 50.0327 20.9917 49.986 20.9972C49.9672 20.9991 49.9484 21.0013 49.9297 21.0027C49.8697 21.0082 49.8088 21.0123 49.747 21.0123C48.6163 21.0123 47.6971 20.0927 47.6971 18.9625V18.3042H51.7964ZM25.789 13.7742H50.2739L51.3789 16.5464H24.684L25.789 13.7742ZM24.2665 18.9625V18.3042H28.3662V18.9625C28.3662 20.0927 27.4471 21.0123 26.3164 21.0123C26.2578 21.0123 26.2001 21.0082 26.1424 21.0032C26.1223 21.0018 26.1026 21 26.0815 20.9977C25.0616 20.8805 24.2665 20.013 24.2665 18.9625ZM1.75964 43.0916H2.92053V44.8499H1.75964V43.0916ZM13.3122 53.3268C11.8552 54.7838 9.48486 54.7838 8.0278 53.3268C6.57074 51.8697 6.57074 49.499 8.0278 48.0424C8.7561 47.3136 9.71329 46.9497 10.67 46.9497C11.6272 46.9497 12.5839 47.3136 13.3122 48.0424C14.7693 49.4994 14.7693 51.8697 13.3122 53.3268ZM51.8669 53.3268C51.1615 54.0322 50.2231 54.4213 49.2247 54.4213C48.2268 54.4213 47.2884 54.0322 46.5825 53.3268C45.8766 52.6209 45.488 51.6825 45.488 50.6846C45.488 49.6862 45.8766 48.7478 46.5825 48.0424C47.2884 47.3365 48.2268 46.9478 49.2247 46.9478C50.2231 46.9478 51.161 47.3365 51.8669 48.0424C52.5728 48.7478 52.9614 49.6862 52.9614 50.6846C52.9614 51.6825 52.5728 52.6209 51.8669 53.3268ZM58.2422 48.3715C58.2422 49.1625 57.599 49.8057 56.8085 49.8057H54.6487C54.4675 48.6722 53.9374 47.6267 53.1102 46.7991C52.0724 45.7613 50.6923 45.19 49.2252 45.19C47.7571 45.19 46.3774 45.7613 45.3397 46.7991C44.5125 47.6267 43.9824 48.6722 43.8011 49.8057H16.0904C15.9132 48.7043 15.4024 47.6464 14.5551 46.7991C12.4132 44.6567 8.92731 44.6572 6.78497 46.7991C6.05118 47.5333 5.5687 48.425 5.33752 49.3662L2.21466 47.9778C1.93817 47.8551 1.75964 47.5805 1.75964 47.2779V46.6077H3.30139C4.06036 46.6077 4.67834 45.9902 4.67834 45.2308V42.7108C4.67834 41.9514 4.06036 41.3338 3.30139 41.3338H1.75964V39.9445C1.75964 38.8976 2.50305 37.9821 3.52798 37.7674L4.75388 37.5106C7.21985 36.9942 9.46655 35.7812 11.2514 34.0032C13.3681 31.8938 16.1797 30.7325 19.1679 30.7325H29.5363C30.4184 30.7325 31.2881 30.8364 32.1332 31.0369C32.1666 31.0479 32.2014 31.0561 32.2366 31.0625C33.5051 31.3766 34.715 31.9112 35.8154 32.6546L41.4638 36.4706C42.6956 37.3028 44.3463 38.3048 46.1966 38.6729L53.9909 40.2228C54.8534 40.394 55.6508 40.7795 56.3173 41.3288C55.0955 41.5417 54.1631 42.6092 54.1631 43.8914V45.2386C54.1631 46.0181 54.7975 46.6526 55.5775 46.6526H58.2422V48.3715ZM58.2422 44.8948H55.9213V43.8914C55.9213 43.4258 56.2999 43.0468 56.7654 43.0468H57.7075L57.7542 43.1246C58.0737 43.6542 58.2422 44.2612 58.2422 44.8797V44.8948Z" fill="#5F5F5F"/>
<path d="M18.7015 9.71832H19.7374V25.7639C19.7374 26.2495 20.1311 26.6428 20.6163 26.6428C21.1015 26.6428 21.4952 26.2495 21.4952 25.7639V9.71832H55.0154V35.8978C55.0154 36.3831 55.4086 36.7767 55.8943 36.7767C56.3795 36.7767 56.7732 36.3831 56.7732 35.8978V9.71832H57.8091C58.5223 9.71832 59.1028 9.13788 59.1028 8.42468V5.16083C59.1028 4.44763 58.5223 3.86719 57.8091 3.86719H18.7015C17.9883 3.86719 17.4078 4.44763 17.4078 5.16083V8.42468C17.4078 9.13788 17.9883 9.71832 18.7015 9.71832ZM19.1656 5.625H57.345V7.96051H19.1656V5.625Z" fill="#CC1A25"/>
</g>

</symbol><symbol id="transport-company" viewBox="0 0 60 60">
<path d="M55.7998 27.1128L54.246 20.8977C54.6708 20.8075 54.9895 20.4306 54.9895 19.9791V18.977C54.9895 16.8013 53.2194 15.0313 51.0438 15.0313H43.9666V12.9644C43.9666 11.8938 43.0957 11.0228 42.0251 11.0228H5.94984C4.87922 11.0228 4.00828 11.8938 4.00828 12.9644V29.9999C4.00828 30.5187 4.42887 30.9394 4.94777 30.9394C5.46656 30.9394 5.88727 30.5188 5.88727 29.9999V12.9644C5.88727 12.9298 5.91527 12.9018 5.94984 12.9018H42.025C42.0595 12.9018 42.0875 12.9298 42.0875 12.9644V30.0002C42.0875 30.519 42.5081 30.9397 43.027 30.9397C43.5458 30.9397 43.9665 30.5191 43.9665 30.0002V28.9352H55.0488C55.0498 28.9352 55.0505 28.9354 55.0513 28.9354C55.0522 28.9354 55.053 28.9353 55.0539 28.9353C56.4176 28.9362 57.5755 29.8313 57.9732 31.0647H55.052C54.5332 31.0647 54.1125 31.4853 54.1125 32.0042V34.0083C54.1125 35.6315 55.433 36.952 57.0561 36.952H58.1209V41.0855H55.6644C54.8575 38.7555 52.6425 37.0771 50.0415 37.0771C47.4405 37.0771 45.2255 38.7555 44.4186 41.0855H43.9663V34.0082C43.9663 33.4894 43.5457 33.0687 43.0268 33.0687C42.508 33.0687 42.0873 33.4893 42.0873 34.0082V41.0853H22.5957C21.7888 38.7553 19.5738 37.0769 16.9729 37.0769C14.3719 37.0769 12.1568 38.7553 11.35 41.0853H5.94984C5.91527 41.0853 5.88727 41.0573 5.88727 41.0227V38.9559H9.95824C10.477 38.9559 10.8977 38.5353 10.8977 38.0164C10.8977 37.4975 10.4771 37.0769 9.95824 37.0769H0.939492C0.420703 37.0769 0 37.4975 0 38.0164C0 38.5353 0.420586 38.9559 0.939492 38.9559H4.0084V41.0227C4.0084 42.0933 4.87934 42.9643 5.94996 42.9643H11.0246C11.0244 42.9851 11.023 43.0059 11.023 43.0269C11.023 46.3076 13.6922 48.9767 16.9729 48.9767C20.2535 48.9767 22.9227 46.3076 22.9227 43.0269C22.9227 43.0058 22.9213 42.9851 22.9211 42.9643H44.0933C44.0931 42.9851 44.0917 43.0059 44.0917 43.0269C44.0917 46.3076 46.7609 48.9767 50.0415 48.9767C53.3222 48.9767 55.9914 46.3076 55.9914 43.0269C55.9914 43.0058 55.99 42.9851 55.9897 42.9643H59.0604C59.5792 42.9643 59.9999 42.5437 59.9999 42.0248V32.004C60 29.5299 58.1746 27.4743 55.7998 27.1128ZM43.9666 16.9102H51.0438C52.1835 16.9102 53.1107 17.8374 53.1107 18.977V19.0396H43.9666V16.9102ZM43.9666 27.0563V20.9185H52.3145L53.8489 27.0563H43.9666ZM16.9729 47.0981C14.7281 47.0981 12.9019 45.2719 12.9019 43.0271C12.9019 40.7822 14.7281 38.9561 16.9729 38.9561C19.2176 38.9561 21.0438 40.7822 21.0438 43.0271C21.0438 45.2719 19.2176 47.0981 16.9729 47.0981ZM50.0418 47.0981C47.797 47.0981 45.9708 45.2719 45.9708 43.0271C45.9708 40.7822 47.797 38.9561 50.0418 38.9561C52.2865 38.9561 54.1127 40.7822 54.1127 43.0271C54.1127 45.2719 52.2865 47.0981 50.0418 47.0981ZM58.1211 35.073H57.0564C56.4693 35.073 55.9916 34.5953 55.9916 34.0082V32.9435H58.121V35.073H58.1211Z" fill="#5F5F5F"/>
<path d="M16.9729 41.0857C15.9022 41.0857 15.0313 41.9566 15.0313 43.0273C15.0313 44.0979 15.9022 44.9688 16.9729 44.9688C18.0435 44.9688 18.9144 44.0979 18.9144 43.0273C18.9144 41.9566 18.0435 41.0857 16.9729 41.0857Z" fill="#5F5F5F"/>
<path d="M50.0418 41.0857C48.9712 41.0857 48.1002 41.9566 48.1002 43.0273C48.1002 44.0979 48.9712 44.9688 50.0418 44.9688C51.1124 44.9688 51.9833 44.0979 51.9833 43.0273C51.9833 41.9566 51.1124 41.0857 50.0418 41.0857Z" fill="#5F5F5F"/>
<path d="M39.0187 37.0773H24.9895C24.4708 37.0773 24.05 37.4979 24.05 38.0168C24.05 38.5357 24.4706 38.9563 24.9895 38.9563H39.0187C39.5375 38.9563 39.9582 38.5357 39.9582 38.0168C39.9582 37.4979 39.5377 37.0773 39.0187 37.0773Z" fill="#CC1A25"/>
<path d="M14.9687 33.0688H2.94364C2.42485 33.0688 2.00415 33.4894 2.00415 34.0083C2.00415 34.5272 2.42474 34.9478 2.94364 34.9478H14.9687C15.4875 34.9478 15.9082 34.5272 15.9082 34.0083C15.9082 33.4894 15.4875 33.0688 14.9687 33.0688Z" fill="#CC1A25"/>
<path d="M32.6685 20.3168C32.3017 19.95 31.7067 19.95 31.3399 20.3169L22.9854 28.6714L18.6393 24.3252C18.2723 23.9583 17.6775 23.9583 17.3107 24.3252C16.9438 24.6921 16.9438 25.2869 17.3107 25.6538L22.3212 30.6642C22.5046 30.8478 22.745 30.9394 22.9854 30.9394C23.2258 30.9394 23.4663 30.8478 23.6496 30.6642L32.6684 21.6455C33.0353 21.2785 33.0353 20.6837 32.6685 20.3168Z" fill="#CC1A25"/>
</symbol><symbol id="vk" viewBox="0 0 34.08 19.11"><path class="cls-1" d="M34.36,2c-.43-.34-2.06-.33-3.68-.32A21.63,21.63,0,0,0,27,1.85c-.36.13-1.15,2-2.18,3.84-1.17,2.13-2.6,4.18-3.51,4.16-1.18,0-.91-3.52-.84-6.08,0-1.7-.25-2.24-.51-2.4a10.57,10.57,0,0,0-2.34-.8S12.5.2,11.77,2.33c1,.12,2.66-.17,2,6.41,0,.32-.78,3-3.18-.64C10,7.19,7.71,1.72,6.92,1.7,4.27,1.63,1.66,1.52.73,2s1.15,4.24,4.52,9.29C8,15.44,10.92,18.66,16,19.48a12.85,12.85,0,0,0,4.18-.16c.53-.25-.12-3.83,1.67-4.16.81-.15,3.86,3.72,5,4.16a12.43,12.43,0,0,0,3.85.32c1.72-.05,3.66.15,3.85-1,.42-2.47-5.18-5.68-5.35-7.21-.12-1.1,2.05-3.11,3.18-4.64C33.73,5,35.22,2.7,34.36,2Z" transform="translate(-0.53 -0.55)"/></symbol><symbol id="whatsapp" viewBox="0 0 30.99 29.66"><path class="cls-1" d="M16.54,26.94a13.22,13.22,0,0,1-7-2L4.59,26.42l1.6-4.51a11.68,11.68,0,0,1-2.44-7.12,11.5,11.5,0,0,1,.07-1.18,12.56,12.56,0,0,1,12.72-11c6.71,0,12.24,4.94,12.75,11.19,0,.31,0,.63,0,.95C29.33,21.5,23.59,26.94,16.54,26.94Zm15.2-12.51C31.53,6.62,24.81.35,16.53.35S1.69,6.47,1.33,14.16c0,.21,0,.42,0,.64A13.8,13.8,0,0,0,3.5,22.26L.76,30l8.42-2.56a15.7,15.7,0,0,0,7.35,1.8c8.41,0,15.22-6.46,15.22-14.44C31.75,14.68,31.74,14.56,31.74,14.43Z" transform="translate(-0.76 -0.35)"/><path class="cls-1" d="M23.51,17.71c-.38-.18-2.21-1-2.55-1.15s-.59-.18-.84.18-1,1.15-1.18,1.39-.43.27-.81.09a10.06,10.06,0,0,1-3-1.76A11,11,0,0,1,13.05,14c-.21-.36,0-.54.17-.72s.37-.42.56-.62a1.55,1.55,0,0,0,.13-.17c.09-.13.15-.26.24-.42a.62.62,0,0,0,0-.62C14,11.29,13.28,9.54,13,8.83s-.62-.59-.84-.59-.46,0-.71,0a1.42,1.42,0,0,0-1,.44A3.9,3.9,0,0,0,9.11,11.6a4.09,4.09,0,0,0,.2,1.21,8.12,8.12,0,0,0,1.33,2.46c.18.24,2.58,3.93,6.36,5.34s3.79.95,4.48.89A3.75,3.75,0,0,0,24,19.82a2.76,2.76,0,0,0,.21-1.69C24.13,18,23.88,17.89,23.51,17.71Z" transform="translate(-0.76 -0.35)"/></symbol></svg>