<svg xmlns="http://www.w3.org/2000/svg" xmlns:xlink="http://www.w3.org/1999/xlink"><defs><clipPath id="clip-path" transform="translate(-0.13 -0.75)"><rect y="0.58" width="26" height="28.42" fill="none"/></clipPath>
<clipPath id="clip0">
<rect width="44" height="26" fill="white"/>
</clipPath>

<clipPath id="clip0">
<rect width="102" height="86" fill="white"/>
</clipPath>

<clipPath id="clip0">
<rect width="61" height="41" fill="white" transform="translate(-0.000488281)"/>
</clipPath>

<clipPath id="clip0">
<rect width="100" height="98" fill="white"/>
</clipPath>

<clipPath id="clip0">
<rect width="100" height="75" fill="white"/>
</clipPath>
<style>.cls-1{fill:#020203;fill-rule:evenodd;}</style><style>.cls-1{fill:none;stroke:#222e59;stroke-linecap:round;stroke-linejoin:round;stroke-width:0.75px;}</style>
<clipPath id="clip0">
<rect width="81" height="98" fill="white"/>
</clipPath>

<clipPath id="clip0">
<rect width="61" height="61" fill="white" transform="translate(0.997437)"/>
</clipPath>
<style>.cls-1,.cls-3{fill:none;}.cls-2{clip-path:url(#clip-path);}.cls-3{stroke:#000;stroke-linecap:round;stroke-linejoin:round;stroke-width:0.75px;}</style><clipPath id="clip-path" transform="translate(0 0.1)"><rect class="cls-1" x="0.01" width="19.73" height="19.73"/></clipPath><style>.cls-1{fill:#020203;fill-rule:evenodd;}</style><style>.cls-1{fill:#020203;fill-rule:evenodd;}</style></defs><symbol id="cart" viewBox="0 0 25.76 28.09"><g clip-path="url(#clip-path)"><path d="M25.5,14.69,7.32,19v-12L25.5,6.88Z" transform="translate(-0.13 -0.75)" fill="#e30613"/><path d="M6.42,28.47a2.17,2.17,0,0,0,0-4.32,2.17,2.17,0,0,0,0,4.32Z" transform="translate(-0.13 -0.75)" fill="none" stroke="#000" stroke-linecap="round" stroke-linejoin="round" stroke-width="0.75"/><path d="M23.54,28.47a2.17,2.17,0,1,0-2-2.16A2.07,2.07,0,0,0,23.54,28.47Z" transform="translate(-0.13 -0.75)" fill="none" stroke="#000" stroke-linecap="round" stroke-linejoin="round" stroke-width="0.75"/><path d="M8.54,25.59h13" transform="translate(-0.13 -0.75)" fill="none" stroke="#000" stroke-linecap="round" stroke-linejoin="round" stroke-width="0.75"/><path d="M7.07,24.26V6.88" transform="translate(-0.13 -0.75)" fill="none" stroke="#000" stroke-linecap="round" stroke-linejoin="round" stroke-width="0.75"/><path d="M7.07,6.88H25.5v7.81L7.07,19.08" transform="translate(-0.13 -0.75)" fill="none" stroke="#000" stroke-linecap="round" stroke-linejoin="round" stroke-width="0.75"/><path d="M7.07,6.88,4.82,1.12H.5" transform="translate(-0.13 -0.75)" fill="none" stroke="#000" stroke-linecap="round" stroke-linejoin="round" stroke-width="0.75"/></g></symbol><symbol id="comparison" viewBox="0 0 44 26">
<g clip-path="url(#clip0)">
<path d="M26.5116 0.446794C25.9971 0.6205 25.4951 0.831428 25.0056 1.06097C24.6919 1.20986 24.5099 1.58829 24.6354 1.96051L25.3194 3.94572C25.4135 4.22489 25.288 4.59091 25.0307 4.76462C24.4032 5.19888 23.8197 5.67037 23.3428 6.2101C23.1106 6.47686 22.7843 6.5513 22.4706 6.40241L20.5441 5.50907C20.1928 5.34777 19.8037 5.45944 19.5966 5.77583C19.0193 6.65056 18.5675 7.61835 18.1848 8.62336C18.0467 8.97698 18.2412 9.37402 18.5487 9.52911L20.4437 10.4845C20.7261 10.6272 20.8767 10.9622 20.8265 11.2848C20.7136 11.9982 20.6571 12.7365 20.701 13.4933C20.7261 13.8469 20.5504 14.1137 20.2241 14.2192L18.2161 14.8954C17.8396 15.0194 17.6326 15.3482 17.7267 15.7329C17.8459 16.2602 17.984 16.7813 18.1597 17.29C18.3354 17.7987 18.5487 18.295 18.7809 18.7789C18.9315 19.0891 19.3143 19.269 19.6908 19.145L21.6987 18.4687C21.9811 18.3757 22.3513 18.4998 22.527 18.7541C22.9663 19.3745 23.4432 19.9514 23.9891 20.4229C24.2589 20.6525 24.3342 20.9751 24.1836 21.2853L23.28 23.1898C23.1169 23.5372 23.2298 23.9219 23.5499 24.1266C24.4346 24.6973 25.4135 25.144 26.4301 25.5224C26.7877 25.6589 27.1893 25.4666 27.3462 25.1626L28.3125 23.2891C28.4569 23.0099 28.7957 22.861 29.122 22.9106C29.8436 23.0223 30.5904 23.0781 31.3559 23.0347C31.7136 23.0099 31.9834 23.1836 32.0901 23.5062L32.774 25.4914C32.8995 25.8574 33.2321 26.0684 33.6212 25.9753C34.1545 25.8574 34.6816 25.721 35.1962 25.5472C35.7107 25.3735 36.2127 25.1626 36.7022 24.9331C37.0159 24.7842 37.1979 24.4058 37.0724 24.0335L36.3884 22.0483C36.2943 21.7691 36.4198 21.4031 36.6771 21.2294C37.3046 20.7952 37.8881 20.3237 38.365 19.7839C38.5972 19.5172 38.9235 19.4427 39.2372 19.5916L41.1637 20.485C41.5151 20.6463 41.9041 20.5346 42.1112 20.2182C42.6885 19.3435 43.1403 18.3757 43.523 17.3707C43.6611 17.0171 43.4666 16.62 43.1591 16.4649L41.2578 15.5095C40.9754 15.3669 40.8248 15.0319 40.875 14.7093C40.988 13.9958 41.0444 13.2576 41.0005 12.5007C40.9754 12.1471 41.1511 11.8803 41.4774 11.7749L43.4854 11.0987C43.8619 10.9746 44.069 10.6458 43.9748 10.2612C43.8556 9.73384 43.7176 9.21272 43.5419 8.70401C43.3662 8.1953 43.1528 7.699 42.9206 7.21511C42.77 6.90492 42.3873 6.72501 42.0108 6.84908L40.0028 7.5253C39.7204 7.61835 39.3502 7.49428 39.1745 7.23992C38.7352 6.61954 38.2583 6.04259 37.7124 5.57111C37.4489 5.34157 37.3736 5.02518 37.5242 4.71499L38.4278 2.81043C38.5909 2.46302 38.478 2.07839 38.158 1.87366C37.2732 1.30291 36.2943 0.856243 35.2777 0.477813C34.9201 0.34133 34.5185 0.533647 34.3616 0.837632L33.3953 2.71117C33.2509 2.99034 32.9121 3.13923 32.5858 3.0896C31.8642 2.97793 31.1174 2.9221 30.3519 2.96552C29.9942 2.99034 29.7244 2.81663 29.6177 2.49404L28.9338 0.508832C28.8083 0.14281 28.4757 -0.0681186 28.0866 0.0187341C27.547 0.14281 27.0199 0.273089 26.5116 0.446794ZM28.6326 6.73742C32.134 5.5525 35.9554 7.40742 37.154 10.8691C38.3525 14.3308 36.4763 18.1089 32.9811 19.2938C29.4797 20.4788 25.6582 18.6238 24.4597 15.1683C23.2612 11.7004 25.1311 7.92234 28.6326 6.73742Z" fill="#5F5F5F"/>
<path d="M9.55047 2.89111C9.14887 2.90972 8.74727 2.95314 8.34567 3.00898C8.0884 3.0462 7.88133 3.28194 7.89388 3.56732L7.95663 5.11826C7.9629 5.33539 7.79348 5.57113 7.57385 5.63938C7.03421 5.81308 6.51966 6.03021 6.06159 6.31559C5.84197 6.45207 5.59724 6.43966 5.40272 6.26596C5.01367 5.92475 4.62462 5.57734 4.2293 5.22993C4.01595 5.04381 3.71476 5.04381 3.49513 5.22372C2.89901 5.72623 2.37191 6.31559 1.88247 6.94837C1.70677 7.17171 1.76324 7.4943 1.94522 7.66801C2.32799 8.02783 2.70449 8.38765 3.08726 8.74746C3.25668 8.90876 3.29433 9.17552 3.18766 9.39266C2.95549 9.87655 2.75469 10.3853 2.62919 10.9312C2.56644 11.1855 2.39074 11.3406 2.13347 11.3468L0.564726 11.4089C0.269803 11.4213 0.056455 11.6074 0.0376301 11.899C0.0125303 12.296 -0.0062946 12.6931 0.0125303 13.0901C0.0313551 13.4871 0.0752798 13.8842 0.131754 14.2812C0.169404 14.5356 0.407853 14.7403 0.696501 14.7279L2.26524 14.6659C2.48486 14.6597 2.72331 14.8272 2.79234 15.0443C2.96803 15.5778 3.18766 16.0865 3.47631 16.5394C3.61436 16.7627 3.60181 17.0047 3.42611 17.1908C3.07471 17.5754 2.72331 17.9663 2.37191 18.3509C2.18367 18.5618 2.17739 18.8596 2.36564 19.0767C2.87391 19.6661 3.47003 20.1872 4.11008 20.6711C4.33598 20.8448 4.66227 20.789 4.83797 20.6029C5.20192 20.2244 5.56587 19.8522 5.92981 19.4738C6.09296 19.3063 6.36279 19.2691 6.58241 19.3745C7.07186 19.6041 7.5864 19.8026 8.14487 19.9267C8.40215 19.9887 8.55902 20.1624 8.5653 20.4168L8.62805 21.9677C8.6406 22.2593 8.82885 22.4702 9.12377 22.4888C9.52536 22.5136 9.92696 22.526 10.3286 22.5136C10.7302 22.495 11.1318 22.4578 11.5334 22.3958C11.7906 22.3585 11.9977 22.1228 11.9851 21.8374L11.9224 20.2865C11.9161 20.0693 12.0855 19.8336 12.3052 19.7654C12.8448 19.5917 13.3594 19.3745 13.8174 19.0891C14.0433 18.9527 14.2818 18.9651 14.4763 19.1388C14.8654 19.4862 15.2607 19.8336 15.6497 20.1748C15.8631 20.3609 16.1643 20.3671 16.3839 20.181C16.98 19.6785 17.5134 19.0891 17.9966 18.4564C18.1723 18.233 18.1158 17.9104 17.9338 17.7367C17.551 17.3769 17.1745 17.0171 16.7918 16.6635C16.6223 16.5022 16.591 16.2354 16.6914 16.0183C16.9235 15.5344 17.1243 15.0257 17.2498 14.4797C17.3126 14.2254 17.4883 14.0703 17.7456 14.0641L19.3143 14.0021C19.6092 13.9896 19.8226 13.8035 19.8414 13.512C19.8665 13.1149 19.8853 12.7117 19.8665 12.3146C19.8477 11.9176 19.8037 11.5205 19.7473 11.1235C19.7096 10.8692 19.4712 10.6644 19.1825 10.6768L17.6138 10.7389C17.3942 10.7451 17.162 10.5776 17.0867 10.3604C16.911 9.82692 16.6914 9.31821 16.4027 8.86534C16.2647 8.6482 16.2772 8.40005 16.4466 8.21394C16.798 7.82931 17.1494 7.43847 17.5008 7.05383C17.6891 6.84291 17.6954 6.54513 17.5071 6.32799C16.9988 5.73864 16.4027 5.21132 15.7627 4.73363C15.5368 4.55992 15.2105 4.61575 15.0348 4.80187C14.6708 5.1803 14.3069 5.55252 13.9429 5.93095C13.7798 6.09845 13.51 6.13568 13.2903 6.03021C12.8009 5.80067 12.2863 5.60215 11.7342 5.47808C11.4769 5.41604 11.32 5.24233 11.3137 4.98798L11.251 3.43704C11.2384 3.14546 11.0502 2.93453 10.7553 2.91592C10.3599 2.89111 9.95206 2.87249 9.55047 2.89111Z" fill="#E30613"/>
</g>

</symbol><symbol id="convenient-payment" viewBox="0 0 102 86">
<g clip-path="url(#clip0)">
<path d="M85.0786 53.9396H9.60461V55.2038H85.0786V53.9396Z" fill="#B2B2B2"/>
<path d="M6.49883 11.8335C2.93004 11.8335 -0.00354004 14.7732 -0.00354004 18.3495V68.1958C-0.00354004 71.7721 2.93004 74.7118 6.49883 74.7118H91.4686C95.0374 74.7118 97.9708 71.7721 97.9708 68.1958V18.3495C97.9708 14.7732 95.0374 11.8335 91.4686 11.8335H6.49883ZM6.49883 15.6687H91.4686C92.9842 15.6687 94.1437 16.8308 94.1437 18.3495V68.1958C94.1437 69.7145 92.9842 70.8766 91.4686 70.8766H6.49883C4.98329 70.8766 3.82358 69.7145 3.82358 68.1958V18.3495C3.82358 16.8308 4.98329 15.6687 6.49883 15.6687Z" fill="#5F5F5F"/>
<path d="M36.4137 72.4625H61.5522V85.7669H36.4137V72.4625Z" fill="#5F5F5F"/>
<path d="M48.9837 78.1271C35.1104 78.1309 23.2139 81.4426 20.6727 86.0084H77.2968C74.7556 81.4407 62.8571 78.129 48.9837 78.1271Z" fill="#5F5F5F"/>
<path d="M97.778 0H73.1695C70.8146 0 68.8466 1.88789 68.8466 4.24775V51.6472C68.8466 54.0071 70.8146 55.8949 73.1695 55.8949H97.778C100.133 55.8949 102 54.0071 102 51.6472V4.24775C102 1.88789 100.133 0 97.778 0ZM82.0003 2.1913H89.0145C89.4686 2.20815 89.8387 2.59584 89.8387 3.06782C89.8387 3.53979 89.4518 3.91062 89.0145 3.94434V3.96119H82.034V3.92748C81.4789 3.92748 81.1425 3.53979 81.1425 3.05096C81.1425 2.57899 81.5293 2.1913 82.0003 2.1913ZM85.4822 54.1756C84.0356 54.1756 82.8582 52.9957 82.8582 51.5461C82.8582 50.0964 84.0356 48.9165 85.4822 48.9165C86.9287 48.9165 88.1062 50.0964 88.1062 51.5461C88.0894 52.9957 86.9287 54.1756 85.4822 54.1756Z" fill="#5F5F5F"/>
<path d="M100.621 8.24268H70.3773V46.9949H100.621V8.24268Z" fill="white"/>
<path d="M82.5552 19.4689H87.7528C88.3247 19.4689 88.8629 19.5194 89.3844 19.6206C89.9058 19.7554 90.4441 20.042 90.9823 20.4634C91.4365 20.7837 91.8065 21.2388 92.0925 21.8456C92.3953 22.4187 92.5298 23.1098 92.5298 23.902C92.5298 24.964 92.1598 25.9416 91.4029 26.8181C90.6291 27.7452 89.519 28.2172 88.0387 28.2341H84.7251V29.9702V30.3579V30.9648V31.4199V33.8303H82.5552V31.3524V30.7962V30.3748V30.004V28.2509L81.0414 28.2678V26.1776H82.5552V19.4689ZM84.7251 26.1776H87.9546C88.762 26.1608 89.3676 25.9079 89.7713 25.4191C90.1581 24.9471 90.36 24.4246 90.36 23.8346C90.36 23.3458 90.2759 22.9412 90.1245 22.621C89.9563 22.3176 89.7376 22.0984 89.4348 21.913C88.9807 21.6265 88.4761 21.4916 87.8705 21.5085H84.7251V26.1776Z" fill="#CC1A25"/>
<path d="M87.3997 30.3411H81.0247V31.8413H87.3997V30.3411Z" fill="#CC1A25"/>
<path d="M17.9812 22.9918H20.8912C21.2107 22.9918 21.5135 23.0255 21.7995 23.0761C22.0854 23.1604 22.3882 23.3121 22.691 23.5481C22.9433 23.7335 23.1451 23.9863 23.3133 24.3235C23.4815 24.6437 23.5656 25.0314 23.5656 25.4697C23.5656 26.0596 23.3638 26.6159 22.9433 27.1047C22.5059 27.6273 21.8836 27.8801 21.0594 27.897H19.2091V28.8746V29.0937V29.4309V29.6837V31.0322H17.998V29.6669V29.3634V29.1275V28.8915V27.9138L17.157 27.9307V26.7676H17.998V22.9918H17.9812ZM19.1923 26.7507H20.9921C21.4462 26.7507 21.7826 26.599 22.0181 26.3293C22.2368 26.0596 22.3377 25.7731 22.3377 25.4528C22.3377 25.1831 22.2873 24.964 22.2032 24.7786C22.1191 24.61 21.9845 24.4752 21.8163 24.3909C21.564 24.2392 21.278 24.1549 20.9416 24.1718H19.1755V26.7507H19.1923Z" fill="#CC1A25"/>
<path d="M20.6893 29.0769H17.1233V29.9197H20.6893V29.0769Z" fill="#CC1A25"/>
<path d="M55.2388 21.5253H31.6732V22.7895H55.2388V21.5253Z" fill="#B2B2B2"/>
<path d="M55.2388 26.0259H31.6732V27.2901H55.2388V26.0259Z" fill="#B2B2B2"/>
<path d="M55.222 31.2175H31.8245V32.4817H55.222V31.2175Z" fill="#B2B2B2"/>
<path d="M55.222 36.7126H9.60461V37.9769H55.222V36.7126Z" fill="#B2B2B2"/>
<path d="M55.222 42.646H9.60461V43.9102H55.222V42.646Z" fill="#B2B2B2"/>
<path d="M55.222 48.2928H9.60461V49.5571H55.222V48.2928Z" fill="#B2B2B2"/>
<path d="M85.0786 59.5864H9.60461V60.8506H85.0786V59.5864Z" fill="#B2B2B2"/>
<path d="M85.0786 64.5421H9.60461V65.8063H85.0786V64.5421Z" fill="#B2B2B2"/>
</g>

</symbol><symbol id="delivery" viewBox="0 0 61 41">
<g clip-path="url(#clip0)">
<path d="M50.0666 31.5083C52.6532 31.5083 54.7477 33.6294 54.7477 36.2489C54.7477 38.8684 52.6532 40.9894 50.0666 40.9894C47.48 40.9894 45.3856 38.8684 45.3856 36.2489C45.3751 33.64 47.48 31.5083 50.0666 31.5083Z" fill="#5F5F5F"/>
<path d="M10.9114 31.5083C13.498 31.5083 15.5925 33.6294 15.5925 36.2489C15.5925 38.8684 13.498 40.9894 10.9114 40.9894C8.32483 40.9894 6.23041 38.8684 6.23041 36.2489C6.23041 33.64 8.32483 31.5083 10.9114 31.5083Z" fill="#5F5F5F"/>
<path d="M0.921057 0C0.418396 0 -0.000488281 0.424211 -0.000488281 0.933264V28.857V29.1433V33.4066C-0.000488281 33.9263 0.418396 34.3399 0.921057 34.3399H4.16741C4.5444 34.3399 4.87951 34.1172 5.01565 33.7672C5.97908 31.434 8.24106 29.7902 10.9114 29.7902C13.5714 29.7902 15.8333 31.434 16.7968 33.7672C16.9434 34.1172 17.2785 34.3399 17.645 34.3399H43.3121C43.6891 34.3399 44.0242 34.1172 44.1604 33.7672C45.1238 31.434 47.3858 29.7902 50.0457 29.7902C52.5799 29.7902 54.8314 31.5507 55.8472 33.799C55.9939 34.1278 56.329 34.3399 56.685 34.3399H60.0466C60.5597 34.3399 60.9681 33.9157 60.9681 33.4066V18.4532C60.9681 18.2941 60.9262 18.135 60.8424 17.9865L54.0565 5.90714C53.889 5.6208 53.5853 5.44051 53.2502 5.44051H40.3276V0.933264C40.3276 0.413606 39.9087 0 39.406 0H0.921057ZM20.1374 4.21029C26.5149 4.21029 31.6881 9.4493 31.6881 15.9079C31.6881 22.3665 26.5149 27.6161 20.1374 27.6161C13.7599 27.6161 8.58664 22.3771 8.58664 15.9079C8.57616 9.4493 13.7599 4.21029 20.1374 4.21029ZM41.9193 7.73125H51.9307C52.2658 7.73125 52.5695 7.91154 52.737 8.19788L57.8998 17.2866C58.1511 17.732 57.994 18.3047 57.5542 18.5592C57.4181 18.6441 57.261 18.6865 57.0934 18.6865H41.9193C41.4062 18.6865 40.9978 18.2623 40.9978 17.7532V8.66451C40.9978 8.15546 41.4167 7.73125 41.9193 7.73125Z" fill="#5F5F5F"/>
<path d="M13.4562 14.8368C13.2677 15.0277 13.2677 15.3459 13.4562 15.5367C15.5192 17.6896 17.3518 19.5986 19.2368 21.5605C19.331 21.656 19.4776 21.656 19.5719 21.5605C22.3889 18.6229 25.3211 15.5686 28.2532 12.5142C28.4417 12.3234 28.4417 12.0052 28.2532 11.8143L26.8186 10.319C26.6301 10.1281 26.3264 10.1281 26.1484 10.319L19.4148 17.3396L15.5715 13.3309C15.383 13.14 15.0793 13.14 14.9013 13.3309L13.4562 14.8368Z" fill="#CC1A25"/>
</g>

</symbol><symbol id="favorable-prices" viewBox="0 0 100 98">
<g clip-path="url(#clip0)">
<path d="M63.1351 -0.000488281C61.9596 -0.000488281 60.6572 0.130381 59.4879 0.261252H59.4818C57.8951 0.529126 56.8226 1.7499 56.8226 3.23241V6.40192C56.8226 7.0256 56.3286 7.65745 55.7137 7.78219H55.7076H55.7015C53.7478 8.44267 51.7902 9.23403 50.0946 10.1583V10.1644H50.0885C49.6006 10.5366 48.8628 10.4159 48.3628 9.90882L46.1509 7.66563L46.145 7.6595C45.0825 6.71682 43.4837 6.58186 42.2881 7.52454C40.3345 9.10929 38.6407 10.8331 37.0782 12.8166H37.0723C36.1449 14.0271 36.1468 15.6548 37.2113 16.7345L39.4232 18.9777C39.9272 19.4889 40.0522 20.0983 39.6752 20.7342V20.7404C38.6328 22.5909 37.8465 24.4374 37.3243 26.4209V26.4271C37.2013 27.0508 36.5783 27.5579 35.9634 27.5579H32.8443H32.8384C31.2517 27.6928 30.048 28.7705 29.915 30.255C29.7839 31.441 29.6507 32.6311 29.6507 33.9541C29.6507 35.1463 29.7859 36.4673 29.915 37.6533V37.6594C30.1791 39.2707 31.3826 40.3566 32.8443 40.3566H35.9634C36.5783 40.3566 37.2013 40.8575 37.3243 41.4812V41.4874L37.3302 41.4935C37.9815 43.4749 38.7619 45.4544 39.6752 47.1741V47.1802C40.0421 47.6751 39.9232 48.4296 39.4232 48.9367L37.2113 51.1799C36.9049 51.5357 36.6872 51.9549 36.5622 52.3946C40.8425 52.597 45.0784 53.4517 49.0442 55.1162C52.4515 56.3104 55.3629 58.7704 59.0061 59.2243C62.6271 59.666 66.3488 59.8807 70.0061 60.4062C70.1694 60.2733 70.3508 60.167 70.5545 60.1261H70.5606H70.5667C72.5203 59.4656 74.472 58.6743 76.1676 57.748L76.1735 57.7418C76.6614 57.3697 77.4054 57.4964 77.9054 58.0036L80.1172 60.2406L80.1231 60.2468C81.1857 61.1894 82.7786 61.3183 83.9722 60.3735H83.9781C85.9317 58.7888 87.6255 57.0711 89.188 55.0897C90.1154 53.8791 90.1194 52.2575 89.0549 51.1799L86.843 48.9367C86.339 48.4255 86.214 47.81 86.591 47.172C87.6333 45.3214 88.4197 43.4688 88.9419 41.4853V41.4792C89.0648 40.8555 89.6878 40.3484 90.3028 40.3484H93.4278C95.0145 40.2134 96.2182 39.1358 96.3512 37.6512C96.4803 36.4652 96.6155 35.2751 96.6155 33.9521C96.6155 32.76 96.4803 31.439 96.3512 30.253C96.0871 28.6437 94.8895 27.5558 93.4278 27.5558H90.3028C89.6878 27.5558 89.0648 27.0487 88.9419 26.425V26.4189C88.2906 24.4374 87.5043 22.4499 86.591 20.7322V20.726C86.2241 20.2312 86.343 19.4828 86.843 18.9757L89.0549 16.7325V16.7263C89.9843 15.6487 90.1174 14.0271 89.188 12.8145C87.6255 10.8331 85.9317 9.10929 83.9781 7.52454H83.9722C82.7786 6.58391 81.1798 6.58595 80.1172 7.66563L77.9054 9.90882C77.4013 10.42 76.8006 10.5407 76.1735 10.1583C74.3489 9.10111 72.5163 8.30976 70.5606 7.78219H70.5545C69.9396 7.65745 69.4456 7.0256 69.4456 6.40192V3.23241V3.22628C69.3125 1.61698 68.244 0.396211 66.7803 0.261252C65.6069 0.130381 64.4415 -0.000488281 63.1351 -0.000488281ZM63.1351 9.39966C64.1835 9.39966 65.0262 10.2585 65.0262 11.3239V14.6733C65.0343 14.6754 65.0385 14.6713 65.0445 14.6733C66.6534 14.8308 68.1775 15.1947 69.4678 15.7469C70.7582 16.3112 71.8852 17.168 72.8449 18.3152C73.603 19.1863 74.1837 20.0758 74.597 21.0001C75.0103 21.9223 75.2261 22.7729 75.2261 23.5438C75.2261 24.3986 74.9075 25.145 74.2946 25.7686C73.6777 26.3923 72.9335 26.7011 72.0585 26.7011C70.4073 26.7011 69.3429 25.7932 68.851 23.9794C68.3127 21.9161 67.0425 20.5257 65.0445 19.7997C65.0385 19.7977 65.0322 19.7956 65.0262 19.7936V30.4452C65.0322 30.4472 65.0385 30.4493 65.0445 30.4513C67.0284 31.0096 68.6251 31.5208 69.8207 31.985C71.0606 32.4614 72.1634 33.1567 73.1412 34.0625C74.1896 35.0032 74.9941 36.1258 75.5606 37.4365C76.1251 38.7452 76.4116 40.1746 76.4116 41.7307C76.4116 43.6815 75.9578 45.5034 75.0566 47.2068C74.1533 48.9101 72.8267 50.3027 71.0747 51.3803C69.2682 52.4027 67.1736 53.0121 65.0445 53.2391H65.0262V56.6008C65.0262 57.6621 64.1855 58.5168 63.1351 58.5168C62.0867 58.5168 61.2459 57.66 61.2459 56.6008V53.2391C59.5201 53.0571 57.873 52.6215 56.4455 51.9426C54.9717 51.2249 53.7397 50.3313 52.7538 49.2659C51.7659 48.1965 51.0341 47.078 50.5603 45.9247C50.0905 44.7693 49.8546 43.6426 49.8546 42.5323C49.8808 40.786 51.3225 39.4466 53.1693 39.3178C54.512 39.3321 55.6369 39.9271 56.1813 41.3749C56.6349 42.7777 57.0303 43.8532 57.367 44.5955C58.0867 46.1496 59.5424 47.3745 61.2481 47.9879V36.0072C59.1533 35.4019 57.381 34.7291 55.9496 33.995C54.4314 33.218 53.2014 32.1158 52.2579 30.6783C51.3103 29.2408 50.8406 27.3963 50.8406 25.1388C50.8406 22.2004 51.7661 19.7854 53.6129 17.9042C55.4435 16.0474 58.2863 15.0107 61.25 14.6958V11.3279C61.246 10.2605 62.0867 9.39966 63.1351 9.39966ZM61.2459 19.6811C58.9031 20.2885 57.2459 21.7996 57.1189 24.4927C57.1189 25.8423 57.4899 26.8585 58.2278 27.5538C59.0625 28.3165 60.1209 28.8441 61.2459 29.2653V19.6811ZM65.0262 37.1523V48.1944C66.3427 47.9511 67.5909 47.3295 68.7683 46.213C69.6957 45.1701 70.1615 43.9637 70.1615 42.5773C70.1615 41.0886 69.7097 39.9415 68.8065 39.1276C67.7803 38.2238 66.4395 37.6328 65.0262 37.1523Z" fill="#CC1A25"/>
<path d="M34.3344 55.2553C27.165 55.3391 20.06 57.2838 17.1487 58.0097C13.0196 59.0382 2.15856 58.1692 1.40452 58.4146C0.600072 58.6763 0.00738525 59.5065 0.00738525 60.3613V80.595C0.0456922 81.9691 0.922649 82.877 2.1021 82.9936C3.34405 83.014 13.564 83.0447 17.3745 83.0897C19.1366 83.2635 20.5741 83.5232 22.0278 84.0998C23.0278 84.5027 24.3039 85.0691 25.7455 85.7378C28.6306 87.0771 32.1851 88.8418 35.782 90.5963C39.3788 92.3508 43.0099 94.093 46.0705 95.4467C49.131 96.8004 51.3265 97.7982 53.3144 97.9516C56.3326 98.1888 61.4859 97.3422 66.7723 96.4916C72.0566 95.6409 77.4358 94.7187 78.8673 94.6512C83.1133 94.4488 86.6094 91.2159 88.9118 89.7027C91.9018 87.7335 95.3433 85.6232 98.1881 82.8791C99.4663 81.5867 99.9825 80.3067 99.9865 78.9059C99.799 77.5093 98.565 77.8651 98.2505 77.2864C98.6658 76.8325 99.8978 75.6751 99.9865 74.7999C100.283 72.1989 97.6578 70.8942 95.5267 70.7204C91.5811 70.5221 87.9965 72.935 86.0146 74.8449C82.9601 77.7976 79.6797 78.7955 75.1575 79.3231C69.7421 79.959 64.6674 80.3905 59.8246 78.8364C59.1028 78.6053 57.4456 77.8692 55.9234 77.2169C55.1613 76.8918 54.4113 76.585 53.75 76.3417C53.254 76.1577 52.9395 75.9757 52.379 75.9C54.0282 75.6833 56.7137 75.2927 59.1956 75.5892C62.1956 75.9491 71.4982 75.9675 75.341 76.6771C76.8107 76.949 78.2604 76.5994 79.3471 75.8898C80.4338 75.1802 81.1817 74.1762 81.6938 73.119C82.72 71.0067 83.1414 69.8534 81.6596 67.782C80.3128 65.9028 78.2422 65.275 75.9438 64.6125C73.6434 63.952 71.0466 63.496 68.7441 63.1259C63.98 62.3591 60.4214 62.5308 56.9093 61.8519C55.6431 61.6086 53.4414 60.3204 50.4172 58.8685C47.391 57.4167 43.4635 55.8933 38.296 55.4086C36.9936 55.2819 35.661 55.2389 34.3344 55.2553Z" fill="#5F5F5F"/>
</g>

</symbol><symbol id="field-repair" viewBox="0 0 61 59">
<path d="M30.3059 20.2622C29.6952 20.2622 29.082 20.3053 28.4725 20.3729C28.0818 20.4159 27.75 20.7625 27.75 21.2062V23.5957C27.75 23.9288 27.476 24.2767 27.1393 24.3738C26.3098 24.611 25.516 24.9072 24.8058 25.319C24.4592 25.5193 24.0881 25.4812 23.8055 25.2084L22.0827 23.5416C21.7706 23.2393 21.3135 23.2184 20.9718 23.4863C20.0355 24.2189 19.195 25.099 18.4159 26.0417C18.1394 26.376 18.1984 26.8714 18.4712 27.1529L20.1375 28.875C20.3845 29.1306 20.4225 29.5461 20.2481 29.8755C19.8659 30.602 19.5304 31.3775 19.3031 32.2097C19.1962 32.5993 18.9136 32.8206 18.5253 32.8206H16.1364C15.6916 32.8206 15.35 33.0971 15.3033 33.5433C15.2394 34.1542 15.1927 34.7663 15.1927 35.3772C15.1927 35.9881 15.2357 36.6014 15.3033 37.2111C15.3463 37.602 15.6928 37.9338 16.1364 37.9338H18.5253C18.8583 37.9338 19.206 38.2067 19.3031 38.5448C19.5403 39.3744 19.8364 40.1685 20.2481 40.879C20.4484 41.2256 20.4103 41.5967 20.1375 41.8794L18.4712 43.6015C18.1689 43.9137 18.148 44.371 18.4159 44.7127C19.1483 45.6493 20.0281 46.4888 20.9718 47.2681C21.3061 47.5447 21.8001 47.4857 22.0827 47.2128L23.8055 45.546C24.0611 45.299 24.4752 45.2609 24.8058 45.4354C25.532 45.8177 26.3074 46.1532 27.1393 46.3806C27.53 46.4876 27.75 46.7691 27.75 47.1587V49.5482C27.75 49.9931 28.0265 50.3348 28.4725 50.3815C29.0833 50.4454 29.694 50.4922 30.3059 50.4922C30.9166 50.4922 31.5286 50.4491 32.1393 50.3815C32.5301 50.3385 32.8618 49.9919 32.8618 49.5482V47.1587C32.8618 46.8256 33.1347 46.4777 33.4726 46.3806C34.302 46.1434 35.0959 45.8472 35.8061 45.4354C36.1527 45.2351 36.5237 45.2732 36.8064 45.546L38.5292 47.2128C38.8413 47.5152 39.2984 47.5361 39.64 47.2681C40.5764 46.5355 41.4157 45.6555 42.1947 44.7127C42.4712 44.3784 42.4122 43.883 42.1394 43.6015L40.4732 41.8794C40.2262 41.6238 40.188 41.2096 40.3625 40.879C40.7447 40.1525 41.0802 39.3769 41.3076 38.5448C41.4145 38.1551 41.6958 37.9338 42.0853 37.9338H44.4742C44.919 37.9338 45.2606 37.6573 45.3073 37.2111C45.3712 36.6002 45.4179 35.9881 45.4179 35.3772C45.4179 34.7663 45.3749 34.153 45.3073 33.5433C45.2643 33.1524 44.9178 32.8206 44.4742 32.8206H42.0853C41.7523 32.8206 41.4046 32.5477 41.3076 32.2097C41.0704 31.38 40.7742 30.586 40.3625 29.8755C40.1622 29.5289 40.2004 29.1577 40.4732 28.875L42.1394 27.1529C42.4417 26.8407 42.4626 26.3834 42.1947 26.0417C41.4624 25.1051 40.5825 24.2656 39.64 23.4863C39.3058 23.2098 38.8118 23.2688 38.5292 23.5416L36.8064 25.2084C36.5508 25.4554 36.1367 25.4935 35.8061 25.319C35.0799 24.9367 34.3045 24.6012 33.4726 24.3738C33.0818 24.2668 32.8618 23.9853 32.8618 23.5957V21.2062C32.8618 20.7613 32.5854 20.4196 32.1393 20.3729C31.5298 20.309 30.9179 20.2622 30.3059 20.2622ZM30.2506 27.8191C34.4175 27.8191 37.8054 31.2092 37.8054 35.376C37.8054 39.5441 34.4163 42.9329 30.2506 42.9329C26.0837 42.9329 22.6958 39.5429 22.6958 35.376C22.6958 31.2092 26.0837 27.8191 30.2506 27.8191Z" fill="#CC1A25"/>
<path d="M25.3759 0C22.1661 0 19.5196 2.70233 19.5196 5.98263V11.1236H2.97737C1.33311 11.1236 0 12.4867 0 14.1652V40.7618H14.2351C13.6349 38.9753 13.3091 37.0594 13.3091 35.0644C13.3091 25.3654 21.0052 17.5033 30.4994 17.5033C39.9935 17.5033 47.6897 25.3654 47.6897 35.0644C47.6897 37.0594 47.3626 38.9753 46.7637 40.7618H60.9987V14.1652C60.9987 12.4855 59.6693 11.1236 58.025 11.1236H41.4792V5.98263C41.4792 2.70359 38.8338 0 35.6228 0H25.3759ZM25.3759 3.98887H35.624C36.7394 3.98887 37.5757 4.84313 37.5757 5.98263V11.1236H23.4243V5.98263C23.4243 4.84313 24.2605 3.98887 25.3759 3.98887ZM0.00492406 43.2305V55.9584C0.00492406 57.6369 1.33437 59 2.97863 59H58.0263C59.6718 59 61 57.6369 61 55.9584V43.2305H45.7196C42.8418 48.8137 37.1072 52.6241 30.5006 52.6241C23.8941 52.6241 18.1595 48.8137 15.2817 43.2305H0.00492406Z" fill="#5F5F5F"/>
</symbol><symbol id="field-service" viewBox="0 0 100 75">
<g clip-path="url(#clip0)">
<path d="M33.0036 18.4523C32.4727 18.4523 31.8819 18.5118 31.351 18.5719C30.6427 18.6916 30.1705 19.2303 30.1705 19.8881V21.3239C30.1705 21.6234 29.9346 21.9222 29.6392 21.9817C28.7535 22.2811 27.8684 22.64 27.1014 23.0585C26.8653 23.2377 26.5113 23.1782 26.2752 22.9389L25.272 21.9222C24.7999 21.5031 24.0916 21.4436 23.5607 21.8627C22.6751 22.5806 21.9082 23.358 21.2 24.2557C20.7871 24.7938 20.787 25.5117 21.2592 25.9904L22.2624 27.0071C22.4985 27.2464 22.5572 27.5458 22.3804 27.8447C21.9083 28.6822 21.5541 29.5198 21.318 30.4169C21.2593 30.7157 20.9638 30.955 20.6684 30.955H19.2519C18.5436 31.0151 18.0121 31.4938 17.9534 32.1516C17.8946 32.6903 17.8353 33.2284 17.8353 33.8267C17.8353 34.3648 17.894 34.963 17.9534 35.5018C18.0714 36.2197 18.6029 36.6983 19.2519 36.6983H20.6684C20.9638 36.6983 21.2593 36.9376 21.318 37.2364C21.6128 38.1342 21.9676 39.0312 22.3804 39.8087C22.5578 40.048 22.4985 40.4069 22.2624 40.6462L21.2592 41.6636C20.8458 42.1422 20.7871 42.86 21.2 43.3981C21.9082 44.2952 22.6751 45.0734 23.5607 45.7913C24.0916 46.2104 24.7999 46.2103 25.272 45.7317L26.2752 44.7144C26.5113 44.475 26.806 44.4149 27.1014 44.5947C27.9277 45.0733 28.7542 45.4322 29.6392 45.6715C29.934 45.7317 30.1705 46.0306 30.1705 46.3294V47.7652C30.2292 48.4831 30.7015 49.0218 31.351 49.0813C31.8819 49.1408 32.4134 49.2011 33.0036 49.2011C33.5351 49.2011 34.1253 49.1408 34.6562 49.0813C35.3644 48.9617 35.8366 48.423 35.8366 47.7652V46.3294C35.8366 46.0306 36.0728 45.7311 36.3682 45.6715C37.2538 45.3727 38.1389 45.0132 38.9065 44.5947C39.1425 44.4156 39.4965 44.475 39.7326 44.7144L40.7358 45.7317C41.208 46.1502 41.9163 46.2104 42.4472 45.7913C43.3328 45.0734 44.0996 44.2958 44.8079 43.3981C45.2207 42.8594 45.2207 42.1416 44.7491 41.6636L43.7457 40.6462C43.5096 40.4069 43.4507 40.1081 43.6274 39.8087C44.0996 38.9711 44.4538 38.1335 44.6899 37.2364C44.7486 36.9376 45.0441 36.6983 45.3395 36.6983H46.756C47.4643 36.6388 47.9958 36.1602 48.0545 35.5018C48.1132 34.9636 48.1725 34.4249 48.1725 33.8267C48.1725 33.2879 48.1138 32.6903 48.0545 32.1516C47.9365 31.4337 47.4049 30.955 46.756 30.955H45.3395C45.0441 30.955 44.7492 30.7157 44.6899 30.4169C44.3951 29.5198 44.0409 28.6221 43.6274 27.8447C43.45 27.6054 43.5096 27.2464 43.7457 27.0071L44.7491 25.9904C45.162 25.5117 45.2214 24.7938 44.8079 24.2557C44.0996 23.3586 43.3328 22.5806 42.4472 21.8627C41.9163 21.4436 41.208 21.4436 40.7358 21.9222L39.7326 22.9389C39.4965 23.1782 39.2019 23.2377 38.9065 23.0585C38.0801 22.5799 37.2538 22.221 36.3682 21.9817C36.0734 21.9222 35.8366 21.6228 35.8366 21.3239V19.8881C35.7779 19.1702 35.3057 18.632 34.6562 18.5719C34.1247 18.5118 33.5938 18.4523 33.0036 18.4523ZM33.0036 25.8105C37.3712 25.8105 40.9126 29.4001 40.9126 33.8273C40.9126 38.2544 37.3712 41.844 33.0036 41.844C28.636 41.844 25.0948 38.2544 25.0948 33.8273C25.0948 29.4001 28.636 25.8105 33.0036 25.8105Z" fill="#CC1A25"/>
<path d="M33.0034 28.4956C35.9086 28.4956 38.2633 30.8825 38.2633 33.8273C38.2633 36.7714 35.9086 39.1589 33.0034 39.1589C30.0982 39.1589 27.7434 36.7721 27.7434 33.8273C27.7434 30.8825 30.0982 28.4956 33.0034 28.4956Z" fill="#CC1A25"/>
<path d="M82.0668 59.4321C86.3086 59.4321 89.7464 62.9147 89.7464 67.2123C89.7464 71.5139 86.3086 74.9966 82.0668 74.9966C77.8271 74.9966 74.3893 71.5139 74.3893 67.2123C74.3893 62.9127 77.8271 59.4321 82.0668 59.4321Z" fill="#5F5F5F"/>
<path d="M17.8885 59.4321C22.1283 59.4321 25.5621 62.9147 25.5621 67.2123C25.5621 71.5139 22.1263 74.9966 17.8885 74.9966C13.6448 74.9966 10.209 71.5139 10.209 67.2123C10.209 62.9127 13.6448 59.4321 17.8885 59.4321Z" fill="#5F5F5F"/>
<path d="M1.51332 7.72549C0.677366 7.72549 -0.00256348 8.41271 -0.00256348 9.26006V55.0736V55.5419V62.5416C-0.00256348 63.389 0.675366 64.0782 1.51332 64.0782H6.83304C7.44301 64.0782 7.99297 63.7073 8.22896 63.1356C9.80487 59.3043 13.5207 56.6082 17.8884 56.6082C22.2502 56.6082 25.964 59.3043 27.5419 63.1356C27.7779 63.7052 28.3279 64.0782 28.9378 64.0782H71.0175C71.6274 64.0782 72.1774 63.7073 72.4154 63.1356C73.9913 59.3043 77.7031 56.6082 82.0688 56.6082C86.2266 56.6082 89.9164 59.5009 91.5843 63.1822C91.8323 63.7275 92.3703 64.0762 92.9622 64.0762H98.4779C99.3139 64.0762 99.9939 63.389 99.9939 62.5396V37.999C99.9939 37.7314 99.9239 37.4678 99.7919 37.2367L88.6185 17.4214C88.3485 16.943 87.8486 16.649 87.3046 16.647H66.1177V9.256C66.1177 8.40865 65.4398 7.72144 64.6019 7.72144L1.51332 7.72549ZM33.0096 14.63C43.471 14.63 51.9486 23.2231 51.9486 33.8271C51.9486 44.4311 43.471 53.0303 33.0096 53.0303C22.5481 53.0303 14.0646 44.4311 14.0646 33.8271C14.0646 23.2231 22.5481 14.63 33.0096 14.63ZM68.7256 20.4134H85.1367C85.6787 20.4134 86.1786 20.7054 86.4506 21.1817L94.9141 36.1015C95.3281 36.8374 95.0762 37.776 94.3502 38.1976C94.1222 38.3294 93.8642 38.3983 93.6002 38.4003H68.7256C67.8896 38.4003 67.2097 37.7131 67.2097 36.8658V21.952C67.2097 21.1006 67.8876 20.4114 68.7256 20.4134Z" fill="#5F5F5F"/>
<path d="M76.7245 10.3894C74.3306 10.3894 72.3607 12.2481 72.1567 14.6219C75.1986 14.6462 78.2444 14.6404 81.2883 14.6282C81.0843 12.2524 79.1183 10.3894 76.7245 10.3894Z" fill="#CC1A25"/>
<path d="M76.1884 7.65472C75.7384 5.59311 75.5626 3.4786 75.4126 1.37847C75.3566 0.646671 75.9926 -0.0301591 76.6946 0.000248192C77.3945 -0.0382676 78.0406 0.628411 77.9926 1.36224C77.8686 3.46439 77.7166 5.58069 77.2926 7.64838C77.2206 8.01327 77.1325 8.91763 76.7485 8.92169C76.3645 8.92169 76.2644 8.0196 76.1884 7.65472Z" fill="#CC1A25"/>
<path d="M72.2365 9.05784C70.8006 7.52734 69.5707 5.81238 68.3687 4.09133C67.9468 3.49332 68.1489 2.58093 68.7629 2.24036C69.3428 1.84102 70.2346 2.07224 70.5686 2.72498C71.5346 4.58996 72.4847 6.48121 73.1767 8.47187C73.3027 8.82257 73.6867 9.64139 73.3587 9.84613C73.0307 10.0509 72.4865 9.33151 72.2365 9.05784Z" fill="#CC1A25"/>
<path d="M81.2763 9.00042C82.6943 7.45168 83.9021 5.72079 85.082 3.98758C85.496 3.38551 85.284 2.47506 84.664 2.14058C84.0801 1.74731 83.1901 1.99057 82.8641 2.64736C81.9202 4.5245 80.9944 6.42592 80.3264 8.42672C80.2044 8.77944 79.8304 9.6047 80.1604 9.80336C80.4924 10.004 81.0283 9.27611 81.2763 9.00042Z" fill="#CC1A25"/>
</g>

</symbol><symbol id="guarantee" viewBox="0 0 94 94">
<path d="M15.2612 26.1708C15.0109 26.2784 14.7681 26.4171 14.5402 26.5955C12.2764 28.3563 10.3275 30.2779 8.54343 32.4989C7.48051 33.8202 7.48796 35.5943 8.68881 36.7756L11.242 39.2827C11.8416 39.8681 11.978 40.5996 11.5373 41.3473C10.3259 43.4001 9.40243 45.4677 8.83873 47.6887C8.65283 48.4201 7.94376 49.0159 7.19416 49.0159C5.99332 49.0159 5.07427 48.895 3.59158 49.0159C1.79555 49.1619 0.458278 50.3402 0.293368 51.9654C0.161439 53.2927 -0.00646973 54.6214 -0.00646973 56.0947C-0.00646973 57.4219 0.101472 58.9011 0.293368 60.2239C0.554226 62.001 1.94547 63.1734 3.59158 63.1734H7.19416C7.94376 63.1734 8.61985 63.7795 8.83873 64.5006C9.51786 66.7319 10.4159 68.9662 11.5373 70.842C11.9196 71.4791 11.8431 72.3168 11.242 72.9066C10.3919 73.7428 9.64529 74.343 8.68881 75.4137C7.63638 76.595 7.48051 78.3691 8.54343 79.686C10.3275 81.907 12.2764 83.833 14.5402 85.5894C15.879 86.635 17.6824 86.6232 18.8833 85.4419L21.4319 82.9349C22.0316 82.345 22.7707 82.2063 23.5308 82.6399C25.6236 83.8315 27.7195 84.7399 29.9773 85.2944C30.7209 85.4773 31.3265 86.1793 31.3265 86.9166C31.3265 88.0979 31.2036 88.9975 31.3265 90.456C31.4809 92.2227 32.6788 93.5382 34.3249 93.7004C35.6742 93.8317 37.0249 93.9954 38.5226 93.9954C39.8719 93.9954 41.3771 93.8892 42.7203 93.7004C44.5269 93.4438 45.7187 92.0767 45.7187 90.456V86.9166C45.7187 86.1793 46.3349 85.5083 47.068 85.2944C49.3363 84.6249 51.6075 83.743 53.5145 82.6399C54.1621 82.2638 55.0182 82.345 55.6134 82.9349C56.4634 83.771 57.0736 84.501 58.162 85.4419C59.3628 86.4757 61.1709 86.635 62.5141 85.5894C64.7719 83.833 66.7209 81.907 68.5109 79.686C69.5678 78.3691 69.5573 76.595 68.3564 75.4137L65.8124 72.9066C65.2127 72.3168 65.0732 71.5897 65.508 70.842C66.7193 68.7833 67.6428 66.7216 68.2065 64.5006C68.3924 63.7692 69.1061 63.1734 69.8602 63.1734C71.055 63.1734 71.971 63.2943 73.4537 63.1734C75.2542 63.0215 76.587 61.8432 76.7519 60.2239C76.8853 58.8967 77.0517 57.5679 77.0517 56.0947C77.0517 54.7674 76.9438 53.2868 76.7519 51.9654C76.491 50.1883 75.0998 49.0159 73.4537 49.0159H69.8602C69.1061 49.0159 68.4239 48.4098 68.2065 47.6887C67.5379 45.4957 66.6593 43.2998 65.5649 41.4446C62.8544 44.1021 60.1439 46.7581 57.4364 49.417C58.198 51.5038 58.6117 53.7513 58.6117 56.0947C58.6117 67.0062 49.6196 75.8561 38.5226 75.8561C27.4316 75.8561 18.4335 67.0062 18.4335 56.0947C18.4335 48.8286 22.4184 42.4814 28.3567 39.0482C24.0121 34.7744 19.9117 30.7454 15.2612 26.1708Z" fill="#5F5F5F"/>
<path d="M17.9523 22.3925C17.0003 23.329 17.0003 24.8376 17.9523 25.7741C28.4421 36.0928 37.782 45.2804 47.3858 54.7276C47.8626 55.1966 48.6286 55.1966 49.1053 54.7276C63.4646 40.6026 78.365 25.9452 93.2819 11.2715C94.2338 10.3351 94.2338 8.82641 93.2819 7.88996L85.9764 0.703564C85.0244 -0.232894 83.4907 -0.232894 82.5387 0.703564L48.2448 34.4367L28.6955 15.2061C27.7435 14.2697 26.2097 14.2697 25.2577 15.2061L17.9523 22.3925Z" fill="#CC1A25"/>
</symbol><symbol id="instagram" viewBox="0 0 30.99 29.65"><path class="cls-1" d="M28.73,24.17a2.91,2.91,0,0,1-3,2.84h-19a2.91,2.91,0,0,1-3-2.84V12H8.41a6,6,0,0,0-.3.84,7.67,7.67,0,0,0-.33,2.21,8.31,8.31,0,0,0,8.48,8.11,8.31,8.31,0,0,0,8.47-8.11,7.67,7.67,0,0,0-.33-2.21q-.13-.43-.3-.84h4.63V24.17ZM11.84,12a5.57,5.57,0,0,1,8.84,0,4.32,4.32,0,0,1,.33.5,4.94,4.94,0,0,1,.71,2.55,5.35,5.35,0,0,1-5.45,5.22,5.35,5.35,0,0,1-5.46-5.22,5.05,5.05,0,0,1,.7-2.55A4.32,4.32,0,0,1,11.84,12ZM27.48,3.67h.68v5H22.93v-5ZM25.76.25h-19A5.87,5.87,0,0,0,.76,6V24.17a5.87,5.87,0,0,0,6,5.73h19a5.87,5.87,0,0,0,6-5.73V6A5.87,5.87,0,0,0,25.76.25Z" transform="translate(-0.76 -0.25)"/></symbol><symbol id="mail" viewBox="0 0 26 17">
<path d="M25.5127 0.506592H0.5V16.5066H25.5127V0.506592Z" stroke="black" stroke-width="0.75" stroke-miterlimit="10" stroke-linecap="round" stroke-linejoin="round"/>
<path d="M0.5 0.506592L13.0063 8.50659L25.5127 0.506592" stroke="black" stroke-width="0.75" stroke-miterlimit="10" stroke-linecap="round" stroke-linejoin="round"/>
</symbol><symbol id="profile" viewBox="0 0 25.76 25.76"><path class="cls-1" d="M16.71,16.48a1.89,1.89,0,0,1-.79-3.22,9.35,9.35,0,0,0,2.56-6.51C18.48,2.87,16,.5,13,.5S7.53,2.87,7.53,6.75a9.32,9.32,0,0,0,2.54,6.49h0a1.9,1.9,0,0,1-.79,3.24C4.19,17.47.5,20.27.5,22.38.5,25,6.1,25.51,13,25.51s12.5-.54,12.5-3.13C25.51,20.27,21.8,17.46,16.71,16.48Z" transform="translate(-0.13 -0.13)"/></symbol><symbol id="repair-base" viewBox="0 0 81 98">
<g clip-path="url(#clip0)">
<path d="M19.0409 57.4712C18.5708 57.4654 18.1027 57.5477 17.6603 57.7104C14.4409 58.8629 11.5369 60.2643 9.02361 61.9186C2.11268 66.466 -1.34483 73.1969 0.480098 79.5338C2.30503 85.8707 8.34319 90.7317 17.1128 93.9834C34.65 100.489 58.148 99.0679 71.9699 89.9712C78.8808 85.4238 82.3382 78.693 80.5133 72.358C78.6864 66.0211 72.6502 61.166 63.8806 57.9143C61.9089 57.1773 59.7071 58.1612 58.9613 60.1076C58.2154 62.0559 59.2112 64.2315 61.1809 64.9685C61.1849 64.9705 61.1889 64.9724 61.1928 64.9724C68.6393 67.7342 72.3447 71.5661 73.1679 74.4219C73.9911 77.2778 73.0013 80.2355 67.7407 83.699C57.2176 90.6259 34.6897 92.4487 19.7967 86.9253C12.3502 84.1635 8.63873 80.3256 7.81552 77.4698C6.99232 74.614 7.98817 71.6563 13.2507 68.1929C15.153 66.9404 17.5214 65.78 20.2568 64.8019C22.2464 64.1159 23.2957 61.9657 22.6014 59.9997C22.0738 58.4983 20.6476 57.4869 19.0409 57.4712Z" fill="#5F5F5F"/>
<path d="M40.4996 0.00195312C25.4777 0.00195312 13.3003 12.031 13.3003 26.8727C13.3003 32.6705 15.1549 38.045 18.3148 42.4375C18.3188 42.4414 18.3228 42.4513 18.3268 42.4552C25.6185 53.71 37.8515 63.5299 39.3155 77.8835C39.4603 78.3892 39.97 78.7656 40.4996 78.7656C41.0293 78.7656 41.545 78.3892 41.6898 77.8835C43.1557 63.5299 55.3828 53.71 62.6726 42.4552C62.6766 42.4494 62.6745 42.4395 62.6785 42.4375C65.8384 38.047 67.6931 32.6725 67.6931 26.8727C67.6951 12.031 55.5216 0.00195312 40.4996 0.00195312ZM40.4937 7.42085C41.2911 7.42085 42.0905 7.48553 42.886 7.56785C43.4672 7.62861 43.8282 8.06771 43.8282 8.64005V11.7154C43.8282 12.2172 44.1138 12.5837 44.6216 12.7209C45.7067 13.0129 46.7203 13.4422 47.6645 13.9342C48.0949 14.1576 48.6325 14.1126 48.9658 13.7931L51.2092 11.6429C51.5762 11.292 52.2249 11.2195 52.6593 11.5762C53.8891 12.5798 55.0336 13.6598 55.9878 14.8652C56.3369 15.3043 56.3071 15.8962 55.9124 16.298L53.7423 18.5149C53.3873 18.8775 53.3376 19.3538 53.5995 19.8007C54.135 20.7141 54.5179 21.7411 54.8273 22.8074C54.9523 23.2426 55.4085 23.5914 55.843 23.5914H58.9552C59.5345 23.5914 59.9828 24.0207 60.0403 24.5225C60.1296 25.3085 60.1891 26.0945 60.1891 26.8805C60.1891 27.6665 60.1236 28.4584 60.0403 29.2444C59.9788 29.8187 59.5345 30.1754 58.9552 30.1754H55.843C55.3351 30.1754 54.9642 30.4576 54.8273 30.9594C54.5318 32.0316 54.0974 33.0312 53.5995 33.9661C53.3733 34.3915 53.419 34.9227 53.7423 35.252L55.9124 37.4688C56.2694 37.8314 56.3468 38.4704 55.9878 38.9016C54.9721 40.1169 53.8792 41.2478 52.6593 42.1906C52.213 42.5356 51.6159 42.5062 51.2092 42.1161L48.9658 39.9718C48.5968 39.619 48.1148 39.5719 47.6645 39.8307C46.7401 40.3599 45.7007 40.7382 44.6216 41.0439C44.1813 41.1674 43.8282 41.6183 43.8282 42.0475V45.1229C43.8282 45.6952 43.3958 46.1382 42.886 46.1951C42.0905 46.2833 41.2892 46.3361 40.4937 46.3361C39.6983 46.3361 38.9028 46.2774 38.1074 46.1951C37.5262 46.1343 37.1651 45.6952 37.1651 45.1229V42.0475C37.1651 41.5477 36.8795 41.1792 36.3717 41.0439C35.2867 40.7519 34.2731 40.3226 33.3289 39.8307C32.8984 39.6072 32.3608 39.6523 32.0276 39.9718L29.7841 42.1161C29.4151 42.469 28.7705 42.5454 28.3341 42.1906C27.1042 41.187 25.9597 40.1071 25.0056 38.9016C24.6565 38.4606 24.6862 37.8706 25.0809 37.4688L27.251 35.252C27.6061 34.8894 27.6557 34.4111 27.3939 33.9661C26.8583 33.0528 26.4755 32.0257 26.166 30.9594C26.0411 30.5243 25.5829 30.1754 25.1485 30.1754H22.0361C21.4569 30.1754 21.0086 29.7481 20.9511 29.2444C20.8638 28.4584 20.8023 27.6665 20.8023 26.8805C20.8023 26.0945 20.8678 25.3085 20.9511 24.5225C21.0126 23.9482 21.4569 23.5914 22.0361 23.5914H25.1485C25.6563 23.5914 26.0272 23.3092 26.166 22.8074C26.4616 21.7353 26.896 20.7337 27.3939 19.8007C27.62 19.3754 27.5743 18.8442 27.251 18.5149L25.0809 16.298C24.7259 15.9335 24.6466 15.2945 25.0056 14.8652C26.0212 13.65 27.1141 12.519 28.3341 11.5762C28.7784 11.2313 29.3775 11.2548 29.7841 11.6429L32.0276 13.7931C32.3946 14.1439 32.8766 14.1929 33.3289 13.9342C34.2532 13.4049 35.2926 13.0267 36.3717 12.7209C36.8121 12.5974 37.1651 12.1466 37.1651 11.7154V8.64005C37.1651 8.06771 37.5996 7.62469 38.1074 7.56785C38.9028 7.47965 39.6963 7.42085 40.4937 7.42085Z" fill="#CC1A25"/>
<path d="M30.5776 26.8824C30.5776 21.5157 34.9951 17.1526 40.4243 17.1526C45.8535 17.1526 50.271 21.5177 50.271 26.8824C50.271 32.2471 45.8535 36.6122 40.4243 36.6122C34.9951 36.6122 30.5776 32.2491 30.5776 26.8824Z" fill="#5F5F5F"/>
</g>

</symbol><symbol id="repair" viewBox="0 0 65 65">
<path d="M40.7028 48.8407C41.5416 48.8407 42.4746 48.7465 43.3122 48.6536C44.4299 48.4677 45.177 47.6301 45.177 46.6055V44.3702C45.177 43.9043 45.5475 43.4397 46.0134 43.3467C47.411 42.8809 48.8112 42.3208 50.0218 41.6691C50.3947 41.3891 50.9523 41.4832 51.3253 41.8562L52.9075 43.4384C53.6534 44.0902 54.7712 44.1819 55.6088 43.5301C57.0065 42.4125 58.2207 41.202 59.3384 39.8043C59.9901 38.9655 59.9876 37.8479 59.2429 37.1032L57.6606 35.521C57.2876 35.148 57.1936 34.6797 57.4736 34.2138C58.2183 32.9091 58.7783 31.6068 59.1512 30.2092C59.2442 29.7433 59.71 29.3692 60.1759 29.3692H62.4112C63.5289 29.2762 64.3701 28.5328 64.463 27.5081C64.556 26.6693 64.6501 25.8304 64.6501 24.8987C64.6501 24.0599 64.556 23.1269 64.463 22.2893C64.2772 21.1717 63.436 20.4282 62.4112 20.4282H60.1759C59.71 20.4282 59.2454 20.0541 59.1512 19.5882C58.6853 18.1905 58.1266 16.7941 57.4736 15.5836C57.1936 15.2106 57.2876 14.653 57.6606 14.2801L59.2429 12.6941C59.8947 11.9495 59.9901 10.8306 59.3384 9.993C58.2207 8.59537 57.0065 7.38482 55.6088 6.2672C54.77 5.61546 53.6522 5.61301 52.9075 6.35891L51.3253 7.94485C50.9523 8.3178 50.4877 8.40828 50.0218 8.12827C48.717 7.38237 47.411 6.82724 46.0134 6.45429C45.5475 6.36136 45.177 5.89182 45.177 5.42595V3.1907C45.0841 2.07308 44.3369 1.23548 43.3122 1.14255C42.4734 1.04962 41.6346 0.95546 40.7028 0.95546C39.8639 0.95546 38.9347 1.04962 38.097 1.14255C36.9794 1.32841 36.2323 2.16602 36.2323 3.1907V5.42595C36.2323 5.89182 35.8617 6.36014 35.3958 6.45429C33.9981 6.92017 32.5981 7.4753 31.3875 8.12827C31.0145 8.40828 30.4569 8.3178 30.084 7.94485L28.498 6.35891C27.7521 5.70717 26.6344 5.61546 25.7968 6.2672C24.3991 7.38482 23.1886 8.59537 22.0709 9.993C21.4192 10.8318 21.4179 11.9495 22.1626 12.6941L23.7486 14.2801C24.1215 14.653 24.2157 15.1177 23.9357 15.5836C23.1898 16.8883 22.631 18.1905 22.258 19.5882C22.1651 20.0541 21.6992 20.4282 21.2345 20.4282H18.9955C17.8779 20.5211 17.0403 21.2646 16.9473 22.2893C16.8544 23.1281 16.7603 23.9669 16.7603 24.8987C16.7603 25.7375 16.8544 26.6705 16.9473 27.5081C17.1332 28.6257 17.9708 29.3692 18.9955 29.3692H21.2345C21.7004 29.3692 22.1651 29.7433 22.258 30.2092C22.7239 31.6068 23.2839 33.0033 23.9357 34.2138C24.0262 34.3349 24.0726 34.4755 24.0885 34.6222C25.7601 32.9262 27.4293 31.229 29.1167 29.5477C28.5396 28.1109 28.2192 26.5409 28.2192 24.8975C28.2192 18.0034 33.8086 12.4141 40.7028 12.4141C47.5969 12.4141 53.1901 18.0034 53.1901 24.8975C53.1901 31.7915 47.5969 37.3808 40.7028 37.3808C39.0654 37.3808 37.5002 37.0678 36.0671 36.4943C34.343 38.1377 32.6518 39.819 30.9729 41.515C31.1099 41.5346 31.2468 41.5847 31.3862 41.6679C32.6909 42.4138 33.9969 42.9726 35.3946 43.3455C35.8605 43.4384 36.231 43.9031 36.231 44.369V46.6042C36.3239 47.7219 37.071 48.5595 38.0957 48.6524C38.9358 48.7465 39.7722 48.8407 40.7028 48.8407Z" fill="#5F5F5F"/>
<path d="M6.3217 47.8341C4.06326 50.3351 3.4209 53.3798 4.52592 57.3397C4.54541 57.4083 4.59377 57.4756 4.656 57.529C4.84142 57.6893 5.17022 57.7402 5.33993 57.446L7.28027 54.0788C7.97672 52.8694 9.51361 52.4615 10.7223 53.1586C11.2516 53.4641 11.7815 53.769 12.3107 54.0744C13.5188 54.7721 13.9305 56.3102 13.2328 57.5182L11.3434 60.7918C11.1095 61.1966 11.249 61.5411 11.6356 61.5907C13.5974 61.839 16.2153 60.1149 17.448 58.9904C18.7428 57.8099 19.7951 56.1279 19.7762 54.686C19.748 52.5269 19.4267 50.6758 20.7354 49.3672C26.2605 43.8422 31.785 38.3178 37.3102 32.7927C38.6389 31.464 40.8176 31.3068 42.9358 31.3219C44.7404 31.3351 45.9831 31.0189 46.9762 30.0761C47.0428 30.0132 47.1095 29.9503 47.1723 29.8799C49.4126 27.3632 50.0713 24.3361 48.9656 20.3768C48.8889 20.1015 48.3779 19.8784 48.1523 20.27L46.2119 23.6372C45.5154 24.8465 43.9786 25.2545 42.7699 24.5574C42.2406 24.2519 41.7126 23.9452 41.1834 23.6397C39.9753 22.942 39.561 21.4064 40.2593 20.1977L42.1488 16.9242C42.3827 16.5194 42.2431 16.1749 41.8572 16.1259C39.8954 15.8776 37.275 17.6043 36.0423 18.7288C34.7475 19.9092 33.6971 21.5894 33.7166 23.0306C33.7449 25.1897 34.0698 27.037 32.7611 28.3457C27.2348 33.872 21.7084 39.3982 16.1827 44.9239C14.8539 46.2527 12.6747 46.4104 10.557 46.3947C8.63174 46.3802 7.32741 46.7203 6.3217 47.8341Z" fill="#CC1A25"/>
</symbol><symbol id="restoring-holes" viewBox="0 0 62 61">
<g clip-path="url(#clip0)">
<path d="M28.7845 -0.000854492C14.0253 1.2694 2.26543 13.0306 0.995178 27.7897L7.08806 28.3202C8.10375 16.5124 17.5084 7.104 29.3162 6.0883L28.7845 -0.000854492Z" fill="#CC1A25"/>
<path d="M34.0946 -0.000732422L33.564 6.09221C46.07 7.16965 55.8879 17.6581 55.8879 30.4437C55.8879 31.8942 55.7594 33.3144 55.5175 34.6956L61.5373 35.7579C61.8397 34.0314 61.9998 32.2571 61.9998 30.445C61.9985 14.461 49.727 1.34513 34.0946 -0.000732422Z" fill="#5F5F5F"/>
<path d="M7.08659 32.5669L0.993652 33.0974C2.33825 48.7324 15.4554 61.0014 31.4381 61.0014C36.0566 61.0014 40.4358 59.9744 44.3612 58.1408L41.7791 52.6024C38.6387 54.0705 35.1342 54.8908 31.4381 54.8908C18.6537 54.8908 8.16404 45.0741 7.08659 32.5669Z" fill="#5F5F5F"/>
<path d="M54.4199 38.801C52.6909 43.5544 49.5292 47.6159 45.4588 50.4715L48.9659 55.4794C54.0532 51.9119 58.0051 46.8334 60.1663 40.8954L54.4199 38.801Z" fill="#CC1A25"/>
<path d="M31.4961 11.173C30.7148 11.173 29.9309 11.2284 29.1509 11.3154C28.6519 11.3708 28.2272 11.8132 28.2272 12.3815V15.4374C28.2272 15.8633 27.8781 16.3082 27.4459 16.4317C26.3848 16.7354 25.3691 17.1134 24.4618 17.6402C24.0182 17.8973 23.5431 17.8481 23.1827 17.4978L20.98 15.3656C20.5817 14.98 19.9957 14.9523 19.5584 15.295C18.3613 16.2326 17.2864 17.3567 16.2896 18.5639C15.9367 18.9924 16.0111 19.6237 16.3601 19.9854L18.4923 22.1882C18.8086 22.5145 18.8566 23.0451 18.6348 23.4672C18.1458 24.396 17.7173 25.3877 17.4262 26.4525C17.2901 26.9516 16.9285 27.2339 16.4307 27.2339H13.3748C12.8065 27.2339 12.3692 27.588 12.3087 28.1576C12.2268 28.9376 12.1663 29.7202 12.1663 30.5028C12.1663 31.2853 12.2218 32.0679 12.3087 32.8479C12.3642 33.3469 12.8065 33.7716 13.3748 33.7716H16.4307C16.8567 33.7716 17.3015 34.1207 17.4262 34.5529C17.7287 35.614 18.108 36.6297 18.6348 37.537C18.8919 37.9806 18.8427 38.4557 18.4923 38.8161L16.3601 41.0189C15.9745 41.4184 15.9468 42.0031 16.2896 42.4404C17.2271 43.6375 18.3512 44.7124 19.5584 45.7092C19.9856 46.0621 20.6183 45.9877 20.98 45.6374L23.1827 43.5052C23.5091 43.1889 24.0396 43.141 24.4618 43.3628C25.3905 43.8518 26.3823 44.2802 27.4459 44.5713C27.9449 44.7074 28.2272 45.0691 28.2272 45.5656V48.6215C28.2272 49.1898 28.5813 49.6271 29.1509 49.6876C29.9309 49.7695 30.7135 49.83 31.4961 49.83C32.2774 49.83 33.0612 49.7746 33.8413 49.6876C34.3403 49.6322 34.765 49.1898 34.765 48.6215V45.5656C34.765 45.1396 35.114 44.6948 35.5463 44.5713C36.6073 44.2676 37.623 43.8883 38.5304 43.3628C38.9739 43.1057 39.4478 43.1549 39.8094 43.5052L42.0122 45.6374C42.4104 46.023 42.9964 46.0507 43.4337 45.7092C44.6309 44.7717 45.7058 43.6463 46.7026 42.4404C47.0554 42.0119 46.9811 41.3805 46.632 41.0189L44.4998 38.8161C44.1835 38.4897 44.1356 37.9592 44.3574 37.537C44.8463 36.6083 45.2748 35.6165 45.5659 34.5529C45.702 34.0539 46.0637 33.7716 46.5614 33.7716H49.6173C50.1857 33.7716 50.623 33.4175 50.6834 32.8479C50.7654 32.0679 50.8258 31.2841 50.8258 30.5028C50.8258 29.7215 50.7704 28.9376 50.6834 28.1576C50.628 27.6585 50.1857 27.2339 49.6173 27.2339H46.5614C46.1355 27.2339 45.6894 26.8848 45.5659 26.4525C45.2635 25.3915 44.8841 24.3758 44.3574 23.4672C44.1003 23.0236 44.1495 22.5498 44.4998 22.1882L46.632 19.9854C47.0176 19.5859 47.0453 19.0012 46.7026 18.5639C45.765 17.3667 44.6409 16.2918 43.4337 15.295C43.0052 14.9409 42.3739 15.0165 42.0122 15.3656L39.8094 17.4978C39.4818 17.8141 38.9525 17.862 38.5304 17.6402C37.6016 17.1512 36.6098 16.7228 35.5463 16.4317C35.0472 16.2956 34.765 15.9339 34.765 15.4374V12.3815C34.765 11.8132 34.4109 11.3759 33.8413 11.3154C33.0612 11.2322 32.2787 11.173 31.4961 11.173ZM31.4255 20.836C36.7548 20.836 41.0898 25.171 41.0898 30.5002C41.0898 35.8295 36.7548 40.1645 31.4255 40.1645C26.0963 40.1645 21.7613 35.8295 21.7613 30.5002C21.7613 25.171 26.0963 20.836 31.4255 20.836Z" fill="#5F5F5F"/>
</g>

</symbol><symbol id="rub" viewBox="0 0 13 15">
<path d="M1.71303 0H7.59443C8.24158 0 8.85066 0.0528172 9.4407 0.158451C10.0307 0.299296 10.6398 0.598592 11.2489 1.03873C11.7628 1.37324 12.1816 1.84859 12.5051 2.48239C12.8477 3.08099 13 3.80282 13 4.63028C13 5.73944 12.5813 6.76056 11.7247 7.67606C10.8492 8.64437 9.59297 9.13732 7.91801 9.15493H4.16837V10.9683V11.3732V12.007V12.4824V15H1.71303V12.412V11.831V11.3908V11.0035V9.17254L0 9.19014V7.00704H1.71303V0ZM4.16837 7.00704H7.82284C8.73646 6.98944 9.42167 6.72535 9.87848 6.21479C10.3163 5.72183 10.5447 5.17606 10.5447 4.55986C10.5447 4.0493 10.4495 3.62676 10.2782 3.29225C10.0879 2.97535 9.84041 2.74648 9.4978 2.55282C8.98389 2.25352 8.41289 2.11268 7.72768 2.13028H4.16837V7.00704Z" fill="black"/>
<path d="M7 11H0V13H7V11Z" fill="black"/>
</symbol><symbol id="search" viewBox="0 0 19.74 19.84"><g class="cls-2"><path class="cls-3" d="M7.33,14.27a7,7,0,1,0-6.95-7v.1a7,7,0,0,0,7,7Z" transform="translate(0 0.1)"/><path class="cls-3" d="M12.23,12.22l7.14,7.14" transform="translate(0 0.1)"/></g></symbol><symbol id="vk" viewBox="0 0 34.08 19.11"><path class="cls-1" d="M34.36,2c-.43-.34-2.06-.33-3.68-.32A21.63,21.63,0,0,0,27,1.85c-.36.13-1.15,2-2.18,3.84-1.17,2.13-2.6,4.18-3.51,4.16-1.18,0-.91-3.52-.84-6.08,0-1.7-.25-2.24-.51-2.4a10.57,10.57,0,0,0-2.34-.8S12.5.2,11.77,2.33c1,.12,2.66-.17,2,6.41,0,.32-.78,3-3.18-.64C10,7.19,7.71,1.72,6.92,1.7,4.27,1.63,1.66,1.52.73,2s1.15,4.24,4.52,9.29C8,15.44,10.92,18.66,16,19.48a12.85,12.85,0,0,0,4.18-.16c.53-.25-.12-3.83,1.67-4.16.81-.15,3.86,3.72,5,4.16a12.43,12.43,0,0,0,3.85.32c1.72-.05,3.66.15,3.85-1,.42-2.47-5.18-5.68-5.35-7.21-.12-1.1,2.05-3.11,3.18-4.64C33.73,5,35.22,2.7,34.36,2Z" transform="translate(-0.53 -0.55)"/></symbol><symbol id="whatsapp" viewBox="0 0 30.99 29.66"><path class="cls-1" d="M16.54,26.94a13.22,13.22,0,0,1-7-2L4.59,26.42l1.6-4.51a11.68,11.68,0,0,1-2.44-7.12,11.5,11.5,0,0,1,.07-1.18,12.56,12.56,0,0,1,12.72-11c6.71,0,12.24,4.94,12.75,11.19,0,.31,0,.63,0,.95C29.33,21.5,23.59,26.94,16.54,26.94Zm15.2-12.51C31.53,6.62,24.81.35,16.53.35S1.69,6.47,1.33,14.16c0,.21,0,.42,0,.64A13.8,13.8,0,0,0,3.5,22.26L.76,30l8.42-2.56a15.7,15.7,0,0,0,7.35,1.8c8.41,0,15.22-6.46,15.22-14.44C31.75,14.68,31.74,14.56,31.74,14.43Z" transform="translate(-0.76 -0.35)"/><path class="cls-1" d="M23.51,17.71c-.38-.18-2.21-1-2.55-1.15s-.59-.18-.84.18-1,1.15-1.18,1.39-.43.27-.81.09a10.06,10.06,0,0,1-3-1.76A11,11,0,0,1,13.05,14c-.21-.36,0-.54.17-.72s.37-.42.56-.62a1.55,1.55,0,0,0,.13-.17c.09-.13.15-.26.24-.42a.62.62,0,0,0,0-.62C14,11.29,13.28,9.54,13,8.83s-.62-.59-.84-.59-.46,0-.71,0a1.42,1.42,0,0,0-1,.44A3.9,3.9,0,0,0,9.11,11.6a4.09,4.09,0,0,0,.2,1.21,8.12,8.12,0,0,0,1.33,2.46c.18.24,2.58,3.93,6.36,5.34s3.79.95,4.48.89A3.75,3.75,0,0,0,24,19.82a2.76,2.76,0,0,0,.21-1.69C24.13,18,23.88,17.89,23.51,17.71Z" transform="translate(-0.76 -0.35)"/></symbol></svg>