<svg width="201" height="9" fill="none" xmlns="http://www.w3.org/2000/svg"><path opacity=".5" d="M200.354 4.854a.5.5 0 0 0 0-.708L197.172.964a.501.501 0 0 0-.708.708l2.829 2.828-2.829 2.828a.5.5 0 0 0 .708.708l3.182-3.182ZM0 5h2V4H0v1Zm6 0h4V4H6v1Zm8 0h4V4h-4v1Zm8 0h4V4h-4v1Zm8 0h4V4h-4v1Zm8 0h4V4h-4v1Zm8 0h4V4h-4v1Zm8 0h4V4h-4v1Zm8 0h4V4h-4v1Zm8 0h4V4h-4v1Zm8 0h4V4h-4v1Zm8 0h4V4h-4v1Zm8 0h4V4h-4v1Zm8 0h4V4h-4v1Zm8 0h4V4h-4v1Zm8 0h4V4h-4v1Zm8 0h4V4h-4v1Zm8 0h4V4h-4v1Zm8 0h4V4h-4v1Zm8 0h4V4h-4v1Zm8 0h4V4h-4v1Zm8 0h4V4h-4v1Zm8 0h4V4h-4v1Zm8 0h4V4h-4v1Zm8 0h4V4h-4v1Zm8 0h2V4h-2v1Z" fill="url(#a)"/><defs><linearGradient id="a" x1="90" y1="5" x2="16.5" y2="5" gradientUnits="userSpaceOnUse"><stop stop-color="#fff"/><stop offset="1" stop-color="#fff" stop-opacity="0"/></linearGradient></defs></svg>