<svg xmlns="http://www.w3.org/2000/svg" width="36" height="23.143"><path fill="#3a5939" d="M33.429 11.572a19.748 19.748 0 00-7.654-7.092A8.78 8.78 0 0127 9a8.668 8.668 0 01-2.642 6.358A8.668 8.668 0 0118 18a8.668 8.668 0 01-6.358-2.642A8.668 8.668 0 019 9a8.78 8.78 0 011.225-4.52 19.748 19.748 0 00-7.654 7.092 20.736 20.736 0 006.7 6.559A16.539 16.539 0 0018 20.572a16.539 16.539 0 008.729-2.441 20.736 20.736 0 006.7-6.559zM18.683 4.543a.93.93 0 00.281-.683.93.93 0 00-.281-.683.93.93 0 00-.683-.284 5.878 5.878 0 00-4.309 1.8 5.878 5.878 0 00-1.8 4.309.93.93 0 00.281.683.93.93 0 00.683.281.93.93 0 00.683-.281.93.93 0 00.281-.683 4.025 4.025 0 011.228-2.959A4.025 4.025 0 0118 4.822a.93.93 0 00.683-.279zM35.6 10.185a2.781 2.781 0 01.4 1.386 2.78 2.78 0 01-.4 1.386 21.312 21.312 0 01-7.564 7.4A19.553 19.553 0 0118 23.143a19.5 19.5 0 01-10.035-2.792A21.452 21.452 0 01.4 12.958a2.78 2.78 0 01-.4-1.386 2.78 2.78 0 01.4-1.386 21.452 21.452 0 017.565-7.393A19.5 19.5 0 0118 0a19.5 19.5 0 0110.035 2.793 21.452 21.452 0 017.565 7.392z"/></svg>