<svg xmlns="http://www.w3.org/2000/svg" width="1920" height="815"><defs><style>.cls-2{fill:rgba(182,197,30,.55)}.cls-3{font-size:20px;font-family:SegoeUI,Segoe UI}</style></defs><g id="Group_2" transform="translate(-56.661 -154.244)"><path id="land-background" fill="url(#pattern)" d="M0 0h1920v815H0z" transform="translate(56.661 154.244)"/><g id="land-plots" transform="rotate(2 -5563.34 19828.083)"><g id="Component_1_1" transform="translate(0 305.576)"><path id="Path_1" d="M3.472 6.081L67.245-26.9l17.17 37.882-61.866 35.434z" class="cls-2" transform="translate(-3.472 26.895)"/><text id="_108" class="cls-3" transform="translate(38.903 41.895)"><tspan x="-16.172" y="0">108</tspan></text></g><g id="Component_1_11" transform="translate(19.228 349.681)"><path id="Path_1-2" d="M3.7 6.883l51.926-29.672 18.062 39.67-51.927 28.7z" class="cls-2" transform="translate(-3.699 22.789)"/><text id="_118" class="cls-3" transform="translate(34.675 42.789)"><tspan x="-16.172" y="0">118</tspan></text></g><g id="Component_1_12" transform="translate(37.228 389.687)"><path id="Path_1-3" d="M3.7 6.883l52.509-28.667 18.111 38.7-52.559 28.67z" class="cls-2" transform="translate(-3.699 21.784)"/><text id="_119" class="cls-3" transform="translate(34.675 41.784)"><tspan x="-16.172" y="0">119</tspan></text></g><g id="Component_1_13" transform="translate(55.468 428.561)"><path id="Path_1-4" d="M3.94 6.771L56.4-21.91l18.67 39.773-52.254 28.966z" class="cls-2" transform="translate(-3.94 21.91)"/><text id="_120" class="cls-3" transform="translate(35.434 42.91)"><tspan x="-16.172" y="0">120</tspan></text></g><g id="Component_1_14" transform="translate(74.468 468.561)"><path id="Path_1-5" d="M3.94 6.771L56.4-21.91l18.67 39.773-52.254 28.966z" class="cls-2" transform="translate(-3.94 21.91)"/><text id="_121" class="cls-3" transform="translate(35.434 42.91)"><tspan x="-16.172" y="0">121</tspan></text></g><g id="Component_1_15" transform="translate(93.569 508.561)"><path id="Path_1-6" d="M4.04 7.065L56.4-21.91l18.338 39-52.287 28.723z" class="cls-2" transform="translate(-4.04 21.91)"/><text id="_122" class="cls-3" transform="translate(34.334 41.91)"><tspan x="-16.172" y="0">122</tspan></text></g><g id="Component_1_16" transform="translate(112.569 547.561)"><path id="Path_1-7" d="M4.04 7.065L56.4-21.91l18.338 39-51.316 32.752z" class="cls-2" transform="translate(-4.04 21.91)"/><text id="_123" class="cls-3" transform="translate(34.334 43.91)"><tspan x="-16.172" y="0">123</tspan></text></g><g id="Component_1_17" transform="translate(132.569 581.949)"><path id="Path_1-8" d="M4.04 7.065l58.5-37.587L83.086 13.5 24.6 51.448z" class="cls-2" transform="translate(-4.04 30.522)"/><text id="_124" class="cls-3" transform="translate(39.334 49.522)"><tspan x="-16.172" y="0">124</tspan></text></g><g id="Component_1_18" transform="translate(191.569 553.555)"><path id="Path_1-9" d="M4.04 7.065L47.1-20.916l26.05 40.688L24.6 51.448z" class="cls-2" transform="translate(-4.04 20.916)"/><text id="_125" class="cls-3" transform="translate(34.334 44.916)"><tspan x="-16.172" y="0">125</tspan></text></g><g id="Component_1_19" transform="translate(235.072 522.891)"><path id="Path_1-10" d="M.544 8.786L48.226-21.58l25.753 41.01-47.463 30.053z" class="cls-2" transform="translate(-.544 21.58)"/><text id="_126" class="cls-3" transform="translate(35.831 43.58)"><tspan x="-16.172" y="0">126</tspan></text></g><g id="Component_1_20" transform="translate(282.966 492.476)"><path id="Path_1-11" d="M.438 9.234l47.305-30.229 26.01 40.956L26.366 50.18z" class="cls-2" transform="translate(-.438 20.995)"/><text id="_127" class="cls-3" transform="translate(35.937 43.995)"><tspan x="-16.172" y="0">127</tspan></text></g><g id="Component_1_21" transform="translate(330.816 462.312)"><path id="Path_1-12" d="M.288 9.785l47.26-29.944L73.342 20.5l-47.26 30.163z" class="cls-2" transform="translate(-.288 20.159)"/><text id="_128" class="cls-3" transform="translate(36.086 44.159)"><tspan x="-16.172" y="0">128</tspan></text></g><g id="Component_1_22" transform="translate(378.433 431.663)"><path id="Path_1-13" d="M-.1 10.529l46.9-30.337L73 21.069l-47.347 30.2z" class="cls-2" transform="translate(.095 19.808)"/><text id="_129" class="cls-3" transform="translate(35.469 43.808)"><tspan x="-16.172" y="0">129</tspan></text></g><g id="Component_1_23" transform="translate(425.694 401.126)"><path id="Path_1-14" d="M-.834 10.916l47.291-30.261L72.448 21.5 25.317 51.839z" class="cls-2" transform="translate(.834 19.345)"/><text id="_130" class="cls-3" transform="translate(36.208 43.345)"><tspan x="-16.172" y="0">130</tspan></text></g><g id="Component_1_24" transform="translate(473.311 370.552)"><path id="Path_1-15" d="M-1.217 11.392l47.362-30.311L72.136 21.75l-47.38 30.564z" class="cls-2" transform="translate(1.217 18.919)"/><text id="_131" class="cls-3" transform="translate(35.591 43.919)"><tspan x="-16.172" y="0">131</tspan></text></g><g id="Component_1_25" transform="translate(521.08 340.218)"><path id="Path_1-16" d="M-1.448 11.849L45.9-18.252l25.531 41.2L24.4 52.519z" class="cls-2" transform="translate(1.448 18.252)"/><text id="_132" class="cls-3" transform="translate(35.823 44.252)"><tspan x="-16.172" y="0">132</tspan></text></g><g id="Component_1_26" transform="translate(568.642 309.55)"><path id="Path_1-17" d="M-1.886 11.6L45.2-18.921l26.433 40.836-47.957 30.853z" class="cls-2" transform="translate(1.886 18.921)"/><text id="_133" class="cls-3" transform="translate(36.26 43.921)"><tspan x="-16.172" y="0">133</tspan></text></g><g id="Component_1_28" transform="translate(682.84 243.631)"><path id="Path_1-18" d="M-1.689 11.181L48.148-15.84 66.5 20.741 18.195 51.586z" class="cls-2" transform="translate(1.689 15.84)"/><text id="_135" class="cls-3" transform="translate(33.063 41.84)"><tspan x="-16.172" y="0">135</tspan></text></g><g id="Component_1_29" transform="translate(663.84 202.631)"><path id="Path_1-19" d="M-1.689 11.181L48.148-15.84 66.8 24.555 17.323 51.781z" class="cls-2" transform="translate(1.689 15.84)"/><text id="_136" class="cls-3" transform="translate(34.063 41.84)"><tspan x="-16.172" y="0">136</tspan></text></g><g id="Component_1_30" transform="translate(643.84 161.631)"><path id="Path_1-20" d="M-1.689 11.181L48.148-15.84 67.7 24.894 18.12 51.76z" class="cls-2" transform="translate(1.689 15.84)"/><text id="_137" class="cls-3" transform="translate(34.063 41.84)"><tspan x="-16.172" y="0">137</tspan></text></g><g id="Component_1_31" transform="translate(623.93 120.621)"><path id="Path_1-21" d="M-2.6 11.287L47.349-15.85 66.8 24.555 17.323 51.781z" class="cls-2" transform="translate(2.598 15.85)"/><text id="_138" class="cls-3" transform="translate(33.972 41.85)"><tspan x="-16.172" y="0">138</tspan></text></g><g id="Component_1_32" transform="translate(604.625 79.842)"><path id="Path_1-22" d="M-1.9 11.7l49.426-27.329 19.551 40.553L17.3 52.017z" class="cls-2" transform="translate(1.903 15.629)"/><text id="_139" class="cls-3" transform="translate(34.277 42.629)"><tspan x="-16.172" y="0">139</tspan></text></g><g id="Component_1_33" transform="translate(585.076 39)"><path id="Path_1-23" d="M-2.453 11.622l49.429-27.093 19.435 40.553L17.04 52.233z" class="cls-2" transform="translate(2.453 15.471)"/><text id="_140" class="cls-3" transform="translate(33.827 42.471)"><tspan x="-16.172" y="0">140</tspan></text></g><g id="Component_1_34" transform="translate(566.076)"><path id="Path_1-24" d="M-2.453 11.622l49.429-27.093 18.69 38.611L16.447 50.1z" class="cls-2" transform="translate(2.453 15.471)"/><text id="_141" class="cls-3" transform="translate(33.827 41.471)"><tspan x="-16.172" y="0">141</tspan></text></g><g id="Component_1_27" transform="translate(616.052 279.826)"><path id="Path_1-25" d="M-2.476 11.877l45.724-29.522 10.916 2.712 17.469 36.848-47.822 30.85z" class="cls-2" transform="translate(2.476 17.645)"/><text id="_134" class="cls-3" transform="translate(36.85 43.645)"><tspan x="-16.172" y="0">134</tspan></text></g><g id="Component_1_9" transform="translate(63.986 275.418)"><path id="Path_1-26" d="M3.458 7.955L56.03-22.053l18.893 38.169L20.628 45.6z" class="cls-2" transform="translate(-3.458 22.053)"/><text id="_109" class="cls-3" transform="translate(34.916 42.053)"><tspan x="-16.172" y="0">109</tspan></text></g><g id="Component_1_10" transform="translate(116.986 244.501)"><path id="Path_1-27" d="M3.458 7.955L57.707-22.97l18.226 39.5-53.627 29.2z" class="cls-2" transform="translate(-3.458 22.97)"/><text id="_110" class="cls-3" transform="translate(35.916 42.97)"><tspan x="-16.172" y="0">110</tspan></text></g><g id="Component_1_35" transform="translate(140.136 300.044)"><path id="Path_1-28" d="M3.608 8.63L54.29-19.426 76.916 27.56 26.385 56.521z" class="cls-2" transform="translate(-3.608 19.426)"/><text id="_142" class="cls-3" transform="translate(35.766 46.426)"><tspan x="-16.172" y="0">142</tspan></text></g><g id="Component_1_42" transform="translate(93.588 328.403)"><path id="Path_1-29" d="M8.06 15l3.258-11.871 42.99-23.2 22.921 47.63-49.89 28.363z" class="cls-2" transform="translate(-8.06 20.068)"/><text id="_177" class="cls-3" transform="translate(34.314 46.068)"><tspan x="-16.172" y="0">177</tspan></text></g><g id="Component_1_47" transform="translate(259.265 237.048)"><path id="Path_1-30" d="M7.737 13.354l3.3-11.223 42.7-23.554 23.12 48.511L27.719 55.25z" class="cls-2" transform="translate(-7.737 21.423)"/><text id="_153" class="cls-3" transform="translate(33.637 46.423)"><tspan x="-16.172" y="0">153</tspan></text></g><g id="Component_1_49" transform="translate(371.265 175.048)"><path id="Path_1-31" d="M7.737 13.354l3.3-11.223 42.7-23.554 22.356 47.16-48.948 28.434z" class="cls-2" transform="translate(-7.737 21.423)"/><text id="_161" class="cls-3" transform="translate(33.637 46.423)"><tspan x="-16.172" y="0">161</tspan></text></g><g id="Component_1_51" transform="translate(482.265 113.048)"><path id="Path_1-32" d="M7.737 13.354l3.3-11.223 42.7-23.554L75.63 24.231l-49.094 28.06z" class="cls-2" transform="translate(-7.737 21.423)"/><text id="_169" class="cls-3" transform="translate(33.637 45.423)"><tspan x="-16.172" y="0">169</tspan></text></g><g id="Component_1_43" transform="translate(145.621 437.403)"><path id="Path_1-33" d="M8.092 16.521l3.365-11.363 42.85-25.226 23.129 48.02L28.209 58.47z" class="cls-2" transform="translate(-8.092 20.068)"/><text id="_147" class="cls-3" transform="translate(34.282 48.068)"><tspan x="-16.172" y="0">147</tspan></text></g><g id="Component_1_40" transform="translate(191.346 275.156)"><path id="Path_1-34" d="M3.818 9.272l44.346-24.587 10.559 3.394 18.7 39.143-51.042 29.3z" class="cls-2" transform="translate(-3.818 15.315)"/><text id="_143" class="cls-3" transform="translate(35.557 42.315)"><tspan x="-16.172" y="0">143</tspan></text></g><g id="Component_1_48" transform="translate(305.346 213.754)"><path id="Path_1-35" d="M3.818 9.272L46.3-13.717l10.1 3.067 19.329 40.707-48.649 27.87z" class="cls-2" transform="translate(-3.818 13.717)"/><text id="_154" class="cls-3" transform="translate(35.557 44.717)"><tspan x="-16.172" y="0">154</tspan></text></g><g id="Component_1_50" transform="translate(417.346 151.754)"><path id="Path_1-36" d="M3.818 9.272L46.3-13.717l10.1 3.067 18.44 39.107-48.371 27.979z" class="cls-2" transform="translate(-3.818 13.717)"/><text id="_162" class="cls-3" transform="translate(34.557 43.717)"><tspan x="-16.172" y="0">162</tspan></text></g><g id="Component_1_52" transform="translate(528.346 89.754)"><path id="Path_1-37" d="M3.818 9.272L46.3-13.717l10.1 3.067 18.64 37.525-49.3 28.156z" class="cls-2" transform="translate(-3.818 13.717)"/><text id="_170" class="cls-3" transform="translate(34.557 42.717)"><tspan x="-16.172" y="0">170</tspan></text></g><g id="Component_1_46" transform="translate(242.544 381.752)"><path id="Path_1-38" d="M4.016 9.375l43.875-26.094 10.3 3.141 18.488 39.272-50.007 30.681z" class="cls-2" transform="translate(-4.016 16.719)"/><text id="_149" class="cls-3" transform="translate(35.359 44.719)"><tspan x="-16.172" y="0">149</tspan></text></g><g id="Component_1_37" transform="translate(192.168 407.928)"><path id="Path_1-39" d="M4.64 8.633l50.306-29.176 22.659 46.938-50.071 30.48z" class="cls-2" transform="translate(-4.64 20.543)"/><text id="_148" class="cls-3" transform="translate(34.734 47.543)"><tspan x="-16.172" y="0">148</tspan></text></g><g id="Component_1_36" transform="translate(163.087 347.044)"><path id="Path_1-40" d="M3.559 9.612L54.29-19.426 76.8 27.946 26.305 57.458z" class="cls-2" transform="translate(-3.559 19.426)"/><text id="_145" class="cls-3" transform="translate(35.816 46.426)"><tspan x="-16.172" y="0">145</tspan></text></g><g id="Component_1_53" transform="translate(279.325 285.721)"><path id="Path_1-41" d="M3.8 9.422L53.016-18.75 75.748 30.1 27.221 59.066z" class="cls-2" transform="translate(-3.797 18.75)"/><text id="_155" class="cls-3" transform="translate(35.577 47.75)"><tspan x="-16.172" y="0">155</tspan></text></g><g id="Component_1_59" transform="translate(302.836 334.698)"><path id="Path_1-42" d="M4.308 11.222l48.56-28.995 23.185 48.35-48.4 29.76z" class="cls-2" transform="translate(-4.308 17.772)"/><text id="_157" class="cls-3" transform="translate(35.066 47.772)"><tspan x="-16.172" y="0">157</tspan></text></g><g id="Component_1_65" transform="translate(326.341 383.347)"><path id="Path_1-43" d="M4.813 11.594l48.454-29.718 22.787 48.7L35.532 56.7l-10.759-2.689z" class="cls-2" transform="translate(-4.813 18.124)"/><text id="_159" class="cls-3" transform="translate(34.562 46.124)"><tspan x="-16.172" y="0">159</tspan></text></g><g id="Component_1_68" transform="translate(435.995 316.231)"><path id="Path_1-44" d="M4.467 10.641L52.655-19.24 74.583 27.1 34.106 53.387l-10.8-2.856z" class="cls-2" transform="translate(-4.467 19.24)"/><text id="_167" class="cls-3" transform="translate(34.907 46.24)"><tspan x="-16.172" y="0">167</tspan></text></g><g id="Component_1_69" transform="translate(544.995 247.924)"><path id="Path_1-45" d="M4.467 10.641l48.47-30.188 21.3 45.173-41.08 26.548-10.332-2.918z" class="cls-2" transform="translate(-4.467 19.547)"/><text id="_175" class="cls-3" transform="translate(33.907 44.547)"><tspan x="-16.172" y="0">175</tspan></text></g><g id="Component_1_55" transform="translate(390.716 222.721)"><path id="Path_1-46" d="M4.188 9.38l48.828-28.13 22.172 46.875-48.412 29.006z" class="cls-2" transform="translate(-4.188 18.75)"/><text id="_163" class="cls-3" transform="translate(35.186 46.75)"><tspan x="-16.172" y="0">163</tspan></text></g><g id="Component_1_61" transform="translate(413.341 269.721)"><path id="Path_1-47" d="M4.813 10.234L53.3-18.75l22.2 46.359-48.211 29.847z" class="cls-2" transform="translate(-4.813 18.75)"/><text id="_165" class="cls-3" transform="translate(34.562 45.75)"><tspan x="-16.172" y="0">165</tspan></text></g><g id="Component_1_57" transform="translate(501.716 158.861)"><path id="Path_1-48" d="M4.188 9.38l48.578-27.99 21.462 44.678-48.719 28.518z" class="cls-2" transform="translate(-4.188 18.609)"/><text id="_171" class="cls-3" transform="translate(34.186 44.609)"><tspan x="-16.172" y="0">171</tspan></text></g><g id="Component_1_63" transform="translate(523.169 203.83)"><path id="Path_1-49" d="M3.641 9.719l48.8-28.359 21.335 43.965L25.188 55.5z" class="cls-2" transform="translate(-3.641 18.641)"/><text id="_173" class="cls-3" transform="translate(34.734 45.641)"><tspan x="-16.172" y="0">173</tspan></text></g><g id="Component_1_54" transform="translate(328.747 257.674)"><path id="Path_1-50" d="M4.219 9.141L52.875-18.8l22.8 47.453-48.83 29.379z" class="cls-2" transform="translate(-4.219 18.797)"/><text id="_156" class="cls-3" transform="translate(35.155 46.797)"><tspan x="-16.172" y="0">156</tspan></text></g><g id="Component_1_60" transform="translate(351.476 305.377)"><path id="Path_1-51" d="M3.948 10.148l48.9-29.242 22.828 47.75L27.259 58.44z" class="cls-2" transform="translate(-3.948 19.094)"/><text id="_158" class="cls-3" transform="translate(35.426 47.094)"><tspan x="-16.172" y="0">158</tspan></text></g><g id="Component_1_66" transform="translate(375.014 353.468)"><path id="Path_1-52" d="M4.486 9.8L52.844-20l18.833 39.536-2.856 12.139-41.507 26.748z" class="cls-2" transform="translate(-4.486 20.003)"/><text id="_160" class="cls-3" transform="translate(32.889 48.003)"><tspan x="-16.172" y="0">160</tspan></text></g><g id="Component_1_67" transform="translate(484.352 285.979)"><path id="Path_1-53" d="M3.824 8.611l48.112-30.1 18.3 38.184-2.852 11.46-41.642 26.773z" class="cls-2" transform="translate(-3.824 21.492)"/><text id="_168" class="cls-3" transform="translate(35.55 48.492)"><tspan x="-16.172" y="0">168</tspan></text></g><g id="Component_1_70" transform="translate(593.638 218.361)"><path id="Path_1-54" d="M4.109 8.375l48.235-29.484 17.439 36.016-2.438 11.484-41.984 27.141z" class="cls-2" transform="translate(-4.109 21.109)"/><text id="_176" class="cls-3" transform="translate(32.265 46.109)"><tspan x="-16.172" y="0">176</tspan></text></g><g id="Component_1_56" transform="translate(439.825 194.058)"><path id="Path_1-55" d="M4.3 9.781l48.669-28.193 21.886 45.978-48.437 29.419z" class="cls-2" transform="translate(-4.297 18.412)"/><text id="_164" class="cls-3" transform="translate(35.077 46.412)"><tspan x="-16.172" y="0">164</tspan></text></g><g id="Component_1_62" transform="translate(462.044 240.206)"><path id="Path_1-56" d="M4.516 10.141l48.439-29.406 21.9 45.577L26.673 56.5z" class="cls-2" transform="translate(-4.516 19.265)"/><text id="_166" class="cls-3" transform="translate(34.859 46.265)"><tspan x="-16.172" y="0">166</tspan></text></g><g id="Component_1_58" transform="translate(550.435 130.473)"><path id="Path_1-57" d="M3.906 10.266L53.11-18l20.838 43.677L25.44 54.883z" class="cls-2" transform="translate(-3.906 17.998)"/><text id="_172" class="cls-3" transform="translate(35.468 44.998)"><tspan x="-16.172" y="0">172</tspan></text></g><g id="Component_1_64" transform="translate(572.2 174.436)"><path id="Path_1-58" d="M3.672 10.3l48.513-29.335L73.3 24.731 25 54.188z" class="cls-2" transform="translate(-3.672 19.035)"/><text id="_174" class="cls-3" transform="translate(33.702 45.035)"><tspan x="-16.172" y="0">174</tspan></text></g><g id="Component_1_41" transform="translate(112.902 376.163)"><path id="Path_1-59" fill="rgba(197,42,30,0.6)" d="M4.374 9.132l49.961-28.44 22.8 47.862-42.444 25.2-10.486-3.164z" transform="translate(-4.374 19.308)"/><text id="_144" class="cls-3" transform="translate(35 46.308)"><tspan x="-16.172" y="0">144</tspan></text></g><g id="Component_1_44" transform="translate(165.806 485.629)"><path id="Path_1-60" d="M5.277 11.607l49.365-30.449L77.573 29.6 35.692 56.715 24.844 53.66z" class="cls-2" transform="translate(-5.277 18.842)"/><text id="_150" class="cls-3" transform="translate(35.097 45.842)"><tspan x="-16.172" y="0">150</tspan></text></g><g id="Component_1_39" transform="translate(214.087 317.905)"><path id="Path_1-61" d="M3.559 9.612L54.6-19.566l18.387 38.554-3.423 12.067-43.512 25.758z" class="cls-2" transform="translate(-3.559 19.566)"/><text id="_146" class="cls-3" transform="translate(35.816 46.566)"><tspan x="-16.172" y="0">146</tspan></text></g><g id="Component_1_45" transform="translate(265.257 424.254)"><path id="Path_1-62" d="M3.729 9.478l50.129-30.695 18.654 38.245-2.945 12.228-43.515 27.557z" class="cls-2" transform="translate(-3.729 21.217)"/><text id="_152" class="cls-3" transform="translate(33.645 47.217)"><tspan x="-16.172" y="0">152</tspan></text></g><g id="Component_1_38" transform="translate(215.419 454.999)"><path id="Path_1-63" d="M4.891 10.053L54.65-20.471 77 27.115l-49.223 31.41z" class="cls-2" transform="translate(-4.891 20.471)"/><text id="_151" class="cls-3" transform="translate(34.484 47.471)"><tspan x="-16.172" y="0">151</tspan></text></g><g id="Component_1_2" transform="translate(172 215.558)"><path id="Path_1-64" fill="rgba(41,197,30,0.55)" d="M3.472 6.081l53.685-28.994 18.423 37.2-54.206 31.179z" transform="translate(-3.472 22.913)"/><text id="_111" class="cls-3" transform="translate(35.903 42.913)"><tspan x="-16.172" y="0">111</tspan></text></g><g id="Component_1_3" transform="translate(226.128 185.192)"><path id="Path_1-65" fill="#4db546" d="M2.6 7.039l54.345-30.317 18.636 37.566-54.114 30.648z" transform="translate(-2.599 23.278)"/><text id="_112" class="cls-3" transform="translate(35.775 42.278)"><tspan x="-16.172" y="0">112</tspan></text></g><g id="Component_1_4" transform="translate(280.957 154.714)"><path id="Path_1-66" d="M2.429 7.4l54.023-30.157L75 15.624 21.467 44.936z" class="cls-2" transform="translate(-2.429 22.757)"/><text id="_113" class="cls-3" transform="translate(35.946 42.757)"><tspan x="-16.172" y="0">113</tspan></text></g><g id="Component_1_5" transform="translate(334.957 124.719)"><path id="Path_1-67" d="M2.429 7.4l55.013-29.152 18.546 38.381-54.023 29.995z" class="cls-2" transform="translate(-2.429 21.752)"/><text id="_114" class="cls-3" transform="translate(35.945 42.752)"><tspan x="-16.172" y="0">114</tspan></text></g><g id="Component_1_6" transform="translate(390.616 94.885)"><path id="Path_1-68" d="M3.087 8.087l53.54-29.673 18.868 38.22L21.31 46.306z" class="cls-2" transform="translate(-3.087 21.586)"/><text id="_115" class="cls-3" transform="translate(35.287 42.586)"><tspan x="-16.172" y="0">115</tspan></text></g><g id="Component_1_7" transform="translate(444.616 64.803)"><path id="Path_1-69" d="M3.087 8.087l53.984-29.755 18.424 38.3-53.406 29.927z" class="cls-2" transform="translate(-3.087 21.668)"/><text id="_116" class="cls-3" transform="translate(35.287 42.668)"><tspan x="-16.172" y="0">116</tspan></text></g><g id="Component_1_8" transform="translate(498.971 34.287)"><path id="Path_1-70" d="M3.443 7.96L57.9-22.184 73.158 8.828l-3.225 11.785-48.007 25.8z" class="cls-2" transform="translate(-3.443 22.184)"/><text id="_117" class="cls-3" transform="translate(33.932 43.184)"><tspan x="-16.172" y="0">117</tspan></text></g></g></g></svg>