<?xml version="1.0" standalone="no"?>
<!DOCTYPE svg PUBLIC "-//W3C//DTD SVG 20010904//EN"
 "http://www.w3.org/TR/2001/REC-SVG-20010904/DTD/svg10.dtd">
<svg version="1.0" xmlns="http://www.w3.org/2000/svg"
 width="700.000000pt" height="700.000000pt" viewBox="0 0 700.000000 700.000000"
 preserveAspectRatio="xMidYMid meet">
<metadata>
Created by potrace 1.14, written by Peter Selinger 2001-2017
</metadata>
<g transform="translate(0.000000,700.000000) scale(0.100000,-0.100000)"
fill="#000000" stroke="none">
<path d="M5765 6986 c-16 -8 -165 -150 -330 -316 -308 -310 -383 -375 -495
-434 -111 -58 -178 -76 -295 -82 -159 -7 -299 48 -445 177 -76 66 -120 82
-174 64 -47 -17 -66 -33 -83 -72 -38 -92 2 -153 181 -273 80 -53 200 -110 267
-124 90 -20 131 -27 183 -31 32 -2 60 -6 63 -8 14 -15 -224 -189 -311 -228
l-44 -19 -53 36 c-66 44 -213 116 -293 144 -86 29 -133 27 -178 -10 -20 -17
-40 -39 -43 -50 -5 -17 -12 -19 -53 -13 -26 4 -104 7 -174 7 -107 1 -128 3
-128 16 0 20 -32 68 -57 85 -11 8 -40 17 -64 20 -79 10 -152 -59 -147 -139 l2
-39 -84 -36 c-90 -39 -196 -96 -205 -111 -3 -5 -22 2 -42 15 -35 25 -54 29
-103 25 -43 -4 -60 -17 -254 -209 -218 -215 -241 -253 -202 -329 17 -34 98
-112 186 -183 36 -28 66 -54 67 -58 1 -3 -23 -22 -54 -41 -72 -44 -471 -434
-489 -477 -21 -48 -17 -86 11 -128 43 -63 167 -168 299 -254 60 -39 66 -47 61
-70 -3 -14 -8 -36 -10 -48 -3 -13 -7 -33 -10 -45 -9 -43 -24 -133 -30 -183 -4
-27 -8 -59 -10 -71 -3 -22 -12 -114 -20 -203 -2 -29 -7 -56 -10 -59 -3 -3
-193 -6 -422 -6 l-417 0 -33 165 c-18 90 -35 175 -38 189 -9 48 -117 585 -119
595 -2 6 -7 33 -11 60 -5 28 -9 52 -10 55 -19 92 -39 126 -85 150 -32 16 -74
17 -500 16 -517 -1 -497 2 -541 -69 -16 -26 -19 -43 -14 -89 3 -32 8 -63 10
-70 2 -7 6 -24 9 -38 3 -21 27 -149 42 -225 2 -11 13 -65 24 -120 28 -140 30
-146 36 -180 2 -16 20 -106 39 -200 19 -93 37 -185 40 -203 3 -18 16 -88 30
-155 13 -67 26 -133 29 -147 2 -14 11 -60 20 -102 9 -42 18 -94 22 -115 3 -21
7 -46 10 -55 3 -10 7 -30 10 -45 3 -16 25 -129 50 -253 25 -124 47 -238 49
-254 3 -15 7 -35 9 -45 3 -9 8 -29 10 -46 5 -28 18 -94 30 -155 3 -14 13 -63
22 -110 9 -47 36 -184 60 -305 23 -121 46 -236 49 -255 3 -19 10 -53 15 -75 5
-22 11 -54 14 -72 4 -17 17 -87 30 -155 14 -68 27 -136 30 -153 3 -16 10 -52
16 -80 13 -65 12 -60 65 -335 26 -134 54 -253 66 -277 40 -80 -211 -73 2671
-73 l2571 0 34 26 c18 14 39 37 47 52 11 23 43 164 51 227 2 11 21 112 44 225
22 113 43 220 46 239 3 19 7 37 9 40 2 3 7 24 10 46 4 22 31 166 62 320 31
154 58 291 60 305 5 28 112 570 120 610 2 14 11 61 19 104 8 43 17 87 20 96 3
10 7 31 10 46 2 16 8 51 15 78 6 27 12 61 14 75 2 14 11 60 19 101 9 41 19 91
22 110 3 19 10 53 15 75 5 22 12 56 15 75 5 32 38 201 51 260 2 14 11 59 19
100 8 41 41 212 74 380 33 168 63 319 66 335 2 17 7 41 10 55 7 38 35 172 40
200 27 125 26 180 -1 217 -45 61 -40 60 -536 61 -470 0 -494 -2 -534 -42 -20
-21 -41 -73 -48 -122 -4 -22 -8 -49 -10 -59 -12 -54 -127 -634 -132 -659 -3
-16 -7 -32 -9 -35 -2 -4 -6 -25 -9 -47 -4 -22 -9 -51 -12 -64 -3 -14 -13 -64
-22 -112 -14 -75 -20 -88 -37 -89 -54 -3 -371 -4 -382 -1 -7 2 6 36 33 87 41
77 96 212 109 267 57 252 63 433 20 643 -32 153 -110 345 -190 465 l-37 55 35
71 c38 77 137 213 220 303 28 31 283 287 566 570 301 301 519 528 527 547 14
34 12 81 -4 111 -22 38 -619 626 -649 639 -40 17 -69 17 -108 0z"/>
</g>
</svg>
