<svg width="20" height="26" fill="none" xmlns="http://www.w3.org/2000/svg"><path d="M9.903 25.188a2.399 2.399 0 01-1.78-.813C5.183 21.125.24 14.942.24 10.855a9.952 9.952 0 012.77-7.039A9.776 9.776 0 019.903.813a9.776 9.776 0 016.892 3.003 9.952 9.952 0 012.772 7.039c0 4.063-4.945 10.23-7.884 13.528a2.417 2.417 0 01-1.78.805zm0-22.75a8.18 8.18 0 00-5.75 2.53 8.327 8.327 0 00-2.304 5.887c0 2.551 2.795 7.199 7.474 12.44a.805.805 0 00.895.183c.1-.042.19-.105.265-.184 4.679-5.24 7.473-9.888 7.473-12.439a8.327 8.327 0 00-2.303-5.887 8.18 8.18 0 00-5.75-2.53z" fill="#0980EE"/><path d="M9.903 15.438c-.956 0-1.89-.286-2.685-.822a4.866 4.866 0 01-1.78-2.188 4.915 4.915 0 01-.274-2.817 4.888 4.888 0 011.322-2.496A4.82 4.82 0 018.96 5.781a4.793 4.793 0 012.792.278 4.842 4.842 0 012.169 1.795 4.906 4.906 0 01-.601 6.156 4.81 4.81 0 01-3.417 1.428zm0-8.126c-.637 0-1.26.191-1.79.548-.53.357-.942.865-1.186 1.459a3.277 3.277 0 00.698 3.542 3.195 3.195 0 003.51.704 3.228 3.228 0 001.446-1.197 3.27 3.27 0 00-.4-4.104 3.207 3.207 0 00-2.278-.951z" fill="#0980EE"/></svg>