<svg width="621" height="729" fill="none" xmlns="http://www.w3.org/2000/svg"><path d="M166.941 587.858c19.695-17.195 25.806-37.571 22.986-70.124-3.784-43.788-36.255-52.561-46.816-67.264-10.574-14.705-7.087-34.064-15.615-48.732a135.186 135.186 0 00-4.216-6.795c-2.036-3.066-6.786-1.026-6.047 2.576 1.127 5.521 1.729 11.708.76 17.337-2.561 14.874-.856 31.258-.856 31.258s-16.151-12.549-16.516-25.025c-.353-12.474 6.682-29.869-6.703-42.847-10.022-9.715-15.116-23.179-17.669-33.3-.836-3.337-5.596-3.319-6.477.01-2.379 9.049-5.11 20.672-6.129 29.489-2.337 20.204 8 19.974 6.704 33.232-1.297 13.271-8.039 44.83-2.966 60.054 6.568 19.721 27.902 33.819 27.902 33.819s-21.356-3.324-34.295-31.545c-6.582-14.353-15.838-21.74-21.79-25.234-2.41-1.415-5.4.613-4.99 3.367 2.583 17.695 10.62 69.026 20.056 93.167 11.5 29.436 28.828 44.459 59.587 54.606 19.109 6.321 39.086 4.171 53.09-8.049z" fill="#E72A8B"/><path d="M143.78 585.928c-8.834 2.187-26.04 1.711-39.289-3.781-13.249-5.492-30.056-27.962-30.056-27.962s13.581 1.402 19.187 6.337c5.606 4.936 17.801 6.411 17.801 6.411s-6.347-13.007-17.812-21.257c-11.465-8.25-15.826-32.786-15.826-32.786s11.105 18.094 20.666 22.492 28.188 2.285 35.293 13.052c14.167 21.476 35.732 21.751 35.732 21.751s-10.952 12.106-25.696 15.743z" fill="#D9F94B"/><path d="M156.543 513.829s-14.475-.229-20.98.885c-6.506 1.115-11.915 3.769-12.208 6.442-.292 2.673 8.906.824 10.595.93 1.687.118-2.811 3.437-5.632 9.928-2.822 6.49-6.591 14.534-6.659 17.922-.069 3.388 3.029 4.256 3.029 4.256s.251 5.487 3.103 6.812c2.838 1.335 2.762.734 2.762.734s.011 3.223 3.154 3.753c3.155.532 3.149-1.745 3.149-1.745s.724-3.098 3.705-8.271c3.382-5.872 6.175-10.322 6.175-10.322s.491 9.094 2.998 11.383c2.507 2.289 3.428 1.933 3.428 1.933s1.557-2.115.722-7.19.412-7.408 2.063-11.041c1.651-3.633 10.573-12.84 10.573-12.84l-9.977-13.569z" fill="#fff" stroke="#1D1D1F" stroke-width="2" stroke-linecap="round" stroke-linejoin="round"/><path d="M258.156 432.263s-11.978 27.977-19.924 39.201c-7.948 11.236-29.105 32.514-36.193 38.745-7.088 6.23-33.737 27.733-33.737 27.733l-15.152-23.694s20.18-22.313 26.431-36.966c6.251-14.654 37.096-64.026 43.945-68.866 6.849-4.839 36.528 24.449 36.528 24.449l-1.898-.602z" fill="gray" stroke="#231F20" stroke-width="2" stroke-miterlimit="10"/><path d="M124.685 554.188s5.964-13.075 10.238-18.028m-4.402 23.933s5.964-13.075 10.238-18.028" stroke="#1D1D1F" stroke-width="2" stroke-linecap="round" stroke-linejoin="round"/><path d="M304.667 448.691l-24.744-42.416s4.597-16.525-10.393-21.111c-14.99-4.586-28.259-16.349-36.945-8.454-8.687 7.895-14.708 21.648-14.1 23.643.605 2.007 1.243 12.267 3.246 14.51 2.003 2.242 4.167 4.513 4.167 4.513s13.052 14.897 19.762 17.614c6.709 2.717 12.068 9.489 17.309 11.485 5.242 1.996 41.698.216 41.698.216z" fill="#fff"/><path d="M403.688 92.787l6.178 17.841-17.308 9.291-13.016-23.839 24.146-3.293zm-87.496 51.576l17.901 6.24-3.462 19.259-26.198-6.667 11.759-18.832z" fill="#fff" stroke="#1D1D1F" stroke-width="2" stroke-linecap="round" stroke-linejoin="round"/><path d="M244.868 436.999l-.425 8.833s13.551 6.034 20.142 8.707c6.604 2.675 20.542-1.845 20.542-1.845s-8.29-1.002-14.917-4.589c-4.818-2.604-11.591-10.796-11.591-10.796" fill="gray"/><path d="M244.868 436.999l-.425 8.833s13.551 6.034 20.142 8.707c6.604 2.675 20.542-1.845 20.542-1.845s-8.29-1.002-14.917-4.589c-4.818-2.604-11.591-10.796-11.591-10.796" stroke="#231F20" stroke-width="2" stroke-miterlimit="10"/><path d="M216.602 398.689s3.921 16.789 17.732 29.822c13.798 13.032 20.909 10.279 25.986 8.155 8.479-3.545 11.237-11.675 11.237-11.675" stroke="#1D1D1F" stroke-width="2" stroke-linecap="round" stroke-linejoin="round"/><path d="M231.319 667.646c-10.73-11.065-9.319-46.775 22.981-57.194 16.332-5.262 30.893-18.813 39.376-29.195 2.732-3.349 8.173-1.102 7.73 3.196-.543 5.328 7.567-9.45 4.825-4.85-6.922 11.604-3.282 17.612-3.282 17.612s-8.443.661 13.201-7.95 76.593-15.109 88.893-35.228c12.3-20.119 16.307-45.689 39.242-56.511 14.093-6.649 24.694-14.411 31.79-20.527 3.436-2.962 8.568.562 7.051 4.832-2.91 8.202-8.066 17.969-17.124 24.816-18.525 13.994-18.468 27.861-21.516 37.907-3.06 10.044-8.75 19.183-8.75 19.183s27.339-18.529 34.996-37.846c7.656-19.317 22.304-36.368 42.372-50.371 10.396-7.247 18.482-18.821 23.869-28.293 2.355-4.141 8.7-2.151 8.27 2.596-.731 7.918-2.873 17.4-8.13 26.332-12.303 20.886-29.217 48.741-29.217 48.741s20.891-4.749 29.338-20.225a60.825 60.825 0 014.815-7.409c2.994-3.982 9.278-.66 7.722 4.064a90.6 90.6 0 00-3.955 17.946c-2.987 25.461-26.122 46.412-38.454 60.364-12.331 13.952-1.708 30.572-12.627 52.216-9.653 19.133-37.509 72.131-70.708 75.674-69.884 7.432-56.319-20.503-112.642-19.235-53.795 1.196-71.822-12.147-80.066-20.645z" fill="#E72A8B"/><path d="M294.37 542.627s-14.162 5.781-17.494 7.545c-3.334 1.778-6.587 3.824-5.791 6.438.796 2.615 3.503 2.099 8.423.73 4.92-1.369 8.367-2.156 8.698-1.691.33.465-2.463 12.765-2.764 18.479-.301 5.714-1.767 15.068.103 16.214 1.87 1.146 2.762.734 3.823-2.232s4.029-16.207 4.78-15.799c.752.408-1.795 21.659-1.294 24.351.5 2.692 2.554 3.588 3.957 3.415 1.402-.172 2.59-.662 2.59-.662s1.38 2.431 3.298 2.473c1.918.042 3.311-1.64 3.311-1.64s3.081.519 4.245.166c1.165-.354 4.377-11.061 4.377-11.061s.862-8.228 1.057-12.58c.196-4.351.136 10.94 3.075 11.768 2.3.656 4.951-11.118 2.423-19.636-2.529-8.518-4.589-18.12-4.589-18.12l-22.228-8.158z" fill="#fff" stroke="#1D1D1F" stroke-width="2" stroke-linecap="round" stroke-linejoin="round"/><path d="M328.452 275.186s18.465-25.325 24.076-35.576c5.61-10.25 19.267-29.995 19.267-29.995s-31.893-14.018-38.539-16.416c-6.646-2.399-11.772-4.529-11.772-4.529l8.388-39.498s72.945 18.05 77.507 21.376c4.561 3.325 16.677 39.251 14.864 49.809-1.814 10.559-51.591 81.755-51.591 81.755l-42.2-26.926zm-16.789-108.237s-6.073 2.224-12.125.605c-6.051-1.62-10.364-3.291-10.364-3.291l4.151-16.825 2.5-.601s.865-6.667 1.984-12.87c1.118-6.202 6.208-20.44 10.422-26.684 4.211-6.231 6.96-10.216 9.066-10.169 2.107.048 5.912 2.733 5.912 2.733s-3.822 11.934-4.983 18.308c-1.163 6.387 3.542 20.676 4.351 22.448.808 1.785 2.596 5.396.534 6.506-2.062 1.11-5.771 4.422-7.369 3.949-1.584-.471-2.244 1.054-3.511 3.946-1.266 2.893-.568 11.945-.568 11.945z" fill="gray" stroke="#231F20" stroke-width="2" stroke-miterlimit="10"/><path d="M314.998 142.273s4.951-2.225 6.054-3.485m-7.531-1.849s4.952-2.225 6.054-3.485m-6.896-1.575s4.951-2.225 6.053-3.485" stroke="#1D1D1F" stroke-width="2" stroke-linecap="round" stroke-linejoin="round"/><path d="M389.203 321.559s56.899-79.235 61.106-90.664c4.207-11.43-1.584-29.989-6.823-44.29-5.239-14.3-20.983-77.664-21.537-81.91-.553-4.246-1.267-7.561-1.267-7.561s-13.234 7.99-18.957 9.58c-5.724 1.591-19.758 14.238-19.758 14.238s12.403 39.799 17.331 54.047c4.928 14.248 9.054 33.166 8.734 35.028-.32 1.863-21.499 31.846-26.935 39.235-5.437 7.388-22.22 30.445-23.491 35.981-1.281 5.521 31.597 36.316 31.597 36.316zm-5.777-216.374s-6.075-2.199-9.642-7.34c-3.579-5.142-5.78-9.196-5.78-9.196l14.066-10.234 2.292 1.14s4.979-4.547 9.845-8.59c4.865-4.042 17.983-11.672 25.231-13.753 7.248-2.082 11.934-3.366 13.501-1.964 1.57 1.39 2.744 5.898 2.744 5.898s-10.646 6.69-15.671 10.834c-5.024 4.143-10.679 18.132-11.22 20.011-.53 1.88-1.514 5.808-3.803 5.321-2.29-.487-7.27-.327-8.174-1.707-.902-1.393-2.405-.635-5.239.769-2.833 1.404-8.15 8.811-8.15 8.811z" fill="gray" stroke="#231F20" stroke-width="2" stroke-miterlimit="10"/><path d="M401.948 88.372s5.23 1.488 6.868 1.225m-4.532-6.245s5.23 1.488 6.868 1.224m-4.225-5.632s5.23 1.488 6.868 1.225" stroke="#1D1D1F" stroke-width="2" stroke-linecap="round" stroke-linejoin="round"/><path d="M303.045 667.918s39.604-8.932 52.971-34.739c5.989-11.556 32.944-37.859 39.382-40.966 6.438-3.108 14.267-7.285 14.267-7.285s-15.14 12.967-21.562 35.406c-6.419 22.427-11.694 28.403-11.694 28.403s8.482-1.779 18.489-10.498c10.008-8.718 24.246-16.507 24.246-16.507s-15.044 25.933-19.506 36.738c-4.461 10.804-16.975 18.717-16.975 18.717s7.554 1.759 14.875-1.711c2.586-1.226 8.925-6.447 8.925-6.447s-7.648 14.933-20.036 16.961c-12.401 2.026-27.612-5.294-41.483-10.995-13.884-5.703-41.899-7.077-41.899-7.077z" fill="#D9F94B"/><path d="M251.232 366.449s4.873-10.372 14.839-19.336c9.966-8.964 17.228-13.604 22.154-25.936 4.927-12.331 20.658-38.506 22.422-45.492 1.764-6.987 8.87-18.937 8.87-18.937s5.242 10.404 26.508 20.712c21.267 10.308 41.14 30.451 43.074 35.543 1.935 5.093 4.56 9.446 4.56 9.446s-21.561 35.556-26.125 49.06c-4.563 13.504-7.209 23.983-4.591 39.81 2.618 15.827-2.561 65.634-7.686 82.404-5.124 16.77-12.069 30.997-15.279 36.615-3.209 5.618-10.09 27.689-10.09 27.689s-11.58 3.644-23.263-1.968c-11.684-5.612-15.609-13.827-15.609-13.827s14.28-25.87 17.419-37.647c3.152-11.787 7.005-31.008 5.421-41.357a950.512 950.512 0 00-3.468-20.737s-5.887 3.211-14.472-2.441c-8.586-5.652-17.156-49.931-22.377-53.891-5.232-3.962-22.307-19.71-22.307-19.71z" fill="gray" stroke="#231F20" stroke-width="2" stroke-miterlimit="10"/><path d="M280.773 403.287c.436.227 16.283 11.604 16.179 12.213-.105.609 8.923 33.231 8.923 33.231s-15.103-9.73-21.547-16.901c-6.443-7.171-9.578-24.56-8.062-26.963 1.515-2.391 4.507-1.58 4.507-1.58z" fill="gray" stroke="#231F20" stroke-width="2" stroke-miterlimit="10"/><path d="M111.389 302.314s-11.186 22.067 7.267 39.644c16.24 15.467 21.286 23.923 25.906 33.433 3.74 7.7 7.708 23.455 7.708 23.455l35.241-38.734s.289-14.937-10.911-29.505c-11.2-14.567-17.304-51.139-17.304-51.139l-47.907 22.846z" fill="#D9F94B" stroke="#1D1D1F" stroke-width="2" stroke-linecap="round" stroke-linejoin="round"/><path d="M123.034 311.725l26.513-12.967m-25.216 33.545l35.931-18.254m-12.752 19.704l16.839-9.04" stroke="#1D1D1F" stroke-width="2" stroke-linecap="round" stroke-linejoin="round"/><path d="M174.748 612.475s17.21 7.499 30.863-2.715c13.652-10.214 37.01-34.619 37.01-34.619l40.33 53.549s-40.384 23.063-54.024 29.775c-24.714 12.165-40.955 7.605-40.955 7.605l-13.224-53.595z" fill="#D9F94B" stroke="#1D1D1F" stroke-width="2" stroke-linecap="round" stroke-linejoin="round"/><path d="M239.223 596.271l19.356 27.505m-34.129-17.294l19.356 27.505m-28.071-20.355l8.565 13.206m268.013-330.36l12.269-57.185 53.786 74.522-21.948 76.756-74.381 28.556-33.028-112.558 63.302-10.091zm.054.026l44.108 94.093" stroke="#1D1D1F" stroke-width="2" stroke-linecap="round" stroke-linejoin="round"/><path d="M507.624 260.8l-7.677 34.474 32.892 68.027 12.232-49.097-37.447-53.404zm-23.435 51.698l26.154 63.682m-36.234-52.317l17.196 47.7m-30.039-44.113l17.184 47.698m-240.138 35.573s1.431 3.475 1.401 5.963c-.029 2.487-.694 3.296-.694 3.296l5.185-.302m7.657 12.014c.738-1 .202-2.636-1.196-3.655-1.399-1.019-3.13-1.035-3.867-.035-.737.999-.201 2.636 1.197 3.655 1.398 1.019 3.129 1.034 3.866.035z" stroke="#1D1D1F" stroke-width="2" stroke-linecap="round" stroke-linejoin="round"/><path d="M218.656 407.527l33.231-13.652s2.719 5.764 1.686 9.387c-1.033 3.624-9.528 6.295-11.173 5.711-1.646-.584-6.672-6.149-7.889-5.639-1.218.511.555 9.325-.432 10.284-.986.959-9.275 3.704-11.25 3.166-3.04-.832-4.173-9.257-4.173-9.257z" stroke="#1D1D1F" stroke-width="2" stroke-linecap="round" stroke-linejoin="round"/><path d="M276.064 410.257s-2.441-2.305-1.671-4.771c.77-2.466 2.585-9.219-1.064-11.446-3.487-2.122-6.015.482-7.661 2.443-1.646 1.96-6.497 3.444-10.948-.248-3.092-2.554-15.207-15.289-15.207-15.289s-4.11 10.549-11.323 11.43c-6.032.735-5.558 10.981-9.275 12.516-10.418 4.292-20.765-10.74-20.765-10.74s11.463-1.111 15.027-8.925c4.742-10.416 11.94-25.942 29.55-27.103 17.609-1.162 25.829 4.125 29.483 11.11 3.653 6.984 4.689 8.578 8.016 12.682 3.326 4.103 5.672 8.386 6.394 13.828 0 0-.186 7.284-3.217 10.43-3.031 3.147-7.339 4.083-7.339 4.083z" fill="#1D1D1F"/><path d="M264.396 443.018s5.364 4.945 9.187 6.306c3.823 1.36 9.376-1.744 9.376-1.744l-6.915-12.584-11.648 8.022z" fill="#D9F94B" stroke="#1D1D1F" stroke-width="2" stroke-linecap="round" stroke-linejoin="round"/><path d="M280.055 446.448s8.275.18 14.485-.32c12.459-1.007 24.427-8.195 30.926-11.575 9.604-5.017 24.581-12.236 39.293-21.571 5.07-3.211 11.485-13.574 11.485-13.574l23.57-9.338 2.151 20.81s-10.6 17.24-29.951 27.059c-19.352 9.818-52.406 20.178-73.304 18.073-20.889-2.09-25.131-6.615-25.131-6.615l6.476-2.949z" fill="#D9F94B" stroke="#1D1D1F" stroke-width="2" stroke-linecap="round" stroke-linejoin="round"/><path d="M299.438 599.391s3.155-19.164 2.982-24.725m4.205 24.384s3.156-19.165 2.983-24.726" stroke="#1D1D1F" stroke-width="2" stroke-linecap="round" stroke-linejoin="round"/></svg>