<svg width="579" height="610" fill="none" xmlns="http://www.w3.org/2000/svg"><path d="M258.201 328.26c4.85 4.182 22.74 12.982 28 13.813 5.26.831 28.849-25.337 35.37-40.621 6.52-15.285 11.369-75.795 10.315-83.968-1.055-8.16-10.11-25.338-10.11-25.338s-7.794-5.23-12-2.724c-4.205 2.507-11.164 3.351-12.63 15.489-1.479 12.151-7.164 26.59-7.164 26.59s-5.479 6.076-8.425 11.511c-2.945 5.449-7.575 14.658-7.575 14.658s-3.164-13.187-8.63-18.636m-6.575-143.047c8.64 0 15.643-6.965 15.643-15.556 0-8.592-7.003-15.557-15.643-15.557s-15.644 6.965-15.644 15.557c0 8.591 7.004 15.556 15.644 15.556zm-47.479 0c8.64 0 15.643-6.965 15.643-15.556 0-8.592-7.003-15.557-15.643-15.557s-15.644 6.965-15.644 15.557c0 8.591 7.004 15.556 15.644 15.556zm31.671-18.758h-16.028m-31.068-1.879c-.191-.56-18.917-10.34-18.917-10.34" stroke="#1D1D1F" stroke-width="2" stroke-miterlimit="10" stroke-linecap="round" stroke-linejoin="round"/><path d="M254.599 79.873a2.364 2.364 0 002.37-2.357 2.364 2.364 0 00-2.37-2.357 2.364 2.364 0 00-2.37 2.357 2.364 2.364 0 002.37 2.357zm-45.671 0a2.364 2.364 0 002.37-2.357 2.364 2.364 0 00-2.37-2.357 2.364 2.364 0 00-2.37 2.357 2.364 2.364 0 002.37 2.357z" fill="#1D1D1F"/><path d="M240.695 100.374s-6.617 2.629-11.534.558m11.684 21.904l-25.616-11.374s-1.178 10.38 5.712 14.78c12.123 7.738 19.904-3.406 19.904-3.406zm22.932-62.539s-9.452-4.333-14.562-1.88m-27.808-3.95s-9.452-4.333-14.561-1.88" stroke="#1D1D1F" stroke-width="2" stroke-miterlimit="10" stroke-linecap="round" stroke-linejoin="round"/><path d="M179.805 102.239s11.411 47.651 41.068 51.738c20 2.751 43.794-13.704 54.328-57.527 8.671-36.072-.712-62.05-36.753-66.6-36.054-4.536-57.958 14.29-60.698 26.55-2.74 12.26-.507 17.94-.507 17.94s-5.657-3.65-12.274 2.93c-6.616 6.58 5.48 23.825 5.48 23.825l-1.767 41.998" stroke="#1D1D1F" stroke-width="2" stroke-miterlimit="10" stroke-linecap="round" stroke-linejoin="round"/><path d="M170.312 78.224c6.383 1.13 12.575-2.848 14.123-9.114 1.48-5.966 3.37-12.954 5.123-17.3 3.548-8.814 11.699-9.522 35.096-7.056 23.397 2.465 44.89 1.09 49.068 15.025 1.794 5.98-.247 43.278-.247 43.278s7.384-16.551 10.576-32.762c3.191-16.21.232-21.959.232-29.75 0-.654 5.603-4.864 8.644-13.705 3.356-9.726 4.178-24.125 4.178-24.125s-16.438 10.326-40.547 3.978c-2.987-.79-6.685-1.798-10.877-2.806-20.822-4.972-53.835-9.563-72.424 16.55-19.493 27.395-8.287 56.847-8.287 56.847l5.342.94z" fill="#1D1D1F"/><path d="M338.666 459.321l-13.493-3.625" stroke="#1D1D1F" stroke-width="2" stroke-miterlimit="10" stroke-linecap="round" stroke-linejoin="round"/><path d="M557.048 379.562l-249.737 10.87-27.712-60.169 208.176-1.458 69.273 50.757zm-12.767 96.078l12.767-96.078-249.737 10.871-1.096 97.167 238.066-11.96z" fill="#fff" stroke="#1D1D1F" stroke-width="2" stroke-miterlimit="10" stroke-linecap="round" stroke-linejoin="round"/><path d="M279.598 330.263l-4.739 102.589 31.356 54.748 1.096-97.168-27.713-60.169z" fill="#fff" stroke="#1D1D1F" stroke-width="2" stroke-miterlimit="10" stroke-linecap="round" stroke-linejoin="round"/><path d="M393.022 394.465l-4.438 80.208m17.822-80.44l-4.439 80.208m17.822-80.44l-4.438 80.208m17.821-80.439l-4.438 80.207m17.822-80.439l-4.439 80.208m17.822-80.44l-4.438 80.222m17.822-80.453l-4.439 80.222m17.822-80.454l-4.438 80.222" stroke="#1D1D1F" stroke-width="2" stroke-miterlimit="10" stroke-linecap="round" stroke-linejoin="round"/><path d="M556.349 487.014l-237.025-17.968-19.342 107.412 277.381 22.572-21.014-112.016z" fill="#fff" stroke="#1D1D1F" stroke-width="2" stroke-miterlimit="10" stroke-linecap="round" stroke-linejoin="round"/><path d="M480.788 506.317l4.014 77.047 81.533 7.111-12.712-78.26-72.835-5.898zm-3.534 77.061l-166.231-14.072 9-57.241 155.3 12.478 1.931 58.835zm4.493-95.928l66.561 5.435m-65.588-.313l66.547 5.435m-66.232-.64l66.561 5.435m27.767 96.228l-1.507 9.944-276.244-21.468.37-11.048m50.164-18.022l97.725 8.024m-124.396-22.382l143.642 11.661m-143.368-22.614l143.642 11.661m-143.382-23.021l143.642 11.66m-254.12-343.308s-40.178-39.627-45.397-47.746c-5.219-8.119-8.493-15.271-8.493-15.271s-10.123 12.015-10.123 20.134 17.643 21.441 30.698 27.285c13.068 5.844 33.315 15.598 33.315 15.598zm3.26.64l15.027-13.322-.329-9.74s4.576 3.569 6.206 9.413c1.644 5.857-20.904 13.649-20.904 13.649zm-66.547-49.231c-.987 1.294-82.808 53.495-96.534 72.975-13.726 19.48-20.287 116.497-29.205 163.835-8.918 47.337-23.054 96.146-23.054 96.146" stroke="#1D1D1F" stroke-width="2" stroke-miterlimit="10" stroke-linecap="round" stroke-linejoin="round"/><path d="M237.695 177.121s28.863 10.053 27.671 61.941c-1.192 51.887-35.397 258.441-35.397 258.441m1.233-321.758l.685-22.368m-72.246-26.276s3.027-2.875 9.109-1.662m104.903 131.223s6.411 12.546 4.644 29.042" stroke="#1D1D1F" stroke-width="2" stroke-miterlimit="10" stroke-linecap="round" stroke-linejoin="round"/><path d="M266.818 415.048s21.904-22.068 31.013-25.338c9.11-3.269 26.274-2.138 29.89-4.345 4.74-2.902 9.85-6.157 12.397-4.713 2.548 1.444 2.548 8.336-3.643 13.418-6.192 5.081-15.315 7.247-15.315 7.247s4.013 4.345 12.397 4.713c8.383.368 26.246 2.179 33.904 5.803 7.657 3.624 7.657 6.525 6.931 9.794-.726 3.27-5.835 2.18-12.753 1.812-6.932-.368-26.973-.368-26.973-.368s-1.821 6.158 11.672 7.983c13.493 1.812 26.616 7.247 28.068 11.238 1.452 3.992-2.918 6.158-2.918 6.158l-41.931-5.436s28.808 9.795 30.26 13.418c1.452 3.624-4.014 7.983-7.288 7.615-3.274-.368-13.849-4.713-13.849-4.713s0 5.435-3.644 5.803c-3.643.368-13.849-3.991-23.698-6.157-9.849-2.18-26.616-2.534-34.274-7.247-7.657-4.714-13.493-3.992-13.493-3.992" fill="#fff"/><path d="M266.818 415.048s21.904-22.068 31.013-25.338c9.11-3.269 26.274-2.138 29.89-4.345 4.74-2.902 9.85-6.157 12.397-4.713 2.548 1.444 2.548 8.336-3.643 13.418-6.192 5.081-15.315 7.247-15.315 7.247s4.013 4.345 12.397 4.713c8.383.368 26.246 2.179 33.904 5.803 7.657 3.624 7.657 6.525 6.931 9.794-.726 3.27-5.835 2.18-12.753 1.812-6.932-.368-26.973-.368-26.973-.368s-1.821 6.158 11.672 7.983c13.493 1.812 26.616 7.247 28.068 11.238 1.452 3.992-2.918 6.158-2.918 6.158l-41.931-5.436s28.808 9.795 30.26 13.418c1.452 3.624-4.014 7.983-7.288 7.615-3.274-.368-13.849-4.713-13.849-4.713s0 5.435-3.644 5.803c-3.643.368-13.849-3.991-23.698-6.157-9.849-2.18-26.616-2.534-34.274-7.247-7.657-4.714-13.493-3.992-13.493-3.992" stroke="#1D1D1F" stroke-width="2" stroke-miterlimit="10" stroke-linecap="round" stroke-linejoin="round"/><path d="M266.612 404.94c0 1.716 2.877 15.979.576 27.967-2.302 11.987-7.466 26.822-7.466 26.822S83.505 485.42 68.012 472.861c-15.493-12.56-35.11-111.226-36.808-151.712-2.617-62.335 16.205-101.785 22.52-105.79 6.315-3.991 55.616 13.214 71.684 64.011 16.069 50.797 8.932 113.419 8.932 113.419l132.272 12.151z" fill="#D9F94B" stroke="#1D1D1F" stroke-width="2" stroke-linecap="round" stroke-linejoin="round"/><path d="M126.696 418.685c11.411-16.537 7.644-25.896 7.644-25.896s-1.452 5.476-19.384 15.203c-17.931 9.726-23.465 10.693-23.465 10.693m247.175 40.636L313.05 449.09" stroke="#1D1D1F" stroke-width="2" stroke-miterlimit="10" stroke-linecap="round" stroke-linejoin="round"/><path d="M358.351 220.399l177.176-.368-14.945 150.812s-171.71 6.158-171.71 5.081c0-1.076 9.479-155.525 9.479-155.525z" fill="#fff" stroke="#1D1D1F" stroke-width="2" stroke-miterlimit="10" stroke-linecap="round" stroke-linejoin="round"/><path d="M535.527 220.045l-56.876-15.598-151.286-1.076-10.219 142.843 31.726 29.724 9.479-155.539 177.176-.354z" fill="#fff" stroke="#1D1D1F" stroke-width="2" stroke-miterlimit="10" stroke-linecap="round" stroke-linejoin="round"/><path d="M368.187 229.826l158.231-1.076-12.027 119.277-154.588 2.166 8.384-120.367z" fill="#fff" stroke="#1D1D1F" stroke-width="2" stroke-miterlimit="10" stroke-linecap="round" stroke-linejoin="round"/><path d="M379.858 243.244h129.793l-9.849 91.364-123.958 1.444 4.014-92.808z" fill="#D9F94B" stroke="#1D1D1F" stroke-width="2" stroke-linecap="round" stroke-linejoin="round"/><path d="M350.694 357.085l170.258-3.27m-12.219 13.419c2.111 0 3.822-1.702 3.822-3.801s-1.711-3.801-3.822-3.801c-2.11 0-3.822 1.702-3.822 3.801s1.712 3.801 3.822 3.801z" stroke="#1D1D1F" stroke-width="2" stroke-miterlimit="10" stroke-linecap="round" stroke-linejoin="round"/><path d="M323.489 220.304s9.506-2.003 16.136.572c6.63 2.575 35.452 1.144 41.205-.858 5.767-2.003 4.905-8.882 4.905-8.882s12.684 7.738 23.054 9.74 12.397-.286 12.397-.286 6.343 1.144 8.356.286c2.014-.858 3.74-2.575 3.74-2.575s4.616 1.145 6.055-.858c1.438-2.002 1.726-6.593-4.617-8.595-6.342-2.003-34.26-17.968-37.438-19.685-3.164-1.716-17.027-8.119-21.356-8.405-4.328-.286-34.876.573-40.917 2.003-6.055 1.43-30.548 15.475-30.548 15.475s-2.027 11.034 3.261 16.101c5.273 5.068 15.767 5.967 15.767 5.967z" fill="#fff" stroke="#1D1D1F" stroke-width="2" stroke-miterlimit="10" stroke-linecap="round" stroke-linejoin="round"/><path d="M421.186 220.59s-14.767-9.822-25.726-15.57m-9.725 6.117s-2.439-3.543-15.384-3.543-17.739.205-17.739.205m80.67 10.502l-20.561-12.723" stroke="#1D1D1F" stroke-width="2" stroke-miterlimit="10" stroke-linecap="round" stroke-linejoin="round"/></svg>