<svg width="466" height="527" fill="none" xmlns="http://www.w3.org/2000/svg"><path d="M150.675 41.644s-.253 6.633 1.521 9.383c1.774 2.75 4.228 5.9 6.06 5.04 3.064-1.454 8.525.848 7.891 3.85-.633 3.002-7.097 3.998-7.223 5.007-.127.996-.761 3.38.253 3.872s7.097 2.623 11.797 3.001c4.689.379 4.436 7.252 4.436 7.252l7.35.378s3.802-16.76 2.788-22.008c-1.014-5.247-5.196-11.01-10.899-13.633-5.725-2.635-23.974-2.142-23.974-2.142zM65.422 256.625s9.044 4.594 12.5 5.385c3.456.79 10.242-.527 13.433 1.833 3.191 2.36 4.251 6.954 4.251 6.954s-6.117 6.037-14.757 6.69c-8.641.653-23.537.917-23.537.917l-1.866 1.97-19.021.126 2.523-17.585 26.474-6.29z" fill="#fff" stroke="#1D1D1F" stroke-width="2" stroke-miterlimit="10" stroke-linecap="round" stroke-linejoin="round"/><path d="M69.408 258.458s-2.258 1.57-3.72 4.331l3.72-4.331z" fill="#fff"/><path d="M69.408 258.458s-2.258 1.57-3.72 4.331" stroke="#1D1D1F" stroke-width="2" stroke-miterlimit="10" stroke-linecap="round" stroke-linejoin="round"/><path d="M72.473 260.039s-2.258 1.57-3.721 4.331l3.721-4.331z" fill="#fff"/><path d="M72.473 260.039s-2.258 1.57-3.721 4.331" stroke="#1D1D1F" stroke-width="2" stroke-miterlimit="10" stroke-linecap="round" stroke-linejoin="round"/><path d="M75.93 261.346s-2.259 1.569-3.722 4.33l3.721-4.33z" fill="#fff"/><path d="M75.93 261.346s-2.259 1.569-3.722 4.33" stroke="#1D1D1F" stroke-width="2" stroke-miterlimit="10" stroke-linecap="round" stroke-linejoin="round"/><path d="M56.137 110.349s8.824 60.078 8.824 69.232c0 9.142.888 57.466 1.106 64.214.22 6.747 3.088 14.366 3.088 14.366s-18.318 11.101-20.08 11.319c-1.763.218-8.169-2.83-8.169-2.83l15.23-156.301z" fill="#fff" stroke="#1D1D1F" stroke-width="2" stroke-miterlimit="10" stroke-linecap="round" stroke-linejoin="round"/><path d="M247.701 80.253l5.104-10.563-85.264-64.74-34.251 29.477-25.841 51.165 140.252-5.34zm-5.126-.459l-72.522-57.626" stroke="#1D1D1F" stroke-width="2" stroke-miterlimit="10" stroke-linecap="round" stroke-linejoin="round"/><path d="M157.76 39.616s15.219-5.831 16.809-8.512c1.59-2.692 7.5-17.254 7.5-18.605 0-1.352-2.039-2.91-2.039-2.91s-.68-3.586-1.59-4.033c-.91-.447-5.91-1.799-5.91-1.799s-2.731-2.463-4.539-2.245c-1.821.229-9.54 6.496-10 8.294-.45 1.799-.91 12.327-1.141 13.221-.23.894-4.769 3.357-4.769 3.357" fill="#fff"/><path d="M157.76 39.616s15.219-5.831 16.809-8.512c1.59-2.692 7.5-17.254 7.5-18.605 0-1.352-2.039-2.91-2.039-2.91s-.68-3.586-1.59-4.033c-.91-.447-5.91-1.799-5.91-1.799s-2.731-2.463-4.539-2.245c-1.821.229-9.54 6.496-10 8.294-.45 1.799-.91 12.327-1.141 13.221-.23.894-4.769 3.357-4.769 3.357" stroke="#1D1D1F" stroke-width="2" stroke-miterlimit="10" stroke-linecap="round" stroke-linejoin="round"/><path d="M156.62 43.203s1.359-6.279-1.141-10.311c-2.5-4.033-5.91-8.513-5.91-8.513s-9.32 3.14-11.129 2.91c-1.809-.229-18.18-7.171-24.769-7.171-6.59 0-39.988 5.384-47.707 7.618-7.73 2.246-25.45 8.512-31.578 15.02-6.13 6.507-16.13 17.93-16.13 17.93s19.09 4.032 22.95 7.4c3.86 3.357 12.719 14.79 13.629 18.823.91 4.033 5 12.098 5 12.098s5.45 3.586 13.41 4.262c7.949.676 21.808-6.496 26.129-10.529 4.32-4.032 19.988-12.773 25.218-18.823 5.231-6.049 12.039-15.684 13.86-18.605 1.82-2.921 4.999-7.618 4.999-7.618l13.169-4.492z" fill="#fff" stroke="#1D1D1F" stroke-width="2" stroke-miterlimit="10" stroke-linecap="round" stroke-linejoin="round"/><path d="M138.44 27.289l5 20.392c.68-1.122-24.988 13.668-31.129 14.126-6.14.458-14.539-8.294-14.77-14.126-.23-5.831 2.04-13.667 6.591-17.711 4.539-4.033 11.129-6.496 11.129-6.496" fill="#fff"/><path d="M138.44 27.289l5 20.392c.68-1.122-24.988 13.668-31.129 14.126-6.14.458-14.539-8.294-14.77-14.126-.23-5.831 2.04-13.667 6.591-17.711 4.539-4.033 11.129-6.496 11.129-6.496m57.257-19.716l-7.039 6.278m12.269-3.586l-7.039 6.278m9.539-1.352l-7.039 6.278" stroke="#1D1D1F" stroke-width="2" stroke-miterlimit="10" stroke-linecap="round" stroke-linejoin="round"/><path d="M17.163 61.097c-.473.16-4.758 6.725-4.758 6.725S.147 77.766 1.506 99.51c1.36 21.745 10.173 83.999 10.173 90.358 0 6.358-4.067 30.451-3.053 46.845 1.014 16.395 0 67.594 0 67.594s16.394.653 21.036-.435c4.632-1.089 16.556-6.531 16.556-6.531l-3.975-14.584 4.631-27.427s2.65-50.5 3.088-52.459c.438-1.959 1.762-9.36 2.212-15.455.438-6.095 3.755-38.093 4.193-54.636.438-16.543 3.468-33.762 3.468-33.762s1.382-17.185-6.774-27.198c-8.168-10.013-35.898-10.723-35.898-10.723z" fill="#fff" stroke="#1D1D1F" stroke-width="2" stroke-miterlimit="10" stroke-linecap="round" stroke-linejoin="round"/><path d="M44.317 295.2s11.44 11.548 13.836 13.255c2.396 1.707 14.493 2.497 17.154 4.857 2.662 2.36 3.721 5.901 3.721 5.901s-4.389 7.87-6.255 8.661c-1.867.79-27.27 1.443-31.52.126-4.252-1.318-13.03-5.637-14.759-5.637-1.728 0-2.13 1.318-2.13 1.318l-14.632-3.013s-.795-16.796 0-19.683c.795-2.898 34.585-5.785 34.585-5.785z" fill="#fff" stroke="#1D1D1F" stroke-width="2" stroke-miterlimit="10" stroke-linecap="round" stroke-linejoin="round"/><path d="M41.252 305.567s3.191-3.677 6.648-4.456l-6.648 4.456z" fill="#fff"/><path d="M41.252 305.567s3.191-3.677 6.648-4.456" stroke="#1D1D1F" stroke-width="2" stroke-miterlimit="10" stroke-linecap="round" stroke-linejoin="round"/><path d="M45.238 308.053s3.191-3.677 6.648-4.456l-6.648 4.456z" fill="#fff"/><path d="M45.238 308.053s3.191-3.677 6.648-4.456" stroke="#1D1D1F" stroke-width="2" stroke-miterlimit="10" stroke-linecap="round" stroke-linejoin="round"/><path d="M48.038 310.677s3.191-3.677 6.647-4.456l-6.647 4.456z" fill="#fff"/><path d="M48.038 310.677s3.191-3.677 6.647-4.456" stroke="#1D1D1F" stroke-width="2" stroke-miterlimit="10" stroke-linecap="round" stroke-linejoin="round"/><path d="M31.033 82.922s6.463 4.067 6.463 11.686c0 7.618-2.868 12.567-2.868 12.567" fill="#fff"/><path d="M31.033 82.922s6.463 4.067 6.463 11.686c0 7.618-2.868 12.567-2.868 12.567" stroke="#1D1D1F" stroke-width="2" stroke-miterlimit="10" stroke-linecap="round" stroke-linejoin="round"/><path d="M12.404 67.822s24.366 6.415 30.83 10.31c6.463 3.896 12.384 10.976 12.384 10.976" fill="#fff"/><path d="M12.404 67.822s24.366 6.415 30.83 10.31c6.463 3.896 12.384 10.976 12.384 10.976m74.009-20.565l6.336-.126s-2.154 4.377-2.028 7.126c.127 2.75.438 3.094.438 3.094" stroke="#1D1D1F" stroke-width="2" stroke-miterlimit="10" stroke-linecap="round" stroke-linejoin="round"/><path d="M112.53 83.61l13.203-4.148 121.969.79v227.355H119.903l-18.237-35.023-.633-173.222-2.973-5.396 14.47-10.357z" fill="#fff" stroke="#1D1D1F" stroke-width="2" stroke-miterlimit="10" stroke-linecap="round" stroke-linejoin="round"/><path d="M101.033 99.362l26.128 6.679 82.096.206 27.823 8.936v185.458" fill="#fff"/><path d="M101.033 99.362l26.128 6.679 82.096.206 27.823 8.936v185.458" stroke="#1D1D1F" stroke-width="2" stroke-miterlimit="10" stroke-linecap="round" stroke-linejoin="round"/><path d="M119.903 307.607V116.111l117.177-.928" fill="#fff"/><path d="M119.903 307.607V116.111l117.177-.928m-117.177.928l-18.513-6.565" stroke="#1D1D1F" stroke-width="2" stroke-miterlimit="10" stroke-linecap="round" stroke-linejoin="round"/><path d="M207.806 145.852l14.055-20.931-74.907.252-8.18 21.184 69.032-.505z" fill="#fff" stroke="#1D1D1F" stroke-width="2" stroke-miterlimit="10" stroke-linecap="round" stroke-linejoin="round"/><path d="M132.334 226.323v-44.898h30.68l4.343-8.57h44.481l-5.369 8.57h16.878v42.916" fill="#fff"/><path d="M132.334 226.323v-44.898h30.68l4.343-8.57h44.481l-5.369 8.57h16.878v42.916" stroke="#1D1D1F" stroke-width="2" stroke-miterlimit="10" stroke-linecap="round" stroke-linejoin="round"/><path d="M137.438 225.956v-23.6h80.529v21.985" stroke="#1D1D1F" stroke-width="2" stroke-miterlimit="10" stroke-linecap="round" stroke-linejoin="round"/><path d="M128.21 307.332V124.463h102.821v175.823m-129.18-73.78l18.294 25.525 7.996.619" stroke="#1D1D1F" stroke-width="2" stroke-miterlimit="10" stroke-linecap="round" stroke-linejoin="round"/><path d="M236.642 224.73l-115.31 2.017-19.677-20.095m24.078-127.19l1.048 25.479" stroke="#1D1D1F" stroke-width="2" stroke-miterlimit="10" stroke-linecap="round" stroke-linejoin="round"/><path d="M242.944 408.184l-19.701 41.552s11.152 10.621 18.514 9.681c7.362-.939 17.569-7.79 17.569-7.79l8.306-34.232-24.688-9.211z" fill="#fff" stroke="#1D1D1F" stroke-width="2" stroke-miterlimit="10" stroke-linecap="round" stroke-linejoin="round"/><path d="M260.27 443.355s8.549 33.991 7.12 35.171c-1.428 1.18-11.636 2.36-13.295 2.601-1.659.241-26.117-2.36-29.677-2.601-3.56-.24-23.029 1.18-28.49-.71-5.461-1.89-14.954-10.15-16.383-12.281-1.428-2.131 4.275-5.19 6.89-6.851 2.615-1.65 20.702-4.824 25.449-8.604 4.746-3.781 8.732-11.777 10.288-15.845 1.993-5.201 6.278-6.472 7.707-6.942 1.429-.47 2.373 7.55 2.373 7.55l-4.988 9.211s5.933 4.491 11.394 7.08c5.461 2.6 12.58-.241 12.58-.241l9.032-7.538z" fill="#D9F94B" stroke="#1D1D1F" stroke-width="2" stroke-linecap="round" stroke-linejoin="round"/><path d="M450.119 514.179s-18.594-154.869-23.295-164.642c-3.986-8.283-38.594-7.55-49.976-5.098-11.383 2.452-11.936 18.01-14.701 28.71-2.765 10.712-29.838 129.092-29.838 129.092" stroke="#231F20" stroke-width="8" stroke-miterlimit="10" stroke-linecap="round" stroke-linejoin="round"/><path d="M346.479 443.389l95.61 10.185-31.474-28.355-64.136 18.17zm58.56-94.7l7.557 131.842" stroke="#231F20" stroke-width="8" stroke-miterlimit="10" stroke-linecap="round" stroke-linejoin="round"/><path d="M340.016 421.209s18.307 28.985 19.055 31.987c.761 3.001 4.367 7.08-2.062 8.202-6.417 1.123-31.923-9.772-31.923-9.772l-7.558-23.474 22.488-6.943z" fill="#fff" stroke="#1D1D1F" stroke-width="2" stroke-miterlimit="10" stroke-linecap="round" stroke-linejoin="round"/><path d="M331.894 448.076s.38-8.261-3.214-9.578c-3.594-1.318-11.14-3.941-11.901-2.257-.76 1.696-1.509 13.519-2.65 15.592-1.129 2.063-24.181 20.095-26.635 20.656-2.454.562-8.883 5.637-8.502 9.578.38 3.941 5.668 7.894 15.679 8.455 10.012.561 28.709.939 35.322-2.062 6.613-3.002 10.012-3.38 13.79-4.136 3.779-.756 22.477-1.879 26.072-4.319 3.594-2.44 4.723-4.136 4.723-4.136s-5.104-12.957-6.797-17.654c-1.705-4.698-7.362-15.031-7.362-15.031s1.89 8.455-2.073 9.199c-3.964.756-9.252-4.697-14.735-5.075-5.484-.378-11.717.768-11.717.768z" fill="#D9F94B" stroke="#1D1D1F" stroke-width="2" stroke-linecap="round" stroke-linejoin="round"/><path d="M399.52 354.189c21.659 0 39.216-3.698 39.216-8.26 0-4.562-17.557-8.261-39.216-8.261-21.658 0-39.216 3.699-39.216 8.261 0 4.562 17.558 8.26 39.216 8.26z" fill="#1D1D1F"/><path d="M340.178 298.212s-70.138 9.234-73.974 15.283c-3.837 6.049-14.735 52.551-18.571 62.736-3.837 10.185-11.533 28.343-11.533 28.343s3.848 8.604 13.134 10.506c9.286 1.913 17.938 7.32 17.938 7.32s24.976-58.6 27.856-64.969c2.881-6.37 57.65-33.121 57.65-33.121l-12.5-26.098z" fill="gray" stroke="#231F20" stroke-width="2" stroke-miterlimit="10"/><path d="M442.976 340.086c5.991-.527-45.598 11.502-83.259 16.406-18.376 2.394-46.751 1.913-48.352 2.864-1.602.951-.957-.951-1.602.951-.645 1.913 32.35 62.105 32.35 62.105s-2.246 8.283-9.931 8.913c-7.684.642-18.248 1.914-22.096 1.914-3.848 0-12.811-3.506-12.811-3.506s-6.728-17.219-9.297-22.306c-2.569-5.087-11.198-25.147-17.604-33.098-6.405-7.962-13.133-20.702-13.456-27.392-.322-6.691 4.159-20.381 17.938-24.517 13.767-4.136 93.513-18.147 97.672-18.468 4.158-.332 70.448 36.134 70.448 36.134z" fill="gray" stroke="#231F20" stroke-width="2" stroke-miterlimit="10"/><path d="M175.974 454.055l79.999 5.797 37.892-9.99 6.163 1.616-.322 12.235-41.141 11.915-81.946-6.759-.645-14.814zm8.41 71.729c4.168 0 7.546-3.359 7.546-7.504 0-4.144-3.378-7.504-7.546-7.504-4.167 0-7.546 3.36-7.546 7.504 0 4.145 3.379 7.504 7.546 7.504z" fill="#fff" stroke="#1D1D1F" stroke-width="2" stroke-miterlimit="10" stroke-linecap="round" stroke-linejoin="round"/><path d="M187.84 525.784c4.168 0 7.546-3.359 7.546-7.504 0-4.144-3.378-7.504-7.546-7.504-4.167 0-7.546 3.36-7.546 7.504 0 4.145 3.379 7.504 7.546 7.504zm116.416-1.73c4.168 0 7.546-3.359 7.546-7.504 0-4.144-3.378-7.504-7.546-7.504-4.167 0-7.546 3.36-7.546 7.504 0 4.145 3.379 7.504 7.546 7.504z" fill="#fff" stroke="#1D1D1F" stroke-width="2" stroke-miterlimit="10" stroke-linecap="round" stroke-linejoin="round"/><path d="M307.724 524.054c4.168 0 7.546-3.359 7.546-7.504 0-4.144-3.378-7.504-7.546-7.504-4.167 0-7.546 3.36-7.546 7.504 0 4.145 3.379 7.504 7.546 7.504zM180.467 487.13c4.168 0 7.546-3.36 7.546-7.504s-3.378-7.504-7.546-7.504c-4.167 0-7.546 3.36-7.546 7.504s3.379 7.504 7.546 7.504z" fill="#fff" stroke="#1D1D1F" stroke-width="2" stroke-miterlimit="10" stroke-linecap="round" stroke-linejoin="round"/><path d="M183.935 487.13c4.167 0 7.546-3.36 7.546-7.504s-3.379-7.504-7.546-7.504c-4.168 0-7.546 3.36-7.546 7.504s3.378 7.504 7.546 7.504z" fill="#fff" stroke="#1D1D1F" stroke-width="2" stroke-miterlimit="10" stroke-linecap="round" stroke-linejoin="round"/><path d="M314.798 451.443s3.237-.734 9.55 3.804m-14.539 1.168s3.237-.734 9.551 3.804m-15.138 1.008s3.237-.733 9.55 3.805" stroke="#1D1D1F" stroke-width="2" stroke-miterlimit="10" stroke-linecap="round" stroke-linejoin="round"/><path d="M263.093 326.178h-12.626v156.541h12.626V326.178z" fill="#fff" stroke="#1D1D1F" stroke-width="2" stroke-miterlimit="10" stroke-linecap="round" stroke-linejoin="round"/><path d="M170.79 492.698l83.305-11.571 9.01 1.592 46.635 7.081-.323 17.402-53.121-10.632-85.184 11.915-.322-15.787zm3.56-175.205l-3.33 3.266.231 10.23h124.411v-9.096l-8.237-19.557-113.075 15.157z" fill="#fff" stroke="#1D1D1F" stroke-width="2" stroke-miterlimit="10" stroke-linecap="round" stroke-linejoin="round"/><path d="M285.409 294.328l3.145 22.341-105.183 1.672-9.033-.836-1.682-23.383 6.51-10.231 5.668-9.394 4.193 3.964s14.908 1.673 15.115 1.043c.208-.631 2.731-10.231 2.731-10.231l46.819 14.195 1.682 4.387 30.035 6.473z" fill="#fff" stroke="#1D1D1F" stroke-width="2" stroke-miterlimit="10" stroke-linecap="round" stroke-linejoin="round"/><path d="M255.178 299.747l.208-11.892-1.682-4.387-46.82-14.195-2.719 10.231-15.126-1.043-1.256 7.298 67.395 13.988z" fill="#fff" stroke="#1D1D1F" stroke-width="2" stroke-miterlimit="10" stroke-linecap="round" stroke-linejoin="round"/><path d="M204.05 298.911c3.881 0 7.028-3.128 7.028-6.988 0-3.86-3.147-6.988-7.028-6.988s-7.028 3.128-7.028 6.988c0 3.86 3.147 6.988 7.028 6.988z" fill="#fff" stroke="#1D1D1F" stroke-width="2" stroke-miterlimit="10" stroke-linecap="round" stroke-linejoin="round"/><path d="M288.358 316.382l-3.791-5.98-111.899-16.291m16.371-15.65l-12.385-15.031 7.984-9.406 19.216 21.756m1.982-3.585l-6.844-1.891" stroke="#1D1D1F" stroke-width="2" stroke-miterlimit="10" stroke-linecap="round" stroke-linejoin="round"/><path d="M295.846 291.969c-.403 0-7.442 3.093-6.763 6.186.68 3.094 5.415 1.879 8.249.802 2.834-1.077 6.763-3.494 6.763-3.494l-8.249-3.494z" fill="#fff" stroke="#1D1D1F" stroke-width="2" stroke-miterlimit="10" stroke-linecap="round" stroke-linejoin="round"/><path d="M328.104 285.587s-12.097-2.475-15.484-2.303c-3.375.172-19.93-2.302-22.062-1.947-2.131.355-10.679.527-13.882 2.658-3.203 2.119-8.364 9.382-8.537 10.081-.173.711.53 1.948.53 1.948s.53 3.712 1.429 4.25c.887.527 5.518-3.712 8.894-5.843 3.375-2.119 10.495-1.764 12.638-1.592 2.131.172 11.659 5.316 17.338 5.453 5.68.138 15.426-.802 17.857-1.34 2.431-.539 1.279-11.365 1.279-11.365z" fill="#fff" stroke="#1D1D1F" stroke-width="2" stroke-miterlimit="10" stroke-linecap="round" stroke-linejoin="round"/><path d="M268.68 296.035s8.226-7.824 12.823-9.165c4.597-1.34 6.901-1.615 6.901-1.615m31.877-11.869s-15.794 1.696-19.435.378c-3.64-1.317-10.599-3.952-13.076-3.46-2.488.493-16.06 5.431-17.384 6.255-1.325.825-2.65 8.066-2.984 10.048-.334 1.97 1.82 4.113 1.82 4.113" stroke="#1D1D1F" stroke-width="2" stroke-miterlimit="10" stroke-linecap="round" stroke-linejoin="round"/><path d="M270.213 289.242s3.813-9.223 5.461-10.54c1.659-1.318 4.47-1.971 4.47-1.971" stroke="#1D1D1F" stroke-width="2" stroke-miterlimit="10" stroke-linecap="round" stroke-linejoin="round"/><path d="M326.111 272.091l-5.83 1.283s6.936 8.49 7.293 10.792c.357 2.303 11.037.356 11.037.356l-12.5-12.431z" fill="#fff" stroke="#1D1D1F" stroke-width="2" stroke-miterlimit="10" stroke-linecap="round" stroke-linejoin="round"/><path d="M326.883 281.039s-1.625 3.322-1.982 8.81.173 12.029.173 12.029 8.364 4.423 11.382 4.778c3.03.355 2.086-24.311 2.086-24.311l-11.659-1.306z" fill="#fff" stroke="#1D1D1F" stroke-width="2" stroke-miterlimit="10" stroke-linecap="round" stroke-linejoin="round"/><path d="M366.514 258.882l-40.403 13.221s8.341 9.589 8.859 13.22c.519 3.632 12.512 4.663 19.551 1.811 7.039-2.853 18.502-7.264 18.502-7.264l-6.509-20.988z" fill="#D9F94B" stroke="#1D1D1F" stroke-width="2" stroke-linecap="round" stroke-linejoin="round"/><path d="M388.15 167.631s-4.689 5.705-5.991 16.326c-1.302 10.631-9.124 25.399-11.728 37.588-2.604 12.179-6.521 34.221-7.039 43.81-.519 9.589-1.82 37.325-1.82 37.325s16.681 13.221 24.239 20.737c7.557 7.515 14.078 13.736 27.108 17.883 13.03 4.148 21.901 6.737 31.797 3.884 9.908-2.853 19.55-11.411 19.55-11.411s-2.35-52.356-4.435-72.061c-2.085-19.705-2.604-64.798-5.737-77.767-3.134-12.957-11.475-29.81-17.466-36.294-5.99-6.484-7.039-6.736-10.161-7.515-3.122-.757-38.317 27.495-38.317 27.495z" fill="#D9F94B" stroke="#1D1D1F" stroke-width="2" stroke-linecap="round" stroke-linejoin="round"/><path d="M374.82 106.752c4.429 0 8.019-3.57 8.019-7.974s-3.59-7.974-8.019-7.974c-4.428 0-8.018 3.57-8.018 7.974s3.59 7.974 8.018 7.974zm24.343 0c4.429 0 8.018-3.57 8.018-7.974s-3.589-7.974-8.018-7.974c-4.428 0-8.018 3.57-8.018 7.974s3.59 7.974 8.018 7.974zm-16.233-9.624h8.215m15.933-.963c.092-.286 9.7-5.304 9.7-5.304" stroke="#1D1D1F" stroke-width="2" stroke-miterlimit="10" stroke-linecap="round" stroke-linejoin="round"/><path d="M376.963 98.48c.668 0 1.21-.538 1.21-1.203 0-.664-.542-1.203-1.21-1.203-.668 0-1.21.539-1.21 1.203 0 .665.542 1.204 1.21 1.204zm23.422 0c.668 0 1.209-.539 1.209-1.203 0-.665-.541-1.203-1.209-1.203s-1.21.538-1.21 1.203c0 .664.542 1.203 1.21 1.203zm-16.291 10.517s3.399 1.352 5.922.286m-6.002 11.228l13.133-5.832s.599 5.327-2.926 7.584c-6.221 3.964-10.207-1.752-10.207-1.752zm-11.752-32.056s4.85-2.222 7.466-.962m14.251-2.028s4.85-2.222 7.465-.962" stroke="#1D1D1F" stroke-width="2" stroke-miterlimit="10" stroke-linecap="round" stroke-linejoin="round"/><path d="M415.315 109.948s-5.852 24.425-21.06 26.521c-10.253 1.41-22.453-7.022-27.856-29.489-4.447-18.502.357-31.814 18.847-34.14 18.479-2.326 29.712 7.332 31.118 13.61 1.405 6.278.264 9.2.264 9.2s2.904-1.868 6.291 1.5c3.387 3.369-2.811 12.213-2.811 12.213l-.588 17.918m-31.106 9.406l.933 24.803" stroke="#1D1D1F" stroke-width="2" stroke-miterlimit="10" stroke-linecap="round" stroke-linejoin="round"/><path d="M420.177 97.643c-3.272.573-6.44-1.466-7.235-4.674-.76-3.059-1.728-6.645-2.627-8.867-1.82-4.514-6.002-4.88-17.995-3.62-11.993 1.26-23.018.56-25.161 7.71-.922 3.07.127 22.191.127 22.191s-3.779-8.478-5.415-16.795c-1.636-8.318-.115-11.262-.115-15.26 0-.333-2.869-2.498-4.436-7.023-1.716-4.984-2.143-12.373-2.143-12.373s8.434 5.293 20.795 2.039c1.532-.401 3.433-.928 5.576-1.444 10.68-2.555 27.604-4.903 37.131 8.49 10 14.045 4.251 29.145 4.251 29.145l-2.753.481z" fill="#1D1D1F"/><path d="M422.538 132.941c0-.55-1.29-6.61-1.29-6.61L383.76 164.71s8.491 17.082 8.306 16.532c-.184-.55 30.472-48.301 30.472-48.301z" fill="#fff" stroke="#1D1D1F" stroke-width="2" stroke-miterlimit="10" stroke-linecap="round" stroke-linejoin="round"/><path d="M422.538 132.941l7.201 9.177s-9.413 6.977-17.915 19.647c-8.491 12.671-21.785 35.63-24.562 43.707a953.4 953.4 0 01-4.62 13.221s6.832-30.486 11.267-44.99c4.436-14.504 28.629-40.762 28.629-40.762z" fill="#D9F94B" stroke="#1D1D1F" stroke-width="2" stroke-linecap="round" stroke-linejoin="round"/><path d="M444.578 219.838s-2.765 4.113-5.715 12.35c-2.96 8.238-31.727 63.309-36.266 66.047-4.528 2.75-66.221 12.545-66.221 12.545s-3.94-8.432-4.931-15.283c-.991-6.851 2.166-14.309 2.166-14.309s39.677-7.012 43.848-10.38c4.17-3.368 9.642-7.263 9.907-8.81.265-1.558 5.219-21.779 6.256-29.546 1.048-7.779 4.17-23.589 5.991-30.841 1.82-7.264 8.076-16.853 9.389-18.663" fill="#D9F94B"/><path d="M444.578 219.838s-2.765 4.113-5.715 12.35c-2.96 8.238-31.727 63.309-36.266 66.047-4.528 2.75-66.221 12.545-66.221 12.545s-3.94-8.432-4.931-15.283c-.991-6.851 2.166-14.309 2.166-14.309s39.677-7.012 43.848-10.38c4.17-3.368 9.642-7.263 9.907-8.81.265-1.558 5.219-21.779 6.256-29.546 1.048-7.779 4.17-23.589 5.991-30.841 1.82-7.264 8.076-16.853 9.389-18.663" stroke="#1D1D1F" stroke-width="2" stroke-linecap="round" stroke-linejoin="round"/><path d="M309.763 360.308s-7.753-3.907-8.641-9.005" stroke="#231F20" stroke-width="2" stroke-miterlimit="10" stroke-linecap="round"/></svg>