<svg width="641" height="406" fill="none" xmlns="http://www.w3.org/2000/svg"><path d="M80.32 280.753c-40.555 19.168-81.068-28.462-54.292-64.339.5-.671 4.776-8.415 5.186-9.127 5.706-9.984 8.42-20.213 9.703-27.189.32-1.753 2.843-1.791 3.228-.047 1.587 7.242 3.35 17.27 2.428 22.823-.932 5.59.637 10.17 4.373 8.256 3.749-1.916 19.707-8.735 19.517-32.164-.071-9.786 9.596-25.268 16.34-34.858 1.346-1.913 4.357-.586 3.86 1.7-1.697 7.788-3.52 18.152-2.728 24.215 1.393 10.614 1.575 25.003 11.649 27.394 10.074 2.391 10.853 13.648 16.506 13.584 5.654-.065 23.015-18.384 22.816-33.401-.185-15.006-1.711-36.264 8.121-53.881 4.625-8.291 9.106-17.408 12.537-24.749 1.13-2.425 4.761-1.52 4.668 1.153-.24 6.864.482 13.846 4.047 15.855 7.588 4.3 16.701-20.681 11.505-33.764-2.988-7.546-2.712-20.358-1.931-29.87.222-2.756 4.018-3.394 5.116-.846 3.549 8.177 10.11 18.84 21.633 25.131 18.199 9.927 19.981 22.482 23.359 41.217 3.376 18.723 1.535 34.502 1.535 34.502s8.45-2.246 12.819-13.093c2.758-6.828 4.083-19.678 4.696-28.264.169-2.357 3.351-2.943 4.375-.821 2.666 5.537 6.318 13.459 9.613 21.854 5.367 13.636-.334 26.136-6.474 36.835-6.14 10.699-26.616 36.739-47.906 42.597-21.291 5.857-41.152 14.37-55.057 26.062-19.829 16.699-46.323 31.463-71.242 43.235z" fill="#E72A8B"/><path d="M150.377 225.575s11.596-38.247 8.885-47.921c-2.71-9.673-3.574-38.51-1.869-43.732 1.706-5.221 3.555-11.798 3.555-11.798s-.84 15.32 8.292 30.893 9.655 21.668 9.655 21.668 3.55-5.646 4.011-15.855c.474-10.21 3.735-22.255 3.735-22.255s6.471 22.205 10.137 30.467c3.667 8.263 1.394 19.424 1.394 19.424s5.031-3.243 7.011-9.153c.701-2.08 1.162-8.393 1.162-8.393s4.265 12.219-1.228 20.172c-5.494 7.954-17.743 12.452-28.36 17.085-10.63 4.622-26.38 19.398-26.38 19.398zM81.85 270.538c3.555-1.85 9.343-5.081 12.1-10.748 2.756-5.667 1.7-17.982 1.7-17.982s-4.052 4.419-4.465 7.684c-.4 3.263-3.978 7.297-3.978 7.297s-1.715-6.144-.366-12.199c1.35-6.055-4.393-15.439-4.393-15.439s1.643 9.208-.209 13.443c-1.852 4.235-7.255 8.927-7.797 14.582-.542 5.654-5.385 17.585-5.385 17.585s6.87-1.14 12.794-4.223z" fill="#D9F94B"/><path d="M561.758 277.092l26.195 24.147-88.351 36.413-17.62-25.864 79.776-34.696z" fill="#fff" stroke="#1D1D1F" stroke-width="2" stroke-miterlimit="10" stroke-linecap="round" stroke-linejoin="round"/><path d="M470.202 255.427l.45 68.92 104.195-10.066-10.202-71.716-94.443 12.862zm-283.245-38.56l-43.862-9.977-52.247 61.213 55.025 6.096 41.084-57.332z" fill="#fff" stroke="#1D1D1F" stroke-width="2" stroke-miterlimit="10" stroke-linecap="round" stroke-linejoin="round"/><path d="M214.645 197.92l-95.201 48.939s90.508 43.726 90.782 42.593c.275-1.132 39.654-35.055 39.654-35.055l-35.235-56.477z" fill="#fff" stroke="#1D1D1F" stroke-width="2" stroke-miterlimit="10" stroke-linecap="round" stroke-linejoin="round"/><path d="M241.951 171.12s-29.458 30.71-45.829 52.213c-16.371 21.503-23.313 30.135-23.313 30.135s-16.251 2.914-26.844 10.852c-10.594 7.939-24.644 19.2-30.701 25.871-6.069 6.673-.896 10.678-.896 10.678s-1.962 5.453-.625 8.201c1.337 2.749 3.816 3.207 3.816 3.207s-2.441 5.789.939 7.799c3.173 1.904 8.287-.866 8.287-.866s-1.228 4.183.668 5.788c1.896 1.604 6.005 1.124 11.54-3.962 5.536-5.087 18.55-18.048 18.55-18.048s9.258-9.8 14.534-10.242l5.276-.441s.352 4.704-2.561 8.733c-3.844 5.315-6.888 12.745-6.165 15.989.723 3.243 3.629 5.219 3.629 5.219s10.572-9.934 14.736-15.559c4.164-5.638 9.277-15.522 9.845-19.317.555-3.795-.567-19.543.468-22.934 1.036-3.39 90.607-70.768 90.607-70.768s1.472-16.409-6.407-23.233c-7.878-6.824-39.554.685-39.554.685z" fill="#fff" stroke="#1D1D1F" stroke-width="2" stroke-miterlimit="10" stroke-linecap="round" stroke-linejoin="round"/><path d="M114.31 300.871s11.937-10.776 22.779-19.007m-19.603 30.397s17.543-19.246 25.766-24.767m-16.54 31.691s19.897-21.982 25.736-26.132" stroke="#1D1D1F" stroke-width="2" stroke-miterlimit="10" stroke-linecap="round" stroke-linejoin="round"/><path d="M392.73 93.128l-3.262-38.175c-1.69-19.78 14.587-37.29 36.366-39.113l88.32-7.393c21.778-1.823 40.795 12.733 42.485 32.512l12.082 141.415L392.73 93.128z" fill="gray" stroke="#231F20" stroke-width="2" stroke-miterlimit="10"/><path d="M529.648 215.058s-59.601 68.468-62.768 70.398c-3.167 1.929-29.786.619-38.404 6.605-8.63 5.986-33.383 22.89-33.527 24.11-.132 1.207 6.533 6.147 7.993 6.272 1.446.113-16.935 21.278-16.875 21.988.061.71 5.617 3.833 9.788 2.053 4.171-1.779 9.516-6.775 9.516-6.775s-9.836 20.425-9.703 21.992c.135 1.579 9.358 2.385 13.127-1.629 3.77-4.014 10.737-18.726 10.737-18.726l7.695-3.159-8.863 24.856s5.635 1.44 10.191-2.64c4.557-4.08 11.123-17.698 11.123-17.698s-2.143 15.232-.647 15.773c1.508.539 6.127-2.227 9.442-7.929 3.855-6.635 3.95-12.338 3.95-12.338s18.708-6.189 27.441-17.35c8.732-11.161 14.899-19.74 14.899-19.74s40.694-24.303 58.661-37.137c17.966-12.834 26.181-20.918 26.181-20.918s18.049-.278 23.194-18.203c5.157-17.926-9.655-37.619-9.655-37.619s-5.261-32.575-17.831-55.169c-12.571-22.593-48.228-54.596-78.023-61.472-29.794-6.863-84.57-2.832-115.636 16.017-31.064 18.861-42.298 36.124-42.298 36.124s-20.848 5.198-37.19 13.704c-16.353 8.519-25.145 15.653-25.145 15.653s-8.356-2.259-15.201-1.193c-4.914.769-13.797 8.86-18.418 13.353a6.207 6.207 0 00-1.402 6.787s19.765-3.381 30.612 4.834c10.845 8.203 11.482 18.851 11.482 18.851l76.406 4.847s43.838 4.369 52.142.37c8.304-4 20.168-16.643 20.168-16.643s21.638 5.635 42.137 6.36c16.561.574 24.274 1.987 24.274 1.987s1.89 1.383 9.423 6.485c7.534 5.102 11.126 5.689 11.126 5.689l9.878 11.23z" fill="#fff" stroke="#1D1D1F" stroke-width="2" stroke-miterlimit="10" stroke-linecap="round" stroke-linejoin="round"/><path d="M488.447 221.652l-76.996-7.204-46.635 32.682 27.156 48.884 96.475-74.362z" fill="#fff" stroke="#1D1D1F" stroke-width="2" stroke-miterlimit="10" stroke-linecap="round" stroke-linejoin="round"/><path d="M396.164 275.735l41.399-30.04-39.927-5.228-24.622 16.304 5.813 15.988 17.337 2.976zm16.03-56.139l23.684 2.568-18.258 14.688-22.476-2.792 17.05-14.464z" fill="gray"/><path d="M398.899 302.412l90.669-69.064-.953-11.152-95.113 71.272 5.397 8.944zm22.007-112.535s3.217 9.973-.847 21.69c-2.72 7.87-7.701 14.647-11.988 16.793 0 0-9.453 3.86-8.038-7.696 1.426-11.57 20.873-30.787 20.873-30.787z" fill="#fff" stroke="#1D1D1F" stroke-width="2" stroke-miterlimit="10" stroke-linecap="round" stroke-linejoin="round"/><path d="M381.142 254.457s13.131-4.316 21.587-12.766c8.651-8.638 11.123-14.207 11.123-14.207l-7.506-2.023s2.743-10.954 9.128-18.133c6.384-7.179 8.811-14.002 8.654-26.279-.233-17.806-12.375-35.096-20.185-38.374-10.958-4.593-27.776-2.693-27.776-2.693s-26.817 8.828-39.453 17.775c-12.637 8.948-19.492 21.504-19.492 21.504l-.531-6.218s-5.13.7-6.954 8.2c-1.824 7.5-.937 15.118-.937 15.118l51.713 3.228 20.629 54.868z" fill="#1D1D1F"/><path d="M519.836 203.764s-1.393-12.541 8.296-18.553m-28.853 6.398s-5.943-4.789-9.948-17.912m40.355 41.296s14.774-16.413 40.022-6.518c21.608 8.473 9.946 34.501 9.946 34.501M402.84 322.961s9.807-9.328 17.776-14.212m-15.287 30.897s7.081-10.332 10.435-13.115c3.355-2.783 12.565-11.247 12.565-11.247m-1.14 22.832s5.909-9.124 12.056-15.592m.407 20.088s3.825-8.418 7.485-13.125m-70.304-177.025l18.469-15.07s16.151-10.45 30.347 2.33c19.671 17.696 13.316 37.115 13.316 37.115l-6.111 6.478m-155.827-31.14s17.804 6.804 23.57 23.576c5.419 15.741 3.505 20.301 3.505 20.301m36.638-59.033s-.897 7.592 4.02 23.076m248.486 27.076s-13.165-16.332-50.555-7.611m-35.077-46.187s30.342-19.483 55.213-6.369" stroke="#1D1D1F" stroke-width="2" stroke-miterlimit="10" stroke-linecap="round" stroke-linejoin="round"/><path d="M360.472 199.594l38.396 102.892-159.984-12.215-36.8-100.746 158.388 10.069z" fill="#fff" stroke="#1D1D1F" stroke-width="2" stroke-miterlimit="10" stroke-linecap="round" stroke-linejoin="round"/><path d="M543.428 348.487c-11.617-12.903-3.634-35.443 6.833-48.511 10.467-13.067 34.509-30.954 40.768-38.812 4.996-6.274 8.576-14.612 10.732-20.661.639-1.779 3.255-1.443 3.429.442.711 8.14 1.178 20.37-1.419 28.047-4.17 12.295-2.579 15.406-2.579 15.406s2.633 4.564 6.4-4.48c1.715-4.113 3.722-6.253 5.574-7.333 2.075-1.208 4.685.645 4.269 3.011-.44 2.527-.36 6.491 1.732 12.26 4.216 11.621 4.978 23.247 4.978 23.247l5.456-11.146c.653-1.337 2.557-1.372 3.24-.048 2.554 4.953 6.712 15.334 3.525 25.945-6.093 20.335-22.779 27.571-46.128 31.75-12.084 2.142-35.439 3.51-46.81-9.117z" fill="#E72A8B"/><path d="M565.031 353.337c3.739.452 11.543-2.048 12.066-8.933.681-8.798-5.212-22.828-4.14-30.536 2.027-14.605 9.033-26.259 9.033-26.259s-10.459 9.341-13.751 19.589c-2.549 7.93-5.77 14.818-5.77 14.818s-6.545-16.146-5.996-12.924c.273 1.604 1.335 6.336-2.865 13.922-4.418 7.938-4.648 15.218-.825 22.567 1.777 3.402 7.158 7.132 12.248 7.756z" fill="#D9F94B"/></svg>