<svg width="833" height="849" fill="none" xmlns="http://www.w3.org/2000/svg"><path d="M365.652 490.675l-62.459 20.366s21.049 61.946 31.753 85.074c10.704 23.127 52.115 110.624 55.619 119.972 3.505 9.348 7.396 14.035 9.614 11.517 2.218-2.518 9.309-16.426 3.212-31.969-6.097-15.543-30.438-91.858-30.438-91.858l-7.301-113.102zm-98.981-229.136s14.871 21.165 16.948 22.784c2.065 1.6-.933 4.598-11.861 20.067-10.929 15.469-19.885 28.635-23.513 30.301-3.627 1.666-8.179-2.517-13.706-1.815-5.527.701-10.444 7.19-10.969 9.779-.526 2.59 18.712 33.288 21.75 35.979 3.054 2.695 9.77 10.898 18.808 15.071s24.132 6.573 24.132 6.573-11.117-20.778-15.077-26.345c-3.961-5.568-4.801-20.317-2.678-21.986 2.138-1.667 11.551-9.665 17.136-13.637 5.601-3.969 43.719-47.215 52.402-64.924 8.683-17.709-31.259-61.469-31.259-61.469l-42.113 49.622z" fill="#fff" stroke="#1D1D1F" stroke-width="2" stroke-miterlimit="10" stroke-linecap="round" stroke-linejoin="round"/><path d="M269.356 359.105s2.331 16.603-2.758 19.485c-5.088 2.881-15.393.547-20.29-3.412-4.896-3.959-14.015-26.987-12.782-31.53 1.217-4.546 6.889-10.302 6.889-10.302s-2.48-1.095-8.646 1.279c-6.181 2.371-9.303 7.423-8.905 9.903.398 2.48 18.155 28.705 20.17 32.093 2.014 3.389 2.506 12.75 14.265 16.874 11.759 4.125 30.999 6.74 30.999 6.74s-12.12-13.289-15.551-22.938c-3.444-9.667-3.391-18.192-3.391-18.192z" fill="#D9F94B" stroke="#1D1D1F" stroke-width="2" stroke-linecap="round" stroke-linejoin="round"/><path d="M325.087 352.213s-18.911 25.249-20.078 30.996c-1.166 5.747 7.21 20.553 11.023 22.5 3.798 1.944 11.257 15.376 15.225 22.449 3.956 7.055 5.394 11.831 3.254 13.498-2.139 1.668-25.419-1.747-32.672-8.851-7.251-7.119-10.74-19.455-15.328-24.854-4.602-5.402-19.383-18.177-21.737-24.327-2.355-6.15 1.591-13.732 7.137-17.419 5.546-3.688 11.791-13.804 11.791-13.804l41.385-.188z" fill="#fff" stroke="#1D1D1F" stroke-width="2" stroke-miterlimit="10" stroke-linecap="round" stroke-linejoin="round"/><path d="M288.467 288.842s-7.09 27.592-8.007 45.347c-.916 17.755 4.752 40.097 4.752 40.097l89.692-40.24-86.437-45.204z" fill="#fff" stroke="#1D1D1F" stroke-width="2" stroke-miterlimit="10" stroke-linecap="round" stroke-linejoin="round"/><path d="M224.322 275.775l-7.342 53.634m47.612-1.882s-116.682 8.884-130.514 14.59c-13.844 5.688-15.832 43.271-15.832 43.271" stroke="#1D1D1F" stroke-width="6" stroke-miterlimit="10" stroke-linecap="round" stroke-linejoin="round"/><path d="M185.672 325.992s3.657-28.428 8.128-27.899c4.471.529 28.305 34.058 39.758 60.911 11.454 26.852 10.905 40.878 10.029 52.92a725.367 725.367 0 01-2.3 25.183m-98.109-319.591s-18.05 80.349-11.581 88.301c6.485 7.955 30.169 12.645 30.169 12.645" stroke="#1D1D1F" stroke-width="6" stroke-miterlimit="10" stroke-linecap="round" stroke-linejoin="round"/><path d="M192.577 202.742s-17.903-5.327-29.712 7.476c-6.612 7.168-8.738 27.451-6.856 35.557 1.882 8.106 7.166 11.616 13.59 14.639 6.439 3.026 77.629 29.083 89.489 29.664 11.856.596 22.644-2.197 26.928-4.169 4.281-1.958 4.991-21.158-.883-30.41-5.881-9.223-92.556-52.757-92.556-52.757z" fill="#fff" stroke="#1D1D1F" stroke-width="2" stroke-miterlimit="10" stroke-linecap="round" stroke-linejoin="round"/><path d="M268.626 269.622s-10.55 1.291-33.195-5.308c-22.644-6.599-72.051-22.025-77.862-33.386" stroke="#1D1D1F" stroke-width="2" stroke-miterlimit="10" stroke-linecap="round" stroke-linejoin="round"/><path d="M190.151 38.368s16.377 9.558 13.472 32.518c-2.904 22.96-6.576 34.171-19.125 38.717-12.549 4.545-35.736 12.946-41.289 17.824-5.569 4.874-14.164 5.62-15.318 2.588-1.14-3.028-3.533-55.494 6.41-73.206 9.924-17.7 35.406-20.041 42.661-21.067 7.238-1.014 13.189 2.626 13.189 2.626zm90.277 238.135l-3.128 11.055 141.06 68.929 2.159-10.642-140.091-69.342zm140.171 69.449l114.71-76.533-1.924 9.484-114.943 77.679 2.157-10.63z" fill="#fff" stroke="#1D1D1F" stroke-width="2" stroke-miterlimit="10" stroke-linecap="round" stroke-linejoin="round"/><path d="M280.432 276.648l136.269-61.249 118.564 53.97-114.773 76.586-140.06-69.307z" fill="#fff" stroke="#1D1D1F" stroke-width="2" stroke-miterlimit="10" stroke-linecap="round" stroke-linejoin="round"/><path d="M354.76 215.404l15.1 26.012s-52.894 8.075-71.018 14.651c-18.125 6.576-19.409 12.907-27.715 13.958-8.305 1.052-23.688-5.881-23.688-5.881s-42.195-30.646-50.815-42.051c-15.427-20.421-17.044-26.381-15.864-45.9.97-16.107 11.45-40.2 23.635-47.053 12.186-6.853 24.057-4.813 24.057-4.813l126.308 91.077z" fill="#D9F94B" stroke="#1D1D1F" stroke-width="2" stroke-linecap="round" stroke-linejoin="round"/><path d="M320.813 662.443s2.028-43.959-5.919-55.717c-7.947-11.759-15.701-5.803-15.704-15.276-.002-9.473 4.24-27.253-1.069-34.883-5.31-7.629-14.436-29.635-14.436-29.635s3.517 30.77-3.521 45.659c-7.038 14.89-15.048 22.715-12.408 36.316 2.625 13.599 8.029 20.613 2.689 27.511-5.355 6.896-7.785 20.484-1.632 31.376 6.152 10.892 15.721 24.752 15.721 24.752l36.279-30.103z" fill="#E72A8B"/><path d="M236.774 711.366c-1.873-1.857-31.599-21.179-29.814-52.16 1.8-30.979.532-43.166-6.068-54.922-6.586-11.754-7.422-29.816-4.801-42.735 2.621-12.919 18.969-52.954 18.969-52.954s-.097 41.022 7.524 47.748c7.606 6.723 25.554 25.2 25.534 36.389-.02 11.189-1.018 5.016 20.522 20.473 21.541 15.457 23.058 48.593 23.058 48.593l-54.924 49.568z" fill="#E72A8B"/><path d="M272.974 584.285s-6.407-27.38-19.162-45.57c-12.754-18.189 6.072-74.144 6.072-74.144s-23.208 22.259-30.161 41.777c-6.952 19.519-15.802 55.811-10.088 71.848 5.711 16.051 18.332 31.227 26.791 48.566 8.445 17.336 23.748-6.488 23.748-6.488l2.8-35.989z" fill="#E72A8B"/><path d="M261.977 670.586s4.455-44.908-5.629-57.539c-10.087-12.616-30.241-41.157-30.241-41.157s16.183 31.749 13.596 44.503c-2.591 12.769-1.99 29.466-1.99 29.466s-11.512-5.591-12.256-11.714c-.759-6.125-2.59 12.769-1.084 25.002 1.506 12.233 20.917 31.355 20.917 31.355l16.687-19.916z" fill="#D9F94B"/><path d="M381.932 636.045l-58.685 126.623s-87.68-39.498-94.644-46.265c-6.978-6.77 64.249-125.428 64.249-125.428l89.08 45.07z" fill="#fff" stroke="#1D1D1F" stroke-width="2" stroke-miterlimit="10" stroke-linecap="round" stroke-linejoin="round"/><path d="M448.298 347.614s6.356 20.378-13.734 30.751c-20.091 10.374-66.086 23.065-72.964 31.875-6.877 8.809-12.927 34.192-11.049 69.226 1.877 35.033 2.815 101.244 6.575 121.107 3.76 19.863 16.798 63.376 25.409 75.545 8.611 12.17 13.039 18.418 16.76 29.604 3.717 11.201.922 21.995.922 21.995s110.054-30.198 110.92-30.027c.865.172 4.186-13.212-1.387-22.69-5.575-9.464-26.045-23.687-34.818-40.951-8.769-17.278-20.154-32.072-20.244-41.951-.091-9.879-10.849-66.083-12.353-88.193-1.505-22.111-7.735-72.635-1.316-80.637 6.416-7.988 37.977-29.234 41.049-38.487 3.087-9.25-33.77-37.167-33.77-37.167z" fill="#fff" stroke="#1D1D1F" stroke-width="2" stroke-miterlimit="10" stroke-linecap="round" stroke-linejoin="round"/><path d="M599.128 515.541s-53.91 59.885-74.356 75.928c-20.447 16.043-201.165 112.573-222.552 123.535-21.388 10.962-41.627 18.713-41.627 18.713s109.122 52.963 123.577 54.352c14.455 1.39 104.992-42.928 125.26-58.016 20.256-15.105 107.715-68.133 124.463-85.621 11.841-12.356 16.812-34.405 16.401-54.421-.512-26.248-51.166-74.47-51.166-74.47zM422.287 239.612s11.056 6.217 26.815 10.995c15.76 4.777 36.529 4.921 38.728 8.936.988 1.791 1.3 7.602.869 10.646-.431 3.045-2.067 7.664-4.115 10.559-2.062 2.892-7.655 7.642-6.673 9.618.981 1.976 3.214 3.069 6.09 2.058 2.877-1.011 7.076-5.17 10.122-8.239 2.207-2.228 4.294-4.093 6.32-5.272 2.025-1.18 7.872-3.276 9.342-2.102 2.046 1.629 1.063 6.935.413 8.681-.649 1.747-2.169 6.327-2.169 6.327s.058 3.544 4.476 7.796c4.416 4.267 11.473 1.868 11.473 1.868s2.304-9.367 3.333-13.672c1.219-5.167.515-7.057.058-9.394-.458-2.338-4.075-6.865-7.128-10.878-3.298-4.341-9.376-13.198-14.488-18.703-5.112-5.506-10.536-10.159-20.749-14.024-10.213-3.865-33.012-17.814-33.012-17.814s-17.774-1.892-25.362 4.88c-7.581 6.743-4.343 17.734-4.343 17.734z" fill="#fff" stroke="#1D1D1F" stroke-width="2" stroke-miterlimit="10" stroke-linecap="round" stroke-linejoin="round"/><path d="M429.903 161.26s-10.988 7.487-19.333 20.003c-8.345 12.516-10.689 22.998-11.167 30.63-.477 7.632.174 13.985 6.298 17.768 6.125 3.782 16.852 12.346 16.852 12.346s5.783-12.589 15.182-17.603c9.415-5.011 18.183-6.914 18.183-6.914s-12.528-7.11-11.69-10.164c.837-3.055 2.16-3.304 3.334-5.875l5.03-11.019-22.689-29.172z" fill="#D9F94B" stroke="#1D1D1F" stroke-width="2" stroke-linecap="round" stroke-linejoin="round"/><path d="M424.538 162.247s-14.42-2.08-20.266-5.25c0 0-13.201 2.776-.643-25.137 12.557-27.913 26.577-23.171 33.842-22.709 7.28.465 13.94 20.893 10.099 28.959-3.857 8.064-23.032 24.137-23.032 24.137z" fill="#fff" stroke="#1D1D1F" stroke-width="2" stroke-miterlimit="10" stroke-linecap="round" stroke-linejoin="round"/><path d="M429.564 156.233s-8.755 14.374-10.715 19.593c-1.752 4.656-4.268 19.428-4.268 19.428-4.098 2.132-21.33 5.025-26.999 4.956-14.349-.145-15.842 2.316-30.339 6.959-14.497 4.642 13.342-55.113 13.342-55.113l20.709-5.565 38.27 9.742z" fill="#D9F94B" stroke="#1D1D1F" stroke-width="2" stroke-linecap="round" stroke-linejoin="round"/><path d="M458.266 84.367s-33.182-10.424-42.497-10.13c-9.318.309-23.941 4.493-33.022 6.77-9.08 2.276-42.883 9.759-68.19 14.632-25.307 4.874-52.352 5.531-64.498 9.137-12.145 3.606-30.838 11.926-36.275 19.663-5.433 7.723-6.721 43.759-6.395 59.065.341 15.309.103 42.957-.525 47.123-.628 4.167 1.706 11.722 1.706 11.722s17.981-5.889 33.716-3.844c15.735 2.046 44.171 7.24 67.776 4.399 23.606-2.84 34.849-12.635 49.368-24.801 14.517-12.152 36.459-26.923 36.459-26.923s-6.78-6.918 1.184-24.889 27.765-45.449 37.85-54.822c10.104-9.385 23.343-27.102 23.343-27.102z" fill="#D9F94B" stroke="#1D1D1F" stroke-width="2" stroke-linecap="round" stroke-linejoin="round"/><path d="M516.368 299.529s2.224-7.078 3.178-9.798" stroke="#1D1D1F" stroke-width="2" stroke-miterlimit="10" stroke-linecap="round" stroke-linejoin="round"/><path d="M377.222 145.449c-.042-6.371-2.993-12.638-19.007-17.015-16.015-4.378-34.658.603-42.259 9.456-7.587 8.856-10.445 15.753-15.568 23.177-5.123 7.424-10.125 16.545-11.43 21.829-1.305 5.285-6.826 16.965-10.975 24.334s-5.841 15.705-4.921 19.51c.923 3.79 23.606 19.365 32.464 23.287 8.859 3.921 22.609 7.602 22.609 7.602s4.783-17.602 8.322-21.964c3.539-4.362 6.477-6.908 6.477-6.908l-19.018-10.995s3.778-4.315 7.309-6.264c3.531-1.948 9.259-3.942 15.963-10.821 6.701-6.864 9.696-12.062 17.152-21.424 7.424-9.353 12.927-24.768 12.882-33.804z" fill="#D9F94B" stroke="#1D1D1F" stroke-width="2" stroke-linecap="round" stroke-linejoin="round"/><path d="M485.773 183.011s-8.866 5.046-12.663 8.833c-3.797 3.787-4.979 7.085-7.561 7.333-2.581.248-6.648-7.109-6.648-7.109s-6.231 3.306-7.201 3.113c-.971-.192-4.665-3.184-4.665-3.184s-6.231.78-10.164-2.26c-3.934-3.04-11.142-14.814-11.657-24.753-.274-5.383.012-7.557.012-7.557s6.862-16.75 16.455-15.58c9.626 1.162 44.092 41.164 44.092 41.164z" fill="#fff" stroke="#1D1D1F" stroke-width="2" stroke-miterlimit="10" stroke-linecap="round" stroke-linejoin="round"/><path d="M468.279 184.594s-4.465-1.642-4.453-6.674" stroke="#1D1D1F" stroke-width="2" stroke-miterlimit="10" stroke-linecap="round" stroke-linejoin="round"/><path d="M485.185 184.335s1.926 1.295 4.194 9.626c2.254 8.328 5.119 9.205 5.119 9.205s1.204-14.427 16.064-19.259c7.828-2.539 2.599-14.337 7.873-19.363 5.274-5.027 17.497-9.87 17.113-16.93-.387-7.045-2.367-12.284-2.367-12.284s8.382-9.863 3.853-21.971-24.524-11.884-28.123-22.305c-4.474-12.918-6.914-16.576-16.613-20.803-7.444-3.254-15.659-3.625-21.744-1.64-5.736 1.87-12.255 11.884-16.116 14.464-3.859 2.566-3.962-4.423-3.962-4.423s-14.695 9.527-17.929 19.494c-3.233 9.968-1.512 20.916-.992 27.384.505 6.464-4.031 22.848-2.636 26.454 1.396 3.606 5.192 7.392 10.683 8.789 5.492 1.396 12.217-1.826 16.241 3.818 4.025 5.643 2.374 9.265 12.245 13.031a915.516 915.516 0 0117.097 6.713z" fill="#1D1D1F"/><path d="M300.22 267.817s107.332 50.151 128.495 68.778c21.16 18.642 82.456 91.378 108.474 121.826 26.02 30.433 89.24 103.565 98.2 114.975 8.96 11.409 14.669 16.954 14.669 16.954l5.236-152.705s-22.701-26.972-36.434-46.545c-13.734-19.573-38.93-67.922-54.937-76.295-16.003-8.389-80.908-29.662-97.981-40.664-17.073-11.001-86.84-42.067-86.84-42.067l-78.882 35.743z" fill="#fff" stroke="#1D1D1F" stroke-width="2" stroke-miterlimit="10" stroke-linecap="round" stroke-linejoin="round"/><path d="M343.039 228.745s14.439 11.929 30.215 15.192c15.777 3.264 34.69 6.312 42.234 8.643 7.53 2.328 17.234 6.498 22.243 9.458 5.023 2.964 13.069 8.34 12.049 11.223-1.005 2.886-6.082 4.098-7.717 3.882-.257-.035 1.283 1.03.143 4.431-.888 2.615-5.116 3.313-7.975 2.623-2.058-.501-3.483-.83-3.483-.83s-.301 3.63-3.716 4.458c-5.015 1.208-7.499-.183-7.499-.183s-2.347 2.992-12.796.504c-10.45-2.487-22.257-5.942-28.713-10.879-6.445-4.919-14.204-7.572-26.408-12.516-12.205-4.943-25.773-9.444-25.773-9.444" fill="#fff"/><path d="M343.039 228.745s14.439 11.929 30.215 15.192c15.777 3.264 34.69 6.312 42.234 8.643 7.53 2.328 17.234 6.498 22.243 9.458 5.023 2.964 13.069 8.34 12.049 11.223-1.005 2.886-6.082 4.098-7.717 3.882-.257-.035 1.283 1.03.143 4.431-.888 2.615-5.116 3.313-7.975 2.623-2.058-.501-3.483-.83-3.483-.83s-.301 3.63-3.716 4.458c-5.015 1.208-7.499-.183-7.499-.183s-2.347 2.992-12.796.504c-10.45-2.487-22.257-5.942-28.713-10.879-6.445-4.919-14.204-7.572-26.408-12.516-12.205-4.943-25.773-9.444-25.773-9.444" stroke="#1D1D1F" stroke-width="2" stroke-miterlimit="10" stroke-linecap="round" stroke-linejoin="round"/><path d="M442.091 277.17s-3.3-2.731-10.024-6.202c-6.26-3.225-11.319-5.405-11.319-5.405" fill="#fff"/><path d="M442.091 277.17s-3.3-2.731-10.024-6.202c-6.26-3.225-11.319-5.405-11.319-5.405" stroke="#1D1D1F" stroke-width="2" stroke-miterlimit="10" stroke-linecap="round" stroke-linejoin="round"/><path d="M431.702 283.582s-2.25-2.012-8.7-4.84c-6.454-2.814-7.786-3.373-7.786-3.373" fill="#fff"/><path d="M431.702 283.582s-2.25-2.012-8.7-4.84c-6.454-2.814-7.786-3.373-7.786-3.373" stroke="#1D1D1F" stroke-width="2" stroke-miterlimit="10" stroke-linecap="round" stroke-linejoin="round"/><path d="M419.641 287.499s-2.249-2.012-8.699-4.84l8.699 4.84z" fill="#fff"/><path d="M419.641 287.499s-2.249-2.012-8.699-4.84" stroke="#1D1D1F" stroke-width="2" stroke-miterlimit="10" stroke-linecap="round" stroke-linejoin="round"/><path d="M424.676 254.961s14.462 1.407 16.102 2.135c1.636.743 2.565 2.292 1.05 3.635-1.516 1.344-1.786 1.678-1.786 1.678" fill="#fff"/><path d="M424.676 254.961s14.462 1.407 16.102 2.135c1.636.743 2.565 2.292 1.05 3.635-1.516 1.344-1.786 1.678-1.786 1.678" stroke="#1D1D1F" stroke-width="2" stroke-miterlimit="10" stroke-linecap="round" stroke-linejoin="round"/><path d="M314.725 403.345s9.844 9.121 12.823 15.102c2.98 5.981 12.466 21.305 12.001 23.598-.466 2.294-3.239 2.644-12.919.139-9.677-2.519-21.074-6.665-24.775-9.396-9.285-6.826-16.169-21.883-18.292-26.191-2.123-4.309-16.833-17.847-18.784-23.005-1.947-5.172 4.601-15.247 6.632-17.835 2.032-2.588-1.871 8.073 2.362 14.999 2.119 3.486 9.327 10.056 14.609 19.467 5.281 9.411 9.743 22.857 14.079 22.228 4.325-.646 14.601-3.988 15.758-8.236 1.16-4.263-3.494-10.87-3.494-10.87z" fill="#D9F94B" stroke="#1D1D1F" stroke-width="2" stroke-linecap="round" stroke-linejoin="round"/><path d="M416.659 252.895l-24.913-21.235a2.156 2.156 0 00-2.968.157 2.16 2.16 0 00.193 3.184l18.683 15.647m34.794 30.383l9.104 7.488c.874.746 5.52 2.115 5.52 2.115s-1.743-4.652-2.733-5.437l-9.39-8.38" fill="#1D1D1F"/><path d="M469.332 751.931C490.1 738.032 505.267 717 510.86 692.726c1.943-8.427 2.833-17.48 1.384-26.408-5.561-34.41 21.737-38.795 25.034-49.23 5.891-18.702 12.241-52.365 12.241-52.365s8.383 28.619 4.46 54.912c-2.093 14.065-7.213 31.262-7.213 31.262s7.662 17.173 21.246 10.059c13.584-7.114 24.023-12.574 41.128-14.237 17.105-1.663 34.378-23.285 42.06-36.584 7.68-13.284 10.061-12.55 24.603-25.452 14.541-12.902 40.707-54.397 39.946-52.023-.746 2.376-4.399 36.062-17.757 56.291s-16.884 45.252-18.997 60.258c-2.114 15.005-10.866 42.758-20.222 50.306-9.357 7.548-20.08 27.725-20.08 27.725s19.78.91 33.632-20.908c13.851-21.819 18.403-33.462 28.547-40.761 10.144-7.299 27.207-11.588 27.207-11.588s-25.137 24.417-30.183 37.65c-5.045 13.233 1.084 32.533-15.839 44.7-16.923 12.167-29.506 16.104-33.591 23.534-4.085 7.43-23.671 33.564-76.632 32.823-52.962-.742-114.374-32.826-114.374-32.826l11.872-7.933z" fill="#E72A8B"/><path d="M499.76 760.865s52.112 11.274 69.518-.751c17.407-12.025 34.391-44.311 34.391-44.311s-16.794 14.67-26.591 15.054c-9.811.381 2.657-19.9 12.911-25.753 10.251-5.837 41.528-24.78 47.724-36.949 6.195-12.169 28.195-38.569 28.195-38.569s-40.036 42.218-57.791 44.481c-17.754 2.262-37.724 6.114-48.858 16.454s-19.891 20.747-23.334 29.915c-3.471 9.146-36.165 40.429-36.165 40.429z" fill="#D9F94B"/></svg>