<svg width="555" height="636" fill="none" xmlns="http://www.w3.org/2000/svg"><path d="M500.202 594.292c-6.5 0-11.77-5.24-11.77-11.704 0-6.463 5.27-11.703 11.77-11.703s11.769 5.24 11.769 11.703c0 6.464-5.269 11.704-11.769 11.704z" fill="#fff" stroke="#1D1D1F" stroke-width="2" stroke-miterlimit="10" stroke-linecap="round" stroke-linejoin="round"/><path d="M494.804 594.292c-6.5 0-11.769-5.24-11.769-11.704 0-6.463 5.269-11.703 11.769-11.703s11.769 5.24 11.769 11.703c0 6.464-5.269 11.704-11.769 11.704zm-177.439 16.466c-6.5 0-11.769-5.24-11.769-11.704 0-6.463 5.269-11.703 11.769-11.703s11.769 5.24 11.769 11.703c0 6.464-5.269 11.704-11.769 11.704z" fill="#fff" stroke="#1D1D1F" stroke-width="2" stroke-miterlimit="10" stroke-linecap="round" stroke-linejoin="round"/><path d="M311.955 610.758c-6.5 0-11.769-5.24-11.769-11.704 0-6.463 5.269-11.703 11.769-11.703s11.77 5.24 11.77 11.703c0 6.464-5.27 11.704-11.77 11.704zm-181.009-26.194l-2.51 49.977h155.156l-10.051-35.607-4.52-14.37H130.946z" fill="#fff" stroke="#1D1D1F" stroke-width="2" stroke-miterlimit="10" stroke-linecap="round" stroke-linejoin="round"/><path d="M173.661 364.678h51.512v244.869h-51.512V364.678zm97.955 225.823h33.602l-2.863-33.548-30.739 1.2v32.348zm145.507-129.553h14.961v64.613h-14.961v-64.613z" fill="#fff" stroke="#1D1D1F" stroke-width="2" stroke-miterlimit="10" stroke-linecap="round" stroke-linejoin="round"/><path d="M414.077 522.849h21.844v7.608l106.264 55.95v11.68h-7.651v-6.519L431.28 554.361 417.622 609.5h-5.458l2.729-57.041-96.42 29.877v5.428h-10.112V577.72l105.716-48.353v-6.518z" fill="#fff" stroke="#1D1D1F" stroke-width="2" stroke-miterlimit="10" stroke-linecap="round" stroke-linejoin="round"/><path d="M418.56 630.108c-6.5 0-11.769-5.24-11.769-11.704S412.06 606.7 418.56 606.7s11.77 5.24 11.77 11.704-5.27 11.704-11.77 11.704z" fill="#fff" stroke="#1D1D1F" stroke-width="2" stroke-miterlimit="10" stroke-linecap="round" stroke-linejoin="round"/><path d="M413.151 630.108c-6.5 0-11.769-5.24-11.769-11.704s5.269-11.704 11.769-11.704 11.769 5.24 11.769 11.704-5.269 11.704-11.769 11.704zm-38.792-35.816c-6.5 0-11.769-5.24-11.769-11.704 0-6.463 5.269-11.703 11.769-11.703s11.769 5.24 11.769 11.703c0 6.464-5.269 11.704-11.769 11.704z" fill="#fff" stroke="#1D1D1F" stroke-width="2" stroke-miterlimit="10" stroke-linecap="round" stroke-linejoin="round"/><path d="M368.95 594.292c-6.5 0-11.77-5.24-11.77-11.704 0-6.463 5.27-11.703 11.77-11.703s11.769 5.24 11.769 11.703c0 6.464-5.269 11.704-11.769 11.704z" fill="#fff" stroke="#1D1D1F" stroke-width="2" stroke-miterlimit="10" stroke-linecap="round" stroke-linejoin="round"/><path d="M332.07 468.776h129.949c13.706 0 24.805-11.049 24.805-24.667 0-13.63-11.111-24.668-24.805-24.668H332.07c-13.706 0-24.805 11.05-24.805 24.668 0 13.618 11.111 24.667 24.805 24.667z" fill="#D9F94B" stroke="#1D1D1F" stroke-width="2" stroke-linecap="round" stroke-linejoin="round"/><path d="M541.844 617.822c-6.5 0-11.769-5.24-11.769-11.703 0-6.464 5.269-11.704 11.769-11.704s11.769 5.24 11.769 11.704c0 6.463-5.269 11.703-11.769 11.703z" fill="#fff" stroke="#1D1D1F" stroke-width="2" stroke-miterlimit="10" stroke-linecap="round" stroke-linejoin="round"/><path d="M536.447 617.822c-6.5 0-11.769-5.24-11.769-11.703 0-6.464 5.269-11.704 11.769-11.704s11.769 5.24 11.769 11.704c0 6.463-5.269 11.703-11.769 11.703zM361.469 370.239s-84.773 14.309-104.351 23.432c-19.591 9.135-14.072 27.696-14.072 59.039s3.362 106.206 3.362 106.206 15.303 7.305 28.461 7.911c13.158.606 35.198-3.344 35.198-3.344s-4.593-66.042-5.812-82.471c-1.218-16.429-4.288-37.74-3.362-39.557.913-1.83 134.48 3.804 148.589-6.567 18.531-13.606 17.276-33.912 8.394-61.911-8.882-27.999-96.407-2.738-96.407-2.738zM206.788 87.993l3.168 72.803-105.241 13.654-15.838-81.901s18.299 3.501 57.371.702c35.808-2.58 60.54-5.258 60.54-5.258z" fill="#fff" stroke="#1D1D1F" stroke-width="2" stroke-miterlimit="10" stroke-linecap="round" stroke-linejoin="round"/><path d="M241.645 113.545c.353.351-45.054 35.705-45.054 35.705s2.107 36.758 8.443 61.608c6.335 24.849 4.581 35.704 4.581 35.704l47.162-60.554s-7.396-12.951-9.15-28.35c-1.754-15.399-5.982-44.113-5.982-44.113zM99.696 7.013s-5.641 14.296-18.044 22.983c-7.005 4.907-29.07 11.97-49.33 16.768-15.62 3.696-31.263 5.852-31.263 5.852S19.102 32.432 24.17 23.187c5.07-9.244 9.87-22.147 9.87-22.147s65.059 7.463 65.656 5.973z" fill="#D9F94B" stroke="#1D1D1F" stroke-width="2" stroke-linecap="round" stroke-linejoin="round"/><path d="M89.096 23.575s-12.488 6.967-22.393 5.15c-9.905-1.818-12.488-3.938-12.488-3.938s-9.137 18.173-19.652 21.36c-10.514 3.186 23.88-3.49 36.685-9.245 9.71-4.373 17.848-13.327 17.848-13.327z" fill="#D9F94B" stroke="#1D1D1F" stroke-width="2" stroke-linecap="round" stroke-linejoin="round"/><path d="M112.598 109.825l-75.586 4.64s7.664 50.329 24.647 69.205c16.984 18.876 43.617 23.843 43.617 23.843l46.955-8.614-39.633-89.074z" fill="#fff" stroke="#1D1D1F" stroke-width="2" stroke-miterlimit="10" stroke-linecap="round" stroke-linejoin="round"/><path d="M105.276 207.514l-9.99-19.204-29.972-1.32" fill="#fff"/><path d="M105.276 207.514l-9.99-19.204-29.972-1.32" stroke="#1D1D1F" stroke-width="2" stroke-miterlimit="10" stroke-linecap="round" stroke-linejoin="round"/><path d="M27.095 383.336h324.932v9.692H27.095v-9.692z" fill="#fff" stroke="#1D1D1F" stroke-width="2" stroke-miterlimit="10" stroke-linecap="round" stroke-linejoin="round"/><path d="M27.095 383.337l32.091-60.59s258.325-1.611 258.325 0 34.528 60.59 34.528 60.59H27.095z" fill="#fff" stroke="#1D1D1F" stroke-width="2" stroke-miterlimit="10" stroke-linecap="round" stroke-linejoin="round"/><path d="M429.781 179.418l-.195 5.791" stroke="#1D1D1F" stroke-width="2" stroke-linecap="round" stroke-linejoin="round"/><path d="M130.629 289.259s-4.154 17.119-17.215 29.211c-13.06 12.103-23.745 18.888-23.745 18.888s56.092-1.478 72.406-.594c16.326.885 27.303-12.394 38.585-23.019 11.282-10.626 23.148-21.251 23.441-20.948.292.291-42.435.884-61.137-1.478-18.677-2.351-32.335-2.06-32.335-2.06z" fill="#fff" stroke="#1D1D1F" stroke-width="2" stroke-miterlimit="10" stroke-linecap="round" stroke-linejoin="round"/><path d="M129.411 359.213s-15.278-31.525-14.437-30.955c.853.557-19.81 4.216-34.808-1.406-14.998-5.633-32.262-19.7-32.262-19.7s-11.318 5.343-21.796 18.016C15.63 337.841 10.83 350.211 10.83 350.211s22.076 12.952 60.284 14.357c38.195 1.394 58.297-5.355 58.297-5.355z" fill="#fff" stroke="#1D1D1F" stroke-width="2" stroke-miterlimit="10" stroke-linecap="round" stroke-linejoin="round"/><path d="M390.66 133.391s-8.638 11.001-9.174 14.756c-.536 3.756.268 8.857.268 8.857l-9.71 10.201 4.313 4.289s-1.62 5.367-.536 10.735c1.084 5.367 2.985 5.815 2.985 5.815m9.186-38.079c-2.851-1.273-6.506-1.818-6.506-1.818m-5.47 30.774s3.277.993 6.762.63" stroke="#1D1D1F" stroke-width="2" stroke-linecap="round" stroke-linejoin="round"/><path d="M386.067 157.112c.183.182-.451 2.424-2.157 2.509-1.705.085-2.156-2.618-2.156-2.618 3.679-2.302 7.054 2.606 7.054 2.606" stroke="#1D1D1F" stroke-width="2" stroke-linecap="round" stroke-linejoin="round"/><path d="M413.504 163.268s-5.202-3.804-2.887-7.972c2.485-4.459 1.303-8.954.097-10.444-3.241-3.998-19.603.267-23.623-9.874-3.838-9.668 4.763-22.996 4.763-22.996s5.58 8.663 21.187 7.924c8.931-.412 28.095 4.931 33.566 19.312 4.459 11.716 3.265 20.754-1.633 26.703-4.898 5.949-9.795 11.728-10.709 13.352-.902 1.623-4.898 2.532-7.444 1.078-2.547-1.454-6.847-4.737-6.128-6.543.731-1.805 4.044-5.779 3.265-8.529-1.267-4.471-10.454-2.011-10.454-2.011z" fill="#1D1D1F"/><path d="M298.858 127.927s-7.505-8.833-8.882-15.387c-1.377-6.555-3.192-14.26-5.007-19.01-1.816-4.749-2.729-14.03-4.325-15.168-1.596-1.127-4.325 1.805-4.776 4.07-.451 2.266.682 7.694.682 7.694s-24.696-17.253-28.339-17.81c-3.642-.557-5.446 1.672-5.446 1.672s-4.617-1.805-7.261-.279c-2.644 1.527-.694 5.416-.694 5.416s-2.376 1.248-2.79 3.61c-.415 2.363 1.121 3.89 1.121 3.89s-.841 3.331-.415 5.415c.427 2.084 16.631 20.573 24.452 25.71 7.822 5.137 13.841 7.645 16.765 10.976 2.936 3.332 11.318 14.309 11.318 14.309m-42.495-69.048l19.42 15.848M234.944 78.99l19.421 15.848m-21.529-8.48l19.433 15.848" stroke="#1D1D1F" stroke-width="2" stroke-linecap="round" stroke-linejoin="round"/><path d="M309.86 137.219s39.304 32.785 45.468 38.14c3.899 3.38 32.591 13.072 33.529 13.072.938 0 12.951-6.76 20.456-7.693 7.517-.933 29.289 8.832 32.81 11.401 3.521 2.568 11.818 8.323 15.071 17.071 2.315 6.227 9.625 39.909 8.918 52.521-.706 12.6 2.62 133.538 2.62 133.538s-26.694 1.818-38.476 2.157c-11.781.339-53.704 2.072-61.672-1.72-7.968-3.793-18.36-29.284-18.36-29.284s-4.849-62.71-3.461-73.396c1.389-10.686 6.933-33.767 7.274-38.94.341-5.173 7.273-28.944 7.273-28.944s-20.529-13.255-28.789-19.555c-8.26-6.3-20.87-16.138-27.668-22.159-8.176-7.233-20.444-18.755-20.444-18.755l25.268-27.454h.183z" fill="#fff" stroke="#1D1D1F" stroke-width="2" stroke-miterlimit="10" stroke-linecap="round" stroke-linejoin="round"/><path d="M309.665 137.218l-8.638-8.783-19.275 21.953 7.298 8.214m72.248 66.528s23.026 12.019 36.842 17.362c13.804 5.343 20.712 5.597 20.712 5.597" stroke="#1D1D1F" stroke-width="2" stroke-linecap="round" stroke-linejoin="round"/><path d="M295.544 318.833s-36.16.23-43.044 0c-6.883-.23-13.182 5.101-16.91 8.008-3.728 2.896-8.748 7.427-8.748 7.427s2.449 1.042 5.129 1.042c2.681 0 11.903-3.95 13.646-4.761 1.754-.812-1.17 2.205-.122 3.828 1.048 1.624 5.945 1.854 10.27 1.503 4.313-.352 15.754-.691 20.761-.582 5.02.121 9.686-1.745 12.951-2.205 3.265-.46 5.483.46 5.714.121.232-.339.353-14.381.353-14.381z" fill="#fff" stroke="#1D1D1F" stroke-width="2" stroke-miterlimit="10" stroke-linecap="round" stroke-linejoin="round"/><path d="M245.617 330.549s2.448-1.624 9.21-2.084c6.762-.461 9.333-1.043 9.333-1.043" fill="#fff"/><path d="M245.617 330.549s2.448-1.624 9.21-2.084c6.762-.461 9.333-1.043 9.333-1.043" stroke="#1D1D1F" stroke-width="2" stroke-miterlimit="10" stroke-linecap="round" stroke-linejoin="round"/><path d="M347.104 307.249c0 1.054-54.021 7.924-54.021 7.924l-1.06 24.461 56.787 3.732-1.706-36.117z" fill="#fff" stroke="#1D1D1F" stroke-width="2" stroke-miterlimit="10" stroke-linecap="round" stroke-linejoin="round"/><path d="M408.083 453.727c4.349 0 7.87-3.501 7.87-7.826v-56.847c0-4.325-3.521-7.826-7.87-7.826-4.35 0-7.871 3.501-7.871 7.826v56.847c.012 4.325 3.533 7.826 7.871 7.826z" fill="#4D4F51" stroke="#231F20" stroke-width="2" stroke-miterlimit="10" stroke-linecap="round" stroke-linejoin="round"/><path d="M371.045 386.498h70.383c3.375 0 6.117-2.726 6.117-6.082s-2.742-6.082-6.117-6.082h-70.383c-3.375 0-6.116 2.726-6.116 6.082a6.103 6.103 0 006.116 6.082z" fill="#D9F94B" stroke="#1D1D1F" stroke-width="2" stroke-linecap="round" stroke-linejoin="round"/><path d="M304.962 580.748s5.69 7.536 5.958 16.696c.268 9.159-.268 15.883-.268 15.883l-25.452 1.345-1.9-3.235s-9.747 1.612-18.958 2.69c-9.21 1.078-31.408 0-41.972-3.235-10.563-3.235-17.336-5.391-18.141-8.347-.816-2.969 1.353-9.426 1.353-9.426s18.409.266 27.888-.812c9.478-1.078 27.619-13.739 29.788-15.617 2.169-1.878 6.494-5.925 8.931-3.502 2.436 2.423 8.662 6.191 8.662 8.615 0 2.423 2.437 2.689 7.042 3.234 4.617.558 17.069-4.289 17.069-4.289z" fill="#4D4F51" stroke="#231F20" stroke-width="2" stroke-miterlimit="10" stroke-linecap="round" stroke-linejoin="round"/><path d="M268.801 586.6s-5.227-5.973-7.444-6.966m.549 11.278s-5.227-5.973-7.444-6.967m.657 10.287s-5.226-5.973-7.444-6.966" stroke="#1D1D1F" stroke-width="2" stroke-linecap="round" stroke-linejoin="round"/><path d="M472.984 430.986c7.456 0 13.511-6.009 13.511-13.436V232.823c0-7.415-6.043-13.436-13.511-13.436-7.456 0-13.512 6.009-13.512 13.436V417.55c.013 7.415 6.056 13.436 13.512 13.436z" fill="#D9F94B" stroke="#1D1D1F" stroke-width="2" stroke-linecap="round" stroke-linejoin="round"/></svg>