<svg width="641" height="471" fill="none" xmlns="http://www.w3.org/2000/svg"><path d="M342.882 358.819l-98.951 42.395 24.89 10.064 90.91 3.603 87.41-47.198-.691-4.082c-.002-.012-103.206-3.516-103.568-4.782z" fill="#fff" stroke="#1D1D1F" stroke-width="2" stroke-miterlimit="10" stroke-linecap="round" stroke-linejoin="round"/><path d="M353.45 400.602l70.52-33.699-76.806-3.125-69.926 32.549 76.212 4.275z" stroke="#1D1D1F" stroke-width="2" stroke-miterlimit="10" stroke-linecap="round" stroke-linejoin="round"/><path d="M208.748 188.25c-1.307-6.395-.348-13.002 2.854-18.69 4.418-7.846 9.286-19.509 7.137-30.156-1.668-8.266-10.414-19.418-9.473-26.486.941-7.068 5.982-22.362-5.933-31.322-9.94-7.475-16.281-5.99-26.283-9.703-8.518-3.16-23.336-10.623-39.128-1.785-13.988 7.836-13.392 19.29-21.166 25.572-7.764 6.269-16.82 11.284-17.91 30.984-1.112 20.13 10.04 27.051.355 38.528-9.686 11.478-38.134 3.471-40.027 37.149-1.448 25.739 16.693 28.546 23.35 33.142 6.657 4.596 93.101 8.702 106.676-1.76 21.204-16.346 21.751-34.666 19.548-45.473z" fill="#1D1D1F"/><path d="M138.095 154.459l-17.009 37.016 37.148 58.624 22.929-70.935-43.068-24.705z" fill="#fff" stroke="#1D1D1F" stroke-width="2" stroke-miterlimit="10" stroke-linecap="round" stroke-linejoin="round"/><path d="M206.366 115.876s1.29 40.416-11.248 59.75c-11.074 17.064-22.131 16.677-35.107 5.571-10.643-9.105-22.299-24.341-22.299-24.341s-11.901-4.043-9.341-13.387c2.55-9.343 12.631-3.82 12.631-3.82s9.964.119 8.209-15.953c-1.286-11.838 7.167-28.863 32.12-27.18 24.943 1.697 25.035 19.36 25.035 19.36z" fill="#fff" stroke="#1D1D1F" stroke-width="2" stroke-miterlimit="10" stroke-linecap="round" stroke-linejoin="round"/><path d="M194.039 161.251s-4.773.725-10.145-1.037c-5.373-1.762-9.442-4.112-9.442-4.112s-1.056 9.768 5.887 12.716c8.575 3.641 13.7-7.567 13.7-7.567zm-3.067-35.092c.106.392-.62 10.426 3.106 18.253.855 1.802.305 4.347-2.534 4.849-4.031.711-5.818-1.424-5.818-1.424" stroke="#1D1D1F" stroke-width="2" stroke-miterlimit="10" stroke-linecap="round" stroke-linejoin="round"/><path d="M176.452 218.06l-10.731 41.591s-26.563-19.864-40.73-37.998c-14.165-18.123-31.306-26.164-31.306-26.164s-32.917 21.714-45.061 50.982c-12.145 29.269-8.46 58.402-11.12 87.144-1.856 20.097.564 52.606 1.346 64.11 1.215 17.881 5.19 36.92 7.128 44.942 1.733 7.19 7.866 15.374 12.668 18.282 4.814 2.906 33.728 4.885 37.345 3.972 3.616-.912 20.88-16.369 20.95-22.625.175-15.784-25.228-24.888-16.094-29.639 9.135-4.751 17.656-6.165 17.656-6.165s45.798 2.899 64.376-4.262c18.578-7.162 1.429-10.76 1.429-10.76l22.938-67.256s35.788 22.741 38.767 26.594c2.979 3.852 8.069 11.383 10.901 11.618 2.831.234 6.093 4.054 10.995 5.169 4.903 1.114 7.895-4.538 7.895-4.538s-5.278-21.206 4.219-31.237c9.497-10.031 28.731-9.415 28.731-9.415s-.555-4.76-4.28-6.519c-3.726-1.76-20.683-3.622-22.589-3.701-1.919-.077-2.414-1.767-4.866-3.969-2.453-2.202-9.538-5.05-13.699-6.76-4.162-1.722-4.604-.495-6.188-1.49-1.582-.983-6.518-9.34-13.628-14.953-7.11-5.613-17.367-16.723-26.591-29.103-9.225-12.391-13.067-15.159-16.318-17.864-3.25-2.693-15.026-14.353-18.412-16.888-3.4-2.545-5.731-3.098-5.731-3.098z" fill="#D9F94B" stroke="#1D1D1F" stroke-width="2" stroke-linecap="round" stroke-linejoin="round"/><path d="M120.842 399.865s-11.892-12.007-35.138-9.905c-13.844 1.251-26.871 8.999-26.871 8.999" stroke="#1D1D1F" stroke-width="2" stroke-miterlimit="10" stroke-linecap="round" stroke-linejoin="round"/><path d="M282.082 393.769s22.465 11.781 28.15 10.786c5.685-.996 6.792-3.584 6.57-5.485-.221-1.901-26.794-18.812-29.361-19.743-2.568-.931-34.966-5.975-38.264-5.597-3.298.377-53.362 8.033-61.412 9.834-8.05 1.801-63.849 16.059-66.97 16.416-3.122.358-14.251-1.009-23.375 5.089-5.803 3.875-12.058 18.313-14.45 33.723-.956 6.138-.58 8.64 2.783 13.332 3.364 4.693 5.875 6.676 5.875 6.676s26.02-7.793 37.837-12.297c15.11-5.748 57.084-29.244 61.821-29.263 4.748-.02 10.161 4.64 21.903 3.486 8.214-.809 25.46 2.865 30.047 1.46 4.587-1.404 14.169-5.117 14.169-5.117s5.176 2.214 11.092.134c5.905-2.079 6.489-9.15 6.489-9.15s9.481 10.473 13.699 10.513c4.219.041 7.094-3.963 5.8-7.489-1.306-3.524-12.403-17.308-12.403-17.308z" fill="#fff" stroke="#1D1D1F" stroke-width="2" stroke-miterlimit="10" stroke-linecap="round" stroke-linejoin="round"/><path d="M282.102 393.765c-.101-.868-11.271-10.785-14.231-12.015-2.962-1.242-25.071-.983-25.071-.983m32.174 27.279s-7.344-7.204-16.339-10.548c-8.995-3.344-20.921-4.606-20.921-4.606m19.671 24.164s-16.516-7.558-21.425-8.922a92.9 92.9 0 01-8.955-3.004m-19.732-80.951s.851-12.528.216-24.933c-.635-12.406-2.704-23.233-2.704-23.233" stroke="#1D1D1F" stroke-width="2" stroke-miterlimit="10" stroke-linecap="round" stroke-linejoin="round"/><path d="M308.235 321.555s20.441 8.666 25.326 9.926c4.885 1.259 6.645.69 8.563-1.586 1.919-2.275 13.27-7.08 15.473-7.938 2.204-.858 7.175-2.033 9.161-.56 1.996 1.459 4.798 5.737 4.798 5.737s2.908-1.057 5.184 2.794c2.275 3.852 4.449 10.009 4.819 12.154.368 2.132-1.25 8.01-1.25 8.01s.213 6.025-1.421 9.718c-1.634 3.692-5.52 6.799-7.295 7.24-1.775.44-20.224 1.588-21.331.384-1.107-1.204-1.835-4.271-1.835-4.271s-4.29-.353-5.499-1.308c-1.209-.955-3.725-1.748-3.725-1.748l-64.689.388s-8.863-14.59.05-27.708c8.913-13.118 33.671-11.232 33.671-11.232z" fill="#fff" stroke="#1D1D1F" stroke-width="2" stroke-miterlimit="10" stroke-linecap="round" stroke-linejoin="round"/><path d="M358.406 365.369s5.499-.747 10.725-4.851c5.226-4.103 11.167-10.463 11.167-10.463m20.987-8.532s2.526.376 4.695.449c2.169.085 2.856.339 4.174-1.143 1.319-1.481 4.753-7.648 5.191-9.516.451-1.87-1.839-8.713-3.843-8.805-2.005-.103-4.917-.923-4.917-.923s-3.819-2.866-5.97-2.786c-2.151.08-4.581.524-4.581.524s-3.547-3.397-6.656-3.041c-3.109.356-5.292 1.592-5.292 1.592s-3.121-2.614-6.446-1.247c-3.325 1.366-7.647 6.981-7.647 6.981" stroke="#1D1D1F" stroke-width="2" stroke-miterlimit="10" stroke-linecap="round" stroke-linejoin="round"/><path d="M403.071 328.433s-2.261 16.104-4.189 16.657c-1.928.553-7.752-1.097-7.752-1.097m1.692-19.5s-2.088 3.374-1.892 6.487c.196 3.113-.167 14.211-2.075 14.929-1.909.717-6.603.256-6.603.256m-.498-24.199s-3.209 6.636-2.493 11.34m33.78-9.716s10.883-5.242 16.318-5.21c5.434.021 12.242-.247 14.798-.54 2.557-.292 8.131 2.162 11.715 1.882l3.584-.279s3.899 3.549 8.118 3.185c4.22-.352 7.334-3.539 7.334-3.539s5.752-.527 8.085-2.733c2.323-2.192 1.342-6.207 1.342-6.207s4.648-2.209 5.581-4.242c.921-2.032-.045-5.918-.045-5.918s1.005-7.964-.216-9.632c-1.233-1.666-17.097-9.246-21.316-8.882-4.22.352-20.058 6.411-28.97 8.597-8.914 2.174-24.903 5.811-38.958 9.347-14.055 3.535-52.169 9.063-62.126 10.072-9.957 1.009-16.319-.32-16.319-.32m152.839-19.187c-.302-.548 13.959 7.444 14.764 9.229m-18.351-.031c-.224-.592 12.861 9.195 13.415 11.08m-17.546-1.308c-.224-.591 8.14 7.597 8.705 9.48" stroke="#1D1D1F" stroke-width="2" stroke-miterlimit="10" stroke-linecap="round" stroke-linejoin="round"/><path d="M332.017 308.865s4.216-8.83 6.904-21.665c2.7-12.837 4.253-28.249 4.253-28.249m-89.185-59.766s3.97 11.764 15.151 24.734c11.18 12.97 14.171 16.332 15.047 20.673.876 4.341.214 6.637 1.511 8.151 1.297 1.514 3.836 12.148 4.389 16.893.554 4.746.913 10.998.913 10.998" stroke="#1D1D1F" stroke-width="2" stroke-miterlimit="10" stroke-linecap="round" stroke-linejoin="round"/><path d="M260.981 249.807s13.538 13.998 16.251 18.13c2.713 4.132 8.736 9.547 19.608 16.641 10.871 7.083 11.668 9.212 14.378 11.682 2.71 2.469 7.432 4.708 9.148 6.733 1.715 2.024 3.755 3.454 3.755 3.454s-4.664 4.607-6.411 7.218c-1.736 2.609-6.135 9.585-6.135 9.585m-11.581-97.697s-8.723 39.791-8.402 48.268m-36.135-77.735s-7.24 9.415-7.856 12.822c-.617 3.408-1.726 8.214-1.738 9.546-.011 1.331 6.531 7.103 13.897 14.111 7.354 7.009 12.389 15.613 13.425 17.335 1.036 1.723 1.935-3.558 4.429-5.185 2.495-1.616 6.572-.111 6.572-.111m-33.628-43.302s-13.557 3.154-16.506 8.161c-2.948 5.006-6.19 7.384-9.947 9.655-3.756 2.271-16.275 18.731-15.581 24.675m102.422-37.355s13.658 3.451 20.943 5.456c7.285 2.006 15.174 9.288 21.733 18.063 6.56 8.776 12.509 16.612 16.414 21.345 3.904 4.732 5.542 7.217 8.642 12.207 3.1 4.991 6.969 6.556 10.5 7.981 3.52 1.439 5.603 4.871 9.865 11.237 4.262 6.366 13.19 13.861 13.19 13.861m-73.917-6.28s2.713 4.536 8.859 8.335c6.147 3.799 11.732 8.517 11.732 8.517" stroke="#1D1D1F" stroke-width="2" stroke-miterlimit="10" stroke-linecap="round" stroke-linejoin="round"/><path d="M305.897 214.234s7.023 20.144 5.123 23.378c-1.9 3.233-7.913 5.251-9.212 12.002-1.3 6.751-10.465 30.196-10.465 30.196" stroke="#1D1D1F" stroke-width="2" stroke-miterlimit="10" stroke-linecap="round" stroke-linejoin="round"/><path d="M246.278 173.149s5.641 6.625 9.548 5.75c3.907-.874 5.548-8.903 5.997-13.646.448-4.756-1.574-13.494 15.458-13.458 17.032.036 25.431-.485 30.662-4.849 6.175-5.161 3.71-13.504 1.367-18.76-2.2-4.951-12.533-15.376-12.924-15.046-.391.33-4.125 7.599-10.619 9.625-6.493 2.026-33.987 5.598-39.648 14.656-5.673 9.06-3.576 17.219-2.528 22.516a2039.665 2039.665 0 002.687 13.212z" fill="#1D1D1F"/><path d="M272.042 173.07s13.146-1.385 24.95-4.15c11.804-2.764 22.108-7.331 22.108-7.331s1.145 12.884-2.477 16.115c-3.621 3.231-9.023 3.374-12.331 2.231-3.308-1.143-6.692-8.969-9.024-8.702-2.332.267.372 5.235-4.291 10.689s-10.387 6.62-14.357 4.102c-6.108-3.865-4.578-12.954-4.578-12.954zm-.003.026l-21.316-2.021" stroke="#1D1D1F" stroke-width="2" stroke-miterlimit="10" stroke-linecap="round" stroke-linejoin="round"/><path d="M283.373 179.396a1.863 1.863 0 10-.432-3.704 1.863 1.863 0 00-1.644 2.064 1.874 1.874 0 002.076 1.64zm25.217-5.936a1.864 1.864 0 001.644-2.065 1.874 1.874 0 00-2.076-1.639 1.863 1.863 0 00-1.644 2.065 1.873 1.873 0 002.076 1.639zm-34.252-3.913l10.681-2.284m14.028-1.967s3.082-3.873 8.252-2.943m-9.085 16.153s.906 4.694 2.5 7.326a209.828 209.828 0 002.741 4.377s-1.92 1.739-5.653 1.941m-9.897 9.086s2.977.242 7.328-.719c4.363-.963 7.37-3.422 7.37-3.422s1.854 5.765-3.213 7.747c-5.055 1.993-11.485-3.606-11.485-3.606z" stroke="#1D1D1F" stroke-width="2" stroke-miterlimit="10" stroke-linecap="round" stroke-linejoin="round"/><path d="M307.671 141.624s6.918 36.297 6.693 46.537c-.225 10.239-4.355 26.269-15 29.695-10.647 3.415-20.002-1.013-26.62-7.643m-23.96-37.154s-4.986-.843-5.14 3.26c-.153 4.102 3.778 14.814 7.04 15.699 3.262.885 4.67-.534 4.67-.534l3.254 17.07m42.306 9.274l-.152 21.697" stroke="#1D1D1F" stroke-width="2" stroke-miterlimit="10" stroke-linecap="round" stroke-linejoin="round"/><path d="M165.758 259.722s-2.986-11.072-4.047-17.305c-1.061-6.233-.851-5.556-.851-5.556l-36.967-49.586 4.666-8.883-17.933-1.559-16.913 18.74s17.363 21.316 35.212 36.069c17.849 14.752 36.833 28.08 36.833 28.08z" fill="#D9F94B" stroke="#1D1D1F" stroke-width="2" stroke-linecap="round" stroke-linejoin="round"/><path d="M172.475 206.817l4.045 11.292m-39.256-59.958l-8.658 20.253" stroke="#1D1D1F" stroke-width="2" stroke-miterlimit="10" stroke-linecap="round" stroke-linejoin="round"/><path d="M165.785 259.686l-4.524-21.415 14.557-41.718 6.391 24.644-16.424 38.489z" fill="#D9F94B" stroke="#1D1D1F" stroke-width="2" stroke-linecap="round" stroke-linejoin="round"/><path d="M164.252 117.432s-3.807 4.248-.707 10.156c2.838 5.403 6.572 7.152 11.784 6.653 6.721-.636 9.445-3.75 10.979-8.167 1.436-4.132-2.3-10.478-2.3-10.478s-.138 1.869-1.393 2.155c-2.332.551-1.609-3.666-1.847-5.801-.304-2.699-3.034-4.728-5.344-6.437-2.31-1.709-4.223-2.465-4.223-2.465s1.903 5.462 1.114 7.18c-.874 1.906-2.532-.044-2.532-.044s-1.917 3.082-1.798 5.421c.118 2.339.697 4.732-1.178 5.219-1.85.496-2.555-3.392-2.555-3.392z" fill="#E62C8B"/><path d="M174.837 133.85a2.53 2.53 0 01-1.618-.481 10.674 10.674 0 01-3.014-3.457c-1.491-2.764-.481-5.944-.481-5.944s.849 1.044 1.297-.219c.437-1.261.032-5.432 1.231-7.612 1.2-2.168 2.787-3.168 2.787-3.168s-.879 5.421 1.365 8.301c2.255 2.879 3.107 2.319 3.678 5.366.605 3.233-2.642 6.24-3.437 6.782-.429.299-1.203.411-1.808.432z" fill="#D9F94B"/><path d="M174.327 122.289s1.118 1.405 2.484 3.506c1.367 2.101 1.083 5.685-1.157 6.51-2.237.838-3.568-2.693-3.49-3.759.076-1.078.257-1.977.257-1.977l.838 1.258s.208.25.173-1.884c-.025-2.148.895-3.654.895-3.654z" fill="#fff"/><path d="M191.905 116.334s-3.807 4.248-.708 10.156c2.839 5.403 6.573 7.151 11.784 6.652 6.722-.635 9.446-3.75 10.98-8.166 1.436-4.132-2.3-10.479-2.3-10.479s-.139 1.87-1.393 2.155c-2.332.551-1.609-3.666-1.847-5.801-.304-2.698-3.034-4.728-5.344-6.436-2.311-1.709-4.223-2.466-4.223-2.466s1.903 5.463 1.114 7.18c-.874 1.906-2.533-.044-2.533-.044s-1.916 3.082-1.798 5.421c.119 2.339.697 4.733-1.177 5.22-1.875.487-2.555-3.392-2.555-3.392z" fill="#E62C8B"/><path d="M202.491 132.762a2.528 2.528 0 01-1.617-.481 10.674 10.674 0 01-3.015-3.457c-1.491-2.764-.48-5.944-.48-5.944s.849 1.044 1.297-.219c.436-1.261.031-5.432 1.23-7.612 1.201-2.168 2.788-3.168 2.788-3.168s-.879 5.422 1.364 8.302c2.256 2.878 3.108 2.318 3.679 5.365.605 3.233-2.642 6.24-3.437 6.782-.43.299-1.205.399-1.809.432z" fill="#D9F94B"/><path d="M201.97 121.203s1.117 1.405 2.484 3.506c1.366 2.101 1.082 5.685-1.157 6.511-2.24.825-3.569-2.694-3.491-3.76.076-1.078.257-1.977.257-1.977l.838 1.258s.208.25.173-1.884c-.025-2.148.896-3.654.896-3.654z" fill="#fff"/><path d="M96.696 388.394l3.011-59.212" stroke="#1D1D1F" stroke-width="2" stroke-miterlimit="10" stroke-linecap="round" stroke-linejoin="round"/><path d="M138.854 155.623L136 164.501l15.605 13.395 5.067-7.291-17.818-14.982z" fill="#fff"/><path d="M352.61 379.098l-1.907-7.571 4.756-67.061s1.31-1.539 3.845-1.366c2.535.173 2.725.982 2.725.982l-4.377 67.861-5.042 7.155z" fill="#D9F94B" stroke="#1D1D1F" stroke-width="2" stroke-linecap="round" stroke-linejoin="round"/><path d="M344.457 335.53l1.556 3.718s7.869 3.935 8.259 7.276c.389 3.341-.741 6.132-3.322 6.914-2.582.782-7.219-.505-11.115-2.602-3.884-2.098-7.075-4.394-7.699-5.653" fill="#fff"/><path d="M344.457 335.53l1.556 3.718s7.869 3.935 8.259 7.276c.389 3.341-.741 6.132-3.322 6.914-2.582.782-7.219-.505-11.115-2.602-3.884-2.098-7.075-4.394-7.699-5.653" stroke="#1D1D1F" stroke-width="2" stroke-miterlimit="10" stroke-linecap="round" stroke-linejoin="round"/><path d="M360.449 333.201l2.091 4.013s-7.368 9.669-8.039 14.342c-.672 4.674.82 7.034 2.369 7.83 1.547.786 3.667 1.268 4.406.34.739-.928 13.623-17.511 14.615-19.442.992-1.931 1.691-8.413 1.691-8.413" fill="#fff"/><path d="M360.449 333.201l2.091 4.013s-7.368 9.669-8.039 14.342c-.672 4.674.82 7.034 2.369 7.83 1.547.786 3.667 1.268 4.406.34.739-.928 13.623-17.511 14.615-19.442.992-1.931 1.691-8.413 1.691-8.413m-95.658-19.76s-16.411 2.863-24.747 16.117" stroke="#1D1D1F" stroke-width="2" stroke-miterlimit="10" stroke-linecap="round" stroke-linejoin="round"/><path d="M533.939 174.28s102.218 194.679 103.013 201.5c.796 6.822-84.71 31.59-95.773 29.399-11.063-2.19-66.191-18.166-67.077-25.76-.397-3.411 63.575-8.044 108.085-13.135 13.326-1.524 23.238-2.658 23.483-3.838.244-1.18-61.606-124.382-61.606-124.382l-10.125-63.784z" fill="#fff" stroke="#1D1D1F" stroke-width="2" stroke-miterlimit="10" stroke-linecap="round" stroke-linejoin="round"/><path d="M457.84 97.686l28.449 223.06 68.197 55.833 6.948-2.232L516.25 11.364l-6.616-1.048-51.794 87.37z" fill="#fff" stroke="#1D1D1F" stroke-width="2" stroke-miterlimit="10" stroke-linecap="round" stroke-linejoin="round"/><path d="M554.471 376.541L509.759 10.32" stroke="#1D1D1F" stroke-width="2" stroke-miterlimit="10" stroke-linecap="round" stroke-linejoin="round"/><path d="M543.278 318.238l-56.255-29.939-24.708-186.36 44.602-72.916 36.361 289.215z" fill="#fff" stroke="#1D1D1F" stroke-width="2" stroke-miterlimit="10" stroke-linecap="round" stroke-linejoin="round"/></svg>