<svg xmlns="http://www.w3.org/2000/svg" xmlns:xlink="http://www.w3.org/1999/xlink"><defs>
<filter id="filter0_d_21_2" x="0" y="0" width="26" height="12" filterUnits="userSpaceOnUse" color-interpolation-filters="sRGB">
<feFlood flood-opacity="0" result="BackgroundImageFix"/>
<feColorMatrix in="SourceAlpha" type="matrix" values="0 0 0 0 0 0 0 0 0 0 0 0 0 0 0 0 0 0 127 0" result="hardAlpha"/>
<feOffset/>
<feGaussianBlur stdDeviation="2"/>
<feComposite in2="hardAlpha" operator="out"/>
<feColorMatrix type="matrix" values="0 0 0 0 0 0 0 0 0 0 0 0 0 0 0 0 0 0 0.25 0"/>
<feBlend mode="normal" in2="BackgroundImageFix" result="effect1_dropShadow_21_2"/>
<feBlend mode="normal" in="SourceGraphic" in2="effect1_dropShadow_21_2" result="shape"/>
</filter>
<filter id="filter1_d_21_2" x="0" y="8" width="26" height="12" filterUnits="userSpaceOnUse" color-interpolation-filters="sRGB">
<feFlood flood-opacity="0" result="BackgroundImageFix"/>
<feColorMatrix in="SourceAlpha" type="matrix" values="0 0 0 0 0 0 0 0 0 0 0 0 0 0 0 0 0 0 127 0" result="hardAlpha"/>
<feOffset/>
<feGaussianBlur stdDeviation="2"/>
<feComposite in2="hardAlpha" operator="out"/>
<feColorMatrix type="matrix" values="0 0 0 0 0 0 0 0 0 0 0 0 0 0 0 0 0 0 0.25 0"/>
<feBlend mode="normal" in2="BackgroundImageFix" result="effect1_dropShadow_21_2"/>
<feBlend mode="normal" in="SourceGraphic" in2="effect1_dropShadow_21_2" result="shape"/>
</filter>
<filter id="filter2_d_21_2" x="0" y="4" width="26" height="12" filterUnits="userSpaceOnUse" color-interpolation-filters="sRGB">
<feFlood flood-opacity="0" result="BackgroundImageFix"/>
<feColorMatrix in="SourceAlpha" type="matrix" values="0 0 0 0 0 0 0 0 0 0 0 0 0 0 0 0 0 0 127 0" result="hardAlpha"/>
<feOffset/>
<feGaussianBlur stdDeviation="2"/>
<feComposite in2="hardAlpha" operator="out"/>
<feColorMatrix type="matrix" values="0 0 0 0 0 0 0 0 0 0 0 0 0 0 0 0 0 0 0.25 0"/>
<feBlend mode="normal" in2="BackgroundImageFix" result="effect1_dropShadow_21_2"/>
<feBlend mode="normal" in="SourceGraphic" in2="effect1_dropShadow_21_2" result="shape"/>
</filter>
</defs><symbol id="check" viewBox="0 0 9.48 8.12"><polygon points="3.77 8.12 0 4.35 1.41 2.93 3.64 5.16 7.94 0 9.48 1.28 3.77 8.12"/></symbol><symbol id="flag" viewBox="0 0 26 20">
<g filter="url(#filter0_d_21_2)">
<rect x="4" y="4" width="18" height="4" fill="white"/>
</g>
<g filter="url(#filter1_d_21_2)">
<rect x="4" y="12" width="18" height="4" fill="#D6261A"/>
</g>
<g filter="url(#filter2_d_21_2)">
<rect x="4" y="8" width="18" height="4" fill="#0131A7"/>
</g>

</symbol><symbol id="success" viewBox="0 0 51 51">
<circle cx="25.5" cy="25.5" r="24.5" stroke="#62C584" stroke-width="2"/>
<line x1="17.6402" y1="25.2318" x2="23.6402" y2="30.2318" stroke="#62C584" stroke-width="2"/>
<line x1="33.7071" y1="18.7071" x2="22.7071" y2="29.7071" stroke="#62C584" stroke-width="2"/>
</symbol><symbol id="telegram" viewBox="0 0 15 14">
<path d="M0.813156 6.76558L4.07706 7.98268L5.34946 12.0764C5.40476 12.353 5.73675 12.4084 5.95806 12.2424L7.78355 10.7487C7.94955 10.5828 8.22615 10.5828 8.44745 10.7487L11.7114 13.1275C11.9327 13.2935 12.2646 13.1829 12.32 12.9062L14.7541 1.28883C14.8094 1.01223 14.5328 0.735622 14.2562 0.846272L0.813156 6.04648C0.481226 6.15708 0.481226 6.65498 0.813156 6.76558ZM5.18356 7.37418L11.6008 3.44638C11.7114 3.39098 11.8221 3.55698 11.7114 3.61228L6.45586 8.53588C6.28996 8.70188 6.12396 8.92308 6.12396 9.19968L5.95806 10.5274C5.95806 10.6934 5.68135 10.7487 5.62606 10.5274L4.96226 8.09328C4.79626 7.81668 4.90696 7.48478 5.18356 7.37418Z"/>
</symbol><symbol id="viber" viewBox="0 0 16 17">
<path d="M11.7717 0.789373C9.15631 0.272683 6.44026 0.272683 3.82495 0.789373C2.66814 1.04771 1.2095 2.49444 0.958026 3.63114C0.505365 5.85294 0.505365 8.12634 0.958026 10.348C1.2598 11.4848 2.7184 12.9315 3.82495 13.1898C3.87521 13.1898 3.92548 13.2415 3.92548 13.2932V16.5483C3.92548 16.7033 4.12664 16.8066 4.22727 16.6516L5.73614 15.0499C5.73614 15.0499 6.94332 13.7582 7.14448 13.5515C7.14448 13.5515 7.19475 13.4998 7.24501 13.4998C8.75398 13.5515 10.3131 13.3965 11.822 13.1382C12.9788 12.8798 14.4374 11.4331 14.6889 10.2964C15.1415 8.07464 15.1415 5.80124 14.6889 3.57944C14.3871 2.49444 12.9285 1.04771 11.7717 0.789373ZM11.822 10.503C11.5706 11.0197 11.2688 11.4331 10.7658 11.6914C10.6149 11.7431 10.464 11.7948 10.3131 11.8464C10.112 11.7948 9.96106 11.7431 9.81016 11.6914C8.20066 11.0197 6.69179 10.0897 5.48471 8.74634C4.83086 7.97134 4.27754 7.09294 3.82495 6.16294C3.62369 5.69794 3.42252 5.28454 3.27163 4.81954C3.12073 4.40614 3.37226 3.99284 3.62369 3.68284C3.87521 3.37284 4.17701 3.16614 4.52907 3.01114C4.7805 2.85612 5.03202 2.95945 5.23319 3.16614C5.63561 3.68284 6.03794 4.19954 6.33973 4.76784C6.54089 5.12954 6.49063 5.54284 6.13857 5.80124C6.03794 5.85294 5.98767 5.90454 5.88704 6.00794C5.83677 6.05954 5.73614 6.11124 5.68588 6.21454C5.58525 6.36954 5.58525 6.52464 5.63561 6.67964C6.03794 7.86794 6.79242 8.79804 7.94923 9.31474C8.15039 9.41804 8.30129 9.46974 8.55272 9.46974C8.90478 9.41805 9.05568 9.00474 9.30721 8.79804C9.55864 8.59134 9.86043 8.59134 10.1622 8.74634C10.4137 8.90134 10.6652 9.10804 10.967 9.31474C11.2184 9.52134 11.4699 9.67634 11.7215 9.88304C11.8723 9.98644 11.9226 10.2447 11.822 10.503ZM9.70953 6.62794C9.609 6.62794 9.65927 6.62794 9.70953 6.62794C9.50837 6.62794 9.4581 6.52464 9.40774 6.36954C9.40774 6.26624 9.40774 6.11124 9.35747 6.00794C9.30721 5.80124 9.20657 5.59454 9.00541 5.43954C8.90478 5.38784 8.80425 5.33624 8.70362 5.28454C8.55272 5.23284 8.45219 5.23284 8.30129 5.23284C8.15039 5.18124 8.10013 5.07784 8.10013 4.92284C8.10013 4.81954 8.25093 4.71614 8.35156 4.71614C9.15631 4.76784 9.7599 5.23284 9.86043 6.21454C9.86043 6.26624 9.86043 6.36954 9.86043 6.42124C9.86043 6.52464 9.81016 6.62794 9.70953 6.62794ZM9.20657 4.35454C8.95514 4.25114 8.70362 4.14784 8.40182 4.09614C8.30129 4.09614 8.15039 4.04454 8.04976 4.04454C7.89887 4.04454 7.79833 3.94114 7.8486 3.78614C7.8486 3.63114 7.94923 3.52784 8.10013 3.57944C8.60308 3.63114 9.05568 3.73444 9.50837 3.94114C10.4137 4.40614 10.9167 5.18124 11.0676 6.21454C11.0676 6.26624 11.0676 6.31794 11.0676 6.36954C11.0676 6.47294 11.0676 6.57624 11.0676 6.73124C11.0676 6.78294 11.0676 6.83464 11.0676 6.88624C11.0172 7.09294 10.6652 7.14464 10.6149 6.88624C10.6149 6.83464 10.5646 6.73124 10.5646 6.67964C10.5646 6.21454 10.464 5.74954 10.2629 5.33624C9.96106 4.87124 9.609 4.56114 9.20657 4.35454ZM11.9226 7.45464C11.7717 7.45464 11.6711 7.29964 11.6711 7.14464C11.6711 6.83464 11.6208 6.52464 11.5706 6.21454C11.3693 4.56114 10.0616 3.21784 8.50245 2.95945C8.25093 2.90778 7.9995 2.90778 7.79833 2.85612C7.64744 2.85612 7.44627 2.85612 7.39591 2.64944C7.34564 2.49444 7.49654 2.33943 7.64744 2.33943C7.6977 2.33943 7.74797 2.33943 7.74797 2.33943C9.81016 2.3911 7.8486 2.33943 7.74797 2.33943C9.86043 2.3911 11.6208 3.83784 11.9729 6.00794C12.0232 6.36954 12.0735 6.73124 12.0735 7.14464C12.174 7.29964 12.0735 7.45464 11.9226 7.45464Z"/>
</symbol><symbol id="whatsapp" viewBox="0 0 16 16">
<path d="M12.9865 2.86604C11.5841 1.46853 9.71433 0.692139 7.74063 0.692139C3.63733 0.692139 0.31317 4.00477 0.31317 8.09377C0.31317 9.38777 0.676751 10.6818 1.30003 11.7687L0.26123 15.599L4.20863 14.5638C5.29943 15.1331 6.49403 15.4437 7.74063 15.4437C11.8438 15.4437 15.168 12.1311 15.168 8.04197C15.1161 6.12687 14.3889 4.26357 12.9865 2.86604ZM11.3244 10.7336C11.1686 11.1476 10.4415 11.5617 10.0779 11.6135C9.76623 11.6652 9.35073 11.6652 8.93523 11.5617C8.67553 11.4582 8.31193 11.3547 7.89643 11.1476C6.02653 10.3712 4.83193 8.50787 4.72803 8.35257C4.62423 8.24907 3.94893 7.36917 3.94893 6.43747C3.94893 5.50577 4.41643 5.09167 4.57223 4.88467C4.72803 4.67767 4.93583 4.67767 5.09163 4.67767C5.19553 4.67767 5.35133 4.67767 5.45523 4.67767C5.55913 4.67767 5.71493 4.62587 5.87073 4.98817C6.02653 5.35047 6.39013 6.28217 6.44213 6.33397C6.49403 6.43747 6.49403 6.54097 6.44213 6.64447C6.39013 6.74807 6.33823 6.85157 6.23433 6.95507C6.13043 7.05857 6.02653 7.21387 5.97463 7.26557C5.87073 7.36917 5.76683 7.47267 5.87073 7.62797C5.97463 7.83497 6.33823 8.40437 6.90953 8.92197C7.63673 9.54307 8.20803 9.75007 8.41583 9.85357C8.62363 9.95717 8.72743 9.90537 8.83133 9.80187C8.93523 9.69837 9.29883 9.28427 9.40273 9.07717C9.50653 8.87017 9.66243 8.92197 9.81823 8.97367C9.97403 9.02547 10.9089 9.49127 11.0647 9.59477C11.2725 9.69837 11.3764 9.75007 11.4283 9.80187C11.4803 9.95717 11.4803 10.3195 11.3244 10.7336Z"/>
</symbol></svg>