<svg xmlns="http://www.w3.org/2000/svg" xmlns:xlink="http://www.w3.org/1999/xlink"><defs>
<filter id="filter0_d_21_2" x="0" y="0" width="26" height="12" filterUnits="userSpaceOnUse" color-interpolation-filters="sRGB">
<feFlood flood-opacity="0" result="BackgroundImageFix"/>
<feColorMatrix in="SourceAlpha" type="matrix" values="0 0 0 0 0 0 0 0 0 0 0 0 0 0 0 0 0 0 127 0" result="hardAlpha"/>
<feOffset/>
<feGaussianBlur stdDeviation="2"/>
<feComposite in2="hardAlpha" operator="out"/>
<feColorMatrix type="matrix" values="0 0 0 0 0 0 0 0 0 0 0 0 0 0 0 0 0 0 0.25 0"/>
<feBlend mode="normal" in2="BackgroundImageFix" result="effect1_dropShadow_21_2"/>
<feBlend mode="normal" in="SourceGraphic" in2="effect1_dropShadow_21_2" result="shape"/>
</filter>
<filter id="filter1_d_21_2" x="0" y="8" width="26" height="12" filterUnits="userSpaceOnUse" color-interpolation-filters="sRGB">
<feFlood flood-opacity="0" result="BackgroundImageFix"/>
<feColorMatrix in="SourceAlpha" type="matrix" values="0 0 0 0 0 0 0 0 0 0 0 0 0 0 0 0 0 0 127 0" result="hardAlpha"/>
<feOffset/>
<feGaussianBlur stdDeviation="2"/>
<feComposite in2="hardAlpha" operator="out"/>
<feColorMatrix type="matrix" values="0 0 0 0 0 0 0 0 0 0 0 0 0 0 0 0 0 0 0.25 0"/>
<feBlend mode="normal" in2="BackgroundImageFix" result="effect1_dropShadow_21_2"/>
<feBlend mode="normal" in="SourceGraphic" in2="effect1_dropShadow_21_2" result="shape"/>
</filter>
<filter id="filter2_d_21_2" x="0" y="4" width="26" height="12" filterUnits="userSpaceOnUse" color-interpolation-filters="sRGB">
<feFlood flood-opacity="0" result="BackgroundImageFix"/>
<feColorMatrix in="SourceAlpha" type="matrix" values="0 0 0 0 0 0 0 0 0 0 0 0 0 0 0 0 0 0 127 0" result="hardAlpha"/>
<feOffset/>
<feGaussianBlur stdDeviation="2"/>
<feComposite in2="hardAlpha" operator="out"/>
<feColorMatrix type="matrix" values="0 0 0 0 0 0 0 0 0 0 0 0 0 0 0 0 0 0 0.25 0"/>
<feBlend mode="normal" in2="BackgroundImageFix" result="effect1_dropShadow_21_2"/>
<feBlend mode="normal" in="SourceGraphic" in2="effect1_dropShadow_21_2" result="shape"/>
</filter>
</defs><symbol id="check" viewBox="0 0 9.48 8.12"><polygon points="3.77 8.12 0 4.35 1.41 2.93 3.64 5.16 7.94 0 9.48 1.28 3.77 8.12"/></symbol><symbol id="flag" viewBox="0 0 26 20">
<g filter="url(#filter0_d_21_2)">
<rect x="4" y="4" width="18" height="4" fill="white"/>
</g>
<g filter="url(#filter1_d_21_2)">
<rect x="4" y="12" width="18" height="4" fill="#D6261A"/>
</g>
<g filter="url(#filter2_d_21_2)">
<rect x="4" y="8" width="18" height="4" fill="#0131A7"/>
</g>

</symbol><symbol id="success" viewBox="0 0 51 51">
<circle cx="25.5" cy="25.5" r="24.5" stroke="#62C584" stroke-width="2"/>
<line x1="17.6402" y1="25.2318" x2="23.6402" y2="30.2318" stroke="#62C584" stroke-width="2"/>
<line x1="33.7071" y1="18.7071" x2="22.7071" y2="29.7071" stroke="#62C584" stroke-width="2"/>
</symbol><symbol id="telegram" viewBox="0 0 29 29">
<path d="M14.3716 28.6973C22.2123 28.6973 28.5685 22.3411 28.5685 14.5004C28.5685 6.65964 22.2123 0.303467 14.3716 0.303467C6.53085 0.303467 0.174683 6.65964 0.174683 14.5004C0.174683 22.3411 6.53085 28.6973 14.3716 28.6973Z" fill="#2F89CE"/>
<path d="M6.81316 14.7656L10.0771 15.9827L11.3495 20.0764C11.4048 20.353 11.7368 20.4084 11.9581 20.2424L13.7836 18.7487C13.9496 18.5828 14.2262 18.5828 14.4475 18.7487L17.7114 21.1275C17.9327 21.2935 18.2646 21.1829 18.32 20.9062L20.7541 9.28883C20.8094 9.01223 20.5328 8.73562 20.2562 8.84627L6.81316 14.0465C6.48123 14.1571 6.48123 14.655 6.81316 14.7656ZM11.1836 15.3742L17.6008 11.4464C17.7114 11.391 17.8221 11.557 17.7114 11.6123L12.4559 16.5359C12.29 16.7019 12.124 16.9231 12.124 17.1997L11.9581 18.5274C11.9581 18.6934 11.6814 18.7487 11.6261 18.5274L10.9623 16.0933C10.7963 15.8167 10.907 15.4848 11.1836 15.3742Z" fill="white"/>
</symbol><symbol id="viber" viewBox="0 0 29 29">
<path d="M14.48 28.6973C22.0594 28.6973 28.2037 22.3411 28.2037 14.5004C28.2037 6.65964 22.0594 0.303467 14.48 0.303467C6.90065 0.303467 0.756348 6.65964 0.756348 14.5004C0.756348 22.3411 6.90065 28.6973 14.48 28.6973Z" fill="#7C509A"/>
<path d="M18.7717 7.78937C16.1563 7.27268 13.4403 7.27268 10.8249 7.78937C9.66814 8.04771 8.2095 9.49444 7.95803 10.6311C7.50536 12.8529 7.50536 15.1263 7.95803 17.348C8.2598 18.4848 9.7184 19.9315 10.8249 20.1898C10.8752 20.1898 10.9255 20.2415 10.9255 20.2932V23.5483C10.9255 23.7033 11.1266 23.8066 11.2273 23.6516L12.7361 22.0499C12.7361 22.0499 13.9433 20.7582 14.1445 20.5515C14.1445 20.5515 14.1947 20.4998 14.245 20.4998C15.754 20.5515 17.3131 20.3965 18.822 20.1382C19.9788 19.8798 21.4374 18.4331 21.6889 17.2964C22.1415 15.0746 22.1415 12.8012 21.6889 10.5794C21.3871 9.49444 19.9285 8.04771 18.7717 7.78937ZM18.822 17.503C18.5706 18.0197 18.2688 18.4331 17.7658 18.6914C17.6149 18.7431 17.464 18.7948 17.3131 18.8464C17.112 18.7948 16.9611 18.7431 16.8102 18.6914C15.2007 18.0197 13.6918 17.0897 12.4847 15.7463C11.8309 14.9713 11.2775 14.0929 10.8249 13.1629C10.6237 12.6979 10.4225 12.2845 10.2716 11.8195C10.1207 11.4061 10.3723 10.9928 10.6237 10.6828C10.8752 10.3728 11.177 10.1661 11.5291 10.0111C11.7805 9.85612 12.032 9.95945 12.2332 10.1661C12.6356 10.6828 13.0379 11.1995 13.3397 11.7678C13.5409 12.1295 13.4906 12.5428 13.1386 12.8012C13.0379 12.8529 12.9877 12.9045 12.887 13.0079C12.8368 13.0595 12.7361 13.1112 12.6859 13.2145C12.5852 13.3695 12.5852 13.5246 12.6356 13.6796C13.0379 14.8679 13.7924 15.798 14.9492 16.3147C15.1504 16.418 15.3013 16.4697 15.5527 16.4697C15.9048 16.418 16.0557 16.0047 16.3072 15.798C16.5586 15.5913 16.8604 15.5913 17.1622 15.7463C17.4137 15.9013 17.6652 16.108 17.967 16.3147C18.2184 16.5213 18.4699 16.6763 18.7215 16.883C18.8723 16.9864 18.9226 17.2447 18.822 17.503ZM16.7095 13.6279C16.609 13.6279 16.6593 13.6279 16.7095 13.6279C16.5084 13.6279 16.4581 13.5246 16.4077 13.3695C16.4077 13.2662 16.4077 13.1112 16.3575 13.0079C16.3072 12.8012 16.2066 12.5945 16.0054 12.4395C15.9048 12.3878 15.8042 12.3362 15.7036 12.2845C15.5527 12.2328 15.4522 12.2328 15.3013 12.2328C15.1504 12.1812 15.1001 12.0778 15.1001 11.9228C15.1001 11.8195 15.2509 11.7161 15.3516 11.7161C16.1563 11.7678 16.7599 12.2328 16.8604 13.2145C16.8604 13.2662 16.8604 13.3695 16.8604 13.4212C16.8604 13.5246 16.8102 13.6279 16.7095 13.6279ZM16.2066 11.3545C15.9551 11.2511 15.7036 11.1478 15.4018 11.0961C15.3013 11.0961 15.1504 11.0445 15.0498 11.0445C14.8989 11.0445 14.7983 10.9411 14.8486 10.7861C14.8486 10.6311 14.9492 10.5278 15.1001 10.5794C15.6031 10.6311 16.0557 10.7344 16.5084 10.9411C17.4137 11.4061 17.9167 12.1812 18.0676 13.2145C18.0676 13.2662 18.0676 13.3179 18.0676 13.3695C18.0676 13.4729 18.0676 13.5762 18.0676 13.7312C18.0676 13.7829 18.0676 13.8346 18.0676 13.8862C18.0172 14.0929 17.6652 14.1446 17.6149 13.8862C17.6149 13.8346 17.5646 13.7312 17.5646 13.6796C17.5646 13.2145 17.464 12.7495 17.2629 12.3362C16.9611 11.8712 16.609 11.5611 16.2066 11.3545ZM18.9226 14.4546C18.7717 14.4546 18.6711 14.2996 18.6711 14.1446C18.6711 13.8346 18.6208 13.5246 18.5706 13.2145C18.3693 11.5611 17.0616 10.2178 15.5025 9.95945C15.2509 9.90778 14.9995 9.90778 14.7983 9.85612C14.6474 9.85612 14.4463 9.85612 14.3959 9.64944C14.3456 9.49444 14.4965 9.33943 14.6474 9.33943C14.6977 9.33943 14.748 9.33943 14.748 9.33943C16.8102 9.3911 14.8486 9.33943 14.748 9.33943C16.8604 9.3911 18.6208 10.8378 18.9729 13.0079C19.0232 13.3695 19.0735 13.7312 19.0735 14.1446C19.174 14.2996 19.0735 14.4546 18.9226 14.4546Z" fill="white"/>
</symbol><symbol id="whatsapp" viewBox="0 0 29 29">
<path d="M14.3585 28.6973C22.1993 28.6973 28.5554 22.3411 28.5554 14.5004C28.5554 6.65964 22.1993 0.303467 14.3585 0.303467C6.51779 0.303467 0.161621 6.65964 0.161621 14.5004C0.161621 22.3411 6.51779 28.6973 14.3585 28.6973Z" fill="#48C95F"/>
<path d="M19.9865 8.86604C18.5841 7.46853 16.7143 6.69214 14.7406 6.69214C10.6373 6.69214 7.31317 10.0048 7.31317 14.0938C7.31317 15.3878 7.67675 16.6818 8.30003 17.7687L7.26123 21.599L11.2086 20.5638C12.2994 21.1331 13.494 21.4437 14.7406 21.4437C18.8438 21.4437 22.168 18.1311 22.168 14.042C22.1161 12.1269 21.3889 10.2636 19.9865 8.86604ZM18.3244 16.7336C18.1686 17.1476 17.4415 17.5617 17.0779 17.6135C16.7662 17.6652 16.3507 17.6652 15.9352 17.5617C15.6755 17.4582 15.3119 17.3547 14.8964 17.1476C13.0265 16.3712 11.8319 14.5079 11.728 14.3526C11.6242 14.2491 10.9489 13.3692 10.9489 12.4375C10.9489 11.5058 11.4164 11.0917 11.5722 10.8847C11.728 10.6777 11.9358 10.6777 12.0916 10.6777C12.1955 10.6777 12.3513 10.6777 12.4552 10.6777C12.5591 10.6777 12.7149 10.6259 12.8707 10.9882C13.0265 11.3505 13.3901 12.2822 13.4421 12.334C13.494 12.4375 13.494 12.541 13.4421 12.6445C13.3901 12.7481 13.3382 12.8516 13.2343 12.9551C13.1304 13.0586 13.0265 13.2139 12.9746 13.2656C12.8707 13.3692 12.7668 13.4727 12.8707 13.628C12.9746 13.835 13.3382 14.4044 13.9095 14.922C14.6367 15.5431 15.208 15.7501 15.4158 15.8536C15.6236 15.9572 15.7274 15.9054 15.8313 15.8019C15.9352 15.6984 16.2988 15.2843 16.4027 15.0772C16.5065 14.8702 16.6624 14.922 16.8182 14.9737C16.974 15.0255 17.9089 15.4913 18.0647 15.5948C18.2725 15.6984 18.3764 15.7501 18.4283 15.8019C18.4803 15.9572 18.4803 16.3195 18.3244 16.7336Z" fill="white"/>
</symbol></svg>