<?xml version="1.0" standalone="no"?>
<!DOCTYPE svg PUBLIC "-//W3C//DTD SVG 20010904//EN"
 "http://www.w3.org/TR/2001/REC-SVG-20010904/DTD/svg10.dtd">
<svg version="1.0" xmlns="http://www.w3.org/2000/svg"
 width="800.000000pt" height="800.000000pt" viewBox="0 0 800.000000 800.000000"
 preserveAspectRatio="xMidYMid meet">
<metadata>
Created by potrace 1.11, written by Peter Selinger 2001-2013
</metadata>
<g transform="translate(0.000000,800.000000) scale(0.100000,-0.100000)"
fill="#000000" stroke="none">
<path d="M2318 6794 c-2 -2 -29 -6 -59 -9 -30 -3 -65 -7 -79 -10 -14 -3 -41
-7 -60 -10 -85 -14 -318 -74 -365 -95 -11 -5 -63 -25 -115 -46 -138 -53 -307
-143 -450 -239 -69 -46 -134 -92 -145 -102 -11 -10 -40 -34 -65 -54 -168 -137
-324 -303 -458 -489 -34 -47 -66 -90 -72 -97 -5 -7 -10 -14 -10 -17 0 -3 -20
-37 -45 -75 -25 -38 -45 -72 -45 -75 0 -3 -13 -28 -30 -56 -16 -27 -26 -50
-22 -50 4 0 2 -4 -4 -8 -10 -7 -15 -17 -69 -135 -31 -68 -95 -235 -95 -247 0
-5 -4 -19 -9 -32 -5 -13 -9 -25 -10 -28 -1 -3 -8 -27 -17 -55 -17 -58 -62
-253 -70 -305 -3 -19 -8 -46 -12 -60 -3 -14 -7 -200 -8 -415 -2 -347 0 -402
17 -495 22 -126 44 -220 71 -315 11 -38 21 -74 23 -80 1 -5 7 -23 13 -38 7
-16 12 -32 12 -36 0 -10 47 -131 60 -153 6 -10 10 -23 10 -28 0 -28 193 -391
212 -398 4 -2 8 -8 8 -14 0 -14 76 -121 168 -238 83 -105 285 -312 364 -375
28 -22 65 -52 82 -67 17 -15 34 -28 38 -28 4 0 13 -7 21 -15 24 -23 230 -155
243 -155 7 0 14 -4 16 -8 5 -12 296 -152 316 -152 5 0 22 -6 38 -14 30 -15
263 -85 299 -91 18 -2 99 -17 163 -30 21 -4 79 -10 187 -21 118 -11 354 -4
487 15 121 18 140 21 228 42 47 11 92 22 100 24 8 2 56 17 105 35 50 17 95 32
100 34 6 2 21 8 35 13 14 6 45 19 70 29 45 18 237 115 298 150 32 19 32 19 75
-4 74 -42 210 -110 268 -136 51 -22 245 -91 287 -102 135 -33 236 -55 277 -60
28 -3 53 -8 56 -10 15 -9 188 -19 344 -19 156 0 262 6 340 20 17 3 46 8 65 11
110 19 118 21 223 48 101 27 334 111 352 127 5 5 17 9 27 9 10 0 18 5 18 10 0
6 6 10 13 10 16 0 110 49 199 103 38 23 77 47 86 52 180 106 496 394 637 581
16 21 33 44 37 49 60 75 168 239 168 255 0 6 3 10 8 10 4 0 12 10 18 23 6 12
38 76 71 142 56 110 112 235 117 260 1 6 7 24 13 40 6 17 15 39 19 50 9 24 8
20 23 75 7 25 17 50 22 56 5 6 7 13 4 16 -3 2 2 27 10 54 12 42 27 105 50 219
3 17 8 46 10 65 3 19 7 49 10 65 27 169 27 552 0 750 -2 17 -7 53 -10 80 -4
28 -8 57 -10 65 -13 53 -16 68 -21 95 -8 44 -25 118 -31 135 -3 8 -7 21 -9 28
-7 34 -90 274 -111 322 -83 185 -227 449 -274 499 -11 11 -19 24 -19 28 0 5
-11 22 -25 38 -13 17 -46 57 -72 90 -166 209 -424 445 -611 560 -9 6 -43 27
-75 48 -32 20 -65 37 -73 37 -8 0 -14 4 -14 9 0 5 -10 13 -22 17 -13 3 -30 13
-39 20 -9 8 -26 17 -39 19 -12 2 -27 8 -34 14 -25 20 -207 93 -316 126 -3 1
-12 4 -20 8 -38 15 -195 53 -255 62 -16 3 -43 7 -58 11 -160 35 -590 40 -747
9 -14 -3 -45 -8 -70 -11 -25 -3 -53 -7 -62 -10 -9 -3 -25 -6 -35 -8 -105 -21
-360 -98 -409 -124 -10 -5 -30 -14 -44 -20 -45 -18 -229 -111 -269 -136 l-38
-24 -69 40 c-172 100 -415 200 -609 251 -120 31 -148 37 -315 62 -76 11 -502
19 -512 9z m412 -728 c30 -3 64 -8 75 -10 11 -2 36 -6 55 -10 65 -11 75 -14
158 -37 l83 -23 -61 -55 c-79 -71 -434 -423 -480 -476 -41 -46 -182 -216 -222
-266 -61 -78 -258 -362 -258 -373 0 -2 -20 -37 -45 -78 -25 -42 -45 -80 -45
-86 0 -6 -3 -12 -8 -14 -10 -4 -142 -283 -142 -300 0 -8 -4 -18 -9 -24 -8 -7
-67 -164 -75 -199 -12 -45 -20 -72 -25 -80 -3 -5 -6 -12 -6 -15 -4 -25 -17
-103 -22 -126 -9 -40 -9 -308 1 -369 4 -27 14 -75 22 -105 8 -30 17 -64 19
-75 26 -113 142 -324 240 -433 135 -151 252 -234 445 -315 39 -17 137 -41 220
-56 65 -11 269 -10 276 1 3 5 10 6 15 3 11 -8 169 32 229 57 98 41 140 62 140
69 0 4 11 10 25 13 14 4 25 11 25 16 0 6 6 10 13 10 22 0 160 119 234 203 31
35 162 222 163 232 0 3 30 67 66 143 100 208 153 319 164 344 6 13 14 30 20
38 5 8 37 74 71 145 125 265 205 431 372 775 88 181 231 274 406 265 108 -6
198 -50 275 -135 45 -50 92 -146 105 -213 8 -47 7 -183 -3 -242 -17 -100 -84
-279 -153 -404 -46 -84 -135 -225 -145 -229 -5 -2 -8 -10 -8 -17 0 -7 -3 -15
-8 -17 -4 -1 -33 -38 -66 -81 -32 -43 -68 -89 -79 -102 -12 -13 -40 -45 -62
-72 -117 -140 -349 -371 -520 -519 -311 -268 -688 -510 -1010 -647 -80 -34
-239 -81 -305 -91 -19 -3 -46 -8 -60 -11 -42 -9 -200 -19 -295 -19 -89 0 -253
12 -264 18 -3 2 -31 7 -61 11 -30 4 -63 11 -72 16 -10 5 -18 8 -18 5 0 -3 -15
0 -32 5 -18 6 -37 11 -43 13 -138 36 -312 114 -458 204 -80 49 -218 151 -258
191 -9 9 -27 25 -40 37 -80 69 -233 253 -306 366 -68 106 -157 284 -193 388
-13 36 -27 70 -30 75 -4 6 -10 21 -12 35 -3 14 -17 70 -31 125 -14 55 -28 116
-31 135 -3 19 -8 46 -10 59 -27 129 -27 576 -1 654 2 7 6 28 9 47 24 168 106
412 201 595 98 192 204 335 364 496 91 90 267 239 284 239 3 0 32 17 64 38
127 83 388 193 513 217 14 3 36 7 50 10 89 18 144 26 205 32 39 3 71 6 72 7 5
4 244 -2 293 -8z m2645 -34 c143 -24 310 -70 420 -115 107 -44 323 -165 374
-209 11 -9 32 -25 48 -35 62 -41 249 -222 318 -308 22 -27 42 -52 45 -55 35
-33 164 -247 215 -355 20 -44 41 -88 46 -97 10 -20 38 -94 44 -118 2 -8 11
-32 19 -52 9 -21 14 -38 11 -38 -3 0 -1 -8 4 -18 6 -11 12 -30 15 -43 3 -13
14 -67 25 -119 48 -231 57 -476 26 -720 -5 -37 -44 -229 -60 -290 -6 -27 -56
-174 -65 -195 -167 -373 -322 -591 -573 -803 -230 -195 -538 -346 -808 -397
-13 -3 -37 -7 -52 -11 -15 -3 -47 -8 -70 -11 -67 -9 -427 -9 -482 0 -125 19
-175 30 -240 49 -65 20 -76 23 -90 27 -3 0 20 25 52 54 202 185 384 368 516
520 29 33 61 70 72 83 26 29 39 46 100 124 27 36 52 67 55 70 8 8 49 68 128
185 40 61 76 115 80 121 4 5 15 26 26 45 10 19 28 50 39 69 43 75 143 279 152
310 1 3 9 23 19 45 54 124 121 345 140 465 13 82 14 324 2 395 -49 282 -159
498 -353 689 -124 123 -320 235 -478 273 -118 28 -343 38 -425 19 -14 -3 -49
-11 -79 -17 -30 -6 -62 -15 -70 -19 -9 -5 -43 -19 -76 -31 -33 -13 -82 -36
-108 -51 -26 -15 -50 -28 -53 -28 -5 0 -66 -44 -91 -65 -6 -5 -30 -26 -54 -45
-53 -43 -102 -94 -137 -140 -15 -19 -29 -37 -33 -40 -21 -18 -74 -111 -107
-186 -22 -49 -75 -163 -120 -254 -44 -91 -105 -219 -137 -285 -32 -66 -89
-185 -128 -265 -38 -80 -94 -197 -124 -260 -97 -202 -222 -454 -235 -474 -46
-68 -143 -135 -220 -152 -5 -1 -9 -3 -10 -4 -3 -2 -41 -7 -93 -10 -85 -6 -204
43 -278 116 -49 48 -112 162 -123 224 -40 216 63 521 292 861 91 135 103 152
134 187 8 10 31 38 50 62 19 25 39 50 45 57 5 6 28 33 50 60 53 65 364 374
445 444 36 30 99 82 140 115 41 32 77 61 80 64 20 21 266 190 276 190 4 0 16
8 27 18 46 42 422 232 459 232 8 0 18 4 24 9 24 22 364 129 364 115 0 -3 6 -2
12 2 7 5 29 10 50 11 21 2 57 8 80 12 56 11 376 5 453 -7z"/>
</g>
</svg>
