<svg xmlns="http://www.w3.org/2000/svg" xmlns:xlink="http://www.w3.org/1999/xlink"><symbol id="ad" viewBox="0 0 512.65 469.33"><path d="M458.67,469.33H53.33A53.37,53.37,0,0,1,0,416V53.33A53.37,53.37,0,0,1,53.33,0H458.67A53.37,53.37,0,0,1,512,53.33V416A53.37,53.37,0,0,1,458.67,469.33ZM53.33,21.33a32,32,0,0,0-32,32h0V416a32,32,0,0,0,32,32H458.67a32,32,0,0,0,32-32V53.33a32,32,0,0,0-32-32Z" transform="translate(0.33)"/><path d="M501.33,106.67H10.67a10.67,10.67,0,0,1,0-21.34H501.33a10.67,10.67,0,1,1,0,21.34Z" transform="translate(0.33)"/><path d="M224,341.33a10.67,10.67,0,0,1-10.67-10.66V256a21.33,21.33,0,0,0-42.66,0h0v74.67a10.67,10.67,0,0,1-21.34,0V256a42.67,42.67,0,0,1,85.34,0v74.67A10.67,10.67,0,0,1,224,341.33Z" transform="translate(0.33)"/><path d="M224,298.67H160a10.67,10.67,0,1,1,0-21.34h64a10.67,10.67,0,0,1,0,21.34Z" transform="translate(0.33)"/><path d="M309.33,341.33H288a10.67,10.67,0,0,1-10.67-10.66V224A10.67,10.67,0,0,1,288,213.33h21.33a53.39,53.39,0,0,1,53.34,53.34V288A53.37,53.37,0,0,1,309.33,341.33ZM298.67,320h10.66a32,32,0,0,0,32-32V266.67a32,32,0,0,0-32-32H298.67Z" transform="translate(0.33)"/><path d="M501.33,404.83H10.67A10.67,10.67,0,0,1,10,383.5H501.33a10.67,10.67,0,1,1,.65,21.33Z" transform="translate(0.33)"/><path d="M21.33,416a32,32,0,0,0,32,32H458.67a32,32,0,0,0,32-32V404.83H21.33Z" transform="translate(0.33)" fill="red"/><path d="M458.67,21.33H53.33a32,32,0,0,0-32,32h0v32H490.67v-32a32,32,0,0,0-32-32Z" transform="translate(0.33)" fill="#68deff"/></symbol><symbol id="advertiser" viewBox="0 0 252.37 265.47"><g id="_2" data-name="2"><line x1="206.29" y1="150.13" x2="74.17" y2="150.13" fill="none" stroke="#0b344f" stroke-linecap="round" stroke-linejoin="round" stroke-width="3"/><rect x="148.96" y="84.5" width="12.51" height="9.52" fill="#0b344f"/><rect x="148.96" y="100.73" width="12.51" height="9.52" fill="#0b344f"/><rect x="168.88" y="84.5" width="9.51" height="9.52" fill="#0b344f"/><rect x="168.88" y="100.73" width="9.51" height="9.52" fill="#0b344f"/><rect x="185.8" y="100.73" width="12.51" height="9.52" fill="#0b344f"/><rect x="185.8" y="84.5" width="12.51" height="9.52" fill="#0b344f"/><path d="M65.72,165.35" transform="translate(0 0.04)" fill="none" stroke="#0b344f" stroke-linecap="round" stroke-linejoin="round" stroke-width="3"/><path d="M76.43,149.22" transform="translate(0 0.04)" fill="none" stroke="#0b344f" stroke-linecap="round" stroke-linejoin="round" stroke-width="3"/><rect x="145.47" y="72.32" width="56.34" height="76.94" stroke-width="4" stroke="#0b344f" stroke-linecap="round" stroke-linejoin="round" fill="none"/><rect x="89.13" y="51.88" width="56.34" height="97.38" stroke-width="4" stroke="#0b344f" stroke-linecap="round" stroke-linejoin="round" fill="none"/><path d="M165.29,123H182a5.37,5.37,0,0,1,5.37,5.37v20.84a0,0,0,0,1,0,0H159.92a0,0,0,0,1,0,0V128.41A5.37,5.37,0,0,1,165.29,123Z" fill="none" stroke="#0b344f" stroke-linecap="round" stroke-linejoin="round" stroke-width="4"/><rect x="124.06" y="61.96" width="9.51" height="9.52" fill="#0b344f"/><rect x="124.06" y="78.88" width="9.51" height="9.52" fill="#0b344f"/><rect x="124.06" y="95.81" width="9.51" height="9.52" fill="#0b344f"/><rect x="124.63" y="112.73" width="9.51" height="9.52" fill="#0b344f"/><rect x="107.71" y="112.73" width="9.51" height="9.52" fill="#0b344f"/><rect x="107.71" y="129.66" width="9.51" height="9.52" fill="#0b344f"/><rect x="124.63" y="129.66" width="9.51" height="9.52" fill="#0b344f"/><path d="M43.38,71.94c.49-12.94,7-24.47,20.31-31.63a37.61,37.61,0,0,1,50.05,14.4,38.35,38.35,0,0,1,5,23.26c-.8,8.78-3.45,17-7,25.07A172.49,172.49,0,0,1,96.59,130.1a214.61,214.61,0,0,1-13.39,18c-1.28,1.53-2.81,1.56-4.08,0a200.84,200.84,0,0,1-25-37.22,104.86,104.86,0,0,1-8.64-22.1A66.13,66.13,0,0,1,43.38,71.94Z" transform="translate(0 0.04)" fill="#ff0200" stroke="#0b344f" stroke-linecap="round" stroke-linejoin="round" stroke-width="4"/><path d="M80.86,92.59A16.5,16.5,0,1,1,97.64,76.4,16.46,16.46,0,0,1,80.86,92.59Z" transform="translate(0 0.04)" fill="#fff" stroke="#0b344f" stroke-linecap="round" stroke-linejoin="round" stroke-width="4"/><path d="M54.79,207.13A36.35,36.35,0,0,1,75,239.73v23.69H2.38l0-24.92,0,1.23a36.32,36.32,0,0,1,20.25-32.59" transform="translate(0 0.04)" fill="#0df" stroke="#0b344f" stroke-linecap="round" stroke-linejoin="round" stroke-width="4"/><polygon points="35.39 213.09 42.89 213.52 46.97 227.09 39.18 234.02 30.07 227.09 35.39 213.09" fill="#ff0200"/><circle cx="38.7" cy="188.25" r="24.84" fill="#fff" stroke="#0b344f" stroke-linecap="round" stroke-linejoin="round" stroke-width="4"/><path d="M13.87,188.21s20.38,1.9,30.27-7.76c0,0,10.09,8,19.41,7.76" transform="translate(0 0.04)" fill="none" stroke="#0b344f" stroke-linecap="round" stroke-linejoin="round" stroke-width="4"/><polyline points="38.7 235.32 29.22 227.54 33.96 212.64" fill="none" stroke="#0b344f" stroke-linecap="round" stroke-linejoin="round" stroke-width="4"/><polyline points="38.7 235.32 48.19 227.54 43.45 212.64" fill="none" stroke="#0b344f" stroke-linecap="round" stroke-linejoin="round" stroke-width="4"/><path d="M142.45,207.13a36.36,36.36,0,0,1,20.26,32.6v23.69H90l0-24.92,0,1.23a36.32,36.32,0,0,1,20.25-32.59" transform="translate(0 0.04)" fill="#0df" stroke="#0b344f" stroke-linecap="round" stroke-linejoin="round" stroke-width="4"/><polygon points="123.05 213.09 130.55 213.52 134.63 227.09 126.85 234.02 117.74 227.09 123.05 213.09" fill="#ff0200"/><circle cx="126.37" cy="188.25" r="24.84" fill="#fff" stroke="#0b344f" stroke-linecap="round" stroke-linejoin="round" stroke-width="4"/><path d="M101.53,188.21s20.38,1.9,30.27-7.76c0,0,10.1,8,19.41,7.76" transform="translate(0 0.04)" fill="none" stroke="#0b344f" stroke-linecap="round" stroke-linejoin="round" stroke-width="4"/><polyline points="126.37 235.32 116.89 227.54 121.63 212.64" fill="none" stroke="#0b344f" stroke-linecap="round" stroke-linejoin="round" stroke-width="4"/><polyline points="126.37 235.32 135.85 227.54 131.11 212.64" fill="none" stroke="#0b344f" stroke-linecap="round" stroke-linejoin="round" stroke-width="4"/><path d="M230.12,207.13a36.35,36.35,0,0,1,20.25,32.6v23.69H177.71l0-24.92,0,1.23A36.32,36.32,0,0,1,198,207.14" transform="translate(0 0.04)" fill="#0df" stroke="#0b344f" stroke-linecap="round" stroke-linejoin="round" stroke-width="4"/><polygon points="210.72 213.09 218.22 213.52 222.3 227.09 214.51 234.02 205.4 227.09 210.72 213.09" fill="#ff0200"/><circle cx="214.04" cy="188.25" r="24.84" fill="#fff" stroke="#0b344f" stroke-linecap="round" stroke-linejoin="round" stroke-width="4"/><path d="M189.2,188.21s20.38,1.9,30.27-7.76c0,0,10.09,8,19.41,7.76" transform="translate(0 0.04)" fill="none" stroke="#0b344f" stroke-linecap="round" stroke-linejoin="round" stroke-width="4"/><polyline points="214.04 235.32 204.55 227.54 209.29 212.64" fill="none" stroke="#0b344f" stroke-linecap="round" stroke-linejoin="round" stroke-width="4"/><polyline points="214.04 235.32 223.52 227.54 218.78 212.64" fill="none" stroke="#0b344f" stroke-linecap="round" stroke-linejoin="round" stroke-width="4"/><path d="M2,126.14c0-1.5,0-3,.08-4.5" transform="translate(0 0.04)" fill="none" stroke="#0b344f" stroke-miterlimit="10" stroke-width="4"/><path d="M2.71,112.8a124.2,124.2,0,0,1,247.35,4.42" transform="translate(0 0.04)" fill="none" stroke="#0b344f" stroke-miterlimit="10" stroke-width="4" stroke-dasharray="8.86 8.86"/><path d="M250.29,121.64c.06,1.5.08,3,.08,4.5" transform="translate(0 0.04)" fill="none" stroke="#0b344f" stroke-miterlimit="10" stroke-width="4"/></g></symbol><symbol id="arroba" viewBox="0 0 512 512">
<g>
	<g>
		<path d="M257,210c-24.814,0-45,20.186-45,45c0,24.814,20.186,45,45,45c24.814,0,45-20.186,45-45C302,230.186,281.814,210,257,210z
			"/>
	</g>
</g>
<g>
	<g>
		<path d="M255,0C114.39,0,0,114.39,0,255s114.39,257,255,257s257-116.39,257-257S395.61,0,255,0z M362,330
			c-20.273,0-38.152-10.161-49.017-25.596C299.23,319.971,279.354,330,257,330c-41.353,0-75-33.647-75-75c0-41.353,33.647-75,75-75
			c16.948,0,32.426,5.865,45,15.383V195c0-8.291,6.709-15,15-15c8.291,0,15,6.709,15,15c0,33.36,0,41.625,0,75
			c0,16.538,13.462,30,30,30c16.538,0,30-13.462,30-30c0-100.391-66.432-150-135-150c-74.443,0-135,60.557-135,135
			s60.557,135,135,135c30,0,58.374-9.609,82.061-27.803c15.822-12.078,33.94,11.765,18.281,23.789
			C328.353,408.237,293.665,420,257,420c-90.981,0-165-74.019-165-165S166.019,90,257,90c82.897,0,165,61.135,165,180
			C422,303.091,395.091,330,362,330z"/>
	</g>
</g>
<g>
</g>
<g>
</g>
<g>
</g>
<g>
</g>
<g>
</g>
<g>
</g>
<g>
</g>
<g>
</g>
<g>
</g>
<g>
</g>
<g>
</g>
<g>
</g>
<g>
</g>
<g>
</g>
<g>
</g>
</symbol><symbol id="circulation" viewBox="0 0 629.7 547.3"><circle cx="316.3" cy="135" r="125" fill="red" stroke="#23374e" stroke-miterlimit="10" stroke-width="20"/><circle cx="494.7" cy="412.3" r="125" fill="none" stroke="#23374e" stroke-miterlimit="10" stroke-width="20"/><circle cx="135" cy="412.3" r="125" fill="#6edeff" stroke="#23374e" stroke-miterlimit="10" stroke-width="20"/><path d="M316.3,241.7c-6.4,0-10.7-4.3-10.7-10.7V199c0-6.4,4.3-10.7,10.7-10.7S327,192.6,327,199v32C327,237.4,322.7,241.7,316.3,241.7Z" fill="#23374e"/><path d="M316.3,81.7c-6.4,0-10.7-4.3-10.7-10.7V39c0-6.4,4.3-10.7,10.7-10.7S327,32.6,327,39V71C327,77.4,322.7,81.7,316.3,81.7Z" fill="#23374e"/><path d="M135,519c-6.4,0-10.7-4.3-10.7-10.7v-32c0-6.4,4.3-10.7,10.7-10.7s10.7,4.3,10.7,10.7v32C145.7,514.7,141.4,519,135,519Z" fill="#23374e"/><path d="M135,359c-6.4,0-10.7-4.3-10.7-10.7v-32c0-6.4,4.3-10.7,10.7-10.7s10.7,4.3,10.7,10.7v32C145.7,354.7,141.4,359,135,359Z" fill="#23374e"/><path d="M497.7,519c-6.4,0-10.7-4.3-10.7-10.7v-32c0-6.4,4.3-10.7,10.7-10.7s10.7,4.3,10.7,10.7v32C508.3,514.7,504.1,519,497.7,519Z" fill="#23374e"/><path d="M497.7,359c-6.4,0-10.7-4.3-10.7-10.7v-32c0-6.4,4.3-10.7,10.7-10.7s10.7,4.3,10.7,10.7v32C508.3,354.7,504.1,359,497.7,359Z" fill="#23374e"/><path d="M199.9,94.9c-59.4,39.7-96.9,106-96.9,178.8,0,3.9,1.6,17.1,4.3,8.9,0,0,3.8,1.8,6.3,1.8,11.2,3.9,10.7-4.3,10.7-10.7A190.7,190.7,0,0,1,191,128.3C192.5,116.6,194.9,105.2,199.9,94.9Z" fill="#23374e"/><path d="M437.6,97.3c.1.3.3.6.4.9a101.68,101.68,0,0,1,5.3,30.4v.2a193,193,0,0,1,65,144.8c0,6.4,4.3,10.7,10.7,10.7,12,8.9,10.7-4.3,10.7-10.7C529.7,202.4,493.6,137.3,437.6,97.3Z" fill="#23374e"/><path d="M378.8,456a195.64,195.64,0,0,1-126.9-.7c0,7.2,0,17.1-.1,22.2a216.68,216.68,0,0,0,64.5,9.5,224.67,224.67,0,0,0,62.5-8.8C378.7,471.9,378.7,462.1,378.8,456Z" fill="#23374e"/><path d="M327,209.7H273.7c-6.4,0-10.7-4.3-10.7-10.7s4.3-10.7,10.7-10.7H327c12.8,0,21.3-8.5,21.3-21.3s-8.5-21.3-21.3-21.3H305.7a42.65,42.65,0,0,1,0-85.3H359c6.4,0,10.7,4.3,10.7,10.7S365.4,81.8,359,81.8H305.7c-12.8,0-21.3,8.5-21.3,21.3s8.5,21.3,21.3,21.3H327a42.65,42.65,0,0,1,0,85.3Z" fill="#23374e"/><path d="M145.7,487H92.3c-6.4,0-10.7-4.3-10.7-10.7s4.3-10.7,10.7-10.7h53.3c12.8,0,21.3-8.5,21.3-21.3S158.4,423,145.6,423H124.3a42.65,42.65,0,1,1-1.3-85.3h54.6c6.4,0,10.7,4.3,10.7,10.7s-4.3,10.7-10.7,10.7H124.3c-12.8,0-21.3,8.5-21.3,21.3s8.5,21.3,21.3,21.3h21.3a42.65,42.65,0,0,1,1.3,85.3Z" fill="#23374e"/><path d="M508.3,487H455c-6.4,0-10.7-4.3-10.7-10.7s4.3-10.7,10.7-10.7h53.3c12.8,0,21.3-8.5,21.3-21.3S521.1,423,508.3,423H487a42.65,42.65,0,1,1-1.3-85.3h54.6c6.4,0,10.7,4.3,10.7,10.7s-4.3,10.7-10.7,10.7H487c-12.8,0-21.3,8.5-21.3,21.3s8.5,21.3,21.3,21.3h21.3a42.65,42.65,0,0,1,1.3,85.3Z" fill="#23374e"/></symbol><symbol id="click" viewBox="0 0 511.92 512"><rect x="16" y="17" width="356" height="334" fill="#6edeff"/><path d="M181.3,362.7H32a32,32,0,0,1-32-32V32A32,32,0,0,1,32,0H352a32,32,0,0,1,32,32V224a10.66,10.66,0,0,1-21.3.7V32A10.71,10.71,0,0,0,352,21.3H32A10.71,10.71,0,0,0,21.3,32V330.7A10.71,10.71,0,0,0,32,341.4H181.3a10.65,10.65,0,1,1,0,21.3Z" fill="#23374e"/><path d="M160,234.7A10.71,10.71,0,0,1,149.3,224V149.3a21.3,21.3,0,0,0-42.6,0V224a10.7,10.7,0,0,1-21.4,0V149.3a42.7,42.7,0,1,1,85.4,0V224A10.71,10.71,0,0,1,160,234.7Z" fill="#23374e"/><path d="M160,192H96a10.66,10.66,0,0,1-.7-21.3H160a10.66,10.66,0,1,1,.7,21.3Z" fill="#23374e"/><path d="M245.3,234.7H224A10.71,10.71,0,0,1,213.3,224V117.3A10.71,10.71,0,0,1,224,106.6h21.3a53.35,53.35,0,0,1,53.3,53.3v21.3A53.39,53.39,0,0,1,245.3,234.7Zm-10.6-21.4h10.7a32,32,0,0,0,32-32h0V160a32,32,0,0,0-32-32H234.7Z" fill="#23374e"/><path d="M385.8,370.5a10.6,10.6,0,0,1-7.5-3.1L333,322.1a10.68,10.68,0,1,0-15.1,15.1h0a10.68,10.68,0,1,1-14.7,15.5l-.4-.4a32,32,0,0,1,44.7-45.9l.7.7,45.3,45.3a10.5,10.5,0,0,1,0,15,11.25,11.25,0,0,1-7.7,3.1Z" fill="#23374e"/><path d="M416,340.3a10.6,10.6,0,0,1-7.5-3.1L378.3,307a10.68,10.68,0,0,0-15.1,15.1h0a10.68,10.68,0,0,1-15.1,15.1A32,32,0,0,1,393.4,292l30.2,30.2a10.62,10.62,0,0,1,0,15.1,10.91,10.91,0,0,1-7.6,3Z" fill="#23374e"/><path d="M389.8,512a92.91,92.91,0,0,1-23.5-3l-74.4-19a10.71,10.71,0,0,1-6.6-5c-5.1-8.7-10.3-29.5,6.2-46.1,7.3-7.3,17.2-10.2,26.9-10.8l-91-91A32,32,0,0,1,272.7,292l90.5,90.5a10.68,10.68,0,0,1-15.1,15.1h0l-90.5-90.5a10.68,10.68,0,1,0-15.1,15.1L355.6,435.3a10.62,10.62,0,0,1,0,15.1,11,11,0,0,1-10.9,2.6c-9.1-3-30.4-6.6-38.1,1.2a16.29,16.29,0,0,0-4.4,16.6l69.3,17.7a75,75,0,0,0,71.2-19.6l26-26a74.6,74.6,0,0,0,0-105.6h0L423.4,292a10.81,10.81,0,0,0-15.1,0,10.59,10.59,0,0,0-.1,15l.1.1a10.68,10.68,0,0,1-15.1,15.1,32,32,0,0,1,45.3-45.3l45.3,45.3a96,96,0,0,1,0,135.8h0l-26,26A96.52,96.52,0,0,1,389.8,512Z" fill="#23374e"/><path d="M416,340.3Z" fill="none" stroke="#000" stroke-miterlimit="10"/><path d="M468.8,442.8l-26,26a75,75,0,0,1-71.2,19.6l-69.3-17.7a16.12,16.12,0,0,1,4.4-16.5c7.8-7.8,29-4.2,38.1-1.2a10.7,10.7,0,0,0,13.5-6.7,10.5,10.5,0,0,0-2.6-10.9L242.5,322.1A10.68,10.68,0,0,1,257.6,307l90.5,90.5a10.68,10.68,0,0,0,15.1-15.1h0l-45.3-45.3a10.72,10.72,0,0,1,.7-15.1,10.6,10.6,0,0,1,14.3,0l45.3,45.2a10.6,10.6,0,0,0,7.5,3.1h0a10.63,10.63,0,0,0,10.7-10.6,10.83,10.83,0,0,0-3.1-7.6l-30-30-.2-.2a10.68,10.68,0,0,1,15.1-15.1h0L408.4,337a10.68,10.68,0,0,0,15.1-15.1L409,307.6c-.2-.2-.4-.5-.6-.7a10.68,10.68,0,0,1,15.1-15.1l45.3,45.3a74.72,74.72,0,0,1,0,105.7Z" fill="#fff"/></symbol><symbol id="clock" viewBox="0 0 443.294 443.294"><path d="m221.647 0c-122.214 0-221.647 99.433-221.647 221.647s99.433 221.647 221.647 221.647 221.647-99.433 221.647-221.647-99.433-221.647-221.647-221.647zm0 415.588c-106.941 0-193.941-87-193.941-193.941s87-193.941 193.941-193.941 193.941 87 193.941 193.941-87 193.941-193.941 193.941z"/><path d="m235.5 83.118h-27.706v144.265l87.176 87.176 19.589-19.589-79.059-79.059z"/></symbol><symbol id="credit-cards" viewBox="0 0 480.46 480.01"><rect x="16" y="264.01" width="408" height="48" fill="red"/><polygon points="130.4 167.81 183.9 141.11 194.9 168.61 141.4 195.31 130.4 167.81" fill="#6edeff" stroke="#000" stroke-miterlimit="10"/><path d="M126.1,200H84l-9.5-25.2A35,35,0,0,1,94,130L362.2,18.8a35.17,35.17,0,0,1,45.9,19,6.89,6.89,0,0,0,.3.8l53.7,139.6a35.31,35.31,0,0,1-19.6,45.2l-8.4,3.4A50.16,50.16,0,0,0,389.9,200H167.8l40.8-20.4a8.1,8.1,0,0,0,3.9-10.1l-17-42.4a8,8,0,0,0-10.4-4.5l-.6.3-67.8,33.9a8,8,0,0,0-3.8,10.1L126.1,200" transform="translate(0 0.01)" fill="#6edeff" stroke="#000" stroke-miterlimit="10"/><path d="M477.1,172.4,423.5,32.8A51.32,51.32,0,0,0,357.3,3.4l-1.1.5L87.9,115.1a51,51,0,0,0-28.3,65.2L67,200H50A50,50,0,0,0,0,250V430a50,50,0,0,0,50,50H390a50,50,0,0,0,50-50V250a55.36,55.36,0,0,0-.7-8.1l9.3-3.8A51.31,51.31,0,0,0,477.1,172.4ZM50,216H390a33.88,33.88,0,0,1,33.8,32H16.2A33.88,33.88,0,0,1,50,216Zm80.4-48.2L183.9,141l11,27.5-53.5,26.7ZM424,430a34,34,0,0,1-34,34H50a34,34,0,0,1-34-34V328H424Zm0-118H16V264H424ZM126,200H84l-9.5-25.2A35,35,0,0,1,94,130L362.2,18.8a35.17,35.17,0,0,1,45.9,19,6.89,6.89,0,0,0,.3.8l53.7,139.6a35.31,35.31,0,0,1-19.6,45.2l-8.4,3.4A50.16,50.16,0,0,0,389.9,200H167.8l40.8-20.4a8.1,8.1,0,0,0,3.9-10.1l-17-42.4a8,8,0,0,0-10.4-4.5l-.6.3-67.8,33.9a8,8,0,0,0-3.8,10.1L126,200" transform="translate(0 0.01)" fill="#23374e"/><path d="M287.8,441.5a47.77,47.77,0,0,0,48.2,0,48,48,0,1,0,0-83,48,48,0,0,0-48.2,83ZM349.4,370a32,32,0,1,1-.1,60.1A47.85,47.85,0,0,0,349.4,370ZM336,379.1a31.36,31.36,0,0,1,0,41.9A31.36,31.36,0,0,1,336,379.1ZM312,368a29.75,29.75,0,0,1,10.6,2,47.72,47.72,0,0,0,0,60.1,32,32,0,1,1-21.3-60.3A32.49,32.49,0,0,1,312,368Z" transform="translate(0 0.01)" fill="#23374e"/><rect x="337.12" y="147.4" width="83.5" height="16" transform="translate(-30.46 167.34) rotate(-23.97)" fill="#23374e"/><rect x="284.29" y="122" width="121.4" height="16" transform="translate(-22.72 156.57) rotate(-24.78)" fill="#23374e"/></symbol><symbol id="deny" viewBox="0 0 60 60"><g id="Page-1"><g id="_009---No-Chat" data-name=" 009---No-Chat"><path id="Shape" d="M11.3,46.11h0a1,1,0,0,0,.71-.29l3.73-3.73a1,1,0,1,0-1.42-1.42h0L11.44,43.6A23,23,0,0,1,43.6,11.45l-3.94,3.93a1,1,0,0,0,1.45,1.45l4.74-4.74a1,1,0,0,0,0-1.41l-.07-.07a25,25,0,0,0-35.2,35.13A1,1,0,0,0,11.3,46.11Z" transform="translate(-0.02 0.01)"/><path id="Shape-2" d="M44.3,19.24a1,1,0,0,0,1.41,0l2.85-2.84A23,23,0,0,1,16.4,48.55l4-3.95A1,1,0,1,0,19,43.19L14.18,48a1,1,0,0,0,.08,1.48A25,25,0,0,0,49.43,14.26,1,1,0,0,0,48,14.1l-.08.08L44.3,17.82a1,1,0,0,0,0,1.41Z" transform="translate(-0.02 0.01)"/><path id="Shape-3" d="M7.67,50A30,30,0,1,0,10,7.64c-.42.37-.83.75-1.22,1.15A30,30,0,0,0,7.67,50ZM10.2,10.2a28,28,0,0,1,39.6,0h0a28,28,0,1,1-39.61,0Z" transform="translate(-0.02 0.01)"/><path id="Shape-4" d="M44.19,36V24a5,5,0,0,0-5-5H21a5,5,0,0,0-5,5V36a5,5,0,0,0,5,5H32.55l3.84,4.32a2,2,0,0,0,3.49-1.52L39.59,41A5,5,0,0,0,44.19,36Zm-2,0a3,3,0,0,1-3,3h-.7a1,1,0,0,0-.75.33,1,1,0,0,0-.25.77l.39,3.9-4.14-4.66A1,1,0,0,0,33,39H21a3,3,0,0,1-3-3V24a3,3,0,0,1,3-3H39.19a3,3,0,0,1,3,3Z" transform="translate(-0.02 0.01)"/><path id="Shape-5" d="M22,26h3a1,1,0,0,0,0-2H22a1,1,0,0,0,0,2Z" transform="translate(-0.02 0.01)"/><path id="Shape-6" d="M38,24H29a1,1,0,0,0,0,2h9a1,1,0,0,0,0-2Z" transform="translate(-0.02 0.01)"/><path id="Shape-7" d="M38,29H35a1,1,0,0,0,0,2h3a1,1,0,0,0,0-2Z" transform="translate(-0.02 0.01)"/><path id="Shape-8" d="M22,31h9a1,1,0,0,0,0-2H22a1,1,0,0,0,0,2Z" transform="translate(-0.02 0.01)"/><path id="Shape-9" d="M25,34H22a1,1,0,0,0,0,2h3a1,1,0,0,0,0-2Z" transform="translate(-0.02 0.01)"/><path id="Shape-10" d="M38,34H29a1,1,0,0,0,0,2h9a1,1,0,0,0,0-2Z" transform="translate(-0.02 0.01)"/></g></g><path d="M10.2,10.21a28,28,0,0,1,39.6,0h0a28,28,0,1,1-39.61,0Zm10.14,33a1,1,0,0,0-1.4,0L14.18,48a1,1,0,0,0,0,1.41l.08.08A25,25,0,0,0,49.43,14.27,1,1,0,0,0,48,14.11l-.08.08L44.3,17.83a1,1,0,0,0,0,1.41l-4.19-2.17a1,1,0,0,0,1-.26l4.74-4.74a1,1,0,0,0,.29-.76,1,1,0,0,0-.37-.73,25,25,0,0,0-35.2,35.17,1,1,0,0,0,.73.37h0a1,1,0,0,0,.71-.3l3.73-3.73a1,1,0,0,0,0-1.4Z" transform="translate(-0.02 0.01)" fill="red"/></symbol><symbol id="edulid" viewBox="0 0 271.54 319.15"><g id="_1" data-name="1"><path d="M164.21,169.72a36.34,36.34,0,0,1,20.26,32.59V226H111.8l0-24.92,0,1.22a36.34,36.34,0,0,1,20.25-32.59" transform="translate(0 0)" fill="#0df" stroke="#0b344f" stroke-linecap="round" stroke-linejoin="round" stroke-width="4"/><circle cx="148.13" cy="150.8" r="24.84" fill="#fff" stroke="#0b344f" stroke-linecap="round" stroke-linejoin="round" stroke-width="4"/><path d="M136.16,169.72a36.34,36.34,0,0,1,20.26,32.59V226H83.75l0-24.92,0,1.22A36.34,36.34,0,0,1,104,169.72" transform="translate(0 0)" fill="#0df" stroke="#0b344f" stroke-linecap="round" stroke-linejoin="round" stroke-width="4"/><circle cx="120.08" cy="150.8" r="24.84" fill="#fff" stroke="#0b344f" stroke-linecap="round" stroke-linejoin="round" stroke-width="4"/><line x1="187.76" y1="42.85" x2="176.83" y2="38.65" fill="none" stroke="#0b344f" stroke-linecap="round" stroke-linejoin="round" stroke-width="4"/><line x1="173.84" y1="55.51" x2="185.24" y2="54.9" fill="none" stroke="#0b344f" stroke-linecap="round" stroke-linejoin="round" stroke-width="4"/><path d="M224.54,68.68c6.15-8.05,8-27.14,8-27.14l-18-18.75,1.32,8-.85,10L210.52,57l-8.1,13.48L201.1,73Z" transform="translate(0 0)" fill="#ff0200"/><ellipse cx="202.94" cy="46.6" rx="28.2" ry="10.56" transform="translate(102.64 229.07) rotate(-74.13)" stroke-width="4" stroke="#0b344f" stroke-linecap="round" stroke-linejoin="round" fill="none"/><path d="M213.23,21.41l19.28,20.13s40,12.66,36.86,23.63-44.83,3.51-44.83,3.51l-26.7,5" transform="translate(0 0)" fill="none" stroke="#0b344f" stroke-linecap="round" stroke-linejoin="round" stroke-width="4"/><path d="M234.83,70.14c6.22-10.53,7.18-25.2,7.18-25.2" transform="translate(0 0)" fill="none" stroke="#0b344f" stroke-linecap="round" stroke-linejoin="round" stroke-width="4"/><path d="M254.26,71.09s-3.3,32.76-14.85,29.47,4-29.65,4-29.65" transform="translate(0 0)" fill="none" stroke="#0b344f" stroke-linecap="round" stroke-linejoin="round" stroke-width="4"/><line x1="181.95" y1="23.21" x2="191.15" y2="31.58" fill="none" stroke="#0b344f" stroke-linecap="round" stroke-linejoin="round" stroke-width="4"/><path d="M232.51,41.54s-2,18.78-8,27.14" transform="translate(0 0)" fill="none" stroke="#0b344f" stroke-linecap="round" stroke-linejoin="round" stroke-width="3"/><rect x="9.47" y="15.52" width="68.39" height="95.32" transform="translate(-9.92 8.16) rotate(-9.59)" stroke-width="4" stroke="#0b344f" stroke-linecap="round" stroke-linejoin="round" fill="none"/><line x1="98.59" y1="102.24" x2="4.6" y2="118.12" fill="none" stroke="#0b344f" stroke-linecap="round" stroke-linejoin="round" stroke-width="4"/><line x1="65.99" y1="82.33" x2="28.85" y2="88.61" fill="none" stroke="#0b344f" stroke-linecap="round" stroke-linejoin="round" stroke-width="4"/><line x1="37.64" y1="71.91" x2="29.46" y2="73.29" fill="none" stroke="#0b344f" stroke-linecap="round" stroke-linejoin="round" stroke-width="4"/><line x1="34.95" y1="57.15" x2="26.76" y2="58.53" fill="none" stroke="#0b344f" stroke-linecap="round" stroke-linejoin="round" stroke-width="4"/><line x1="32.45" y1="42.36" x2="24.27" y2="43.74" fill="none" stroke="#0b344f" stroke-linecap="round" stroke-linejoin="round" stroke-width="4"/><line x1="29.75" y1="27.6" x2="21.57" y2="28.99" fill="none" stroke="#0b344f" stroke-linecap="round" stroke-linejoin="round" stroke-width="4"/><line x1="60.78" y1="68" x2="52.59" y2="69.38" fill="none" stroke="#0b344f" stroke-linecap="round" stroke-linejoin="round" stroke-width="4"/><line x1="58.08" y1="53.24" x2="49.9" y2="54.62" fill="none" stroke="#0b344f" stroke-linecap="round" stroke-linejoin="round" stroke-width="4"/><line x1="55.58" y1="38.45" x2="47.4" y2="39.83" fill="none" stroke="#0b344f" stroke-linecap="round" stroke-linejoin="round" stroke-width="4"/><line x1="52.89" y1="23.69" x2="44.71" y2="25.08" fill="none" stroke="#0b344f" stroke-linecap="round" stroke-linejoin="round" stroke-width="4"/><rect x="36.98" y="85.29" width="25.06" height="25.06" fill="#0b344f" stroke="#0b344f" stroke-linecap="round" stroke-linejoin="round" transform="translate(-15.61 9.62) rotate(-9.59)"/><rect x="40.76" y="89.07" width="17.5" height="17.5" transform="translate(-15.61 9.62) rotate(-9.59)" fill="#ff0200"/><rect x="6.08" y="4.28" width="28.64" height="14.39" transform="translate(-1.63 3.56) rotate(-9.59)" stroke-width="4" stroke="#0b344f" stroke-linecap="round" stroke-linejoin="round" fill="#0df"/><path d="M82.52,304.55V256h29.53v8.21H90.53V275h20v8.18h-20v13.18h22.25v8.21Z" transform="translate(0 0)" fill="none" stroke="#0b344f" stroke-linecap="round" stroke-linejoin="round" stroke-width="4"/><path d="M146,304.55h-7.08v-5.17a12.92,12.92,0,0,1-4.14,4.49,9.09,9.09,0,0,1-4.9,1.5q-4.83,0-8.43-4.82t-3.59-13.78c0-6,1.17-10.55,3.5-13.62a10.53,10.53,0,0,1,8.63-4.59,8.85,8.85,0,0,1,4.51,1.22,12.69,12.69,0,0,1,3.85,3.68V256H146ZM125.62,286.2a23.33,23.33,0,0,0,.81,7.13,7.44,7.44,0,0,0,2.31,3.52,5.39,5.39,0,0,0,3.39,1.17c1.67,0,3.13-.9,4.36-2.72s1.85-4.55,1.85-8.2q0-6.08-1.8-8.75a5.21,5.21,0,0,0-9.07-.05Q125.63,280.93,125.62,286.2Z" transform="translate(0 0)" fill="none" stroke="#0b344f" stroke-linecap="round" stroke-linejoin="round" stroke-width="4"/><path d="M172.4,304.55v-5.26a12,12,0,0,1-4.16,4.47,10,10,0,0,1-5.39,1.61,9,9,0,0,1-5.09-1.49,8.87,8.87,0,0,1-3.35-4.24,22.22,22.22,0,0,1-1.11-8V269.39H161v16.15a63.32,63.32,0,0,0,.35,8.79,4.84,4.84,0,0,0,1.53,2.9,4.26,4.26,0,0,0,2.87,1,5.41,5.41,0,0,0,3.53-1.34,6.31,6.31,0,0,0,2.13-3.45,50.6,50.6,0,0,0,.51-9.25V269.39h7.65v35.16Z" transform="translate(0 0)" fill="none" stroke="#0b344f" stroke-linecap="round" stroke-linejoin="round" stroke-width="4"/><path d="M187.47,304.55V256h7.65v48.54Z" transform="translate(0 0)" fill="none" stroke="#0b344f" stroke-linecap="round" stroke-linejoin="round" stroke-width="4"/><path d="M202.93,264.62V256h7.65v8.61Zm0,39.93V269.39h7.65v35.16Z" transform="translate(0 0)" fill="none" stroke="#0b344f" stroke-linecap="round" stroke-linejoin="round" stroke-width="4"/><path d="M244.81,304.55h-7.09v-5.17a12.9,12.9,0,0,1-4.13,4.49,9.11,9.11,0,0,1-4.9,1.5c-3.23,0-6-1.6-8.43-4.82s-3.59-7.81-3.59-13.78,1.17-10.55,3.5-13.62a10.51,10.51,0,0,1,8.63-4.59,8.85,8.85,0,0,1,4.51,1.22,12.8,12.8,0,0,1,3.85,3.68V256h7.65ZM224.48,286.2a23.33,23.33,0,0,0,.81,7.13,7.44,7.44,0,0,0,2.31,3.52A5.37,5.37,0,0,0,231,298c1.67,0,3.12-.9,4.36-2.72s1.85-4.55,1.85-8.2q0-6.08-1.8-8.75a5.21,5.21,0,0,0-9.07-.05Q224.49,280.93,224.48,286.2Z" transform="translate(0 0)" fill="none" stroke="#0b344f" stroke-linecap="round" stroke-linejoin="round" stroke-width="4"/><path d="M72.65,317.15l-13-11.95h-57V269a13,13,0,0,1,13-12.94H72.65v61.14Z" transform="translate(0 0)" fill="none" stroke="#0b344f" stroke-linecap="round" stroke-linejoin="round" stroke-width="4"/><path d="M2.56,305.2S32.86,256,36.37,256c0,0-11.15,30.19-4.51,31.69s21.84-12.45,27.55-11.15c3,.69,13.24,8.9,13.24,8.9" transform="translate(0 0)" fill="none" stroke="#0b344f" stroke-linecap="round" stroke-linejoin="round" stroke-width="4"/></g></symbol><symbol id="email" viewBox="0 0 512 390"><rect x="21" y="20" width="468" height="348" fill="#68deff"/><path d="M467,0H45A45.08,45.08,0,0,0,0,45V345a45.07,45.07,0,0,0,45,45H467a45.07,45.07,0,0,0,45-45V45A45.07,45.07,0,0,0,467,0Zm-6.21,30L257,233.83,51.36,30ZM30,338.79V51.07L174.48,194.31ZM51.21,360,195.78,215.43l50.66,50.22a15,15,0,0,0,21.17,0L317,216.21,460.79,360ZM482,338.79,338.21,195,482,51.21Z"/></symbol><symbol id="facebook" viewBox="0 0 97.75 97.75">
<g>
	<path d="M48.875,0C21.882,0,0,21.882,0,48.875S21.882,97.75,48.875,97.75S97.75,75.868,97.75,48.875S75.868,0,48.875,0z
		 M67.521,24.89l-6.76,0.003c-5.301,0-6.326,2.519-6.326,6.215v8.15h12.641L67.07,52.023H54.436v32.758H41.251V52.023H30.229V39.258
		h11.022v-9.414c0-10.925,6.675-16.875,16.42-16.875l9.851,0.015V24.89L67.521,24.89z"/>
</g>
<g>
</g>
<g>
</g>
<g>
</g>
<g>
</g>
<g>
</g>
<g>
</g>
<g>
</g>
<g>
</g>
<g>
</g>
<g>
</g>
<g>
</g>
<g>
</g>
<g>
</g>
<g>
</g>
<g>
</g>
</symbol><symbol id="high" viewBox="0 0 24 24"><path d="m7.5 24h-5c-.276 0-.5-.224-.5-.5v-5c0-.276.224-.5.5-.5h5c.276 0 .5.224.5.5v5c0 .276-.224.5-.5.5zm-4.5-1h4v-4h-4z"/><path d="m15.5 24h-5c-.133 0-.261-.053-.354-.147s-.147-.223-.146-.356l.06-10c.002-.275.225-.497.5-.497h4.94c.276 0 .5.224.5.5v10c0 .276-.224.5-.5.5zm-4.497-1h3.997v-9h-3.943z"/><path d="m23.5 24h-5c-.276 0-.5-.224-.5-.5v-15c0-.276.224-.5.5-.5h5c.276 0 .5.224.5.5v15c0 .276-.224.5-.5.5zm-4.5-1h4v-14h-4z"/><path d="m7.258 11.838c-.128 0-.256-.049-.354-.146l-3.596-3.597c-.188-.188-.196-.491-.018-.688l2.946-3.271c2.093-2.417 5.413-4.083 8.255-4.136.123-.016.267.051.363.146.096.097.148.228.146.363-.053 2.842-1.719 6.162-4.144 8.261l-3.264 2.94c-.094.086-.214.128-.334.128zm-2.907-4.114 2.926 2.926 2.918-2.629c2.076-1.797 3.542-4.542 3.774-6.99-2.448.232-5.192 1.698-6.983 3.767z"/><path d="m8.604 14.21c-.045 0-.091-.006-.136-.019-.174-.05-.308-.188-.351-.365l-.707-2.95c-.064-.268.102-.538.37-.603.272-.063.539.102.603.37l.469 1.959c.869-1.359 1.042-3.098 1.06-4.115.005-.276.23-.492.509-.491.276.004.496.233.491.508-.042 2.366-.736 4.34-1.955 5.559-.095.095-.223.147-.353.147z"/><path d="m4.241 7.603c-.039 0-.078-.004-.117-.014l-2.95-.707c-.176-.042-.316-.175-.365-.35-.049-.174 0-.361.127-.489 1.219-1.219 3.193-1.913 5.56-1.955.265-.025.504.215.508.491s-.214.504-.491.509c-1.018.018-2.756.191-4.115 1.06l1.959.469c.268.064.434.334.37.603-.056.229-.26.383-.486.383z"/><path d="m.5 15c-.131 0-.258-.052-.354-.146-.13-.13-.178-.321-.125-.497.165-.552 1.023-3.338 1.695-4.01.809-.81 2.126-.811 2.938 0 .81.81.81 2.128 0 2.938-.671.672-3.458 1.529-4.01 1.694-.048.014-.096.021-.144.021zm2.685-4.261c-.276 0-.552.105-.762.315-.284.284-.772 1.536-1.154 2.677 1.141-.382 2.394-.87 2.677-1.153.42-.42.42-1.104 0-1.523-.21-.211-.486-.316-.761-.316z"/></symbol><symbol id="instagram" viewBox="0 0 512 512"><path d="m305 256c0 27.0625-21.9375 49-49 49s-49-21.9375-49-49 21.9375-49 49-49 49 21.9375 49 49zm0 0"/><path d="m370.59375 169.304688c-2.355469-6.382813-6.113281-12.160157-10.996094-16.902344-4.742187-4.882813-10.515625-8.640625-16.902344-10.996094-5.179687-2.011719-12.960937-4.40625-27.292968-5.058594-15.503906-.707031-20.152344-.859375-59.402344-.859375-39.253906 0-43.902344.148438-59.402344.855469-14.332031.65625-22.117187 3.050781-27.292968 5.0625-6.386719 2.355469-12.164063 6.113281-16.902344 10.996094-4.882813 4.742187-8.640625 10.515625-11 16.902344-2.011719 5.179687-4.40625 12.964843-5.058594 27.296874-.707031 15.5-.859375 20.148438-.859375 59.402344 0 39.25.152344 43.898438.859375 59.402344.652344 14.332031 3.046875 22.113281 5.058594 27.292969 2.359375 6.386719 6.113281 12.160156 10.996094 16.902343 4.742187 4.882813 10.515624 8.640626 16.902343 10.996094 5.179688 2.015625 12.964844 4.410156 27.296875 5.0625 15.5.707032 20.144532.855469 59.398438.855469 39.257812 0 43.90625-.148437 59.402344-.855469 14.332031-.652344 22.117187-3.046875 27.296874-5.0625 12.820313-4.945312 22.953126-15.078125 27.898438-27.898437 2.011719-5.179688 4.40625-12.960938 5.0625-27.292969.707031-15.503906.855469-20.152344.855469-59.402344 0-39.253906-.148438-43.902344-.855469-59.402344-.652344-14.332031-3.046875-22.117187-5.0625-27.296874zm-114.59375 162.179687c-41.691406 0-75.488281-33.792969-75.488281-75.484375s33.796875-75.484375 75.488281-75.484375c41.6875 0 75.484375 33.792969 75.484375 75.484375s-33.796875 75.484375-75.484375 75.484375zm78.46875-136.3125c-9.742188 0-17.640625-7.898437-17.640625-17.640625s7.898437-17.640625 17.640625-17.640625 17.640625 7.898437 17.640625 17.640625c-.003906 9.742188-7.898437 17.640625-17.640625 17.640625zm0 0"/><path d="m256 0c-141.363281 0-256 114.636719-256 256s114.636719 256 256 256 256-114.636719 256-256-114.636719-256-256-256zm146.113281 316.605469c-.710937 15.648437-3.199219 26.332031-6.832031 35.683593-7.636719 19.746094-23.246094 35.355469-42.992188 42.992188-9.347656 3.632812-20.035156 6.117188-35.679687 6.832031-15.675781.714844-20.683594.886719-60.605469.886719-39.925781 0-44.929687-.171875-60.609375-.886719-15.644531-.714843-26.332031-3.199219-35.679687-6.832031-9.8125-3.691406-18.695313-9.476562-26.039063-16.957031-7.476562-7.339844-13.261719-16.226563-16.953125-26.035157-3.632812-9.347656-6.121094-20.035156-6.832031-35.679687-.722656-15.679687-.890625-20.6875-.890625-60.609375s.167969-44.929688.886719-60.605469c.710937-15.648437 3.195312-26.332031 6.828125-35.683593 3.691406-9.808594 9.480468-18.695313 16.960937-26.035157 7.339844-7.480469 16.226563-13.265625 26.035157-16.957031 9.351562-3.632812 20.035156-6.117188 35.683593-6.832031 15.675781-.714844 20.683594-.886719 60.605469-.886719s44.929688.171875 60.605469.890625c15.648437.710937 26.332031 3.195313 35.683593 6.824219 9.808594 3.691406 18.695313 9.480468 26.039063 16.960937 7.476563 7.34375 13.265625 16.226563 16.953125 26.035157 3.636719 9.351562 6.121094 20.035156 6.835938 35.683593.714843 15.675781.882812 20.683594.882812 60.605469s-.167969 44.929688-.886719 60.605469zm0 0"/></symbol><symbol id="money-bag" viewBox="0 0 512 512">
<g>
	<g>
		<path d="M256,317c-8.271,0-15-6.729-15-15c0-6.042,3.595-11.468,9.159-13.825c6.717-2.844,14.755-0.417,22.059,6.659
			c5.95,5.764,15.446,5.614,21.21-0.335c5.765-5.95,5.614-15.446-0.335-21.21c-6.772-6.561-14.3-11.198-22.093-13.815V242
			c0-8.284-6.716-15-15-15s-15,6.716-15,15v17.571c-0.851,0.303-1.699,0.623-2.54,0.979C221.779,267.615,211,283.885,211,302
			c0,24.813,20.187,45,45,45c8.271,0,15,6.729,15,15c0,6.286-3.965,11.954-9.866,14.103c-7.705,2.805-16.674-1-24.606-10.445
			c-5.328-6.344-14.789-7.167-21.133-1.839s-7.167,14.79-1.839,21.133c8.109,9.655,17.548,16.276,27.445,19.608V422
			c0,8.284,6.716,15,15,15s15-6.716,15-15v-17.573c0.134-0.047,0.268-0.088,0.401-0.136C289.105,397.843,301,380.847,301,362
			C301,337.187,280.813,317,256,317z"/>
	</g>
</g>
<g>
	<g>
		<path d="M394.919,225.259c-17.828-21.933-38.208-39.407-60.58-51.973c3.664-4.335,6.555-9.418,8.422-15.083
			c7.326-22.309-3.375-48.809-30.688-57.442l38.289-66.765c4.831-8.426,0.491-19.158-8.824-21.866C313.854,4.081,285.076,0,256,0
			s-57.854,4.081-85.538,12.13c-9.326,2.711-13.649,13.45-8.824,21.866l38.289,66.766c-27.205,8.589-38.041,35.05-30.684,57.453
			c1.861,5.65,4.751,10.73,8.426,15.067c-22.375,12.566-42.757,30.042-60.587,51.977C81.441,269.106,61,324.413,61,377
			c0,109.091,87.047,135,195,135c108.029,0,195-25.953,195-135C451,324.413,430.559,269.106,394.919,225.259z M197.496,36.218
			C216.633,32.087,236.238,30,256,30c19.762,0,39.367,2.087,58.504,6.218L281.471,93.82c-16.919-2.362-34.018-2.361-50.941,0.001
			L197.496,36.218z M207.296,129.896c25.815-8.468,52.823-10.073,79.08-4.824c0.031,0.006,0.063,0.012,0.094,0.018
			c6.12,1.228,12.199,2.826,18.213,4.799c7.861,2.591,12.157,11.094,9.58,18.941c-1.873,5.683-6.818,9.597-12.635,10.231
			C286.672,154.378,271.417,152,256,152c-15.386,0-30.611,2.368-45.538,7.032c-5.907-0.608-10.864-4.55-12.721-10.188
			C195.16,140.983,199.456,132.479,207.296,129.896z M256,482.2c-117.196,0-165-30.62-165-105.2
			c0-45.142,18.453-94.793,49.36-132.818C172.955,204.083,214.023,182,256,182c46.206,0,86.621,26.482,115.64,62.182
			C402.547,282.207,421,331.858,421,377C421,451.58,373.196,482.2,256,482.2z"/>
	</g>
</g>
<g>
</g>
<g>
</g>
<g>
</g>
<g>
</g>
<g>
</g>
<g>
</g>
<g>
</g>
<g>
</g>
<g>
</g>
<g>
</g>
<g>
</g>
<g>
</g>
<g>
</g>
<g>
</g>
<g>
</g>
</symbol><symbol id="online-payment" viewBox="0 0 449.7 512"><path d="M384.7,312.7a15,15,0,1,1,15-15h0A15,15,0,0,1,384.7,312.7Z" fill="red"/><path d="M340.7,312.7a15,15,0,1,1,15-15h0A15,15,0,0,1,340.7,312.7Z" fill="red"/><path d="M293.3,489.5a9,9,0,0,1-9,9H23a9,9,0,0,1-9-9V23.5a9,9,0,0,1,9-9H62.9L89.2,40.8a47.1,47.1,0,0,0,33.2,13.8h62.5a46.51,46.51,0,0,0,33.2-13.8l26.3-26.3h39.9a9,9,0,0,1,9,9h0V154.8H160.7V132.1a7,7,0,1,0-14,0V380.8a7,7,0,0,0,14,0V358.1H293.4V489.5Z" fill="#6edeff"/><path d="M122.7,426a23,23,0,0,0,0,46h62a23,23,0,1,0,0-46Zm71,23a9,9,0,0,1-9,9h-62a9,9,0,0,1,0-18h62A9,9,0,0,1,193.7,449Z" fill="#23374e"/><path d="M442.7,154.3H307.3V23a23,23,0,0,0-23-23H23A23,23,0,0,0,0,23V489a23,23,0,0,0,23,23H284.3a23,23,0,0,0,23-23V357.7H442.7a7,7,0,0,0,7-7h0V161.3A7,7,0,0,0,442.7,154.3Zm-7,41.2h-275V168.3h275Zm0,38h-275v-24h275ZM224.6,14,208.2,30.3A33,33,0,0,1,184.9,40H122.4a32.84,32.84,0,0,1-23.3-9.7L82.7,14Zm68.7,475a9,9,0,0,1-9,9H23a9,9,0,0,1-9-9h0V23a9,9,0,0,1,9-9H62.9L89.2,40.3A46.83,46.83,0,0,0,122.4,54h62.5a46.51,46.51,0,0,0,33.2-13.8L244.4,14h39.9a9,9,0,0,1,9,9h0V154.3H160.7V131.6a7,7,0,1,0-14,0V380.3a7,7,0,0,0,14,0V357.6H293.4ZM160.7,343.7V247.5h275v96.2Z" fill="#23374e"/><path d="M384.7,268.7a29,29,0,0,0-22,10.1,29,29,0,1,0-3.2,40.9c1.1-1,2.2-2.1,3.2-3.2a29,29,0,1,0,22-47.8Zm-44,44a15,15,0,1,1,15-15h0A15,15,0,0,1,340.7,312.7Zm44,0a15,15,0,1,1,15-15h0A15,15,0,0,1,384.7,312.7Z" fill="#23374e"/><path d="M239,290.7H192a7,7,0,0,0,0,14h47a7,7,0,1,0,0-14Z" fill="#23374e"/></symbol><symbol id="papers" viewBox="0 0 512 506.96"><path d="M183.28,249.25V397.56a12.85,12.85,0,0,0,12.82,12.86H336.92l-94.55,16.2-78,13.39L135.14,269.34,102.87,81.21l80.41-13.78v147m7.5,27.3v-19.8l-7.5-7.5v34.8" transform="translate(0 -0.02)" fill="red"/><path d="M507.79,62.13,447.34,4.51C445,2.3,442.66,0,438.22,0H196.1a12.84,12.84,0,0,0-12.82,12.83V52.21L97.94,66.84A12.64,12.64,0,0,0,87.69,81.42L92,106.67c-27.74,9.33-56.21,19-83.71,28.83A12.7,12.7,0,0,0,.73,151.63l54.68,152a7.5,7.5,0,1,0,14.12-5.08L15.65,148.8c25.9-9.29,52.72-18.29,78.94-27.17l25.77,150.25,29.64,173a12.7,12.7,0,0,0,12.5,10.45,12.08,12.08,0,0,0,2.08-.17l80.32-13.78,62.76-10.76-94.39,33.93-74.44,26.76L81,330.51a7.5,7.5,0,0,0-14.22,4.78l.11.3,58.63,163.07a12.57,12.57,0,0,0,16.08,7.58l.05,0,76.67-27.56,174.09-62.58,33.26-5.7h73.47A12.87,12.87,0,0,0,512,397.57v-327c0-4.49-2.44-6.78-4.21-8.45Zm-19.87,1.78H449.46c-1.8,0-6,0-7.08-1a4.3,4.3,0,0,1-.53-2.58l-.09-40.41ZM497,395.42H198.28V249.25a7.5,7.5,0,0,0-15,0V397.56a12.85,12.85,0,0,0,12.82,12.86H336.92l-94.55,16.2-78,13.39L135.14,269.34,102.87,81.21l80.41-13.78v147a7.5,7.5,0,0,0,15,0V15H426.75l.1,45.33c0,5.49,1.67,9.94,5,13.21,5.06,5,12.22,5.37,16.66,5.37H497Z" transform="translate(0 -0.02)"/><path d="M234.43,116.51a7.5,7.5,0,0,0,7.5,7.5H456.37a7.5,7.5,0,0,0,0-15H241.93A7.5,7.5,0,0,0,234.43,116.51Z" transform="translate(0 -0.02)"/><path d="M456.37,162.24H241.93a7.5,7.5,0,0,0,0,15H456.37a7.5,7.5,0,0,0,0-15Z" transform="translate(0 -0.02)"/><path d="M456.37,215.51H241.93a7.5,7.5,0,0,0,0,15H456.37a7.5,7.5,0,0,0,0-15Z" transform="translate(0 -0.02)"/><path d="M456.37,268.81H241.93a7.5,7.5,0,0,0,0,15H456.37a7.5,7.5,0,0,0,0-15Z" transform="translate(0 -0.02)"/><path d="M456.37,322.09H241.93a7.5,7.5,0,0,0,0,15H456.37a7.5,7.5,0,0,0,0-15Z" transform="translate(0 -0.02)"/></symbol><symbol id="phone" viewBox="0 0 512 512">
<g>
	<g>
		<path d="M436.992,74.953c-99.989-99.959-262.08-99.935-362.039,0.055s-99.935,262.08,0.055,362.039s262.08,99.935,362.039-0.055
			c48.006-48.021,74.968-113.146,74.953-181.047C511.986,188.055,485.005,122.951,436.992,74.953z M387.703,356.605
			c-0.011,0.011-0.022,0.023-0.034,0.034v-0.085l-12.971,12.885c-16.775,16.987-41.206,23.976-64.427,18.432
			c-23.395-6.262-45.635-16.23-65.877-29.525c-18.806-12.019-36.234-26.069-51.968-41.899
			c-14.477-14.371-27.483-30.151-38.827-47.104c-12.408-18.242-22.229-38.114-29.184-59.051
			c-7.973-24.596-1.366-51.585,17.067-69.717l15.189-15.189c4.223-4.242,11.085-4.257,15.326-0.034
			c0.011,0.011,0.023,0.022,0.034,0.034l47.957,47.957c4.242,4.223,4.257,11.085,0.034,15.326c-0.011,0.011-0.022,0.022-0.034,0.034
			l-28.16,28.16c-8.08,7.992-9.096,20.692-2.389,29.867c10.185,13.978,21.456,27.131,33.707,39.339
			c13.659,13.718,28.508,26.197,44.373,37.291c9.167,6.394,21.595,5.316,29.525-2.56l27.221-27.648
			c4.223-4.242,11.085-4.257,15.326-0.034c0.011,0.011,0.022,0.022,0.034,0.034l48.043,48.128
			C391.911,345.502,391.926,352.363,387.703,356.605z"/>
	</g>
</g>
<g>
</g>
<g>
</g>
<g>
</g>
<g>
</g>
<g>
</g>
<g>
</g>
<g>
</g>
<g>
</g>
<g>
</g>
<g>
</g>
<g>
</g>
<g>
</g>
<g>
</g>
<g>
</g>
<g>
</g>
</symbol><symbol id="piggy-bank" viewBox="0 0 492.363 492.363">
<g>
	<g>
		<path d="M474.3,133.981l-0.1-0.1c-4.1-3.7-10.4-3.7-14.3,0.2c-3.9,3.9-3.9,10.2,0,14.1c16.4,16.4,16.4,43,0,59.4
			c-16.4,16.4-43,16.4-59.4,0c-0.2-0.2-0.3-0.3-0.5-0.4c-15-21-34.2-38.6-56.3-51.7c22.9-54-2.4-116.3-56.4-139.1
			c-54-22.8-116.3,2.4-139.1,56.4c-4.6,11-7.4,22.7-8.2,34.6c-10.6-3-19.1-4.4-25.7-4.2c-10.6,0.1-18.4,6.7-19.6,16.4
			c-0.7,4.3-0.2,10.6,2.1,31.1l2.1,19.6c-19.2,15.6-34.3,33.8-45.2,54.2l-29,5.7c-14.4,2.9-24.7,15.6-24.7,30.2v64.3
			c0,14.7,10.3,27.3,24.7,30.2l29.1,5.8c5.7,11.2,12.7,21.7,20.9,31.3c-10.8,26.8-2.8,57.5,19.6,75.8c13.3,10.8,30,16.7,47.1,16.6
			c19.5,0,38.3-7.4,52.6-20.7l7-6.6c25.8,3.9,52.2,3,77.7-2.4l9.9,9.5c13.7,12.9,31.9,20.1,50.7,19.9h2.1c0.1,0,0.2,0,0.3,0
			c19.6-0.5,38.2-8.7,51.8-22.9c21-22.2,23.5-55.6,6.9-81.8c18.8-26.2,28.7-56.2,28.7-87.2v-7.3c0-0.2,0-0.4,0-0.6
			c-0.9-14.9-4.8-30.3-11.6-45.9c20.5,4.4,41.9-1.9,56.7-16.8C498.4,197.381,498.4,158.181,474.3,133.981z M246,27.881
			c47.5-0.1,86.1,38.3,86.2,85.8c0.1,28.7-14.2,55.6-38.1,71.6c-0.8,0.6-1.6,1.8-2.2,1.8h-91.4c-0.4,0-0.9-0.6-1.4-1
			c-22.7-14.7-37.1-39.2-39.1-66.1c-0.2-2.3-0.2-4.3-0.2-6.1C159.9,66.481,198.4,27.981,246,27.881z M381,371.981
			c-1.7,2-4.3,6.6-1.2,12.8c0.3,0.6,0.6,1.1,1,1.6c14.5,18.9,13.7,44.5-1.9,61c-9.9,10.3-23.3,16.7-37.8,16.7h-1.9
			c-13.7,0.1-26.9-5-36.9-14.4l-13-12.4c-2.3-2.2-5.4-3.4-8.5-3.3c-0.8,0-1.5,0.1-2.3,0.3c-25.7,6.1-52.3,6.9-78.4,2.5
			c-0.6-0.1-1.1-0.1-1.7-0.1c-3.2-0.1-6.2,1.1-8.5,3.3l-9.8,9.3c-10,9.3-22.9,14.6-36.5,15.2c-13.3,0.7-26.5-3.6-36.9-11.9
			c-16.6-13.6-21.7-36.9-12.2-56.2c1.5-2.5,1.9-5.6,1.1-8.5c-0.4-1.8-1.2-3.4-2.4-4.7c-9.4-10.3-17.3-22-23.4-34.6
			c-0.5-1-1.1-1.9-1.9-2.7c-1.9-2.1-4.4-3.4-7.1-3.9l-32.2-6.5c-5-1-8.6-5.5-8.6-10.6v-64.5c-0.1-5.1,3.5-9.6,8.6-10.6l32.3-6.5
			c2.7-0.5,5.2-1.8,7.1-3.9c0.8-0.8,1.4-1.6,1.9-2.6c10.2-20.4,25.4-38.6,45.1-53.8c0.3-0.3,0.6-0.5,0.9-0.8
			c2.3-2.3,3.5-5.4,3.4-8.6c0-0.4,0-0.7-0.1-1.1l-2.6-24c-0.9-7.7-2.4-21.6-2.2-25.4c0.1,0,0.3,0,0.4,0c4-0.1,11.7,0.6,25.9,5.2
			c3,22.2,13,42.8,28.5,58.9h-9.5c-5.5,0-10,4.5-10,10s4.5,10,10,10H333c5.5,0,10-4.5,10-10s-4.5-10-10-10h-10.4
			c4.4-4.3,8.3-9.1,11.6-14.3c23.1,14,42.1,32.8,55.2,54.4l7.1,13.7c7.3,15.1,11.5,30.4,12.5,44.4v6.9h0
			C409,320.781,399.3,348.281,381,371.981z"/>
	</g>
</g>
<g>
	<g>
		<path d="M138.5,242.181c-14.2,0-25.6,11.5-25.6,25.6c0,14.2,11.5,25.6,25.6,25.6c14.1,0,25.6-11.5,25.6-25.6
			C164.2,253.681,152.7,242.181,138.5,242.181z M138.5,273.481c-3.1,0-5.6-2.5-5.6-5.6c0-3.1,2.5-5.6,5.6-5.6c3.1,0,5.6,2.5,5.6,5.6
			C144.2,270.981,141.7,273.481,138.5,273.481z"/>
	</g>
</g>
<g>
	<g>
		<path d="M246,53.281c-33.5,0-60.6,27.1-60.6,60.6c0.1,33.4,27.2,60.5,60.6,60.6c33.5,0,60.6-27.1,60.6-60.6
			S279.5,53.281,246,53.281z M246,154.481c-22.4,0-40.6-18.2-40.6-40.6c0-22.4,18.2-40.6,40.6-40.6c22.4,0,40.6,18.2,40.6,40.6
			C286.6,136.281,268.4,154.481,246,154.481z"/>
	</g>
</g>
<g>
</g>
<g>
</g>
<g>
</g>
<g>
</g>
<g>
</g>
<g>
</g>
<g>
</g>
<g>
</g>
<g>
</g>
<g>
</g>
<g>
</g>
<g>
</g>
<g>
</g>
<g>
</g>
<g>
</g>
</symbol><symbol id="portfolio" viewBox="0 -31 512 512"><path d="m497.09375 60.003906c-.03125 0-.0625-.003906-.09375-.003906h-136v-15c0-24.8125-20.1875-45-45-45h-120c-24.8125 0-45 20.1875-45 45v15h-136c-8.351562 0-15 6.84375-15 15v330c0 24.8125 20.1875 45 45 45h422c24.8125 0 45-20.1875 45-45v-329.683594c0-.019531 0-.039062 0-.058594-.574219-9.851562-6.632812-15.199218-14.90625-15.253906zm-316.09375-15.003906c0-8.269531 6.730469-15 15-15h120c8.269531 0 15 6.730469 15 15v15h-150zm295.1875 45-46.582031 139.742188c-2.042969 6.136718-7.761719 10.257812-14.226563 10.257812h-84.378906v-15c0-8.285156-6.714844-15-15-15h-120c-8.285156 0-15 6.714844-15 15v15h-84.378906c-6.464844 0-12.183594-4.121094-14.226563-10.257812l-46.582031-139.742188zm-175.1875 150v30h-90v-30zm181 165c0 8.269531-6.730469 15-15 15h-422c-8.269531 0-15-6.730469-15-15v-237.566406l23.933594 71.796875c6.132812 18.40625 23.289062 30.769531 42.6875 30.769531h84.378906v15c0 8.285156 6.714844 15 15 15h120c8.285156 0 15-6.714844 15-15v-15h84.378906c19.398438 0 36.554688-12.363281 42.6875-30.769531l23.933594-71.796875zm0 0"/></symbol><symbol id="puzzle" viewBox="0 0 512 512">
<g>
	<g>
		<path d="M479.951,202.667C479.951,155.125,467.588,0,308.506,0c-87.755,0-150.688,22.667-187.158,67.371
			c-26.753,34.722-38.318,78.792-32.064,122.176L38.073,265.11c-3.906,5.788-6.003,12.608-6.023,19.591
			c-0.055,19.44,15.66,35.245,35.1,35.3h26.485c-2.827,26.368-4.629,83.595,30.944,95.477c20.252,5.633,41.479,6.844,62.24,3.552
			l-26.325,78.933c-0.362,1.088-0.547,2.227-0.547,3.373c0.001,5.891,4.778,10.666,10.669,10.664h234.667
			c0.67,0.001,1.339-0.06,1.997-0.184c5.789-1.09,9.599-6.667,8.509-12.456l-0.501-2.656
			c-11.402-63.185-0.466-128.369,30.933-184.373C468.612,271.872,479.951,234.976,479.951,202.667z M392.612,490.667h-207.2
			l27.296-81.963c0.64-1.922,0.719-3.986,0.228-5.951c-1.427-5.716-7.217-9.193-12.932-7.766
			c-0.448,0.085-40.128,9.771-68.715,0.224c-20.907-6.976-19.093-59.659-14.933-84.085c0.101-0.593,0.152-1.193,0.152-1.794
			c-0.001-5.891-4.778-10.666-10.669-10.664H67.151c-7.638,0-13.837-6.176-13.867-13.813c-0.005-2.767,0.828-5.47,2.389-7.755
			l53.664-79.083c1.612-2.389,2.196-5.325,1.621-8.149c-6.287-38.491,3.444-77.879,26.933-109.013
			c32.192-39.499,89.547-59.52,170.613-59.52c135.488,0,150.112,126.816,150.112,181.333c0,28.651-10.443,62.08-31.061,99.339
			C395.487,359.342,383.206,425.648,392.612,490.667z"/>
	</g>
</g>
<g>
	<g>
		<path d="M403.889,174.303c-3.883,4.43-3.44,11.169,0.99,15.052c7.018,5.99,11.064,14.752,11.072,23.979c0,17.673-14.327,32-32,32
			c-17.673,0-32-14.327-32-32c0.008-9.227,4.054-17.988,11.072-23.979c2.31-2.025,3.635-4.948,3.636-8.02
			c0.001-5.891-4.774-10.667-10.665-10.668h-46.709v-46.709c0-3.072-1.325-5.995-3.636-8.02c-4.43-3.883-11.169-3.44-15.052,0.99
			c-5.99,7.018-14.752,11.064-23.979,11.072c-17.673,0-32-14.327-32-32c0-17.673,14.327-32,32-32
			c9.227,0.008,17.988,4.054,23.979,11.072c2.025,2.31,4.948,3.635,8.02,3.636c5.891,0.001,10.667-4.774,10.668-10.665V10.667
			h-21.334v36.544c-6.715-2.991-13.983-4.539-21.333-4.544c-29.455,0-53.333,23.878-53.333,53.333s23.878,53.333,53.333,53.333
			c7.351-0.005,14.619-1.553,21.333-4.544v36.544c0,5.891,4.776,10.667,10.667,10.667h36.544
			c-2.991,6.715-4.539,13.983-4.544,21.333c0.035,29.441,23.893,53.298,53.333,53.333c29.441-0.035,53.298-23.893,53.333-53.333
			c-0.005-7.351-1.553-14.619-4.544-21.333h36.544v-21.333h-57.375C408.837,170.667,405.914,171.992,403.889,174.303z"/>
	</g>
</g>
<g>
	<g>
		<path d="M356.719,43.84l-9.536,19.093c16.16,8.021,58.101,35.477,58.101,65.067h21.333
			C426.618,79.307,359.578,45.216,356.719,43.84z"/>
	</g>
</g>
<g>
	<g>
		<path d="M266.618,234.667c-23.564,0-42.667,19.102-42.667,42.667h21.333c0-11.782,9.551-21.333,21.333-21.333
			c11.782,0,21.333,9.551,21.333,21.333h21.333C309.284,253.769,290.182,234.667,266.618,234.667z"/>
	</g>
</g>
<g>
	<g>
		<path d="M298.618,170.667H196.89c3.743-6.483,5.714-13.836,5.716-21.322c0.006-23.564-19.091-42.672-42.655-42.678V128
			c11.782,0,21.333,9.551,21.333,21.333c0,11.782-9.551,21.333-21.333,21.333c-5.891,0-10.667,4.776-10.667,10.667
			S154.06,192,159.951,192h128v85.333h21.333v-96C309.284,175.442,304.509,170.667,298.618,170.667z"/>
	</g>
</g>
<g>
	<g>
		<rect x="287.951" y="298.67" width="21.333" height="21.333"/>
	</g>
</g>
<g>
	<g>
		<rect x="287.951" y="341.33" width="21.333" height="21.333"/>
	</g>
</g>
<g>
	<g>
		<rect x="159.951" y="202.67" width="21.333" height="21.333"/>
	</g>
</g>
<g>
	<g>
		<rect x="159.951" y="245.33" width="21.333" height="21.333"/>
	</g>
</g>
<g>
	<g>
		<path d="M373.071,396.789l-20.907-4.171c-6.532,36.661-6.532,74.187,0,110.848l20.907-4.181
			C367.197,465.372,367.197,430.702,373.071,396.789z"/>
	</g>
</g>
<g>
	<g>
		<path d="M330.298,429.248l-20.693-5.173c-0.469,1.867-11.285,46.08,0.224,80.629l20.245-6.741
			C320.538,469.365,330.202,429.643,330.298,429.248z"/>
	</g>
</g>
<g>
</g>
<g>
</g>
<g>
</g>
<g>
</g>
<g>
</g>
<g>
</g>
<g>
</g>
<g>
</g>
<g>
</g>
<g>
</g>
<g>
</g>
<g>
</g>
<g>
</g>
<g>
</g>
<g>
</g>
</symbol><symbol id="recommendation" viewBox="0 0 480 479.98"><path d="M408,0H72A72.08,72.08,0,0,0,0,72V328a72.08,72.08,0,0,0,72,72H92.2L64.6,469a8,8,0,0,0,10.8,10.2L241.8,400H408a72.08,72.08,0,0,0,72-72V72A72.08,72.08,0,0,0,408,0Zm56,328a56,56,0,0,1-56,56H240a7.73,7.73,0,0,0-3.4.8L87,456l24.4-61a7.91,7.91,0,0,0-4.4-10.4,8,8,0,0,0-3-.6H72a56,56,0,0,1-56-56V72A56,56,0,0,1,72,16H408a56,56,0,0,1,56,56Z" fill="#23374e"/><path d="M363.1,144H292.3a8,8,0,0,1-7.6-5.5L262.8,71.2a24,24,0,0,0-45.6,0l-21.9,67.3a8,8,0,0,1-7.6,5.5H116.9a24,24,0,0,0-14.1,43.4L160.1,229a8,8,0,0,1,2.9,9l-21.9,67.3A24,24,0,0,0,178,332.1l57.3-41.6a8.11,8.11,0,0,1,9.4,0L302,332.1a24,24,0,0,0,36.9-26.8L317,238a7.92,7.92,0,0,1,3-9l57.3-41.6A24,24,0,0,0,363.1,144Zm4.7,30.5-57.3,41.6a23.82,23.82,0,0,0-8.7,26.8l21.9,67.3a8,8,0,0,1-5,10.1,8.22,8.22,0,0,1-7.3-1.1l-57.3-41.6a24,24,0,0,0-28.2,0l-57.3,41.6a8,8,0,0,1-12.3-9l21.9-67.3a24,24,0,0,0-8.7-26.8l-57.3-41.6a8,8,0,0,1-1.8-11.2,7.92,7.92,0,0,1,6.5-3.3h70.8a24,24,0,0,0,22.8-16.6l21.9-67.3A8,8,0,0,1,242.5,71a8.09,8.09,0,0,1,5.1,5.1l21.9,67.3a23.74,23.74,0,0,0,22.8,16.5h70.8a8.08,8.08,0,0,1,4.7,14.6Z" fill="#23374e"/><path d="M367.8,174.5l-57.3,41.6a23.82,23.82,0,0,0-8.7,26.8l21.9,67.3a8,8,0,0,1-5,10.1,8.22,8.22,0,0,1-7.3-1.1l-57.3-41.6a24,24,0,0,0-28.2,0l-57.3,41.6a8,8,0,0,1-12.3-9l21.9-67.3a24,24,0,0,0-8.7-26.8l-57.3-41.6a8,8,0,0,1-1.8-11.2,7.92,7.92,0,0,1,6.5-3.3h70.8a24,24,0,0,0,22.8-16.6L232.4,76a8,8,0,0,1,10.1-5.1,8.09,8.09,0,0,1,5.1,5.1l21.9,67.3a24,24,0,0,0,22.8,16.6h70.8a8.08,8.08,0,0,1,4.7,14.6Z" fill="red"/></symbol><symbol id="save-money" viewBox="0 0 429.05 487"><path d="M103.68,222.17A115.84,115.84,0,1,0,219.53,106.34h0A115.83,115.83,0,0,0,103.68,222.17Zm115.83-99.86a99.86,99.86,0,1,1-99.86,99.86,99.86,99.86,0,0,1,99.86-99.86Z" transform="translate(-0.04)"/><path d="M374.73,357.7l-62.57,29.57a51,51,0,0,0-43.46-26.81l-57.76-1.59a61,61,0,0,1-26.26-6.78l-5.87-3a103.72,103.72,0,0,0-96,.1l.37-13.31a8,8,0,0,0-7.77-8.21l-63.34-1.74a8,8,0,0,0-8.2,7.76L0,472.69A8,8,0,0,0,7.8,480.9l63.35,1.74h.17a8,8,0,0,0,8-7.77l.18-6.65L96,459.41A28.25,28.25,0,0,1,117,457.1l98.3,27.54.52.13a105.17,105.17,0,0,0,21.6,2.23A106.38,106.38,0,0,0,282,477.28a6.43,6.43,0,0,0,1-.54l142.48-92.16a8,8,0,0,0,2.62-10.64A40.36,40.36,0,0,0,374.73,357.7ZM16.19,465.11l3.39-123L67,343.41l-3.39,123ZM274.73,463a90.6,90.6,0,0,1-55.41,6.2l-98-27.51a44.12,44.12,0,0,0-32.92,3.6L80,449.79,82.24,368a87.78,87.78,0,0,1,89.2-4.76l5.88,3a77.1,77.1,0,0,0,33.16,8.56l57.84,1.64a35,35,0,0,1,33.3,27.92L215.52,402a8,8,0,1,0-.44,16l95,2.61h.22a8,8,0,0,0,8-7.77,50.68,50.68,0,0,0-.77-10.36l64.18-30.33.19-.09a24.4,24.4,0,0,1,27.6,3.86Z" transform="translate(-0.04)"/><path d="M227.5,83.88V8a8,8,0,0,0-16,0V83.88a8,8,0,0,0,16,0Z" transform="translate(-0.04)"/><path d="M287.41,83.88V47.93a8,8,0,0,0-16,0V83.88a8,8,0,0,0,16,0Z" transform="translate(-0.04)"/><path d="M167.59,83.88V47.93a8,8,0,0,0-16,0V83.88a8,8,0,0,0,16,0Z" transform="translate(-0.04)"/><rect x="-19.96" y="380.56" width="123.09" height="47.39" transform="translate(-363.7 434.68) rotate(-88.42)" fill="red"/><path d="M219.51,121.81a99.86,99.86,0,1,1-99.86,99.86,99.86,99.86,0,0,1,99.86-99.86Z" transform="translate(-0.04)" fill="#68deff"/><path d="M220.18,265.78a7.65,7.65,0,0,0-2.74-.09,18.15,18.15,0,0,1-16.06-18,8,8,0,0,0-16,0,34.18,34.18,0,0,0,25.13,32.91v8a8,8,0,0,0,16,0v-7.5a34.11,34.11,0,0,0-7-67.5,18.14,18.14,0,1,1,18.14-18.14,8,8,0,0,0,16,0A34.17,34.17,0,0,0,226.5,162v-7.27a8,8,0,0,0-16,0v7.76a34.11,34.11,0,0,0,9,67,18.13,18.13,0,0,1,.67,36.24Z" transform="translate(-0.04)"/></symbol><symbol id="settings" viewBox="0 0 466.65 480.3"><path d="M247.33,234.1V13.5a13.5,13.5,0,0,0-27,0V234.1a68.55,68.55,0,0,0,0,134.4v98.2a13.5,13.5,0,0,0,27,0V368.5a68.55,68.55,0,0,0,0-134.4Zm-13.5,108.7a41.5,41.5,0,1,1,41.5-41.5h0A41.5,41.5,0,0,1,233.83,342.8Z" transform="translate(0)"/><path d="M82,120.9V13.5a13.5,13.5,0,0,0-27,0V120.9a68.55,68.55,0,0,0,0,134.4V466.7a13.5,13.5,0,0,0,27,0V255.2a68.49,68.49,0,0,0,0-134.3ZM68.53,229.6A41.5,41.5,0,1,1,110,188.1h0A41.54,41.54,0,0,1,68.53,229.6Z" transform="translate(0)"/><path d="M411.63,120.9V13.5a13.5,13.5,0,0,0-27,0V120.9a68.55,68.55,0,0,0,0,134.4V466.8a13.5,13.5,0,1,0,27,0V255.2a68.49,68.49,0,0,0,0-134.3ZM398.18,229.6a41.5,41.5,0,1,1,41.5-41.5h0A41.54,41.54,0,0,1,398.18,229.6Z" transform="translate(0)"/><circle cx="234.66" cy="300.57" r="41.62" transform="translate(-124.61 428.37) rotate(-71.6)" fill="red"/><circle cx="398.13" cy="188.1" r="41.5" fill="red"/><circle cx="68.53" cy="188.1" r="41.5" fill="red"/></symbol><symbol id="share" viewBox="0 0 469.33 512"><path d="M389.33,160a80,80,0,1,1,80-80A80,80,0,0,1,389.33,160Zm0-128a48,48,0,1,0,48,48A48,48,0,0,0,389.33,32Z"/><path d="M389.33,512a80,80,0,1,1,80-80A80,80,0,0,1,389.33,512Zm0-128a48,48,0,1,0,48,48A48,48,0,0,0,389.33,384Z"/><path d="M80,336a80,80,0,1,1,80-80A80,80,0,0,1,80,336Zm0-128a48,48,0,1,0,48,48A48,48,0,0,0,80,208Z"/><path d="M135.7,240.43a16,16,0,0,1-7.93-29.89l198-112.86a16,16,0,0,1,15.83,27.8l-198,112.86A16,16,0,0,1,135.7,240.43Z"/><path d="M333.63,416.43a15.83,15.83,0,0,1-7.89-2.11l-198-112.86a16,16,0,0,1,15.83-27.8l198,112.86a16,16,0,0,1-7.94,29.91Z"/><circle cx="389.33" cy="432" r="48" fill="red"/><circle cx="80" cy="256" r="48" fill="red"/><circle cx="389.33" cy="80" r="48" fill="red"/></symbol><symbol id="shield" viewBox="0 0 427.72 512.01"><path d="M213.85,18.09l.26.09L409.05,81.54v142.1c.08,2,5.35,202.59-194.83,269.73h-.76C13.65,426.39,18.35,231.88,18.65,223.28V81.53L213.58,18.18a1,1,0,0,0,.27-.09m155.67,83.16L218.39,50.4a9.82,9.82,0,0,0-3.92-.44,10.2,10.2,0,0,0-3.92.44L59.44,101.25a9.32,9.32,0,0,0-6.34,8.83V225.8c.06,1.66,7.61,167.2,158,225.46a9.41,9.41,0,0,0,6.73,0c150.39-58.26,158-223.79,158-225.79V110.08a9.34,9.34,0,0,0-6.31-8.83Z" transform="translate(0.02 0)" fill="red"/><path d="M427.68,223.28V74.77a9.33,9.33,0,0,0-6.44-8.87L219.85.46a9.21,9.21,0,0,0-6,.09,9.34,9.34,0,0,0-6-.09L6.45,65.9A9.33,9.33,0,0,0,0,74.77V222.92c-.09,2.17-5.74,217.6,209,288.61a9.09,9.09,0,0,0,2.93.48h3.79a9.09,9.09,0,0,0,2.93-.48C433.42,440.52,427.76,225.08,427.68,223.28ZM214.23,493.37h-.76C13.65,426.39,18.35,231.88,18.65,223.28V81.53L213.58,18.18a1,1,0,0,0,.27-.09l.26.09L409.05,81.54v142.1C409.14,225.65,414.41,426.23,214.23,493.37Z" transform="translate(0.02 0)"/><path d="M369.52,101.25,218.39,50.4a9.82,9.82,0,0,0-3.92-.44,10.2,10.2,0,0,0-3.92.44L59.44,101.25a9.32,9.32,0,0,0-6.34,8.83V225.8c.06,1.66,7.61,167.2,158,225.46a9.41,9.41,0,0,0,6.73,0c150.39-58.26,158-223.79,158-225.79V110.08A9.34,9.34,0,0,0,369.52,101.25Zm-155,331.31C79,377.65,71.79,226.68,71.74,225.48V116.78l142.73-48,142.75,48V225.14c-.05,1.53-7.23,152.51-142.75,207.42Z" transform="translate(0.02 0)"/><path d="M321.14,187.18A9.31,9.31,0,0,0,308,188.36h0L200.18,317.53l-69.57-73A9.32,9.32,0,0,0,116.71,257l.4.42,76.74,80.57a9.32,9.32,0,0,0,6.75,2.9h.3a9.39,9.39,0,0,0,6.86-3.34L322.32,200.3a9.31,9.31,0,0,0-1.17-13.11Z" transform="translate(0.02 0)"/></symbol><symbol id="spaceship" viewBox="0 0 370 511.88"><path d="M366.94,296,264,226l6.5-43.51A157.1,157.1,0,0,0,237.54,61L190.45,2.48a7.25,7.25,0,0,0-10.22-.69h0a7.38,7.38,0,0,0-.68.69L132.41,61A157.17,157.17,0,0,0,99.46,182.45L106,226,3.06,296A7,7,0,0,0,0,301.75v59.3a7,7,0,0,0,7,7H126.23v31a7,7,0,0,0,7,7h12v7.07a152.27,152.27,0,0,0,34.33,96.18,7,7,0,0,0,9.85,1h0a7.87,7.87,0,0,0,1-1,152.27,152.27,0,0,0,34.33-96.18v-7.07h12a7,7,0,0,0,7-7h0v-31H363a7,7,0,0,0,7-7v-59.3A7,7,0,0,0,366.94,296Zm-47.45,58.09H244.9l10.85-72.64,63.74,43.36ZM143.32,69.77,185,18l41.68,51.74a143.05,143.05,0,0,1,30,110.61L230.74,354.05H139.26l-18.8-125.82h0l-7.15-47.85A143.06,143.06,0,0,1,143.32,69.77ZM125.1,354.05H50.51V324.77l63.74-43.36ZM14,305.45l94.26-64.12L112,266,39.58,315.28a7,7,0,0,0-3.07,5.79v33H14ZM210.75,413.12A138.35,138.35,0,0,1,185,493.36a138.35,138.35,0,0,1-25.75-80.24v-7.07H178v29.83a7,7,0,0,0,14,0V406.05h18.75Zm19-21.07H140.23v-24h89.54Zm126.23-38H333.49v-33a7,7,0,0,0-3.07-5.78L258.05,266l3.69-24.72L356,305.45Z" transform="translate(0 0)"/><path d="M185,194.88c21.92,0,39.75-24,39.75-53.5S206.92,87.88,185,87.88s-39.75,24-39.75,53.5S163.08,194.88,185,194.88Zm0-93c14,0,25.75,18.09,25.75,39.5S199,180.88,185,180.88s-25.75-18.09-25.75-39.5S171,101.88,185,101.88Z" transform="translate(0 0)"/><path d="M210.75,413.12A138.35,138.35,0,0,1,185,493.36a138.35,138.35,0,0,1-25.75-80.24v-7.07H178v29.83a7,7,0,0,0,14,0V406.05h18.75Z" transform="translate(0 0)" fill="red"/><rect x="140.22" y="368.05" width="89.54" height="24" fill="#68deff"/><path d="M14,305.45l94.26-64.13L112,266,39.58,315.28a7,7,0,0,0-3.07,5.78v33H14Z" transform="translate(0 0)" fill="#68deff"/><path d="M356,354.05H333.49v-33a7,7,0,0,0-3.07-5.78L258.05,266l3.69-24.72L356,305.45Z" transform="translate(0 0)" fill="#68deff"/></symbol><symbol id="telegram" viewBox="0 0 24 24"><path d="m12 24c6.629 0 12-5.371 12-12s-5.371-12-12-12-12 5.371-12 12 5.371 12 12 12zm-6.509-12.26 11.57-4.461c.537-.194 1.006.131.832.943l.001-.001-1.97 9.281c-.146.658-.537.818-1.084.508l-3-2.211-1.447 1.394c-.16.16-.295.295-.605.295l.213-3.053 5.56-5.023c.242-.213-.054-.333-.373-.121l-6.871 4.326-2.962-.924c-.643-.204-.657-.643.136-.953z"/></symbol><symbol id="user" viewBox="0 0 512 512"><path d="m431.964 435.333c-.921-58.994-19.3-112.636-51.977-151.474-32.487-38.601-76.515-59.859-123.987-59.859s-91.5 21.258-123.987 59.859c-32.646 38.797-51.013 92.364-51.973 151.285 18.46 9.247 94.85 44.856 175.96 44.856 87.708 0 158.845-35.4 175.964-44.667z"/><circle cx="256" cy="120" r="88"/></symbol><symbol id="vk" viewBox="0 0 97.75 97.75">
<g>
	<path d="M48.875,0C21.883,0,0,21.882,0,48.875S21.883,97.75,48.875,97.75S97.75,75.868,97.75,48.875S75.867,0,48.875,0z
		 M73.667,54.161c2.278,2.225,4.688,4.319,6.733,6.774c0.906,1.086,1.76,2.209,2.41,3.472c0.928,1.801,0.09,3.776-1.522,3.883
		l-10.013-0.002c-2.586,0.214-4.644-0.829-6.379-2.597c-1.385-1.409-2.67-2.914-4.004-4.371c-0.545-0.598-1.119-1.161-1.803-1.604
		c-1.365-0.888-2.551-0.616-3.333,0.81c-0.797,1.451-0.979,3.059-1.055,4.674c-0.109,2.361-0.821,2.978-3.19,3.089
		c-5.062,0.237-9.865-0.531-14.329-3.083c-3.938-2.251-6.986-5.428-9.642-9.025c-5.172-7.012-9.133-14.708-12.692-22.625
		c-0.801-1.783-0.215-2.737,1.752-2.774c3.268-0.063,6.536-0.055,9.804-0.003c1.33,0.021,2.21,0.782,2.721,2.037
		c1.766,4.345,3.931,8.479,6.644,12.313c0.723,1.021,1.461,2.039,2.512,2.76c1.16,0.796,2.044,0.533,2.591-0.762
		c0.35-0.823,0.501-1.703,0.577-2.585c0.26-3.021,0.291-6.041-0.159-9.05c-0.28-1.883-1.339-3.099-3.216-3.455
		c-0.956-0.181-0.816-0.535-0.351-1.081c0.807-0.944,1.563-1.528,3.074-1.528l11.313-0.002c1.783,0.35,2.183,1.15,2.425,2.946
		l0.01,12.572c-0.021,0.695,0.349,2.755,1.597,3.21c1,0.33,1.66-0.472,2.258-1.105c2.713-2.879,4.646-6.277,6.377-9.794
		c0.764-1.551,1.423-3.156,2.063-4.764c0.476-1.189,1.216-1.774,2.558-1.754l10.894,0.013c0.321,0,0.647,0.003,0.965,0.058
		c1.836,0.314,2.339,1.104,1.771,2.895c-0.894,2.814-2.631,5.158-4.329,7.508c-1.82,2.516-3.761,4.944-5.563,7.471
		C71.48,50.992,71.611,52.155,73.667,54.161z"/>
</g>
<g>
</g>
<g>
</g>
<g>
</g>
<g>
</g>
<g>
</g>
<g>
</g>
<g>
</g>
<g>
</g>
<g>
</g>
<g>
</g>
<g>
</g>
<g>
</g>
<g>
</g>
<g>
</g>
<g>
</g>
</symbol><symbol id="web" viewBox="0 0 512.1 512"><path d="M469.3,0H42.7A42.68,42.68,0,0,0,0,42.66V469.4A42.66,42.66,0,0,0,42.7,512H469.4a42.74,42.74,0,0,0,42.7-42.7V42.7A42.83,42.83,0,0,0,469.3,0Zm25.6,469.3a25.65,25.65,0,0,1-25.6,25.6H42.7a25.65,25.65,0,0,1-25.6-25.6h0V85.3H495v384Zm0-401H17.1V42.7A25.65,25.65,0,0,1,42.7,17.1H469.4A25.65,25.65,0,0,1,495,42.7h0Z" transform="translate(0 0)" fill="#23374e"/><path d="M59.7,34.1H51.2a8.51,8.51,0,0,0,0,17h8.5a8.51,8.51,0,0,0,.6-17Z" transform="translate(0 0)" fill="#23374e"/><path d="M97.1,34.8a8.16,8.16,0,0,0-6.5,0,8.46,8.46,0,0,0-2.8,1.8,8.63,8.63,0,0,0,0,12.1,10.23,10.23,0,0,0,2.8,1.8,8.16,8.16,0,0,0,6.5,0,8.46,8.46,0,0,0,2.8-1.8,8.63,8.63,0,0,0,0-12.1A10.23,10.23,0,0,0,97.1,34.8Z" transform="translate(0 0)" fill="#23374e"/><path d="M131.3,34.7a8.42,8.42,0,0,0-11,4.51c0,.06,0,.13-.08.19a8.16,8.16,0,0,0,0,6.5,8.46,8.46,0,0,0,1.8,2.8,8.63,8.63,0,0,0,12.1,0,8.46,8.46,0,0,0,1.8-2.8,7.08,7.08,0,0,0,.7-3.2A8.74,8.74,0,0,0,131.3,34.7Z" transform="translate(0 0)" fill="#23374e"/><path d="M460.8,34.1H170.7a8.51,8.51,0,0,0-.6,17H460.8a8.51,8.51,0,0,0,0-17Z" transform="translate(0 0)" fill="#23374e"/><path d="M131,406.4a3.89,3.89,0,0,0,1.3.9c64.3,68.4,171.8,71.6,240.2,7.4,2.6-2.4,5-4.9,7.4-7.4a10.43,10.43,0,0,0,1.2-.9,8,8,0,0,0,.7-1.2,169.65,169.65,0,0,0,0-230h0c-.2-.4-.5-.8-.7-1.2a6.62,6.62,0,0,0-1.3-1c-64.3-68.3-171.8-71.6-240.1-7.3-2.5,2.4-4.9,4.8-7.3,7.3a6.62,6.62,0,0,0-1.3,1,8,8,0,0,0-.7,1.2,169.65,169.65,0,0,0,0,230A3.39,3.39,0,0,0,131,406.4Zm171.5,30a157,157,0,0,0,29.1-53.8h0a155.23,155.23,0,0,1,30.1,18.5A151.74,151.74,0,0,1,302.5,436.4Zm71-47.6a174.11,174.11,0,0,0-37.1-22.7,301.06,301.06,0,0,0,8.9-67.4h63.8a151.89,151.89,0,0,1-35.6,90.1Zm35.7-107.2H345.4a307,307,0,0,0-8.9-67.4,174.11,174.11,0,0,0,37.1-22.7,152.91,152.91,0,0,1,35.6,90.1ZM361.8,179a160.46,160.46,0,0,1-30.1,18.6,156.27,156.27,0,0,0-29.1-53.8A154.07,154.07,0,0,1,361.8,179Zm-97.3-41.3c20.9,5.5,39.5,30.6,51.1,66.3a178.48,178.48,0,0,1-51.1,9.7Zm0,93a199.71,199.71,0,0,0,55.8-10.2,292.71,292.71,0,0,1,8,61.1H264.5Zm0,67.9h63.8a292.71,292.71,0,0,1-8,61.1,196.4,196.4,0,0,0-55.8-10.2Zm0,67.9a182.1,182.1,0,0,1,51.1,9.7c-11.6,35.6-30.1,60.8-51.1,66.2ZM150.3,401.2a155.23,155.23,0,0,1,30.1-18.5h0a156.27,156.27,0,0,0,29.1,53.8A154,154,0,0,1,150.3,401.2Zm97.2,41.3c-20.9-5.5-39.4-30.6-51.1-66.2a178.48,178.48,0,0,1,51.1-9.7v75.9Zm0-93a199.71,199.71,0,0,0-55.8,10.2,292.71,292.71,0,0,1-8-61.1h63.8Zm0-67.9H183.7a292.71,292.71,0,0,1,8-61.1,196.4,196.4,0,0,0,55.8,10.2Zm0-143.9v75.9a182.1,182.1,0,0,1-51.1-9.7C208.1,168.4,226.6,143.2,247.5,137.7Zm-38,6a156.12,156.12,0,0,0-29,53.8h0A156,156,0,0,1,150.3,179a154,154,0,0,1,59.2-35.3Zm-71,47.7a174.11,174.11,0,0,0,37.1,22.7,301.06,301.06,0,0,0-8.9,67.4H102.9a152.11,152.11,0,0,1,35.6-90.1Zm28.1,107.2a307,307,0,0,0,8.9,67.4,174.11,174.11,0,0,0-37.1,22.7,152.56,152.56,0,0,1-35.6-90.1Z" transform="translate(0 0)" fill="#23374e"/><path d="M495,469.3a25.65,25.65,0,0,1-25.6,25.6H42.7a25.65,25.65,0,0,1-25.6-25.6h0V85.3H495Zm-363.9-63a3.89,3.89,0,0,0,1.3.9c64.3,68.4,171.8,71.6,240.2,7.4,2.6-2.4,5-4.9,7.4-7.4a10.43,10.43,0,0,0,1.2-.9,8,8,0,0,0,.7-1.2,169.65,169.65,0,0,0,0-230h0c-.2-.4-.5-.8-.7-1.2a6.62,6.62,0,0,0-1.3-1,170,170,0,0,0-240.2-7.3c-2.5,2.4-4.9,4.8-7.3,7.3a6.62,6.62,0,0,0-1.3,1,8,8,0,0,0-.7,1.2,169.65,169.65,0,0,0,0,230,4.66,4.66,0,0,0,.7,1.2Z" transform="translate(0 0)" fill="#6edeff"/></symbol><symbol id="webmaster" viewBox="0 0 172.51 170.96"><line x1="85.36" y1="158" x2="97.34" y2="157.32" fill="none" stroke="#0d344f" stroke-miterlimit="10" stroke-width="3"/><path d="M7.63,151.7v17.76H59V159.34" transform="translate(0.04 0)" fill="#0df" stroke="#0d344f" stroke-miterlimit="10" stroke-width="3"/><path d="M127.62,97.43a22.68,22.68,0,0,1,1.4-3c1-1.54,3.39-1.67,4.53-1.64,0,0,6.45-1.36,7.28,5.19V145.9a5,5,0,0,1-5.89,3.91,3.59,3.59,0,0,1-.47-.12s-7.37,1.07-7.16-5.93c-.54-25.37-.53-43.93,0-45.44C127.47,97.85,127.62,97.43,127.62,97.43Z" transform="translate(0.04 0)" fill="none" stroke="#0d344f" stroke-miterlimit="10" stroke-width="3"/><path d="M141.64,111.67a9.8,9.8,0,0,1,5.76,1.43c3.89,2.49,4.32,7,4.38,7.77a10.38,10.38,0,0,1-.73,4.61,10,10,0,0,1-2.41,3.46,9.24,9.24,0,0,1-3.57,1.95,9,9,0,0,1-3.47.28Z" transform="translate(0.04 0)" fill="none" stroke="#0d344f" stroke-miterlimit="10" stroke-width="3"/><line x1="156.75" y1="107.86" x2="164.43" y2="99.94" fill="none" stroke="#0d344f" stroke-miterlimit="10" stroke-width="3"/><line x1="159.98" y1="120.52" x2="171.01" y2="120.58" fill="none" stroke="#0d344f" stroke-miterlimit="10" stroke-width="3"/><line x1="158.37" y1="131.35" x2="166.15" y2="139.17" fill="none" stroke="#0d344f" stroke-miterlimit="10" stroke-width="3"/><path d="M25.57,112.9a32.66,32.66,0,0,1,1.5,6.63,114.88,114.88,0,0,1,1,12.57l-.76.93-4.88,6,6-6.21H77.23L77,158l-60,1.44A21.58,21.58,0,0,1,3.2,141.92c-.07-6.6-.13-11.62-.18-14.62V123s.06-2.32.19-4.23c.22-3.07,1.58-9.1,4-16.62A23.29,23.29,0,0,1,18.28,90.92H21C29.44,98.6,50,100,50,100c9.84,7.2,11,31.41,11,31.41l-.57,1.4-30.75.07L28,131.26" transform="translate(0.04 0)" fill="#0df" stroke="#0d344f" stroke-miterlimit="10" stroke-width="3"/><path d="M18.19,93.26l1-1.76L34,97.92l15.3,2.82.14,2.24-11.53,13.2-.91,1Z" transform="translate(0.04 0)" fill="red"/><path d="M18.19,90.55V81.22a269.92,269.92,0,0,1-13.5-25.5s-9-16.2,3.06-36.36A39.74,39.74,0,0,1,32.63,2.62S52.79.1,69.89,2.62c0,0,9.72,2.7,8.46,11.88,0,0-.9,6.48-7.92,12.42,0,0,8.69,10.44,8,34.38,0,0-.65,1.24-5.87,3.68a29.85,29.85,0,0,1-1.09,13.6s-2,8.22-13.68,11a42.76,42.76,0,0,1-8,0l.84,9.12.57,2.07L37.92,117.05,17.72,90.54" transform="translate(0.04 0)" fill="none" stroke="#0d344f" stroke-miterlimit="10" stroke-width="3"/><path d="M100.55,137.14l-11.28-4.8V103h11.31Z" transform="translate(0.04 0)" fill="red"/><path d="M77,133.8s-.82-2.44,6-4.07c0,0,5.54-.76,9.44,5.21,0,0,7.49.65,9.77,7.27,0,0,3,8-3.58,13.79,0,0,.08,11.59-5.86,12.81a7.8,7.8,0,0,1-6-1.31c-2.6-2-3.48-6-1.94-9.6H77Z" transform="translate(0.04 0)" fill="none" stroke="#0d344f" stroke-miterlimit="10" stroke-width="3"/><path d="M53.47,68.72s8.18,11.12,19.22,4.64" transform="translate(0.04 0)" fill="none" stroke="#0d344f" stroke-miterlimit="10" stroke-width="3"/><path d="M50.82,50.7s-.22-5.63,6.5-6.83c0,0,6.71-.65,7.36,6.83" transform="translate(0.04 0)" fill="none" stroke="#0d344f" stroke-miterlimit="10" stroke-width="3"/><path d="M18.23,81.26S26.87,71.06,26,66.92c0,0-8.46-4.32-7.74-14.22,0,0,.9-8.82,11.52-8.82a11.48,11.48,0,0,1,5.58,2.88S36.59,35.06,42.89,30c0,0,10.08-7.92,22.86-5l4.68,2" transform="translate(0.04 0)" fill="none" stroke="#0d344f" stroke-miterlimit="10" stroke-width="3"/><path d="M69.47,132.1c0-1.1-.32-1.36-.67-4.35V112.11s.74-8.63,10.49-9.09H115s8.4-1.61,10.7-3.68l.92,44.4s-7.36-3.8-14.72-4.26l-11.57-1.22v-1l-.06-34.19H89.24v29.32" transform="translate(0.04 0)" fill="none" stroke="#0d344f" stroke-miterlimit="10" stroke-width="3"/><rect x="87.03" y="4.06" width="83.98" height="66.24" rx="10.26" fill="none" stroke="#0d344f" stroke-miterlimit="10" stroke-width="3"/><circle cx="110.75" cy="30.15" r="14.13" fill="#fff" stroke="#0d344f" stroke-miterlimit="10" stroke-width="3"/><circle cx="144" cy="30" r="13.98" fill="#fff" stroke="#0d344f" stroke-miterlimit="10" stroke-width="3"/><circle cx="127.7" cy="34.72" r="13.98" fill="#fff" stroke="#0d344f" stroke-miterlimit="10" stroke-width="3"/><path d="M168.07,65A4.37,4.37,0,0,1,166.94,68a4.68,4.68,0,0,1-3.34,1S162,69,146.79,68.77c-2.8,0-4.42.15-14.33.25-2.23,0-5,0-6.57-1.86-.49-.58-1.22-1.81-1-4.53.49-6.47,5.77-14.1,13.89-17.21A21.79,21.79,0,0,1,146.61,44a22.64,22.64,0,0,1,15.3,6.5A20.22,20.22,0,0,1,168.07,65Z" transform="translate(0.04 0)" fill="#00deff" stroke="#0d344f" stroke-miterlimit="10" stroke-width="3"/><path d="M131.76,64.76a4.42,4.42,0,0,1-1.13,3.06,4.59,4.59,0,0,1-3.34,1s-1.65,0-16.81-.25c-2.22,0-3.71.09-9.18.19l-5.15.07c-2.24,0-5,0-6.58-1.86-.48-.59-1.22-1.81-1-4.53.49-6.47,5.76-14.1,13.89-17.21a21.79,21.79,0,0,1,7.83-1.42,22.64,22.64,0,0,1,15.3,6.5A20.25,20.25,0,0,1,131.76,64.76Z" transform="translate(0.04 0)" fill="#00deff" stroke="#0d344f" stroke-miterlimit="10" stroke-width="2"/><path d="M148.25,66.26a4.42,4.42,0,0,1-1.13,3.06,4.63,4.63,0,0,1-3.34,1s-1.65-.06-16.81-.25c-2.8,0-4.43.16-14.33.25-2.23,0-5,0-6.57-1.85-.49-.59-1.23-1.82-1-4.53.49-6.47,5.76-14.11,13.89-17.22a21.73,21.73,0,0,1,7.81-1.46,22.68,22.68,0,0,1,15.3,6.5A20.19,20.19,0,0,1,148.25,66.26Z" transform="translate(0.04 0)" fill="#fff" stroke="#0d344f" stroke-miterlimit="10" stroke-width="3"/><path d="M128.36,70.8c-.94,1.79-4.67,8.36-12.13,10.35a16.94,16.94,0,0,1-5.3.55,32.52,32.52,0,0,0-3.24-11.16Z" transform="translate(0.04 0)" fill="none" stroke="#0d344f" stroke-miterlimit="10" stroke-width="3"/><path d="M177.71,113" transform="translate(0.04 0)" fill="none" stroke="#0d344f" stroke-miterlimit="10" stroke-width="3"/><path d="M111.38,125.2" transform="translate(0.04 0)" fill="red"/><path d="M90.32,131.72" transform="translate(0.04 0)" fill="none" stroke="#0d344f" stroke-miterlimit="10" stroke-width="3"/><path d="M110.72,73.87a13.26,13.26,0,0,0-1.35-3,27,27,0,0,0-1.75-2.74,2,2,0,0,1-.58-1,1.63,1.63,0,0,1,0-.54,12.23,12.23,0,0,1,2-3.71l10.62,2.38,7.25.45L128.36,67v.85s-1.59,3.8-3.81,5.54l-9.72,1.08-3-.9Z" transform="translate(0.04 0)" fill="#fff"/><path d="M107.63,74.68" transform="translate(0.04 0)" fill="none" stroke="#0d344f" stroke-miterlimit="10" stroke-width="3"/></symbol></svg>