<svg xmlns="http://www.w3.org/2000/svg"
	xmlns:xlink="http://www.w3.org/1999/xlink">
	<symbol id="ad" viewBox="0 0 512 469.33">
		<path d="M458.67,469.33H53.33A53.37,53.37,0,0,1,0,416V53.33A53.37,53.37,0,0,1,53.33,0H458.67A53.37,53.37,0,0,1,512,53.33V416A53.37,53.37,0,0,1,458.67,469.33ZM53.33,21.33a32,32,0,0,0-32,32V416a32,32,0,0,0,32,32H458.67a32,32,0,0,0,32-32V53.33a32,32,0,0,0-32-32Z" transform="translate(0)"/>
		<path d="M501.33,106.67H10.67a10.67,10.67,0,0,1,0-21.34H501.33a10.67,10.67,0,1,1,0,21.34Z" transform="translate(0)"/>
		<path d="M224,341.33a10.67,10.67,0,0,1-10.67-10.66V256a21.33,21.33,0,0,0-42.66,0v74.67a10.67,10.67,0,0,1-21.34,0V256a42.67,42.67,0,0,1,85.34,0v74.67A10.67,10.67,0,0,1,224,341.33Z" transform="translate(0)"/>
		<path d="M224,298.67H160a10.67,10.67,0,1,1,0-21.34h64a10.67,10.67,0,0,1,0,21.34Z" transform="translate(0)"/>
		<path d="M309.33,341.33H288a10.67,10.67,0,0,1-10.67-10.66V224A10.67,10.67,0,0,1,288,213.33h21.33a53.39,53.39,0,0,1,53.34,53.34V288A53.38,53.38,0,0,1,309.33,341.33ZM298.67,320h10.66a32,32,0,0,0,32-32V266.67a32,32,0,0,0-32-32H298.67Z" transform="translate(0)"/>
		<path d="M501.33,404.83H10.67a10.67,10.67,0,1,1,0-21.33H501.33a10.67,10.67,0,1,1,0,21.33Z" transform="translate(0)"/>
		<path d="M21.33,416a32,32,0,0,0,32,32H458.67a32,32,0,0,0,32-32V404.83H21.33Z" transform="translate(0)" style="fill:#ff0000"/>
		<path d="M458.67,21.33H53.33a32,32,0,0,0-32,32v32H490.67v-32A32,32,0,0,0,458.67,21.33Z" transform="translate(0)" style="fill:#6edeff"/>
	</symbol>
	<symbol id="arroba" viewBox="0 0 512 512">
		<g>
			<g>
				<path d="M257,210c-24.814,0-45,20.186-45,45c0,24.814,20.186,45,45,45c24.814,0,45-20.186,45-45C302,230.186,281.814,210,257,210z
			"/>
			</g>
		</g>
		<g>
			<g>
				<path d="M255,0C114.39,0,0,114.39,0,255s114.39,257,255,257s257-116.39,257-257S395.61,0,255,0z M362,330
			c-20.273,0-38.152-10.161-49.017-25.596C299.23,319.971,279.354,330,257,330c-41.353,0-75-33.647-75-75c0-41.353,33.647-75,75-75
			c16.948,0,32.426,5.865,45,15.383V195c0-8.291,6.709-15,15-15c8.291,0,15,6.709,15,15c0,33.36,0,41.625,0,75
			c0,16.538,13.462,30,30,30c16.538,0,30-13.462,30-30c0-100.391-66.432-150-135-150c-74.443,0-135,60.557-135,135
			s60.557,135,135,135c30,0,58.374-9.609,82.061-27.803c15.822-12.078,33.94,11.765,18.281,23.789
			C328.353,408.237,293.665,420,257,420c-90.981,0-165-74.019-165-165S166.019,90,257,90c82.897,0,165,61.135,165,180
			C422,303.091,395.091,330,362,330z"/>
			</g>
		</g>
		<g>
		</g>
		<g>
		</g>
		<g>
		</g>
		<g>
		</g>
		<g>
		</g>
		<g>
		</g>
		<g>
		</g>
		<g>
		</g>
		<g>
		</g>
		<g>
		</g>
		<g>
		</g>
		<g>
		</g>
		<g>
		</g>
		<g>
		</g>
		<g>
		</g>
	</symbol>
	<symbol id="circulation" viewBox="0 0 629.7 547.3">
		<circle style='fill:#FF0000;stroke:#23374E;stroke-width:20;stroke-miterlimit:10;' cx="316.3" cy="135" r="125"/>
		<circle style="fill:none;stroke:#23374E;stroke-width:20;stroke-miterlimit:10;" cx="494.7" cy="412.3" r="125"/>
		<circle style="fill:#6EDEFF;stroke:#23374E;stroke-width:20;stroke-miterlimit:10;" cx="135" cy="412.3" r="125"/>
		<path style="fill:#23374E;" d="M316.3,241.7c-6.4,0-10.7-4.3-10.7-10.7v-32c0-6.4,4.3-10.7,10.7-10.7S327,192.6,327,199v32
	C327,237.4,322.7,241.7,316.3,241.7z"/>
		<path style="fill:#23374E;" d="M316.3,81.7c-6.4,0-10.7-4.3-10.7-10.7V39c0-6.4,4.3-10.7,10.7-10.7S327,32.6,327,39v32
	C327,77.4,322.7,81.7,316.3,81.7z"/>
		<path style="fill:#23374E;" d="M135,519c-6.4,0-10.7-4.3-10.7-10.7v-32c0-6.4,4.3-10.7,10.7-10.7s10.7,4.3,10.7,10.7v32
	C145.7,514.7,141.4,519,135,519z"/>
		<path style="fill:#23374E;" d="M135,359c-6.4,0-10.7-4.3-10.7-10.7v-32c0-6.4,4.3-10.7,10.7-10.7s10.7,4.3,10.7,10.7v32
	C145.7,354.7,141.4,359,135,359z"/>
		<path style="fill:#23374E;" d="M497.7,519c-6.4,0-10.7-4.3-10.7-10.7v-32c0-6.4,4.3-10.7,10.7-10.7s10.7,4.3,10.7,10.7v32
	C508.3,514.7,504.1,519,497.7,519z"/>
		<path style="fill:#23374E;" d="M497.7,359c-6.4,0-10.7-4.3-10.7-10.7v-32c0-6.4,4.3-10.7,10.7-10.7s10.7,4.3,10.7,10.7v32
	C508.3,354.7,504.1,359,497.7,359z"/>
		<path style="fill:#23374E;" d="M199.9,94.9c-59.4,39.7-96.9,106-96.9,178.8c0,3.9,1.6,17.1,4.3,8.9c0,0,3.8,1.8,6.3,1.8
	c11.2,3.9,10.7-4.3,10.7-10.7c-0.1-55.9,24.2-109.1,66.7-145.4C192.5,116.6,194.9,105.2,199.9,94.9z"/>
		<path style="fill:#23374E;" d="M437.6,97.3c0.1,0.3,0.3,0.6,0.4,0.9c3.3,9.8,5.1,20.1,5.3,30.4c0,0.1,0,0.1,0,0.2
	c41.4,36.7,65.1,89.4,65,144.8c0,6.4,4.3,10.7,10.7,10.7c12,8.9,10.7-4.3,10.7-10.7C529.7,202.4,493.6,137.3,437.6,97.3z"/>
		<path style="fill:#23374E;" d="M378.8,456c-41.2,13.9-85.8,13.6-126.9-0.7c0,7.2,0,17.1-0.1,22.2c20.9,6.4,42.6,9.6,64.5,9.5
	c21.1,0,42.1-2.9,62.5-8.8C378.7,471.9,378.7,462.1,378.8,456z"/>
		<path style="fill:#23374E;" d="M327,209.7h-53.3c-6.4,0-10.7-4.3-10.7-10.7s4.3-10.7,10.7-10.7H327c12.8,0,21.3-8.5,21.3-21.3
	s-8.5-21.3-21.3-21.3h-21.3c-23.6-0.4-42.4-19.8-42-43.3c0.4-23.1,19-41.7,42-42H359c6.4,0,10.7,4.3,10.7,10.7s-4.3,10.7-10.7,10.7
	h-53.3c-12.8,0-21.3,8.5-21.3,21.3s8.5,21.3,21.3,21.3H327c23.6,0.4,42.4,19.8,42,43.3C368.7,190.7,350.1,209.3,327,209.7z"/>
		<path style="fill:#23374E;" d="M145.7,487H92.3c-6.4,0-10.7-4.3-10.7-10.7s4.3-10.7,10.7-10.7h53.3c12.8,0,21.3-8.5,21.3-21.3
	s-8.5-21.3-21.3-21.3h-21.3c-23.6,0.4-43-18.4-43.3-42c-0.4-23.6,18.4-43,42-43.3c0.4,0,0.9,0,1.3,0h53.3c6.4,0,10.7,4.3,10.7,10.7
	s-4.3,10.7-10.7,10.7h-53.3c-12.8,0-21.3,8.5-21.3,21.3s8.5,21.3,21.3,21.3h21.3c23.6-0.4,43,18.4,43.3,42c0.4,23.6-18.4,43-42,43.3
	C146.5,487,146.1,487,145.7,487z"/>
		<path style="fill:#23374E;" d="M508.3,487H455c-6.4,0-10.7-4.3-10.7-10.7s4.3-10.7,10.7-10.7h53.3c12.8,0,21.3-8.5,21.3-21.3
	s-8.5-21.3-21.3-21.3H487c-23.6,0.4-43-18.4-43.3-42c-0.4-23.6,18.4-43,42-43.3c0.4,0,0.9,0,1.3,0h53.3c6.4,0,10.7,4.3,10.7,10.7
	s-4.3,10.7-10.7,10.7H487c-12.8,0-21.3,8.5-21.3,21.3s8.5,21.3,21.3,21.3h21.3c23.6-0.4,43,18.4,43.3,42c0.4,23.6-18.4,43-42,43.3
	C509.2,487,508.8,487,508.3,487z"/>
	</symbol>
	<symbol id="click" viewBox="0 0 512 512">
		<rect x="16" y="17" style="fill:#6EDEFF;" width="356" height="334"/>
		<path style="fill:#23374E;" d="M181.3,362.7H32c-17.7,0-32-14.3-32-32V32C0,14.3,14.3,0,32,0h320c17.7,0,32,14.3,32,32v192
	c0.2,5.9-4.4,10.8-10.3,11c-5.9,0.2-10.8-4.4-11-10.3c0-0.2,0-0.4,0-0.7V32c0-5.9-4.8-10.7-10.7-10.7H32c-5.9,0-10.7,4.8-10.7,10.7
	v298.7c0,5.9,4.8,10.7,10.7,10.7h149.3c5.9,0,10.7,4.8,10.7,10.7C192,357.9,187.2,362.7,181.3,362.7L181.3,362.7z"/>
		<path style="fill:#23374E;" d="M160,234.7c-5.9,0-10.7-4.8-10.7-10.7v-74.7c0-11.8-9.5-21.3-21.3-21.3s-21.3,9.5-21.3,21.3V224
	c0,5.9-4.8,10.7-10.7,10.7c-5.9,0-10.7-4.8-10.7-10.7v-74.7c0-23.6,19.1-42.7,42.7-42.7c23.6,0,42.7,19.1,42.7,42.7V224
	C170.7,229.9,165.9,234.7,160,234.7z"/>
		<path style="fill:#23374E;" d="M160,192H96c-5.9,0.2-10.8-4.4-11-10.3c-0.2-5.9,4.4-10.8,10.3-11c0.2,0,0.4,0,0.7,0h64
	c5.9-0.2,10.8,4.4,11,10.3c0.2,5.9-4.4,10.8-10.3,11C160.4,192,160.2,192,160,192z"/>
		<path style="fill:#23374E;" d="M245.3,234.7H224c-5.9,0-10.7-4.8-10.7-10.7V117.3c0-5.9,4.8-10.7,10.7-10.7h21.3c29.4,0,53.3,23.9,53.3,53.3
	v21.3C298.6,210.8,274.8,234.6,245.3,234.7z M234.7,213.3h10.7c17.7,0,32-14.3,32-32v0V160c0-17.7-14.3-32-32-32h-10.7V213.3z"/>
		<path style="fill:#23374E;" d="M385.8,370.5c-2.8,0-5.5-1.1-7.5-3.1L333,322.1c-4.2-4.2-10.9-4.2-15.1,0c-4.2,4.2-4.2,10.9,0,15.1l0,0
	c4.3,4.1,4.4,10.8,0.4,15.1c-4.1,4.3-10.8,4.4-15.1,0.4c-0.1-0.1-0.3-0.3-0.4-0.4c-12.7-12.3-13-32.6-0.6-45.3
	c12.3-12.7,32.6-13,45.3-0.6c0.2,0.2,0.4,0.4,0.7,0.7l45.3,45.3c4.2,4.1,4.2,10.9,0,15C391.4,369.4,388.6,370.5,385.8,370.5
	L385.8,370.5z"/>
		<path style="fill:#23374E;" d="M416,340.3c-2.8,0-5.5-1.1-7.5-3.1L378.3,307c-4.2-4.2-10.9-4.2-15.1,0s-4.2,10.9,0,15.1l0,0
	c4.1,4.3,3.9,11-0.4,15.1c-4.1,3.9-10.6,3.9-14.7,0c-12.1-12.9-11.5-33.1,1.4-45.2c12.3-11.6,31.6-11.6,43.9,0l30.2,30.2
	c4.2,4.2,4.2,10.9,0,15.1C421.5,339.2,418.8,340.4,416,340.3L416,340.3z"/>
		<path style="fill:#23374E;" d="M389.8,512c-7.9,0-15.9-1-23.5-3l-74.4-19c-2.8-0.7-5.1-2.5-6.6-5c-5.1-8.7-10.3-29.5,6.2-46.1
	c7.3-7.3,17.2-10.2,26.9-10.8l-91-91c-11.9-13.1-10.9-33.3,2.2-45.2c12.2-11.1,30.9-11.1,43.1,0.1l90.5,90.5
	c4.2,4.2,4.2,10.9,0,15.1s-10.9,4.2-15.1,0l0,0l-90.5-90.5c-4.2-4.2-10.9-4.2-15.1,0c-4.2,4.2-4.2,10.9,0,15.1l113.1,113.1
	c4.2,4.2,4.2,10.9,0,15.1c-2.9,2.8-7.1,3.8-10.9,2.6c-9.1-3-30.4-6.6-38.1,1.2c-4.5,4.2-6.2,10.7-4.4,16.6l69.3,17.7
	c25.5,6.4,52.6-1,71.2-19.6l26-26c29.2-29.2,29.2-76.4,0-105.6c0,0,0,0,0,0l-45.3-45.3c-4.2-4.1-10.9-4.1-15.1,0
	c-4.2,4.1-4.2,10.9-0.1,15c0,0,0,0,0.1,0.1c4.2,4.2,4.2,10.9,0,15.1s-10.9,4.2-15.1,0c-12.5-12.5-12.5-32.8,0-45.3
	c12.5-12.5,32.8-12.5,45.3,0l45.3,45.3c37.5,37.5,37.5,98.3,0,135.8c0,0,0,0,0,0l-26,26C439.8,501.9,415.3,512,389.8,512z"/>
		<polygon style="fill:none;stroke:#000000;stroke-miterlimit:10;" points="416,340.3 416,340.3 416,340.3 "/>
		<path style="fill:#FFFFFF;" d="M468.8,442.8l-26,26c-18.7,18.6-45.7,26-71.2,19.6l-69.3-17.7c-1.8-5.9-0.1-12.3,4.4-16.5
	c7.8-7.8,29-4.2,38.1-1.2c5.6,1.9,11.6-1.2,13.5-6.7c1.3-3.8,0.3-8.1-2.6-10.9L242.5,322.1c-4.1-4.3-3.9-11,0.4-15.1
	c4.1-3.9,10.6-3.9,14.7,0l90.5,90.5c4.2,4.2,10.9,4.2,15.1,0s4.2-10.9,0-15.1l0,0l-45.3-45.3c-4-4.4-3.6-11.1,0.7-15.1
	c4.1-3.7,10.3-3.7,14.3,0l45.3,45.2c2,2,4.7,3.1,7.5,3.1l0,0c5.9,0,10.7-4.7,10.7-10.6c0-2.8-1.1-5.6-3.1-7.6l-30-30l-0.2-0.2
	c-4.2-4.2-4.2-10.9,0-15.1s10.9-4.2,15.1,0l0,0l30.2,30.2c4.2,4.2,10.9,4.2,15.1,0s4.2-10.9,0-15.1L409,307.6
	c-0.2-0.2-0.4-0.5-0.6-0.7c-4.2-4.2-4.2-10.9,0-15.1s10.9-4.2,15.1,0l45.3,45.3C498,366.4,498,413.6,468.8,442.8
	C468.8,442.8,468.8,442.8,468.8,442.8L468.8,442.8z"/>
	</symbol>
	<symbol id="clock" viewBox="0 0 443.294 443.294">
		<path d="m221.647 0c-122.214 0-221.647 99.433-221.647 221.647s99.433 221.647 221.647 221.647 221.647-99.433 221.647-221.647-99.433-221.647-221.647-221.647zm0 415.588c-106.941 0-193.941-87-193.941-193.941s87-193.941 193.941-193.941 193.941 87 193.941 193.941-87 193.941-193.941 193.941z"/>
		<path d="m235.5 83.118h-27.706v144.265l87.176 87.176 19.589-19.589-79.059-79.059z"/>
	</symbol>
	<symbol id="credit-cards" viewBox="0 0 480.5 480">
		<rect x="16" y="264" style="fill:#FF0000;" width="408" height="48"/>
		<polygon style="fill:#6EDEFF;stroke:#000000;stroke-miterlimit:10;" points="130.4,167.8 183.9,141.1 194.9,168.6 141.4,195.3 "/>
		<path style="v" d="M126.1,200H84l-9.5-25.2c-6.7-17.8,1.9-37.6,19.5-44.8L362.2,18.8c17.9-7.4,38.5,1.1,45.9,19
	c0.1,0.3,0.2,0.6,0.3,0.8l53.7,139.6c6.8,17.9-1.9,37.9-19.6,45.2l-8.4,3.4c-8.6-16.4-25.6-26.7-44.2-26.8H167.8l40.8-20.4
	c3.7-1.9,5.4-6.3,3.9-10.1l-17-42.4c-1.6-4.1-6.3-6.1-10.4-4.5c-0.2,0.1-0.4,0.2-0.6,0.3l-67.8,33.9c-3.7,1.9-5.4,6.3-3.8,10.1
	L126.1,200"/>
		<path style="fill:#23374E;" d="M477.1,172.4L423.5,32.8C413.3,6.4,383.6-6.7,357.3,3.4l-1.1,0.5L87.9,115.1c-25.5,10.5-38.1,39.4-28.3,65.2
	l7.4,19.7H50c-27.6,0-50,22.4-50,50v180c0,27.6,22.4,50,50,50h340c27.6,0,50-22.4,50-50V250c0-2.7-0.3-5.4-0.7-8.1l9.3-3.8
	C474.3,227.6,487,198.4,477.1,172.4z M50,216h340c18,0,32.8,14.1,33.8,32H16.2C17.2,230.1,32,216,50,216z M130.4,167.8l53.5-26.8
	l11,27.5l-53.5,26.7L130.4,167.8z M424,430c0,18.8-15.2,34-34,34H50c-18.8,0-34-15.2-34-34V328h408V430z M424,312H16v-48h408V312z
	 M126,200H84l-9.5-25.2c-6.7-17.8,1.9-37.6,19.5-44.8L362.2,18.8c17.9-7.4,38.5,1.1,45.9,19c0.1,0.3,0.2,0.6,0.3,0.8l53.7,139.6
	c6.8,17.9-1.9,37.9-19.6,45.2l-8.4,3.4c-8.6-16.4-25.6-26.7-44.2-26.8H167.8l40.8-20.4c3.7-1.9,5.4-6.3,3.9-10.1l-17-42.4
	c-1.6-4.1-6.3-6.1-10.4-4.5c-0.2,0.1-0.4,0.2-0.6,0.3l-67.8,33.9c-3.7,1.9-5.4,6.3-3.8,10.1L126,200"/>
		<path style="fill:#23374E;" d="M287.8,441.5c14.9,8.7,33.3,8.7,48.2,0c22.9,13.3,52.3,5.5,65.6-17.4c13.3-22.9,5.5-52.3-17.4-65.6
	c-14.9-8.7-33.3-8.7-48.2,0c-23-13.1-52.4-5-65.4,18C257.6,399.3,265.3,428.1,287.8,441.5z M349.4,370c16.6-6.1,35,2.5,41,19.1
	c6.1,16.6-2.5,35-19.1,41c-7.1,2.6-14.9,2.6-22,0C363.5,412.5,363.5,387.5,349.4,370z M336,379.1c10.7,11.9,10.7,30,0,41.9
	C325.3,409,325.3,391,336,379.1z M312,368c3.6,0,7.2,0.7,10.6,2c-14.2,17.5-14.2,42.6,0,60.1c-16.6,5.9-34.9-2.8-40.8-19.5
	s2.8-34.9,19.5-40.8C304.7,368.6,308.4,368,312,368L312,368z"/>
		<rect x="337.1" y="147.4" transform="matrix(0.9138 -0.4063 0.4063 0.9138 -30.4642 167.3206)" style="fill:#23374E;" width="83.5" height="16"/>
		<rect x="284.3" y="122" transform="matrix(0.9079 -0.4191 0.4191 0.9079 -22.7161 156.5578)" style="fill:#23374E;" width="121.4" height="16"/>
	</symbol>
	<symbol id="deny" viewBox="0 0 60 60">
		<g id="Page-1">
			<g id="_009---No-Chat" data-name="009---No-Chat">
				<path id="Shape" d="M11.3,46.11h0a1,1,0,0,0,.71-.29l3.73-3.73a1,1,0,0,0-1.42-1.42L11.44,43.6A23,23,0,0,1,43.6,11.45l-3.94,3.93a1,1,0,0,0-.26,1,1,1,0,0,0,.71.71,1,1,0,0,0,1-.26l4.74-4.74a1,1,0,0,0-.08-1.48A25,25,0,0,0,10.57,45.74,1,1,0,0,0,11.3,46.11Z" transform="translate(0 0)"/>
				<path id="Shape-2" data-name="Shape" d="M44.3,19.24a1,1,0,0,0,1.41,0l2.85-2.84A23,23,0,0,1,16.4,48.55l4-3.95a1,1,0,0,0-1.42-1.41L14.18,48a1,1,0,0,0-.29.75,1,1,0,0,0,.37.73A25,25,0,0,0,49.43,14.26a1,1,0,0,0-1.49-.08L44.3,17.82A1,1,0,0,0,44.3,19.24Z" transform="translate(0 0)"/>
				<path id="Shape-3" data-name="Shape" d="M7.67,50A30,30,0,1,0,8.79,8.79,30,30,0,0,0,7.67,50ZM10.2,10.2a28,28,0,0,1,39.6,0h0a28,28,0,1,1-39.61,0Z" transform="translate(0 0)"/>
				<path id="Shape-4" data-name="Shape" d="M44.19,36V24a5,5,0,0,0-5-5H21a5,5,0,0,0-5,5V36a5,5,0,0,0,5,5H32.55l3.84,4.32a2,2,0,0,0,3.49-1.52L39.59,41A5,5,0,0,0,44.19,36Zm-2,0a3,3,0,0,1-3,3h-.7a1,1,0,0,0-.75.33,1,1,0,0,0-.25.77l.39,3.9-4.14-4.66A1,1,0,0,0,33,39H21a3,3,0,0,1-3-3V24a3,3,0,0,1,3-3H39.19a3,3,0,0,1,3,3Z" transform="translate(0 0)"/>
				<path id="Shape-5" data-name="Shape" d="M22,26h3a1,1,0,0,0,0-2H22a1,1,0,0,0,0,2Z" transform="translate(0 0)"/>
				<path id="Shape-6" data-name="Shape" d="M38,24H29a1,1,0,0,0,0,2h9a1,1,0,0,0,0-2Z" transform="translate(0 0)"/>
				<path id="Shape-7" data-name="Shape" d="M38,29H35a1,1,0,0,0,0,2h3a1,1,0,0,0,0-2Z" transform="translate(0 0)"/>
				<path id="Shape-8" data-name="Shape" d="M22,31h9a1,1,0,0,0,0-2H22a1,1,0,0,0,0,2Z" transform="translate(0 0)"/>
				<path id="Shape-9" data-name="Shape" d="M25,34H22a1,1,0,0,0,0,2h3a1,1,0,0,0,0-2Z" transform="translate(0 0)"/>
				<path id="Shape-10" data-name="Shape" d="M38,34H29a1,1,0,0,0,0,2h9a1,1,0,0,0,0-2Z" transform="translate(0 0)"/>
			</g>
		</g>
		<path d="M10.2,10.21a28,28,0,0,1,39.6,0h0a28,28,0,1,1-39.61,0Zm10.14,33a1,1,0,0,0-1.4,0L14.18,48a1,1,0,0,0,.08,1.49A25,25,0,0,0,49.43,14.27a1,1,0,0,0-1.49-.08L44.3,17.83a1,1,0,0,0,0,1.41l-4.19-2.17a1,1,0,0,0,1-.26l4.74-4.74a1,1,0,0,0,.29-.76,1,1,0,0,0-.37-.73A25,25,0,0,0,10.57,45.75a1,1,0,0,0,.73.37h0a1,1,0,0,0,.71-.3l3.73-3.73a1,1,0,0,0,0-1.4Z" transform="translate(0 0)" style="fill:#ff0000;"/>
	</symbol>
	<symbol id="email" viewBox="0 0 512 390">
		<rect x="21" y="20" width="468" height="348" style="fill:none"/>
		<path d="M467,61H45A45.08,45.08,0,0,0,0,106V406a45.07,45.07,0,0,0,45,45H467a45.07,45.07,0,0,0,45-45V106A45.07,45.07,0,0,0,467,61Zm-6.21,30L257,294.83,51.36,91ZM30,399.79V112.07L174.48,255.31ZM51.21,421,195.78,276.43l50.66,50.22a15,15,0,0,0,21.17,0L317,277.21,460.79,421ZM482,399.79,338.21,256,482,112.21Z" transform="translate(0 -61)"/>
	</symbol>
	<symbol id="facebook" viewBox="0 0 97.75 97.75">
		<g>
			<path d="M48.875,0C21.882,0,0,21.882,0,48.875S21.882,97.75,48.875,97.75S97.75,75.868,97.75,48.875S75.868,0,48.875,0z
		 M67.521,24.89l-6.76,0.003c-5.301,0-6.326,2.519-6.326,6.215v8.15h12.641L67.07,52.023H54.436v32.758H41.251V52.023H30.229V39.258
		h11.022v-9.414c0-10.925,6.675-16.875,16.42-16.875l9.851,0.015V24.89L67.521,24.89z"/>
		</g>
		<g>
		</g>
		<g>
		</g>
		<g>
		</g>
		<g>
		</g>
		<g>
		</g>
		<g>
		</g>
		<g>
		</g>
		<g>
		</g>
		<g>
		</g>
		<g>
		</g>
		<g>
		</g>
		<g>
		</g>
		<g>
		</g>
		<g>
		</g>
		<g>
		</g>
	</symbol>
	<symbol id="high" viewBox="0 0 24 24">
		<path d="m7.5 24h-5c-.276 0-.5-.224-.5-.5v-5c0-.276.224-.5.5-.5h5c.276 0 .5.224.5.5v5c0 .276-.224.5-.5.5zm-4.5-1h4v-4h-4z"/>
		<path d="m15.5 24h-5c-.133 0-.261-.053-.354-.147s-.147-.223-.146-.356l.06-10c.002-.275.225-.497.5-.497h4.94c.276 0 .5.224.5.5v10c0 .276-.224.5-.5.5zm-4.497-1h3.997v-9h-3.943z"/>
		<path d="m23.5 24h-5c-.276 0-.5-.224-.5-.5v-15c0-.276.224-.5.5-.5h5c.276 0 .5.224.5.5v15c0 .276-.224.5-.5.5zm-4.5-1h4v-14h-4z"/>
		<path d="m7.258 11.838c-.128 0-.256-.049-.354-.146l-3.596-3.597c-.188-.188-.196-.491-.018-.688l2.946-3.271c2.093-2.417 5.413-4.083 8.255-4.136.123-.016.267.051.363.146.096.097.148.228.146.363-.053 2.842-1.719 6.162-4.144 8.261l-3.264 2.94c-.094.086-.214.128-.334.128zm-2.907-4.114 2.926 2.926 2.918-2.629c2.076-1.797 3.542-4.542 3.774-6.99-2.448.232-5.192 1.698-6.983 3.767z"/>
		<path d="m8.604 14.21c-.045 0-.091-.006-.136-.019-.174-.05-.308-.188-.351-.365l-.707-2.95c-.064-.268.102-.538.37-.603.272-.063.539.102.603.37l.469 1.959c.869-1.359 1.042-3.098 1.06-4.115.005-.276.23-.492.509-.491.276.004.496.233.491.508-.042 2.366-.736 4.34-1.955 5.559-.095.095-.223.147-.353.147z"/>
		<path d="m4.241 7.603c-.039 0-.078-.004-.117-.014l-2.95-.707c-.176-.042-.316-.175-.365-.35-.049-.174 0-.361.127-.489 1.219-1.219 3.193-1.913 5.56-1.955.265-.025.504.215.508.491s-.214.504-.491.509c-1.018.018-2.756.191-4.115 1.06l1.959.469c.268.064.434.334.37.603-.056.229-.26.383-.486.383z"/>
		<path d="m.5 15c-.131 0-.258-.052-.354-.146-.13-.13-.178-.321-.125-.497.165-.552 1.023-3.338 1.695-4.01.809-.81 2.126-.811 2.938 0 .81.81.81 2.128 0 2.938-.671.672-3.458 1.529-4.01 1.694-.048.014-.096.021-.144.021zm2.685-4.261c-.276 0-.552.105-.762.315-.284.284-.772 1.536-1.154 2.677 1.141-.382 2.394-.87 2.677-1.153.42-.42.42-1.104 0-1.523-.21-.211-.486-.316-.761-.316z"/>
	</symbol>
	<symbol id="instagram" viewBox="0 0 512 512">
		<path d="m305 256c0 27.0625-21.9375 49-49 49s-49-21.9375-49-49 21.9375-49 49-49 49 21.9375 49 49zm0 0"/>
		<path d="m370.59375 169.304688c-2.355469-6.382813-6.113281-12.160157-10.996094-16.902344-4.742187-4.882813-10.515625-8.640625-16.902344-10.996094-5.179687-2.011719-12.960937-4.40625-27.292968-5.058594-15.503906-.707031-20.152344-.859375-59.402344-.859375-39.253906 0-43.902344.148438-59.402344.855469-14.332031.65625-22.117187 3.050781-27.292968 5.0625-6.386719 2.355469-12.164063 6.113281-16.902344 10.996094-4.882813 4.742187-8.640625 10.515625-11 16.902344-2.011719 5.179687-4.40625 12.964843-5.058594 27.296874-.707031 15.5-.859375 20.148438-.859375 59.402344 0 39.25.152344 43.898438.859375 59.402344.652344 14.332031 3.046875 22.113281 5.058594 27.292969 2.359375 6.386719 6.113281 12.160156 10.996094 16.902343 4.742187 4.882813 10.515624 8.640626 16.902343 10.996094 5.179688 2.015625 12.964844 4.410156 27.296875 5.0625 15.5.707032 20.144532.855469 59.398438.855469 39.257812 0 43.90625-.148437 59.402344-.855469 14.332031-.652344 22.117187-3.046875 27.296874-5.0625 12.820313-4.945312 22.953126-15.078125 27.898438-27.898437 2.011719-5.179688 4.40625-12.960938 5.0625-27.292969.707031-15.503906.855469-20.152344.855469-59.402344 0-39.253906-.148438-43.902344-.855469-59.402344-.652344-14.332031-3.046875-22.117187-5.0625-27.296874zm-114.59375 162.179687c-41.691406 0-75.488281-33.792969-75.488281-75.484375s33.796875-75.484375 75.488281-75.484375c41.6875 0 75.484375 33.792969 75.484375 75.484375s-33.796875 75.484375-75.484375 75.484375zm78.46875-136.3125c-9.742188 0-17.640625-7.898437-17.640625-17.640625s7.898437-17.640625 17.640625-17.640625 17.640625 7.898437 17.640625 17.640625c-.003906 9.742188-7.898437 17.640625-17.640625 17.640625zm0 0"/>
		<path d="m256 0c-141.363281 0-256 114.636719-256 256s114.636719 256 256 256 256-114.636719 256-256-114.636719-256-256-256zm146.113281 316.605469c-.710937 15.648437-3.199219 26.332031-6.832031 35.683593-7.636719 19.746094-23.246094 35.355469-42.992188 42.992188-9.347656 3.632812-20.035156 6.117188-35.679687 6.832031-15.675781.714844-20.683594.886719-60.605469.886719-39.925781 0-44.929687-.171875-60.609375-.886719-15.644531-.714843-26.332031-3.199219-35.679687-6.832031-9.8125-3.691406-18.695313-9.476562-26.039063-16.957031-7.476562-7.339844-13.261719-16.226563-16.953125-26.035157-3.632812-9.347656-6.121094-20.035156-6.832031-35.679687-.722656-15.679687-.890625-20.6875-.890625-60.609375s.167969-44.929688.886719-60.605469c.710937-15.648437 3.195312-26.332031 6.828125-35.683593 3.691406-9.808594 9.480468-18.695313 16.960937-26.035157 7.339844-7.480469 16.226563-13.265625 26.035157-16.957031 9.351562-3.632812 20.035156-6.117188 35.683593-6.832031 15.675781-.714844 20.683594-.886719 60.605469-.886719s44.929688.171875 60.605469.890625c15.648437.710937 26.332031 3.195313 35.683593 6.824219 9.808594 3.691406 18.695313 9.480468 26.039063 16.960937 7.476563 7.34375 13.265625 16.226563 16.953125 26.035157 3.636719 9.351562 6.121094 20.035156 6.835938 35.683593.714843 15.675781.882812 20.683594.882812 60.605469s-.167969 44.929688-.886719 60.605469zm0 0"/>
	</symbol>
	<symbol id="money-bag" viewBox="0 0 512 512">
		<g>
			<g>
				<path d="M256,317c-8.271,0-15-6.729-15-15c0-6.042,3.595-11.468,9.159-13.825c6.717-2.844,14.755-0.417,22.059,6.659
			c5.95,5.764,15.446,5.614,21.21-0.335c5.765-5.95,5.614-15.446-0.335-21.21c-6.772-6.561-14.3-11.198-22.093-13.815V242
			c0-8.284-6.716-15-15-15s-15,6.716-15,15v17.571c-0.851,0.303-1.699,0.623-2.54,0.979C221.779,267.615,211,283.885,211,302
			c0,24.813,20.187,45,45,45c8.271,0,15,6.729,15,15c0,6.286-3.965,11.954-9.866,14.103c-7.705,2.805-16.674-1-24.606-10.445
			c-5.328-6.344-14.789-7.167-21.133-1.839s-7.167,14.79-1.839,21.133c8.109,9.655,17.548,16.276,27.445,19.608V422
			c0,8.284,6.716,15,15,15s15-6.716,15-15v-17.573c0.134-0.047,0.268-0.088,0.401-0.136C289.105,397.843,301,380.847,301,362
			C301,337.187,280.813,317,256,317z"/>
			</g>
		</g>
		<g>
			<g>
				<path d="M394.919,225.259c-17.828-21.933-38.208-39.407-60.58-51.973c3.664-4.335,6.555-9.418,8.422-15.083
			c7.326-22.309-3.375-48.809-30.688-57.442l38.289-66.765c4.831-8.426,0.491-19.158-8.824-21.866C313.854,4.081,285.076,0,256,0
			s-57.854,4.081-85.538,12.13c-9.326,2.711-13.649,13.45-8.824,21.866l38.289,66.766c-27.205,8.589-38.041,35.05-30.684,57.453
			c1.861,5.65,4.751,10.73,8.426,15.067c-22.375,12.566-42.757,30.042-60.587,51.977C81.441,269.106,61,324.413,61,377
			c0,109.091,87.047,135,195,135c108.029,0,195-25.953,195-135C451,324.413,430.559,269.106,394.919,225.259z M197.496,36.218
			C216.633,32.087,236.238,30,256,30c19.762,0,39.367,2.087,58.504,6.218L281.471,93.82c-16.919-2.362-34.018-2.361-50.941,0.001
			L197.496,36.218z M207.296,129.896c25.815-8.468,52.823-10.073,79.08-4.824c0.031,0.006,0.063,0.012,0.094,0.018
			c6.12,1.228,12.199,2.826,18.213,4.799c7.861,2.591,12.157,11.094,9.58,18.941c-1.873,5.683-6.818,9.597-12.635,10.231
			C286.672,154.378,271.417,152,256,152c-15.386,0-30.611,2.368-45.538,7.032c-5.907-0.608-10.864-4.55-12.721-10.188
			C195.16,140.983,199.456,132.479,207.296,129.896z M256,482.2c-117.196,0-165-30.62-165-105.2
			c0-45.142,18.453-94.793,49.36-132.818C172.955,204.083,214.023,182,256,182c46.206,0,86.621,26.482,115.64,62.182
			C402.547,282.207,421,331.858,421,377C421,451.58,373.196,482.2,256,482.2z"/>
			</g>
		</g>
		<g>
		</g>
		<g>
		</g>
		<g>
		</g>
		<g>
		</g>
		<g>
		</g>
		<g>
		</g>
		<g>
		</g>
		<g>
		</g>
		<g>
		</g>
		<g>
		</g>
		<g>
		</g>
		<g>
		</g>
		<g>
		</g>
		<g>
		</g>
		<g>
		</g>
	</symbol>
	<symbol id="online-payment" viewBox="0 0 449.7 512">
		<path style="fill:#FF0000;" d="M384.7,312.7c-8.3,0-15-6.7-15-15s6.7-15,15-15s15,6.7,15,15l0,0l0,0C399.7,306,393,312.7,384.7,312.7z"/>
		<path style="fill:#FF0000;" d="M340.7,312.7c-8.3,0-15-6.7-15-15s6.7-15,15-15s15,6.7,15,15l0,0l0,0C355.7,306,349,312.7,340.7,312.7z"/>
		<path style="fill:#6EDEFF;" d="M293.3,489.5c0,5-4,9-9,9H23c-5,0-9-4-9-9v-466c0-5,4-9,9-9h39.9l26.3,26.3c8.8,8.8,20.8,13.8,33.2,13.8h62.5
	c12.5,0,24.4-4.9,33.2-13.8l26.3-26.3h39.9c5,0,9,4,9,9l0,0v131.3H160.7v-22.7c0-3.9-3.1-7-7-7s-7,3.1-7,7v248.7c0,3.9,3.1,7,7,7
	s7-3.1,7-7v-22.7h132.7V489.5z"/>
		<path style="fill:#23374E;" d="M122.7,426c-12.7,0-23,10.3-23,23s10.3,23,23,23h62c12.7,0,23-10.3,23-23s-10.3-23-23-23H122.7z M193.7,449
	c0,5-4,9-9,9h-62c-5,0-9-4-9-9s4-9,9-9h62C189.6,440,193.7,444,193.7,449z"/>
		<path style="fill:#23374E;" d="M442.7,154.3H307.3V23c0-12.7-10.3-23-23-23H23C10.3,0,0,10.3,0,23v466c0,12.7,10.3,23,23,23h261.3
	c12.7,0,23-10.3,23-23V357.7h135.4c3.9,0,7-3.1,7-7l0,0V161.3C449.7,157.5,446.6,154.3,442.7,154.3z M435.7,195.5h-275v-27.2h275
	V195.5z M435.7,233.5h-275v-24h275V233.5z M224.6,14l-16.4,16.3c-6.2,6.2-14.6,9.7-23.3,9.7h-62.5c-8.8,0-17.1-3.5-23.3-9.7L82.7,14
	H224.6z M293.3,489c0,5-4,9-9,9l0,0H23c-5,0-9-4-9-9l0,0V23c0-5,4-9,9-9h39.9l26.3,26.3C98,49.1,109.9,54,122.4,54h62.5
	c12.5,0,24.4-4.9,33.2-13.8L244.4,14h39.9c5,0,9,4,9,9l0,0v131.3H160.7v-22.7c0-3.9-3.1-7-7-7s-7,3.1-7,7v248.7c0,3.9,3.1,7,7,7
	s7-3.1,7-7v-22.7h132.7L293.3,489z M160.7,343.7v-96.2h275v96.2L160.7,343.7z"/>
		<path style="fill:#23374E;" d="M384.7,268.7c-8.5,0-16.5,3.7-22,10.1c-10.4-12.2-28.7-13.6-40.9-3.2s-13.6,28.7-3.2,40.9
	c10.4,12.2,28.7,13.6,40.9,3.2c1.1-1,2.2-2.1,3.2-3.2c10.4,12.2,28.7,13.6,40.9,3.2c12.2-10.4,13.6-28.7,3.2-40.9
	C401.3,272.4,393.2,268.7,384.7,268.7z M340.7,312.7c-8.3,0-15-6.7-15-15s6.7-15,15-15s15,6.7,15,15l0,0l0,0
	C355.7,306,349,312.7,340.7,312.7z M384.7,312.7c-8.3,0-15-6.7-15-15s6.7-15,15-15s15,6.7,15,15l0,0l0,0
	C399.7,306,393,312.7,384.7,312.7z"/>
		<path style="fill:#23374E;" d="M239,290.7h-47c-3.9,0-7,3.1-7,7s3.1,7,7,7h47c3.9,0,7-3.1,7-7S242.9,290.7,239,290.7z"/>
	</symbol>
	<symbol id="papers" viewBox="0 0 512 507.02">
		<path d="M183.28,251.74V400.05a12.85,12.85,0,0,0,12.82,12.86H336.92l-94.55,16.2-78,13.39L135.14,271.83,102.87,83.7l80.41-13.78v147m7.5,27.3v-19.8l-7.5-7.5v34.8" transform="translate(0 -2.49)" style="fill:#ff0000"/>
		<path d="M507.79,64.62,447.34,7c-2.3-2.21-4.68-4.49-9.12-4.49H196.1a12.84,12.84,0,0,0-12.82,12.83V54.7L97.94,69.33A12.64,12.64,0,0,0,87.69,83.91L92,109.16c-27.74,9.33-56.21,19-83.71,28.83A12.7,12.7,0,0,0,.73,154.12l54.68,152a7.5,7.5,0,1,0,14.12-5.08L15.65,151.29C41.55,142,68.37,133,94.59,124.12l25.77,150.25L150,447.4a12.7,12.7,0,0,0,12.5,10.45,12.24,12.24,0,0,0,2.08-.17l80.32-13.78,62.76-10.76-94.39,33.93-74.44,26.76L81,333a7.5,7.5,0,1,0-14.11,5.08l58.63,163.07a12.57,12.57,0,0,0,16.13,7.56l76.67-27.56,174.09-62.58,33.26-5.7h73.47A12.86,12.86,0,0,0,512,400.06v-327c0-4.49-2.44-6.78-4.21-8.45ZM487.92,66.4H449.46c-1.8,0-6,0-7.08-1a4.26,4.26,0,0,1-.53-2.58l-.09-40.41ZM497,397.91H198.28V251.74a7.5,7.5,0,0,0-15,0V400.05a12.85,12.85,0,0,0,12.82,12.86H336.92l-94.55,16.2-78,13.39L135.14,271.83,102.87,83.7l80.41-13.78v147a7.5,7.5,0,0,0,15,0V17.49H426.75l.1,45.33c0,5.49,1.67,9.94,5,13.21,5.06,5,12.22,5.37,16.66,5.37H497Z" transform="translate(0 -2.49)"/>
		<path d="M234.43,119a7.5,7.5,0,0,0,7.5,7.5H456.37a7.5,7.5,0,0,0,0-15H241.93A7.5,7.5,0,0,0,234.43,119Z" transform="translate(0 -2.49)"/>
		<path d="M456.37,164.73H241.93a7.5,7.5,0,0,0,0,15H456.37a7.5,7.5,0,0,0,0-15Z" transform="translate(0 -2.49)"/>
		<path d="M456.37,218H241.93a7.5,7.5,0,0,0,0,15H456.37a7.5,7.5,0,0,0,0-15Z" transform="translate(0 -2.49)"/>
		<path d="M456.37,271.3H241.93a7.5,7.5,0,0,0,0,15H456.37a7.5,7.5,0,0,0,0-15Z" transform="translate(0 -2.49)"/>
		<path d="M456.37,324.58H241.93a7.5,7.5,0,0,0,0,15H456.37a7.5,7.5,0,0,0,0-15Z" transform="translate(0 -2.49)"/>
	</symbol>
	<symbol id="phone" viewBox="0 0 512 512">
		<g>
			<g>
				<path d="M436.992,74.953c-99.989-99.959-262.08-99.935-362.039,0.055s-99.935,262.08,0.055,362.039s262.08,99.935,362.039-0.055
			c48.006-48.021,74.968-113.146,74.953-181.047C511.986,188.055,485.005,122.951,436.992,74.953z M387.703,356.605
			c-0.011,0.011-0.022,0.023-0.034,0.034v-0.085l-12.971,12.885c-16.775,16.987-41.206,23.976-64.427,18.432
			c-23.395-6.262-45.635-16.23-65.877-29.525c-18.806-12.019-36.234-26.069-51.968-41.899
			c-14.477-14.371-27.483-30.151-38.827-47.104c-12.408-18.242-22.229-38.114-29.184-59.051
			c-7.973-24.596-1.366-51.585,17.067-69.717l15.189-15.189c4.223-4.242,11.085-4.257,15.326-0.034
			c0.011,0.011,0.023,0.022,0.034,0.034l47.957,47.957c4.242,4.223,4.257,11.085,0.034,15.326c-0.011,0.011-0.022,0.022-0.034,0.034
			l-28.16,28.16c-8.08,7.992-9.096,20.692-2.389,29.867c10.185,13.978,21.456,27.131,33.707,39.339
			c13.659,13.718,28.508,26.197,44.373,37.291c9.167,6.394,21.595,5.316,29.525-2.56l27.221-27.648
			c4.223-4.242,11.085-4.257,15.326-0.034c0.011,0.011,0.022,0.022,0.034,0.034l48.043,48.128
			C391.911,345.502,391.926,352.363,387.703,356.605z"/>
			</g>
		</g>
		<g>
		</g>
		<g>
		</g>
		<g>
		</g>
		<g>
		</g>
		<g>
		</g>
		<g>
		</g>
		<g>
		</g>
		<g>
		</g>
		<g>
		</g>
		<g>
		</g>
		<g>
		</g>
		<g>
		</g>
		<g>
		</g>
		<g>
		</g>
		<g>
		</g>
	</symbol>
	<symbol id="piggy-bank" viewBox="0 0 492.363 492.363">
		<g>
			<g>
				<path d="M474.3,133.981l-0.1-0.1c-4.1-3.7-10.4-3.7-14.3,0.2c-3.9,3.9-3.9,10.2,0,14.1c16.4,16.4,16.4,43,0,59.4
			c-16.4,16.4-43,16.4-59.4,0c-0.2-0.2-0.3-0.3-0.5-0.4c-15-21-34.2-38.6-56.3-51.7c22.9-54-2.4-116.3-56.4-139.1
			c-54-22.8-116.3,2.4-139.1,56.4c-4.6,11-7.4,22.7-8.2,34.6c-10.6-3-19.1-4.4-25.7-4.2c-10.6,0.1-18.4,6.7-19.6,16.4
			c-0.7,4.3-0.2,10.6,2.1,31.1l2.1,19.6c-19.2,15.6-34.3,33.8-45.2,54.2l-29,5.7c-14.4,2.9-24.7,15.6-24.7,30.2v64.3
			c0,14.7,10.3,27.3,24.7,30.2l29.1,5.8c5.7,11.2,12.7,21.7,20.9,31.3c-10.8,26.8-2.8,57.5,19.6,75.8c13.3,10.8,30,16.7,47.1,16.6
			c19.5,0,38.3-7.4,52.6-20.7l7-6.6c25.8,3.9,52.2,3,77.7-2.4l9.9,9.5c13.7,12.9,31.9,20.1,50.7,19.9h2.1c0.1,0,0.2,0,0.3,0
			c19.6-0.5,38.2-8.7,51.8-22.9c21-22.2,23.5-55.6,6.9-81.8c18.8-26.2,28.7-56.2,28.7-87.2v-7.3c0-0.2,0-0.4,0-0.6
			c-0.9-14.9-4.8-30.3-11.6-45.9c20.5,4.4,41.9-1.9,56.7-16.8C498.4,197.381,498.4,158.181,474.3,133.981z M246,27.881
			c47.5-0.1,86.1,38.3,86.2,85.8c0.1,28.7-14.2,55.6-38.1,71.6c-0.8,0.6-1.6,1.8-2.2,1.8h-91.4c-0.4,0-0.9-0.6-1.4-1
			c-22.7-14.7-37.1-39.2-39.1-66.1c-0.2-2.3-0.2-4.3-0.2-6.1C159.9,66.481,198.4,27.981,246,27.881z M381,371.981
			c-1.7,2-4.3,6.6-1.2,12.8c0.3,0.6,0.6,1.1,1,1.6c14.5,18.9,13.7,44.5-1.9,61c-9.9,10.3-23.3,16.7-37.8,16.7h-1.9
			c-13.7,0.1-26.9-5-36.9-14.4l-13-12.4c-2.3-2.2-5.4-3.4-8.5-3.3c-0.8,0-1.5,0.1-2.3,0.3c-25.7,6.1-52.3,6.9-78.4,2.5
			c-0.6-0.1-1.1-0.1-1.7-0.1c-3.2-0.1-6.2,1.1-8.5,3.3l-9.8,9.3c-10,9.3-22.9,14.6-36.5,15.2c-13.3,0.7-26.5-3.6-36.9-11.9
			c-16.6-13.6-21.7-36.9-12.2-56.2c1.5-2.5,1.9-5.6,1.1-8.5c-0.4-1.8-1.2-3.4-2.4-4.7c-9.4-10.3-17.3-22-23.4-34.6
			c-0.5-1-1.1-1.9-1.9-2.7c-1.9-2.1-4.4-3.4-7.1-3.9l-32.2-6.5c-5-1-8.6-5.5-8.6-10.6v-64.5c-0.1-5.1,3.5-9.6,8.6-10.6l32.3-6.5
			c2.7-0.5,5.2-1.8,7.1-3.9c0.8-0.8,1.4-1.6,1.9-2.6c10.2-20.4,25.4-38.6,45.1-53.8c0.3-0.3,0.6-0.5,0.9-0.8
			c2.3-2.3,3.5-5.4,3.4-8.6c0-0.4,0-0.7-0.1-1.1l-2.6-24c-0.9-7.7-2.4-21.6-2.2-25.4c0.1,0,0.3,0,0.4,0c4-0.1,11.7,0.6,25.9,5.2
			c3,22.2,13,42.8,28.5,58.9h-9.5c-5.5,0-10,4.5-10,10s4.5,10,10,10H333c5.5,0,10-4.5,10-10s-4.5-10-10-10h-10.4
			c4.4-4.3,8.3-9.1,11.6-14.3c23.1,14,42.1,32.8,55.2,54.4l7.1,13.7c7.3,15.1,11.5,30.4,12.5,44.4v6.9h0
			C409,320.781,399.3,348.281,381,371.981z"/>
			</g>
		</g>
		<g>
			<g>
				<path d="M138.5,242.181c-14.2,0-25.6,11.5-25.6,25.6c0,14.2,11.5,25.6,25.6,25.6c14.1,0,25.6-11.5,25.6-25.6
			C164.2,253.681,152.7,242.181,138.5,242.181z M138.5,273.481c-3.1,0-5.6-2.5-5.6-5.6c0-3.1,2.5-5.6,5.6-5.6c3.1,0,5.6,2.5,5.6,5.6
			C144.2,270.981,141.7,273.481,138.5,273.481z"/>
			</g>
		</g>
		<g>
			<g>
				<path d="M246,53.281c-33.5,0-60.6,27.1-60.6,60.6c0.1,33.4,27.2,60.5,60.6,60.6c33.5,0,60.6-27.1,60.6-60.6
			S279.5,53.281,246,53.281z M246,154.481c-22.4,0-40.6-18.2-40.6-40.6c0-22.4,18.2-40.6,40.6-40.6c22.4,0,40.6,18.2,40.6,40.6
			C286.6,136.281,268.4,154.481,246,154.481z"/>
			</g>
		</g>
		<g>
		</g>
		<g>
		</g>
		<g>
		</g>
		<g>
		</g>
		<g>
		</g>
		<g>
		</g>
		<g>
		</g>
		<g>
		</g>
		<g>
		</g>
		<g>
		</g>
		<g>
		</g>
		<g>
		</g>
		<g>
		</g>
		<g>
		</g>
		<g>
		</g>
	</symbol>
	<symbol id="portfolio" viewBox="0 -31 512 512">
		<path d="m497.09375 60.003906c-.03125 0-.0625-.003906-.09375-.003906h-136v-15c0-24.8125-20.1875-45-45-45h-120c-24.8125 0-45 20.1875-45 45v15h-136c-8.351562 0-15 6.84375-15 15v330c0 24.8125 20.1875 45 45 45h422c24.8125 0 45-20.1875 45-45v-329.683594c0-.019531 0-.039062 0-.058594-.574219-9.851562-6.632812-15.199218-14.90625-15.253906zm-316.09375-15.003906c0-8.269531 6.730469-15 15-15h120c8.269531 0 15 6.730469 15 15v15h-150zm295.1875 45-46.582031 139.742188c-2.042969 6.136718-7.761719 10.257812-14.226563 10.257812h-84.378906v-15c0-8.285156-6.714844-15-15-15h-120c-8.285156 0-15 6.714844-15 15v15h-84.378906c-6.464844 0-12.183594-4.121094-14.226563-10.257812l-46.582031-139.742188zm-175.1875 150v30h-90v-30zm181 165c0 8.269531-6.730469 15-15 15h-422c-8.269531 0-15-6.730469-15-15v-237.566406l23.933594 71.796875c6.132812 18.40625 23.289062 30.769531 42.6875 30.769531h84.378906v15c0 8.285156 6.714844 15 15 15h120c8.285156 0 15-6.714844 15-15v-15h84.378906c19.398438 0 36.554688-12.363281 42.6875-30.769531l23.933594-71.796875zm0 0"/>
	</symbol>
	<symbol id="puzzle" viewBox="0 0 512 512">
		<g>
			<g>
				<path d="M479.951,202.667C479.951,155.125,467.588,0,308.506,0c-87.755,0-150.688,22.667-187.158,67.371
			c-26.753,34.722-38.318,78.792-32.064,122.176L38.073,265.11c-3.906,5.788-6.003,12.608-6.023,19.591
			c-0.055,19.44,15.66,35.245,35.1,35.3h26.485c-2.827,26.368-4.629,83.595,30.944,95.477c20.252,5.633,41.479,6.844,62.24,3.552
			l-26.325,78.933c-0.362,1.088-0.547,2.227-0.547,3.373c0.001,5.891,4.778,10.666,10.669,10.664h234.667
			c0.67,0.001,1.339-0.06,1.997-0.184c5.789-1.09,9.599-6.667,8.509-12.456l-0.501-2.656
			c-11.402-63.185-0.466-128.369,30.933-184.373C468.612,271.872,479.951,234.976,479.951,202.667z M392.612,490.667h-207.2
			l27.296-81.963c0.64-1.922,0.719-3.986,0.228-5.951c-1.427-5.716-7.217-9.193-12.932-7.766
			c-0.448,0.085-40.128,9.771-68.715,0.224c-20.907-6.976-19.093-59.659-14.933-84.085c0.101-0.593,0.152-1.193,0.152-1.794
			c-0.001-5.891-4.778-10.666-10.669-10.664H67.151c-7.638,0-13.837-6.176-13.867-13.813c-0.005-2.767,0.828-5.47,2.389-7.755
			l53.664-79.083c1.612-2.389,2.196-5.325,1.621-8.149c-6.287-38.491,3.444-77.879,26.933-109.013
			c32.192-39.499,89.547-59.52,170.613-59.52c135.488,0,150.112,126.816,150.112,181.333c0,28.651-10.443,62.08-31.061,99.339
			C395.487,359.342,383.206,425.648,392.612,490.667z"/>
			</g>
		</g>
		<g>
			<g>
				<path d="M403.889,174.303c-3.883,4.43-3.44,11.169,0.99,15.052c7.018,5.99,11.064,14.752,11.072,23.979c0,17.673-14.327,32-32,32
			c-17.673,0-32-14.327-32-32c0.008-9.227,4.054-17.988,11.072-23.979c2.31-2.025,3.635-4.948,3.636-8.02
			c0.001-5.891-4.774-10.667-10.665-10.668h-46.709v-46.709c0-3.072-1.325-5.995-3.636-8.02c-4.43-3.883-11.169-3.44-15.052,0.99
			c-5.99,7.018-14.752,11.064-23.979,11.072c-17.673,0-32-14.327-32-32c0-17.673,14.327-32,32-32
			c9.227,0.008,17.988,4.054,23.979,11.072c2.025,2.31,4.948,3.635,8.02,3.636c5.891,0.001,10.667-4.774,10.668-10.665V10.667
			h-21.334v36.544c-6.715-2.991-13.983-4.539-21.333-4.544c-29.455,0-53.333,23.878-53.333,53.333s23.878,53.333,53.333,53.333
			c7.351-0.005,14.619-1.553,21.333-4.544v36.544c0,5.891,4.776,10.667,10.667,10.667h36.544
			c-2.991,6.715-4.539,13.983-4.544,21.333c0.035,29.441,23.893,53.298,53.333,53.333c29.441-0.035,53.298-23.893,53.333-53.333
			c-0.005-7.351-1.553-14.619-4.544-21.333h36.544v-21.333h-57.375C408.837,170.667,405.914,171.992,403.889,174.303z"/>
			</g>
		</g>
		<g>
			<g>
				<path d="M356.719,43.84l-9.536,19.093c16.16,8.021,58.101,35.477,58.101,65.067h21.333
			C426.618,79.307,359.578,45.216,356.719,43.84z"/>
			</g>
		</g>
		<g>
			<g>
				<path d="M266.618,234.667c-23.564,0-42.667,19.102-42.667,42.667h21.333c0-11.782,9.551-21.333,21.333-21.333
			c11.782,0,21.333,9.551,21.333,21.333h21.333C309.284,253.769,290.182,234.667,266.618,234.667z"/>
			</g>
		</g>
		<g>
			<g>
				<path d="M298.618,170.667H196.89c3.743-6.483,5.714-13.836,5.716-21.322c0.006-23.564-19.091-42.672-42.655-42.678V128
			c11.782,0,21.333,9.551,21.333,21.333c0,11.782-9.551,21.333-21.333,21.333c-5.891,0-10.667,4.776-10.667,10.667
			S154.06,192,159.951,192h128v85.333h21.333v-96C309.284,175.442,304.509,170.667,298.618,170.667z"/>
			</g>
		</g>
		<g>
			<g>
				<rect x="287.951" y="298.67" width="21.333" height="21.333"/>
			</g>
		</g>
		<g>
			<g>
				<rect x="287.951" y="341.33" width="21.333" height="21.333"/>
			</g>
		</g>
		<g>
			<g>
				<rect x="159.951" y="202.67" width="21.333" height="21.333"/>
			</g>
		</g>
		<g>
			<g>
				<rect x="159.951" y="245.33" width="21.333" height="21.333"/>
			</g>
		</g>
		<g>
			<g>
				<path d="M373.071,396.789l-20.907-4.171c-6.532,36.661-6.532,74.187,0,110.848l20.907-4.181
			C367.197,465.372,367.197,430.702,373.071,396.789z"/>
			</g>
		</g>
		<g>
			<g>
				<path d="M330.298,429.248l-20.693-5.173c-0.469,1.867-11.285,46.08,0.224,80.629l20.245-6.741
			C320.538,469.365,330.202,429.643,330.298,429.248z"/>
			</g>
		</g>
		<g>
		</g>
		<g>
		</g>
		<g>
		</g>
		<g>
		</g>
		<g>
		</g>
		<g>
		</g>
		<g>
		</g>
		<g>
		</g>
		<g>
		</g>
		<g>
		</g>
		<g>
		</g>
		<g>
		</g>
		<g>
		</g>
		<g>
		</g>
		<g>
		</g>
	</symbol>
	<symbol id="recommendation" viewBox="0 0 480 480">
		<path style="fill:#23374E;" d="M408,0H72C32.3,0,0,32.3,0,72v256c0,39.7,32.3,72,72,72h20.2l-27.6,69c-1.6,4.1,0.3,8.8,4.4,10.4
	c2.1,0.8,4.4,0.8,6.4-0.2L241.8,400H408c39.7,0,72-32.3,72-72V72C480,32.3,447.7,0,408,0z M464,328c0,30.9-25.1,56-56,56H240
	c-1.2,0-2.4,0.3-3.4,0.8L87,456l24.4-61c1.7-4.1-0.3-8.8-4.4-10.4c-1-0.4-2-0.6-3-0.6H72c-30.9,0-56-25.1-56-56V72
	c0-30.9,25.1-56,56-56h336c30.9,0,56,25.1,56,56V328z"/>
		<path style="fill:#23374E;" d="M363.1,144h-70.8c-3.5,0-6.5-2.2-7.6-5.5l-21.9-67.3c-4.1-12.6-17.6-19.5-30.2-15.4
	c-7.3,2.4-13.1,8.1-15.4,15.4l-21.9,67.3c-1.1,3.3-4.1,5.5-7.6,5.5h-70.8c-13.3,0-24,10.8-24,24c0,7.7,3.7,14.9,9.9,19.4l57.3,41.6
	c2.8,2,4,5.7,2.9,9l-21.9,67.3c-4.1,12.6,2.8,26.1,15.4,30.2c7.3,2.4,15.3,1.1,21.5-3.4l57.3-41.6c2.8-2,6.6-2,9.4,0l57.3,41.6
	c10.7,7.8,25.7,5.4,33.5-5.3c4.5-6.2,5.8-14.2,3.4-21.5L317,238c-1.1-3.3,0.1-7,3-9l57.3-41.6c10.7-7.8,13.1-22.8,5.2-33.5
	C378,147.7,370.8,144,363.1,144z M367.8,174.5l-57.3,41.6c-8.4,6.1-12,16.9-8.7,26.8l21.9,67.3c1.4,4.2-0.9,8.7-5,10.1
	c-2.5,0.8-5.2,0.4-7.3-1.1l-57.3-41.6c-8.4-6.1-19.8-6.1-28.2,0l-57.3,41.6c-3.6,2.6-8.6,1.8-11.2-1.8c-1.5-2.1-1.9-4.7-1.1-7.2
	l21.9-67.3c3.2-9.9-0.3-20.7-8.7-26.8l-57.3-41.6c-3.6-2.6-4.4-7.6-1.8-11.2c1.5-2.1,3.9-3.3,6.5-3.3h70.8
	c10.4,0,19.6-6.7,22.8-16.6l21.9-67.3c1.4-4.2,5.9-6.5,10.1-5.1c2.4,0.8,4.3,2.7,5.1,5.1l21.9,67.3c3.2,9.9,12.4,16.6,22.8,16.5
	h70.8c4.4,0,8,3.6,8,8C371.1,170.6,369.9,173,367.8,174.5z"/>
		<path style="fill:#FF0000;" d="M367.8,174.5l-57.3,41.6c-8.4,6.1-12,16.9-8.7,26.8l21.9,67.3c1.4,4.2-0.9,8.7-5,10.1c-2.5,0.8-5.2,0.4-7.3-1.1
	l-57.3-41.6c-8.4-6.1-19.8-6.1-28.2,0l-57.3,41.6c-3.6,2.6-8.6,1.8-11.2-1.8c-1.5-2.1-1.9-4.7-1.1-7.2l21.9-67.3
	c3.2-9.9-0.3-20.7-8.7-26.8l-57.3-41.6c-3.6-2.6-4.4-7.6-1.8-11.2c1.5-2.1,3.9-3.3,6.5-3.3h70.8c10.4,0,19.6-6.7,22.8-16.6
	l21.9-67.4c1.4-4.2,5.9-6.5,10.1-5.1c2.4,0.8,4.3,2.7,5.1,5.1l21.9,67.3c3.2,9.9,12.4,16.6,22.8,16.6h70.8c4.4,0,8,3.6,8,8
	C371.1,170.6,369.9,173,367.8,174.5L367.8,174.5z"/>
	</symbol>
	<symbol id="save-money" viewBox="0 0 429.06 487">
		<path d="M133.36,222.17A115.84,115.84,0,1,0,249.19,106.34,115.83,115.83,0,0,0,133.36,222.17Zm115.83-99.86a99.86,99.86,0,1,1-99.86,99.86A99.86,99.86,0,0,1,249.19,122.31Z" transform="translate(-29.68)"/>
		<path d="M404.41,357.7l-62.57,29.57a51,51,0,0,0-43.46-26.81l-57.76-1.59a61,61,0,0,1-26.26-6.78l-5.87-3a103.72,103.72,0,0,0-96,.1l.37-13.31a8,8,0,0,0-7.77-8.21l-63.34-1.74a8,8,0,0,0-8.2,7.76l-3.83,139a8,8,0,0,0,7.76,8.21l63.35,1.74H101a8,8,0,0,0,8-7.77l.18-6.65,16.45-8.81a28.25,28.25,0,0,1,21.07-2.31L245,484.64l.52.13a105.17,105.17,0,0,0,21.6,2.23,106.45,106.45,0,0,0,44.52-9.72,7.29,7.29,0,0,0,1-.54l142.48-92.16a8,8,0,0,0,2.62-10.64A40.36,40.36,0,0,0,404.41,357.7ZM45.87,465.11l3.39-123,47.37,1.3-3.39,123ZM304.41,463A90.57,90.57,0,0,1,249,469.2l-98-27.51a44.11,44.11,0,0,0-32.92,3.6l-8.41,4.5,2.25-81.8a87.78,87.78,0,0,1,89.2-4.76l5.88,3a77.1,77.1,0,0,0,33.16,8.56L298,376.43a35,35,0,0,1,33.3,27.92L245.2,402a8,8,0,1,0-.44,16l95,2.61h.22a8,8,0,0,0,8-7.77,50.62,50.62,0,0,0-.77-10.36l64.18-30.33.19-.09a24.4,24.4,0,0,1,27.6,3.86Z" transform="translate(-29.68)"/>
		<path d="M257.18,83.88V8a8,8,0,1,0-16,0V83.88a8,8,0,0,0,16,0Z" transform="translate(-29.68)"/>
		<path d="M317.09,83.88V47.93a8,8,0,1,0-16,0V83.88a8,8,0,0,0,16,0Z" transform="translate(-29.68)"/>
		<path d="M197.27,83.88V47.93a8,8,0,0,0-16,0V83.88a8,8,0,0,0,16,0Z" transform="translate(-29.68)"/>
		<rect x="9.71" y="380.55" width="123.09" height="47.39" transform="translate(-364.47 464.34) rotate(-88.42)" style="fill:#ff0000"/>
		<path d="M249.19,121.81a99.86,99.86,0,1,1-99.86,99.86A99.86,99.86,0,0,1,249.19,121.81Z" transform="translate(-29.68)" style="fill:#6edeff"/>
		<path d="M249.86,265.78a7.65,7.65,0,0,0-2.74-.09,18.15,18.15,0,0,1-16.06-18,8,8,0,1,0-16,0,34.18,34.18,0,0,0,25.13,32.91v8a8,8,0,1,0,16,0v-7.5a34.11,34.11,0,0,0-7-67.5,18.14,18.14,0,1,1,18.14-18.14,8,8,0,0,0,16,0A34.17,34.17,0,0,0,256.18,162v-7.27a8,8,0,1,0-16,0v7.76a34.11,34.11,0,0,0,9,67,18.13,18.13,0,0,1,.67,36.24Z" transform="translate(-29.68)"/>
	</symbol>
	<symbol id="settings" viewBox="0 0 466.6 480.3">
		<path d="M254.15,234.1V13.5a13.5,13.5,0,0,0-27,0V234.1a68.55,68.55,0,0,0,0,134.4v98.2a13.5,13.5,0,0,0,27,0V368.5a68.55,68.55,0,0,0,0-134.4Zm-13.5,108.7a41.5,41.5,0,1,1,41.5-41.5A41.53,41.53,0,0,1,240.65,342.8Z" transform="translate(-6.85)"/>
		<path d="M88.85,120.9V13.5a13.5,13.5,0,0,0-27,0V120.9a68.55,68.55,0,0,0,0,134.4V466.7a13.5,13.5,0,0,0,27,0V255.2a68.49,68.49,0,0,0,0-134.3ZM75.35,229.6a41.5,41.5,0,1,1,41.5-41.5A41.53,41.53,0,0,1,75.35,229.6Z" transform="translate(-6.85)"/>
		<path d="M418.45,120.9V13.5a13.5,13.5,0,0,0-27,0V120.9a68.55,68.55,0,0,0,0,134.4V466.8a13.5,13.5,0,0,0,27,0V255.2a68.49,68.49,0,0,0,0-134.3ZM405,229.6a41.5,41.5,0,1,1,41.5-41.5A41.53,41.53,0,0,1,405,229.6Z" transform="translate(-6.85)"/>
		<circle cx="233.8" cy="301.3" r="41.5" style="fill:none"/>
		<circle cx="398.1" cy="188.1" r="41.5" style="fill:none"/>
		<circle cx="68.5" cy="188.1" r="41.5" style="fill:none"/>
	</symbol>
	<symbol id="share" viewBox="0 0 469.33 512">
		<path d="M410.33,160a80,80,0,1,1,80-80A80.1,80.1,0,0,1,410.33,160Zm0-128a48,48,0,1,0,48,48A48.06,48.06,0,0,0,410.33,32Z" transform="translate(-21)"/>
		<path d="M410.33,512a80,80,0,1,1,80-80A80.1,80.1,0,0,1,410.33,512Zm0-128a48,48,0,1,0,48,48A48.06,48.06,0,0,0,410.33,384Z" transform="translate(-21)"/>
		<path d="M101,336a80,80,0,1,1,80-80A80.09,80.09,0,0,1,101,336Zm0-128a48,48,0,1,0,48,48A48.06,48.06,0,0,0,101,208Z" transform="translate(-21)"/>
		<path d="M156.7,240.43a16,16,0,0,1-7.93-29.89l198-112.86a16,16,0,0,1,15.83,27.8l-198,112.86A16.07,16.07,0,0,1,156.7,240.43Z" transform="translate(-21)"/>
		<path d="M354.63,416.43a15.91,15.91,0,0,1-7.89-2.11l-198-112.86a16,16,0,0,1,15.83-27.8l198,112.86a16,16,0,0,1-7.94,29.91Z" transform="translate(-21)"/>
		<circle cx="389.33" cy="432" r="48" style="fill:none"/>
		<circle cx="80" cy="256" r="48" style="fill:none"/>
		<circle cx="389.33" cy="80" r="48" style="fill:none"/>
	</symbol>
	<symbol id="shield" viewBox="0 0 427.71 512.01">
		<path d="M256,18.09l.26.09L451.2,81.54v142.1c.08,2,5.35,202.59-194.83,269.73h-.76C55.8,426.39,60.5,231.88,60.8,223.28V81.53L255.73,18.18c.09,0,.18-.06.27-.09m155.67,83.16L260.54,50.4a9.86,9.86,0,0,0-3.92-.44,10.07,10.07,0,0,0-3.92.44L101.59,101.25a9.33,9.33,0,0,0-6.34,8.83V225.8c.06,1.66,7.61,167.2,158,225.46a9.44,9.44,0,0,0,6.73,0c150.39-58.26,158-223.79,158-225.79V110.08A9.34,9.34,0,0,0,411.67,101.25Z" transform="translate(-42.15 0)" style="fill:#ff0000"/>
		<path d="M469.83,223.28V74.77a9.33,9.33,0,0,0-6.44-8.87L262,.46a9.22,9.22,0,0,0-6,.09,9.32,9.32,0,0,0-6-.09L48.6,65.9a9.32,9.32,0,0,0-6.44,8.87l0,148.15c-.09,2.17-5.74,217.6,209,288.61a9.18,9.18,0,0,0,2.93.48h3.79a9.18,9.18,0,0,0,2.93-.48C475.57,440.52,469.91,225.08,469.83,223.28ZM256.38,493.37h-.76C55.8,426.39,60.5,231.88,60.8,223.28V81.53L255.73,18.18c.09,0,.18-.06.27-.09l.26.09L451.2,81.54v142.1C451.29,225.65,456.56,426.23,256.38,493.37Z" transform="translate(-42.15 0)"/>
		<path d="M411.67,101.25,260.54,50.4a9.86,9.86,0,0,0-3.92-.44,10.07,10.07,0,0,0-3.92.44L101.59,101.25a9.33,9.33,0,0,0-6.34,8.83V225.8c.06,1.66,7.61,167.2,158,225.46a9.44,9.44,0,0,0,6.73,0c150.39-58.26,158-223.79,158-225.79V110.08A9.34,9.34,0,0,0,411.67,101.25Zm-155,331.31C121.1,377.65,113.94,226.68,113.89,225.48V116.78l142.73-48,142.75,48V225.14C399.32,226.67,392.14,377.65,256.62,432.56Z" transform="translate(-42.15 0)"/>
		<path d="M363.29,187.18a9.31,9.31,0,0,0-13.12,1.19L242.33,317.53l-69.57-73a9.32,9.32,0,1,0-13.5,12.84L236,337.94a9.34,9.34,0,0,0,6.75,2.9h.3a9.39,9.39,0,0,0,6.86-3.34L364.47,200.3A9.31,9.31,0,0,0,363.29,187.18Z" transform="translate(-42.15 0)"/>
	</symbol>
	<symbol id="spaceship" viewBox="0 0 370 511.87">
		<path d="M437.94,296.08l-102.9-70,6.5-43.51a157.13,157.13,0,0,0-33-121.47L261.45,2.6a7.24,7.24,0,0,0-10.22-.69,7.38,7.38,0,0,0-.68.69L203.41,61.1a157.17,157.17,0,0,0-32.95,121.47l6.5,43.51-102.9,70A7,7,0,0,0,71,301.87v59.3a7,7,0,0,0,7,7H197.23v31a7,7,0,0,0,7,7h12v7.07a152.31,152.31,0,0,0,34.33,96.18,7,7,0,0,0,9.85,1,7.72,7.72,0,0,0,1-1,152.29,152.29,0,0,0,34.33-96.18v-7.07h12a7,7,0,0,0,7-7h0v-31H434a7,7,0,0,0,7-7v-59.3A7,7,0,0,0,437.94,296.08Zm-47.45,58.09H315.9l10.85-72.64,63.74,43.36ZM214.32,69.89,256,18.15l41.68,51.74a143.05,143.05,0,0,1,30,110.61L301.74,354.17H210.26l-18.8-125.82h0l-7.15-47.85A143.06,143.06,0,0,1,214.32,69.89ZM196.1,354.17H121.51V324.89l63.74-43.36ZM85,305.57l94.26-64.12L183,266.16,110.58,315.4a7,7,0,0,0-3.07,5.79v33H85ZM281.75,413.24A138.35,138.35,0,0,1,256,493.48a138.35,138.35,0,0,1-25.75-80.24v-7.07H249V436a7,7,0,0,0,14,0V406.17h18.75Zm19-21.07H211.23v-24h89.54Zm126.23-38H404.49v-33a7,7,0,0,0-3.07-5.78l-72.37-49.26,3.69-24.72L427,305.57Z" transform="translate(-71 -0.12)"/>
		<path d="M256,195c21.92,0,39.75-24,39.75-53.5S277.92,88,256,88s-39.75,24-39.75,53.5S234.08,195,256,195Zm0-93c14,0,25.75,18.09,25.75,39.5S270,181,256,181s-25.75-18.09-25.75-39.5S242,102,256,102Z" transform="translate(-71 -0.12)"/>
		<path d="M281.75,413.24A138.35,138.35,0,0,1,256,493.48a138.28,138.28,0,0,1-25.75-80.24v-7.07H249V436a7,7,0,0,0,14,0V406.17h18.75Z" transform="translate(-71 -0.12)" style="fill:#ff0000"/>
		<rect x="140.22" y="368.05" width="89.54" height="24" style="fill:#6edeff"/>
		<path d="M85,305.57l94.26-64.13L183,266.16,110.58,315.4a7,7,0,0,0-3.07,5.78v33H85Z" transform="translate(-71 -0.12)" style="fill:#6edeff"/>
		<path d="M427,354.17H404.49v-33a7,7,0,0,0-3.07-5.78l-72.37-49.26,3.69-24.72L427,305.57Z" transform="translate(-71 -0.12)" style="fill:#6edeff"/>
	</symbol>
	<symbol id="telegram" viewBox="0 0 24 24">
		<path d="m12 24c6.629 0 12-5.371 12-12s-5.371-12-12-12-12 5.371-12 12 5.371 12 12 12zm-6.509-12.26 11.57-4.461c.537-.194 1.006.131.832.943l.001-.001-1.97 9.281c-.146.658-.537.818-1.084.508l-3-2.211-1.447 1.394c-.16.16-.295.295-.605.295l.213-3.053 5.56-5.023c.242-.213-.054-.333-.373-.121l-6.871 4.326-2.962-.924c-.643-.204-.657-.643.136-.953z"/>
	</symbol>
	<symbol id="user" viewBox="0 0 512 512">
		<path d="m431.964 435.333c-.921-58.994-19.3-112.636-51.977-151.474-32.487-38.601-76.515-59.859-123.987-59.859s-91.5 21.258-123.987 59.859c-32.646 38.797-51.013 92.364-51.973 151.285 18.46 9.247 94.85 44.856 175.96 44.856 87.708 0 158.845-35.4 175.964-44.667z"/>
		<circle cx="256" cy="120" r="88"/>
	</symbol>
	<symbol id="vk" viewBox="0 0 97.75 97.75">
		<g>
			<path d="M48.875,0C21.883,0,0,21.882,0,48.875S21.883,97.75,48.875,97.75S97.75,75.868,97.75,48.875S75.867,0,48.875,0z
		 M73.667,54.161c2.278,2.225,4.688,4.319,6.733,6.774c0.906,1.086,1.76,2.209,2.41,3.472c0.928,1.801,0.09,3.776-1.522,3.883
		l-10.013-0.002c-2.586,0.214-4.644-0.829-6.379-2.597c-1.385-1.409-2.67-2.914-4.004-4.371c-0.545-0.598-1.119-1.161-1.803-1.604
		c-1.365-0.888-2.551-0.616-3.333,0.81c-0.797,1.451-0.979,3.059-1.055,4.674c-0.109,2.361-0.821,2.978-3.19,3.089
		c-5.062,0.237-9.865-0.531-14.329-3.083c-3.938-2.251-6.986-5.428-9.642-9.025c-5.172-7.012-9.133-14.708-12.692-22.625
		c-0.801-1.783-0.215-2.737,1.752-2.774c3.268-0.063,6.536-0.055,9.804-0.003c1.33,0.021,2.21,0.782,2.721,2.037
		c1.766,4.345,3.931,8.479,6.644,12.313c0.723,1.021,1.461,2.039,2.512,2.76c1.16,0.796,2.044,0.533,2.591-0.762
		c0.35-0.823,0.501-1.703,0.577-2.585c0.26-3.021,0.291-6.041-0.159-9.05c-0.28-1.883-1.339-3.099-3.216-3.455
		c-0.956-0.181-0.816-0.535-0.351-1.081c0.807-0.944,1.563-1.528,3.074-1.528l11.313-0.002c1.783,0.35,2.183,1.15,2.425,2.946
		l0.01,12.572c-0.021,0.695,0.349,2.755,1.597,3.21c1,0.33,1.66-0.472,2.258-1.105c2.713-2.879,4.646-6.277,6.377-9.794
		c0.764-1.551,1.423-3.156,2.063-4.764c0.476-1.189,1.216-1.774,2.558-1.754l10.894,0.013c0.321,0,0.647,0.003,0.965,0.058
		c1.836,0.314,2.339,1.104,1.771,2.895c-0.894,2.814-2.631,5.158-4.329,7.508c-1.82,2.516-3.761,4.944-5.563,7.471
		C71.48,50.992,71.611,52.155,73.667,54.161z"/>
		</g>
		<g>
		</g>
		<g>
		</g>
		<g>
		</g>
		<g>
		</g>
		<g>
		</g>
		<g>
		</g>
		<g>
		</g>
		<g>
		</g>
		<g>
		</g>
		<g>
		</g>
		<g>
		</g>
		<g>
		</g>
		<g>
		</g>
		<g>
		</g>
		<g>
		</g>
	</symbol>
	<symbol id="web" viewBox="0 0 512 512">
		<path style="fill:#23374E;" d="M469.3,0H42.7C19.1,0,0,19.1,0,42.7v426.7C0,492.9,19.1,512,42.7,512h426.7c23.6,0,42.6-19.1,42.7-42.7V42.7
	C512,19.1,492.9,0,469.3,0z M494.9,469.3c0,14.1-11.5,25.6-25.6,25.6l0,0H42.7c-14.1,0-25.6-11.5-25.6-25.6l0,0v-384h477.9V469.3z
	 M494.9,68.3H17.1V42.7c0-14.1,11.5-25.6,25.6-25.6h426.7c14.1,0,25.6,11.5,25.6,25.6c0,0,0,0,0,0S494.9,68.3,494.9,68.3z"/>
		<path style="fill:#23374E;" d="M59.7,34.1h-8.5c-4.7,0.2-8.4,4.1-8.2,8.8c0.2,4.5,3.8,8.1,8.2,8.2h8.5c4.7,0.2,8.7-3.5,8.8-8.2
	s-3.5-8.7-8.2-8.8C60.1,34.1,59.9,34.1,59.7,34.1z"/>
		<path style="fill:#23374E;" d="M97.1,34.8c-2.1-0.9-4.4-0.9-6.5,0c-1,0.4-2,1-2.8,1.8c-3.3,3.4-3.3,8.8,0,12.1c0.8,0.7,1.8,1.4,2.8,1.8
	c2.1,0.9,4.4,0.9,6.5,0c1-0.4,2-1,2.8-1.8c3.3-3.4,3.3-8.8,0-12.1C99.1,35.9,98.1,35.2,97.1,34.8z"/>
		<path style="fill:#23374E;" d="M131.3,34.7c-3.2-1.3-6.9-0.6-9.3,1.9c-0.8,0.8-1.4,1.8-1.8,2.8c-0.9,2.1-0.9,4.4,0,6.5c0.4,1,1,2,1.8,2.8
	c3.4,3.3,8.8,3.3,12.1,0c0.8-0.8,1.4-1.8,1.8-2.8c0.5-1,0.7-2.1,0.7-3.2C136.6,39.2,134.5,36.1,131.3,34.7z"/>
		<path style="fill:#23374E;" d="M460.8,34.1H170.7c-4.7-0.2-8.7,3.5-8.8,8.2s3.5,8.7,8.2,8.8c0.2,0,0.4,0,0.6,0h290.1c4.7-0.2,8.4-4.1,8.2-8.8
	C468.9,37.9,465.3,34.3,460.8,34.1z"/>
		<path style="fill:#23374E;" d="M131,406.4c0.4,0.4,0.8,0.7,1.3,0.9c64.3,68.4,171.8,71.6,240.2,7.4c2.6-2.4,5-4.9,7.4-7.4
	c0.4-0.3,0.8-0.5,1.2-0.9c0.3-0.4,0.5-0.8,0.7-1.2c59.9-65,59.9-165,0-230l0,0c-0.2-0.4-0.5-0.8-0.7-1.2c-0.4-0.4-0.8-0.7-1.3-1
	c-64.3-68.3-171.8-71.6-240.1-7.3c-2.5,2.4-4.9,4.8-7.3,7.3c-0.5,0.3-0.9,0.6-1.3,1c-0.3,0.4-0.5,0.8-0.7,1.2
	c-59.9,65-59.9,165,0,230C130.5,405.6,130.7,406,131,406.4z M302.5,436.4c13.1-15.8,23-34.1,29.1-53.8l0,0
	c10.7,5,20.8,11.2,30.1,18.5C344.9,417.3,324.7,429.3,302.5,436.4L302.5,436.4z M373.5,388.8c-11.4-9.1-23.8-16.7-37.1-22.7
	c5.5-22.1,8.5-44.7,8.9-67.4h63.8C407.4,331.8,394.9,363.4,373.5,388.8L373.5,388.8z M409.2,281.6h-63.8
	c-0.5-22.7-3.4-45.3-8.9-67.4c13.3-6,25.7-13.6,37.1-22.7C394.9,216.8,407.4,248.5,409.2,281.6z M361.8,179
	c-9.3,7.3-19.4,13.5-30.1,18.6c-6.1-19.7-15.9-37.9-29.1-53.8C324.7,150.9,344.9,162.9,361.8,179z M264.5,137.7
	c20.9,5.5,39.5,30.6,51.1,66.3c-16.5,5.7-33.7,9-51.1,9.7V137.7z M264.5,230.7c19-0.7,37.8-4.2,55.8-10.2c4.8,20,7.5,40.5,8,61.1
	h-63.8V230.7z M264.5,298.6h63.8c-0.5,20.6-3.2,41.1-8,61.1c-18-6.1-36.8-9.5-55.8-10.2L264.5,298.6z M264.5,366.5
	c17.4,0.8,34.6,4,51.1,9.7c-11.6,35.6-30.1,60.8-51.1,66.2V366.5z M150.3,401.2c9.3-7.3,19.4-13.5,30.1-18.5l0,0
	c6.1,19.7,15.9,37.9,29.1,53.8C187.3,429.3,167.1,417.3,150.3,401.2z M247.5,442.5c-20.9-5.5-39.4-30.6-51.1-66.2
	c16.5-5.7,33.7-9,51.1-9.7V442.5L247.5,442.5z M247.5,349.5c-19,0.7-37.8,4.2-55.8,10.2c-4.8-20-7.5-40.5-8-61.1h63.8L247.5,349.5z
	 M247.5,281.6h-63.8c0.5-20.6,3.2-41.1,8-61.1c18,6.1,36.8,9.5,55.8,10.2L247.5,281.6z M247.5,137.7v75.9c-17.4-0.8-34.6-4-51.1-9.7
	C208.1,168.4,226.6,143.2,247.5,137.7L247.5,137.7z M209.5,143.7c-13.1,15.9-23,34.1-29,53.8l0,0c-10.7-5-20.9-11.2-30.2-18.5
	C167.1,162.9,187.3,150.9,209.5,143.7L209.5,143.7z M138.5,191.4c11.4,9.1,23.8,16.7,37.1,22.7c-5.5,22.1-8.5,44.7-8.9,67.4h-63.8
	C104.6,248.5,117.1,216.8,138.5,191.4L138.5,191.4z M166.6,298.6c0.5,22.7,3.4,45.3,8.9,67.4c-13.3,6-25.7,13.6-37.1,22.7
	c-21.3-25.4-33.9-57-35.6-90.1H166.6z"/>
		<path style="fill:#6EDEFF;" d="M495,469.3c0,14.1-11.5,25.6-25.6,25.6l0,0H42.7c-14.1,0-25.6-11.5-25.6-25.6l0,0v-384H495V469.3z M131.1,406.3
	c0.4,0.4,0.8,0.7,1.3,0.9c64.3,68.4,171.8,71.6,240.2,7.4c2.6-2.4,5-4.9,7.4-7.4c0.4-0.3,0.8-0.5,1.2-0.9c0.3-0.4,0.5-0.8,0.7-1.2
	c59.9-65,59.9-165,0-230l0,0c-0.2-0.4-0.5-0.8-0.7-1.2c-0.4-0.4-0.8-0.7-1.3-1c-64.3-68.3-171.8-71.6-240.2-7.3
	c-2.5,2.4-4.9,4.8-7.3,7.3c-0.5,0.3-0.9,0.6-1.3,1c-0.3,0.4-0.5,0.8-0.7,1.2c-59.9,65-59.9,165,0,230
	C130.6,405.5,130.8,406,131.1,406.3L131.1,406.3z"/>
	</symbol>
</svg>