<?xml version="1.0" encoding="UTF-8"?>
<svg xmlns="http://www.w3.org/2000/svg"
	xmlns:xlink="http://www.w3.org/1999/xlink" width="0" height="0">
	<symbol id="whatsapp" width="20" height="20" viewBox="0 0 20 20">
		<path d="M14.75 11.96C15 12.09 15.16 12.16 15.21 12.26C15.27 12.37 15.25 12.87 15 13.44C14.8 14 13.76 14.54 13.3 14.56C12.84 14.58 12.83 14.92 10.34 13.83C7.85 12.74 6.35 10.08 6.23 9.91C6.11 9.74 5.27 8.53 5.31 7.3C5.36 6.08 6 5.5 6.26 5.26C6.5 5 6.77 4.97 6.94 5H7.41C7.56 5 7.77 4.94 7.96 5.45L8.65 7.32C8.71 7.45 8.75 7.6 8.66 7.76L8.39 8.17L8 8.59C7.88 8.71 7.74 8.84 7.88 9.09C8 9.35 8.5 10.18 9.2 10.87C10.11 11.75 10.91 12.04 11.15 12.17C11.39 12.31 11.54 12.29 11.69 12.13L12.5 11.19C12.69 10.94 12.85 11 13.08 11.08L14.75 11.96ZM10 0C11.3132 0 12.6136 0.258658 13.8268 0.761205C15.0401 1.26375 16.1425 2.00035 17.0711 2.92893C17.9997 3.85752 18.7362 4.95991 19.2388 6.17317C19.7413 7.38642 20 8.68678 20 10C20 12.6522 18.9464 15.1957 17.0711 17.0711C15.1957 18.9464 12.6522 20 10 20C8.03 20 6.2 19.43 4.65 18.45L0 20L1.55 15.35C0.57 13.8 0 11.97 0 10C0 7.34784 1.05357 4.8043 2.92893 2.92893C4.8043 1.05357 7.34784 0 10 0ZM10 2C7.87827 2 5.84344 2.84285 4.34315 4.34315C2.84285 5.84344 2 7.87827 2 10C2 11.72 2.54 13.31 3.46 14.61L2.5 17.5L5.39 16.54C6.69 17.46 8.28 18 10 18C12.1217 18 14.1566 17.1571 15.6569 15.6569C17.1571 14.1566 18 12.1217 18 10C18 7.87827 17.1571 5.84344 15.6569 4.34315C14.1566 2.84285 12.1217 2 10 2Z"/>
	</symbol>
	<symbol id="telegram" width="19" height="16" viewBox="0 0 19 16">
		<path d="M6.78047 14.209L7.06047 9.97905L14.7405 3.05905C15.0805 2.74905 14.6705 2.59905 14.2205 2.86905L4.74047 8.85905L0.640471 7.55905C-0.239529 7.30905 -0.249529 6.69905 0.840471 6.25905L16.8105 0.0990497C17.5405 -0.23095 18.2405 0.27905 17.9605 1.39905L15.2405 14.209C15.0505 15.119 14.5005 15.3391 13.7405 14.9191L9.60047 11.859L7.61047 13.789C7.38047 14.019 7.19047 14.209 6.78047 14.209Z"/>
	</symbol>
	<symbol id="comment" width="22" height="22" viewBox="0 0 22 22">
		<path d="M11 22C10.7348 22 10.4804 21.8946 10.2929 21.7071C10.1054 21.5196 10 21.2652 10 21V18H6C5.46957 18 4.96086 17.7893 4.58579 17.4142C4.21071 17.0391 4 16.5304 4 16V6C4 5.46957 4.21071 4.96086 4.58579 4.58579C4.96086 4.21071 5.46957 4 6 4H20C20.5304 4 21.0391 4.21071 21.4142 4.58579C21.7893 4.96086 22 5.46957 22 6V16C22 16.5304 21.7893 17.0391 21.4142 17.4142C21.0391 17.7893 20.5304 18 20 18H15.9L12.2 21.71C12 21.89 11.76 22 11.5 22H11ZM12 16V19.08L15.08 16H20V6H6V16H12ZM2 14H0V2C0 1.46957 0.210714 0.960859 0.585786 0.585786C0.960859 0.210714 1.46957 0 2 0H18V2H2V14ZM8 8H18V10H8V8ZM8 12H16V14H8V12Z"/>
	</symbol>
</svg>
