<svg xmlns="http://www.w3.org/2000/svg" xmlns:xlink="http://www.w3.org/1999/xlink"><defs>
<clipPath id="clip0">
<rect width="25" height="25" fill="white"/>
</clipPath>
<style>.cls-1{fill:#fff;}</style>
<clipPath id="clip0">
<rect width="25" height="25" fill="white"/>
</clipPath>

<clipPath id="clip0">
<rect width="25" height="25" fill="white"/>
</clipPath>

<clipPath id="clip0">
<rect width="25" height="25" fill="white"/>
</clipPath>

<clipPath id="clip0">
<rect width="25" height="25" fill="white" transform="translate(0.5 0.5)"/>
</clipPath>

<clipPath id="clip0">
<rect width="25" height="25" fill="white" transform="translate(0.5 0.5)"/>
</clipPath>

<clipPath id="clip0">
<rect width="25" height="25" fill="white" transform="translate(0.5 0.5)"/>
</clipPath>
</defs><symbol id="add" viewBox="0 0 25 25">
<g clip-path="url(#clip0)">
<path d="M19.1964 13.3928C15.9912 13.3928 13.3928 15.9912 13.3928 19.1964C13.3928 22.4016 15.9912 25 19.1964 25C22.4016 25 25 22.4016 25 19.1964C24.9963 15.9927 22.4001 13.3965 19.1964 13.3928ZM23.6607 19.6428H19.6428V23.2143H18.75V19.6428H14.7321V18.75H18.75V14.7321H19.6428V18.75H23.6607V19.6428Z" fill="#FB8E30"/>
<path d="M14.7322 0H24.5536C24.8002 0 25.0001 0.19989 25.0001 0.446429V10.2679C25.0001 10.5144 24.8002 10.7143 24.5536 10.7143H14.7322C14.4857 10.7143 14.2858 10.5144 14.2858 10.2679V0.446429C14.2858 0.19989 14.4857 0 14.7322 0Z" fill="#FB8E30"/>
<path d="M0.446429 0H10.2679C10.5144 0 10.7143 0.19989 10.7143 0.446429V10.2679C10.7143 10.5144 10.5144 10.7143 10.2679 10.7143H0.446429C0.19989 10.7143 0 10.5144 0 10.2679V0.446429C0 0.19989 0.19989 0 0.446429 0Z" fill="#FB8E30"/>
<path d="M0.446429 14.2858H10.2679C10.5144 14.2858 10.7143 14.4857 10.7143 14.7322V24.5536C10.7143 24.8002 10.5144 25.0001 10.2679 25.0001H0.446429C0.19989 25.0001 0 24.8002 0 24.5536V14.7322C0 14.4857 0.19989 14.2858 0.446429 14.2858Z" fill="#FB8E30"/>
</g>

</symbol><symbol id="camera" viewBox="0 0 24 24">
<path d="M12 15C13.6569 15 15 13.6569 15 12C15 10.3431 13.6569 9 12 9C10.3431 9 9 10.3431 9 12C9 13.6569 10.3431 15 12 15Z" fill="#B4B4B4"/>
<path d="M20 4H16.83L15.59 2.65C15.4036 2.44539 15.1767 2.28191 14.9235 2.16999C14.6704 2.05807 14.3968 2.00017 14.12 2H9.88C9.32 2 8.78 2.24 8.4 2.65L7.17 4H4C2.9 4 2 4.9 2 6V18C2 19.1 2.9 20 4 20H20C21.1 20 22 19.1 22 18V6C22 4.9 21.1 4 20 4ZM12 17C9.24 17 7 14.76 7 12C7 9.24 9.24 7 12 7C14.76 7 17 9.24 17 12C17 14.76 14.76 17 12 17Z" fill="#B4B4B4"/>
</symbol><symbol id="check" viewBox="0 0 9.48 8.12"><polygon class="cls-1" points="3.77 8.12 0 4.35 1.41 2.93 3.64 5.16 7.94 0 9.48 1.28 3.77 8.12"/></symbol><symbol id="eat" viewBox="0 0 25 25">
<g clip-path="url(#clip0)">
<path d="M12.5007 1.95764C6.67803 1.95764 1.9585 6.67717 1.9585 12.4999C1.9585 16.6953 4.41555 20.3071 7.96322 22.0039L8.29319 15.6279C8.29319 15.6279 7.67252 15.4243 7.53666 15.3579C6.22021 14.778 5.26387 13.0706 5.26387 10.8546C5.26387 8.43653 7.13919 6.35371 8.95227 6.3365C8.95456 6.3365 8.95457 6.3365 8.95608 6.3365C8.95686 6.3365 8.95837 6.3365 8.9591 6.3365C10.7726 6.35364 12.648 8.43647 12.648 10.8546C12.648 13.0706 11.6904 14.7773 10.3767 15.3579C10.3664 15.3625 9.6141 15.6356 9.6141 15.6356L9.98261 22.7249C10.7913 22.9239 11.6321 23.0407 12.5022 23.0407C13.6756 23.0407 14.7994 22.8408 15.8538 22.4876L16.1803 16.1697C15.3198 15.9804 14.5858 15.4326 14.1257 14.7453C13.5558 13.8916 14.5644 6.33578 14.5644 6.33578H15.2206V13.4261H15.8722V6.33657H16.5848V13.4277H17.2333V6.33657H17.9726V13.4277H18.6233V6.33657H19.1268C19.1268 6.33657 20.1355 13.8924 19.5648 14.7461C19.1093 15.4266 18.3822 15.9729 17.5324 16.1667C17.5171 16.172 17.5033 16.1773 17.5033 16.1773L17.7871 21.6118C20.9274 19.786 23.0438 16.3941 23.0438 12.5C23.0422 6.67724 18.3227 1.95764 12.5007 1.95764Z" fill="#FB8E30"/>
<path d="M6.80697 9.78277C6.84473 9.62905 6.89548 9.48294 6.89778 9.48031C6.9142 9.42273 6.88366 9.36396 6.82109 9.32659C6.76159 9.29455 6.6891 9.31096 6.65554 9.36245C6.65554 9.36245 6.58344 9.47729 6.47891 9.64704C6.39387 9.79314 6.26799 10.0266 6.1821 10.3173C6.1077 10.5721 6.01886 10.9108 5.9788 11.29C5.96166 11.4891 5.95779 11.6688 5.9639 11.8538C5.9788 12.0647 6.01078 12.2451 6.07185 12.4515C6.27896 13.0401 6.43846 13.6101 7.01407 14.1723C7.19603 14.3593 7.38298 14.4867 7.51799 14.5805L7.56566 14.6141C7.59468 14.6332 7.62253 14.6508 7.64997 14.6668C7.76331 14.7263 7.83915 14.7476 7.85294 14.7506C7.90935 14.7659 7.9674 14.7384 7.99136 14.6927C8.01389 14.6446 7.99747 14.5843 7.95059 14.5462C7.95059 14.5462 7.88492 14.489 7.80067 14.3822C7.74309 14.3173 7.68051 14.2235 7.60769 14.1175C7.5562 14.0427 7.49553 13.958 7.43906 13.8756C7.15867 13.4476 6.997 12.8502 6.77341 12.2383C6.72955 12.1055 6.6937 11.9335 6.6803 11.7874C6.66244 11.6188 6.65403 11.4563 6.65403 11.3056C6.64753 10.9554 6.66316 10.6548 6.6937 10.411C6.72876 10.136 6.75621 9.92966 6.80697 9.78277Z" fill="#FB8E30"/>
<path d="M12.5008 0C5.60877 0 0 5.60758 0 12.5C0 19.3908 5.60877 25 12.5008 25C19.3924 25 25.0001 19.3908 25.0001 12.5C25 5.60758 19.3924 0 12.5008 0ZM12.5008 24.0677C6.12181 24.0677 0.931916 18.8782 0.931916 12.5C0.931916 6.12102 6.12181 0.931128 12.5008 0.931128C18.879 0.931128 24.0693 6.12102 24.0693 12.5C24.0692 18.8782 18.8789 24.0677 12.5008 24.0677Z" fill="#FB8E30"/>
</g>

</symbol><symbol id="marker" viewBox="0 0 16 24">
<path d="M8 0.013504C3.857 0.013504 0.5 3.357 0.5 7.4985C0.5 14.6595 8 23.9985 8 23.9985C8 23.9985 15.5 14.658 15.5 7.4985C15.5 3.3585 12.143 0.013504 8 0.013504ZM8 11.64C6.92587 11.64 5.89574 11.2133 5.13622 10.4538C4.3767 9.69427 3.95 8.66413 3.95 7.59C3.95 6.51588 4.3767 5.48574 5.13622 4.72622C5.89574 3.9667 6.92587 3.54 8 3.54C9.07413 3.54 10.1043 3.9667 10.8638 4.72622C11.6233 5.48574 12.05 6.51588 12.05 7.59C12.05 8.66413 11.6233 9.69427 10.8638 10.4538C10.1043 11.2133 9.07413 11.64 8 11.64Z" fill="#FFDA8F"/>
</symbol><symbol id="musical-note" viewBox="0 0 25 25">
<g clip-path="url(#clip0)">
<path d="M24.6661 0.195133C24.4571 0.0254905 24.1821 -0.033438 23.9143 0.0201334L7.84286 3.59156C7.43393 3.68263 7.14286 4.04513 7.14286 4.46299V18.588C6.39464 18.1344 5.47321 17.8558 4.46429 17.8558C2.00357 17.8558 0 19.4576 0 21.4273C0 23.3969 2.00357 24.9987 4.46429 24.9987C6.925 24.9987 8.92857 23.3969 8.92857 21.4273V10.5362L23.2143 7.3612V15.0166C22.4661 14.563 21.5446 14.2844 20.5357 14.2844C18.0732 14.2844 16.0714 15.8862 16.0714 17.8558C16.0714 19.8255 18.0732 21.4273 20.5357 21.4273C22.9982 21.4273 25 19.8255 25 17.8558V0.891562C25 0.620133 24.8786 0.364776 24.6661 0.195133Z" fill="#FB8E30"/>
</g>

</symbol><symbol id="person" viewBox="0 0 14 14">
<path d="M1.16667 14C1.16667 14 0 14 0 12.8333C0 11.6667 1.16667 8.16667 7 8.16667C12.8333 8.16667 14 11.6667 14 12.8333C14 14 12.8333 14 12.8333 14H1.16667ZM7 7C7.92826 7 8.8185 6.63125 9.47487 5.97487C10.1313 5.3185 10.5 4.42826 10.5 3.5C10.5 2.57174 10.1313 1.6815 9.47487 1.02513C8.8185 0.368749 7.92826 0 7 0C6.07174 0 5.1815 0.368749 4.52513 1.02513C3.86875 1.6815 3.5 2.57174 3.5 3.5C3.5 4.42826 3.86875 5.3185 4.52513 5.97487C5.1815 6.63125 6.07174 7 7 7Z" fill="#FB8E30"/>
</symbol><symbol id="phone" viewBox="0 0 18 18">
<path d="M7.61 10.32C8.65374 11.3788 9.91664 12.1963 11.31 12.715L13.195 11.215C13.2509 11.1765 13.3171 11.1559 13.385 11.1559C13.4529 11.1559 13.5191 11.1765 13.575 11.215L17.075 13.47C17.2079 13.5499 17.3204 13.6596 17.4036 13.7904C17.4867 13.9212 17.5384 14.0696 17.5544 14.2238C17.5704 14.378 17.5503 14.5339 17.4958 14.679C17.4412 14.8241 17.3536 14.9545 17.24 15.06L15.6 16.68C15.3651 16.9121 15.0765 17.0824 14.7598 17.1757C14.4431 17.2691 14.1082 17.2826 13.785 17.215C10.5611 16.5492 7.58957 14.9898 5.21 12.715C2.88324 10.4176 1.27313 7.49443 0.574997 4.30001C0.50603 3.98183 0.520425 3.65123 0.616785 3.34024C0.713146 3.02926 0.888205 2.74845 1.125 2.52501L2.825 0.885007C2.9302 0.776901 3.05849 0.693994 3.20027 0.642496C3.34205 0.590997 3.49365 0.572241 3.6437 0.587631C3.79376 0.603022 3.93839 0.65216 4.06677 0.731367C4.19514 0.810574 4.30393 0.917797 4.385 1.04501L6.715 4.50001C6.75519 4.55426 6.77688 4.61999 6.77688 4.68751C6.77688 4.75502 6.75519 4.82075 6.715 4.87501L5.18 6.72001C5.71279 8.08548 6.54286 9.31522 7.61 10.32Z" fill="#1E1E1E"/>
</symbol><symbol id="pool" viewBox="0 0 25 25">
<g clip-path="url(#clip0)">
<path d="M25 4.16667V3.125C25 2.2962 24.6708 1.50134 24.0847 0.915291C23.4987 0.32924 22.7038 0 21.875 0C21.0462 0 20.2513 0.32924 19.6653 0.915291C19.0792 1.50134 18.75 2.2962 18.75 3.125V6.25H13.5417V3.125C13.5417 2.84873 13.6514 2.58378 13.8468 2.38843C14.0421 2.19308 14.3071 2.08333 14.5833 2.08333C14.8596 2.08333 15.1246 2.19308 15.3199 2.38843C15.5153 2.58378 15.625 2.84873 15.625 3.125V4.16667H17.7083V3.125C17.7083 2.2962 17.3791 1.50134 16.793 0.915291C16.207 0.32924 15.4121 6.58545e-08 14.5833 6.58545e-08C13.7545 6.58545e-08 12.9597 0.32924 12.3736 0.915291C11.7876 1.50134 11.4583 2.2962 11.4583 3.125V14.7396C10.9806 14.6285 10.4912 14.5761 10.0008 14.5833C7.50078 14.5833 7.50078 15.625 5.00078 15.625C2.50078 15.625 2.5 14.5833 0 14.5833V18.75C2.5 18.75 2.5 19.7917 5 19.7917C7.5 19.7917 7.5 18.75 10 18.75C12.5 18.75 12.5 19.7917 15 19.7917C17.5 19.7917 17.5 18.75 20 18.75C22.5 18.75 22.5 19.7917 25 19.7917V15.625C22.8139 15.625 22.5391 14.8285 20.8333 14.6285V3.125C20.8333 2.84873 20.9431 2.58378 21.1384 2.38843C21.3338 2.19308 21.5987 2.08333 21.875 2.08333C22.1513 2.08333 22.4162 2.19308 22.6116 2.38843C22.8069 2.58378 22.9167 2.84873 22.9167 3.125V4.16667H25ZM18.75 8.33333V10.4167H13.5417V8.33333H18.75ZM13.5417 15.4688V12.5H18.75V14.6944C17.3992 14.9625 16.9948 15.625 15 15.625C14.5093 15.6323 14.0196 15.5799 13.5417 15.4688Z" fill="#FB8E30"/>
<path d="M15 20.8334C12.5 20.8334 12.5 19.7917 10 19.7917C7.5 19.7917 7.5 20.8334 5 20.8334C2.5 20.8334 2.5 19.7917 0 19.7917V25H25V20.8334C22.5 20.8334 22.5 19.7917 20 19.7917C17.5 19.7917 17.5 20.8334 15 20.8334Z" fill="#FB8E30"/>
</g>

</symbol><symbol id="rouble" viewBox="0 0 14 14">
<path d="M7 14C6.05208 14 5.14518 13.8154 4.2793 13.4463C3.41341 13.0771 2.66829 12.5804 2.04395 11.9561C1.4196 11.3317 0.922852 10.5866 0.553711 9.7207C0.18457 8.85482 0 7.94792 0 7C0 6.05208 0.18457 5.14518 0.553711 4.2793C0.922852 3.41341 1.4196 2.66829 2.04395 2.04395C2.66829 1.4196 3.41341 0.922852 4.2793 0.553711C5.14518 0.18457 6.05208 0 7 0C7.94792 0 8.85482 0.18457 9.7207 0.553711C10.5866 0.922852 11.3317 1.4196 11.9561 2.04395C12.5804 2.66829 13.0771 3.41341 13.4463 4.2793C13.8154 5.14518 14 6.05208 14 7C14 7.94792 13.8154 8.85482 13.4463 9.7207C13.0771 10.5866 12.5804 11.3317 11.9561 11.9561C11.3317 12.5804 10.5866 13.0771 9.7207 13.4463C8.85482 13.8154 7.94792 14 7 14ZM8.3125 1.75H5.25C5.01302 1.75 4.80794 1.83659 4.63477 2.00977C4.46159 2.18294 4.375 2.38802 4.375 2.625V6.125H3.5C3.26302 6.125 3.05794 6.21159 2.88477 6.38477C2.71159 6.55794 2.625 6.7653 2.625 7.00684C2.625 7.24837 2.71159 7.45345 2.88477 7.62207C3.05794 7.79069 3.26302 7.875 3.5 7.875H4.375V8.75H3.5C3.26302 8.75 3.05794 8.83659 2.88477 9.00977C2.71159 9.18294 2.625 9.3903 2.625 9.63184C2.625 9.87337 2.71159 10.0785 2.88477 10.2471C3.05794 10.4157 3.26302 10.5 3.5 10.5H4.375V11.375C4.375 11.6211 4.45931 11.8285 4.62793 11.9971C4.79655 12.1657 5.00163 12.25 5.24316 12.25C5.4847 12.25 5.69206 12.1657 5.86523 11.9971C6.03841 11.8285 6.125 11.6211 6.125 11.375V10.5H7.875C8.11198 10.5 8.31706 10.4157 8.49023 10.2471C8.66341 10.0785 8.75 9.87337 8.75 9.63184C8.75 9.3903 8.66341 9.18294 8.49023 9.00977C8.31706 8.83659 8.11198 8.75 7.875 8.75H6.125V7.875H8.3125C9.16016 7.875 9.88249 7.5765 10.4795 6.97949C11.0765 6.38249 11.375 5.66016 11.375 4.8125C11.375 3.96484 11.0765 3.24251 10.4795 2.64551C9.88249 2.0485 9.16016 1.75 8.3125 1.75ZM8.3125 6.125H6.125V3.5H8.3125C8.67708 3.5 8.98698 3.6276 9.24219 3.88281C9.4974 4.13802 9.625 4.44792 9.625 4.8125C9.625 5.17708 9.4974 5.48698 9.24219 5.74219C8.98698 5.9974 8.67708 6.125 8.3125 6.125Z" fill="#FB8E30"/>
</symbol><symbol id="sofa" viewBox="0 0 25 25">
<path d="M20.3047 21.6772C19.7671 21.6772 19.3291 21.2391 19.3291 20.7016V19.726H20.3047C21.8597 19.726 22.2558 19.1973 22.2558 19.1973V20.7016C22.2558 21.2391 21.8178 21.6772 21.2802 21.6772H20.3047Z" fill="#FB8E30"/>
<path d="M3.71996 21.6772C3.18242 21.6772 2.74438 21.2391 2.74438 20.7016V19.1973C2.74438 19.1973 3.14047 19.726 4.69553 19.726H5.6711V20.7016C5.6711 21.2391 5.23307 21.6772 4.69553 21.6772H3.71996Z" fill="#FB8E30"/>
<path d="M25 11.4336C25 10.1878 23.9893 9.17712 22.7435 9.17712C21.7757 9.17712 20.9563 9.78978 20.6363 10.6463L19.5661 13.0433C19.4861 12.9936 16.2501 11.977 12.5605 11.977C8.87087 11.977 5.5071 12.9984 5.42515 13.0492L4.41154 10.8005C4.1374 9.86588 3.28085 9.1781 2.2565 9.1781C1.01069 9.1781 0 10.1878 0 11.4346C0 12.4716 0.704363 13.336 1.6575 13.6004L2.07504 17.1895C2.516 18.7124 4.69543 18.7504 4.69543 18.7504H20.3046C20.3046 18.7504 22.484 18.7124 22.925 17.1875L23.3425 13.5984C24.2947 13.335 25 12.4707 25 11.4336Z" fill="#FB8E30"/>
<path d="M2.25653 8.00647C3.73159 8.00647 5.05544 8.98009 5.50908 10.3849L6.00272 11.4824C6.95781 11.1381 10.3918 10.8064 12.5615 10.8064C14.6717 10.8064 18.0569 11.1146 18.9934 11.4561L19.5544 10.1986C20.0627 8.88546 21.3397 8.00647 22.7445 8.00647C22.8479 8.00647 22.9465 8.02794 23.0489 8.03672C23.0489 8.03086 23.0499 8.02403 23.0499 8.01818C23.0499 5.42511 20.9485 3.32275 18.3544 3.32275C18.0286 3.32275 6.97342 3.32275 6.64758 3.32275C4.05451 3.32275 1.95215 5.42413 1.95215 8.01818C1.95215 8.02403 1.95312 8.03086 1.95312 8.03672C2.05458 8.02891 2.15312 8.00647 2.25653 8.00647Z" fill="#FB8E30"/>
</symbol><symbol id="star" viewBox="0 0 15 14">
<path d="M7.31109 0.543478C7.37335 0.364366 7.62665 0.364366 7.68891 0.543478L9.21766 4.94149C9.24513 5.02051 9.31886 5.07408 9.4025 5.07578L14.0577 5.17065C14.2473 5.17451 14.3255 5.41542 14.1744 5.52998L10.4641 8.34297C10.3974 8.39351 10.3692 8.48019 10.3935 8.56026L11.7418 13.0169C11.7967 13.1984 11.5918 13.3473 11.4361 13.239L7.61424 10.5795C7.54557 10.5317 7.45443 10.5317 7.38576 10.5795L3.56389 13.239C3.40824 13.3473 3.20331 13.1984 3.25822 13.0169L4.60653 8.56026C4.63075 8.48019 4.60259 8.39351 4.53593 8.34297L0.825577 5.52998C0.67447 5.41542 0.752746 5.17451 0.942331 5.17065L5.5975 5.07578C5.68114 5.07408 5.75487 5.02051 5.78234 4.94149L7.31109 0.543478Z"/>
</symbol><symbol id="telegram" viewBox="0 0 26 26">
<g clip-path="url(#clip0)">
<path d="M10.3094 16.3136L9.89584 22.1303C10.4875 22.1303 10.7438 21.8761 11.051 21.5709L13.825 18.9199L19.5729 23.1293C20.6271 23.7168 21.3698 23.4074 21.6542 22.1595L25.4271 4.48031L25.4281 4.47926C25.7625 2.92093 24.8646 2.31156 23.8375 2.69385L1.66042 11.1845C0.146877 11.772 0.169794 12.6157 1.40313 12.998L7.07292 14.7616L20.2427 6.52093C20.8625 6.11051 21.426 6.3376 20.9625 6.74801L10.3094 16.3136Z" fill="#1E1E1E"/>
</g>

</symbol><symbol id="viber" viewBox="0 0 26 26">
<g clip-path="url(#clip0)">
<path d="M24.6198 14.972C25.3657 8.69384 24.2615 4.73029 22.2698 2.93759L22.2709 2.93654C19.0563 -0.124913 8.20002 -0.578038 4.35419 3.07404C2.62711 4.8605 2.01877 7.48238 1.95211 10.7282C1.88544 13.9751 1.80627 20.0574 7.47398 21.7074H7.47919L7.47398 24.2272C7.47398 24.2272 7.43544 25.248 8.08752 25.4532C8.83336 25.6949 9.17086 25.2209 11.4906 22.4501C15.3698 22.7865 18.349 22.0157 18.6875 21.9032C19.4709 21.6407 23.9032 21.0543 24.6198 14.972ZM11.8729 20.6772C11.8729 20.6772 9.41773 23.7386 8.65419 24.5334C8.40419 24.7918 8.13023 24.7678 8.1344 24.2553C8.1344 23.9188 8.15315 20.072 8.15315 20.072C3.34794 18.6949 3.63127 13.5157 3.68336 10.8063C3.73544 8.09592 4.23127 5.87613 5.69377 4.38134C9.06773 1.2178 18.5854 1.92509 21.0104 4.20425C23.975 6.83238 22.9198 14.2574 22.9261 14.5105C22.3167 19.5876 18.725 19.9095 18.0646 20.1293C17.7823 20.223 15.1625 20.897 11.8729 20.6772Z" fill="#1E1E1E"/>
<path d="M13.2313 4.97607C12.8302 4.97607 12.8302 5.60107 13.2313 5.60628C16.3427 5.63024 18.9052 7.79899 18.9333 11.7771C18.9333 12.1969 19.5479 12.1917 19.5427 11.7719H19.5417C19.5083 7.48545 16.7104 5.00003 13.2313 4.97607Z" fill="#1E1E1E"/>
<path d="M17.3239 11.1177C17.3146 11.5323 17.9281 11.5521 17.9333 11.1323C17.9844 8.76879 16.5271 6.82191 13.7885 6.6167C13.3875 6.58754 13.3458 7.21775 13.7458 7.24691C16.1208 7.42712 17.3719 9.04795 17.3239 11.1177Z" fill="#1E1E1E"/>
<path d="M16.6677 13.8062C16.1531 13.5083 15.6292 13.6937 15.4125 13.9864L14.9594 14.5729C14.7292 14.8708 14.299 14.8312 14.299 14.8312C11.1594 14.001 10.3198 10.7156 10.3198 10.7156C10.3198 10.7156 10.2812 10.2708 10.5687 10.0322L11.1354 9.56349C11.4187 9.33849 11.5979 8.79682 11.3094 8.26453C10.5385 6.87182 10.0208 6.39161 9.75729 6.02286C9.48021 5.67599 9.06354 5.59786 8.63021 5.83224H8.62083C7.71979 6.35932 6.73333 7.34578 7.04896 8.3614C7.5875 9.43224 8.57708 12.8458 11.7312 15.4249C13.2135 16.6447 15.5594 17.8947 16.5552 18.1833L16.5646 18.1979C17.5458 18.5249 18.5 17.4999 19.0094 16.5718V16.5645C19.2354 16.1156 19.1604 15.6906 18.8302 15.4124C18.2448 14.8416 17.3615 14.2114 16.6677 13.8062Z" fill="#1E1E1E"/>
<path d="M14.2177 8.94167C15.2188 9 15.7042 9.52292 15.7563 10.5969C15.775 11.0167 16.3844 10.9875 16.3656 10.5677C16.299 9.16562 15.5677 8.38437 14.2511 8.31146C13.85 8.2875 13.8125 8.91771 14.2177 8.94167Z" fill="#1E1E1E"/>
</g>

</symbol><symbol id="whatsapp" viewBox="0 0 26 26">
<g clip-path="url(#clip0)">
<path d="M18.7364 15.4033L18.7271 15.4814C16.4364 14.3397 16.1969 14.1876 15.901 14.6314C15.6958 14.9387 15.0979 15.6356 14.9177 15.8418C14.7354 16.0449 14.5542 16.0606 14.2448 15.9199C13.9323 15.7637 12.9292 15.4356 11.7417 14.3731C10.8167 13.5449 10.1958 12.5293 10.0125 12.2168C9.70728 11.6897 10.3458 11.6147 10.9271 10.5147C11.0312 10.296 10.9781 10.1241 10.901 9.96889C10.8229 9.81264 10.201 8.28139 9.94062 7.67097C9.69062 7.06264 9.43332 7.13972 9.24062 7.13972C8.64062 7.08764 8.20207 7.09597 7.81562 7.49805C6.13437 9.34597 6.55832 11.2522 7.99687 13.2793C10.8239 16.9793 12.3302 17.6606 15.0844 18.6064C15.8281 18.8428 16.5062 18.8095 17.0427 18.7324C17.6406 18.6376 18.8833 17.9814 19.1427 17.247C19.4083 16.5126 19.4083 15.9033 19.3302 15.7626C19.2531 15.622 19.0489 15.5439 18.7364 15.4033Z" fill="#1E1E1E"/>
<path d="M21.875 4.09218C13.8656 -3.65053 0.610417 1.9651 0.605208 12.888C0.605208 15.0713 1.17708 17.2005 2.26667 19.0807L0.5 25.4995L7.09896 23.7786C15.3333 28.2266 25.4958 22.3203 25.5 12.8943C25.5 9.58593 24.2083 6.47239 21.8594 4.13281L21.875 4.09218ZM23.4188 12.8599C23.4125 20.8109 14.6844 25.7766 7.78125 21.7182L7.40625 21.4953L3.5 22.5109L4.54688 18.7141L4.29792 18.3234C0.00208318 11.4849 4.9375 2.54739 13.075 2.54739C15.8396 2.54739 18.4344 3.62552 20.3885 5.57864C22.3417 7.5151 23.4188 10.1099 23.4188 12.8599Z" fill="#1E1E1E"/>
</g>

</symbol></svg>