<svg id="Layer_3" height="512" viewBox="0 0 64 64" width="512" xmlns="http://www.w3.org/2000/svg"><path d="M58 .905H6c-2.757 0-5 2.243-5 5v38c0 2.757 2.243 5 5 5h16v6h-2c-2.206 0-4 1.794-4 4v3a1 1 0 001 1h30a1 1 0 001-1v-3c5.514 0 10-4.486 10-10 2.757 0 5-2.243 5-5v-38c0-2.757-2.243-5-5-5zm-52 2h52c1.654 0 3 1.346 3 3v31h-5.019C54.343 34.733 51.85 33.24 49 32.956v-1.051c0-.551.448-1 1-1h2c1.654 0 3-1.346 3-3s-1.346-3-3-3H40a1.001 1.001 0 010-2h7c2.206 0 4-1.794 4-4v-9c0-2.206-1.794-4-4-4H31c-2.206 0-4 1.794-4 4v5.184c-1.161.414-2 1.514-2 2.816s.839 2.402 2 2.816v4.184a1.001 1.001 0 01-2 0v-2h-2v2c0 1.654 1.346 3 3 3s3-1.346 3-3v-4.184c1.161-.414 2-1.514 2-2.816s-.839-2.402-2-2.816V9.905c0-1.103.897-2 2-2h16c1.103 0 2 .897 2 2v9c0 1.103-.897 2-2 2h-7c-1.654 0-3 1.346-3 3s1.346 3 3 3h12a1.001 1.001 0 010 2h-2c-1.654 0-3 1.346-3 3v1.051c-2.85.284-5.343 1.777-6.981 3.949H3v-31c0-1.654 1.346-3 3-3zM49 39.09v-4.115a8.007 8.007 0 016.931 6.931H51a2.995 2.995 0 00-2-2.816zm-4 2.815h-4.931A8.007 8.007 0 0147 34.974v4.115a2.997 2.997 0 00-2 2.816zm2 0a1.001 1.001 0 012 0v2a1.001 1.001 0 01-2 0zm-19-23a1.001 1.001 0 010-2 1.001 1.001 0 010 2zm-25 25v-5h35.841a9.93 9.93 0 00-.841 4v4H6c-1.654 0-3-1.345-3-3zm21 5h14c0 2.253.758 4.326 2.019 6H24zm22 10v2H18v-2c0-1.103.897-2 2-2h22.026A9.947 9.947 0 0045.98 58.7c.007.068.02.136.02.205zm2-2c-4.411 0-8-3.589-8-8v-5h5c0 1.654 1.346 3 3 3s3-1.346 3-3h5v5c0 4.411-3.589 8-8 8zm10-10v-4a9.93 9.93 0 00-.841-4H61v5c0 1.655-1.346 3-3 3z"/><path d="M6 34.905h14a1 1 0 001-1v-10a1 1 0 00-1-1H6a1 1 0 00-1 1v10a1 1 0 001 1zm1-2v-6.826l5.35 4.585a.994.994 0 001.3 0L19 26.079v6.826zm1.703-8h8.594L13 28.588zm-2.703-4h14a1 1 0 001-1v-10a1 1 0 00-1-1H6a1 1 0 00-1 1v10a1 1 0 001 1zm1-2v-6.826l5.35 4.585a.994.994 0 001.3 0L19 12.079v6.826zm1.703-8h8.594L13 14.588z"/></svg>