<?xml version="1.0"?>
<svg viewBox="0 0 64 64" 
	xmlns="http://www.w3.org/2000/svg">
	<g>
		<path d="m58 .905h-52c-2.757 0-5 2.243-5 5v38c0 2.757 2.243 5 5 5h16v6h-2c-2.206 0-4 1.794-4 4v3c0 .552.447 1 1 1h30c.553 0 1-.448 1-1v-3c5.514 0 10-4.486 10-10 2.757 0 5-2.243 5-5v-38c0-2.757-2.243-5-5-5zm-52 2h52c1.654 0 3 1.346 3 3v31h-5.019c-1.638-2.172-4.131-3.665-6.981-3.949v-1.051c0-.551.448-1 1-1h2c1.654 0 3-1.346 3-3s-1.346-3-3-3h-12c-.552 0-1-.449-1-1s.448-1 1-1h7c2.206 0 4-1.794 4-4v-9c0-2.206-1.794-4-4-4h-16c-2.206 0-4 1.794-4 4v5.184c-1.161.414-2 1.514-2 2.816s.839 2.402 2 2.816v4.184c0 .551-.448 1-1 1s-1-.449-1-1v-2h-2v2c0 1.654 1.346 3 3 3s3-1.346 3-3v-4.184c1.161-.414 2-1.514 2-2.816s-.839-2.402-2-2.816v-5.184c0-1.103.897-2 2-2h16c1.103 0 2 .897 2 2v9c0 1.103-.897 2-2 2h-7c-1.654 0-3 1.346-3 3s1.346 3 3 3h12c.552 0 1 .449 1 1s-.448 1-1 1h-2c-1.654 0-3 1.346-3 3v1.051c-2.85.284-5.343 1.777-6.981 3.949h-37.019v-31c0-1.654 1.346-3 3-3zm43 36.185v-4.115c3.612.453 6.477 3.319 6.931 6.931h-4.931c0-1.303-.839-2.402-2-2.816zm-4 2.815h-4.931c.453-3.612 3.319-6.477 6.931-6.931v4.115c-1.161.415-2 1.514-2 2.816zm2 0c0-.551.448-1 1-1s1 .449 1 1v2c0 .551-.448 1-1 1s-1-.449-1-1zm-19-23c-.552 0-1-.449-1-1s.448-1 1-1 1 .449 1 1-.448 1-1 1zm-25 25v-5h35.841c-.538 1.226-.841 2.578-.841 4v4h-32c-1.654 0-3-1.345-3-3zm21 5h14c0 2.253.758 4.326 2.019 6h-16.019zm22 10v2h-28v-2c0-1.103.897-2 2-2h22.026c1.154.864 2.493 1.494 3.954 1.795.007.068.02.136.02.205zm2-2c-4.411 0-8-3.589-8-8v-5h5c0 1.654 1.346 3 3 3s3-1.346 3-3h5v5c0 4.411-3.589 8-8 8zm10-10v-4c0-1.422-.303-2.774-.841-4h3.841v5c0 1.655-1.346 3-3 3z"/>
		<path d="m6 34.905h14c.553 0 1-.448 1-1v-10c0-.552-.447-1-1-1h-14c-.553 0-1 .448-1 1v10c0 .553.447 1 1 1zm1-2v-6.826l5.35 4.585c.187.161.419.241.65.241s.464-.08.65-.241l5.35-4.585v6.826zm1.703-8h8.594l-4.297 3.683z"/>
		<path d="m6 20.905h14c.553 0 1-.448 1-1v-10c0-.552-.447-1-1-1h-14c-.553 0-1 .448-1 1v10c0 .553.447 1 1 1zm1-2v-6.826l5.35 4.585c.187.161.419.241.65.241s.464-.08.65-.241l5.35-4.585v6.826zm1.703-8h8.594l-4.297 3.683z"/>
	</g>
</svg>