<svg xmlns="http://www.w3.org/2000/svg" id="outline" width="512" height="512"><path d="M488 328H344a8 8 0 00-8 8v36.686l-70.627-70.626A47.684 47.684 0 00231.432 288H207.39a63.586 63.586 0 008.61-32v-48h40v-16h-34.234l-16.706-50.12A31.96 31.96 0 00174.702 120h-45.404a31.96 31.96 0 00-30.358 21.88L82.234 192H48v16h40v48a63.586 63.586 0 008.61 32H80a64.072 64.072 0 00-64 64v144h16V352a48.055 48.055 0 0148-48h29.736a63.821 63.821 0 0084.528 0h37.168a31.786 31.786 0 0122.627 9.373L336 395.314V448h-12.686l2.343-2.343a8 8 0 001.498-9.235l-15.05-30.1a40.381 40.381 0 00-45.913-21.116l-10.938 2.734-33.597-33.597A8 8 0 00208 360v39.754l-61.546 15.387-44.797-44.798-11.314 11.314 48 48a7.995 7.995 0 007.597 2.104l88.813-22.203 11.996 35.988-64.846 27.792a82.4 82.4 0 01-90.724-17.473l-37.522-37.522-11.314 11.314 37.523 37.523a98.4 98.4 0 00108.34 20.864l35.812-15.348A24.024 24.024 0 00248 496h240a8 8 0 008-8V336a8 8 0 00-8-8zm-384-72v-9.376a23.882 23.882 0 008 1.376h24a8 8 0 007.155-4.422l4.423-8.845a4.944 4.944 0 018.844 0l4.423 8.845A8 8 0 00168 248h24a23.882 23.882 0 008-1.376V256a48.065 48.065 0 01-.68 8h-8.693a27.135 27.135 0 01-19.314-8 27.313 27.313 0 00-38.627 0 27.135 27.135 0 01-19.314 8h-8.693a48.065 48.065 0 01-.679-8zm25.298-120h45.404a15.98 15.98 0 0115.179 10.94l4.353 13.06h-84.468l4.353-13.06A15.98 15.98 0 01129.3 136zm-24.865 40h95.134l5.334 16H99.099zM104 208h96v16a8.01 8.01 0 01-8 8h-19.056l-2.211-4.423a20.944 20.944 0 00-37.466 0L131.056 232H112a8.01 8.01 0 01-8-8zm48 96a48.017 48.017 0 01-41.542-24h2.915A43.031 43.031 0 00144 267.314a11.312 11.312 0 0116 0A43.031 43.031 0 00190.627 280h2.915A48.017 48.017 0 01152 304zm72 75.313l13.152 13.153L224 395.754zm26.321 26.353l19.75-4.937a24.382 24.382 0 0127.724 12.75l12.471 24.94-7.286 7.287-18.543-12.362a8.003 8.003 0 00-7.588-.698l-15.342 6.576zM240 472v-6.153l4.31-1.847H336v16h-88a8.01 8.01 0 01-8-8zm240 8H352V344h128z"/><path d="M416 432a24 24 0 10-24-24 24.027 24.027 0 0024 24zm0-32a8 8 0 11-8 8 8.01 8.01 0 018-8zm-96-176a24 24 0 1024-24 24.027 24.027 0 00-24 24zm32 0a8 8 0 11-8-8 8.01 8.01 0 018 8zm22.187-125.072A7.999 7.999 0 00368 96h-48a8 8 0 00-7.845 9.57l16 80A8 8 0 00336 192h16a8 8 0 007.845-6.43l16-80a8.002 8.002 0 00-1.658-6.642zM345.44 176h-2.882l-12.8-64h28.483z"/><path d="M377.108 34.144a35.102 35.102 0 00-61.467 0L240.996 169.44l14.008 7.729L329.65 41.873a19.102 19.102 0 0133.45 0l117.895 213.688A11.084 11.084 0 01471.29 272H272v16h199.29a27.084 27.084 0 0023.714-40.168z"/></svg>