<?xml version="1.0"?>
<svg xmlns="http://www.w3.org/2000/svg" viewBox="0 0 64 64" width="512" height="512"><g id="Undernanker"><path d="M19,18H11a3,3,0,0,0-3,3v6a3,3,0,0,0,3,3h8a3,3,0,0,0,3-3V21A3,3,0,0,0,19,18Zm1,3v2H18V20h1A1,1,0,0,1,20,21Zm-6,2V20h2v3Zm-3-3h1v3H10V21A1,1,0,0,1,11,20Zm-1,7V25h4v3H11A1,1,0,0,1,10,27Zm10,0a1,1,0,0,1-1,1H16V25h4Z"/><path d="M52,18a5.963,5.963,0,0,0-3.5,1.139,6,6,0,1,0,0,9.722A6,6,0,1,0,52,18ZM41,24a3.992,3.992,0,0,1,6.073-3.415,5.971,5.971,0,0,0,0,6.83A3.992,3.992,0,0,1,41,24Zm11,4a4,4,0,1,1,4-4A4,4,0,0,1,52,28Z"/><path d="M21,42H9a1,1,0,0,1-1-1V37a1,1,0,0,1,1-1H21a1,1,0,0,1,1,1v4A1,1,0,0,1,21,42ZM10,40H20V38H10Z"/><path d="M57,12H32a1,1,0,0,0-.929,1.372L34.9,22.955l-3.8,7.6a1.006,1.006,0,0,0-.095.589L32.363,40.6l-6.178-9.611,4.663-7.462a1,1,0,0,0,.009-1.045l-6-10A1,1,0,0,0,24,12H7a5.006,5.006,0,0,0-5,5V47a5.006,5.006,0,0,0,5,5H57a5.006,5.006,0,0,0,5-5V17A5.006,5.006,0,0,0,57,12ZM29.6,40H27V38h1.311Zm4.413-2H37v2H34.3ZM60,47a3,3,0,0,1-3,3H7a3,3,0,0,1-3-3V17a3,3,0,0,1,3-3H23.434l5.393,8.989L24.152,30.47a1,1,0,0,0,.007,1.071L27.025,36H26a1,1,0,0,0-1,1v4a1,1,0,0,0,1,1h4.882l2.276,3.541a1,1,0,0,0,1.832-.682L34.582,42H38a1,1,0,0,0,1-1V37a1,1,0,0,0-1-1H33.725l-.691-4.833,3.861-7.72a1.008,1.008,0,0,0,.034-.819L33.477,14H57a3,3,0,0,1,3,3Z"/><path d="M55,42H43a1,1,0,0,1-1-1V37a1,1,0,0,1,1-1H55a1,1,0,0,1,1,1v4A1,1,0,0,1,55,42ZM44,40H54V38H44Z"/><path d="M55,46H39a1,1,0,0,1,0-2H55a1,1,0,0,1,0,2Z"/></g></svg>
