<svg xmlns="http://www.w3.org/2000/svg" viewBox="0 0 64 64"><path d="M19 18h-8a3 3 0 00-3 3v6a3 3 0 003 3h8a3 3 0 003-3v-6a3 3 0 00-3-3zm1 3v2h-2v-3h1a1 1 0 011 1zm-6 2v-3h2v3zm-3-3h1v3h-2v-2a1 1 0 011-1zm-1 7v-2h4v3h-3a1 1 0 01-1-1zm10 0a1 1 0 01-1 1h-3v-3h4zm32-9a5.963 5.963 0 00-3.5 1.139 6 6 0 100 9.722A6 6 0 1052 18zm-11 6a3.992 3.992 0 016.073-3.415 5.971 5.971 0 000 6.83A3.992 3.992 0 0141 24zm11 4a4 4 0 114-4 4 4 0 01-4 4zM21 42H9a1 1 0 01-1-1v-4a1 1 0 011-1h12a1 1 0 011 1v4a1 1 0 01-1 1zm-11-2h10v-2H10z"/><path d="M57 12H32a1 1 0 00-.929 1.372l3.829 9.583-3.8 7.6a1.006 1.006 0 00-.095.589l1.358 9.456-6.178-9.611 4.663-7.462a1 1 0 00.009-1.045l-6-10A1 1 0 0024 12H7a5.006 5.006 0 00-5 5v30a5.006 5.006 0 005 5h50a5.006 5.006 0 005-5V17a5.006 5.006 0 00-5-5zM29.6 40H27v-2h1.311zm4.413-2H37v2h-2.7zM60 47a3 3 0 01-3 3H7a3 3 0 01-3-3V17a3 3 0 013-3h16.434l5.393 8.989-4.675 7.481a1 1 0 00.007 1.071L27.025 36H26a1 1 0 00-1 1v4a1 1 0 001 1h4.882l2.276 3.541a1 1 0 001.832-.682L34.582 42H38a1 1 0 001-1v-4a1 1 0 00-1-1h-4.275l-.691-4.833 3.861-7.72a1.008 1.008 0 00.034-.819L33.477 14H57a3 3 0 013 3z"/><path d="M55 42H43a1 1 0 01-1-1v-4a1 1 0 011-1h12a1 1 0 011 1v4a1 1 0 01-1 1zm-11-2h10v-2H44zm11 6H39a1 1 0 010-2h16a1 1 0 010 2z"/></svg>