<svg viewBox="0 0 480 480" xmlns="http://www.w3.org/2000/svg"><path d="M16 128h80v60.688l-29.656 29.656A8.001 8.001 0 0064 224v104c0 .918.16 1.828.473 2.688L104 441.375V472a8 8 0 008 8h96a8 8 0 008-8V352a7.894 7.894 0 00-.648-3.152L196.129 304H280a8 8 0 008-8V128h80V64h16V0H0v64h16zm184 336h-80v-16h80zm0-32h-82.398L80 326.617v-99.305l16-16V296a8 8 0 008 8h32v32h16v-80a8 8 0 018-8h8a8 8 0 018 8v40a7.894 7.894 0 00.648 3.152L200 353.641zm72-144h-80v-32c0-13.254-10.746-24-24-24h-8a23.858 23.858 0 00-16 6.238V224h-16v48h8v16h-24V96h16v112h16v-77.809C156.102 144.051 173.602 152 192 152s35.898-7.95 48-21.809V208h16V96h16zM144.664 96h94.672c-3.887 23.113-23.899 40.043-47.336 40.043S148.55 119.113 144.664 96zM352 112h-64V96h16V80H80v16h16v16H32V64h320zM16 16h352v32H16zm0 0"/><path d="M48 80h16v16H48zm272 0h16v16h-16zm-80 176h-32v16h48v-48h-16zm-24-64c0-13.254-10.746-24-24-24s-24 10.746-24 24 10.746 24 24 24 24-10.746 24-24zm-24 8a8 8 0 110-16 8 8 0 010 16zm0 0"/></svg>