<?xml version="1.0" standalone="no"?>
<!DOCTYPE svg PUBLIC "-//W3C//DTD SVG 20010904//EN"
 "http://www.w3.org/TR/2001/REC-SVG-20010904/DTD/svg10.dtd">
<svg version="1.0" xmlns="http://www.w3.org/2000/svg"
 width="386.000000pt" height="386.000000pt" viewBox="0 0 386.000000 386.000000"
 preserveAspectRatio="xMidYMid meet">
<metadata>
Created by potrace 1.14, written by Peter Selinger 2001-2017
</metadata>
<g transform="translate(0.000000,386.000000) scale(0.100000,-0.100000)"
fill="#000000" stroke="none">
<path d="M1949 3856 c-2 -3 -26 -5 -54 -7 -158 -9 -334 -164 -362 -320 -9 -44
-8 -145 1 -188 20 -99 113 -219 208 -267 242 -123 525 2 594 261 61 227 -99
476 -326 510 -25 4 -47 8 -51 11 -3 2 -8 2 -10 0z"/>
<path d="M1887 2894 c-1 -1 -60 -4 -132 -8 -71 -3 -141 -8 -155 -10 -14 -3
-47 -7 -75 -10 -27 -3 -86 -12 -130 -21 -458 -93 -713 -237 -764 -433 -17 -61
-16 -1662 0 -1729 32 -131 144 -281 285 -382 l59 -42 5 870 5 870 30 -13 c61
-28 278 -87 365 -101 19 -3 42 -8 50 -10 8 -2 33 -7 55 -10 23 -3 52 -8 65
-10 89 -18 400 -24 590 -12 426 27 795 137 986 295 198 163 169 353 -76 510
-100 64 -284 133 -475 177 -50 12 -170 35 -210 40 -27 4 -61 9 -75 11 -49 8
-395 24 -403 18z m592 -414 c51 -21 62 -96 16 -114 -32 -12 -1072 -7 -1100 6
-34 15 -34 60 1 93 33 30 35 30 612 29 313 -1 451 -5 471 -14z"/>
<path d="M3043 1905 c-197 -95 -428 -166 -623 -190 -64 -8 -76 -14 -110 -50
l-25 -27 0 -759 0 -759 29 -27 c37 -34 90 -35 190 -4 353 110 601 303 689 537
22 59 22 62 22 672 l0 614 -24 19 c-13 10 -31 19 -40 19 -9 0 -58 -20 -108
-45z m-214 -334 l24 -18 0 -511 c0 -567 2 -548 -66 -577 -29 -12 -74 -4 -78
14 -1 3 -2 242 -3 530 -1 556 -2 552 46 570 33 12 53 10 77 -8z"/>
<path d="M1135 986 c0 -531 3 -818 10 -824 31 -28 327 -118 385 -117 l25 0 2
405 c1 223 2 410 2 417 1 6 9 10 19 8 9 -2 22 -4 29 -4 25 -2 80 -61 91 -98 7
-24 11 -139 11 -313 0 -218 3 -289 16 -344 27 -115 13 -107 188 -105 84 1 175
4 204 7 48 4 51 5 43 25 -23 55 -30 145 -31 399 -1 237 -3 278 -19 313 -31 72
-100 127 -176 141 -59 11 -53 33 12 52 59 17 117 63 150 118 l29 49 6 245 c6
220 10 278 24 317 3 8 -48 12 -196 12 -109 0 -203 2 -208 5 -5 4 -14 -8 -20
-24 -5 -17 -8 -30 -6 -30 3 0 0 -12 -6 -27 -6 -15 -10 -118 -10 -237 0 -255
-3 -282 -37 -324 -23 -28 -100 -67 -111 -57 -2 2 -3 164 -3 359 l1 356 -22 4
c-25 5 -88 16 -132 23 -16 2 -80 17 -142 34 -62 16 -116 29 -120 29 -5 0 -8
-367 -8 -814z"/>
</g>
</svg>
