<svg xmlns="http://www.w3.org/2000/svg" width="36" height="23.143" viewBox="0 0 36 23.143">
    <path fill="#3a5939" d="M33.429-11.571a19.748 19.748 0 0 0-7.654-7.092A8.78 8.78 0 0 1 27-14.143a8.668 8.668 0 0 1-2.642 6.358A8.668 8.668 0 0 1 18-5.143a8.668 8.668 0 0 1-6.358-2.642A8.668 8.668 0 0 1 9-14.143a8.78 8.78 0 0 1 1.225-4.52 19.748 19.748 0 0 0-7.654 7.092 20.736 20.736 0 0 0 6.7 6.559A16.539 16.539 0 0 0 18-2.571a16.539 16.539 0 0 0 8.729-2.441 20.736 20.736 0 0 0 6.7-6.559zM18.683-18.6a.93.93 0 0 0 .281-.683.93.93 0 0 0-.281-.683.93.93 0 0 0-.683-.284 5.878 5.878 0 0 0-4.309 1.8 5.878 5.878 0 0 0-1.8 4.309.93.93 0 0 0 .281.683.93.93 0 0 0 .683.281.93.93 0 0 0 .683-.281.93.93 0 0 0 .281-.683 4.025 4.025 0 0 1 1.228-2.959A4.025 4.025 0 0 1 18-18.321a.93.93 0 0 0 .683-.279zM35.6-12.958a2.781 2.781 0 0 1 .4 1.386 2.78 2.78 0 0 1-.4 1.386 21.312 21.312 0 0 1-7.564 7.4A19.553 19.553 0 0 1 18 0 19.5 19.5 0 0 1 7.965-2.792 21.452 21.452 0 0 1 .4-10.185a2.78 2.78 0 0 1-.4-1.386 2.78 2.78 0 0 1 .4-1.386 21.452 21.452 0 0 1 7.565-7.393A19.5 19.5 0 0 1 18-23.143a19.5 19.5 0 0 1 10.035 2.793 21.452 21.452 0 0 1 7.565 7.392z" transform="translate(0 23.143)"/>
</svg>
