<?xml version="1.0" standalone="no"?>
<!DOCTYPE svg PUBLIC "-//W3C//DTD SVG 20010904//EN"
 "http://www.w3.org/TR/2001/REC-SVG-20010904/DTD/svg10.dtd">
<svg version="1.0" xmlns="http://www.w3.org/2000/svg"
 width="728.000000pt" height="728.000000pt" viewBox="0 0 728.000000 728.000000"
 preserveAspectRatio="xMidYMid meet">
<metadata>
Created by potrace 1.14, written by Peter Selinger 2001-2017
</metadata>
<g transform="translate(0.000000,728.000000) scale(0.100000,-0.100000)"
fill="#000000" stroke="none">
<path d="M1665 7130 c-2 -3 -3 -44 -3 -90 0 -147 -10 -244 -39 -400 -4 -26
-35 -143 -52 -195 -22 -72 -107 -264 -123 -275 -4 -3 -12 -17 -17 -30 -16 -37
-25 -51 -110 -165 -177 -240 -483 -472 -776 -589 -38 -15 -77 -31 -85 -35 -12
-7 -105 -37 -142 -47 -5 -1 -9 -2 -10 -4 -2 -1 -10 -3 -18 -5 -8 -2 -59 -15
-112 -29 -92 -24 -137 -33 -166 -35 -12 -1 -11 -40 2 -136 2 -16 7 -59 11 -95
12 -103 19 -149 41 -285 8 -49 17 -103 20 -120 3 -16 10 -55 16 -85 6 -30 12
-62 13 -70 2 -17 15 -75 57 -250 16 -69 31 -129 32 -135 1 -5 5 -16 9 -22 5
-7 6 -13 3 -13 -3 0 2 -21 10 -47 8 -27 17 -56 19 -66 2 -10 16 -56 30 -104
143 -467 335 -909 565 -1298 29 -49 58 -99 64 -110 63 -110 297 -442 354 -501
7 -8 10 -14 5 -14 -4 0 -3 -4 3 -8 6 -4 35 -36 65 -72 29 -36 55 -67 58 -70 4
-3 35 -39 70 -80 81 -94 386 -398 466 -465 33 -27 67 -57 75 -66 12 -12 143
-118 230 -186 92 -71 250 -183 259 -183 5 0 11 -4 13 -8 4 -10 124 -92 134
-92 4 0 15 -6 23 -14 14 -13 229 -146 235 -146 1 0 52 -27 112 -61 60 -34 174
-92 254 -131 348 -168 374 -178 419 -165 20 6 39 15 42 20 3 5 8 8 10 7 8 -3
99 37 271 119 45 22 87 40 92 40 5 -1 12 4 15 9 3 5 38 24 76 43 39 19 72 37
73 42 2 4 7 7 12 7 5 0 53 25 107 56 54 31 111 64 128 72 31 17 92 55 111 71
5 4 21 14 35 21 37 19 134 84 137 93 2 4 8 7 13 7 8 0 250 168 284 197 6 5 28
22 50 38 22 17 45 35 51 40 6 6 29 24 50 40 21 17 45 37 54 45 8 8 31 26 50
40 19 14 42 32 50 40 9 8 52 47 96 85 187 166 507 500 634 665 14 18 37 47 51
64 14 17 60 78 102 136 42 58 80 110 85 115 22 28 72 107 72 115 0 4 4 10 9
12 11 4 141 214 141 228 0 5 5 10 10 10 6 0 10 4 10 9 0 5 24 51 53 103 64
114 158 305 227 463 26 60 67 164 69 178 0 4 8 21 17 38 8 17 17 38 20 47 9
38 87 269 101 300 8 19 12 36 9 39 -3 3 -1 14 5 25 6 11 12 28 14 39 2 11 13
53 24 93 11 40 22 83 25 97 3 13 7 33 10 44 38 160 74 379 94 580 9 89 8 526
-1 585 -4 25 -9 69 -12 99 -3 30 -9 70 -14 90 -5 20 -12 53 -15 73 -3 21 -11
57 -17 80 -6 24 -13 54 -16 68 -2 14 -7 32 -10 40 -4 8 -7 17 -8 20 -24 79
-30 97 -35 105 -4 6 -10 23 -14 40 -12 48 -132 301 -160 335 -6 8 -18 27 -26
43 -7 15 -17 27 -22 27 -4 0 -8 5 -8 11 0 37 -248 311 -358 394 -29 21 -52 43
-52 47 0 4 -6 8 -12 8 -7 0 -26 11 -42 25 -16 14 -33 25 -37 25 -4 0 -14 6
-21 13 -7 7 -42 29 -78 48 -36 18 -66 37 -68 42 -2 4 -7 7 -12 7 -4 0 -48 19
-96 41 -49 23 -93 42 -99 44 -5 1 -17 5 -25 8 -45 17 -138 47 -155 50 -11 1
-24 5 -30 8 -26 16 -274 64 -380 74 -33 3 -76 8 -95 11 -46 7 -3681 11 -3685
4z"/>
</g>
</svg>
