<svg xmlns="http://www.w3.org/2000/svg" xmlns:xlink="http://www.w3.org/1999/xlink"><defs><style>.cls-1{fill:#1d1d1b;}</style>
    <style>
      .cls-1 {
        fill: #fff;
        fill-rule: evenodd;
      }
    </style>
  
    <style>
      .cls-1 {
        fill: #fff;
        fill-rule: evenodd;
      }
    </style>
  </defs><symbol id="arroba" viewBox="0 0 512 512">
<g>
	<g>
		<path d="M257,210c-24.814,0-45,20.186-45,45c0,24.814,20.186,45,45,45c24.814,0,45-20.186,45-45C302,230.186,281.814,210,257,210z
			"/>
	</g>
</g>
<g>
	<g>
		<path d="M255,0C114.39,0,0,114.39,0,255s114.39,257,255,257s257-116.39,257-257S395.61,0,255,0z M362,330
			c-20.273,0-38.152-10.161-49.017-25.596C299.23,319.971,279.354,330,257,330c-41.353,0-75-33.647-75-75c0-41.353,33.647-75,75-75
			c16.948,0,32.426,5.865,45,15.383V195c0-8.291,6.709-15,15-15c8.291,0,15,6.709,15,15c0,33.36,0,41.625,0,75
			c0,16.538,13.462,30,30,30c16.538,0,30-13.462,30-30c0-100.391-66.432-150-135-150c-74.443,0-135,60.557-135,135
			s60.557,135,135,135c30,0,58.374-9.609,82.061-27.803c15.822-12.078,33.94,11.765,18.281,23.789
			C328.353,408.237,293.665,420,257,420c-90.981,0-165-74.019-165-165S166.019,90,257,90c82.897,0,165,61.135,165,180
			C422,303.091,395.091,330,362,330z"/>
	</g>
</g>
<g>
</g>
<g>
</g>
<g>
</g>
<g>
</g>
<g>
</g>
<g>
</g>
<g>
</g>
<g>
</g>
<g>
</g>
<g>
</g>
<g>
</g>
<g>
</g>
<g>
</g>
<g>
</g>
<g>
</g>
</symbol><symbol id="check-mark" viewBox="0 0 352.62 311.49"><path d="M337.22,2.39c-15.91-8.57-33.66,8-44.06,17.74-23.87,23.26-44.07,50.19-66.71,74.67-25.09,26.93-48.35,53.85-74,80.17-14.69,14.69-30.6,30.6-40.39,49-22-21.42-41-44.68-65.49-63.65C28.77,146.82-.6,137,0,169.46,1.23,211.69,38.57,257,66.11,285.74,77.73,298,93,310.83,110.78,311.45c21.42,1.22,43.45-24.48,56.31-38.56,22.64-24.48,41-52,61.81-77.11,26.93-33.05,54.47-65.49,80.78-99.15C326.21,75.83,378.23,24.42,337.22,2.39ZM26.94,167a4.58,4.58,0,0,0-2.45.62,30.24,30.24,0,0,1-6.73-2.45h0C19.59,164,22.65,164.57,26.94,167Z" transform="translate(0)"/></symbol><symbol id="facebook" viewBox="0 0 97.75 97.75">
<g>
	<path d="M48.875,0C21.882,0,0,21.882,0,48.875S21.882,97.75,48.875,97.75S97.75,75.868,97.75,48.875S75.868,0,48.875,0z
		 M67.521,24.89l-6.76,0.003c-5.301,0-6.326,2.519-6.326,6.215v8.15h12.641L67.07,52.023H54.436v32.758H41.251V52.023H30.229V39.258
		h11.022v-9.414c0-10.925,6.675-16.875,16.42-16.875l9.851,0.015V24.89L67.521,24.89z"/>
</g>
<g>
</g>
<g>
</g>
<g>
</g>
<g>
</g>
<g>
</g>
<g>
</g>
<g>
</g>
<g>
</g>
<g>
</g>
<g>
</g>
<g>
</g>
<g>
</g>
<g>
</g>
<g>
</g>
<g>
</g>
</symbol><symbol id="instagram" viewBox="0 0 512 512"><path d="m305 256c0 27.0625-21.9375 49-49 49s-49-21.9375-49-49 21.9375-49 49-49 49 21.9375 49 49zm0 0"/><path d="m370.59375 169.304688c-2.355469-6.382813-6.113281-12.160157-10.996094-16.902344-4.742187-4.882813-10.515625-8.640625-16.902344-10.996094-5.179687-2.011719-12.960937-4.40625-27.292968-5.058594-15.503906-.707031-20.152344-.859375-59.402344-.859375-39.253906 0-43.902344.148438-59.402344.855469-14.332031.65625-22.117187 3.050781-27.292968 5.0625-6.386719 2.355469-12.164063 6.113281-16.902344 10.996094-4.882813 4.742187-8.640625 10.515625-11 16.902344-2.011719 5.179687-4.40625 12.964843-5.058594 27.296874-.707031 15.5-.859375 20.148438-.859375 59.402344 0 39.25.152344 43.898438.859375 59.402344.652344 14.332031 3.046875 22.113281 5.058594 27.292969 2.359375 6.386719 6.113281 12.160156 10.996094 16.902343 4.742187 4.882813 10.515624 8.640626 16.902343 10.996094 5.179688 2.015625 12.964844 4.410156 27.296875 5.0625 15.5.707032 20.144532.855469 59.398438.855469 39.257812 0 43.90625-.148437 59.402344-.855469 14.332031-.652344 22.117187-3.046875 27.296874-5.0625 12.820313-4.945312 22.953126-15.078125 27.898438-27.898437 2.011719-5.179688 4.40625-12.960938 5.0625-27.292969.707031-15.503906.855469-20.152344.855469-59.402344 0-39.253906-.148438-43.902344-.855469-59.402344-.652344-14.332031-3.046875-22.117187-5.0625-27.296874zm-114.59375 162.179687c-41.691406 0-75.488281-33.792969-75.488281-75.484375s33.796875-75.484375 75.488281-75.484375c41.6875 0 75.484375 33.792969 75.484375 75.484375s-33.796875 75.484375-75.484375 75.484375zm78.46875-136.3125c-9.742188 0-17.640625-7.898437-17.640625-17.640625s7.898437-17.640625 17.640625-17.640625 17.640625 7.898437 17.640625 17.640625c-.003906 9.742188-7.898437 17.640625-17.640625 17.640625zm0 0"/><path d="m256 0c-141.363281 0-256 114.636719-256 256s114.636719 256 256 256 256-114.636719 256-256-114.636719-256-256-256zm146.113281 316.605469c-.710937 15.648437-3.199219 26.332031-6.832031 35.683593-7.636719 19.746094-23.246094 35.355469-42.992188 42.992188-9.347656 3.632812-20.035156 6.117188-35.679687 6.832031-15.675781.714844-20.683594.886719-60.605469.886719-39.925781 0-44.929687-.171875-60.609375-.886719-15.644531-.714843-26.332031-3.199219-35.679687-6.832031-9.8125-3.691406-18.695313-9.476562-26.039063-16.957031-7.476562-7.339844-13.261719-16.226563-16.953125-26.035157-3.632812-9.347656-6.121094-20.035156-6.832031-35.679687-.722656-15.679687-.890625-20.6875-.890625-60.609375s.167969-44.929688.886719-60.605469c.710937-15.648437 3.195312-26.332031 6.828125-35.683593 3.691406-9.808594 9.480468-18.695313 16.960937-26.035157 7.339844-7.480469 16.226563-13.265625 26.035157-16.957031 9.351562-3.632812 20.035156-6.117188 35.683593-6.832031 15.675781-.714844 20.683594-.886719 60.605469-.886719s44.929688.171875 60.605469.890625c15.648437.710937 26.332031 3.195313 35.683593 6.824219 9.808594 3.691406 18.695313 9.480468 26.039063 16.960937 7.476563 7.34375 13.265625 16.226563 16.953125 26.035157 3.636719 9.351562 6.121094 20.035156 6.835938 35.683593.714843 15.675781.882812 20.683594.882812 60.605469s-.167969 44.929688-.886719 60.605469zm0 0"/></symbol><symbol id="logo" viewBox="0 0 57.31 207.79"><polygon class="cls-1" points="32.5 10.26 37.23 6.23 31.03 5.74 28.66 0 26.28 5.74 20.09 6.23 24.81 10.26 23.36 16.3 28.66 13.06 33.95 16.3 32.5 10.26"/><path class="cls-1" d="M26.25,19.56V49.89h4.82V19.56Zm3.68,29.2H27.38V20.7h2.55Z"/><path class="cls-1" d="M49.38,140.54V91.91h-8.3V66.67H35.25V51.91h-3.5L28.66,62,25.57,51.91H22.06V66.67H16.24V91.91H7.94v48.63H0v67.25H11.1l.07-52.94,12.61,52.94h9.57l12.79-52.94.07,52.94h11.1V140.54ZM27.51,66.67h2.26l3.3-11.62V67.47L28.66,84.15l-4.43-16.7V55.05Zm-6.43,5.45,5,19.17h5l5.11-19.17,0,20.17h0l-7.65,32.79L21,92.29h0Zm20.24,68.42L28.66,189.37,16,140.54h0L16,102.26l8.4,37.28h8.36l8.53-37.28.05,38.28Z"/></symbol><symbol id="magnifier" viewBox="0 0 310.42 310.42"><path d="M273.59,215A126,126,0,0,0,95.46,36.83c-41.67,41.67-48,103.63-18.95,152,0,0,2.09,3.5-.73,6.31L11.52,259.42c-12.8,12.79-15.84,30.68-4.5,42l2,2c11.34,11.34,29.22,8.3,42-4.49l64.13-64.13a5.39,5.39,0,0,1,6.45-.87C170,262.94,231.92,256.63,273.59,215ZM118.71,191.71a93.07,93.07,0,1,1,131.62,0A93.17,93.17,0,0,1,118.71,191.71Z" transform="translate(0 0)"/><path d="M126.75,118.42a13,13,0,0,1-12-18.06A81.93,81.93,0,0,1,222,56.88a13,13,0,1,1-10.13,23.94,55.9,55.9,0,0,0-73.18,29.67A13,13,0,0,1,126.75,118.42Z" transform="translate(0 0)"/></symbol><symbol id="phone" viewBox="0 0 512 512">
<g>
	<g>
		<path d="M436.992,74.953c-99.989-99.959-262.08-99.935-362.039,0.055s-99.935,262.08,0.055,362.039s262.08,99.935,362.039-0.055
			c48.006-48.021,74.968-113.146,74.953-181.047C511.986,188.055,485.005,122.951,436.992,74.953z M387.703,356.605
			c-0.011,0.011-0.022,0.023-0.034,0.034v-0.085l-12.971,12.885c-16.775,16.987-41.206,23.976-64.427,18.432
			c-23.395-6.262-45.635-16.23-65.877-29.525c-18.806-12.019-36.234-26.069-51.968-41.899
			c-14.477-14.371-27.483-30.151-38.827-47.104c-12.408-18.242-22.229-38.114-29.184-59.051
			c-7.973-24.596-1.366-51.585,17.067-69.717l15.189-15.189c4.223-4.242,11.085-4.257,15.326-0.034
			c0.011,0.011,0.023,0.022,0.034,0.034l47.957,47.957c4.242,4.223,4.257,11.085,0.034,15.326c-0.011,0.011-0.022,0.022-0.034,0.034
			l-28.16,28.16c-8.08,7.992-9.096,20.692-2.389,29.867c10.185,13.978,21.456,27.131,33.707,39.339
			c13.659,13.718,28.508,26.197,44.373,37.291c9.167,6.394,21.595,5.316,29.525-2.56l27.221-27.648
			c4.223-4.242,11.085-4.257,15.326-0.034c0.011,0.011,0.022,0.022,0.034,0.034l48.043,48.128
			C391.911,345.502,391.926,352.363,387.703,356.605z"/>
	</g>
</g>
<g>
</g>
<g>
</g>
<g>
</g>
<g>
</g>
<g>
</g>
<g>
</g>
<g>
</g>
<g>
</g>
<g>
</g>
<g>
</g>
<g>
</g>
<g>
</g>
<g>
</g>
<g>
</g>
<g>
</g>
</symbol><symbol id="vk" viewBox="0 0 97.75 97.75">
<g>
	<path d="M48.875,0C21.883,0,0,21.882,0,48.875S21.883,97.75,48.875,97.75S97.75,75.868,97.75,48.875S75.867,0,48.875,0z
		 M73.667,54.161c2.278,2.225,4.688,4.319,6.733,6.774c0.906,1.086,1.76,2.209,2.41,3.472c0.928,1.801,0.09,3.776-1.522,3.883
		l-10.013-0.002c-2.586,0.214-4.644-0.829-6.379-2.597c-1.385-1.409-2.67-2.914-4.004-4.371c-0.545-0.598-1.119-1.161-1.803-1.604
		c-1.365-0.888-2.551-0.616-3.333,0.81c-0.797,1.451-0.979,3.059-1.055,4.674c-0.109,2.361-0.821,2.978-3.19,3.089
		c-5.062,0.237-9.865-0.531-14.329-3.083c-3.938-2.251-6.986-5.428-9.642-9.025c-5.172-7.012-9.133-14.708-12.692-22.625
		c-0.801-1.783-0.215-2.737,1.752-2.774c3.268-0.063,6.536-0.055,9.804-0.003c1.33,0.021,2.21,0.782,2.721,2.037
		c1.766,4.345,3.931,8.479,6.644,12.313c0.723,1.021,1.461,2.039,2.512,2.76c1.16,0.796,2.044,0.533,2.591-0.762
		c0.35-0.823,0.501-1.703,0.577-2.585c0.26-3.021,0.291-6.041-0.159-9.05c-0.28-1.883-1.339-3.099-3.216-3.455
		c-0.956-0.181-0.816-0.535-0.351-1.081c0.807-0.944,1.563-1.528,3.074-1.528l11.313-0.002c1.783,0.35,2.183,1.15,2.425,2.946
		l0.01,12.572c-0.021,0.695,0.349,2.755,1.597,3.21c1,0.33,1.66-0.472,2.258-1.105c2.713-2.879,4.646-6.277,6.377-9.794
		c0.764-1.551,1.423-3.156,2.063-4.764c0.476-1.189,1.216-1.774,2.558-1.754l10.894,0.013c0.321,0,0.647,0.003,0.965,0.058
		c1.836,0.314,2.339,1.104,1.771,2.895c-0.894,2.814-2.631,5.158-4.329,7.508c-1.82,2.516-3.761,4.944-5.563,7.471
		C71.48,50.992,71.611,52.155,73.667,54.161z"/>
</g>
<g>
</g>
<g>
</g>
<g>
</g>
<g>
</g>
<g>
</g>
<g>
</g>
<g>
</g>
<g>
</g>
<g>
</g>
<g>
</g>
<g>
</g>
<g>
</g>
<g>
</g>
<g>
</g>
<g>
</g>
</symbol><symbol id="waves_1" viewBox="0 0 1440 89.156">
  
  <path id="&#x424;&#x438;&#x433;&#x443;&#x440;&#x430;_5" data-name="&#x424;&#x438;&#x433;&#x443;&#x440;&#x430; 5" class="cls-1" d="M0,45.044c50.377,24.1,183.158,71.33,404.979,39.488,0,0,192.4-27.9,283.356,24.159,0,0,99.57,49.242,209.908-13.078,0,0,92.458-51.585,197.8,9.725,0,0,79.16,49.67,172.59-8.894,0,0,45.06-23.551,90.07,3.134,0,0,41.16,24.984,81.29,8.536C1440,38.053,1440,38,1440,38H0S-0.012,45.055,0,45.044Z" transform="translate(0 -38)"/>
</symbol><symbol id="waves_2" viewBox="0 0 1440 95.75">
  
  <path id="&#x424;&#x438;&#x433;&#x443;&#x440;&#x430;_4" data-name="&#x424;&#x438;&#x433;&#x443;&#x440;&#x430; 4" class="cls-1" d="M0,640.6c-0.489-.3,36.938,21.673,87,28.4,0,0,45.8,7.868,84,0,0,0,62.989-10.3,101-25,0,0,39.777-11.632,49-14s62.59-15.353,72-17c0,0,58.562-10.908,85-11,0,0,41.339-1.224,76,6,0,0,34.235,6.675,61,15,0,0,27.565,9.441,62,3,0,0,40.114-7.431,67-17a472.5,472.5,0,0,1,56-15s39.162-9.99,99,3c0,0,42.97,10.886,81,18,0,0,41.98,9.5,78-2,0,0,62.24-23.731,77-27,0,0,41.97-12.877,79-3a467.767,467.767,0,0,1,67,21s48.18,21.674,70,22c0,0,26.68,2.535,51-7-0.01.006,30.61-10.3,37.97-15.571C1440.03,616.354,1440,675,1440,675H0V640.6Z" transform="translate(0 -579.25)"/>
</symbol></svg>