<svg width="257" height="162" viewBox="0 0 257 162" fill="none" xmlns="http://www.w3.org/2000/svg">
<path fill-rule="evenodd" clip-rule="evenodd" d="M9.27942 1.66764C6.46042 2.57488 3.11042 5.51478 1.65292 8.3602L0.544922 10.5229V81.2538V151.985L1.63391 154.108C2.23241 155.277 3.62541 157.084 4.72891 158.125C8.75291 161.92 -1.0181 161.642 128.295 161.642C257.608 161.642 247.837 161.92 251.861 158.125C252.964 157.084 254.357 155.277 254.956 154.108L256.045 151.985V81.2538V10.5229L254.937 8.3602C253.432 5.42238 250.106 2.56861 247.101 1.63684C243.462 0.508797 12.7879 0.538554 9.27942 1.66764ZM211.543 23.1813C212.226 27.7494 213.503 31.7938 215.215 34.8219C218.95 41.4247 226.112 46.3717 233.556 47.4914L237.295 48.0536V81.2403V114.426L233.42 115.07C222.325 116.913 214.162 125.251 211.944 137.01L211.137 141.284H128.239H45.3404L45.0469 139.326C43.9079 131.718 41.2824 126.111 36.8974 121.922C33.2554 118.444 27.8429 115.74 23.0924 115.025L19.2949 114.454V81.2173V47.9805L22.3629 47.6183C33.6489 46.2851 42.3539 37.6434 44.6459 25.498L45.4524 21.2238H128.351H211.249L211.543 23.1813ZM123.488 34.7619C116.441 35.9322 110.122 39.2918 104.478 44.8694C97.8159 51.4534 93.9044 58.4341 91.4069 68.1981C90.3019 72.5156 90.1379 74.2178 90.1474 81.2538C90.1569 88.2549 90.3314 90.0271 91.4424 94.4114C95.5734 110.712 105.57 122.315 119.295 126.736C124.511 128.417 131.999 128.409 137.282 126.718C151.419 122.195 161.319 110.471 165.4 93.4201C167.036 86.584 166.925 75.149 165.154 68.1417C161.12 52.1753 150.816 40.1098 137.612 35.89C133.721 34.646 127.282 34.1319 123.488 34.7619ZM133.795 55.6758C134.758 56.6817 134.795 57.4157 134.795 75.7728V94.8258H138.766C143.858 94.8258 144.295 95.3416 144.295 101.351C144.295 108.318 145.378 107.876 128.295 107.876C111.211 107.876 112.295 108.318 112.295 101.351C112.295 95.3416 112.732 94.8258 117.823 94.8258H121.795V83.3418V71.8578H120.05C118.544 71.8578 118.066 71.517 116.57 69.3783C111.721 62.4462 111.871 61.9811 120.765 56.3534C123.327 54.7326 123.759 54.6318 128.14 54.6318C132.128 54.6318 132.938 54.7811 133.795 55.6758Z" fill="#69A61B"/>
</svg>
