<svg width="223" height="176" fill="none" xmlns="http://www.w3.org/2000/svg"><path fill-rule="evenodd" clip-rule="evenodd" d="M105.987 1.858c-1.132.537-2.648 1.784-3.368 2.77-.721.987-17.736 34.075-37.81 73.529l-36.5 71.734-9.649.261c-9.112.246-9.786.335-12.127 1.595-4.819 2.592-7.332 7.781-6.306 13.021.759 3.876 2.759 6.707 6.085 8.613l2.733 1.566 100.75.159c71.39.113 101.479-.006 103.25-.41 3.433-.781 6.84-3.499 8.301-6.621 3.194-6.824.034-14.531-7.023-17.13-1.616-.595-4.365-.793-11.007-.793h-8.854l-36.681-72.117c-20.174-39.664-37.246-72.818-37.938-73.676-2.744-3.406-9.41-4.608-13.856-2.5zm25.85 104.843l20.291 43.19-20.416.136c-11.229.075-29.609.075-40.844 0l-20.427-.136 20.294-43.196c11.163-23.757 20.412-43.192 20.553-43.19.142.003 9.388 19.441 20.549 43.196z" fill="#69A61B"/></svg>