<svg width="223" height="176" viewBox="0 0 223 176" fill="none" xmlns="http://www.w3.org/2000/svg">
<path fill-rule="evenodd" clip-rule="evenodd" d="M105.987 1.85849C104.855 2.3951 103.339 3.64164 102.619 4.62822C101.898 5.6148 84.883 38.7028 64.8085 78.1566L28.309 149.891L18.6605 150.152C9.54799 150.398 8.87399 150.487 6.53299 151.747C1.71399 154.339 -0.799007 159.528 0.226993 164.768C0.985993 168.644 2.98599 171.475 6.31199 173.381L9.04499 174.947L109.795 175.106C181.185 175.219 211.274 175.1 213.045 174.696C216.478 173.915 219.885 171.197 221.346 168.075C224.54 161.251 221.38 153.544 214.323 150.945C212.707 150.35 209.958 150.152 203.316 150.152H194.462L157.781 78.035C137.607 38.3708 120.535 5.21651 119.843 4.35887C117.099 0.95334 110.433 -0.249349 105.987 1.85849ZM131.837 106.701L152.128 149.891L131.712 150.027C120.483 150.102 102.103 150.102 90.8675 150.027L70.4405 149.891L90.7355 106.695C101.898 82.9376 111.147 63.5025 111.288 63.5051C111.43 63.5082 120.676 82.946 131.837 106.701Z" fill="#69A61B"/>
</svg>
