<svg width="240" height="292" viewBox="0 0 240 292" fill="none" xmlns="http://www.w3.org/2000/svg">
<path d="M78.2089 249.462L77.5111 250.188V251.195V275.187H26.6704C20.2924 275.187 14.1548 272.552 9.61376 267.829C5.06945 263.102 2.5 256.672 2.5 249.946V28.0214C2.5 13.9124 13.3408 2.78076 26.6704 2.78076H132.287L210.863 84.5094V111.485L186.828 136.484H26.6704H24.1704V138.984V166.724V169.224H26.6704H155.351L133.488 191.965H26.6704H24.1704V194.465V222.206V224.706H26.6704H102.01L78.2089 249.462ZM121.819 19.3536L117.517 14.8787V21.0862V97.3729V99.8729H120.017H193.36H199.232L195.162 95.6402L121.819 19.3536ZM211.831 156.806C212.782 155.817 213.976 155.354 215.363 155.354C216.593 155.354 217.795 155.8 218.762 156.806L236.098 174.837C237.94 176.753 238.001 180.228 236.079 182.348L224.302 194.478L199.899 169.217L211.831 156.806ZM109.181 289.057V263.713L188.565 181.009L212.958 206.259L133.354 289.057H109.181Z" fill="white" stroke="white" stroke-width="5"/>
</svg>
