<svg width="241" height="270" fill="none" xmlns="http://www.w3.org/2000/svg"><path d="M104.581 2.977l-2.569 47.722-.141 2.635h37.796l-.142-2.635-2.568-47.722h52.917c5.267 0 9.872 3.845 11.081 11.321l.001.006 36.579 234.957c.584 4.392-.606 8.807-2.818 12.095-2.235 3.322-5.274 5.19-8.258 5.19h-76.208l-3.95-81.549-.115-2.379H95.352l-.115 2.379-3.95 81.549H13.724c-2.985 0-6.023-1.868-8.258-5.19-2.212-3.288-3.402-7.703-2.818-12.095L39.22 14.347c.596-2.898 2.073-5.806 4.101-7.96 2.037-2.163 4.468-3.41 6.988-3.41h54.272zm-7.99 148.469l-.105 2.601h45.856l-.105-2.601-2.71-67.142-.097-2.4H99.398l-.097 2.4-2.71 67.142z" fill="#fff" stroke="#fff" stroke-width="5"/></svg>