<svg width="262" height="270" fill="none" xmlns="http://www.w3.org/2000/svg"><path d="M143.262.186v27.211c57.436 7.274 98.125 61.023 91.06 120.16-6.018 49.034-43.436 87.965-91.06 93.757v26.942c71.959-7.409 124.292-73.147 117.096-147.237C254.471 57.033 205.147 6.517 143.262.186zM117.096.59C91.583 3.15 67.248 13.252 47.362 30.226L66.07 50.163a103.107 103.107 0 0151.025-22.631V.59zM28.914 49.22C12.43 69.695 2.617 94.617 0 121.019h26.167c2.485-19.128 9.812-37.314 21.456-52.536L28.914 49.22zM.131 147.96c2.617 26.403 12.69 51.324 28.914 71.8l18.578-19.263c-11.513-15.222-18.97-33.408-21.325-52.537H.13zM66.07 220.3l-18.71 18.455c19.757 16.973 44.092 27.615 69.735 30.444v-26.942c-18.579-2.424-36.241-10.103-51.025-21.957zm127.17-42.838l-53.773-55.365c5.364-14.01 2.355-30.444-8.896-41.894-11.775-12.259-29.438-14.684-43.699-7.948l25.382 26.133-17.662 18.321L68.556 90.44c-7.065 14.684-3.794 32.869 7.719 45.128 11.252 11.585 27.213 14.549 40.82 9.16l53.772 55.231c2.355 2.559 5.888 2.559 8.243 0l13.606-13.875c2.879-2.425 2.879-6.736.524-8.622z" fill="#fff"/></svg>