<svg xmlns="http://www.w3.org/2000/svg" xmlns:xlink="http://www.w3.org/1999/xlink"><symbol id="banknote" viewBox="0 0 47 47">
<path d="M44.2783 47H1.73445C1.52795 46.9966 1.33086 46.9131 1.18483 46.7671C1.03879 46.6211 0.955271 46.4241 0.951913 46.2177V26.2052C0.944825 26.0976 0.959721 25.9896 0.995697 25.8879C1.03167 25.7862 1.08798 25.6928 1.16118 25.6136C1.23438 25.5343 1.32295 25.4707 1.42151 25.4268C1.52006 25.3828 1.62653 25.3593 1.73445 25.3578H44.2783C44.4893 25.3578 44.6916 25.4416 44.8408 25.5907C44.99 25.7399 45.0738 25.9422 45.0738 26.1531V30.6249C45.0883 30.737 45.0787 30.8509 45.0456 30.959C45.0126 31.0671 44.9569 31.1669 44.8822 31.2517C44.8075 31.3366 44.7156 31.4046 44.6126 31.4512C44.5096 31.4977 44.3978 31.5218 44.2848 31.5218C44.1717 31.5218 44.06 31.4977 43.9569 31.4512C43.8539 31.4046 43.762 31.3366 43.6874 31.2517C43.6127 31.1669 43.557 31.0671 43.5239 30.959C43.4909 30.8509 43.4813 30.737 43.4957 30.6249V27.0005H2.53002V45.4224H43.4827V43.6102C43.4682 43.4981 43.4778 43.3842 43.5109 43.2762C43.5439 43.1681 43.5996 43.0683 43.6743 42.9834C43.749 42.8985 43.8409 42.8305 43.9439 42.784C44.0469 42.7374 44.1587 42.7133 44.2717 42.7133C44.3848 42.7133 44.4966 42.7374 44.5996 42.784C44.7026 42.8305 44.7945 42.8985 44.8691 42.9834C44.9438 43.0683 44.9995 43.1681 45.0326 43.2762C45.0656 43.3842 45.0752 43.4981 45.0608 43.6102V46.2177C45.0574 46.4241 44.9739 46.6211 44.8279 46.7671C44.6818 46.9131 44.4847 46.9966 44.2783 47Z" fill="#CEE0EA"/>
<path d="M44.2785 33.441C44.0675 33.441 43.8651 33.3572 43.7159 33.2081C43.5667 33.0589 43.4829 32.8566 43.4829 32.6457V30.6771C43.5076 30.4853 43.6013 30.3092 43.7466 30.1815C43.8918 30.0538 44.0786 29.9834 44.272 29.9834C44.4654 29.9834 44.6521 30.0538 44.7974 30.1815C44.9426 30.3092 45.0363 30.4853 45.061 30.6771V32.6457C45.061 32.8544 44.979 33.0547 44.8326 33.2035C44.6862 33.3523 44.4872 33.4376 44.2785 33.441Z" fill="#CEE0EA"/>
<path d="M44.2785 39.4122C44.0675 39.4122 43.8651 39.3284 43.7159 39.1792C43.5667 39.0301 43.4829 38.8278 43.4829 38.6169V35.6313C43.5076 35.4396 43.6013 35.2634 43.7466 35.1357C43.8918 35.008 44.0786 34.9376 44.272 34.9376C44.4654 34.9376 44.6521 35.008 44.7974 35.1357C44.9426 35.2634 45.0363 35.4396 45.061 35.6313V38.6169C45.061 38.8255 44.979 39.0259 44.8326 39.1747C44.6862 39.3234 44.4872 39.4087 44.2785 39.4122Z" fill="#CEE0EA"/>
<path d="M44.2785 44.3664C44.0741 44.3667 43.8774 44.2883 43.7293 44.1475C43.5812 44.0067 43.493 43.8143 43.4829 43.6102V41.6025C43.5076 41.4107 43.6013 41.2346 43.7466 41.1069C43.8918 40.9792 44.0786 40.9088 44.272 40.9088C44.4654 40.9088 44.6521 40.9792 44.7974 41.1069C44.9426 41.2346 45.0363 41.4107 45.061 41.6025V43.6102C45.0511 43.8121 44.9647 44.0026 44.8193 44.143C44.674 44.2835 44.4806 44.3634 44.2785 44.3664Z" fill="#CEE0EA"/>
<path d="M17.7896 43.7146H8.65999C8.44899 43.7146 8.24663 43.6308 8.09743 43.4816C7.94823 43.3325 7.86441 43.1302 7.86441 42.9193C7.86171 42.3617 7.64513 41.8264 7.25931 41.4238C6.87348 41.0211 6.34783 40.7818 5.7907 40.7551C5.57969 40.7551 5.37734 40.6713 5.22814 40.5221C5.07894 40.373 4.99512 40.1707 4.99512 39.9598V32.4633C4.99512 32.2523 5.07894 32.05 5.22814 31.9009C5.37734 31.7518 5.57969 31.668 5.7907 31.668C6.36835 31.668 6.92235 31.4386 7.33081 31.0303C7.73928 30.622 7.96875 30.0682 7.96875 29.4907C7.96875 29.2798 8.05257 29.0775 8.20177 28.9284C8.35097 28.7792 8.55333 28.6954 8.76433 28.6954H18.0243C18.1629 28.6989 18.2982 28.7385 18.4167 28.8103C18.5353 28.8821 18.633 28.9837 18.7003 29.1049C18.7675 29.2261 18.8018 29.3627 18.7999 29.5013C18.798 29.6399 18.76 29.7756 18.6895 29.8949C17.5467 31.8467 16.9603 34.0741 16.994 36.3354C16.9661 38.4918 17.4914 40.6194 18.5199 42.5151C18.5935 42.6392 18.6319 42.781 18.6311 42.9253C18.6302 43.0696 18.5902 43.2109 18.5151 43.3341C18.4401 43.4574 18.3329 43.5579 18.2051 43.6249C18.0773 43.6919 17.9336 43.7229 17.7896 43.7146ZM9.41644 42.137H16.5114C15.7443 40.3086 15.3539 38.3442 15.3637 36.3614C15.3557 34.266 15.8006 32.1936 16.6679 30.286H9.42948C9.27817 30.9943 8.92582 31.6441 8.41462 32.1574C7.90343 32.6707 7.25505 33.0259 6.54715 33.1803V39.2688C7.25166 39.4213 7.89764 39.7726 8.40851 40.281C8.91938 40.7893 9.27371 41.4335 9.42948 42.137H9.41644Z" fill="#CEE0EA"/>
<path d="M37.3005 43.7146H28.1709C28.0321 43.7143 27.8956 43.6777 27.7753 43.6084C27.6549 43.5391 27.5548 43.4395 27.4849 43.3195C27.415 43.1996 27.3778 43.0634 27.3769 42.9245C27.3759 42.7857 27.4114 42.649 27.4797 42.5282C28.5087 40.6326 29.0341 38.5049 29.0056 36.3484C29.0393 34.0871 28.4529 31.8597 27.3102 29.9079C27.2358 29.7874 27.1951 29.6492 27.1921 29.5076C27.1891 29.366 27.2239 29.2262 27.2931 29.1026C27.3622 28.979 27.4631 28.8761 27.5853 28.8045C27.7076 28.7329 27.8467 28.6953 27.9884 28.6954H37.2483C37.4593 28.6954 37.6617 28.7792 37.8109 28.9284C37.9601 29.0775 38.0439 29.2798 38.0439 29.4907C38.0439 30.0682 38.2734 30.622 38.6819 31.0303C39.0903 31.4386 39.6443 31.668 40.222 31.668C40.433 31.668 40.6353 31.7518 40.7845 31.9009C40.9337 32.05 41.0176 32.2523 41.0176 32.4633V39.9598C41.0176 40.1707 40.9337 40.373 40.7845 40.5221C40.6353 40.6713 40.433 40.7551 40.222 40.7551C39.6443 40.7551 39.0903 40.9845 38.6819 41.3928C38.2734 41.8011 38.0439 42.3549 38.0439 42.9323C38.0411 43.1323 37.963 43.3238 37.8252 43.4687C37.6875 43.6137 37.5001 43.7015 37.3005 43.7146ZM29.4752 42.137H36.5701C36.7237 41.4311 37.077 40.7842 37.5881 40.2733C38.0991 39.7625 38.7463 39.4093 39.4525 39.2558V33.1803C38.7463 33.0268 38.0991 32.6736 37.5881 32.1628C37.077 31.6519 36.7237 31.005 36.5701 30.299H29.3578C30.2251 32.2067 30.67 34.2791 30.662 36.3745C30.6659 38.3537 30.2711 40.3135 29.5013 42.137H29.4752Z" fill="#CEE0EA"/>
<path d="M23.0063 42.5281C22.0365 42.5527 21.0964 42.1918 20.3923 41.5246C19.6882 40.8574 19.2775 39.9383 19.2502 38.9689C19.2357 38.8568 19.2453 38.7429 19.2784 38.6348C19.3114 38.5268 19.3672 38.427 19.4418 38.3421C19.5165 38.2572 19.6084 38.1892 19.7114 38.1427C19.8144 38.0961 19.9262 38.072 20.0392 38.072C20.1523 38.072 20.2641 38.0961 20.3671 38.1427C20.4701 38.1892 20.562 38.2572 20.6366 38.3421C20.7113 38.427 20.767 38.5268 20.8001 38.6348C20.8331 38.7429 20.8427 38.8568 20.8283 38.9689C20.7862 39.4091 20.8783 39.8518 21.0926 40.2387C21.307 40.6255 21.6334 40.9385 22.0291 41.1363C22.4247 41.3342 22.871 41.4077 23.3092 41.3472C23.7475 41.2867 24.1571 41.095 24.4843 40.7973C24.8114 40.4996 25.0408 40.1099 25.1422 39.6795C25.2436 39.249 25.2123 38.798 25.0523 38.3856C24.8924 37.9733 24.6113 37.6191 24.2461 37.3695C23.881 37.1199 23.4487 36.9866 23.0063 36.9872C22.3117 36.949 21.6436 36.7082 21.0843 36.2947C20.5251 35.8811 20.0993 35.3128 19.8596 34.66C19.6198 34.0072 19.5766 33.2985 19.7353 32.6215C19.894 31.9444 20.2476 31.3286 20.7525 30.8502C21.2574 30.3719 21.8914 30.0518 22.5762 29.9296C23.261 29.8073 23.9666 29.8883 24.6059 30.1625C25.2452 30.4367 25.7901 30.8921 26.1734 31.4724C26.5566 32.0528 26.7615 32.7326 26.7625 33.428C26.7378 33.6197 26.6441 33.7959 26.4988 33.9236C26.3536 34.0512 26.1668 34.1217 25.9734 34.1217C25.7801 34.1217 25.5933 34.0512 25.4481 33.9236C25.3028 33.7959 25.2091 33.6197 25.1844 33.428C25.2265 32.9878 25.1344 32.5451 24.92 32.1583C24.7057 31.7714 24.3793 31.4584 23.9836 31.2606C23.588 31.0627 23.1417 30.9892 22.7034 31.0497C22.2652 31.1102 21.8556 31.3019 21.5284 31.5996C21.2012 31.8973 20.9719 32.287 20.8705 32.7174C20.7691 33.1479 20.8004 33.5989 20.9604 34.0113C21.1203 34.4236 21.4014 34.7778 21.7665 35.0274C22.1317 35.2771 22.5639 35.4103 23.0063 35.4097C23.4739 35.4097 23.9369 35.5017 24.3689 35.6806C24.8009 35.8595 25.1934 36.1217 25.524 36.4522C25.8546 36.7827 26.1169 37.175 26.2958 37.6069C26.4748 38.0387 26.5669 38.5015 26.5669 38.9689C26.5669 39.4363 26.4748 39.8991 26.2958 40.331C26.1169 40.7628 25.8546 41.1552 25.524 41.4857C25.1934 41.8162 24.8009 42.0783 24.3689 42.2572C23.9369 42.4361 23.4739 42.5281 23.0063 42.5281Z" fill="#CEE0EA"/>
<path d="M23.0065 43.6102C22.7955 43.6102 22.5932 43.5264 22.444 43.3773C22.2948 43.2281 22.2109 43.0259 22.2109 42.8149V29.5559C22.2356 29.3641 22.3294 29.1879 22.4746 29.0603C22.6198 28.9326 22.8066 28.8622 23 28.8622C23.1934 28.8622 23.3802 28.9326 23.5254 29.0603C23.6706 29.1879 23.7643 29.3641 23.789 29.5559V42.854C23.7791 43.0559 23.6927 43.2464 23.5474 43.3868C23.402 43.5273 23.2086 43.6072 23.0065 43.6102Z" fill="#CEE0EA"/>
<path d="M3.75603 18.5653C3.54503 18.5653 3.34267 18.4815 3.19347 18.3323C3.04427 18.1832 2.96045 17.9809 2.96045 17.77V15.8013C2.98516 15.6096 3.07889 15.4334 3.22412 15.3058C3.36934 15.1781 3.55611 15.1077 3.7495 15.1077C3.9429 15.1077 4.12967 15.1781 4.2749 15.3058C4.42012 15.4334 4.51385 15.6096 4.53856 15.8013V17.77C4.53859 17.9787 4.45656 18.179 4.31017 18.3278C4.16378 18.4766 3.96476 18.5619 3.75603 18.5653Z" fill="#CEE0EA"/>
<path d="M3.75603 23.702C3.54503 23.702 3.34267 23.6182 3.19347 23.4691C3.04427 23.3199 2.96045 23.1176 2.96045 22.9067V20.9381C2.98516 20.7463 3.07889 20.5701 3.22412 20.4425C3.36934 20.3148 3.55611 20.2444 3.7495 20.2444C3.9429 20.2444 4.12967 20.3148 4.2749 20.4425C4.42012 20.5701 4.51385 20.7463 4.53856 20.9381V22.9067C4.53859 23.1154 4.45656 23.3157 4.31017 23.4645C4.16378 23.6133 3.96476 23.6986 3.75603 23.702Z" fill="#CEE0EA"/>
<path d="M7.74699 16.5966C7.53599 16.5966 7.33363 16.5128 7.18443 16.3637C7.03523 16.2145 6.95141 16.0123 6.95141 15.8013V12.1117C6.95141 11.9008 7.03523 11.6985 7.18443 11.5494C7.33363 11.4002 7.53599 11.3164 7.74699 11.3164H8.92079L5.79065 7.82241L2.60834 11.3164H3.78215C3.99315 11.3164 4.1955 11.4002 4.3447 11.5494C4.4939 11.6985 4.57772 11.9008 4.57772 12.1117V15.8013C4.55301 15.9931 4.45928 16.1692 4.31406 16.2969C4.16883 16.4246 3.98206 16.495 3.78867 16.495C3.59527 16.495 3.4085 16.4246 3.26328 16.2969C3.11805 16.1692 3.02432 15.9931 2.99961 15.8013V12.907H0.795472C0.646447 12.9024 0.501714 12.8561 0.377773 12.7732C0.253832 12.6904 0.155672 12.5744 0.0944886 12.4385C0.033305 12.3026 0.0115577 12.1522 0.0317287 12.0045C0.0518996 11.8568 0.113176 11.7178 0.20857 11.6033L5.16462 6.14058C5.24018 6.06089 5.33119 5.99742 5.4321 5.95405C5.533 5.91068 5.64169 5.88831 5.75152 5.88831C5.86136 5.88831 5.97005 5.91068 6.07096 5.95405C6.17186 5.99742 6.26287 6.06089 6.33843 6.14058L11.2945 11.6033C11.3899 11.7178 11.4511 11.8568 11.4713 12.0045C11.4915 12.1522 11.4697 12.3026 11.4086 12.4385C11.3474 12.5744 11.2492 12.6904 11.1253 12.7732C11.0013 12.8561 10.8566 12.9024 10.7076 12.907H8.54257V15.8013C8.54257 16.0123 8.45875 16.2145 8.30955 16.3637C8.16035 16.5128 7.95799 16.5966 7.74699 16.5966Z" fill="#CEE0EA"/>
<path d="M7.74692 23.7021C7.53592 23.7021 7.33356 23.6183 7.18436 23.4692C7.03517 23.32 6.95135 23.1177 6.95135 22.9068V20.9382C6.9369 20.8261 6.94652 20.7122 6.97956 20.6041C7.01261 20.496 7.06832 20.3962 7.14299 20.3113C7.21765 20.2265 7.30955 20.1585 7.41256 20.1119C7.51558 20.0653 7.62734 20.0413 7.7404 20.0413C7.85346 20.0413 7.96522 20.0653 8.06824 20.1119C8.17125 20.1585 8.26316 20.2265 8.33782 20.3113C8.41248 20.3962 8.4682 20.496 8.50124 20.6041C8.53429 20.7122 8.5439 20.8261 8.52946 20.9382V22.9068C8.52948 23.1155 8.44746 23.3158 8.30107 23.4646C8.15468 23.6134 7.95565 23.6987 7.74692 23.7021Z" fill="#CEE0EA"/>
<path d="M7.74692 18.5653C7.53592 18.5653 7.33356 18.4815 7.18436 18.3323C7.03517 18.1832 6.95135 17.9809 6.95135 17.77V15.8013C6.9369 15.6892 6.94652 15.5753 6.97956 15.4673C7.01261 15.3592 7.06832 15.2594 7.14299 15.1745C7.21765 15.0896 7.30955 15.0216 7.41256 14.9751C7.51558 14.9285 7.62734 14.9044 7.7404 14.9044C7.85346 14.9044 7.96522 14.9285 8.06824 14.9751C8.17125 15.0216 8.26316 15.0896 8.33782 15.1745C8.41248 15.2594 8.4682 15.3592 8.50124 15.4673C8.53429 15.5753 8.5439 15.6892 8.52946 15.8013V17.77C8.52948 17.9787 8.44746 18.179 8.30107 18.3278C8.15468 18.4765 7.95565 18.5618 7.74692 18.5653Z" fill="#CEE0EA"/>
<path d="M42.3089 18.5653C42.0979 18.5653 41.8956 18.4815 41.7464 18.3323C41.5972 18.1832 41.5134 17.9809 41.5134 17.77V15.8013C41.4989 15.6892 41.5085 15.5753 41.5416 15.4673C41.5746 15.3592 41.6303 15.2594 41.705 15.1745C41.7797 15.0896 41.8716 15.0216 41.9746 14.9751C42.0776 14.9285 42.1894 14.9044 42.3024 14.9044C42.4155 14.9044 42.5272 14.9285 42.6302 14.9751C42.7333 15.0216 42.8252 15.0896 42.8998 15.1745C42.9745 15.2594 43.0302 15.3592 43.0633 15.4673C43.0963 15.5753 43.1059 15.6892 43.0915 15.8013V17.77C43.0915 17.9787 43.0095 18.179 42.8631 18.3278C42.7167 18.4765 42.5177 18.5618 42.3089 18.5653Z" fill="#CEE0EA"/>
<path d="M42.3089 23.8846C42.0979 23.8846 41.8956 23.8008 41.7464 23.6517C41.5972 23.5025 41.5134 23.3002 41.5134 23.0893V21.1207C41.4989 21.0086 41.5085 20.8947 41.5416 20.7866C41.5746 20.6785 41.6303 20.5787 41.705 20.4938C41.7797 20.409 41.8716 20.341 41.9746 20.2944C42.0776 20.2478 42.1894 20.2238 42.3024 20.2238C42.4155 20.2238 42.5272 20.2478 42.6302 20.2944C42.7333 20.341 42.8252 20.409 42.8998 20.4938C42.9745 20.5787 43.0302 20.6785 43.0633 20.7866C43.0963 20.8947 43.1059 21.0086 43.0915 21.1207V23.0893C43.0915 23.298 43.0095 23.4983 42.8631 23.6471C42.7167 23.7959 42.5177 23.8812 42.3089 23.8846Z" fill="#CEE0EA"/>
<path d="M42.3088 16.5967C42.0978 16.5967 41.8954 16.5129 41.7462 16.3637C41.597 16.2146 41.5132 16.0123 41.5132 15.8014V12.3204C41.5115 12.2149 41.5308 12.11 41.57 12.012C41.6092 11.914 41.6675 11.8248 41.7416 11.7496C41.8156 11.6744 41.9039 11.6146 42.0013 11.5738C42.0987 11.533 42.2032 11.5121 42.3088 11.5121H43.4826L40.3003 8.01803L37.0919 11.5121H38.2657C38.4767 11.5121 38.679 11.5959 38.8282 11.745C38.9774 11.8941 39.0613 12.0964 39.0613 12.3074V15.8144C39.0366 16.0062 38.9428 16.1823 38.7976 16.31C38.6524 16.4377 38.4656 16.5081 38.2722 16.5081C38.0788 16.5081 37.892 16.4377 37.7468 16.31C37.6016 16.1823 37.5079 16.0062 37.4832 15.8144V13.0896H35.2921C35.143 13.085 34.9983 13.0386 34.8744 12.9558C34.7504 12.873 34.6523 12.757 34.5911 12.621C34.5299 12.4851 34.5081 12.3348 34.5283 12.1871C34.5485 12.0394 34.6098 11.9004 34.7052 11.7859L39.7003 6.31012C39.7768 6.23207 39.8682 6.17006 39.9689 6.12773C40.0697 6.0854 40.1779 6.0636 40.2872 6.0636C40.3965 6.0636 40.5048 6.0854 40.6055 6.12773C40.7063 6.17006 40.7976 6.23207 40.8741 6.31012L45.8302 11.7728C45.9256 11.8874 45.9869 12.0264 46.007 12.1741C46.0272 12.3217 46.0055 12.4721 45.9443 12.608C45.8831 12.7439 45.7849 12.8599 45.661 12.9428C45.537 13.0256 45.3923 13.072 45.2433 13.0766H43.0391V15.8014C43.0398 16.0015 42.965 16.1945 42.8296 16.3419C42.6943 16.4893 42.5083 16.5803 42.3088 16.5967Z" fill="#CEE0EA"/>
<path d="M38.2658 23.8846C38.0548 23.8846 37.8524 23.8008 37.7032 23.6517C37.554 23.5025 37.4702 23.3002 37.4702 23.0893V21.1207C37.4949 20.9289 37.5887 20.7528 37.7339 20.6251C37.8791 20.4974 38.0659 20.427 38.2593 20.427C38.4527 20.427 38.6394 20.4974 38.7847 20.6251C38.9299 20.7528 39.0236 20.9289 39.0483 21.1207V23.0893C39.0484 23.298 38.9663 23.4983 38.8199 23.6471C38.6735 23.7959 38.4745 23.8812 38.2658 23.8846Z" fill="#CEE0EA"/>
<path d="M38.2658 18.5653C38.0548 18.5653 37.8524 18.4815 37.7032 18.3323C37.554 18.1832 37.4702 17.9809 37.4702 17.77V15.8013C37.4949 15.6096 37.5887 15.4334 37.7339 15.3058C37.8791 15.1781 38.0659 15.1077 38.2593 15.1077C38.4527 15.1077 38.6394 15.1781 38.7847 15.3058C38.9299 15.4334 39.0236 15.6096 39.0483 15.8013V17.77C39.0484 17.9787 38.9663 18.179 38.8199 18.3278C38.6735 18.4766 38.4745 18.5619 38.2658 18.5653Z" fill="#CEE0EA"/>
<path d="M21.0109 12.4637C20.7999 12.4637 20.5976 12.3799 20.4484 12.2308C20.2992 12.0817 20.2153 11.8794 20.2153 11.6685V9.71283C20.24 9.5211 20.3338 9.34492 20.479 9.21725C20.6242 9.08958 20.811 9.01917 21.0044 9.01917C21.1978 9.01917 21.3846 9.08958 21.5298 9.21725C21.675 9.34492 21.7687 9.5211 21.7934 9.71283V11.6685C21.7935 11.8771 21.7114 12.0775 21.5651 12.2262C21.4187 12.375 21.2196 12.4603 21.0109 12.4637Z" fill="#CEE0EA"/>
<path d="M21.0109 19.4128C20.7999 19.4128 20.5976 19.329 20.4484 19.1798C20.2992 19.0307 20.2153 18.8284 20.2153 18.6175V16.6358C20.24 16.4441 20.3338 16.2679 20.479 16.1402C20.6242 16.0126 20.811 15.9421 21.0044 15.9421C21.1978 15.9421 21.3846 16.0126 21.5298 16.1402C21.675 16.2679 21.7687 16.4441 21.7934 16.6358V18.6045C21.7952 18.7089 21.7763 18.8127 21.7379 18.9098C21.6995 19.007 21.6423 19.0956 21.5697 19.1707C21.497 19.2457 21.4103 19.3057 21.3144 19.3473C21.2185 19.3888 21.1154 19.4111 21.0109 19.4128Z" fill="#CEE0EA"/>
<path d="M25.0019 10.4821C24.7976 10.4788 24.6024 10.3972 24.4567 10.254C24.311 10.1108 24.226 9.91701 24.2193 9.71287V6.24491C24.2193 6.03399 24.3032 5.83171 24.4524 5.68256C24.6016 5.53342 24.8039 5.44963 25.0149 5.44963H26.1887L23.0064 1.8904L19.8241 5.38444H20.9979C21.2089 5.38444 21.4113 5.46823 21.5605 5.61737C21.7097 5.76652 21.7935 5.9688 21.7935 6.17973V9.71287C21.7688 9.90461 21.675 10.0808 21.5298 10.2085C21.3846 10.3361 21.1978 10.4065 21.0044 10.4065C20.811 10.4065 20.6243 10.3361 20.479 10.2085C20.3338 10.0808 20.2401 9.90461 20.2154 9.71287V7.10538H18.0504C17.9013 7.10079 17.7566 7.05443 17.6327 6.97158C17.5087 6.88874 17.4106 6.77275 17.3494 6.63683C17.2882 6.50092 17.2664 6.35056 17.2866 6.20288C17.3068 6.05521 17.3681 5.91618 17.4635 5.80164L22.4195 0.338948C22.4951 0.259255 22.5861 0.195787 22.687 0.152413C22.7879 0.109039 22.8966 0.0866699 23.0064 0.0866699C23.1162 0.0866699 23.2249 0.109039 23.3258 0.152413C23.4267 0.195787 23.5178 0.259255 23.5933 0.338948L28.5494 5.80164C28.6448 5.91618 28.706 6.05521 28.7262 6.20288C28.7464 6.35056 28.7246 6.50092 28.6634 6.63683C28.6023 6.77275 28.5041 6.88874 28.3802 6.97158C28.2562 7.05443 28.1115 7.10079 27.9625 7.10538H25.7975V9.71287C25.7907 9.91924 25.7039 10.1149 25.5554 10.2584C25.4069 10.402 25.2084 10.4822 25.0019 10.4821Z" fill="#CEE0EA"/>
<path d="M25.0018 19.4128C24.7908 19.4128 24.5884 19.329 24.4392 19.1798C24.29 19.0307 24.2062 18.8284 24.2062 18.6175V16.6358C24.1918 16.5237 24.2014 16.4098 24.2344 16.3017C24.2675 16.1936 24.3232 16.0938 24.3979 16.009C24.4725 15.9241 24.5644 15.8561 24.6674 15.8096C24.7705 15.763 24.8822 15.7389 24.9953 15.7389C25.1083 15.7389 25.2201 15.763 25.3231 15.8096C25.4261 15.8561 25.518 15.9241 25.5927 16.009C25.6674 16.0938 25.7231 16.1936 25.7561 16.3017C25.7892 16.4098 25.7988 16.5237 25.7843 16.6358V18.6044C25.7861 18.7089 25.7672 18.8126 25.7288 18.9098C25.6904 19.0069 25.6332 19.0956 25.5606 19.1706C25.4879 19.2457 25.4012 19.3057 25.3053 19.3473C25.2094 19.3888 25.1063 19.4111 25.0018 19.4128Z" fill="#CEE0EA"/>
<path d="M25.0018 12.4637C24.7908 12.4637 24.5884 12.3799 24.4392 12.2308C24.29 12.0816 24.2062 11.8794 24.2062 11.6684V9.71282C24.1918 9.60073 24.2014 9.48685 24.2344 9.37876C24.2675 9.27068 24.3232 9.17088 24.3979 9.08601C24.4725 9.00114 24.5644 8.93315 24.6674 8.88658C24.7705 8.84001 24.8822 8.81592 24.9953 8.81592C25.1083 8.81592 25.2201 8.84001 25.3231 8.88658C25.4261 8.93315 25.518 9.00114 25.5927 9.08601C25.6674 9.17088 25.7231 9.27068 25.7561 9.37876C25.7892 9.48685 25.7988 9.60073 25.7843 9.71282V11.6684C25.7844 11.8771 25.7023 12.0775 25.556 12.2262C25.4096 12.375 25.2105 12.4603 25.0018 12.4637Z" fill="#CEE0EA"/>
</symbol><symbol id="border" viewBox="0 0 193 279" preserveAspectRatio="none">
<path d="M170.22 271.349H21.6948C15.9443 271.346 10.43 269.061 6.36251 264.995C2.29499 260.929 0.00668474 255.415 0 249.663V21.6851C0.00667867 15.9359 2.293 10.4241 6.35741 6.3588C10.4218 2.2935 15.9324 0.00668012 21.6804 0H164.957C170.705 0.00668012 176.215 2.2935 180.28 6.3588C184.344 10.4241 186.631 15.9359 186.637 21.6851V241.114H185.026V21.6851C185.02 16.3631 182.904 11.2607 179.141 7.49744C175.379 3.73421 170.278 1.61751 164.957 1.61178H21.6804C16.3595 1.61751 11.2582 3.73421 7.49581 7.49744C3.73339 11.2607 1.61715 16.3631 1.61143 21.6851V249.663C1.61906 254.984 3.73614 260.085 7.49835 263.846C11.2606 267.608 16.3608 269.724 21.6804 269.73H170.206V271.341L170.22 271.349Z"/>
<path d="M183.382 269.888L167.606 260.78V279L183.382 269.888Z"/>
<path d="M185.736 255.234C184.299 255.234 182.895 254.808 181.7 254.01C180.506 253.212 179.575 252.077 179.025 250.749C178.475 249.422 178.331 247.961 178.612 246.551C178.892 245.142 179.584 243.847 180.6 242.831C181.615 241.815 182.91 241.123 184.319 240.843C185.728 240.562 187.188 240.706 188.516 241.256C189.843 241.806 190.978 242.737 191.776 243.932C192.574 245.127 193 246.532 193 247.969C192.998 249.895 192.232 251.742 190.87 253.104C189.508 254.466 187.662 255.232 185.736 255.234ZM185.736 242.315C184.618 242.315 183.525 242.646 182.596 243.268C181.666 243.889 180.941 244.772 180.514 245.805C180.086 246.838 179.974 247.975 180.192 249.072C180.41 250.169 180.948 251.176 181.739 251.967C182.53 252.757 183.537 253.296 184.633 253.514C185.73 253.732 186.866 253.62 187.899 253.192C188.932 252.764 189.815 252.04 190.436 251.11C191.057 250.18 191.389 249.087 191.389 247.969C191.384 246.472 190.786 245.038 189.727 243.98C188.668 242.922 187.233 242.328 185.736 242.326V242.315Z"/>
<path d="M170.22 271.349H21.6948C15.9443 271.346 10.43 269.061 6.36251 264.995C2.29499 260.929 0.00668474 255.415 0 249.663V21.6851C0.00667867 15.9359 2.293 10.4241 6.35741 6.3588C10.4218 2.2935 15.9324 0.00668012 21.6804 0H164.957C170.705 0.00668012 176.215 2.2935 180.28 6.3588C184.344 10.4241 186.631 15.9359 186.637 21.6851V241.114H185.026V21.6851C185.02 16.3631 182.904 11.2607 179.141 7.49744C175.379 3.73421 170.278 1.61751 164.957 1.61178H21.6804C16.3595 1.61751 11.2582 3.73421 7.49581 7.49744C3.73339 11.2607 1.61715 16.3631 1.61143 21.6851V249.663C1.61906 254.984 3.73614 260.085 7.49835 263.846C11.2606 267.608 16.3608 269.724 21.6804 269.73H170.206V271.341L170.22 271.349Z"/>
<path d="M183.382 269.888L167.606 260.78V279L183.382 269.888Z"/>
<path d="M185.736 255.234C184.299 255.234 182.895 254.808 181.7 254.01C180.506 253.212 179.575 252.077 179.025 250.749C178.475 249.422 178.331 247.961 178.612 246.551C178.892 245.142 179.584 243.847 180.6 242.831C181.615 241.815 182.91 241.123 184.319 240.843C185.728 240.562 187.188 240.706 188.516 241.256C189.843 241.806 190.978 242.737 191.776 243.932C192.574 245.127 193 246.532 193 247.969C192.998 249.895 192.232 251.742 190.87 253.104C189.508 254.466 187.662 255.232 185.736 255.234ZM185.736 242.315C184.618 242.315 183.525 242.646 182.596 243.268C181.666 243.889 180.941 244.772 180.514 245.805C180.086 246.838 179.974 247.975 180.192 249.072C180.41 250.169 180.948 251.176 181.739 251.967C182.53 252.757 183.537 253.296 184.633 253.514C185.73 253.732 186.866 253.62 187.899 253.192C188.932 252.764 189.815 252.04 190.436 251.11C191.057 250.18 191.389 249.087 191.389 247.969C191.384 246.472 190.786 245.038 189.727 243.98C188.668 242.922 187.233 242.328 185.736 242.326V242.315Z"/>
</symbol><symbol id="cars" viewBox="0 0 72 36">
<path d="M52.2287 9.56347C52.242 9.59613 52.2621 9.62561 52.2878 9.64997C52.3134 9.67434 52.344 9.69303 52.3774 9.70481C52.4109 9.7166 52.4464 9.72122 52.4818 9.71836C52.5171 9.7155 52.5515 9.70523 52.5826 9.68822C53.5518 9.17334 54.536 9.28901 55.5064 9.43531C56.2439 9.54873 56.8033 10.0182 57.1298 10.6636C57.3748 11.1643 57.572 11.6868 57.7189 12.2241C57.8097 12.5331 57.7855 12.8643 57.6507 13.1571C57.5159 13.4499 57.2795 13.6847 56.9848 13.8186C56.5065 14.033 56.019 14.236 55.5007 14.4549C55.4659 14.4697 55.435 14.4921 55.4103 14.5205C55.3856 14.5489 55.3677 14.5825 55.358 14.6188C55.3484 14.6551 55.3471 14.6931 55.3544 14.7299C55.3617 14.7668 55.3774 14.8015 55.4002 14.8314C56.6891 16.545 56.8421 18.5059 56.8227 20.5439C56.7793 24.8909 56.8102 29.238 56.809 33.5861C56.809 35.183 55.9939 35.9927 54.3898 35.995C52.8486 35.995 51.3073 35.995 49.7661 35.995C48.3756 35.9893 47.5364 35.158 47.5102 33.7699C47.5033 33.4024 47.5102 33.0338 47.5102 32.6267C47.5102 32.5921 47.5029 32.5578 47.4888 32.5262C47.4747 32.4945 47.4541 32.4661 47.4283 32.4428C47.4025 32.4196 47.372 32.4019 47.339 32.391C47.3059 32.3801 47.2709 32.3761 47.2362 32.3795C39.8702 33.1051 32.4499 33.102 25.0845 32.3704C25.0498 32.3669 25.0147 32.3707 24.9816 32.3815C24.9484 32.3924 24.9179 32.41 24.8921 32.4333C24.8662 32.4567 24.8456 32.4851 24.8316 32.5169C24.8175 32.5486 24.8103 32.5829 24.8105 32.6176C24.8105 33.0044 24.8105 33.3639 24.8105 33.7245C24.7888 35.1739 23.952 35.9927 22.485 35.9927C20.9437 35.9927 19.4025 35.9927 17.8612 35.9927C16.3405 35.9927 15.5117 35.158 15.5106 33.6304C15.5106 29.0939 15.5368 24.5575 15.498 20.0211C15.482 18.1543 15.7697 16.4055 16.9057 14.8439C16.9274 14.8141 16.9421 14.7798 16.9488 14.7436C16.9555 14.7074 16.954 14.6702 16.9444 14.6347C16.9348 14.5991 16.9173 14.5662 16.8932 14.5382C16.8691 14.5103 16.839 14.488 16.8052 14.473C16.2869 14.2462 15.7925 14.0194 15.2993 13.8005C14.5824 13.475 14.3541 13.1087 14.5618 12.3681C14.7291 11.7138 14.9801 11.0834 15.3085 10.4923C15.7651 9.70864 16.5415 9.3185 17.4685 9.35026C18.2551 9.37634 19.0394 9.45346 19.9208 9.52037C19.9737 9.52448 20.0266 9.51175 20.0717 9.48402C20.1169 9.45629 20.152 9.415 20.172 9.36614L21.1995 6.83934C21.3696 6.41972 21.5317 5.9967 21.7075 5.57935C22.1282 4.58188 22.8327 3.72802 23.7347 3.12247C24.6368 2.51691 25.697 2.18597 26.7856 2.17022C28.8406 2.13846 30.8956 2.17022 32.9506 2.16455C37.0986 2.16455 41.2466 2.16455 45.3947 2.16455C48.0468 2.16455 49.6999 3.28618 50.6954 5.7472C51.192 7.00606 51.7024 8.26378 52.2287 9.56347ZM23.5364 20.545C23.5898 20.5612 23.6361 20.5947 23.668 20.6402C23.6999 20.6856 23.7154 20.7404 23.7123 20.7957C23.6472 21.8164 22.9131 22.5808 21.8856 22.6329C20.9723 22.6794 20.0589 22.6511 19.1456 22.6556C18.7209 22.6556 18.2962 22.6556 17.8669 22.6556C17.8006 22.6556 17.737 22.6818 17.6902 22.7284C17.6433 22.7749 17.6169 22.8381 17.6169 22.904V33.6712C17.6169 33.7371 17.6433 33.8003 17.6902 33.8468C17.737 33.8934 17.8006 33.9196 17.8669 33.9196H22.4884C22.5213 33.9196 22.5539 33.9131 22.5843 33.9006C22.6147 33.888 22.6424 33.8696 22.6656 33.8464C22.6888 33.8232 22.7072 33.7957 22.7197 33.7655C22.7322 33.7352 22.7386 33.7028 22.7384 33.6701C22.7384 32.9023 22.7259 32.156 22.7384 31.4109C22.7567 30.5683 23.2328 30.1895 24.0684 30.2689C25.5446 30.4095 27.0208 30.5683 28.5004 30.6488C35.0227 30.9993 41.5393 30.9754 48.0433 30.2904C48.2358 30.2701 48.4305 30.2902 48.6147 30.3492C48.799 30.4083 48.9687 30.505 49.113 30.6333C49.2572 30.7615 49.3728 30.9184 49.4523 31.0937C49.5317 31.2691 49.5733 31.4591 49.5743 31.6514C49.5743 31.8101 49.5743 31.9689 49.5743 32.1266C49.5743 32.6369 49.5743 33.1472 49.5743 33.6519C49.5743 33.6845 49.5808 33.7167 49.5934 33.7468C49.6059 33.7769 49.6244 33.8042 49.6476 33.8272C49.6708 33.8501 49.6984 33.8683 49.7287 33.8807C49.7591 33.893 49.7915 33.8993 49.8243 33.8992H54.4503C54.5166 33.8992 54.5802 33.873 54.6271 33.8264C54.674 33.7798 54.7004 33.7167 54.7004 33.6508V22.9029C54.7004 22.837 54.674 22.7738 54.6271 22.7272C54.5802 22.6807 54.5166 22.6545 54.4503 22.6545H54.0428C52.8634 22.6545 51.683 22.6772 50.5036 22.6386C49.4088 22.6023 48.6085 21.7835 48.6107 20.7764C48.6113 20.7237 48.6288 20.6725 48.6606 20.6303C48.6924 20.5881 48.7369 20.557 48.7877 20.5416L54.472 18.8031C54.5274 18.7873 54.5757 18.7532 54.6087 18.7063C54.6418 18.6594 54.6576 18.6027 54.6536 18.5456C54.5852 17.4858 54.1615 16.4793 53.4502 15.6865C53.0815 15.2794 52.6511 14.9221 52.3086 14.5036C52.0071 14.171 51.7577 13.7952 51.5688 13.3888C50.5995 11.0514 49.6668 8.70041 48.7146 6.35735C48.1232 4.89661 47.1391 4.22295 45.5602 4.22182C39.3024 4.21728 33.0442 4.21728 26.7856 4.22182C25.177 4.22182 24.2054 4.89321 23.5992 6.3925C22.8925 8.14357 22.1436 9.87875 21.4963 11.6514C20.9506 13.1461 20.2953 14.5399 19.0006 15.5482C18.9287 15.6104 18.864 15.6804 18.8077 15.7568C18.1396 16.5397 17.7358 17.5112 17.6535 18.5343C17.6487 18.591 17.6636 18.6475 17.6955 18.6947C17.7275 18.7419 17.7746 18.7769 17.8293 18.794L23.5364 20.545ZM16.9022 11.9179C16.8782 11.9473 16.8612 11.9819 16.8526 12.0188C16.844 12.0558 16.844 12.0942 16.8526 12.1311C16.8612 12.1681 16.8781 12.2026 16.9022 12.2321C16.9262 12.2616 16.9567 12.2852 16.9913 12.3012C17.2858 12.435 17.5621 12.5632 17.843 12.6823C18.7426 13.0622 18.6204 13.2403 19.0292 12.1742C19.0919 12.0097 19.0805 11.7069 18.9732 11.6071C18.4629 11.1308 17.3897 11.3202 16.9022 11.9167V11.9179ZM53.5324 12.7843C53.559 12.844 53.6081 12.891 53.6691 12.9152C53.7302 12.9393 53.7983 12.9388 53.859 12.9136C54.1489 12.7923 54.3978 12.6868 54.6456 12.5825C54.8739 12.4849 55.0954 12.3851 55.3191 12.2853C55.3528 12.2702 55.3827 12.2478 55.4066 12.2199C55.4306 12.1919 55.448 12.1591 55.4577 12.1236C55.4674 12.0882 55.4692 12.0511 55.4628 12.015C55.4564 11.9788 55.442 11.9445 55.4207 11.9145C54.996 11.2953 54.0724 11.1478 53.4137 11.6378C53.3087 11.716 53.2036 11.9179 53.2345 12.0256C53.3152 12.285 53.4148 12.5382 53.5324 12.7832V12.7843Z" fill="#CEE0EA"/>
<path d="M12.0537 28.5893V30.0636C12.0536 30.0977 12.0465 30.1314 12.0327 30.1627C12.0189 30.1939 11.9988 30.222 11.9737 30.2452C11.9485 30.2684 11.9188 30.2862 11.8864 30.2975C11.854 30.3088 11.8196 30.3133 11.7854 30.3108L10.5855 30.2156C10.5512 30.2129 10.5166 30.2173 10.4841 30.2286C10.4516 30.2398 10.4217 30.2575 10.3964 30.2808C10.3711 30.304 10.3509 30.3321 10.3371 30.3634C10.3233 30.3948 10.3161 30.4286 10.3161 30.4628C10.3161 30.8144 10.3161 31.1524 10.3161 31.4915C10.3035 33.0214 9.48492 33.8345 7.94939 33.8368C6.41386 33.8391 4.8669 33.8368 3.32566 33.8368C1.87119 33.8368 1.01722 32.9907 1.01608 31.5493C1.01608 26.7293 1.01608 21.9094 1.01608 17.0894C0.998729 15.5102 1.48818 13.9665 2.41347 12.6823C2.43445 12.6523 2.4485 12.6181 2.45461 12.5822C2.46072 12.5462 2.45873 12.5093 2.4488 12.4742C2.43887 12.4391 2.42124 12.4066 2.39717 12.379C2.3731 12.3515 2.34319 12.3295 2.30958 12.3148C1.80154 12.088 1.31063 11.8736 0.825423 11.6536C0.0833436 11.3134 -0.139279 10.9584 0.0810616 10.1793C0.251547 9.5259 0.507559 8.89754 0.842549 8.31028C1.29921 7.5493 2.05728 7.17617 2.96147 7.19999C3.73894 7.22494 4.51413 7.30093 5.29046 7.3599C5.34522 7.36335 5.3973 7.38468 5.43859 7.42057C5.47988 7.45647 5.50808 7.50491 5.51879 7.55837C5.60328 7.37804 5.69689 7.20226 5.7711 7.0174C6.28028 5.75627 6.75749 4.48267 7.2975 3.23401C8.14575 1.27087 9.65617 0.101607 11.8151 0.0460359C15.0117 -0.0378881 18.2084 0.0188173 21.405 0.0176832C21.4691 0.0203389 21.5296 0.0478198 21.5736 0.094241C21.6175 0.140662 21.6414 0.202334 21.6402 0.266053V1.81638C21.6402 1.88225 21.6138 1.94542 21.567 1.992C21.5201 2.03858 21.4565 2.06475 21.3902 2.06475H20.9723C18.1182 2.06475 15.264 2.06475 12.4099 2.06475C10.6688 2.06475 9.73266 2.69418 9.08877 4.28874C8.26106 6.33693 7.40139 8.37152 6.62278 10.4413C6.25612 11.3895 5.69156 12.2498 4.96623 12.9658C4.35887 13.5896 3.88622 14.3619 3.45467 15.1206C3.2583 15.4688 3.22063 15.9065 3.13729 16.3466C3.12618 16.4064 3.13761 16.4683 3.16939 16.5204C3.20117 16.5724 3.2511 16.6111 3.30968 16.629L9.04881 18.388C9.10196 18.4063 9.14732 18.4419 9.17757 18.4891C9.20782 18.5362 9.22118 18.5921 9.21549 18.6477C9.14357 19.6933 8.38779 20.4509 7.32718 20.4872C6.14899 20.5269 4.96851 20.5019 3.78804 20.5053H3.37133C3.30502 20.5053 3.24142 20.5315 3.19453 20.5781C3.14765 20.6247 3.1213 20.6878 3.1213 20.7537V31.5187C3.1213 31.5845 3.14765 31.6477 3.19453 31.6943C3.24142 31.7409 3.30502 31.767 3.37133 31.767H7.99163C8.05794 31.767 8.12154 31.7409 8.16842 31.6943C8.21531 31.6477 8.24165 31.5845 8.24165 31.5187C8.24165 31.0083 8.24165 30.498 8.24165 29.9865C8.23188 29.6459 8.24294 29.305 8.27476 28.9658C8.34098 28.46 8.74056 28.0744 9.24517 28.1027C10.0991 28.1515 10.9497 28.2558 11.8288 28.3454C11.8898 28.3516 11.9465 28.3798 11.988 28.4248C12.0295 28.4697 12.0528 28.5283 12.0537 28.5893ZM3.96385 10.7962C3.99438 10.8094 4.02724 10.8163 4.0605 10.8166C4.09377 10.8169 4.12675 10.8106 4.15751 10.798C4.18827 10.7854 4.21618 10.7668 4.23958 10.7433C4.26299 10.7199 4.28142 10.692 4.29379 10.6613C4.4502 10.2632 4.6557 9.87875 4.57122 9.57368C4.44792 9.12797 3.84854 9.23344 3.41585 9.23344C3.35922 9.23749 3.30238 9.23749 3.24575 9.23344C2.74113 9.16426 2.4854 9.40469 2.321 9.8005C2.29649 9.85992 2.29598 9.92643 2.31958 9.98621C2.34319 10.046 2.38908 10.0944 2.44772 10.1215C2.70916 10.2417 2.96376 10.3596 3.22063 10.473C3.45353 10.5785 3.683 10.676 3.96385 10.7962Z" fill="#CEE0EA"/>
<path d="M61.3894 30.2156L60.3128 30.3006C60.2785 30.3033 60.2439 30.2989 60.2114 30.2877C60.1789 30.2764 60.149 30.2587 60.1237 30.2355C60.0984 30.2123 60.0782 30.1841 60.0644 30.1528C60.0506 30.1214 60.0434 30.0876 60.0434 30.0534V28.5723C60.0434 28.5102 60.0669 28.4503 60.1091 28.4046C60.1514 28.3588 60.2094 28.3304 60.2717 28.325C61.1279 28.2445 61.9842 28.1368 62.8496 28.1186C63.3565 28.1084 63.699 28.5723 63.7207 29.1393C63.7458 29.7994 63.7298 30.4617 63.7321 31.1229C63.7321 31.251 63.7321 31.378 63.7321 31.5141C63.7321 31.5468 63.7385 31.5791 63.7511 31.6092C63.7637 31.6393 63.7821 31.6667 63.8053 31.6898C63.8285 31.7128 63.8561 31.7311 63.8864 31.7436C63.9168 31.7561 63.9493 31.7625 63.9821 31.7625H68.6013C68.6341 31.7625 68.6666 31.7561 68.6969 31.7436C68.7273 31.7311 68.7548 31.7128 68.7781 31.6898C68.8013 31.6667 68.8197 31.6393 68.8323 31.6092C68.8448 31.5791 68.8513 31.5468 68.8513 31.5141V20.748C68.8513 20.6822 68.8249 20.619 68.7781 20.5724C68.7312 20.5258 68.6676 20.4997 68.6013 20.4997C68.1948 20.4997 67.7907 20.4997 67.3854 20.4997C66.4538 20.4997 65.5199 20.5235 64.5906 20.4781C63.5631 20.4271 62.8336 19.6729 62.7639 18.6465C62.7598 18.5904 62.775 18.5345 62.8069 18.488C62.8388 18.4414 62.8856 18.407 62.9398 18.3902L68.6481 16.6414C68.7027 16.6244 68.7498 16.5894 68.7818 16.5422C68.8138 16.495 68.8286 16.4384 68.8239 16.3817C68.7451 15.3134 68.3353 14.4118 67.6822 13.6032C67.6259 13.5267 67.5612 13.4567 67.4893 13.3945C66.1958 12.3863 65.5382 10.9936 64.9925 9.49883C64.3394 7.7092 63.5859 5.95474 62.8701 4.1878C62.2833 2.73841 61.2901 2.06702 59.7077 2.06361C56.8155 2.05756 53.9233 2.05756 51.0311 2.06361H50.6155C50.5492 2.06361 50.4856 2.03745 50.4387 1.99087C50.3918 1.94429 50.3655 1.88112 50.3655 1.81524V0.275126C50.3657 0.211742 50.3903 0.150828 50.4342 0.104864C50.4781 0.0588999 50.5381 0.0313638 50.6018 0.027891C50.7262 0.0210863 50.8507 0.0142822 50.9751 0.0142822C53.8468 0.0142822 56.7188 0.0142822 59.5913 0.0142822C62.1714 0.0142822 63.8714 1.16313 64.8224 3.53002C65.3315 4.79795 65.843 6.06588 66.3145 7.23628C66.3344 7.28566 66.3699 7.32733 66.4155 7.35511C66.4612 7.3829 66.5146 7.39532 66.568 7.39052C67.3979 7.31907 68.1731 7.23401 68.9506 7.19999C69.9975 7.15463 70.8104 7.62755 71.2979 8.52463C71.5993 9.07921 71.7831 9.7075 71.9475 10.3222C72.1119 10.9369 71.8733 11.3372 71.2944 11.606C70.7681 11.851 70.235 12.0789 69.6767 12.3228C69.6426 12.3376 69.6123 12.3598 69.5879 12.3878C69.5636 12.4158 69.5459 12.4489 69.5362 12.4846C69.5264 12.5203 69.5249 12.5577 69.5316 12.594C69.5383 12.6304 69.5532 12.6648 69.5751 12.6947C70.7168 14.2689 71.0022 16.0358 70.9851 17.9196C70.944 22.4163 70.9725 26.9131 70.9714 31.4155C70.9714 33.052 70.1722 33.8504 68.5248 33.8515C67.0029 33.8515 65.4811 33.8515 63.9581 33.8515C62.5322 33.8515 61.6942 33.0202 61.6748 31.6015C61.6691 31.2454 61.6748 30.8881 61.6748 30.4798C61.6774 30.4428 61.6716 30.4056 61.6579 30.3711C61.6441 30.3365 61.6228 30.3055 61.5955 30.2802C61.5681 30.2548 61.5354 30.2359 61.4998 30.2247C61.4641 30.2136 61.4264 30.2104 61.3894 30.2156ZM69.518 10.1317C69.5746 10.1064 69.6197 10.0613 69.6448 10.005C69.6699 9.94867 69.6731 9.88513 69.6539 9.82659C69.4655 9.26634 69.0168 9.20963 68.4768 9.22324C67.2689 9.25273 67.0726 9.54079 67.6697 10.5626C67.7273 10.626 67.8001 10.674 67.8813 10.7022C67.9625 10.7303 68.0495 10.7377 68.1343 10.7237C68.6024 10.557 69.0522 10.3449 69.5203 10.1339L69.518 10.1317Z" fill="#CEE0EA"/>
<path d="M36.1953 20.604C38.7998 20.604 41.4047 20.604 44.0099 20.604C45.3343 20.604 45.7475 21.2844 45.1516 22.4718C44.5808 23.606 43.9985 24.7253 43.4528 25.8662C43.3509 26.0984 43.199 26.3056 43.0079 26.4733C42.8168 26.641 42.5911 26.7652 42.3465 26.837C39.6276 27.7253 36.744 28.003 33.9039 27.6502C32.5556 27.4891 31.2336 27.1035 29.9081 26.8053C29.4343 26.6987 29.1295 26.3925 28.916 25.9513C28.3235 24.7276 27.6956 23.5209 27.0894 22.304C26.6064 21.3321 27.0551 20.6108 28.158 20.6028C30.834 20.5983 33.5146 20.604 36.1953 20.604ZM42.3237 22.6907H29.9938C29.9509 22.6907 29.9088 22.7016 29.8714 22.7224C29.834 22.7432 29.8026 22.7732 29.7802 22.8096C29.7579 22.8459 29.7453 22.8873 29.7437 22.9299C29.7421 22.9724 29.7516 23.0146 29.7711 23.0525C30.0132 23.5232 30.2438 23.9598 30.4356 24.4134C30.5051 24.5868 30.6158 24.7408 30.7584 24.8623C30.901 24.9838 31.0711 25.0691 31.2542 25.1109C32.873 25.5918 34.5341 25.7392 36.2101 25.7358C37.8484 25.7358 39.4753 25.594 41.0485 25.1007C41.2768 25.0304 41.5634 24.9329 41.6672 24.7605C41.9823 24.2229 42.2518 23.6581 42.5486 23.0593C42.5699 23.021 42.5807 22.9779 42.5798 22.9341C42.579 22.8904 42.5665 22.8477 42.5437 22.8103C42.5209 22.7729 42.4885 22.7421 42.4499 22.7211C42.4112 22.7001 42.3677 22.6897 42.3237 22.6907Z" fill="#CEE0EA"/>
</symbol><symbol id="check" viewBox="0 0 33 30">
<path d="M0 14.0221C0.0831445 13.4559 0.139219 12.884 0.253945 12.3242C1.27488 7.34562 4.06119 3.65314 8.6973 1.49894C13.6196 -0.786123 18.4832 -0.420386 23.1587 2.33509C23.5776 2.5821 23.8032 2.92614 23.7387 3.41443C23.6362 4.1676 22.8248 4.52759 22.1409 4.11143C21.2501 3.5595 20.2986 3.10981 19.305 2.77104C11.8839 0.298961 3.9484 4.79184 2.33449 12.3798C0.875918 19.2375 5.29934 26.0697 12.1958 27.6226C14.2082 28.0821 16.3019 28.0621 18.305 27.5645C20.308 27.0668 22.1633 26.1057 23.7184 24.7599C25.2734 23.4142 26.4839 21.7223 27.2504 19.8232C28.0168 17.9242 28.3174 15.8721 28.1273 13.8357C28.0732 13.1974 28.4561 12.7047 29.06 12.6395C29.6291 12.5757 30.1138 13.0066 30.1757 13.6257C30.8924 20.7815 26.1744 27.5543 19.1477 29.4551C17.2129 29.9818 15.1916 30.1221 13.2015 29.8679C11.2113 29.6137 9.29213 28.9702 7.55548 27.9747C5.81882 26.9792 4.29941 25.6517 3.08563 24.0693C1.87185 22.4869 0.987943 20.6813 0.485332 18.7575C0.273281 17.9494 0.197227 17.1063 0.0573633 16.2797C0.04125 16.1859 0.0193359 16.0933 0 16.0008C0 15.3412 0 14.6816 0 14.0221Z" fill="#0065C1"/>
<path d="M33 2.66053C32.8247 2.89733 32.6777 3.16222 32.4708 3.36775C27.5857 8.21531 22.6967 13.0597 17.8039 17.9008C17.751 17.9532 17.6982 18.0068 17.644 18.0585C17.1226 18.5576 16.5483 18.5557 16.0327 18.0445C14.0239 16.0602 12.0186 14.075 10.0166 12.0886C9.52873 11.6048 9.49521 10.9901 9.92447 10.5567C10.3537 10.1234 10.9815 10.1553 11.4668 10.6346C13.1701 12.3171 14.871 14.0018 16.5696 15.6886C16.6521 15.7709 16.7133 15.8743 16.868 16.0773C16.9847 15.896 17.0356 15.7722 17.1258 15.6847C21.7789 11.0738 26.4318 6.463 31.0844 1.85246C31.3996 1.5397 31.7354 1.34184 32.1995 1.4363C32.6133 1.52056 32.8131 1.82438 33 2.1499V2.66053Z" fill="#0065C1"/>
</symbol><symbol id="docs" viewBox="0 0 44 51">
<path d="M9.49369 21.3919C8.45509 21.3919 7.43981 21.0839 6.57625 20.5069C5.71268 19.9299 5.03962 19.1098 4.64216 18.1502C4.24471 17.1907 4.14071 16.1348 4.34334 15.1162C4.54596 14.0975 5.04609 13.1619 5.78049 12.4275C6.51489 11.6931 7.45058 11.1929 8.46922 10.9903C9.48786 10.7877 10.5437 10.8917 11.5033 11.2891C12.4628 11.6866 13.2829 12.3597 13.86 13.2232C14.437 14.0868 14.7449 15.1021 14.7449 16.1407C14.7449 17.5334 14.1917 18.8691 13.2069 19.8539C12.2221 20.8387 10.8864 21.3919 9.49369 21.3919ZM9.49369 12.5753C8.7858 12.5753 8.09381 12.7852 7.50522 13.1785C6.91664 13.5718 6.45789 14.1308 6.18699 14.7848C5.91609 15.4388 5.84521 16.1585 5.98332 16.8527C6.12142 17.547 6.4623 18.1848 6.96285 18.6853C7.46341 19.1859 8.10115 19.5268 8.79543 19.6649C9.48972 19.803 10.2094 19.7321 10.8634 19.4612C11.5174 19.1903 12.0764 18.7315 12.4696 18.1429C12.8629 17.5544 13.0728 16.8624 13.0728 16.1545C13.0728 15.6845 12.9803 15.219 12.8004 14.7848C12.6205 14.3506 12.3569 13.956 12.0245 13.6236C11.6922 13.2913 11.2976 13.0276 10.8634 12.8478C10.4291 12.6679 9.96371 12.5753 9.49369 12.5753Z" fill="#CEE0EA"/>
<path d="M26.3253 21.392H18.559C18.3558 21.3658 18.169 21.2665 18.0337 21.1126C17.8984 20.9587 17.8237 20.7608 17.8237 20.5559C17.8237 20.351 17.8984 20.1531 18.0337 19.9992C18.169 19.8453 18.3558 19.746 18.559 19.7198H26.3391C26.5422 19.7477 26.7282 19.8485 26.8623 20.0035C26.9963 20.1585 27.0694 20.357 27.0677 20.562C27.066 20.7669 26.9897 20.9642 26.853 21.117C26.7164 21.2698 26.5288 21.3675 26.3253 21.392Z" fill="#CEE0EA"/>
<path d="M22.7463 26.6985H5.34805C5.14481 26.6723 4.95808 26.573 4.82275 26.4191C4.68743 26.2652 4.61279 26.0673 4.61279 25.8624C4.61279 25.6575 4.68743 25.4596 4.82275 25.3057C4.95808 25.1519 5.14481 25.0525 5.34805 25.0264H22.7463C22.9495 25.0525 23.1363 25.1519 23.2716 25.3057C23.4069 25.4596 23.4815 25.6575 23.4815 25.8624C23.4815 26.0673 23.4069 26.2652 23.2716 26.4191C23.1363 26.573 22.9495 26.6723 22.7463 26.6985Z" fill="#CEE0EA"/>
<path d="M18.1031 31.7148H5.34805C5.14481 31.6887 4.95808 31.5893 4.82275 31.4355C4.68743 31.2816 4.61279 31.0837 4.61279 30.8788C4.61279 30.6739 4.68743 30.476 4.82275 30.3221C4.95808 30.1682 5.14481 30.0689 5.34805 30.0427H18.0616C18.2658 30.0634 18.4555 30.1579 18.595 30.3085C18.7345 30.459 18.8143 30.6553 18.8194 30.8605C18.8245 31.0657 18.7545 31.2657 18.6226 31.423C18.4908 31.5803 18.306 31.6841 18.1031 31.7148Z" fill="#CEE0EA"/>
<path d="M16.4033 36.7173H5.34805C5.14481 36.6911 4.95808 36.5918 4.82275 36.4379C4.68743 36.284 4.61279 36.0861 4.61279 35.8812C4.61279 35.6763 4.68743 35.4784 4.82275 35.3245C4.95808 35.1707 5.14481 35.0713 5.34805 35.0452H16.4033C16.6066 35.0713 16.7933 35.1707 16.9286 35.3245C17.0639 35.4784 17.1386 35.6763 17.1386 35.8812C17.1386 36.0861 17.0639 36.284 16.9286 36.4379C16.7933 36.5918 16.6066 36.6911 16.4033 36.7173Z" fill="#CEE0EA"/>
<path d="M16.4033 41.7337H5.34801C5.17357 41.6821 5.02049 41.5755 4.91161 41.4298C4.80273 41.2841 4.7439 41.1071 4.7439 40.9252C4.7439 40.7433 4.80273 40.5663 4.91161 40.4206C5.02049 40.2749 5.17357 40.1684 5.34801 40.1168H16.4033C16.5777 40.1684 16.7308 40.2749 16.8397 40.4206C16.9486 40.5663 17.0074 40.7433 17.0074 40.9252C17.0074 41.1071 16.9486 41.2841 16.8397 41.4298C16.7308 41.5755 16.5777 41.6821 16.4033 41.7337Z" fill="#CEE0EA"/>
<path d="M26.3253 17.3568H18.559C18.3558 17.3306 18.169 17.2313 18.0337 17.0774C17.8984 16.9236 17.8237 16.7257 17.8237 16.5207C17.8237 16.3158 17.8984 16.1179 18.0337 15.9641C18.169 15.8102 18.3558 15.7109 18.559 15.6847H26.3391C26.5422 15.7125 26.7282 15.8133 26.8623 15.9683C26.9963 16.1233 27.0694 16.3219 27.0677 16.5268C27.066 16.7318 26.9897 16.9291 26.853 17.0818C26.7164 17.2346 26.5288 17.3323 26.3253 17.3568Z" fill="#CEE0EA"/>
<path d="M26.3253 13.3215H18.559C18.3558 13.2953 18.169 13.196 18.0337 13.0422C17.8984 12.8883 17.8237 12.6904 17.8237 12.4855C17.8237 12.2806 17.8984 12.0827 18.0337 11.9288C18.169 11.7749 18.3558 11.6756 18.559 11.6494H26.3391C26.5422 11.6772 26.7282 11.7781 26.8623 11.9331C26.9963 12.0881 27.0694 12.2866 27.0677 12.4915C27.066 12.6965 26.9897 12.8938 26.853 13.0466C26.7164 13.1993 26.5288 13.2971 26.3253 13.3215Z" fill="#CEE0EA"/>
<path d="M34.1607 50.0251H28.8404C28.6168 50.0251 28.4024 49.9363 28.2443 49.7782C28.0862 49.6201 27.9974 49.4057 27.9974 49.1821V46.6809L27.4585 46.4736L25.6896 48.2424C25.5317 48.3994 25.3181 48.4875 25.0954 48.4875C24.8727 48.4875 24.6591 48.3994 24.5012 48.2424L20.7424 44.4836C20.5854 44.3257 20.4973 44.1121 20.4973 43.8894C20.4973 43.6667 20.5854 43.4531 20.7424 43.2952L22.5527 41.4987C22.479 41.3329 22.4099 41.1624 22.3454 40.9874H19.8442C19.7311 40.9874 19.6192 40.9648 19.515 40.9207C19.4109 40.8766 19.3167 40.812 19.2381 40.7308C19.1594 40.6496 19.0979 40.5533 19.0572 40.4479C19.0165 40.3424 18.9975 40.2298 19.0012 40.1168V34.8655C19.0012 34.642 19.09 34.4275 19.2481 34.2695C19.4062 34.1114 19.6206 34.0226 19.8442 34.0226H22.3454L22.5527 33.5113L20.7838 31.7424C20.6269 31.5845 20.5388 31.3709 20.5388 31.1482C20.5388 30.9255 20.6269 30.7119 20.7838 30.554L24.5426 26.7952C24.7006 26.6382 24.9142 26.5501 25.1369 26.5501C25.3595 26.5501 25.5731 26.6382 25.7311 26.7952L27.4585 28.5778L27.9698 28.3706V25.8693C27.9697 25.7562 27.9924 25.6443 28.0365 25.5402C28.0806 25.4361 28.1451 25.3419 28.2264 25.2632C28.3076 25.1846 28.4038 25.1231 28.5093 25.0824C28.6148 25.0417 28.7274 25.0226 28.8404 25.0263H34.1607C34.3843 25.0263 34.5987 25.1151 34.7568 25.2732C34.9149 25.4313 35.0037 25.6457 35.0037 25.8693V28.3706L35.5012 28.5778L37.27 26.809C37.428 26.652 37.6416 26.5639 37.8642 26.5639C38.0869 26.5639 38.3005 26.652 38.4585 26.809L42.2173 30.5678C42.3742 30.7257 42.4623 30.9393 42.4623 31.162C42.4623 31.3847 42.3742 31.5983 42.2173 31.7562L40.4484 33.5251C40.5221 33.6909 40.5912 33.8613 40.6557 34.0364H43.157C43.3805 34.0364 43.5949 34.1252 43.753 34.2833C43.9111 34.4414 43.9999 34.6558 43.9999 34.8793V40.1168C43.9999 40.3403 43.9111 40.5548 43.753 40.7128C43.5949 40.8709 43.3805 40.9597 43.157 40.9597H40.6557C40.5912 41.1256 40.5221 41.296 40.4484 41.4711L42.2173 43.2399C42.3742 43.3978 42.4623 43.6115 42.4623 43.8341C42.4623 44.0568 42.3742 44.2704 42.2173 44.4283L38.5137 48.2424C38.3558 48.3994 38.1422 48.4875 37.9195 48.4875C37.6969 48.4875 37.4832 48.3994 37.3253 48.2424L35.5012 46.4736L35.0037 46.6809V49.1821C35.0037 49.4057 34.9149 49.6201 34.7568 49.7782C34.5987 49.9363 34.3843 50.0251 34.1607 50.0251ZM29.6833 48.4082H33.3316V46.0866C33.3324 45.9072 33.3905 45.7327 33.4974 45.5885C33.6043 45.4444 33.7543 45.3381 33.9258 45.2851C34.4029 45.1393 34.8656 44.9496 35.3077 44.7185C35.4663 44.6368 35.6467 44.6075 35.823 44.6348C35.9994 44.6621 36.1625 44.7446 36.2889 44.8705L37.8919 46.4736L40.4622 43.9032L38.8592 42.3002C38.7333 42.1738 38.6508 42.0107 38.6234 41.8344C38.5961 41.6581 38.6255 41.4776 38.7072 41.319C38.9382 40.8768 39.1279 40.4142 39.2738 39.9371C39.3267 39.7657 39.433 39.6156 39.5772 39.5087C39.7214 39.4018 39.8959 39.3437 40.0753 39.3429H42.3416V35.7085H40.0615C39.882 35.7077 39.7075 35.6496 39.5634 35.5427C39.4192 35.4358 39.3129 35.2857 39.26 35.1143C39.1139 34.6372 38.9243 34.1746 38.6934 33.7324C38.6116 33.5738 38.5823 33.3933 38.6096 33.217C38.6369 33.0407 38.7195 32.8776 38.8454 32.7512L40.4484 31.1482L37.8781 28.5778L36.2751 30.1809C36.1486 30.3068 35.9855 30.3893 35.8092 30.4166C35.6329 30.444 35.4525 30.4146 35.2939 30.3329C34.8517 30.1018 34.3891 29.9122 33.912 29.7663C33.7405 29.7133 33.5904 29.607 33.4836 29.4629C33.3767 29.3187 33.3186 29.1442 33.3178 28.9648V26.6984H29.6833V28.9648C29.6825 29.1442 29.6244 29.3187 29.5176 29.4629C29.4107 29.607 29.2606 29.7133 29.0891 29.7663C28.612 29.912 28.1493 30.1017 27.7072 30.3329C27.5486 30.4146 27.3682 30.444 27.1919 30.4166C27.0156 30.3893 26.8525 30.3068 26.7261 30.1809L25.123 28.5778L22.5527 31.1482L24.1557 32.7512C24.2816 32.8776 24.3642 33.0407 24.3915 33.217C24.4188 33.3933 24.3895 33.5738 24.3077 33.7324C24.0768 34.1746 23.8871 34.6372 23.7411 35.1143C23.6882 35.2857 23.5819 35.4358 23.4377 35.5427C23.2936 35.6496 23.1191 35.7077 22.9396 35.7085H20.6733V39.3567H22.9396C23.1191 39.3576 23.2936 39.4156 23.4377 39.5225C23.5819 39.6294 23.6882 39.7795 23.7411 39.951C23.8869 40.4281 24.0765 40.8907 24.3077 41.3329C24.3895 41.4914 24.4188 41.6719 24.3915 41.8482C24.3642 42.0245 24.2816 42.1876 24.1557 42.314L22.5527 43.917L25.123 46.4874L26.7261 44.8844C26.8513 44.7565 27.0145 44.6727 27.1914 44.6453C27.3682 44.6179 27.5492 44.6484 27.7072 44.7324C28.1494 44.9633 28.612 45.153 29.0891 45.2989C29.2606 45.3519 29.4107 45.4582 29.5176 45.6023C29.6244 45.7465 29.6825 45.921 29.6833 46.1005V48.4082Z" fill="#CEE0EA"/>
<path d="M31.5074 44.2626C30.1819 44.2626 28.886 43.8695 27.7839 43.133C26.6817 42.3966 25.8226 41.3498 25.3154 40.1251C24.8081 38.9005 24.6754 37.5529 24.934 36.2527C25.1926 34.9526 25.8309 33.7584 26.7682 32.8211C27.7056 31.8838 28.8998 31.2454 30.1999 30.9868C31.5 30.7282 32.8476 30.8609 34.0723 31.3682C35.297 31.8755 36.3437 32.7345 37.0802 33.8367C37.8166 34.9389 38.2097 36.2347 38.2097 37.5603C38.206 39.3367 37.4987 41.0393 36.2426 42.2955C34.9865 43.5516 33.2839 44.2589 31.5074 44.2626ZM31.5074 32.5301C30.5126 32.5301 29.54 32.8252 28.7128 33.3779C27.8856 33.9306 27.2409 34.7162 26.8602 35.6353C26.4795 36.5545 26.3799 37.5659 26.5739 38.5416C26.768 39.5174 27.2471 40.4137 27.9506 41.1172C28.6541 41.8206 29.5504 42.2997 30.5261 42.4938C31.5019 42.6879 32.5133 42.5883 33.4324 42.2075C34.3515 41.8268 35.1371 41.1821 35.6899 40.3549C36.2426 39.5277 36.5376 38.5552 36.5376 37.5603C36.5431 36.8962 36.417 36.2377 36.1667 35.6226C35.9163 35.0075 35.5467 34.4481 35.079 33.9766C34.6114 33.5051 34.055 33.1309 33.442 32.8755C32.829 32.6201 32.1715 32.4887 31.5074 32.4887V32.5301Z" fill="#CEE0EA"/>
<path d="M37.3946 24.6118C37.171 24.6118 36.9566 24.523 36.7985 24.3649C36.6404 24.2068 36.5516 23.9924 36.5516 23.7688V1.83791H8.11191V3.41328H34.1333C34.3568 3.41328 34.5712 3.5021 34.7293 3.66018C34.8874 3.81827 34.9762 4.03268 34.9762 4.25625V22.2211C34.9915 22.3399 34.9814 22.4606 34.9463 22.5752C34.9113 22.6897 34.8523 22.7955 34.7732 22.8855C34.6941 22.9754 34.5967 23.0475 34.4875 23.0968C34.3784 23.1462 34.26 23.1717 34.1402 23.1717C34.0204 23.1717 33.902 23.1462 33.7928 23.0968C33.6837 23.0475 33.5863 22.9754 33.5072 22.8855C33.4281 22.7955 33.369 22.6897 33.334 22.5752C33.299 22.4606 33.2888 22.3399 33.3041 22.2211V5.08539H7.33804C7.2237 5.08377 7.11089 5.05889 7.00647 5.01228C6.90204 4.96567 6.8082 4.89831 6.73063 4.81428C6.65307 4.73026 6.59341 4.63133 6.55529 4.52351C6.51718 4.4157 6.50139 4.30126 6.5089 4.18715V0.994943C6.5089 0.771375 6.59771 0.556963 6.7558 0.398877C6.91389 0.24079 7.1283 0.151978 7.35187 0.151978H37.3946C37.6181 0.151978 37.8326 0.24079 37.9906 0.398877C38.1487 0.556963 38.2375 0.771375 38.2375 0.994943V23.7688C38.2375 23.9924 38.1487 24.2068 37.9906 24.3649C37.8326 24.523 37.6181 24.6118 37.3946 24.6118Z" fill="#CEE0EA"/>
<path d="M30.8857 23.1194C30.6622 23.1194 30.4478 23.0306 30.2897 22.8725C30.1316 22.7144 30.0428 22.5 30.0428 22.2764V8.33293H4.09052C3.86696 8.33293 3.65254 8.24412 3.49446 8.08603C3.33637 7.92795 3.24756 7.71353 3.24756 7.48997V4.1872C3.24756 3.96364 3.33637 3.74922 3.49446 3.59114C3.65254 3.43305 3.86696 3.34424 4.09052 3.34424H34.1332C34.3568 3.34424 34.5712 3.43305 34.7293 3.59114C34.8874 3.74922 34.9762 3.96364 34.9762 4.1872V21.7513C34.9915 21.8701 34.9813 21.9908 34.9463 22.1054C34.9113 22.2199 34.8523 22.3257 34.7732 22.4157C34.694 22.5056 34.5967 22.5777 34.4875 22.627C34.3784 22.6764 34.2599 22.7019 34.1401 22.7019C34.0204 22.7019 33.9019 22.6764 33.7928 22.627C33.6836 22.5777 33.5863 22.5056 33.5071 22.4157C33.428 22.3257 33.369 22.2199 33.334 22.1054C33.299 21.9908 33.2888 21.8701 33.3041 21.7513V5.08544H4.93349V6.66082H30.8857C31.1093 6.66082 31.3237 6.74963 31.4818 6.90772C31.6399 7.06581 31.7287 7.28022 31.7287 7.50379V22.2902C31.7251 22.5114 31.6347 22.7223 31.477 22.8774C31.3193 23.0325 31.1069 23.1194 30.8857 23.1194Z" fill="#CEE0EA"/>
<path d="M23.3128 50.26H0.842966C0.619398 50.26 0.404986 50.1712 0.246899 50.0131C0.0888125 49.855 0 49.6406 0 49.417V7.50373C0 7.28016 0.0888125 7.06575 0.246899 6.90766C0.404986 6.74958 0.619398 6.66077 0.842966 6.66077H30.8857C31.1092 6.66077 31.3237 6.74958 31.4817 6.90766C31.6398 7.06575 31.7286 7.28016 31.7286 7.50373V22.2902C31.744 22.409 31.7338 22.5297 31.6987 22.6443C31.6637 22.7588 31.6047 22.8646 31.5256 22.9546C31.4465 23.0445 31.3491 23.1166 31.24 23.1659C31.1308 23.2153 31.0124 23.2408 30.8926 23.2408C30.7728 23.2408 30.6544 23.2153 30.5452 23.1659C30.4361 23.1166 30.3387 23.0445 30.2596 22.9546C30.1805 22.8646 30.1215 22.7588 30.0864 22.6443C30.0514 22.5297 30.0412 22.409 30.0565 22.2902V8.33288H1.67211V48.5879H23.3128C23.5161 48.6141 23.7028 48.7134 23.8381 48.8673C23.9734 49.0211 24.0481 49.219 24.0481 49.424C24.0481 49.6289 23.9734 49.8268 23.8381 49.9806C23.7028 50.1345 23.5161 50.2338 23.3128 50.26Z" fill="#CEE0EA"/>
</symbol><symbol id="dollar" viewBox="0 0 52 51">
<path d="M31.1181 50.9706H19.8975C19.6596 50.9706 19.4314 50.8761 19.2632 50.7078C19.0949 50.5396 19.0004 50.3114 19.0004 50.0735V44.1912C18.2731 43.9387 17.5611 43.6441 16.8681 43.3088L12.6916 47.4853C12.5235 47.6523 12.2962 47.7461 12.0593 47.7461C11.8223 47.7461 11.595 47.6523 11.4269 47.4853L3.50043 39.5735C3.3334 39.4055 3.23965 39.1781 3.23965 38.9412C3.23965 38.7042 3.3334 38.4769 3.50043 38.3088L7.6769 34.1324C7.34184 33.4392 7.04723 32.7272 6.79455 32H0.912196C0.674282 32 0.446111 31.9055 0.27788 31.7373C0.109648 31.569 0.0151367 31.3409 0.0151367 31.1029V19.8676C0.0189234 19.6348 0.113102 19.4126 0.277762 19.2479C0.442421 19.0833 0.664657 18.9891 0.89749 18.9853H6.77984C7.03287 18.263 7.32748 17.5559 7.6622 16.8676L3.50043 12.6765C3.3334 12.5084 3.23965 12.2811 3.23965 12.0441C3.23965 11.8072 3.3334 11.5798 3.50043 11.4118L11.4416 3.47059C11.6097 3.30356 11.837 3.2098 12.074 3.2098C12.3109 3.2098 12.5382 3.30356 12.7063 3.47059L16.8828 7.66176C17.5759 7.32667 18.2879 7.03206 19.0151 6.77941V0.89706C19.0151 0.659145 19.1096 0.430974 19.2779 0.262743C19.4461 0.0945117 19.6743 0 19.9122 0H31.1328C31.3707 0 31.5989 0.0945117 31.7671 0.262743C31.9353 0.430974 32.0298 0.659145 32.0298 0.89706V6.77941C32.7521 7.03259 33.4591 7.32719 34.1475 7.66176L38.324 3.48529C38.4938 3.32174 38.7205 3.23037 38.9563 3.23037C39.1921 3.23037 39.4188 3.32174 39.5887 3.48529L47.5298 11.4265C47.6969 11.5945 47.7906 11.8219 47.7906 12.0588C47.7906 12.2958 47.6969 12.5231 47.5298 12.6912L43.3534 16.8676C43.6881 17.5559 43.9827 18.263 44.2357 18.9853H50.1181C50.356 18.9853 50.5842 19.0798 50.7524 19.248C50.9206 19.4163 51.0151 19.6444 51.0151 19.8824V31.1029C51.0151 31.3409 50.9206 31.569 50.7524 31.7373C50.5842 31.9055 50.356 32 50.1181 32H44.2357C43.983 32.7272 43.6884 33.4392 43.3534 34.1324L47.5298 38.3088C47.6969 38.4769 47.7906 38.7042 47.7906 38.9412C47.7906 39.1781 47.6969 39.4055 47.5298 39.5735L39.5887 47.5147C39.4206 47.6817 39.1933 47.7755 38.9563 47.7755C38.7194 47.7755 38.492 47.6817 38.324 47.5147L34.1475 43.3382C33.4592 43.673 32.7522 43.9676 32.0298 44.2206V50.1029C32.0222 50.3383 31.9222 50.5612 31.7517 50.7235C31.5811 50.8858 31.3535 50.9746 31.1181 50.9706ZM20.824 49.1912H30.2651V43.5441C30.266 43.3531 30.3278 43.1674 30.4416 43.014C30.5553 42.8606 30.715 42.7475 30.8975 42.6912C31.9489 42.3641 32.9679 41.9407 33.9416 41.4265C34.1104 41.3395 34.3024 41.3083 34.49 41.3373C34.6776 41.3664 34.8512 41.4542 34.9857 41.5882L38.9857 45.5882L45.6622 38.9118L41.6622 34.9118C41.5282 34.7772 41.4403 34.6037 41.4113 34.416C41.3822 34.2284 41.4134 34.0364 41.5004 33.8676C42.0033 32.8686 42.4119 31.8249 42.721 30.75C42.7774 30.5675 42.8905 30.4078 43.0439 30.2941C43.1973 30.1803 43.383 30.1185 43.574 30.1176H49.221V20.75H43.574C43.383 20.7491 43.1973 20.6873 43.0439 20.5736C42.8905 20.4598 42.7774 20.3001 42.721 20.1176C42.3936 19.0663 41.9703 18.0473 41.4563 17.0735C41.3709 16.9079 41.3391 16.7198 41.3655 16.5353C41.3918 16.3509 41.475 16.1792 41.6034 16.0441L45.6034 12.0441L38.9416 5.36765L34.9416 9.36765C34.8071 9.50164 34.6335 9.58949 34.4459 9.61856C34.2583 9.64763 34.0662 9.61641 33.8975 9.52941C32.9236 9.01555 31.9046 8.5922 30.8534 8.2647C30.6709 8.20835 30.5112 8.09525 30.3974 7.94184C30.2837 7.78843 30.2219 7.60273 30.221 7.41176V1.76471H20.7798V7.41176C20.779 7.60273 20.7171 7.78843 20.6034 7.94184C20.4897 8.09525 20.33 8.20835 20.1475 8.2647C19.0962 8.5922 18.0772 9.01555 17.1034 9.52941C16.9346 9.61641 16.7426 9.64763 16.555 9.61856C16.3673 9.58949 16.1938 9.50164 16.0593 9.36765L12.0593 5.36765L5.38279 12.0441L9.38278 16.0441C9.51677 16.1786 9.60463 16.3522 9.6337 16.5398C9.66276 16.7275 9.63155 16.9195 9.54455 17.0882C9.03069 18.0621 8.60734 19.0811 8.27984 20.1324C8.22349 20.3148 8.11039 20.4745 7.95698 20.5883C7.80357 20.702 7.61787 20.7638 7.4269 20.7647H1.79455V30.2059H7.44161C7.63258 30.2068 7.81827 30.2686 7.97168 30.3823C8.12509 30.496 8.2382 30.6558 8.29455 30.8382C8.6222 31.8895 9.04554 32.9084 9.55925 33.8824C9.64626 34.0511 9.67747 34.2431 9.6484 34.4308C9.61933 34.6184 9.53148 34.7919 9.39749 34.9265L5.39749 38.9265L12.074 45.6029L16.074 41.6029C16.2085 41.469 16.382 41.3811 16.5697 41.352C16.7573 41.323 16.9493 41.3542 17.1181 41.4412C18.0917 41.9554 19.1108 42.3788 20.1622 42.7059C20.3447 42.7622 20.5044 42.8753 20.6181 43.0287C20.7318 43.1822 20.7937 43.3679 20.7945 43.5588V49.2059L20.824 49.1912Z" fill="#CEE0EA"/>
<path d="M25.5734 44.9999C21.7112 45.0144 17.9317 43.8817 14.7141 41.7454C11.4965 39.6092 8.98575 36.5655 7.5002 33.0005C6.01465 29.4354 5.62121 25.5095 6.36978 21.7205C7.11836 17.9316 8.97522 14.4502 11.7049 11.7179C14.4346 8.98567 17.9142 7.12552 21.7024 6.37336C25.4907 5.62121 29.417 6.01094 32.9834 7.49312C36.5499 8.9753 39.5959 11.4832 41.7352 14.6988C43.8746 17.9143 45.0108 21.6928 44.9999 25.555C44.9806 30.7029 42.9283 35.6348 39.2898 39.2768C35.6513 42.9187 30.7213 44.9757 25.5734 44.9999ZM25.5734 8.27671C22.1561 8.27671 18.8155 9.29006 15.9741 11.1886C13.1327 13.0872 10.9181 15.7857 9.61036 18.9429C8.30261 22.1 7.96044 25.5741 8.62712 28.9258C9.29381 32.2774 10.9394 35.3561 13.3558 37.7725C15.7722 40.1889 18.8509 41.8345 22.2026 42.5012C25.5542 43.1679 29.0283 42.8257 32.1855 41.518C35.3427 40.2102 38.0411 37.9956 39.9397 35.1542C41.8383 32.3128 42.8516 28.9723 42.8516 25.555C42.8468 20.974 41.0248 16.582 37.7856 13.3428C34.5463 10.1035 30.1544 8.28157 25.5734 8.27671Z" fill="#CEE0EA"/>
<path d="M25.5757 37.9908C24.6173 38.0352 23.6595 37.8936 22.7581 37.5744C21.8566 37.2551 21.0296 36.7646 20.3253 36.1314C19.621 35.4982 19.0535 34.735 18.6559 33.8864C18.2583 33.0377 18.0385 32.1206 18.0095 31.1886C17.9885 31.0305 18.0025 30.8699 18.0504 30.7175C18.0983 30.5651 18.1791 30.4244 18.2874 30.3047C18.3957 30.185 18.529 30.0891 18.6784 30.0235C18.8278 29.9578 18.9899 29.9238 19.1538 29.9238C19.3178 29.9238 19.4799 29.9578 19.6293 30.0235C19.7787 30.0891 19.912 30.185 20.0203 30.3047C20.1286 30.4244 20.2094 30.5651 20.2573 30.7175C20.3052 30.8699 20.3192 31.0305 20.2982 31.1886C20.2154 32.1853 20.442 33.1833 20.9488 34.0536C21.4555 34.924 22.219 35.6266 23.1408 36.0709C24.0626 36.5152 25.1002 36.6806 26.1197 36.5459C27.1393 36.4112 28.0938 35.9824 28.8601 35.3151C29.6263 34.6478 30.1691 33.7725 30.4184 32.8022C30.6676 31.832 30.6118 30.8114 30.2582 29.8724C29.9046 28.9333 29.2694 28.1188 28.4347 27.5341C27.6 26.9494 26.6041 26.6214 25.5757 26.5925C24.2121 26.5135 22.9021 26.0485 21.8072 25.2547C20.7123 24.4609 19.8803 23.3731 19.4138 22.1253C18.9474 20.8775 18.8668 19.5243 19.182 18.2325C19.4972 16.9407 20.1945 15.7668 21.1878 14.8555C22.1812 13.9442 23.4272 13.3354 24.7723 13.1041C26.1174 12.8727 27.5027 13.029 28.7575 13.5536C30.0123 14.0783 31.0817 14.9483 31.8339 16.0565C32.586 17.1647 32.9881 18.4626 32.9905 19.7902C33.0115 19.9483 32.9975 20.1089 32.9496 20.2613C32.9017 20.4137 32.8209 20.5544 32.7126 20.6741C32.6043 20.7938 32.471 20.8896 32.3216 20.9553C32.1722 21.021 32.0101 21.055 31.8462 21.055C31.6822 21.055 31.5201 21.021 31.3707 20.9553C31.2213 20.8896 31.088 20.7938 30.9797 20.6741C30.8714 20.5544 30.7906 20.4137 30.7427 20.2613C30.6948 20.1089 30.6808 19.9483 30.7018 19.7902C30.7816 18.7876 30.5487 17.7848 30.0332 16.9129C29.5177 16.0409 28.7437 15.3403 27.8123 14.9025C26.8808 14.4646 25.8352 14.3099 24.8119 14.4585C23.7885 14.6071 22.8351 15.0521 22.076 15.7354C21.3169 16.4188 20.7874 17.3087 20.5567 18.289C20.3259 19.2693 20.4046 20.2944 20.7826 21.2306C21.1605 22.1667 21.82 22.9704 22.6751 23.5366C23.5301 24.1029 24.541 24.4054 25.5757 24.4047C26.5241 24.3567 27.4727 24.4969 28.3636 24.8166C29.2545 25.1363 30.0692 25.6289 30.7579 26.2644C31.4467 26.9 31.9952 27.6651 32.37 28.5132C32.7448 29.3613 32.9381 30.2747 32.9381 31.1978C32.9381 32.1208 32.7448 33.0342 32.37 33.8823C31.9952 34.7305 31.4467 35.4956 30.7579 36.1311C30.0692 36.7666 29.2545 37.2592 28.3636 37.5789C27.4727 37.8986 26.5241 38.0388 25.5757 37.9908Z" fill="#CEE0EA"/>
<path d="M28.0082 40C27.743 40 27.4886 39.8845 27.3011 39.6789C27.1136 39.4734 27.0082 39.1945 27.0082 38.9038V12.2362C26.99 12.0817 27.0021 11.9248 27.0437 11.7758C27.0852 11.6268 27.1552 11.4893 27.2491 11.3723C27.3429 11.2553 27.4584 11.1616 27.5879 11.0974C27.7174 11.0332 27.8579 11 28 11C28.1421 11 28.2826 11.0332 28.4121 11.0974C28.5416 11.1616 28.6571 11.2553 28.7509 11.3723C28.8448 11.4893 28.9148 11.6268 28.9563 11.7758C28.9979 11.9248 29.01 12.0817 28.9918 12.2362V38.9038C28.9918 39.1915 28.8887 39.4676 28.7047 39.6727C28.5207 39.8777 28.2706 39.9953 28.0082 40Z" fill="#CEE0EA"/>
<path d="M23.0082 40C22.743 40 22.4886 39.8845 22.3011 39.6789C22.1136 39.4734 22.0082 39.1945 22.0082 38.9038V12.2362C21.99 12.0817 22.0021 11.9248 22.0437 11.7758C22.0852 11.6268 22.1552 11.4893 22.2491 11.3723C22.3429 11.2553 22.4584 11.1616 22.5879 11.0974C22.7174 11.0332 22.8579 11 23 11C23.1421 11 23.2826 11.0332 23.4121 11.0974C23.5416 11.1616 23.6571 11.2553 23.7509 11.3723C23.8448 11.4893 23.9148 11.6268 23.9563 11.7758C23.9979 11.9248 24.01 12.0817 23.9918 12.2362V38.9038C23.9918 39.1915 23.8887 39.4676 23.7047 39.6727C23.5207 39.8777 23.2706 39.9953 23.0082 40Z" fill="#CEE0EA"/>
</symbol><symbol id="garage" viewBox="0 0 52 52">
<path d="M42.4602 44.6162V41.4329H41.8562C40.371 41.4329 38.8869 41.4329 37.4018 41.4329C36.5196 41.4329 36.1078 41.0494 36.1382 40.1846C36.1643 39.4317 36.1643 38.6473 36.3751 37.9367C36.8868 36.2115 38.5088 35.0772 40.3015 35.0544C40.7165 35.0544 41.1326 35.0544 41.6182 35.0544C41.5632 34.9163 41.5012 34.781 41.4325 34.6492C40.9979 33.918 40.5329 33.2042 40.1287 32.4567C39.8951 32.0221 39.6181 31.869 39.1151 31.87C30.551 31.8874 21.9866 31.8925 13.4218 31.8853C12.6831 31.8853 11.8161 31.6864 11.2414 32.0026C10.6873 32.3079 10.4341 33.1607 10.0463 33.7746C9.79965 34.169 9.55629 34.5666 9.25535 35.0544C9.78988 35.0544 10.2331 35.0544 10.6732 35.0544C11.781 35.0609 12.8419 35.5029 13.6267 36.2849C14.4116 37.0668 14.8574 38.1261 14.8679 39.2339C14.8679 39.5599 14.8679 39.8858 14.8679 40.2117C14.8581 41.0461 14.4779 41.4286 13.6261 41.4329C12.1409 41.4405 10.6569 41.4329 9.17169 41.4329H8.55351V44.6162H9.20537C13.2067 44.6162 17.2081 44.6064 21.2095 44.6335C21.5495 44.6335 22.0004 44.79 22.1959 45.0344C22.3915 45.2789 22.4241 45.7472 22.3513 46.0785C22.2427 46.55 21.8179 46.7369 21.3431 46.7402C20.1121 46.7456 18.8801 46.7402 17.6492 46.7402H17.0104C17.0104 47.1237 17.0104 47.4453 17.0104 47.7658C16.9756 49.5671 15.6653 50.9262 13.8597 50.986C12.7732 51.0218 11.6868 51.0175 10.6004 50.986C8.76536 50.9349 7.45838 49.5736 7.44316 47.7343C7.44316 47.5354 7.48445 47.3236 7.43013 47.14C7.37581 46.9564 7.26064 46.7586 7.11506 46.6956C6.62399 46.4783 6.37193 46.135 6.37193 45.6092C6.37193 42.4042 6.36324 39.1992 6.38389 35.9953C6.38389 35.7106 6.52621 35.3999 6.67831 35.1468C7.38558 33.9691 8.11893 32.8066 8.89139 31.5615C8.53721 31.4854 8.23301 31.417 7.92772 31.3529C7.19871 31.2008 6.80216 30.6891 6.92493 30.0557C7.0477 29.4223 7.61265 29.1203 8.35143 29.2637C8.79137 29.3668 9.23631 29.4473 9.68449 29.5049C9.77867 29.5035 9.87118 29.4798 9.95446 29.4358C10.0377 29.3918 10.1094 29.3288 10.1636 29.2517C10.6645 28.25 11.1349 27.232 11.6053 26.2097C12.7667 23.7 14.7256 22.3398 17.4895 22.3181C22.8304 22.2753 28.1717 22.2753 33.5134 22.3181C36.2599 22.3387 38.197 23.7109 39.3693 26.176C39.8658 27.2212 40.3612 28.2663 40.836 29.3267C40.9675 29.6189 41.138 29.6809 41.4281 29.6146C42.0452 29.4755 42.6667 29.3517 43.2881 29.2333C43.9095 29.1148 44.4473 29.4505 44.5918 30.0133C44.7374 30.5967 44.3811 31.1563 43.7455 31.317C43.4837 31.3844 43.2131 31.4181 42.947 31.4735C42.7047 31.5235 42.4635 31.5821 42.1365 31.656C42.4233 32.1384 42.6341 32.6001 42.9404 32.988C44.3528 34.7806 44.8156 36.7905 44.6505 39.0601C44.4962 41.1852 44.6103 43.3309 44.6222 45.4701C44.6222 46.0839 44.4202 46.512 43.802 46.7163C43.6879 46.7543 43.5782 46.9672 43.5619 47.1095C43.513 47.5582 43.5684 48.0222 43.4804 48.46C43.186 49.9202 41.9518 50.9371 40.4188 50.9838C39.315 51.0175 38.209 51.024 37.1063 50.9838C35.306 50.9164 34.0088 49.5421 33.986 47.7375C33.986 47.4333 33.986 47.128 33.986 46.7695C33.7557 46.7575 33.5645 46.7402 33.3732 46.7402C32.251 46.7402 31.1276 46.7488 30.0053 46.7336C29.2752 46.7239 28.8352 46.2991 28.8439 45.6548C28.8526 45.0105 29.3002 44.6129 30.039 44.6129C33.9501 44.6129 37.8613 44.6129 41.7725 44.6129H42.4602V44.6162ZM38.6827 29.7221C38.1471 28.6042 37.7049 27.5319 37.1367 26.5334C36.3501 25.1558 35.0876 24.4399 33.5069 24.4323C28.167 24.4084 22.8282 24.4008 17.4884 24.4323C15.7305 24.4442 14.4279 25.3134 13.6467 26.9083C13.2654 27.6873 12.908 28.4782 12.5429 29.2648C12.4788 29.4027 12.4278 29.5483 12.3582 29.7189H38.6827V29.7221ZM9.58454 46.7662C9.58454 47.1899 9.55195 47.5517 9.59214 47.9059C9.65624 48.4676 10.0474 48.8359 10.6058 48.8468C11.6922 48.867 12.7787 48.867 13.8651 48.8468C14.1032 48.8489 14.3339 48.7641 14.5139 48.6083C14.6939 48.4525 14.8109 48.2364 14.8429 48.0004C14.8672 47.5898 14.8701 47.1782 14.8516 46.7673H9.58454V46.7662ZM36.135 46.7412C36.135 47.1248 36.1274 47.43 36.135 47.7332C36.1567 48.4361 36.5522 48.8424 37.2551 48.8511C38.2691 48.8641 39.2831 48.8641 40.2971 48.8511C40.9957 48.8424 41.3988 48.4394 41.4379 47.7408C41.4498 47.5235 41.4824 47.2942 41.4259 47.0889C41.3868 46.9509 41.2087 46.7521 41.0913 46.751C39.4638 46.7336 37.8374 46.7412 36.135 46.7412ZM12.7406 39.272C12.632 38.1681 12.0182 37.3555 11.1012 37.2523C10.2712 37.1588 9.42266 37.2327 8.56654 37.2327V39.272H12.7396H12.7406ZM42.4581 37.1795C41.7606 37.1795 41.1293 37.1795 40.5025 37.1795C40.3571 37.1807 40.2119 37.1912 40.0679 37.211C39.5715 37.273 39.1159 37.517 38.7891 37.8958C38.4624 38.2745 38.2878 38.761 38.2992 39.2611H42.4581V37.1795Z" fill="#CEE0EA"/>
<path d="M46.7452 19.1337H4.30446C4.2925 19.3999 4.27078 19.6454 4.27078 19.8942C4.27078 29.7265 4.27078 39.5584 4.27078 49.39C4.27923 49.6443 4.26432 49.8989 4.22623 50.1505C4.18125 50.3933 4.05099 50.612 3.85894 50.7672C3.6669 50.9224 3.42572 51.0038 3.17891 50.9968C2.92051 50.9913 2.67294 50.892 2.48227 50.7176C2.29161 50.5431 2.17083 50.3053 2.14244 50.0484C2.12776 49.8499 2.12414 49.6508 2.13157 49.4519C2.13157 39.6015 2.13157 29.7511 2.13157 19.9007C2.13157 19.6661 2.13157 19.4325 2.13157 19.1087C1.80564 19.1087 1.50361 19.1 1.20375 19.1087C0.654015 19.1283 0.250946 18.9229 0.0673377 18.383C-0.106493 17.8713 0.0521283 17.466 0.591003 17.0901C3.09923 15.3402 5.60927 13.5929 8.12112 11.848L24.5264 0.440416C25.3705 -0.146262 25.6313 -0.147348 26.47 0.440416C27.4663 1.13248 28.4636 1.82128 29.4566 2.5166C30.1085 2.97291 30.2682 3.60305 29.8793 4.13432C29.5088 4.63734 28.8515 4.69818 28.2387 4.27555C27.4196 3.7106 26.6091 3.1261 25.7812 2.5807C25.6966 2.53646 25.6027 2.51272 25.5072 2.5114C25.4118 2.51007 25.3173 2.53121 25.2315 2.5731C18.3891 7.31432 11.5532 12.065 4.72382 16.825C4.68583 16.8651 4.65232 16.9092 4.62387 16.9565H46.4301C46.2356 16.8076 46.0966 16.6936 45.9499 16.5914L35.7862 9.52958C35.6188 9.42177 35.4581 9.30385 35.305 9.17648C35.1118 9.00881 34.9849 8.77767 34.947 8.5247C34.9092 8.27174 34.9629 8.01357 35.0985 7.79671C35.2483 7.57863 35.4717 7.42189 35.7278 7.35524C35.9838 7.28858 36.2553 7.31649 36.4924 7.43384C36.6061 7.49267 36.7151 7.56023 36.8184 7.63591L50.3163 17.0206C50.4391 17.0974 50.5547 17.185 50.6618 17.2824C50.8194 17.4233 50.9292 17.6098 50.9762 17.8159C51.0231 18.0221 51.0047 18.2377 50.9236 18.433C50.8637 18.6253 50.7443 18.7937 50.5827 18.9139C50.4211 19.0342 50.2255 19.1001 50.024 19.1022C49.6666 19.1163 49.3081 19.1022 48.8757 19.1022C48.8757 19.3869 48.8757 19.615 48.8757 19.8432C48.8757 29.7298 48.8757 39.6164 48.8757 49.503C48.8757 50.4757 48.5295 50.9708 47.837 50.9882C47.1254 51.0066 46.7506 50.4938 46.7506 49.4943C46.7506 39.6258 46.7506 29.7577 46.7506 19.8899V19.1294L46.7452 19.1337Z" fill="#CEE0EA"/>
<path d="M25.5324 35.0555C27.7234 35.0555 29.9144 35.0555 32.1054 35.0555C33.9425 35.0555 34.9193 36.6232 34.112 38.2714C33.722 39.0666 33.3059 39.85 32.9311 40.6529C32.6779 41.1961 32.2868 41.4405 31.6936 41.4394C27.5651 41.4336 23.4367 41.4336 19.3082 41.4394C18.7422 41.4394 18.3478 41.2221 18.099 40.6974C17.6937 39.8489 17.245 39.021 16.842 38.1725C16.1162 36.6417 17.106 35.0653 18.7976 35.0577C21.0465 35.0446 23.2867 35.0555 25.5324 35.0555ZM32.2564 37.211H18.7487C19.0898 37.8922 19.3918 38.5234 19.7265 39.1351C19.7808 39.234 19.9926 39.2926 20.1328 39.2926C23.7166 39.3013 27.3019 39.3013 30.8886 39.2926C30.9713 39.2899 31.0524 39.269 31.1262 39.2315C31.2 39.1939 31.2646 39.1406 31.3155 39.0753C31.6349 38.4919 31.9174 37.8879 32.2564 37.2078V37.211Z" fill="#CEE0EA"/>
<path d="M33.5611 5.94651C33.5572 6.15478 33.4918 6.35725 33.373 6.52838C33.2542 6.69951 33.0875 6.83165 32.8937 6.90814C32.6999 6.98462 32.4879 7.00203 32.2842 6.95816C32.0806 6.9143 31.8945 6.81113 31.7494 6.66165C31.6043 6.51218 31.5067 6.3231 31.4689 6.11824C31.4311 5.91339 31.4548 5.70193 31.5371 5.51053C31.6193 5.31913 31.7563 5.15635 31.9309 5.04272C32.1055 4.92909 32.3098 4.86969 32.5181 4.87201C32.6579 4.87165 32.7963 4.89943 32.925 4.9537C33.0538 5.00797 33.1703 5.08761 33.2677 5.18789C33.365 5.28816 33.4411 5.40701 33.4916 5.53735C33.542 5.66768 33.5656 5.80683 33.5611 5.94651Z" fill="#CEE0EA"/>
<path d="M26.7069 45.6668C26.7062 45.8735 26.6446 46.0754 26.5296 46.2471C26.4146 46.4189 26.2515 46.5529 26.0607 46.6323C25.8699 46.7118 25.6599 46.7331 25.457 46.6936C25.2541 46.6541 25.0674 46.5556 24.9203 46.4104C24.7731 46.2653 24.6722 46.0799 24.63 45.8775C24.5878 45.6752 24.6063 45.4649 24.6832 45.2731C24.7601 45.0812 24.8919 44.9163 25.0621 44.7991C25.2323 44.6818 25.4334 44.6175 25.64 44.614C25.7798 44.6108 25.9188 44.6358 26.0488 44.6874C26.1788 44.7389 26.297 44.8161 26.3965 44.9144C26.4961 45.0126 26.5748 45.1298 26.6282 45.2591C26.6815 45.3883 26.7083 45.527 26.7069 45.6668Z" fill="#CEE0EA"/>
</symbol><symbol id="like" viewBox="0 0 31 32"><path d="M8.62,32H4.05a3,3,0,0,1-2.16-.91A3.13,3.13,0,0,1,1,28.9V18.05a3.13,3.13,0,0,1,.89-2.19A3,3,0,0,1,4.05,15H8.62m10.67-3.1V5.65A4.69,4.69,0,0,0,18,2.36,4.54,4.54,0,0,0,14.72,1L8.62,15V32H25.81a3,3,0,0,0,2-.74,3.11,3.11,0,0,0,1-1.9L31,15.41a3.27,3.27,0,0,0-.09-1.32,3,3,0,0,0-.63-1.17,3.16,3.16,0,0,0-1.05-.8,3,3,0,0,0-1.28-.27Z" transform="translate(-0.5 -0.5)"/></symbol><symbol id="mark" viewBox="0 0 21 24">
<path d="M19.8882 10C19.8882 17 10.8882 23 10.8882 23C10.8882 23 1.88818 17 1.88818 10C1.88818 7.61305 2.8364 5.32387 4.52422 3.63604C6.21205 1.94821 8.50124 1 10.8882 1C13.2751 1 15.5643 1.94821 17.2521 3.63604C18.94 5.32387 19.8882 7.61305 19.8882 10Z" stroke="#F3F7F9" stroke-width="2" stroke-linecap="round" stroke-linejoin="round"/>
<path d="M10.8882 13C12.545 13 13.8882 11.6569 13.8882 10C13.8882 8.34315 12.545 7 10.8882 7C9.23133 7 7.88818 8.34315 7.88818 10C7.88818 11.6569 9.23133 13 10.8882 13Z" stroke="#F3F7F9" stroke-width="2" stroke-linecap="round" stroke-linejoin="round"/>
</symbol><symbol id="medal" viewBox="0 0 23 35.57"><path d="M12,23.43a11,11,0,1,0-11-11A11,11,0,0,0,12,23.43Z" transform="translate(-0.5 -0.93)"/><path d="M6,21.68,4.14,36,12,31.29,19.86,36,18,21.67" transform="translate(-0.5 -0.93)"/></symbol><symbol id="new" viewBox="0 0 52 52">
<path d="M26.5486 11.05C26.5483 10.8778 26.4797 10.7127 26.3578 10.591C26.2359 10.4693 26.0708 10.401 25.8986 10.401C24.6108 10.4028 23.3284 10.5652 22.0808 10.8844C21.9963 10.9038 21.9166 10.9399 21.8463 10.9906C21.7759 11.0412 21.7165 11.1054 21.6713 11.1794C21.6262 11.2534 21.5963 11.3357 21.5834 11.4214C21.5705 11.5071 21.5749 11.5945 21.5963 11.6785C21.6177 11.7625 21.6557 11.8413 21.708 11.9104C21.7604 11.9795 21.826 12.0374 21.901 12.0808C21.9761 12.1242 22.059 12.1521 22.145 12.1629C22.231 12.1737 22.3183 12.1672 22.4018 12.1438C23.5444 11.8512 24.719 11.7021 25.8986 11.7C26.0709 11.7 26.2363 11.6315 26.3582 11.5096C26.4801 11.3877 26.5486 11.2224 26.5486 11.05Z" fill="#CEE0EA"/>
<path d="M19.7166 13.1259C19.8719 13.051 19.991 12.9175 20.0479 12.7548C20.1047 12.592 20.0946 12.4134 20.0197 12.2581C19.9449 12.1028 19.8113 11.9836 19.6486 11.9267C19.4858 11.8699 19.3072 11.88 19.1519 11.9549C16.0934 13.4278 13.5935 15.8505 12.0252 18.8611C11.9463 19.0144 11.9315 19.1928 11.9841 19.3569C12.0367 19.5211 12.1523 19.6577 12.3056 19.7366C12.4588 19.8155 12.6372 19.8303 12.8013 19.7778C12.9655 19.7252 13.1021 19.6096 13.181 19.4563C14.6194 16.6962 16.912 14.4756 19.7166 13.1259Z" fill="#CEE0EA"/>
<path d="M11.6704 21.3504C11.5044 21.3042 11.3268 21.3259 11.1767 21.4107C11.0266 21.4954 10.9164 21.6363 10.8701 21.8024C10.4903 23.1692 10.298 24.5813 10.2983 25.9999C10.2983 26.1723 10.3668 26.3377 10.4887 26.4596C10.6106 26.5815 10.7759 26.6499 10.9483 26.6499C11.1207 26.6499 11.2861 26.5815 11.408 26.4596C11.5299 26.3377 11.5983 26.1723 11.5983 25.9999C11.5981 24.6991 11.7744 23.4042 12.1224 22.1507C12.1686 21.9847 12.1469 21.8071 12.0621 21.657C11.9774 21.5069 11.8365 21.3966 11.6704 21.3504Z" fill="#CEE0EA"/>
<path d="M29.6219 39.7963C28.4085 40.1305 27.1561 40.3013 25.8976 40.3041C25.7252 40.3041 25.5598 40.3725 25.4379 40.4944C25.316 40.6163 25.2476 40.7817 25.2476 40.9541C25.2476 41.1264 25.316 41.2918 25.4379 41.4137C25.5598 41.5356 25.7252 41.6041 25.8976 41.6041C27.2701 41.6023 28.6363 41.4175 29.9601 41.0546C30.0427 41.0324 30.1201 40.9941 30.188 40.942C30.2558 40.8899 30.3127 40.8249 30.3554 40.7508C30.3982 40.6766 30.4259 40.5948 30.437 40.51C30.4481 40.4251 30.4423 40.339 30.4201 40.2563C30.3979 40.1737 30.3597 40.0963 30.3075 40.0284C30.2554 39.9606 30.1904 39.9037 30.1163 39.861C30.0422 39.8182 29.9603 39.7905 29.8755 39.7794C29.7907 39.7683 29.7045 39.774 29.6219 39.7963Z" fill="#CEE0EA"/>
<path d="M39.7333 31.7129C39.656 31.6768 39.5723 31.6563 39.487 31.6526C39.4017 31.6489 39.3166 31.662 39.2364 31.6913C39.1562 31.7205 39.0826 31.7653 39.0197 31.823C38.9568 31.8808 38.906 31.9504 38.8701 32.0278C37.5267 34.8736 35.2897 37.2022 32.5001 38.6588C32.3471 38.7396 32.2324 38.8779 32.1814 39.0432C32.1303 39.2085 32.1471 39.3873 32.2279 39.5403C32.3087 39.6933 32.4469 39.808 32.6123 39.859C32.7776 39.9101 32.9564 39.8933 33.1094 39.8125C36.149 38.222 38.5859 35.6821 40.0492 32.5793C40.0856 32.5017 40.1063 32.4177 40.1102 32.3321C40.114 32.2464 40.1008 32.1609 40.0715 32.0804C40.0421 31.9999 39.9971 31.926 39.9391 31.8629C39.8811 31.7998 39.8111 31.7489 39.7333 31.7129Z" fill="#CEE0EA"/>
<path d="M40.8483 25.35C40.6759 25.35 40.5106 25.4185 40.3887 25.5404C40.2668 25.6623 40.1983 25.8276 40.1983 26C40.1996 27.1041 40.0729 28.2046 39.8205 29.2794C39.8009 29.3626 39.798 29.4488 39.8117 29.5331C39.8255 29.6174 39.8557 29.6982 39.9007 29.7708C39.9457 29.8434 40.0046 29.9064 40.0739 29.9563C40.1433 30.0062 40.2218 30.0419 40.3049 30.0615C40.3881 30.081 40.4743 30.084 40.5586 30.0702C40.6429 30.0564 40.7237 30.0262 40.7963 29.9812C40.8689 29.9362 40.9319 29.8774 40.9818 29.808C41.0317 29.7387 41.0674 29.6602 41.087 29.577C41.3607 28.4044 41.4988 27.2041 41.4983 26C41.4983 25.8276 41.4298 25.6623 41.3079 25.5404C41.186 25.4185 41.0207 25.35 40.8483 25.35Z" fill="#CEE0EA"/>
<path d="M18.6081 22.4524V27.1608L15.7166 22.4524H14.1465V29.4815H15.6374V24.7619L18.5502 29.4815H20.0899V22.4524H18.6081Z" fill="#CEE0EA"/>
<path d="M23.5349 28.1876V26.46H26.9698V25.2454H23.5349V23.7158H27.2765V22.4524H22.0044V29.4815H27.3456V28.1876H23.5349Z" fill="#CEE0EA"/>
<path d="M36.1307 22.4524L34.9668 27.2888L33.7511 22.4524H32.3008L31.0658 27.2299L29.9415 22.4524H28.3906L30.2573 29.4815H31.8265L33.0107 24.6827L34.2152 29.4815H35.7559L37.6521 22.4524H36.1307Z" fill="#CEE0EA"/>
<path d="M52 26L48.0594 20.0891L48.5164 13L42.1484 9.85156L39 3.48359L31.9109 3.94062L26 0L20.0901 3.94062L13 3.48359L9.85156 9.85156L3.48461 13L3.94164 20.0891L0 26L3.94164 31.9099L3.48461 39L9.85156 42.1484L13 48.5164L20.0901 48.0594L26 52L31.9109 48.0594L39 48.5164L42.1484 42.1484L48.5154 39L48.0584 31.9099L52 26ZM41.1897 40.2066L40.5326 40.5316L40.2076 41.1887L37.699 46.2668L32.0511 45.9022L31.3198 45.8545L30.7105 46.2607L26 49.3959L21.2916 46.2566L20.6822 45.8504L19.9509 45.8981L14.303 46.2627L11.7945 41.1846L11.4705 40.5275L10.8134 40.2025L5.73523 37.6949L6.09883 32.046L6.14656 31.3158L5.74031 30.7064L2.60406 26L5.74438 21.2905L6.15063 20.6812L6.10289 19.9499L5.7393 14.302L10.8174 11.7934L11.4745 11.4695L11.7985 10.8123L14.3071 5.73422L19.955 6.09883L20.6862 6.14656L21.2956 5.74031L26 2.60406L30.7105 5.74336L31.3198 6.14961L32.0511 6.10188L37.699 5.73727L40.2076 10.8154L40.5316 11.4725L41.1887 11.7965L46.2668 14.3051L45.9032 19.953L45.8555 20.6842L46.2617 21.2936L49.398 26L46.2577 30.7105L45.8514 31.3198L45.8991 32.0501L46.2627 37.7L41.1897 40.2066Z" fill="#CEE0EA"/>
</symbol><symbol id="phone-2" viewBox="0 0 22 22">
<path d="M20.8881 15.9201V18.9201C20.8892 19.1986 20.8322 19.4743 20.7206 19.7294C20.6091 19.9846 20.4454 20.2137 20.2402 20.402C20.035 20.5902 19.7927 20.7336 19.5289 20.8228C19.265 20.912 18.9855 20.9452 18.7081 20.9201C15.631 20.5857 12.6751 19.5342 10.0781 17.8501C7.66194 16.3148 5.61345 14.2663 4.07812 11.8501C2.38809 9.2413 1.33636 6.27109 1.00812 3.1801C0.983127 2.90356 1.01599 2.62486 1.10462 2.36172C1.19324 2.09859 1.33569 1.85679 1.52288 1.65172C1.71008 1.44665 1.93792 1.28281 2.19191 1.17062C2.44589 1.05843 2.72046 1.00036 2.99812 1.0001H5.99812C6.48342 0.995321 6.95391 1.16718 7.32188 1.48363C7.68985 1.80008 7.93019 2.23954 7.99812 2.7201C8.12474 3.68016 8.35957 4.62282 8.69812 5.5301C8.83266 5.88802 8.86178 6.27701 8.78202 6.65098C8.70227 7.02494 8.51698 7.36821 8.24812 7.6401L6.97812 8.9101C8.40167 11.4136 10.4746 13.4865 12.9781 14.9101L14.2481 13.6401C14.52 13.3712 14.8633 13.1859 15.2372 13.1062C15.6112 13.0264 16.0002 13.0556 16.3581 13.1901C17.2654 13.5286 18.2081 13.7635 19.1681 13.8901C19.6539 13.9586 20.0975 14.2033 20.4146 14.5776C20.7318 14.9519 20.9003 15.4297 20.8881 15.9201Z" stroke="#F3F7F9" stroke-width="2" stroke-linecap="round" stroke-linejoin="round"/>
</symbol><symbol id="phone" viewBox="0 0 42 43">
<path d="M23.5697 40.6701C23.1629 41.2636 22.5564 41.6911 21.8606 41.8747C21.1649 42.0583 20.4264 41.9857 19.7797 41.6701C13.9826 38.7237 9.20055 34.1088 6.04974 28.4201C2.72092 22.8306 1.16904 16.3615 1.59974 9.87014C1.668 9.15582 1.99003 8.48963 2.50742 7.99243C3.02481 7.49522 3.70327 7.19994 4.41974 7.16014L7.74974 7.01014C8.16598 6.99401 8.5812 7.06194 8.9706 7.20986C9.36001 7.35779 9.71561 7.58268 10.0162 7.87109C10.3167 8.15951 10.5561 8.50555 10.7199 8.88853C10.8837 9.27151 10.9687 9.68358 10.9697 10.1001C10.9697 11.8601 10.9697 13.9001 11.0597 15.0301C11.2097 17.2901 7.57974 17.0301 7.72974 19.2701C7.87974 21.5101 9.37974 24.1801 10.3897 25.9401C11.3997 27.7001 12.9297 30.3601 14.8097 31.6401C16.6897 32.9201 18.2897 29.6401 20.1697 30.9401C21.1097 31.5801 22.8597 32.6301 24.3797 33.5201C24.7376 33.7328 25.0486 34.0158 25.294 34.352C25.5394 34.6882 25.7142 35.0707 25.8076 35.4763C25.9011 35.882 25.9114 36.3023 25.8378 36.7121C25.7643 37.1218 25.6084 37.5123 25.3797 37.8601L23.5697 40.6701Z"/>
<path d="M24.48 1C29.6837 3.11532 34.0599 6.86328 36.95 11.68C39.95 16.81 40.5 22 40.5 28"/>
<path d="M21.73 5.58984C25.9804 7.48203 29.5105 10.6896 31.8 14.7398C34.2405 18.6879 35.3515 23.3141 34.97 27.9398"/>
<path d="M18.9502 10.72C22.2155 12.1767 24.9132 14.6637 26.6302 17.8C28.5531 20.8146 29.4348 24.3764 29.1402 27.94"/>
</symbol><symbol id="shield" viewBox="0 0 29 36"><path d="M15,36s14-7,14-17.5V6.25L15,1,1,6.25V18.5C1,29,15,36,15,36Z" transform="translate(-0.5 -0.5)"/></symbol></svg>