<svg width="16" height="16" fill="none" xmlns="http://www.w3.org/2000/svg"><path d="M15.069.013c-.02.005-.082.016-.137.024-.272.043-.667.212-1.073.46-1.329.808-3.419 2.763-5.985 5.6A91.256 91.256 0 005.55 8.766l-.248.298-.067.08-.231-.124C2.2 7.531.814 7.172.242 7.792c-.118.127-.172.241-.216.45-.032.158-.032.188-.001.281.042.127.079.173.29.37a24.16 24.16 0 011.599 1.68c1.007 1.193 2.002 2.708 3.23 4.921.09.161.183.317.21.348a.46.46 0 00.226.14c.07.022.076.022.155 0a.403.403 0 00.224-.125c.062-.066.081-.104.176-.349a50 50 0 01.475-1.162c1.655-3.897 3.675-7.202 6.096-9.973A45.482 45.482 0 0115 1.983c.762-.747.914-.937.981-1.24.023-.103.023-.11.002-.191-.077-.298-.26-.45-.633-.528a.656.656 0 00-.281-.011z" fill="#fff"/></svg>