<svg xmlns="http://www.w3.org/2000/svg" xmlns:xlink="http://www.w3.org/1999/xlink"><symbol id="check" viewBox="0 0 16 16"><g fill="none">
<path d="M15.0687 0.0126562C15.0487 0.0177641 14.9875 0.0292559 14.9325 0.0369177C14.66 0.0803337 14.265 0.24889 13.8587 0.496615C12.53 1.30492 10.44 3.2599 7.87374 6.09725C7.06249 6.99494 6.14624 8.04586 5.54999 8.76605C5.45124 8.8848 5.33999 9.01888 5.30249 9.06357L5.23499 9.14402L5.00374 9.02016C2.19999 7.53125 0.813743 7.17243 0.242493 7.79175C0.123743 7.91944 0.0699925 8.03309 0.0262425 8.2425C-0.00625747 8.39957 -0.00625747 8.43021 0.0249925 8.52343C0.0674925 8.64985 0.103743 8.69582 0.314993 8.89374C0.783743 9.33173 1.50374 10.089 1.91374 10.5729C2.92124 11.7656 3.91624 13.2813 5.14374 15.4942C5.23374 15.6551 5.32749 15.8109 5.35374 15.8415C5.41124 15.9079 5.47874 15.9501 5.57999 15.982C5.64999 16.0037 5.65624 16.0037 5.73499 15.982C5.84499 15.9526 5.89624 15.9233 5.95874 15.8569C6.02124 15.7905 6.03999 15.7534 6.13499 15.5083C6.24499 15.2261 6.46749 14.6808 6.60999 14.3463C8.26499 10.449 10.285 7.14434 12.7062 4.37339C13.2675 3.73109 14.0625 2.90236 15 1.98297C15.7625 1.23596 15.9137 1.0457 15.9812 0.743064C16.0037 0.639632 16.0037 0.633247 15.9825 0.551524C15.9062 0.253998 15.7237 0.102042 15.35 0.0241499C15.2275 -0.000112534 15.1337 -0.00522041 15.0687 0.0126562Z" fill="white"/>
</g></symbol></svg>