<svg xmlns="http://www.w3.org/2000/svg" xmlns:xlink="http://www.w3.org/1999/xlink"><symbol id="arrow_1" viewBox="0 0 314 94">
<path d="M8.23784 2.1187C61.4581 79.6884 192.372 97.2849 263.313 45.5182" stroke="white" stroke-width="3"/>
<path d="M253.211 18.6914L292.624 25.3972L288.115 67.9071" stroke="white" stroke-width="3"/>
</symbol><symbol id="arrow_2" viewBox="0 0 215 98">
<path d="M1.00005 30.9044C57.4638 -2.27385 148.807 19.732 181.477 68.3288" stroke="#69A61B" stroke-width="3"/>
<path d="M167.437 81.8667L195.322 87.6493L204.012 61.0985" stroke="#69A61B" stroke-width="3"/>
</symbol><symbol id="banknote" viewBox="0 0 257 162">
<path fill-rule="evenodd" clip-rule="evenodd" d="M9.27942 1.66764C6.46042 2.57488 3.11042 5.51478 1.65292 8.3602L0.544922 10.5229V81.2538V151.985L1.63391 154.108C2.23241 155.277 3.62541 157.084 4.72891 158.125C8.75291 161.92 -1.0181 161.642 128.295 161.642C257.608 161.642 247.837 161.92 251.861 158.125C252.964 157.084 254.357 155.277 254.956 154.108L256.045 151.985V81.2538V10.5229L254.937 8.3602C253.432 5.42238 250.106 2.56861 247.101 1.63684C243.462 0.508797 12.7879 0.538554 9.27942 1.66764ZM211.543 23.1813C212.226 27.7494 213.503 31.7938 215.215 34.8219C218.95 41.4247 226.112 46.3717 233.556 47.4914L237.295 48.0536V81.2403V114.426L233.42 115.07C222.325 116.913 214.162 125.251 211.944 137.01L211.137 141.284H128.239H45.3404L45.0469 139.326C43.9079 131.718 41.2824 126.111 36.8974 121.922C33.2554 118.444 27.8429 115.74 23.0924 115.025L19.2949 114.454V81.2173V47.9805L22.3629 47.6183C33.6489 46.2851 42.3539 37.6434 44.6459 25.498L45.4524 21.2238H128.351H211.249L211.543 23.1813ZM123.488 34.7619C116.441 35.9322 110.122 39.2918 104.478 44.8694C97.8159 51.4534 93.9044 58.4341 91.4069 68.1981C90.3019 72.5156 90.1379 74.2178 90.1474 81.2538C90.1569 88.2549 90.3314 90.0271 91.4424 94.4114C95.5734 110.712 105.57 122.315 119.295 126.736C124.511 128.417 131.999 128.409 137.282 126.718C151.419 122.195 161.319 110.471 165.4 93.4201C167.036 86.584 166.925 75.149 165.154 68.1417C161.12 52.1753 150.816 40.1098 137.612 35.89C133.721 34.646 127.282 34.1319 123.488 34.7619ZM133.795 55.6758C134.758 56.6817 134.795 57.4157 134.795 75.7728V94.8258H138.766C143.858 94.8258 144.295 95.3416 144.295 101.351C144.295 108.318 145.378 107.876 128.295 107.876C111.211 107.876 112.295 108.318 112.295 101.351C112.295 95.3416 112.732 94.8258 117.823 94.8258H121.795V83.3418V71.8578H120.05C118.544 71.8578 118.066 71.517 116.57 69.3783C111.721 62.4462 111.871 61.9811 120.765 56.3534C123.327 54.7326 123.759 54.6318 128.14 54.6318C132.128 54.6318 132.938 54.7811 133.795 55.6758Z" fill="#69A61B"/>
</symbol><symbol id="broom" viewBox="0 0 235 234">
<path d="M216.169 0L234.215 17.9867L161.523 90.3133C175.121 109.82 177.027 133.253 165.59 148.453L85.2729 68.4C100.523 57 124.033 58.9 143.604 72.4533L216.169 0ZM45.4958 188.1C19.9521 162.64 4.32083 132.24 0 103.867L62.0167 77.3933L156.567 171.633L130.006 233.447C101.54 229.14 71.0396 213.56 45.4958 188.1Z" fill="white"/>
</symbol><symbol id="certificate" viewBox="0 0 223 176">
<path fill-rule="evenodd" clip-rule="evenodd" d="M105.987 1.85849C104.855 2.3951 103.339 3.64164 102.619 4.62822C101.898 5.6148 84.883 38.7028 64.8085 78.1566L28.309 149.891L18.6605 150.152C9.54799 150.398 8.87399 150.487 6.53299 151.747C1.71399 154.339 -0.799007 159.528 0.226993 164.768C0.985993 168.644 2.98599 171.475 6.31199 173.381L9.04499 174.947L109.795 175.106C181.185 175.219 211.274 175.1 213.045 174.696C216.478 173.915 219.885 171.197 221.346 168.075C224.54 161.251 221.38 153.544 214.323 150.945C212.707 150.35 209.958 150.152 203.316 150.152H194.462L157.781 78.035C137.607 38.3708 120.535 5.21651 119.843 4.35887C117.099 0.95334 110.433 -0.249349 105.987 1.85849ZM131.837 106.701L152.128 149.891L131.712 150.027C120.483 150.102 102.103 150.102 90.8675 150.027L70.4405 149.891L90.7355 106.695C101.898 82.9376 111.147 63.5025 111.288 63.5051C111.43 63.5082 120.676 82.946 131.837 106.701Z" fill="#69A61B"/>
</symbol><symbol id="cursor_click" viewBox="0 0 111 145">
<path d="M52.925 52.5021C51.7072 52.5021 50.5393 52.9858 49.6782 53.8469C48.8171 54.7081 48.3333 55.876 48.3333 57.0937V126.271C48.3333 128.808 50.3875 130.863 52.925 130.863C54.0729 130.863 55.0396 130.5 55.825 129.896L67.3646 120.531L77.3938 142.402C78.1792 144.033 79.8104 145 81.5625 145C82.2271 145 82.8917 145 83.5562 144.517L100.231 136.783C102.527 135.696 103.615 132.917 102.406 130.681L92.3167 108.75L106.877 106.031C107.844 105.729 108.75 105.306 109.475 104.46C111.106 102.527 110.865 99.6875 108.75 97.9354L55.9458 53.5292L55.8854 53.5896C55.1 52.925 54.0729 52.5021 52.925 52.5021ZM78.5417 60.4167V48.3333H108.75V60.4167H78.5417ZM71.4729 28.7583L88.5708 11.6604L97.0896 20.1792L79.9917 37.2771L71.4729 28.7583ZM48.3333 0H60.4167V30.2083H48.3333V0ZM11.6604 88.5708L28.7583 71.4729L37.2771 79.9917L20.1792 97.0896L11.6604 88.5708ZM11.6604 20.1792L20.1792 11.6604L37.2771 28.7583L28.7583 37.2771L11.6604 20.1792ZM30.2083 60.4167H0V48.3333H30.2083V60.4167Z" fill="white"/>
</symbol><symbol id="document" viewBox="0 0 240 292">
<path d="M78.2089 249.462L77.5111 250.188V251.195V275.187H26.6704C20.2924 275.187 14.1548 272.552 9.61376 267.829C5.06945 263.102 2.5 256.672 2.5 249.946V28.0214C2.5 13.9124 13.3408 2.78076 26.6704 2.78076H132.287L210.863 84.5094V111.485L186.828 136.484H26.6704H24.1704V138.984V166.724V169.224H26.6704H155.351L133.488 191.965H26.6704H24.1704V194.465V222.206V224.706H26.6704H102.01L78.2089 249.462ZM121.819 19.3536L117.517 14.8787V21.0862V97.3729V99.8729H120.017H193.36H199.232L195.162 95.6402L121.819 19.3536ZM211.831 156.806C212.782 155.817 213.976 155.354 215.363 155.354C216.593 155.354 217.795 155.8 218.762 156.806L236.098 174.837C237.94 176.753 238.001 180.228 236.079 182.348L224.302 194.478L199.899 169.217L211.831 156.806ZM109.181 289.057V263.713L188.565 181.009L212.958 206.259L133.354 289.057H109.181Z" fill="white" stroke="white" stroke-width="5"/>
</symbol><symbol id="dollar" viewBox="0 0 123 231">
<path fill-rule="evenodd" clip-rule="evenodd" d="M57.6682 1.25646C52.2552 2.68047 47.5562 6.77817 45.1112 12.2059C43.7242 15.2852 43.5642 16.1898 43.3787 21.9903L43.1747 28.3817L41.1096 28.9251C28.9346 32.1312 19.1941 37.834 11.5301 46.2419C8.02309 50.089 6.85061 51.8336 4.8236 56.2194C1.4691 63.4789 0.611609 67.9023 0.927609 76.318C1.22061 84.1313 2.02159 87.5598 5.03259 93.8989C12.2186 109.026 27.8677 118.918 57.0452 126.777C73.3597 131.171 82.1382 135.267 87.8972 141.173C94.7627 148.214 96.4991 157.588 92.5891 166.503C89.9101 172.613 82.9602 177.387 73.9022 179.34C67.3207 180.76 52.6317 180.482 46.7362 178.827C37.5252 176.241 31.8697 171.784 28.0792 164.122C23.8092 155.49 21.7006 153.932 14.2951 153.932C8.9081 153.932 6.5246 154.865 4.0321 157.951C0.4696 162.363 0.215096 166.739 3.1521 173.093C9.4786 186.778 22.8182 197.219 39.6222 201.638L43.0452 202.538L43.3192 208.77C43.6477 216.249 44.4957 219.161 47.5122 223.171C50.1342 226.657 55.1602 229.592 59.4722 230.154C62.5892 230.561 67.1392 229.718 69.9912 228.205C73.0262 226.595 76.6486 222.729 78.1406 219.506C79.3381 216.919 79.5327 215.762 79.7727 209.796L80.0452 203.023L84.3352 201.879C104.565 196.484 116.865 185.591 121.385 169.067C122.999 163.169 122.992 151.892 121.371 145.055C116.381 124.007 100.475 111.587 65.8286 101.685C54.1196 98.3375 49.3347 96.5898 43.0452 93.3628C36.4107 89.9583 33.0652 87.0242 30.7622 82.5887C29.1297 79.4458 29.0456 79.0256 29.0516 74.0629C29.0576 69.5367 29.2312 68.4613 30.3567 65.9719C32.9772 60.1777 37.8362 55.9855 45.0452 53.2993C50.4967 51.2682 55.2717 50.6737 63.8787 50.9556C72.7502 51.2463 77.1342 52.4125 81.9832 55.7726C86.2272 58.7135 88.5127 61.9155 90.7437 68.0443C93.0317 74.3307 96.1032 76.9094 101.811 77.3359C108.625 77.8448 113.412 75.4196 115.646 70.3264C117.447 66.2188 117.136 62.8326 114.415 56.911C111.857 51.3455 110.081 48.617 106.192 44.2771C100.459 37.8784 93.8982 33.538 85.3162 30.4655L80.0452 28.5785L79.7952 21.567C79.5697 15.2382 79.4092 14.2652 78.1482 11.5847C74.6107 4.06482 65.1432 -0.709915 57.6682 1.25646Z" fill="#69A61B"/>
</symbol><symbol id="flash" viewBox="0 0 162 294">
<path d="M97.0835 120.167H156.85L51.3335 285.119V161.667V159.167H48.8335H3.0835V2.83344H157.195L94.8914 116.465L92.8616 120.167H97.0835Z" fill="white" stroke="white" stroke-width="5"/>
</symbol><symbol id="flashlight" viewBox="0 0 169 280">
<path d="M125.311 109.667H44.2459L5.31523 45.0834H164.242L125.311 109.667ZM166.168 26.1668H3.38916V3.33344H166.168V26.1668ZM45.3338 276.667V128.583H124.223V276.667H45.3338ZM84.7784 151.417C80.411 151.417 76.2201 153.144 73.1283 156.221C70.0362 159.299 68.2969 163.476 68.2969 167.833C68.2969 172.191 70.0362 176.368 73.1283 179.446C76.2201 182.523 80.411 184.25 84.7784 184.25C89.1459 184.25 93.3367 182.523 96.4285 179.446C99.5207 176.368 101.26 172.191 101.26 167.833C101.26 163.476 99.5207 159.299 96.4285 156.221C93.3367 153.144 89.1459 151.417 84.7784 151.417Z" fill="white" stroke="white" stroke-width="5"/>
</symbol><symbol id="road" viewBox="0 0 241 270">
<path d="M104.581 2.97705L102.012 50.6994L101.871 53.3337H104.509H137.029H139.667L139.525 50.6994L136.957 2.97705H189.874C195.141 2.97705 199.746 6.82187 200.955 14.2981C200.955 14.3 200.956 14.302 200.956 14.304L237.535 249.261C238.119 253.653 236.929 258.068 234.717 261.356C232.482 264.678 229.443 266.546 226.459 266.546H150.251L146.301 184.997L146.186 182.618H143.804H97.7338H95.3519L95.2367 184.997L91.2869 266.546H13.7236C10.7395 266.546 7.70071 264.678 5.46598 261.356C3.25403 258.068 2.06366 253.653 2.64788 249.261L39.2199 14.3474C39.8155 11.4491 41.293 8.54089 43.3211 6.38744C45.3581 4.22447 47.7887 2.97705 50.3087 2.97705H104.581ZM96.5908 151.446L96.4858 154.047H99.0888H139.739H142.342L142.237 151.446L139.527 84.304L139.43 81.9048H137.029H101.799H99.3977L99.3008 84.304L96.5908 151.446Z" fill="white" stroke="white" stroke-width="5"/>
</symbol><symbol id="shield" viewBox="0 0 188 230">
<path d="M94 0L0 41.8182V104.545C0 162.568 40.1067 216.827 94 230C147.893 216.827 188 162.568 188 104.545V41.8182L94 0ZM94 41.8182C102.31 41.8182 110.28 45.1226 116.156 51.0044C122.032 56.8862 125.333 64.8637 125.333 73.1818C125.333 81.5 122.032 89.4774 116.156 95.3593C110.28 101.241 102.31 104.545 94 104.545C85.6899 104.545 77.7201 101.241 71.844 95.3593C65.9678 89.4774 62.6667 81.5 62.6667 73.1818C62.6667 64.8637 65.9678 56.8862 71.844 51.0044C77.7201 45.1226 85.6899 41.8182 94 41.8182ZM147.58 167.273C134.942 186.614 116.038 201.145 94 208.255C71.9622 201.145 53.0578 186.614 40.42 167.273C36.8689 162.045 33.84 156.818 31.3333 151.277C31.3333 134.027 59.6378 119.914 94 119.914C128.362 119.914 156.667 133.714 156.667 151.277C154.16 156.818 151.131 162.045 147.58 167.273Z" fill="white"/>
</symbol><symbol id="truck" viewBox="0 0 318 221">
<path d="M28.9091 0.577637H231.273V55.6625H274.636L318 110.747V179.603H289.091C289.091 190.56 284.522 201.069 276.39 208.817C268.258 216.564 257.228 220.917 245.727 220.917C234.227 220.917 223.197 216.564 215.065 208.817C206.932 201.069 202.364 190.56 202.364 179.603H115.636C115.636 190.56 111.068 201.069 102.935 208.817C94.8032 216.564 83.7735 220.917 72.2727 220.917C60.772 220.917 49.7423 216.564 41.61 208.817C33.4777 201.069 28.9091 190.56 28.9091 179.603H0V28.1201C0 12.834 13.0091 0.577637 28.9091 0.577637ZM231.273 76.3193V110.747H295.885L267.409 76.3193H231.273ZM72.2727 158.947C66.5223 158.947 61.0075 161.123 56.9414 164.997C52.8752 168.871 50.5909 174.125 50.5909 179.603C50.5909 185.082 52.8752 190.336 56.9414 194.21C61.0075 198.084 66.5223 200.26 72.2727 200.26C78.0231 200.26 83.538 198.084 87.6041 194.21C91.6702 190.336 93.9545 185.082 93.9545 179.603C93.9545 174.125 91.6702 168.871 87.6041 164.997C83.538 161.123 78.0231 158.947 72.2727 158.947ZM245.727 158.947C239.977 158.947 234.462 161.123 230.396 164.997C226.33 168.871 224.045 174.125 224.045 179.603C224.045 185.082 226.33 190.336 230.396 194.21C234.462 198.084 239.977 200.26 245.727 200.26C251.478 200.26 256.992 198.084 261.059 194.21C265.125 190.336 267.409 185.082 267.409 179.603C267.409 174.125 265.125 168.871 261.059 164.997C256.992 161.123 251.478 158.947 245.727 158.947ZM101.182 138.29L187.909 55.6625L167.528 36.1074L101.182 99.3172L70.9718 70.5354L50.5909 90.0905L101.182 138.29Z" fill="white"/>
</symbol><symbol id="wrench" viewBox="0 0 262 270">
<path d="M143.262 0.185547V0.454964V27.3967C200.698 34.671 241.387 88.4199 234.322 147.557C228.304 196.591 190.886 235.522 143.262 241.314V268.256C215.221 260.847 267.554 195.109 260.358 121.019C254.471 57.0327 205.147 6.51687 143.262 0.185547ZM117.096 0.589673C91.5833 3.14914 67.2483 13.2523 47.3617 30.2256L66.0708 50.1625C80.7242 38.0387 98.3866 30.2256 117.096 27.5315V0.589673ZM28.9142 49.2196C12.4292 69.6953 2.61667 94.6165 0 121.019H26.1667C28.6525 101.891 35.9792 83.7051 47.6233 68.483L28.9142 49.2196ZM0.130833 147.961C2.7475 174.364 12.8217 199.285 29.045 219.761L47.6233 200.498C36.11 185.276 28.6525 167.09 26.2975 147.961H0.130833ZM66.0708 220.3L47.3617 238.755C67.1175 255.728 91.4525 266.37 117.096 269.199V242.257C98.5175 239.833 80.855 232.154 66.0708 220.3ZM193.241 177.462L139.468 122.097C144.832 108.087 141.823 91.6529 130.572 80.2026C118.797 67.9441 101.134 65.5194 86.8733 72.2548L112.255 98.3883L94.5925 116.709L68.5566 90.4405C61.4916 105.124 64.7625 123.309 76.2758 135.568C87.5275 147.153 103.489 150.117 117.096 144.728L170.868 199.959C173.223 202.518 176.756 202.518 179.111 199.959L192.717 186.084C195.596 183.659 195.596 179.348 193.241 177.462Z" fill="white"/>
</symbol></svg>