<svg xmlns="http://www.w3.org/2000/svg" version="1.1" id="Слой_1" x="0" y="0" xml:space="preserve" width="198" height="43"><style type="text/css" id="style3750">.st0{fill:#eb5f0a}</style><g id="g3790" transform="matrix(.77394 0 0 .82656 -142.594 -106.56)"><path class="st0" d="M335.4 161.4h5.9v-23.2H324v2.8c0 10.1-1.3 13.9-5.3 15.3v5c1.5-.2 10.7-1.7 10.8-16.7v-1.5h6.1v18.3z" id="path3752" fill="#eb5f0a"/><path class="st0" id="polygon3754" fill="#eb5f0a" d="M302.4 161.4h5.9v-18.1H319v-5.1h-16.6z"/><path class="st0" d="M359.2 138h-5.8l-9.7 23.4h6.2l1.8-4.3h9.1l1.8 4.3h6.3zm-5.8 14.6l2.9-7.3 2.9 7.3z" id="path3756" fill="#eb5f0a"/><path class="st0" id="polygon3758" fill="#eb5f0a" d="M399.6 138.2h-5.9v23.2h5.6l10.3-13.5v13.5h5.8v-23.2h-5.6L399.6 152z"/><path class="st0" id="polygon3760" fill="#eb5f0a" d="M438.7 152.1v-4.5h-12.1v-3.9h13.2v-5.5h-19v23.2H440v-5h-13.4v-4.3z"/><path class="st0" d="M287.1 137.8c-4.1 0-7.7 2-10 5.1-2.6 3.5-6 13.1-13 13.1-4.4 0-6.8-3.3-6.5-6.7.3-3.5 3.3-6.1 6.7-5.8 1.9.1 3.5 1.1 4.6 2.6l3.5-4.8c-2-2-4.6-3.3-7.6-3.5-6.7-.5-12.4 4.5-12.9 11.2-.5 6.7 4.5 12.4 11.2 12.9h1.4c2.8 0 6-1.2 8.1-2.8 1.6-1.2 2.8-2.5 3.8-3.8 2 3.9 6.2 6.6 10.9 6.6 6.7 0 12.1-5.4 12.1-12.1-.2-6.6-5.6-12-12.3-12m1.8 18c-.6.2-1.2.3-1.9.3-2.6 0-4.8-1.6-5.8-3.8-.3-.8-.5-1.6-.5-2.4 0-.9.2-1.7.5-2.4 1-2.3 3.2-3.8 5.8-3.8.6 0 1.3.1 1.9.3 2.6.8 4.4 3.1 4.4 6 .1 2.7-1.8 5-4.4 5.8" id="path3762" fill="#eb5f0a"/><path class="st0" d="M386.1 154.2l-.5.5c-1.2 1.1-2.7 1.6-4.3 1.6-3.6 0-6.5-2.9-6.5-6.5s2.9-6.5 6.5-6.5c1.8 0 3.6.8 4.8 2.2l.2-.2 2.9-4c-2.2-2.2-5.2-3.4-8.2-3.4-6.6 0-11.9 5.4-11.9 11.9 0 6.6 5.4 11.9 11.9 11.9 3.3 0 6.5-1.4 8.8-4z" id="path3764" fill="#eb5f0a"/><path class="st0" d="M339.3 178.3c-1.8 0-3.1-1.5-3.1-3.3 0-1.8 1.3-3.3 3-3.3 1.1 0 1.9.5 2.6 1.2l.8-.9c-.8-.8-1.8-1.5-3.4-1.5-2.5 0-4.3 2-4.3 4.4 0 2.4 1.9 4.4 4.3 4.4 1.6 0 2.6-.7 3.5-1.6l-.8-.8c-.7.8-1.5 1.4-2.6 1.4" id="path3766" fill="#eb5f0a"/><path class="st0" id="polygon3768" fill="#eb5f0a" d="M351.1 170.7h-7.3v1.2h3v7.3h1.3v-7.3h3z"/><path class="st0" d="M357.5 170.6c-1.6 0-2.6.9-3.2 1.9v-1.7H353v11.1h1.3v-4.2c.7.9 1.7 1.8 3.2 1.8 2 0 4-1.6 4-4.4 0-2.9-2-4.5-4-4.5m-.3 7.6c-1.6 0-3.1-1.3-3.1-3.3 0-2 1.5-3.3 3.1-3.3s3 1.3 3 3.3c0 2.1-1.3 3.3-3 3.3" id="path3770" fill="#eb5f0a"/><path class="st0" d="M367.3 170.6c-1.2 0-2.1.3-3.1.7l.4 1c.8-.4 1.6-.6 2.6-.6 1.6 0 2.5.8 2.5 2.3v.3c-.8-.2-1.5-.4-2.6-.4-2.1 0-3.6.9-3.6 2.8 0 1.8 1.6 2.7 3.2 2.7 1.5 0 2.5-.7 3-1.4v1.3h1.2V174c0-1.1-.3-1.9-.9-2.5-.6-.6-1.5-.9-2.7-.9m2.4 5.5c0 1.3-1.3 2.3-2.8 2.3-1.1 0-2.1-.6-2.1-1.7 0-1 .9-1.7 2.5-1.7 1 0 1.8.2 2.5.4v.7z" id="path3772" fill="#eb5f0a"/><path class="st0" id="polygon3774" fill="#eb5f0a" d="M376.9 174l-2.5-3.3H373l3.2 4.2-3.4 4.3h1.5l2.6-3.5 2.6 3.5h1.5l-3.4-4.3 3.2-4.2h-1.4z"/><path class="st0" d="M386.3 170.6c-2.6 0-4.4 2-4.4 4.4 0 2.4 1.8 4.4 4.4 4.4 2.6 0 4.4-2 4.4-4.4 0-2.4-1.9-4.4-4.4-4.4m0 7.7c-1.8 0-3.1-1.5-3.1-3.3 0-1.8 1.3-3.3 3.1-3.3s3.1 1.5 3.1 3.3c0 1.8-1.3 3.3-3.1 3.3" id="path3776" fill="#eb5f0a"/><path class="st0" d="M398.4 174.8c.7-.3 1.4-.8 1.4-1.9 0-1.3-1.1-2.1-2.8-2.1h-4.1v8.5h4.2c1.9 0 3.1-.9 3.1-2.3 0-1.3-.8-1.9-1.8-2.2m-4.2-3h2.6c1.1 0 1.7.5 1.7 1.2 0 .9-.7 1.4-1.7 1.4h-2.6zm2.8 6.3h-2.8v-2.7h2.7c1.4 0 2.1.5 2.1 1.3-.1.9-.8 1.4-2 1.4" id="path3778" fill="#eb5f0a"/><path class="st0" d="M405.7 170.6c-1.2 0-2.1.3-3.1.7l.4 1c.8-.4 1.6-.6 2.6-.6 1.6 0 2.5.8 2.5 2.3v.3c-.8-.2-1.5-.4-2.6-.4-2.1 0-3.6.9-3.6 2.8 0 1.8 1.6 2.7 3.2 2.7 1.5 0 2.5-.7 3-1.4v1.3h1.2V174c0-1.1-.3-1.9-.9-2.5-.6-.6-1.5-.9-2.7-.9m2.4 5.5c0 1.3-1.3 2.3-2.8 2.3-1.1 0-2.1-.6-2.1-1.7 0-1 .9-1.7 2.5-1.7 1 0 1.8.2 2.5.4v.7z" id="path3780" fill="#eb5f0a"/><path class="st0" id="polygon3782" fill="#eb5f0a" d="M413.2 170.7H412v8.5h1.2v-3.7h4.9v3.7h1.3v-8.5h-1.3v3.7h-4.9z"/><path class="st0" id="polygon3784" fill="#eb5f0a" d="M423.4 179.2l5-6.7v6.7h1.3v-8.5h-1.2l-5.1 6.7v-6.7h-1.2v8.5z"/><path class="st0" d="M436 170.6c-2.3 0-4.1 2-4.1 4.4 0 2.6 1.9 4.4 4.2 4.4 1.6 0 2.6-.6 3.5-1.6l-.8-.7c-.7.7-1.5 1.2-2.7 1.2-1.5 0-2.8-1-3-2.8h6.7v-.4c.2-2.5-1.3-4.5-3.8-4.5m-2.7 3.9c.2-1.6 1.3-2.8 2.7-2.8 1.7 0 2.6 1.3 2.7 2.8z" id="path3786" fill="#eb5f0a"/><path class="st0" d="M225.4 129c-3.6 0-7.2.9-10.3 2.7-3.1-1.8-6.7-2.8-10.3-2.8-11.4 0-20.7 9.3-20.7 20.7 0 11.4 9.3 20.7 20.7 20.7 3.6 0 7.2-1 10.3-2.8 3.1 1.8 6.7 2.7 10.3 2.7 11.4 0 20.7-9.3 20.7-20.7 0-11.3-9.3-20.5-20.7-20.5m-27.1 20.6c-.3.9-.4 1.8-.4 2.7 0 4.9 4 8.9 8.9 8.9 3.2 0 6.1-1.7 7.7-4.4l.1-.1.3-.6 5.4-10.5.1-.2c.6-1.1 1.7-1.8 3-1.8 1.8 0 3.3 1.5 3.3 3.3v.2c0 1.4-.7 4.4-5.2 8.9-5.7 5.8-11 7.6-11 7.7-1.8.8-3.8 1.1-5.8 1.1-8.4 0-15.2-6.8-15.2-15.2 0-8.4 6.8-15.2 15.2-15.2 1.6 0 3.1.2 4.6.7-5.7 4.6-9.4 9.5-11 14.5m33.5.1c.3-.9.4-1.8.4-2.8 0-4.9-4-8.9-8.9-8.9-3.1 0-6.1 1.7-7.7 4.4l-.1.3c-.1.1-.2.3-.2.4l-5.6 10.9c-.6 1.1-1.7 1.7-2.9 1.7-1.8 0-3.3-1.5-3.3-3.3v-.1c0-1.4.8-4.4 5.2-9 5.7-5.8 10.9-7.5 11-7.5 1.9-.8 3.8-1.2 5.9-1.2 8.4 0 15.2 6.8 15.2 15.2 0 8.4-6.8 15.2-15.2 15.2-1.6 0-3.2-.2-4.7-.7 5.7-4.7 9.4-9.5 10.9-14.6" id="path3788" fill="#eb5f0a"/></g><path id="rect3792" fill="none" d="M167.4-151h289.3v72.5H167.4z"/></svg>