<svg xmlns="http://www.w3.org/2000/svg" xmlns:xlink="http://www.w3.org/1999/xlink"><defs>
<clipPath id="clip0_1487:450">
<rect width="25" height="25" fill="white"/>
</clipPath>

<clipPath id="clip0_1487:440">
<rect width="25" height="25" fill="white"/>
</clipPath>

<clipPath id="clip0_1487:421">
<rect width="25" height="25" fill="white"/>
</clipPath>

<clipPath id="clip0_1481:25">
<rect width="25" height="25" fill="white" transform="translate(0.5 0.5)"/>
</clipPath>
</defs><symbol id="add" viewBox="0 0 25 25">
<g clip-path="url(#clip0_1487:450)">
<path d="M19.1961 13.3928C15.9909 13.3928 13.3926 15.9912 13.3926 19.1964C13.3926 22.4016 15.9909 25 19.1961 25C22.4014 25 24.9997 22.4016 24.9997 19.1964C24.996 15.9927 22.3998 13.3965 19.1961 13.3928ZM23.6604 19.6428H19.6426V23.2143H18.7497V19.6428H14.7319V18.75H18.7497V14.7321H19.6426V18.75H23.6604V19.6428Z"/>
<path d="M14.7326 0H24.554C24.8005 0 25.0004 0.19989 25.0004 0.446429V10.2679C25.0004 10.5144 24.8005 10.7143 24.554 10.7143H14.7326C14.486 10.7143 14.2861 10.5144 14.2861 10.2679V0.446429C14.2861 0.19989 14.486 0 14.7326 0Z"/>
<path d="M0.446429 0H10.2679C10.5144 0 10.7143 0.19989 10.7143 0.446429V10.2679C10.7143 10.5144 10.5144 10.7143 10.2679 10.7143H0.446429C0.19989 10.7143 0 10.5144 0 10.2679V0.446429C0 0.19989 0.19989 0 0.446429 0Z"/>
<path d="M0.446429 14.2858H10.2679C10.5144 14.2858 10.7143 14.4857 10.7143 14.7322V24.5536C10.7143 24.8002 10.5144 25.0001 10.2679 25.0001H0.446429C0.19989 25.0001 0 24.8002 0 24.5536V14.7322C0 14.4857 0.19989 14.2858 0.446429 14.2858Z"/>
</g>

</symbol><symbol id="aqua" viewBox="0 0 25 25">
<path d="M25 4.16667V3.125C25 2.2962 24.6708 1.50134 24.0847 0.915291C23.4987 0.32924 22.7038 0 21.875 0C21.0462 0 20.2513 0.32924 19.6653 0.915291C19.0792 1.50134 18.75 2.2962 18.75 3.125V6.25H13.5417V3.125C13.5417 2.84873 13.6514 2.58378 13.8468 2.38843C14.0421 2.19308 14.3071 2.08333 14.5833 2.08333C14.8596 2.08333 15.1246 2.19308 15.3199 2.38843C15.5153 2.58378 15.625 2.84873 15.625 3.125V4.16667H17.7083V3.125C17.7083 2.2962 17.3791 1.50134 16.793 0.915291C16.207 0.32924 15.4121 6.58545e-08 14.5833 6.58545e-08C13.7545 6.58545e-08 12.9597 0.32924 12.3736 0.915291C11.7876 1.50134 11.4583 2.2962 11.4583 3.125V14.7396C10.9806 14.6285 10.4912 14.5761 10.0008 14.5833C7.50078 14.5833 7.50078 15.625 5.00078 15.625C2.50078 15.625 2.5 14.5833 0 14.5833V18.75C2.5 18.75 2.5 19.7917 5 19.7917C7.5 19.7917 7.5 18.75 10 18.75C12.5 18.75 12.5 19.7917 15 19.7917C17.5 19.7917 17.5 18.75 20 18.75C22.5 18.75 22.5 19.7917 25 19.7917V15.625C22.8139 15.625 22.5391 14.8285 20.8333 14.6285V3.125C20.8333 2.84873 20.9431 2.58378 21.1384 2.38843C21.3338 2.19308 21.5987 2.08333 21.875 2.08333C22.1513 2.08333 22.4162 2.19308 22.6116 2.38843C22.8069 2.58378 22.9167 2.84873 22.9167 3.125V4.16667H25ZM18.75 8.33333V10.4167H13.5417V8.33333H18.75ZM13.5417 15.4688V12.5H18.75V14.6944C17.3992 14.9625 16.9948 15.625 15 15.625C14.5093 15.6323 14.0196 15.5799 13.5417 15.4688Z"/>
<path d="M15 20.8333C12.5 20.8333 12.5 19.7916 10 19.7916C7.5 19.7916 7.5 20.8333 5 20.8333C2.5 20.8333 2.5 19.7916 0 19.7916V25H25V20.8333C22.5 20.8333 22.5 19.7916 20 19.7916C17.5 19.7916 17.5 20.8333 15 20.8333Z"/>
</symbol><symbol id="camera" viewBox="0 0 20 18">
<path d="M10 13C11.6569 13 13 11.6569 13 10C13 8.34315 11.6569 7 10 7C8.34315 7 7 8.34315 7 10C7 11.6569 8.34315 13 10 13Z"/>
<path d="M18 2H14.83L13.59 0.65C13.4036 0.445393 13.1767 0.281907 12.9235 0.169986C12.6704 0.0580653 12.3968 0.00017027 12.12 0H7.88C7.32 0 6.78 0.24 6.4 0.65L5.17 2H2C0.9 2 0 2.9 0 4V16C0 17.1 0.9 18 2 18H18C19.1 18 20 17.1 20 16V4C20 2.9 19.1 2 18 2ZM10 15C7.24 15 5 12.76 5 10C5 7.24 7.24 5 10 5C12.76 5 15 7.24 15 10C15 12.76 12.76 15 10 15Z"/>
</symbol><symbol id="check" viewBox="0 0 9.48 8.12"><polygon points="3.77 8.12 0 4.35 1.41 2.93 3.64 5.16 7.94 0 9.48 1.28 3.77 8.12"/></symbol><symbol id="clock" viewBox="0 0 20 20">
<path d="M9.99 0C4.47 0 0 4.48 0 10C0 15.52 4.47 20 9.99 20C15.52 20 20 15.52 20 10C20 4.48 15.52 0 9.99 0ZM14 14C13.9075 14.0927 13.7976 14.1663 13.6766 14.2164C13.5557 14.2666 13.426 14.2924 13.295 14.2924C13.164 14.2924 13.0343 14.2666 12.9134 14.2164C12.7924 14.1663 12.6825 14.0927 12.59 14L9.3 10.71C9.20551 10.6174 9.13034 10.5069 9.07885 10.3851C9.02735 10.2632 9.00055 10.1323 9 10V6C9 5.45 9.45 5 10 5C10.55 5 11 5.45 11 6V9.59L14 12.59C14.39 12.98 14.39 13.61 14 14Z"/>
</symbol><symbol id="eat" viewBox="0 0 25 25">
<g clip-path="url(#clip0_1487:440)">
<path d="M12.5002 1.95764C6.67754 1.95764 1.95801 6.67717 1.95801 12.4999C1.95801 16.6953 4.41506 20.3071 7.96273 22.0039L8.2927 15.6279C8.2927 15.6279 7.67204 15.4243 7.53618 15.3579C6.21973 14.778 5.26338 13.0706 5.26338 10.8546C5.26338 8.43653 7.1387 6.35371 8.95178 6.3365C8.95408 6.3365 8.95408 6.3365 8.95559 6.3365C8.95638 6.3365 8.95789 6.3365 8.95861 6.3365C10.7721 6.35364 12.6475 8.43647 12.6475 10.8546C12.6475 13.0706 11.6899 14.7773 10.3762 15.3579C10.3659 15.3625 9.61362 15.6356 9.61362 15.6356L9.98213 22.7249C10.7908 22.9239 11.6316 23.0407 12.5017 23.0407C13.6751 23.0407 14.7989 22.8408 15.8533 22.4876L16.1798 16.1697C15.3193 15.9804 14.5853 15.4326 14.1253 14.7453C13.5553 13.8916 14.564 6.33578 14.564 6.33578H15.2201V13.4261H15.8717V6.33657H16.5843V13.4277H17.2328V6.33657H17.9721V13.4277H18.6228V6.33657H19.1264C19.1264 6.33657 20.135 13.8924 19.5643 14.7461C19.1088 15.4266 18.3817 15.9729 17.5319 16.1667C17.5166 16.172 17.5029 16.1773 17.5029 16.1773L17.7867 21.6118C20.927 19.786 23.0433 16.3941 23.0433 12.5C23.0418 6.67724 18.3222 1.95764 12.5002 1.95764Z"/>
<path d="M6.80672 9.78277C6.84448 9.62905 6.89524 9.48294 6.89754 9.48031C6.91395 9.42273 6.88342 9.36396 6.82084 9.32659C6.76135 9.29455 6.68886 9.31096 6.6553 9.36245C6.6553 9.36245 6.5832 9.47729 6.47866 9.64704C6.39363 9.79314 6.26775 10.0266 6.18186 10.3173C6.10746 10.5721 6.01861 10.9108 5.97856 11.29C5.96142 11.4891 5.95755 11.6688 5.96365 11.8538C5.97856 12.0647 6.01054 12.2451 6.07161 12.4515C6.27871 13.0401 6.43821 13.6101 7.01383 14.1723C7.19579 14.3593 7.38274 14.4867 7.51774 14.5805L7.56542 14.6141C7.59444 14.6332 7.62228 14.6508 7.64973 14.6668C7.76307 14.7263 7.83891 14.7476 7.8527 14.7506C7.90911 14.7659 7.96715 14.7384 7.99112 14.6927C8.01364 14.6446 7.99723 14.5843 7.95034 14.5462C7.95034 14.5462 7.88468 14.489 7.80043 14.3822C7.74284 14.3173 7.68026 14.2235 7.60744 14.1175C7.55596 14.0427 7.49529 13.958 7.43881 13.8756C7.15842 13.4476 6.99676 12.8502 6.77317 12.2383C6.7293 12.1055 6.69345 11.9335 6.68006 11.7874C6.6622 11.6188 6.65379 11.4563 6.65379 11.3056C6.64729 10.9554 6.66292 10.6548 6.69345 10.411C6.72852 10.136 6.75596 9.92966 6.80672 9.78277Z"/>
<path d="M12.5008 0C5.60877 0 0 5.60758 0 12.5C0 19.3908 5.60877 25 12.5008 25C19.3924 25 25.0001 19.3908 25.0001 12.5C25 5.60758 19.3924 0 12.5008 0ZM12.5008 24.0677C6.12181 24.0677 0.931916 18.8782 0.931916 12.5C0.931916 6.12102 6.12181 0.931128 12.5008 0.931128C18.879 0.931128 24.0693 6.12102 24.0693 12.5C24.0692 18.8782 18.8789 24.0677 12.5008 24.0677Z"/>
</g>

</symbol><symbol id="facebook" viewBox="0 0 19 19">
<path d="M17.5996 0.600006H1.59961C1.33439 0.600006 1.08004 0.705363 0.892503 0.892899C0.704966 1.08044 0.599609 1.33479 0.599609 1.60001V17.6C0.599609 17.8652 0.704966 18.1196 0.892503 18.3071C1.08004 18.4946 1.33439 18.6 1.59961 18.6H10.2146V11.64H7.87661V8.915H10.2146V6.915C10.2146 4.59001 11.6346 3.32301 13.7146 3.32301C14.4136 3.32101 15.1136 3.35701 15.8096 3.43001V5.85001H14.3746C13.2466 5.85001 13.0266 6.38801 13.0266 7.175V8.91001H15.7236L15.3736 11.635H13.0256V18.6H17.5996C17.8648 18.6 18.1192 18.4946 18.3067 18.3071C18.4943 18.1196 18.5996 17.8652 18.5996 17.6V1.60001C18.5996 1.33479 18.4943 1.08044 18.3067 0.892899C18.1192 0.705363 17.8648 0.600006 17.5996 0.600006Z"/>
</symbol><symbol id="instagram" viewBox="0 0 20 20">
<path d="M10 0C12.717 0 13.056 0.00999994 14.122 0.0599999C15.187 0.11 15.912 0.277 16.55 0.525C17.21 0.779 17.766 1.123 18.322 1.678C18.8305 2.1779 19.224 2.78259 19.475 3.45C19.722 4.087 19.89 4.813 19.94 5.878C19.987 6.944 20 7.283 20 10C20 12.717 19.99 13.056 19.94 14.122C19.89 15.187 19.722 15.912 19.475 16.55C19.2247 17.2178 18.8311 17.8226 18.322 18.322C17.822 18.8303 17.2173 19.2238 16.55 19.475C15.913 19.722 15.187 19.89 14.122 19.94C13.056 19.987 12.717 20 10 20C7.283 20 6.944 19.99 5.878 19.94C4.813 19.89 4.088 19.722 3.45 19.475C2.78233 19.2245 2.17753 18.8309 1.678 18.322C1.16941 17.8222 0.775931 17.2175 0.525 16.55C0.277 15.913 0.11 15.187 0.06 14.122C0.0129999 13.056 0 12.717 0 10C0 7.283 0.00999994 6.944 0.06 5.878C0.11 4.812 0.277 4.088 0.525 3.45C0.775236 2.78218 1.1688 2.17732 1.678 1.678C2.17767 1.16923 2.78243 0.775729 3.45 0.525C4.088 0.277 4.812 0.11 5.878 0.0599999C6.944 0.0129999 7.283 0 10 0ZM10 5C8.67392 5 7.40215 5.52678 6.46447 6.46447C5.52678 7.40215 5 8.67392 5 10C5 11.3261 5.52678 12.5979 6.46447 13.5355C7.40215 14.4732 8.67392 15 10 15C11.3261 15 12.5979 14.4732 13.5355 13.5355C14.4732 12.5979 15 11.3261 15 10C15 8.67392 14.4732 7.40215 13.5355 6.46447C12.5979 5.52678 11.3261 5 10 5ZM16.5 4.75C16.5 4.41848 16.3683 4.10054 16.1339 3.86612C15.8995 3.6317 15.5815 3.5 15.25 3.5C14.9185 3.5 14.6005 3.6317 14.3661 3.86612C14.1317 4.10054 14 4.41848 14 4.75C14 5.08152 14.1317 5.39946 14.3661 5.63388C14.6005 5.8683 14.9185 6 15.25 6C15.5815 6 15.8995 5.8683 16.1339 5.63388C16.3683 5.39946 16.5 5.08152 16.5 4.75ZM10 7C10.7957 7 11.5587 7.31607 12.1213 7.87868C12.6839 8.44129 13 9.20435 13 10C13 10.7956 12.6839 11.5587 12.1213 12.1213C11.5587 12.6839 10.7957 13 10 13C9.20435 13 8.44129 12.6839 7.87868 12.1213C7.31607 11.5587 7 10.7956 7 10C7 9.20435 7.31607 8.44129 7.87868 7.87868C8.44129 7.31607 9.20435 7 10 7Z"/>
</symbol><symbol id="mark-pin" viewBox="0 0 16 24">
<path d="M8 0.013504C3.857 0.013504 0.5 3.357 0.5 7.4985C0.5 14.6595 8 23.9985 8 23.9985C8 23.9985 15.5 14.658 15.5 7.4985C15.5 3.3585 12.143 0.013504 8 0.013504ZM8 11.64C6.92587 11.64 5.89574 11.2133 5.13622 10.4538C4.3767 9.69427 3.95 8.66413 3.95 7.59C3.95 6.51588 4.3767 5.48574 5.13622 4.72622C5.89574 3.9667 6.92587 3.54 8 3.54C9.07413 3.54 10.1043 3.9667 10.8638 4.72622C11.6233 5.48574 12.05 6.51588 12.05 7.59C12.05 8.66413 11.6233 9.69427 10.8638 10.4538C10.1043 11.2133 9.07413 11.64 8 11.64Z"/>
</symbol><symbol id="musical-note" viewBox="0 0 25 25">
<g clip-path="url(#clip0_1487:421)">
<path d="M24.6661 0.195133C24.4571 0.0254905 24.1821 -0.033438 23.9143 0.0201334L7.84286 3.59156C7.43393 3.68263 7.14286 4.04513 7.14286 4.46299V18.588C6.39464 18.1344 5.47321 17.8558 4.46429 17.8558C2.00357 17.8558 0 19.4576 0 21.4273C0 23.3969 2.00357 24.9987 4.46429 24.9987C6.925 24.9987 8.92857 23.3969 8.92857 21.4273V10.5362L23.2143 7.3612V15.0166C22.4661 14.563 21.5446 14.2844 20.5357 14.2844C18.0732 14.2844 16.0714 15.8862 16.0714 17.8558C16.0714 19.8255 18.0732 21.4273 20.5357 21.4273C22.9982 21.4273 25 19.8255 25 17.8558V0.891562C25 0.620133 24.8786 0.364776 24.6661 0.195133Z"/>
</g>

</symbol><symbol id="person" viewBox="0 0 14 14">
<path d="M1.16667 14C1.16667 14 0 14 0 12.8333C0 11.6667 1.16667 8.16667 7 8.16667C12.8333 8.16667 14 11.6667 14 12.8333C14 14 12.8333 14 12.8333 14H1.16667ZM7 7C7.92826 7 8.8185 6.63125 9.47487 5.97487C10.1313 5.3185 10.5 4.42826 10.5 3.5C10.5 2.57174 10.1313 1.6815 9.47487 1.02513C8.8185 0.368749 7.92826 0 7 0C6.07174 0 5.1815 0.368749 4.52513 1.02513C3.86875 1.6815 3.5 2.57174 3.5 3.5C3.5 4.42826 3.86875 5.3185 4.52513 5.97487C5.1815 6.63125 6.07174 7 7 7Z"/>
</symbol><symbol id="phone" viewBox="0 0 18 18">
<path d="M7.61012 10.32C8.65386 11.3788 9.91676 12.1963 11.3101 12.715L13.1951 11.215C13.251 11.1765 13.3173 11.1559 13.3851 11.1559C13.453 11.1559 13.5192 11.1765 13.5751 11.215L17.0751 13.47C17.208 13.5499 17.3205 13.6596 17.4037 13.7904C17.4869 13.9212 17.5385 14.0696 17.5545 14.2238C17.5705 14.378 17.5504 14.5339 17.4959 14.679C17.4413 14.8241 17.3538 14.9545 17.2401 15.06L15.6001 16.68C15.3653 16.9121 15.0766 17.0824 14.7599 17.1757C14.4432 17.2691 14.1083 17.2826 13.7851 17.215C10.5612 16.5492 7.58969 14.9898 5.21012 12.715C2.88336 10.4176 1.27326 7.49443 0.575119 4.30001C0.506152 3.98183 0.520547 3.65123 0.616907 3.34024C0.713268 3.02926 0.888327 2.74845 1.12512 2.52501L2.82512 0.885007C2.93032 0.776901 3.05861 0.693994 3.20039 0.642496C3.34217 0.590997 3.49377 0.572241 3.64382 0.587631C3.79388 0.603022 3.93851 0.65216 4.06689 0.731367C4.19526 0.810574 4.30406 0.917797 4.38512 1.04501L6.71512 4.50001C6.75531 4.55426 6.777 4.61999 6.777 4.68751C6.777 4.75502 6.75531 4.82075 6.71512 4.87501L5.18012 6.72001C5.71291 8.08548 6.54299 9.31522 7.61012 10.32Z"/>
</symbol><symbol id="rouble" viewBox="0 0 14 14">
<path d="M7 14C6.05208 14 5.14518 13.8154 4.2793 13.4463C3.41341 13.0771 2.66829 12.5804 2.04395 11.9561C1.4196 11.3317 0.922852 10.5866 0.553711 9.7207C0.18457 8.85482 0 7.94792 0 7C0 6.05208 0.18457 5.14518 0.553711 4.2793C0.922852 3.41341 1.4196 2.66829 2.04395 2.04395C2.66829 1.4196 3.41341 0.922852 4.2793 0.553711C5.14518 0.18457 6.05208 0 7 0C7.94792 0 8.85482 0.18457 9.7207 0.553711C10.5866 0.922852 11.3317 1.4196 11.9561 2.04395C12.5804 2.66829 13.0771 3.41341 13.4463 4.2793C13.8154 5.14518 14 6.05208 14 7C14 7.94792 13.8154 8.85482 13.4463 9.7207C13.0771 10.5866 12.5804 11.3317 11.9561 11.9561C11.3317 12.5804 10.5866 13.0771 9.7207 13.4463C8.85482 13.8154 7.94792 14 7 14ZM8.3125 1.75H5.25C5.01302 1.75 4.80794 1.83659 4.63477 2.00977C4.46159 2.18294 4.375 2.38802 4.375 2.625V6.125H3.5C3.26302 6.125 3.05794 6.21159 2.88477 6.38477C2.71159 6.55794 2.625 6.7653 2.625 7.00684C2.625 7.24837 2.71159 7.45345 2.88477 7.62207C3.05794 7.79069 3.26302 7.875 3.5 7.875H4.375V8.75H3.5C3.26302 8.75 3.05794 8.83659 2.88477 9.00977C2.71159 9.18294 2.625 9.3903 2.625 9.63184C2.625 9.87337 2.71159 10.0785 2.88477 10.2471C3.05794 10.4157 3.26302 10.5 3.5 10.5H4.375V11.375C4.375 11.6211 4.45931 11.8285 4.62793 11.9971C4.79655 12.1657 5.00163 12.25 5.24316 12.25C5.4847 12.25 5.69206 12.1657 5.86523 11.9971C6.03841 11.8285 6.125 11.6211 6.125 11.375V10.5H7.875C8.11198 10.5 8.31706 10.4157 8.49023 10.2471C8.66341 10.0785 8.75 9.87337 8.75 9.63184C8.75 9.3903 8.66341 9.18294 8.49023 9.00977C8.31706 8.83659 8.11198 8.75 7.875 8.75H6.125V7.875H8.3125C9.16016 7.875 9.88249 7.5765 10.4795 6.97949C11.0765 6.38249 11.375 5.66016 11.375 4.8125C11.375 3.96484 11.0765 3.24251 10.4795 2.64551C9.88249 2.0485 9.16016 1.75 8.3125 1.75ZM8.3125 6.125H6.125V3.5H8.3125C8.67708 3.5 8.98698 3.6276 9.24219 3.88281C9.4974 4.13802 9.625 4.44792 9.625 4.8125C9.625 5.17708 9.4974 5.48698 9.24219 5.74219C8.98698 5.9974 8.67708 6.125 8.3125 6.125Z"/>
</symbol><symbol id="sofa" viewBox="0 0 25 19">
<path d="M20.3047 18.6772C19.7671 18.6772 19.3291 18.2391 19.3291 17.7016V16.726H20.3047C21.8597 16.726 22.2558 16.1973 22.2558 16.1973V17.7016C22.2558 18.2391 21.8178 18.6772 21.2802 18.6772H20.3047Z"/>
<path d="M3.71971 18.6772C3.18217 18.6772 2.74414 18.2391 2.74414 17.7016V16.1973C2.74414 16.1973 3.14022 16.726 4.69528 16.726H5.67086V17.7016C5.67086 18.2391 5.23282 18.6772 4.69528 18.6772H3.71971Z"/>
<path d="M25 8.43362C25 7.18782 23.9893 6.17712 22.7435 6.17712C21.7757 6.17712 20.9563 6.78978 20.6363 7.64634L19.5661 10.0433C19.4861 9.99356 16.2501 8.97702 12.5605 8.97702C8.87087 8.97702 5.5071 9.99844 5.42515 10.0492L4.41154 7.80048C4.1374 6.86588 3.28085 6.1781 2.2565 6.1781C1.01069 6.1781 0 7.18782 0 8.4346C0 9.47163 0.704363 10.336 1.6575 10.6004L2.07504 14.1895C2.516 15.7124 4.69543 15.7504 4.69543 15.7504H20.3046C20.3046 15.7504 22.484 15.7124 22.925 14.1875L23.3425 10.5984C24.2947 10.335 25 9.47065 25 8.43362Z"/>
<path d="M2.25653 5.00647C3.73159 5.00647 5.05544 5.98009 5.50908 7.38492L6.00272 8.48244C6.95781 8.13806 10.3918 7.80636 12.5615 7.80636C14.6717 7.80636 18.0569 8.11464 18.9934 8.45609L19.5544 7.19858C20.0627 5.88546 21.3397 5.00647 22.7445 5.00647C22.8479 5.00647 22.9465 5.02794 23.0489 5.03672C23.0489 5.03086 23.0499 5.02403 23.0499 5.01818C23.0499 2.42511 20.9485 0.322754 18.3544 0.322754C18.0286 0.322754 6.97342 0.322754 6.64758 0.322754C4.05451 0.322754 1.95215 2.42413 1.95215 5.01818C1.95215 5.02403 1.95312 5.03086 1.95312 5.03672C2.05458 5.02891 2.15312 5.00647 2.25653 5.00647Z"/>
</symbol><symbol id="star" viewBox="0 0 15 14">
<path d="M7.31109 0.544942C7.37335 0.36583 7.62665 0.36583 7.68891 0.544942L9.21766 4.94296C9.24513 5.02197 9.31886 5.07554 9.4025 5.07725L14.0577 5.17211C14.2473 5.17598 14.3255 5.41689 14.1744 5.53145L10.4641 8.34443C10.3974 8.39497 10.3692 8.48166 10.3935 8.56172L11.7418 13.0184C11.7967 13.1999 11.5918 13.3488 11.4361 13.2404L7.61424 10.581C7.54557 10.5332 7.45443 10.5332 7.38576 10.581L3.56389 13.2404C3.40824 13.3488 3.20331 13.1999 3.25822 13.0184L4.60653 8.56172C4.63075 8.48166 4.60259 8.39497 4.53593 8.34443L0.825577 5.53145C0.67447 5.41689 0.752746 5.17598 0.942331 5.17211L5.5975 5.07725C5.68114 5.07554 5.75487 5.02197 5.78234 4.94296L7.31109 0.544942Z"/>
</symbol><symbol id="telegram" viewBox="0 0 26 22">
<path d="M10.3096 14.3136L9.89602 20.1303C10.4877 20.1303 10.7439 19.8761 11.0512 19.5709L13.8252 16.9199L19.5731 21.1293C20.6273 21.7168 21.37 21.4074 21.6544 20.1595L25.4273 2.48031L25.4283 2.47926C25.7627 0.92093 24.8648 0.311555 23.8377 0.693847L1.6606 9.18447C0.14706 9.77197 0.169977 10.6157 1.40331 10.998L7.0731 12.7616L20.2429 4.52093C20.8627 4.11051 21.4262 4.3376 20.9627 4.74801L10.3096 14.3136Z"/>
</symbol><symbol id="viber" viewBox="0 0 24 26">
<path d="M23.62 14.972C24.3658 8.69384 23.2617 4.73029 21.27 2.93759L21.271 2.93654C18.0565 -0.124913 7.20021 -0.578038 3.35437 3.07404C1.62729 4.8605 1.01895 7.48238 0.952288 10.7282C0.885621 13.9751 0.806455 20.0574 6.47416 21.7074H6.47937L6.47416 24.2272C6.47416 24.2272 6.43562 25.248 7.08771 25.4532C7.83354 25.6949 8.17104 25.2209 10.4908 22.4501C14.37 22.7865 17.3492 22.0157 17.6877 21.9032C18.471 21.6407 22.9033 21.0543 23.62 14.972ZM10.8731 20.6772C10.8731 20.6772 8.41791 23.7386 7.65437 24.5334C7.40437 24.7918 7.13041 24.7678 7.13458 24.2553C7.13458 23.9188 7.15333 20.072 7.15333 20.072C2.34812 18.6949 2.63145 13.5157 2.68354 10.8063C2.73562 8.09592 3.23145 5.87613 4.69396 4.38134C8.06791 1.2178 17.5856 1.92509 20.0106 4.20425C22.9752 6.83238 21.92 14.2574 21.9262 14.5105C21.3169 19.5876 17.7252 19.9095 17.0648 20.1293C16.7825 20.223 14.1627 20.897 10.8731 20.6772Z"/>
<path d="M12.2314 4.97607C11.8304 4.97607 11.8304 5.60107 12.2314 5.60628C15.3429 5.63024 17.9054 7.79899 17.9335 11.7771C17.9335 12.1969 18.5481 12.1917 18.5429 11.7719H18.5419C18.5085 7.48545 15.7106 5.00003 12.2314 4.97607Z"/>
<path d="M16.3238 11.1177C16.3144 11.5323 16.928 11.5521 16.9332 11.1323C16.9842 8.76879 15.5269 6.82191 12.7884 6.6167C12.3874 6.58754 12.3457 7.21775 12.7457 7.24691C15.1207 7.42712 16.3717 9.04795 16.3238 11.1177Z"/>
<path d="M15.6681 13.8064C15.1535 13.5085 14.6296 13.6939 14.4129 13.9866L13.9598 14.5731C13.7296 14.871 13.2994 14.8314 13.2994 14.8314C10.1598 14.0012 9.32022 10.7158 9.32022 10.7158C9.32022 10.7158 9.28167 10.271 9.56917 10.0325L10.1358 9.56373C10.4192 9.33873 10.5983 8.79706 10.3098 8.26477C9.53897 6.87206 9.02126 6.39186 8.75772 6.02311C8.48063 5.67623 8.06397 5.59811 7.63063 5.83248H7.62126C6.72022 6.35956 5.73376 7.34602 6.04938 8.36165C6.58793 9.43248 7.57751 12.846 10.7317 15.4252C12.214 16.645 14.5598 17.895 15.5556 18.1835L15.565 18.1981C16.5463 18.5252 17.5004 17.5002 18.0098 16.5721V16.5648C18.2358 16.1158 18.1608 15.6908 17.8306 15.4127C17.2452 14.8419 16.3619 14.2116 15.6681 13.8064Z"/>
<path d="M13.2179 8.94142C14.2189 8.99976 14.7044 9.52267 14.7564 10.5966C14.7752 11.0164 15.3846 10.9873 15.3658 10.5675C15.2992 9.16538 14.5679 8.38413 13.2512 8.31121C12.8502 8.28725 12.8127 8.91746 13.2179 8.94142Z"/>
</symbol><symbol id="vk" viewBox="0 0 24 14">
<path fill-rule="evenodd" clip-rule="evenodd" d="M23.45 0.948015C23.616 0.402015 23.45 1.52588e-05 22.655 1.52588e-05H20.03C19.362 1.52588e-05 19.054 0.347015 18.887 0.730015C18.887 0.730015 17.552 3.92602 15.661 6.00202C15.049 6.60402 14.771 6.79502 14.437 6.79502C14.27 6.79502 14.019 6.60402 14.019 6.05702V0.948015C14.019 0.292015 13.835 1.52588e-05 13.279 1.52588e-05H9.151C8.734 1.52588e-05 8.483 0.304015 8.483 0.593015C8.483 1.21402 9.429 1.35802 9.526 3.10602V6.90402C9.526 7.73702 9.373 7.88802 9.039 7.88802C8.149 7.88802 5.984 4.67702 4.699 1.00302C4.45 0.288015 4.198 1.52588e-05 3.527 1.52588e-05H0.9C0.15 1.52588e-05 0 0.347015 0 0.730015C0 1.41202 0.89 4.80002 4.145 9.28102C6.315 12.341 9.37 14 12.153 14C13.822 14 14.028 13.632 14.028 12.997V10.684C14.028 9.94702 14.186 9.80002 14.715 9.80002C15.105 9.80002 15.772 9.99202 17.33 11.467C19.11 13.216 19.403 14 20.405 14H23.03C23.78 14 24.156 13.632 23.94 12.904C23.702 12.18 22.852 11.129 21.725 9.88202C21.113 9.17202 20.195 8.40702 19.916 8.02402C19.527 7.53302 19.638 7.31402 19.916 6.87702C19.916 6.87702 23.116 2.45102 23.449 0.948015H23.45Z"/>
</symbol><symbol id="whatsapp" viewBox="0 0 26 26">
<g clip-path="url(#clip0_1481:25)">
<path d="M18.7366 15.4033L18.7272 15.4814C16.4366 14.3397 16.197 14.1876 15.9012 14.6314C15.696 14.9387 15.0981 15.6356 14.9179 15.8418C14.7356 16.0449 14.5543 16.0606 14.2449 15.9199C13.9324 15.7637 12.9293 15.4356 11.7418 14.3731C10.8168 13.5449 10.196 12.5293 10.0126 12.2168C9.70744 11.6897 10.346 11.6147 10.9272 10.5147C11.0314 10.296 10.9783 10.1241 10.9012 9.96889C10.8231 9.81264 10.2012 8.28139 9.94077 7.67097C9.69077 7.06264 9.43348 7.13972 9.24077 7.13972C8.64077 7.08764 8.20223 7.09597 7.81577 7.49805C6.13452 9.34597 6.55848 11.2522 7.99702 13.2793C10.8241 16.9793 12.3304 17.6606 15.0845 18.6064C15.8283 18.8428 16.5064 18.8095 17.0429 18.7324C17.6408 18.6376 18.8835 17.9814 19.1429 17.247C19.4085 16.5126 19.4085 15.9033 19.3304 15.7626C19.2533 15.622 19.0491 15.5439 18.7366 15.4033Z"/>
<path d="M21.875 4.09218C13.8656 -3.65053 0.610417 1.9651 0.605208 12.888C0.605208 15.0713 1.17708 17.2005 2.26667 19.0807L0.5 25.4995L7.09896 23.7786C15.3333 28.2266 25.4958 22.3203 25.5 12.8943C25.5 9.58593 24.2083 6.47239 21.8594 4.13281L21.875 4.09218ZM23.4188 12.8599C23.4125 20.8109 14.6844 25.7766 7.78125 21.7182L7.40625 21.4953L3.5 22.5109L4.54688 18.7141L4.29792 18.3234C0.00208318 11.4849 4.9375 2.54739 13.075 2.54739C15.8396 2.54739 18.4344 3.62552 20.3885 5.57864C22.3417 7.5151 23.4188 10.1099 23.4188 12.8599Z"/>
</g>

</symbol></svg>