<svg width="15" height="18" fill="none" xmlns="http://www.w3.org/2000/svg"><g clip-path="url(#clip0_5_194)"><path d="M9.612.44c-.8-.838-2.092-.388-2.431.59-.28.806-.644 1.771-.998 2.482-1.06 2.126-1.678 3.336-3.384 4.85a2.84 2.84 0 01-.841.49c-1.13.446-2.19 1.615-1.913 3.004l.353 1.765a2.5 2.5 0 001.794 1.922l5.6 1.527a4.5 4.5 0 005.61-3.536l.685-3.762a3.002 3.002 0 00-2.952-3.537h-.883l.01-.052c.08-.408.176-.97.24-1.583.065-.61.1-1.284.049-1.912-.05-.617-.184-1.25-.504-1.73A4.234 4.234 0 009.612.44z" fill="#FFD200"/></g><defs><clipPath id="clip0_5_194"><path fill="#fff" d="M0 0h15v18H0z"/></clipPath></defs></svg>