<svg xmlns="http://www.w3.org/2000/svg" xmlns:xlink="http://www.w3.org/1999/xlink"><symbol id="arrow" viewBox="0 0 16 6">
<path d="M11.1314 6C11.2838 5.60606 11.4514 5.24242 11.6343 4.90909C11.8171 4.56061 12.0229 4.23485 12.2514 3.93182H0V2.06818H12.2514C12.0381 1.76515 11.84 1.44697 11.6571 1.11364C11.4743 0.765152 11.3067 0.39394 11.1543 0H12.8914C13.8362 1.10606 14.8724 1.94697 16 2.52273V3.5C14.8724 4.04546 13.8362 4.87879 12.8914 6H11.1314Z"/>
</symbol><symbol id="clip" viewBox="0 0 10 18">
<path d="M8.69383 4.09015L8.51236 13.4975C8.47748 15.3053 6.98469 16.7696 5.17651 16.7696C3.36833 16.7696 1.93203 15.3053 1.9669 13.4975L2.16415 3.27212C2.17462 2.72973 2.40015 2.20956 2.79115 1.82603C3.18214 1.44251 3.70657 1.22704 4.24906 1.22704C4.79155 1.22704 5.30766 1.44251 5.68386 1.82603C6.06006 2.20956 6.26552 2.72973 6.25506 3.27212L6.08937 11.8614C6.08069 12.3113 5.70541 12.6795 5.25541 12.6795C4.80541 12.6795 4.44433 12.3113 4.45301 11.8614L4.60292 4.09015H3.37564L3.22573 11.8614C3.21527 12.4038 3.42074 12.924 3.79694 13.3075C4.17314 13.691 4.68925 13.9065 5.23174 13.9065C5.77423 13.9065 6.29865 13.691 6.68965 13.3075C7.08064 12.924 7.30618 12.4038 7.31664 11.8614L7.48233 3.27212C7.51721 1.46427 6.08091 0 4.27273 0C2.46455 0 0.971754 1.46427 0.936879 3.27212L0.739628 13.4975C0.691656 15.9843 2.66556 17.9967 5.15284 17.9967C7.64011 17.9967 9.69166 15.9843 9.73963 13.4975L9.9211 4.09015H8.69383Z"/>
</symbol><symbol id="telegram" viewBox="0 0 18 16">
<path d="M1.32132 6.65312L16.748 0.705122C17.464 0.446455 18.0893 0.879789 17.8573 1.96246L17.8587 1.96112L15.232 14.3358C15.0373 15.2131 14.516 15.4265 13.7867 15.0131L9.78665 12.0651L7.85732 13.9238C7.64398 14.1371 7.46398 14.3171 7.05065 14.3171L7.33465 10.2465L14.748 3.54912C15.0707 3.26512 14.676 3.10512 14.2507 3.38779L5.08932 9.15579L1.13998 7.92379C0.28265 7.65179 0.263984 7.06645 1.32132 6.65312Z"/>
</symbol><symbol id="whatsapp" viewBox="0 0 20 20">
<path d="M17.0545 2.94536C15.3898 1.26408 13.1792 0.233012 10.8212 0.0381261C8.46332 -0.156759 6.11337 0.49737 4.19526 1.88252C2.27715 3.26768 0.917156 5.29267 0.360593 7.59225C-0.195971 9.89182 0.0875333 12.3146 1.15997 14.4235L0.107239 19.5344C0.0963161 19.5853 0.0960067 19.6379 0.106331 19.6889C0.116655 19.7399 0.13739 19.7882 0.167239 19.8308C0.210966 19.8955 0.273384 19.9453 0.346157 19.9735C0.41893 20.0018 0.498595 20.0072 0.574512 19.989L5.5836 18.8017C7.68663 19.847 10.0923 20.1123 12.3725 19.5503C14.6528 18.9884 16.6597 17.6357 18.0362 15.7329C19.4128 13.8302 20.0696 11.5007 19.8898 9.15916C19.71 6.81757 18.7053 4.61571 17.0545 2.94536ZM15.4927 15.4108C14.3409 16.5594 12.8578 17.3175 11.2523 17.5785C9.64676 17.8394 7.99984 17.59 6.5436 16.8654L5.84542 16.5199L2.77451 17.2472L2.7836 17.209L3.41997 14.1181L3.07815 13.4435C2.33408 11.9822 2.07159 10.3229 2.32831 8.70325C2.58502 7.08362 3.34775 5.58679 4.50724 4.42718C5.96416 2.97071 7.93989 2.15251 9.99997 2.15251C12.06 2.15251 14.0358 2.97071 15.4927 4.42718C15.5051 4.4414 15.5185 4.45477 15.5327 4.46718C16.9716 5.9274 17.7748 7.89724 17.7673 9.94724C17.7598 11.9972 16.9422 13.9611 15.4927 15.4108Z"/>
<path d="M15.2199 13.1438C14.8436 13.7365 14.249 14.462 13.5017 14.6419C12.1926 14.9583 10.1836 14.6529 7.68356 12.3219L7.65265 12.2947C5.45446 10.2565 4.88356 8.56013 5.02174 7.21468C5.0981 6.45104 5.73446 5.76013 6.27083 5.30922C6.35563 5.23685 6.45618 5.18532 6.56446 5.15876C6.67273 5.1322 6.78571 5.13134 6.89438 5.15625C7.00304 5.18117 7.10437 5.23116 7.19026 5.30224C7.27615 5.37331 7.34421 5.4635 7.38901 5.56559L8.1981 7.38377C8.25068 7.50166 8.27016 7.63164 8.25447 7.75977C8.23877 7.88789 8.18849 8.00933 8.10901 8.11104L7.69992 8.64195C7.61214 8.75157 7.55917 8.88495 7.54783 9.02493C7.53649 9.16491 7.5673 9.30508 7.63628 9.4274C7.86537 9.82922 8.41446 10.4201 9.02356 10.9674C9.70719 11.5856 10.4654 12.151 10.9454 12.3438C11.0738 12.3962 11.215 12.409 11.3508 12.3805C11.4866 12.352 11.6107 12.2835 11.7072 12.1838L12.1817 11.7056C12.2733 11.6153 12.3872 11.5509 12.5117 11.519C12.6363 11.487 12.7671 11.4887 12.8908 11.5238L14.8126 12.0692C14.9187 12.1017 15.0158 12.1581 15.0967 12.2339C15.1776 12.3097 15.2401 12.4031 15.2794 12.5068C15.3187 12.6104 15.3338 12.7218 15.3235 12.8322C15.3132 12.9426 15.2777 13.0492 15.2199 13.1438Z"/>
</symbol></svg>