<svg width="100" height="46" fill="none" xmlns="http://www.w3.org/2000/svg"><g clip-path="url(#clip0_9_61)" fill="#000"><path d="M65.137 25.665c0-2.953-1.613-5.111-4.818-6.42a442.225 442.225 0 01-8.373-2.324c-2.639-.754-3.934-1.993-3.934-3.783 0-1.17.366-2.05 1.12-2.684a4.104 4.104 0 012.721-.976h11.404V6.702H51.695c-2.097 0-3.766.63-4.947 1.87a6.44 6.44 0 00-1.794 4.62c0 2.782 1.613 4.818 4.815 6.053 2.714.734 5.448 1.471 8.169 2.199 2.786.956 4.142 2.438 4.142 4.523a3.245 3.245 0 01-.311 1.526 3.22 3.22 0 01-.985 1.2c-.894.688-2.338 1.04-4.288 1.04h-11.54v2.777h11.063c2.909 0 5.171-.568 6.721-1.687 1.55-1.12 2.398-2.877 2.398-5.158zM71.956 0H69.11v32.523h2.846V0zM6.4.09H3.556v6.944H-.007v2.763h3.562v15.194c0 2.371.66 4.238 1.979 5.553 1.319 1.315 3.198 1.993 5.625 1.993h3.958v-2.764H10.74a4.172 4.172 0 01-3.16-1.222c-.778-.817-1.174-1.942-1.174-3.35V9.796h8.713V7.034H6.4V.09zm90.055 9.873a12.035 12.035 0 00-3.976-2.767 11.964 11.964 0 00-9.47.016 12.036 12.036 0 00-3.966 2.781c-2.335 2.491-3.519 5.646-3.519 9.382 0 3.736 1.194 6.938 3.545 9.412a11.62 11.62 0 003.953 2.798 11.55 11.55 0 004.74.938 9.944 9.944 0 004.41-.893 16.897 16.897 0 003.102-2.04V26.1l-.264.283a11.815 11.815 0 01-3.35 2.583 8.789 8.789 0 01-3.898.83c-2.42 0-4.617-1.012-6.48-3.005a11.07 11.07 0 01-2.846-7.416 11.07 11.07 0 012.846-7.416c1.88-1.992 4.06-3.005 6.48-3.005a8.549 8.549 0 013.72.765 8.608 8.608 0 013.03 2.303 10.9 10.9 0 012.678 7.353v12.62H100v-12.62c0-3.77-1.19-6.934-3.545-9.412zM36.74 26.857a10.017 10.017 0 01-3.298 2.198 9.96 9.96 0 01-3.884.741 9.594 9.594 0 01-3.915-.738 9.65 9.65 0 01-3.284-2.267 9.053 9.053 0 01-.597-.688l12.34-6.097-2.853-2.48 9.448-5.079-.122-.2a12.132 12.132 0 00-4.577-4.343 12.928 12.928 0 00-6.447-1.677c-3.786 0-6.925 1.302-9.359 3.865a13.113 13.113 0 00-2.745 4.301 13.183 13.183 0 00-.902 5.032 12.697 12.697 0 00.94 5.059 12.625 12.625 0 002.869 4.26c2.526 2.507 5.757 3.779 9.606 3.779a12.276 12.276 0 004.893-.943 12.346 12.346 0 004.126-2.813 12.189 12.189 0 002.773-4.052c.642-1.526.967-3.168.957-4.825H39.74a9.462 9.462 0 01-.771 3.802 9.404 9.404 0 01-2.23 3.165zm-17.27-7.33a10.702 10.702 0 012.875-7.445 9.434 9.434 0 013.27-2.358 9.373 9.373 0 013.95-.77c2.855 0 5.213.996 7.007 2.988l-9.97 4.982 2.827 2.46-9.056 4.484a10.448 10.448 0 01-.903-4.34zm7.996 17.914h.884l2.078 5.112h.072l2.078-5.112h.884V43.6h-.693v-4.678h-.06l-1.91 4.678h-.67l-1.91-4.678h-.06V43.6h-.693v-6.158zm7.731 6.158h-.776l2.245-6.158h.764l2.245 6.158H38.9l-1.827-5.184h-.048L35.197 43.6zm.287-2.405h3.129v.661h-3.13v-.661zm9.993-3.753V43.6h-.717l-3.332-4.835h-.06V43.6h-.74v-6.158h.716l3.344 4.847h.06v-4.847h.729zm1.732 6.158h-.776l2.245-6.158h.764l2.245 6.158h-.776l-1.827-5.184h-.048L47.21 43.6zm.287-2.405h3.128v.661h-3.128v-.661zm9.036-1.829a2.18 2.18 0 00-.26-.544 1.677 1.677 0 00-.378-.415 1.586 1.586 0 00-.496-.261 1.963 1.963 0 00-.61-.09c-.361 0-.69.094-.987.282a1.95 1.95 0 00-.708.833c-.175.367-.263.817-.263 1.35 0 .533.089.983.266 1.35.177.367.417.645.72.833.302.188.642.283 1.02.283.35 0 .66-.076.926-.226.269-.152.478-.367.627-.643.151-.279.227-.607.227-.984l.227.048h-1.84v-.66h2.33v.66c0 .508-.108.949-.323 1.324a2.235 2.235 0 01-.884.871 2.646 2.646 0 01-1.29.307c-.54 0-1.017-.128-1.427-.385a2.588 2.588 0 01-.955-1.094c-.227-.473-.34-1.035-.34-1.684 0-.487.064-.925.194-1.314.131-.39.316-.724.555-.998a2.43 2.43 0 01.848-.632 2.61 2.61 0 011.078-.22c.322 0 .623.05.901.148a2.413 2.413 0 011.607 1.861h-.765zm2.068 4.234v-6.158h3.69v.662h-2.949v2.08H62.1v.662h-2.76v2.093h2.998v.661H58.6zm5.026-6.158h.883l2.078 5.112h.072l2.078-5.112h.884V43.6h-.693v-4.678h-.06l-1.91 4.678h-.67l-1.91-4.678h-.06V43.6h-.692v-6.158zm7.479 6.158v-6.158h3.69v.662h-2.95v2.08h2.76v.662h-2.76v2.093h2.998v.661h-3.738zm9.874-6.158V43.6h-.717l-3.332-4.835h-.06V43.6h-.74v-6.158h.717l3.344 4.847h.06v-4.847h.728zm1.147.662v-.662h4.586v.662h-1.923v5.496h-.74v-5.496h-1.923z"/></g><defs><clipPath id="clip0_9_61"><path fill="#fff" d="M0 0h100v46H0z"/></clipPath></defs></svg>