<svg width="100" height="46" fill="none" xmlns="http://www.w3.org/2000/svg"><g clip-path="url(#clip0_46_450)" fill="#FEFEFE"><path d="M65.137 25.665c0-2.952-1.613-5.11-4.818-6.42a442.231 442.231 0 01-8.373-2.324c-2.638-.754-3.934-1.993-3.934-3.783 0-1.169.366-2.049 1.12-2.683a4.104 4.104 0 012.721-.977h11.404V6.702H51.695c-2.097 0-3.766.63-4.946 1.87a6.407 6.407 0 00-1.36 2.127 6.443 6.443 0 00-.434 2.492c0 2.783 1.612 4.82 4.814 6.055 2.714.734 5.448 1.47 8.169 2.198 2.786.957 4.142 2.438 4.142 4.523a3.245 3.245 0 01-.311 1.526 3.22 3.22 0 01-.985 1.201c-.894.687-2.338 1.04-4.287 1.04H44.955v2.776h11.064c2.908 0 5.17-.568 6.72-1.687 1.55-1.12 2.398-2.876 2.398-5.158zM71.956 0H69.11v32.523h2.846V0zM6.4.09H3.556v6.944H-.007v2.763h3.562v15.194c0 2.371.66 4.238 1.978 5.553 1.32 1.315 3.2 1.992 5.626 1.992h3.957v-2.763H10.74a4.17 4.17 0 01-3.159-1.222c-.778-.817-1.174-1.943-1.174-3.35V9.796h8.713V7.034H6.4V.09zm90.055 9.873a12.035 12.035 0 00-3.976-2.767 11.963 11.963 0 00-9.47.016 12.036 12.036 0 00-3.966 2.781c-2.335 2.491-3.519 5.646-3.519 9.382 0 3.736 1.194 6.938 3.546 9.412a11.62 11.62 0 003.952 2.798 11.55 11.55 0 004.74.938 9.944 9.944 0 004.41-.893 16.898 16.898 0 003.103-2.04V26.1l-.264.283a11.815 11.815 0 01-3.35 2.583 8.79 8.79 0 01-3.899.83c-2.42 0-4.617-1.012-6.48-3.005a11.07 11.07 0 01-2.846-7.416 11.07 11.07 0 012.846-7.416c1.88-1.992 4.06-3.005 6.48-3.005a8.549 8.549 0 013.72.765 8.607 8.607 0 013.03 2.303 10.899 10.899 0 012.678 7.353v12.62H100v-12.62c0-3.77-1.19-6.934-3.545-9.412zM36.74 26.858a10.016 10.016 0 01-3.298 2.197 9.959 9.959 0 01-3.885.742 9.592 9.592 0 01-3.914-.739 9.652 9.652 0 01-3.285-2.267 9.097 9.097 0 01-.596-.687l12.34-6.098-2.853-2.48 9.448-5.079-.122-.199a12.131 12.131 0 00-4.577-4.344 12.928 12.928 0 00-6.447-1.677c-3.786 0-6.925 1.302-9.36 3.866a13.113 13.113 0 00-2.745 4.3 13.184 13.184 0 00-.901 5.032 12.698 12.698 0 00.94 5.059 12.624 12.624 0 002.868 4.26c2.526 2.507 5.758 3.78 9.607 3.78a12.273 12.273 0 004.893-.944 12.346 12.346 0 004.126-2.813 12.191 12.191 0 002.773-4.051c.642-1.527.967-3.169.957-4.826H39.74a9.462 9.462 0 01-.771 3.802 9.407 9.407 0 01-2.23 3.166zm-17.27-7.33a10.703 10.703 0 012.875-7.446 9.434 9.434 0 013.27-2.357 9.374 9.374 0 013.949-.771c2.856 0 5.214.996 7.008 2.989l-9.97 4.981 2.827 2.461-9.056 4.483a10.45 10.45 0 01-.903-4.34zm7.996 17.913h.884l2.078 5.112h.072l2.078-5.112h.883V43.6h-.692v-4.678h-.06l-1.91 4.678h-.67l-1.91-4.678h-.06V43.6h-.693v-6.158zm7.731 6.158h-.776l2.245-6.158h.764l2.245 6.158H38.9l-1.827-5.184h-.048L35.197 43.6zm.286-2.405h3.13v.661h-3.13v-.661zm9.993-3.753V43.6h-.716l-3.332-4.835h-.06V43.6h-.74v-6.158h.716l3.344 4.847h.06v-4.847h.728zm1.733 6.158h-.776l2.245-6.158h.764l2.245 6.158h-.776l-1.827-5.184h-.048L47.21 43.6zm.286-2.405h3.13v.661h-3.13v-.661zm9.037-1.829a2.18 2.18 0 00-.26-.544 1.677 1.677 0 00-.379-.415 1.586 1.586 0 00-.495-.261 1.963 1.963 0 00-.61-.09c-.362 0-.691.094-.988.282a1.954 1.954 0 00-.707.833c-.175.367-.263.817-.263 1.35 0 .533.089.983.266 1.35.177.367.417.645.72.833.302.188.642.283 1.02.283.35 0 .66-.076.926-.226.269-.152.478-.367.627-.643.151-.279.227-.607.227-.984l.227.048h-1.84v-.66h2.33v.66c0 .508-.108.949-.323 1.324a2.235 2.235 0 01-.884.871 2.646 2.646 0 01-1.29.307c-.541 0-1.017-.128-1.427-.385a2.588 2.588 0 01-.955-1.094c-.227-.473-.34-1.035-.34-1.684 0-.487.064-.925.194-1.314.131-.39.316-.724.555-.998a2.43 2.43 0 01.848-.632 2.61 2.61 0 011.078-.22c.322 0 .623.05.901.148a2.413 2.413 0 011.607 1.861h-.765zm2.068 4.234v-6.158h3.69v.662h-2.949v2.08H62.1v.662h-2.76v2.093h2.998v.661H58.6zm5.025-6.158h.884l2.078 5.112h.072l2.078-5.112h.884V43.6h-.693v-4.678h-.06l-1.91 4.678h-.67l-1.91-4.678h-.06V43.6h-.693v-6.158zm7.48 6.158v-6.158h3.69v.662h-2.95v2.08h2.76v.662h-2.76v2.093h2.998v.661h-3.738zm9.874-6.158V43.6h-.717l-3.332-4.835h-.06V43.6h-.74v-6.158h.717l3.344 4.847h.06v-4.847h.728zm1.147.662v-.662h4.586v.662h-1.923v5.496h-.74v-5.496h-1.923z"/></g><defs><clipPath id="clip0_46_450"><path fill="#fff" d="M0 0h100v46H0z"/></clipPath></defs></svg>