<svg xmlns="http://www.w3.org/2000/svg"><defs><style>.cls-1,.cls-4,.cls-5{fill:#02090e}</style></defs><symbol id="logo" viewBox="0 0 255.276 49.194"><g id="Group_1" transform="translate(-92.211 -218.512)"><g id="Group_110" transform="translate(92.213 218.512)"><g id="Group_113" transform="translate(95.412 17.244)"><g id="Group_100" transform="translate(0 .898)"><path id="Path_130" d="M92.211 602.44h15.054v4.46h-5v14.39h-5.027V606.9h-5.027z" class="cls-4" transform="translate(-92.211 -602.44)"/></g><g id="Group_101" transform="translate(18.579)"><path id="Path_131" d="M189.72 617.477l.128-6.053 16.722-13.7-.154 6.027zm4.769-4.694l-4.769 4.694v-18.85h4.769zm12.08 3.8h-4.822v-13.955l4.822-4.9z" class="cls-4" transform="translate(-189.72 -597.729)"/></g><g id="Group_102" transform="translate(38.043)"><path id="Path_132" d="M297.161 616.579h-5.284l3.129-18.85 7.822 10.284 7.8-10.284 3.1 18.85h-5.308l-1-8.233-4.591 6.566-4.642-6.566z" class="cls-4" transform="translate(-291.878 -597.729)"/></g><g id="Group_103" transform="translate(62.766 .898)"><path id="Path_133" d="M426.712 606.9v13.49h-5.078v-17.95h16.106v17.953h-5.052V606.9z" class="cls-5" transform="translate(-421.634 -602.44)"/></g><g id="Group_104" transform="translate(81.744 .437)"><path id="Path_134" d="M521.992 605.585a8.688 8.688 0 012.09-2.975 9.518 9.518 0 013.129-1.911 11.487 11.487 0 017.784 0 9.571 9.571 0 013.116 1.911 8.412 8.412 0 012.064 2.975 9.925 9.925 0 01.731 3.873 10.223 10.223 0 01-.718 3.873 8.959 8.959 0 01-2.039 3.065 9.181 9.181 0 01-3.116 2 11.41 11.41 0 01-7.9 0 9.089 9.089 0 01-5.167-5.052 10.009 10.009 0 01-.732-3.884 9.633 9.633 0 01.758-3.875zm4.86 5.861a4.751 4.751 0 00.923 1.564 4.042 4.042 0 001.436 1.013 4.814 4.814 0 001.9.358 4.562 4.562 0 001.847-.358 4.1 4.1 0 001.41-1.013 4.6 4.6 0 00.911-1.553 5.912 5.912 0 00.321-2 6.388 6.388 0 00-.295-2 4.3 4.3 0 00-.885-1.553 4.089 4.089 0 00-1.41-1.012 4.7 4.7 0 00-1.9-.36 4.816 4.816 0 00-1.9.36 4.035 4.035 0 00-1.436 1.012 4.78 4.78 0 00-.923 1.553 6.133 6.133 0 000 3.988z" class="cls-5" transform="translate(-521.235 -600.02)"/></g><g id="Group_105" transform="translate(102.492 .898)"><path id="Path_135" d="M648.442 620.393h-5.052V606.9H638v5.463a11.394 11.394 0 01-.782 4.552 5.125 5.125 0 01-2.526 2.63 10.522 10.522 0 01-4.565.846v-4.207a3.1 3.1 0 001.193-.217 2.234 2.234 0 00.885-.655 3.072 3.072 0 00.551-1.051 4.743 4.743 0 00.192-1.411v-10.41h15.49z" class="cls-5" transform="translate(-630.131 -602.44)"/></g><g id="Group_106" transform="translate(124.701)"><path id="Path_136" d="M746.694 617.477l.128-6.053 16.722-13.7-.154 6.027zm4.769-4.694l-4.769 4.694v-18.85h4.769zm12.08 3.8h-4.822v-13.955l4.822-4.9z" class="cls-5" transform="translate(-746.694 -597.729)"/></g><g id="Group_107" transform="translate(144.166 .437)"><path id="Path_137" d="M854.738 611.47a3.909 3.909 0 001.077 1.487 4.9 4.9 0 001.59.911 5.771 5.771 0 001.91.308 6.826 6.826 0 002.244-.334 6.267 6.267 0 001.693-.872 10 10 0 001.3-1.127v5.282a9.862 9.862 0 01-2.347 1.282 9.179 9.179 0 01-3.244.487 11.928 11.928 0 01-4.078-.666 9.328 9.328 0 01-3.206-1.924 8.545 8.545 0 01-2.09-2.987 10.549 10.549 0 010-7.719 8.536 8.536 0 012.09-2.988 9.348 9.348 0 013.206-1.924 11.921 11.921 0 014.078-.667 9.185 9.185 0 013.244.487 10.445 10.445 0 012.347 1.256v5.31a8.427 8.427 0 00-1.3-1.142 6.542 6.542 0 00-1.693-.859 6.87 6.87 0 00-2.244-.334 5.774 5.774 0 00-1.91.308 4.9 4.9 0 00-1.59.911 3.94 3.94 0 00-1.077 1.474 5.663 5.663 0 000 4.039z" class="cls-5" transform="translate(-848.852 -600.02)"/></g></g><path d="M250.523 406.357l33.794-19.16-31.611 19.16z" transform="translate(-233.894 -369.477)" fill="#e30427" id="Group_108"/><path d="M180.359 255.392l-28.431-28.436-7.192 7.192-15.636-15.636-36.88 36.88h4.18l46.249-19.16-19.16 19.16h4.37l24.066-24.066-11.686 24.066zm-63.142-12.035l-15 6.212 26.883-26.884z" transform="translate(-92.225 -218.512)" fill="#e30427" id="Group_109"/></g><g id="Group_111" transform="translate(92.211 256.687)"><path id="Path_140" d="M211.783 736.532a2.713 2.713 0 00.621.922 2.815 2.815 0 001.98.8 3.5 3.5 0 001.07-.154 3.055 3.055 0 00.857-.425 3.756 3.756 0 00.662-.6v1.666a3.786 3.786 0 01-1.118.651 4.441 4.441 0 01-1.519.224 4.507 4.507 0 01-1.691-.313 4.166 4.166 0 01-1.366-.881 3.975 3.975 0 01-.91-1.353 4.773 4.773 0 010-3.464 3.979 3.979 0 01.91-1.354 4.161 4.161 0 011.366-.88 4.484 4.484 0 011.691-.313 4.412 4.412 0 011.519.224 3.753 3.753 0 011.118.649v1.667a3.394 3.394 0 00-.662-.609 3.185 3.185 0 00-.857-.42 3.5 3.5 0 00-1.07-.153 2.821 2.821 0 00-1.98.8 2.731 2.731 0 00-.621.923 3.312 3.312 0 000 2.4z" class="cls-1" transform="translate(-210.045 -731.053)"/><path id="Path_141" d="M266.2 751.238v1.123h-3.44v-1.123zm-1.088.237v5.2h-1.252v-5.2z" class="cls-1" transform="translate(-254.982 -748.259)"/><path id="Path_142" d="M291.682 758.46v-8.04h1.288v8.04zm5.427-3.772a2.539 2.539 0 01-.969.976 2.652 2.652 0 01-1.312.336 2.146 2.146 0 01-.94-.2 2.079 2.079 0 01-.721-.573 2.622 2.622 0 01-.461-.9 4.508 4.508 0 010-2.377 2.625 2.625 0 01.461-.9 2.078 2.078 0 01.721-.573 2.146 2.146 0 01.94-.2 2.652 2.652 0 011.313.336 2.54 2.54 0 01.969.976 3.454 3.454 0 010 3.1zm-1.182-2.471a1.553 1.553 0 00-.591-.579 1.665 1.665 0 00-.816-.2 1.474 1.474 0 00-.55.112 1.6 1.6 0 00-.5.325 1.562 1.562 0 00-.36.532 2.039 2.039 0 000 1.465 1.562 1.562 0 00.36.532 1.6 1.6 0 00.5.325 1.452 1.452 0 00.55.112 1.667 1.667 0 00.816-.2 1.546 1.546 0 00.591-.579 2 2 0 000-1.845z" class="cls-1" transform="translate(-279.635 -747.441)"/><path id="Path_143" d="M337.251 754.741a.8.8 0 00.367.254 1.47 1.47 0 00.5.083 2.116 2.116 0 00.745-.123 1.045 1.045 0 00.52-.414 1.375 1.375 0 00.189-.763l.189.615a1.471 1.471 0 01-.272.892 1.71 1.71 0 01-.733.568 2.628 2.628 0 01-1.029.195 2.36 2.36 0 01-.963-.19 1.553 1.553 0 01-.686-.567 1.787 1.787 0 01.03-1.886 1.792 1.792 0 01.81-.609 3.287 3.287 0 011.235-.213 2.8 2.8 0 011.466.391 1.386 1.386 0 01.343.271v.674a2.633 2.633 0 00-.745-.4 2.817 2.817 0 00-.875-.124 1.807 1.807 0 00-.68.112.864.864 0 00-.414.319.874.874 0 00-.136.49.655.655 0 00.139.425zm-.928-3.731a6.146 6.146 0 01.94-.437 3.647 3.647 0 011.295-.212 3.527 3.527 0 01.916.112 2.188 2.188 0 01.722.33 1.567 1.567 0 01.467.532 1.51 1.51 0 01.165.715v3.878h-1.253v-3.737a.641.641 0 00-.147-.431 1 1 0 00-.391-.266 1.474 1.474 0 00-.538-.094 2.627 2.627 0 00-.721.094 3.26 3.26 0 00-.574.22 2.944 2.944 0 00-.372.218z" class="cls-1" transform="translate(-317.264 -747.512)"/><path id="Path_144" d="M379.659 751.238l-1.951 2.636 2.069 2.8h-1.431l-1.3-1.868-1.3 1.868h-1.466l2.081-2.8-1.963-2.636h1.466l1.183 1.7 1.182-1.7z" class="cls-1" transform="translate(-350.043 -748.259)"/><path id="Path_145" d="M413.358 751.8a2.7 2.7 0 011.052-1 3.29 3.29 0 013 0 2.708 2.708 0 011.046 1 3.022 3.022 0 010 2.95 2.688 2.688 0 01-1.046 1 3.289 3.289 0 01-3 0 2.679 2.679 0 01-1.052-1 3.022 3.022 0 010-2.95zm1.141 2.371a1.605 1.605 0 002.814 0 1.981 1.981 0 000-1.786 1.606 1.606 0 00-2.814 0 1.982 1.982 0 000 1.786z" class="cls-1" transform="translate(-383.027 -747.576)"/><path id="Path_146" d="M462.618 751.238v5.439h-1.253v-5.439zm-.508 2.223h1.454a.992.992 0 00.319-.048.744.744 0 00.248-.136.578.578 0 00.16-.207.631.631 0 00.053-.26.559.559 0 00-.094-.325.665.665 0 00-.272-.218.966.966 0 00-.414-.082h-1.454v-.947h1.608a2.774 2.774 0 01.928.148 1.479 1.479 0 01.68.473 1.33 1.33 0 01.26.856 1.125 1.125 0 01-.26.763 1.567 1.567 0 01-.68.45 2.778 2.778 0 01-.928.147h-1.608zm1.726.378a3.994 3.994 0 011.017.118 1.39 1.39 0 01.709.413 1.213 1.213 0 01.26.828 1.468 1.468 0 01-.408 1.046 1.782 1.782 0 01-1.341.431h-1.963v-.945h1.573a.98.98 0 00.68-.2.631.631 0 00.165-.732.551.551 0 00-.165-.207.863.863 0 00-.278-.142 1.315 1.315 0 00-.4-.054h-1.575v-.555z" class="cls-1" transform="translate(-424.277 -748.259)"/><path id="Path_147" d="M497 751.8a2.7 2.7 0 011.052-1 3.288 3.288 0 013 0 2.711 2.711 0 011.047 1 3.03 3.03 0 010 2.95 2.691 2.691 0 01-1.047 1 3.287 3.287 0 01-3 0 2.679 2.679 0 01-1.052-1 3.022 3.022 0 010-2.95zm1.141 2.371a1.605 1.605 0 002.814 0 1.985 1.985 0 000-1.786 1.606 1.606 0 00-2.814 0 1.982 1.982 0 000 1.786z" class="cls-1" transform="translate(-454.325 -747.576)"/><path id="Path_148" d="M544.768 741.045l.059-1.6 4.894-4.671-.059 1.6zm1.264-1.443l-1.264 1.443v-5.853h1.264zm.343-7.187a.856.856 0 00.089.366.776.776 0 00.29.319 1.2 1.2 0 001.088 0 .768.768 0 00.29-.319.857.857 0 00.089-.366h.981a1.633 1.633 0 01-.857 1.442 2.42 2.42 0 01-2.088 0 1.6 1.6 0 01-.638-.621 1.666 1.666 0 01-.212-.821zm3.346 8.217h-1.253v-4.41l1.253-1.443z" class="cls-1" transform="translate(-495.372 -732.213)"/><path id="Path_149" d="M619.459 755.554v2.246h-1.171v-1.123h-4.623v-5.439h1.277v4.316h2.282v-4.316h1.288v4.316z" class="cls-1" transform="translate(-554.102 -748.259)"/><path id="Path_150" d="M658.641 752.683h3.417a1.831 1.831 0 00-.207-.674 1.163 1.163 0 00-.444-.444 1.407 1.407 0 00-.7-.159 1.572 1.572 0 00-.763.182 1.385 1.385 0 00-.537.526 1.611 1.611 0 00-.2.828l-.025.331a2.327 2.327 0 00.19.992 1.289 1.289 0 00.537.6 1.642 1.642 0 00.811.195 1.962 1.962 0 00.662-.106 1.626 1.626 0 00.52-.3 1.824 1.824 0 00.378-.455l1.112.437a3.943 3.943 0 01-.627.774 2.432 2.432 0 01-.863.52 3.683 3.683 0 01-1.241.184 2.852 2.852 0 01-1.467-.366 2.53 2.53 0 01-.97-1.012 3.062 3.062 0 01-.343-1.459c0-.1 0-.2.012-.3s.02-.19.036-.285a2.858 2.858 0 01.478-1.182 2.439 2.439 0 01.951-.792 3.119 3.119 0 011.361-.283 2.939 2.939 0 011.448.338 2.314 2.314 0 01.939.958 3.112 3.112 0 01.332 1.484v.165a1.409 1.409 0 01-.012.189h-4.788z" class="cls-1" transform="translate(-591.795 -747.576)"/><path id="Path_151" d="M705.119 751.238v5.439h-1.253v-5.439zm-.7 2.033h4.162v1.076h-4.162zm4.729-2.033v5.439H707.9v-5.439z" class="cls-1" transform="translate(-630.991 -748.259)"/><path id="Path_152" d="M749.046 751.238v1.123H745.6v-1.123zm-1.088.237v5.2H746.7v-5.2z" class="cls-1" transform="translate(-666.571 -748.259)"/><path id="Path_153" d="M774.533 758.46v-8.04h1.288v8.04zm5.426-3.772a2.536 2.536 0 01-.97.976 2.648 2.648 0 01-1.313.336 2.142 2.142 0 01-.939-.2 2.08 2.08 0 01-.721-.573 2.625 2.625 0 01-.462-.9 4.524 4.524 0 010-2.377 2.627 2.627 0 01.462-.9 2.079 2.079 0 01.721-.573 2.142 2.142 0 01.939-.2 2.648 2.648 0 011.313.336 2.537 2.537 0 01.97.976 3.458 3.458 0 010 3.1zm-1.182-2.471a1.558 1.558 0 00-.592-.579 1.664 1.664 0 00-.816-.2 1.473 1.473 0 00-.55.112 1.613 1.613 0 00-.5.325 1.562 1.562 0 00-.36.532 2.031 2.031 0 000 1.465 1.562 1.562 0 00.36.532 1.611 1.611 0 00.5.325 1.452 1.452 0 00.55.112 1.665 1.665 0 00.816-.2 1.551 1.551 0 00.592-.579 2.011 2.011 0 000-1.845z" class="cls-1" transform="translate(-691.23 -747.441)"/></g></g></symbol></svg>