<svg xmlns="http://www.w3.org/2000/svg" xmlns:xlink="http://www.w3.org/1999/xlink"><defs>
<clipPath id="clip0">
<rect width="41.02" height="42.66" fill="white"/>
</clipPath>

<clipPath id="clip0">
<rect width="44.15" height="36.65" fill="white"/>
</clipPath>

<clipPath id="clip0">
<rect width="44.71" height="37.02" fill="white"/>
</clipPath>

<clipPath id="clip0">
<rect width="38.51" height="43.29" fill="white"/>
</clipPath>

<clipPath id="clip0">
<rect width="39.55" height="42.72" fill="white"/>
</clipPath>

<clipPath id="clip0">
<rect width="33.0011" height="42.66" fill="white"/>
</clipPath>
</defs><symbol id="ban-on-departure" viewBox="0 0 42 43">
<g clip-path="url(#clip0)">
<path d="M3.73 39.7701H0.73C0.539044 39.7701 0.355916 39.6942 0.22089 39.5592C0.0858639 39.4241 0.00999832 39.241 0.00999832 39.05V0.77005C0.00999832 0.579094 0.0858639 0.395967 0.22089 0.260941C0.355916 0.125914 0.539044 0.0500488 0.73 0.0500488H29.61C29.801 0.0500488 29.9841 0.125914 30.1191 0.260941C30.2542 0.395967 30.33 0.579094 30.33 0.77005V3.71005C30.33 3.90101 30.2542 4.08414 30.1191 4.21916C29.9841 4.35419 29.801 4.43005 29.61 4.43005H4.45V39.0601C4.44737 39.2493 4.37036 39.4298 4.23561 39.5627C4.10087 39.6956 3.91924 39.7701 3.73 39.7701ZM1.43 38.3401H3.01V3.66005C3.01 3.46909 3.08586 3.28597 3.22089 3.15094C3.35592 3.01591 3.53904 2.94005 3.73 2.94005H28.88V1.44005H1.43V38.29V38.3401Z" fill="#22253E"/>
<path d="M40.3 42.66H3.73C3.63545 42.66 3.54183 42.6413 3.45447 42.6051C3.36712 42.569 3.28775 42.5159 3.22089 42.4491C3.15403 42.3822 3.10099 42.3028 3.06481 42.2155C3.02862 42.1281 3.01 42.0345 3.01 41.94V3.65994C3.01 3.46899 3.08586 3.28586 3.22089 3.15083C3.35592 3.01581 3.53904 2.93994 3.73 2.93994H32.61C32.801 2.93994 32.9841 3.01581 33.1191 3.15083C33.2542 3.28586 33.33 3.46899 33.33 3.65994V15.59C33.3093 15.765 33.225 15.9264 33.0932 16.0435C32.9614 16.1606 32.7913 16.2252 32.615 16.2252C32.4387 16.2252 32.2686 16.1606 32.1368 16.0435C32.005 15.9264 31.9208 15.765 31.9 15.59V4.37994H4.45V41.2299H40.3C40.4751 41.2507 40.6364 41.3349 40.7535 41.4667C40.8706 41.5985 40.9353 41.7686 40.9353 41.9449C40.9353 42.1212 40.8706 42.2914 40.7535 42.4232C40.6364 42.555 40.4751 42.6392 40.3 42.66Z" fill="#22253E"/>
<path d="M23.49 9.65997H10.75C10.649 9.67193 10.5466 9.66236 10.4496 9.63189C10.3526 9.60143 10.2631 9.55075 10.1871 9.4832C10.111 9.41565 10.0502 9.33276 10.0085 9.23999C9.96685 9.14722 9.9453 9.04667 9.9453 8.94497C9.9453 8.84327 9.96685 8.74272 10.0085 8.64995C10.0502 8.55717 10.111 8.47429 10.1871 8.40674C10.2631 8.33918 10.3526 8.28851 10.4496 8.25804C10.5466 8.22757 10.649 8.21801 10.75 8.22998H23.49C23.6651 8.25072 23.8264 8.33495 23.9435 8.46673C24.0606 8.59852 24.1253 8.76869 24.1253 8.94497C24.1253 9.12126 24.0606 9.29142 23.9435 9.4232C23.8264 9.55498 23.6651 9.63923 23.49 9.65997Z" fill="#22253E"/>
<path d="M28.23 14.09H8.33001C8.15494 14.0693 7.99356 13.985 7.87647 13.8533C7.75938 13.7215 7.69471 13.5513 7.69471 13.375C7.69471 13.1987 7.75938 13.0286 7.87647 12.8968C7.99356 12.765 8.15494 12.6808 8.33001 12.66H28.23C28.331 12.6481 28.4334 12.6576 28.5304 12.6881C28.6274 12.7186 28.7169 12.7693 28.7929 12.8368C28.869 12.9044 28.9298 12.9872 28.9715 13.08C29.0132 13.1728 29.0347 13.2733 29.0347 13.375C29.0347 13.4767 29.0132 13.5773 28.9715 13.6701C28.9298 13.7628 28.869 13.8457 28.7929 13.9133C28.7169 13.9808 28.6274 14.0315 28.5304 14.062C28.4334 14.0924 28.331 14.102 28.23 14.09Z" fill="#22253E"/>
<path d="M22.47 18.5101H8.33001C8.15494 18.4893 7.99356 18.4051 7.87647 18.2733C7.75938 18.1415 7.69471 17.9713 7.69471 17.7951C7.69471 17.6188 7.75938 17.4486 7.87647 17.3168C7.99356 17.185 8.15494 17.1008 8.33001 17.0801H22.46C22.5609 17.0674 22.6633 17.0763 22.7606 17.1061C22.8578 17.1359 22.9476 17.1859 23.0241 17.253C23.1005 17.32 23.162 17.4024 23.2043 17.4949C23.2466 17.5874 23.2688 17.6878 23.2695 17.7894C23.2702 17.8911 23.2494 17.9918 23.2084 18.0848C23.1674 18.1779 23.1071 18.2612 23.0316 18.3293C22.9561 18.3974 22.867 18.4487 22.7702 18.4798C22.6734 18.511 22.5711 18.5213 22.47 18.5101Z" fill="#22253E"/>
<path d="M15.59 22.93H8.33001C8.15494 22.9092 7.99356 22.825 7.87647 22.6932C7.75938 22.5614 7.69471 22.3913 7.69471 22.215C7.69471 22.0387 7.75938 21.8685 7.87647 21.7367C7.99356 21.605 8.15494 21.5207 8.33001 21.5H15.58C15.6809 21.4873 15.7833 21.4962 15.8806 21.526C15.9778 21.5558 16.0676 21.6059 16.1441 21.6729C16.2205 21.7399 16.282 21.8223 16.3243 21.9148C16.3666 22.0073 16.3888 22.1077 16.3895 22.2094C16.3902 22.311 16.3694 22.4117 16.3284 22.5048C16.2874 22.5978 16.2271 22.6811 16.1516 22.7492C16.0761 22.8173 15.987 22.8686 15.8902 22.8998C15.7934 22.9309 15.6911 22.9412 15.59 22.93Z" fill="#22253E"/>
<path d="M29.4 42.5901C29.3206 42.6035 29.2394 42.6035 29.16 42.5901C29.05 42.5901 18.16 38.4101 17.95 23.6801C17.9489 23.5526 17.9816 23.4271 18.0448 23.3164C18.1081 23.2057 18.1996 23.1138 18.31 23.05L29.04 16.7701C29.1494 16.7069 29.2736 16.6736 29.4 16.6736C29.5264 16.6736 29.6505 16.7069 29.76 16.7701L40.5 23.0101C40.6104 23.0738 40.7019 23.1657 40.7652 23.2764C40.8284 23.3871 40.8611 23.5126 40.86 23.64C40.68 38.37 29.76 42.51 29.65 42.55C29.5697 42.578 29.4851 42.5916 29.4 42.5901ZM19.4 24.0401C19.73 36.2601 27.9 40.43 29.4 41.1C30.97 40.43 39.08 36.3701 39.4 24.0401L29.4 18.22L19.4 24.0401Z" fill="#22253E"/>
<path d="M29.4 42.59C29.2091 42.59 29.0259 42.5142 28.8909 42.3792C28.7559 42.2441 28.68 42.061 28.68 41.87V17.39C28.668 17.289 28.6776 17.1867 28.7081 17.0896C28.7385 16.9926 28.7892 16.9031 28.8568 16.8271C28.9243 16.7511 29.0072 16.6902 29.1 16.6485C29.1928 16.6069 29.2933 16.5853 29.395 16.5853C29.4967 16.5853 29.5973 16.6069 29.69 16.6485C29.7828 16.6902 29.8657 16.7511 29.9332 16.8271C30.0008 16.9031 30.0515 16.9926 30.0819 17.0896C30.1124 17.1867 30.122 17.289 30.11 17.39V41.87C30.11 42.0593 30.0355 42.2409 29.9027 42.3757C29.7698 42.5104 29.5892 42.5874 29.4 42.59Z" fill="#22253E"/>
<path d="M9.45001 34.59C9.18237 34.6032 8.91811 34.5257 8.70001 34.37C7.81001 33.73 8.05001 32.37 8.14001 31.89C8.23001 31.41 8.63 29.48 9.96 29.5C10.5352 29.5225 11.0827 29.7535 11.5 30.15C11.6331 30.2798 11.7381 30.4356 11.8086 30.6075C11.8791 30.7795 11.9136 30.9642 11.91 31.15C11.8999 31.3376 11.8188 31.5142 11.6833 31.6442C11.5477 31.7742 11.3678 31.8477 11.18 31.85C10.9976 31.8451 10.8239 31.7711 10.694 31.643C10.564 31.515 10.4875 31.3423 10.48 31.16C10.35 31.0533 10.1953 30.9811 10.03 30.95C9.78502 31.3095 9.62435 31.7197 9.56001 32.15C9.4836 32.479 9.4836 32.8211 9.56001 33.15C9.9767 33.0964 10.386 32.9958 10.78 32.85C11.4646 32.6916 12.1195 32.425 12.72 32.06C13.154 31.6746 13.4783 31.1812 13.66 30.63C13.7164 30.3696 13.8528 30.1332 14.05 29.954C14.2471 29.7747 14.4954 29.6614 14.76 29.63C15.64 29.63 16.01 30.71 16.35 32.53C16.3772 32.6264 16.3841 32.7275 16.37 32.8267C16.356 32.9259 16.3214 33.0211 16.2685 33.1061C16.2156 33.1912 16.1455 33.2643 16.0627 33.3207C15.9799 33.3772 15.8862 33.4157 15.7877 33.4339C15.6892 33.452 15.5879 33.4494 15.4905 33.4262C15.393 33.403 15.3014 33.3598 15.2216 33.2992C15.1419 33.2386 15.0756 33.162 15.0271 33.0743C14.9786 32.9866 14.9489 32.8898 14.94 32.79C14.86 32.38 14.79 32.05 14.73 31.79C14.4712 32.3265 14.0993 32.8007 13.64 33.18C12.907 33.6556 12.0939 33.9945 11.24 34.18C10.6679 34.4077 10.0642 34.546 9.45001 34.59Z" fill="#22253E"/>
<path d="M15.59 37.71H8.76C8.659 37.722 8.55663 37.7124 8.4596 37.6819C8.36257 37.6515 8.27308 37.6008 8.19706 37.5333C8.12103 37.4657 8.06018 37.3828 8.01851 37.29C7.97684 37.1973 7.9553 37.0967 7.9553 36.995C7.9553 36.8933 7.97684 36.7928 8.01851 36.7C8.06018 36.6072 8.12103 36.5243 8.19706 36.4568C8.27308 36.3892 8.36257 36.3385 8.4596 36.3081C8.55663 36.2776 8.659 36.2681 8.76 36.28H15.59C15.691 36.2681 15.7934 36.2776 15.8904 36.3081C15.9874 36.3385 16.0769 36.3892 16.1529 36.4568C16.229 36.5243 16.2898 36.6072 16.3315 36.7C16.3732 36.7928 16.3947 36.8933 16.3947 36.995C16.3947 37.0967 16.3732 37.1973 16.3315 37.29C16.2898 37.3828 16.229 37.4657 16.1529 37.5333C16.0769 37.6008 15.9874 37.6515 15.8904 37.6819C15.7934 37.7124 15.691 37.722 15.59 37.71Z" fill="#22253E"/>
</g>

</symbol><symbol id="briefcase" viewBox="0 0 45 37">
<g clip-path="url(#clip0)">
<path d="M15.21 27.08H8.90999C8.3545 27.0724 7.82377 26.8489 7.43001 26.457C7.03625 26.0651 6.81032 25.5355 6.79999 24.98V23.69C6.79999 23.1225 7.02545 22.5782 7.42677 22.1768C7.8281 21.7755 8.37242 21.55 8.93999 21.55H9.79999C9.90098 21.5381 10.0034 21.5476 10.1004 21.5781C10.1974 21.6086 10.2869 21.6593 10.3629 21.7268C10.439 21.7944 10.4998 21.8772 10.5415 21.97C10.5831 22.0628 10.6047 22.1633 10.6047 22.265C10.6047 22.3667 10.5831 22.4673 10.5415 22.5601C10.4998 22.6528 10.439 22.7357 10.3629 22.8033C10.2869 22.8708 10.1974 22.9215 10.1004 22.952C10.0034 22.9824 9.90098 22.992 9.79999 22.98H8.93999C8.75434 22.98 8.57628 23.0538 8.44501 23.1851C8.31373 23.3163 8.23999 23.4944 8.23999 23.68V24.98C8.23999 25.1657 8.31373 25.3437 8.44501 25.475C8.57628 25.6063 8.75434 25.6801 8.93999 25.6801H15.24C15.4256 25.6801 15.6037 25.6063 15.735 25.475C15.8662 25.3437 15.94 25.1657 15.94 24.98V23.69C15.94 23.5044 15.8662 23.3263 15.735 23.1951C15.6037 23.0638 15.4256 22.99 15.24 22.99H14.38C14.279 23.002 14.1766 22.9924 14.0796 22.962C13.9825 22.9315 13.8931 22.8808 13.817 22.8133C13.741 22.7457 13.6802 22.6628 13.6385 22.5701C13.5968 22.4773 13.5753 22.3767 13.5753 22.275C13.5753 22.1733 13.5968 22.0728 13.6385 21.98C13.6802 21.8873 13.741 21.8044 13.817 21.7368C13.8931 21.6693 13.9825 21.6186 14.0796 21.5881C14.1766 21.5576 14.279 21.5481 14.38 21.56H15.24C15.8076 21.56 16.3519 21.7855 16.7532 22.1868C17.1545 22.5882 17.38 23.1325 17.38 23.7V24.98C17.3695 25.5459 17.1352 26.0845 16.7286 26.4781C16.3219 26.8716 15.7759 27.0881 15.21 27.08Z" fill="#22253E"/>
<path d="M35.24 27.08H28.94C28.3793 27.0801 27.8409 26.8602 27.4408 26.4675C27.0406 26.0747 26.8105 25.5406 26.8 24.98V23.69C26.8 23.1225 27.0254 22.5782 27.4268 22.1768C27.8281 21.7755 28.3724 21.55 28.94 21.55H29.8C29.901 21.5381 30.0034 21.5476 30.1004 21.5781C30.1974 21.6086 30.2869 21.6593 30.3629 21.7268C30.4389 21.7944 30.4998 21.8772 30.5415 21.97C30.5831 22.0628 30.6047 22.1633 30.6047 22.265C30.6047 22.3667 30.5831 22.4673 30.5415 22.5601C30.4998 22.6528 30.4389 22.7357 30.3629 22.8033C30.2869 22.8708 30.1974 22.9215 30.1004 22.952C30.0034 22.9824 29.901 22.992 29.8 22.98H28.94C28.7544 22.98 28.5763 23.0538 28.445 23.1851C28.3137 23.3163 28.24 23.4944 28.24 23.68V24.98C28.24 25.1657 28.3137 25.3437 28.445 25.475C28.5763 25.6063 28.7544 25.6801 28.94 25.6801H35.24C35.4256 25.6801 35.6037 25.6063 35.735 25.475C35.8662 25.3437 35.94 25.1657 35.94 24.98V23.69C35.94 23.5044 35.8662 23.3263 35.735 23.1951C35.6037 23.0638 35.4256 22.99 35.24 22.99H34.38C34.2049 22.9693 34.0435 22.8851 33.9265 22.7533C33.8094 22.6215 33.7447 22.4513 33.7447 22.275C33.7447 22.0987 33.8094 21.9286 33.9265 21.7968C34.0435 21.665 34.2049 21.5808 34.38 21.56H35.24C35.8076 21.56 36.3519 21.7855 36.7532 22.1868C37.1545 22.5882 37.38 23.1325 37.38 23.7V24.98C37.3695 25.5406 37.1394 26.0747 36.7392 26.4675C36.339 26.8602 35.8007 27.0801 35.24 27.08Z" fill="#22253E"/>
<path d="M43.44 16.34H34.38C34.2854 16.34 34.1918 16.3214 34.1045 16.2852C34.0171 16.249 33.9377 16.196 33.8709 16.1292C33.804 16.0623 33.751 15.9829 33.7148 15.8956C33.6786 15.8082 33.66 15.7146 33.66 15.62V13.2H30.53V15.62C30.53 15.7146 30.5114 15.8082 30.4752 15.8956C30.439 15.9829 30.386 16.0623 30.3191 16.1292C30.2522 16.196 30.1729 16.249 30.0855 16.2852C29.9982 16.3214 29.9045 16.34 29.81 16.34H14.34C14.149 16.34 13.9659 16.2642 13.8309 16.1292C13.6958 15.9941 13.62 15.811 13.62 15.62V13.2H10.49V15.62C10.49 15.811 10.4141 15.9941 10.2791 16.1292C10.1441 16.2642 9.96095 16.34 9.76999 16.34H0.709991C0.519036 16.34 0.335893 16.2642 0.200867 16.1292C0.0658405 15.9941 -0.0100098 15.811 -0.0100098 15.62V8.57002C-0.0100098 7.39777 0.455666 6.27352 1.28458 5.44461C2.11349 4.6157 3.23773 4.15002 4.40999 4.15002H39.73C40.3104 4.15002 40.8852 4.26435 41.4214 4.48648C41.9577 4.70861 42.445 5.03418 42.8554 5.44461C43.2658 5.85505 43.5914 6.34231 43.8135 6.87857C44.0357 7.41483 44.15 7.98958 44.15 8.57002V15.62C44.15 15.8093 44.0755 15.9909 43.9427 16.1256C43.8098 16.2604 43.6292 16.3374 43.44 16.34ZM35.1 14.91H42.73V8.57002C42.73 7.77437 42.4139 7.01131 41.8513 6.4487C41.2887 5.88609 40.5256 5.57002 39.73 5.57002H4.40999C3.61434 5.57002 2.85127 5.88609 2.28867 6.4487C1.72606 7.01131 1.40999 7.77437 1.40999 8.57002V14.91H9.03999V12.49C9.03999 12.2991 9.11584 12.1159 9.25087 11.9809C9.3859 11.8459 9.56904 11.77 9.75999 11.77H14.33C14.5209 11.77 14.7041 11.8459 14.8391 11.9809C14.9741 12.1159 15.05 12.2991 15.05 12.49V14.91H29.05V12.49C29.05 12.3955 29.0686 12.3018 29.1048 12.2145C29.141 12.1271 29.194 12.0478 29.2609 11.9809C29.3277 11.9141 29.4071 11.861 29.4944 11.8248C29.5818 11.7886 29.6754 11.77 29.77 11.77H34.34C34.531 11.77 34.7141 11.8459 34.8491 11.9809C34.9841 12.1159 35.06 12.2991 35.06 12.49V14.91H35.1Z" fill="#22253E"/>
<path d="M42.04 31.43C41.849 31.43 41.6659 31.3541 41.5309 31.2191C41.3959 31.0841 41.32 30.9009 41.32 30.71V29.56C41.3407 29.3849 41.425 29.2235 41.5568 29.1064C41.6885 28.9894 41.8587 28.9247 42.035 28.9247C42.2113 28.9247 42.3814 28.9894 42.5132 29.1064C42.645 29.2235 42.7293 29.3849 42.75 29.56V30.71C42.75 30.8992 42.6755 31.0809 42.5427 31.2156C42.4098 31.3503 42.2292 31.4274 42.04 31.43Z" fill="#22253E"/>
<path d="M42.04 26.09C41.849 26.09 41.6659 26.0142 41.5309 25.8792C41.3959 25.7441 41.32 25.561 41.32 25.3701V23.2701C41.3407 23.095 41.425 22.9336 41.5568 22.8165C41.6885 22.6994 41.8587 22.6348 42.035 22.6348C42.2113 22.6348 42.3814 22.6994 42.5132 22.8165C42.645 22.9336 42.7293 23.095 42.75 23.2701V25.3701C42.75 25.5593 42.6755 25.7409 42.5427 25.8757C42.4098 26.0104 42.2292 26.0874 42.04 26.09Z" fill="#22253E"/>
<path d="M42.04 19.7901C41.849 19.7901 41.6659 19.7142 41.5309 19.5792C41.3959 19.4442 41.32 19.261 41.32 19.0701V17.9201C41.308 17.8191 41.3176 17.7167 41.348 17.6196C41.3785 17.5226 41.4292 17.4331 41.4968 17.3571C41.5643 17.2811 41.6472 17.2202 41.74 17.1786C41.8327 17.1369 41.9333 17.1154 42.035 17.1154C42.1367 17.1154 42.2372 17.1369 42.33 17.1786C42.4228 17.2202 42.5057 17.2811 42.5732 17.3571C42.6408 17.4331 42.6914 17.5226 42.7219 17.6196C42.7524 17.7167 42.762 17.8191 42.75 17.9201V19.0701C42.75 19.2593 42.6755 19.4409 42.5427 19.5757C42.4098 19.7104 42.2292 19.7874 42.04 19.7901Z" fill="#22253E"/>
<path d="M38.35 36.66H5.8C5.21956 36.66 4.64479 36.5457 4.10854 36.3236C3.57228 36.1015 3.08503 35.7759 2.67459 35.3654C2.26416 34.955 1.93859 34.4677 1.71646 33.9315C1.49434 33.3952 1.38 32.8205 1.38 32.2401V15.63C1.38 15.4391 1.45586 15.256 1.59088 15.1209C1.72591 14.9859 1.90905 14.91 2.10001 14.91H9.8C9.99096 14.91 10.1741 14.9859 10.3091 15.1209C10.4441 15.256 10.52 15.4391 10.52 15.63V28.5201H13.65V15.63C13.65 15.4391 13.7259 15.256 13.8609 15.1209C13.9959 14.9859 14.1791 14.91 14.37 14.91H29.8C29.8946 14.91 29.9882 14.9287 30.0755 14.9648C30.1629 15.001 30.2423 15.0541 30.3091 15.1209C30.376 15.1878 30.429 15.2672 30.4652 15.3545C30.5014 15.4419 30.52 15.5355 30.52 15.63V28.5201H33.65V15.63C33.65 15.4391 33.7259 15.256 33.8609 15.1209C33.9959 14.9859 34.1791 14.91 34.37 14.91H42.04C42.2309 14.91 42.4141 14.9859 42.5491 15.1209C42.6841 15.256 42.76 15.4391 42.76 15.63V17.93C42.7393 18.1051 42.655 18.2665 42.5232 18.3836C42.3915 18.5007 42.2213 18.5653 42.045 18.5653C41.8687 18.5653 41.6985 18.5007 41.5668 18.3836C41.435 18.2665 41.3507 18.1051 41.33 17.93V16.35H35.1V29.2401C35.1 29.431 35.0241 29.6141 34.8891 29.7491C34.7541 29.8842 34.5709 29.9601 34.38 29.9601H29.8C29.7055 29.9601 29.6118 29.9414 29.5245 29.9052C29.4371 29.8691 29.3577 29.816 29.2909 29.7491C29.224 29.6823 29.171 29.6029 29.1348 29.5156C29.0986 29.4282 29.08 29.3346 29.08 29.2401V16.34H15.08V29.23C15.08 29.421 15.0042 29.6041 14.8691 29.7392C14.7341 29.8742 14.551 29.95 14.36 29.95H9.8C9.60905 29.95 9.42592 29.8742 9.29089 29.7392C9.15587 29.6041 9.08 29.421 9.08 29.23V16.34H2.8V32.2401C2.8 33.0357 3.11607 33.7987 3.67868 34.3614C4.24129 34.924 5.00435 35.2401 5.8 35.2401H38.34C39.1357 35.2401 39.8987 34.924 40.4613 34.3614C41.0239 33.7987 41.34 33.0357 41.34 32.2401V30.72C41.328 30.619 41.3376 30.5167 41.3681 30.4196C41.3986 30.3226 41.4492 30.2331 41.5168 30.1571C41.5843 30.0811 41.6672 30.0202 41.76 29.9785C41.8528 29.9369 41.9533 29.9153 42.055 29.9153C42.1567 29.9153 42.2573 29.9369 42.35 29.9785C42.4428 30.0202 42.5257 30.0811 42.5932 30.1571C42.6608 30.2331 42.7115 30.3226 42.7419 30.4196C42.7724 30.5167 42.782 30.619 42.77 30.72V32.2401C42.77 32.8205 42.6557 33.3952 42.4335 33.9315C42.2114 34.4677 41.8859 34.955 41.4754 35.3654C41.065 35.7759 40.5777 36.1015 40.0415 36.3236C39.5052 36.5457 38.9304 36.66 38.35 36.66Z" fill="#22253E"/>
<path d="M29.43 5.59001H14.73C14.539 5.59001 14.3559 5.51416 14.2209 5.37914C14.0859 5.24411 14.01 5.06097 14.01 4.87001V3.87001C14.01 2.84627 14.4167 1.86447 15.1406 1.14058C15.8645 0.416689 16.8463 0.0100098 17.87 0.0100098H26.29C26.7969 0.0100098 27.2988 0.10985 27.7672 0.303833C28.2355 0.497816 28.661 0.782145 29.0194 1.14058C29.3779 1.49901 29.6622 1.92454 29.8562 2.39285C30.0502 2.86117 30.15 3.36311 30.15 3.87001V4.87001C30.15 4.96456 30.1314 5.05818 30.0952 5.14554C30.059 5.23289 30.006 5.31228 29.9391 5.37914C29.8723 5.44599 29.7929 5.49902 29.7055 5.5352C29.6182 5.57139 29.5246 5.59001 29.43 5.59001ZM15.43 4.16H28.7V3.87001C28.7 3.5509 28.6371 3.23492 28.515 2.94009C28.3929 2.64527 28.2139 2.37739 27.9883 2.15175C27.7626 1.9261 27.4947 1.7471 27.1999 1.62498C26.9051 1.50287 26.5891 1.44002 26.27 1.44002H17.85C17.2055 1.44002 16.5874 1.69604 16.1317 2.15175C15.676 2.60746 15.42 3.22553 15.42 3.87001V4.16H15.43Z" fill="#22253E"/>
<path d="M43.44 36.6599H0.710007C0.534943 36.6392 0.373562 36.555 0.25647 36.4232C0.139377 36.2914 0.074707 36.1212 0.074707 35.945C0.074707 35.7687 0.139377 35.5985 0.25647 35.4667C0.373562 35.3349 0.534943 35.2507 0.710007 35.23H43.43C43.5309 35.2173 43.6333 35.2262 43.7305 35.256C43.8278 35.2858 43.9176 35.3358 43.9941 35.4028C44.0705 35.4699 44.132 35.5523 44.1743 35.6448C44.2166 35.7372 44.2388 35.8376 44.2395 35.9393C44.2403 36.041 44.2194 36.1417 44.1784 36.2347C44.1374 36.3278 44.0771 36.4111 44.0016 36.4792C43.9261 36.5473 43.837 36.5986 43.7402 36.6297C43.6434 36.6609 43.5411 36.6712 43.44 36.6599Z" fill="#22253E"/>
</g>

</symbol><symbol id="collectors" viewBox="0 0 45 38">
<g clip-path="url(#clip0)">
<path d="M43.99 24.07C43.799 24.07 43.6159 23.9941 43.4809 23.8591C43.3459 23.7241 43.27 23.5409 43.27 23.35V22.2C43.258 22.099 43.2676 21.9966 43.2981 21.8996C43.3285 21.8025 43.3792 21.7131 43.4468 21.637C43.5143 21.561 43.5972 21.5002 43.69 21.4585C43.7827 21.4168 43.8833 21.3953 43.985 21.3953C44.0867 21.3953 44.1873 21.4168 44.28 21.4585C44.3728 21.5002 44.4557 21.561 44.5232 21.637C44.5908 21.7131 44.6415 21.8025 44.6719 21.8996C44.7024 21.9966 44.712 22.099 44.7 22.2V23.35C44.7 23.5392 44.6255 23.7208 44.4927 23.8556C44.3598 23.9903 44.1792 24.0673 43.99 24.07Z" fill="#22253E"/>
<path d="M43.99 19.97C43.799 19.97 43.6159 19.8942 43.4809 19.7592C43.3459 19.6241 43.27 19.441 43.27 19.25V17.74C43.2907 17.565 43.375 17.4036 43.5068 17.2865C43.6386 17.1694 43.8087 17.1047 43.985 17.1047C44.1613 17.1047 44.3314 17.1694 44.4632 17.2865C44.595 17.4036 44.6793 17.565 44.7 17.74V19.22C44.704 19.3162 44.6887 19.4123 44.6549 19.5025C44.6212 19.5927 44.5697 19.6752 44.5035 19.7451C44.4373 19.815 44.3577 19.871 44.2695 19.9096C44.1813 19.9482 44.0863 19.9688 43.99 19.97Z" fill="#22253E"/>
<path d="M43.99 15.54C43.799 15.54 43.6159 15.4641 43.4809 15.3291C43.3459 15.194 43.27 15.0109 43.27 14.82V13.67C43.2907 13.4949 43.375 13.3335 43.5068 13.2164C43.6386 13.0993 43.8087 13.0347 43.985 13.0347C44.1613 13.0347 44.3314 13.0993 44.4632 13.2164C44.595 13.3335 44.6793 13.4949 44.7 13.67V14.82C44.7 15.0092 44.6255 15.1908 44.4927 15.3256C44.3598 15.4603 44.1792 15.5373 43.99 15.54Z" fill="#22253E"/>
<path d="M41.81 37.02H40.98C40.8049 36.9992 40.6436 36.915 40.5265 36.7832C40.4094 36.6515 40.3447 36.4813 40.3447 36.305C40.3447 36.1287 40.4094 35.9585 40.5265 35.8268C40.6436 35.695 40.8049 35.6107 40.98 35.59H41.81C42.003 35.59 42.1942 35.552 42.3726 35.4781C42.5509 35.4042 42.713 35.2959 42.8495 35.1594C42.986 35.0229 43.0942 34.8609 43.1681 34.6825C43.242 34.5042 43.28 34.313 43.28 34.12V23.35C43.268 23.249 43.2776 23.1466 43.3081 23.0496C43.3385 22.9525 43.3892 22.8631 43.4568 22.787C43.5243 22.711 43.6072 22.6502 43.7 22.6085C43.7928 22.5668 43.8933 22.5453 43.995 22.5453C44.0967 22.5453 44.1972 22.5668 44.29 22.6085C44.3828 22.6502 44.4657 22.711 44.5332 22.787C44.6008 22.8631 44.6514 22.9525 44.6819 23.0496C44.7124 23.1466 44.722 23.249 44.71 23.35V34.12C44.71 34.5008 44.635 34.8779 44.4893 35.2298C44.3435 35.5816 44.1299 35.9013 43.8606 36.1706C43.5913 36.4399 43.2716 36.6535 42.9198 36.7993C42.5679 36.945 42.1908 37.02 41.81 37.02Z" fill="#22253E"/>
<path d="M21.03 33.4001H4.57001C4.47546 33.4001 4.38182 33.3814 4.29446 33.3452C4.20711 33.3091 4.12774 33.256 4.06088 33.1892C3.99402 33.1223 3.94098 33.043 3.9048 32.9556C3.86862 32.8682 3.85001 32.7746 3.85001 32.6801V14.0201C3.85001 13.8291 3.92586 13.646 4.06088 13.5109C4.19591 13.3759 4.37905 13.3 4.57001 13.3H21.02C21.211 13.3 21.3941 13.3759 21.5291 13.5109C21.6641 13.646 21.74 13.8291 21.74 14.0201V32.6801C21.74 32.8693 21.6655 33.0509 21.5327 33.1857C21.3998 33.3204 21.2192 33.3974 21.03 33.4001ZM5.28999 31.9701H20.29V14.7401H5.28999V31.9701Z" fill="#22253E"/>
<path d="M36.5 15.8799H29.15C29.049 15.8919 28.9466 15.8823 28.8496 15.8519C28.7525 15.8214 28.6631 15.7707 28.5871 15.7032C28.511 15.6356 28.4502 15.5527 28.4085 15.46C28.3668 15.3672 28.3453 15.2666 28.3453 15.1649C28.3453 15.0632 28.3668 14.9627 28.4085 14.8699C28.4502 14.7771 28.511 14.6943 28.5871 14.6267C28.6631 14.5592 28.7525 14.5085 28.8496 14.478C28.9466 14.4475 29.049 14.438 29.15 14.4499H36.5C36.601 14.438 36.7034 14.4475 36.8004 14.478C36.8974 14.5085 36.9869 14.5592 37.0629 14.6267C37.139 14.6943 37.1998 14.7771 37.2415 14.8699C37.2832 14.9627 37.3047 15.0632 37.3047 15.1649C37.3047 15.2666 37.2832 15.3672 37.2415 15.46C37.1998 15.5527 37.139 15.6356 37.0629 15.7032C36.9869 15.7707 36.8974 15.8214 36.8004 15.8519C36.7034 15.8823 36.601 15.8919 36.5 15.8799Z" fill="#22253E"/>
<path d="M39.79 19.51H25.85C25.6749 19.4892 25.5136 19.405 25.3965 19.2732C25.2794 19.1414 25.2147 18.9712 25.2147 18.795C25.2147 18.6187 25.2794 18.4485 25.3965 18.3167C25.5136 18.1849 25.6749 18.1007 25.85 18.08H39.79C39.9651 18.1007 40.1264 18.1849 40.2435 18.3167C40.3606 18.4485 40.4253 18.6187 40.4253 18.795C40.4253 18.9712 40.3606 19.1414 40.2435 19.2732C40.1264 19.405 39.9651 19.4892 39.79 19.51Z" fill="#22253E"/>
<path d="M39.79 23.1299H25.85C25.6749 23.1092 25.5136 23.025 25.3965 22.8932C25.2794 22.7614 25.2147 22.5912 25.2147 22.4149C25.2147 22.2387 25.2794 22.0685 25.3965 21.9367C25.5136 21.8049 25.6749 21.7207 25.85 21.7H39.79C39.9651 21.7207 40.1264 21.8049 40.2435 21.9367C40.3606 22.0685 40.4253 22.2387 40.4253 22.4149C40.4253 22.5912 40.3606 22.7614 40.2435 22.8932C40.1264 23.025 39.9651 23.1092 39.79 23.1299Z" fill="#22253E"/>
<path d="M39.79 26.7401H25.85C25.6749 26.7193 25.5136 26.6351 25.3965 26.5033C25.2794 26.3715 25.2147 26.2013 25.2147 26.0251C25.2147 25.8488 25.2794 25.6786 25.3965 25.5468C25.5136 25.415 25.6749 25.3308 25.85 25.3101H39.79C39.9651 25.3308 40.1264 25.415 40.2435 25.5468C40.3606 25.6786 40.4253 25.8488 40.4253 26.0251C40.4253 26.2013 40.3606 26.3715 40.2435 26.5033C40.1264 26.6351 39.9651 26.7193 39.79 26.7401Z" fill="#22253E"/>
<path d="M35.39 31.3801H35.23C34.9944 31.3077 34.78 31.1787 34.6057 31.0044C34.4314 30.8301 34.3024 30.6157 34.23 30.3801C34.1779 30.2168 34.1856 30.0403 34.252 29.8823C34.3183 29.7243 34.4388 29.5951 34.5918 29.518C34.7449 29.4409 34.9204 29.4209 35.0868 29.4616C35.2533 29.5023 35.3998 29.601 35.5 29.7401L35.61 29.61C35.7599 29.3624 35.9712 29.1577 36.2235 29.0158C36.4758 28.8739 36.7605 28.7996 37.05 28.8001C37.2802 28.861 37.4919 28.9778 37.6663 29.14C37.8408 29.3022 37.9725 29.5048 38.05 29.73L38.16 29.61C38.3081 29.3653 38.5163 29.1624 38.7648 29.0207C39.0133 28.8789 39.2939 28.803 39.58 28.8001C39.7478 28.8283 39.9003 28.9152 40.0102 29.0451C40.1201 29.1751 40.1804 29.3398 40.1804 29.51C40.1804 29.6803 40.1201 29.845 40.0102 29.975C39.9003 30.105 39.7478 30.1918 39.58 30.2201C39.474 30.3209 39.3738 30.4278 39.28 30.54C39.1308 30.7883 38.9196 30.9936 38.6672 31.1356C38.4147 31.2776 38.1296 31.3515 37.84 31.35C37.6097 31.2891 37.3981 31.1723 37.2237 31.0101C37.0492 30.8479 36.9175 30.6453 36.84 30.42L36.73 30.54C36.5837 30.7714 36.3873 30.9669 36.1554 31.1123C35.9235 31.2577 35.662 31.3492 35.39 31.3801Z" fill="#22253E"/>
<path d="M32.71 30.81H31.59C31.4149 30.7893 31.2536 30.705 31.1365 30.5732C31.0194 30.4414 30.9547 30.2713 30.9547 30.095C30.9547 29.9187 31.0194 29.7485 31.1365 29.6168C31.2536 29.485 31.4149 29.4007 31.59 29.38H32.71C32.811 29.368 32.9134 29.3776 33.0104 29.4081C33.1074 29.4385 33.1969 29.4892 33.2729 29.5568C33.349 29.6243 33.4098 29.7072 33.4515 29.8C33.4931 29.8927 33.5147 29.9933 33.5147 30.095C33.5147 30.1967 33.4931 30.2972 33.4515 30.39C33.4098 30.4828 33.349 30.5657 33.2729 30.6332C33.1969 30.7008 33.1074 30.7515 33.0104 30.7819C32.9134 30.8124 32.811 30.822 32.71 30.81Z" fill="#22253E"/>
<path d="M35.25 37.02H2.89999C2.13087 37.02 1.39325 36.7145 0.849396 36.1706C0.30554 35.6268 0 34.8892 0 34.12V12.58C0 11.8109 0.30554 11.0733 0.849396 10.5294C1.39325 9.98555 2.13087 9.68002 2.89999 9.68002H14.5C14.691 9.68002 14.8741 9.75587 15.0091 9.8909C15.1441 10.0259 15.22 10.2091 15.22 10.4H29.57C29.566 10.3025 29.5816 10.2052 29.6158 10.1138C29.6501 10.0224 29.7023 9.93876 29.7694 9.8679C29.8366 9.79705 29.9172 9.74038 30.0066 9.70123C30.096 9.66209 30.1924 9.64127 30.29 9.64001H41.85C42.6191 9.64001 43.3568 9.94555 43.9006 10.4894C44.4445 11.0333 44.75 11.7709 44.75 12.54V13.63C44.7293 13.8051 44.645 13.9664 44.5132 14.0835C44.3815 14.2006 44.2113 14.2653 44.035 14.2653C43.8587 14.2653 43.6885 14.2006 43.5568 14.0835C43.425 13.9664 43.3407 13.8051 43.32 13.63V12.54C43.32 12.1502 43.1651 11.7763 42.8894 11.5006C42.6138 11.2249 42.2399 11.07 41.85 11.07H30.96C30.964 11.1675 30.9484 11.2649 30.9142 11.3563C30.8799 11.4477 30.8277 11.5313 30.7606 11.6021C30.6934 11.673 30.6128 11.7297 30.5234 11.7688C30.434 11.808 30.3376 11.8288 30.24 11.83H14.5C14.309 11.83 14.1259 11.7542 13.9909 11.6191C13.8559 11.4841 13.78 11.301 13.78 11.11H2.92999C2.54012 11.11 2.16623 11.2649 1.89055 11.5406C1.61487 11.8163 1.46001 12.1901 1.46001 12.58V34.12C1.46001 34.5099 1.61487 34.8838 1.89055 35.1595C2.16623 35.4351 2.54012 35.59 2.92999 35.59H35.29C35.3911 35.5812 35.4929 35.5939 35.5888 35.6273C35.6847 35.6606 35.7724 35.7139 35.8463 35.7835C35.9201 35.8531 35.9784 35.9376 36.0173 36.0313C36.0562 36.1251 36.0748 36.226 36.072 36.3275C36.0692 36.4289 36.0449 36.5286 36.0008 36.6201C35.9567 36.7115 35.8938 36.7925 35.8162 36.8579C35.7386 36.9233 35.648 36.9716 35.5504 36.9995C35.4528 37.0274 35.3505 37.0344 35.25 37.02Z" fill="#22253E"/>
<path d="M30.25 11.8801H14.5C14.309 11.8801 14.1259 11.8042 13.9909 11.6692C13.8559 11.5341 13.78 11.351 13.78 11.16V7.64005C13.78 7.44909 13.8559 7.26596 13.9909 7.13094C14.1259 6.99591 14.309 6.92004 14.5 6.92004H30.29C30.481 6.92004 30.6641 6.99591 30.7991 7.13094C30.9341 7.26596 31.01 7.44909 31.01 7.64005V11.16C31.0102 11.2581 30.9903 11.3551 30.9516 11.4451C30.913 11.5352 30.8563 11.6164 30.7852 11.6839C30.714 11.7513 30.6299 11.8034 30.5378 11.8372C30.4458 11.8709 30.3479 11.8855 30.25 11.8801ZM15.18 10.4501H29.5V8.36005H15.18V10.4501Z" fill="#22253E"/>
<path d="M27.5 8.35994H17.25C17.059 8.35994 16.8759 8.28409 16.7409 8.14906C16.6059 8.01404 16.53 7.83089 16.53 7.63994V4.40994C16.53 4.21899 16.6059 4.03586 16.7409 3.90083C16.8759 3.76581 17.059 3.68994 17.25 3.68994H20.59C20.6976 3.69025 20.8037 3.71466 20.9007 3.76138C20.9976 3.80811 21.0828 3.87596 21.15 3.95995C21.293 4.14471 21.4764 4.29427 21.6861 4.39717C21.8959 4.50007 22.1264 4.55357 22.36 4.55357C22.5936 4.55357 22.8241 4.50007 23.0339 4.39717C23.2436 4.29427 23.427 4.14471 23.57 3.95995C23.6372 3.87596 23.7224 3.80811 23.8194 3.76138C23.9163 3.71466 24.0224 3.69025 24.13 3.68994H27.5C27.691 3.68994 27.8741 3.76581 28.0091 3.90083C28.1442 4.03586 28.22 4.21899 28.22 4.40994V7.63994C28.22 7.83089 28.1442 8.01404 28.0091 8.14906C27.8741 8.28409 27.691 8.35994 27.5 8.35994ZM18 6.92995H26.78V5.12994H24.47C23.9106 5.67066 23.163 5.97292 22.385 5.97292C21.607 5.97292 20.8594 5.67066 20.3 5.12994H17.99V6.92995H18Z" fill="#22253E"/>
<path d="M22.35 5.97999C21.7567 5.97999 21.1766 5.80403 20.6833 5.47439C20.1899 5.14475 19.8054 4.67621 19.5784 4.12803C19.3513 3.57985 19.2919 2.97665 19.4076 2.39471C19.5234 1.81277 19.8091 1.27822 20.2287 0.858667C20.6482 0.43911 21.1828 0.153378 21.7647 0.0376225C22.3467 -0.0781331 22.9499 -0.0187098 23.498 0.208353C24.0462 0.435416 24.5148 0.819925 24.8444 1.31327C25.174 1.80662 25.35 2.38665 25.35 2.97999C25.35 3.77564 25.0339 4.53869 24.4713 5.1013C23.9087 5.66391 23.1457 5.97999 22.35 5.97999ZM22.35 1.42999C22.0415 1.42999 21.7398 1.52148 21.4833 1.6929C21.2268 1.86431 21.0268 2.10795 20.9088 2.393C20.7907 2.67805 20.7598 2.99171 20.82 3.29432C20.8802 3.59693 21.0287 3.8749 21.2469 4.09307C21.4651 4.31124 21.743 4.45982 22.0457 4.52001C22.3483 4.58021 22.6619 4.54931 22.947 4.43124C23.232 4.31317 23.4757 4.11321 23.6471 3.85667C23.8185 3.60013 23.91 3.29852 23.91 2.98998C23.9074 2.57798 23.7418 2.18375 23.4496 1.89335C23.1573 1.60295 22.762 1.43997 22.35 1.43998V1.42999Z" fill="#22253E"/>
<path d="M40.05 11.11H34.99C34.799 11.11 34.6159 11.0342 34.4809 10.8991C34.3459 10.7641 34.27 10.581 34.27 10.39C34.27 9.52806 34.6124 8.70141 35.2219 8.09192C35.8314 7.48243 36.658 7.14001 37.52 7.14001C38.3819 7.14001 39.2086 7.48243 39.8181 8.09192C40.4276 8.70141 40.77 9.52806 40.77 10.39C40.77 10.581 40.6941 10.7641 40.5591 10.8991C40.4241 11.0342 40.2409 11.11 40.05 11.11ZM35.85 9.68002H39.18C39.0408 9.35364 38.8088 9.07535 38.5128 8.87975C38.2168 8.68415 37.8698 8.57986 37.515 8.57986C37.1602 8.57986 36.8132 8.68415 36.5172 8.87975C36.2212 9.07535 35.9892 9.35364 35.85 9.68002Z" fill="#22253E"/>
<path d="M9.72 11.11H4.66C4.46905 11.11 4.28591 11.0342 4.15088 10.8991C4.01585 10.7641 3.94 10.581 3.94 10.39C3.94 9.52806 4.28241 8.70141 4.89191 8.09192C5.5014 7.48243 6.32805 7.14001 7.19 7.14001C8.05196 7.14001 8.8786 7.48243 9.4881 8.09192C10.0976 8.70141 10.44 9.52806 10.44 10.39C10.44 10.581 10.3641 10.7641 10.2291 10.8991C10.0941 11.0342 9.91096 11.11 9.72 11.11ZM5.52 9.68002H8.85001C8.71387 9.34759 8.48189 9.06318 8.18361 8.86301C7.88533 8.66283 7.53423 8.55594 7.175 8.55594C6.81578 8.55594 6.46467 8.66283 6.16638 8.86301C5.8681 9.06318 5.63613 9.34759 5.5 9.68002H5.52Z" fill="#22253E"/>
<path d="M18.6 33.4H7C6.90545 33.4 6.81183 33.3814 6.72447 33.3452C6.63712 33.309 6.55775 33.256 6.49089 33.1891C6.42403 33.1223 6.37099 33.0429 6.33481 32.9555C6.29862 32.8682 6.28 32.7745 6.28 32.68V28.74C6.28264 27.7171 6.69016 26.7368 7.41348 26.0135C8.1368 25.2902 9.11708 24.8826 10.14 24.88H15.5C16.5229 24.8826 17.5032 25.2902 18.2265 26.0135C18.9498 26.7368 19.3574 27.7171 19.36 28.74V32.65C19.3644 32.7505 19.3476 32.8508 19.3108 32.9444C19.274 33.0381 19.218 33.1229 19.1464 33.1936C19.0748 33.2643 18.9892 33.3192 18.8951 33.3547C18.801 33.3903 18.7004 33.4057 18.6 33.4ZM7.71001 31.97H17.88V28.74C17.88 28.0955 17.624 27.4774 17.1683 27.0217C16.7126 26.566 16.0945 26.31 15.45 26.31H10.14C9.49552 26.31 8.87745 26.566 8.42174 27.0217C7.96602 27.4774 7.71001 28.0955 7.71001 28.74V31.93V31.97Z" fill="#22253E"/>
<path d="M9.44 33.4C9.34544 33.4 9.25182 33.3813 9.16447 33.3452C9.07711 33.309 8.99773 33.2559 8.93087 33.1891C8.86401 33.1222 8.81099 33.0429 8.7748 32.9555C8.73862 32.8682 8.72 32.7745 8.72 32.68V29.5699C8.70803 29.469 8.7176 29.3666 8.74807 29.2696C8.77854 29.1725 8.82922 29.083 8.89677 29.007C8.96432 28.931 9.04721 28.8701 9.13998 28.8285C9.23275 28.7868 9.33329 28.7653 9.43499 28.7653C9.53669 28.7653 9.63725 28.7868 9.73002 28.8285C9.82279 28.8701 9.90568 28.931 9.97323 29.007C10.0408 29.083 10.0915 29.1725 10.1219 29.2696C10.1524 29.3666 10.162 29.469 10.15 29.5699V32.68C10.15 32.8692 10.0755 33.0508 9.94265 33.1856C9.80978 33.3203 9.62921 33.3973 9.44 33.4Z" fill="#22253E"/>
<path d="M16.16 33.4C16.0654 33.4 15.9718 33.3813 15.8845 33.3452C15.7971 33.309 15.7177 33.2559 15.6509 33.1891C15.584 33.1222 15.531 33.0429 15.4948 32.9555C15.4586 32.8682 15.44 32.7745 15.44 32.68V29.5699C15.428 29.469 15.4376 29.3666 15.4681 29.2696C15.4985 29.1725 15.5492 29.083 15.6168 29.007C15.6843 28.931 15.7672 28.8701 15.86 28.8285C15.9528 28.7868 16.0533 28.7653 16.155 28.7653C16.2567 28.7653 16.3572 28.7868 16.45 28.8285C16.5428 28.8701 16.6257 28.931 16.6932 29.007C16.7608 29.083 16.8115 29.1725 16.8419 29.2696C16.8724 29.3666 16.882 29.469 16.87 29.5699V32.68C16.87 32.8692 16.7955 33.0508 16.6627 33.1856C16.5298 33.3203 16.3492 33.3973 16.16 33.4Z" fill="#22253E"/>
<path d="M12.8 23.85C12.1315 23.85 11.478 23.6517 10.9222 23.2803C10.3663 22.9089 9.93312 22.381 9.67729 21.7634C9.42147 21.1458 9.35452 20.4662 9.48494 19.8106C9.61536 19.1549 9.93727 18.5526 10.41 18.0799C10.8827 17.6072 11.4849 17.2853 12.1406 17.1549C12.7963 17.0245 13.4759 17.0914 14.0935 17.3473C14.7111 17.6031 15.239 18.0363 15.6104 18.5921C15.9818 19.148 16.18 19.8015 16.18 20.47C16.18 21.3664 15.8239 22.2261 15.19 22.86C14.5561 23.4939 13.6964 23.85 12.8 23.85ZM12.8 18.53C12.4163 18.53 12.0412 18.6437 11.7222 18.8569C11.4032 19.0701 11.1545 19.3731 11.0077 19.7276C10.8608 20.082 10.8224 20.4721 10.8973 20.8484C10.9721 21.2248 11.1569 21.5704 11.4282 21.8418C11.6995 22.1131 12.0452 22.2978 12.4215 22.3727C12.7979 22.4475 13.1879 22.4091 13.5424 22.2623C13.8969 22.1155 14.1999 21.8668 14.4131 21.5478C14.6262 21.2287 14.74 20.8537 14.74 20.47C14.7374 19.9563 14.5321 19.4643 14.1689 19.1011C13.8056 18.7378 13.3137 18.5326 12.8 18.53Z" fill="#22253E"/>
</g>

</symbol><symbol id="experience" viewBox="0 0 39 44">
<g clip-path="url(#clip0)">
<path d="M35.19 38.84H30.52C30.3449 38.8192 30.1835 38.735 30.0664 38.6032C29.9494 38.4714 29.8847 38.3012 29.8847 38.125C29.8847 37.9487 29.9494 37.7785 30.0664 37.6467C30.1835 37.5149 30.3449 37.4307 30.52 37.41H34.52V1.40996H16.35L7.34998 8.26996V14.27C7.36195 14.371 7.35238 14.4733 7.32191 14.5704C7.29144 14.6674 7.24076 14.7569 7.17321 14.8329C7.10566 14.9089 7.02277 14.9698 6.93 15.0114C6.83723 15.0531 6.73669 15.0747 6.63499 15.0747C6.53329 15.0747 6.43273 15.0531 6.33996 15.0114C6.24719 14.9698 6.1643 14.9089 6.09675 14.8329C6.0292 14.7569 5.97852 14.6674 5.94805 14.5704C5.91758 14.4733 5.90801 14.371 5.91998 14.27V7.88995C5.91996 7.77986 5.9452 7.67123 5.99374 7.57242C6.04228 7.4736 6.11283 7.38724 6.19998 7.31996L15.63 0.0999603C15.756 0.00268589 15.9108 -0.0500739 16.07 -0.0500488H35.19C35.3809 -0.0500488 35.5641 0.0258167 35.6991 0.160843C35.8341 0.295869 35.91 0.478997 35.91 0.669952V38.08C35.9154 38.1778 35.9008 38.2758 35.8671 38.3678C35.8334 38.4598 35.7812 38.544 35.7138 38.6151C35.6464 38.6863 35.5651 38.7429 35.4751 38.7816C35.385 38.8203 35.288 38.8401 35.19 38.84Z" fill="#22253E"/>
<path d="M20.57 38.84H6.67999C6.48903 38.84 6.30589 38.7641 6.17086 38.6291C6.03584 38.4941 5.95999 38.311 5.95999 38.12V36.49C5.94802 36.389 5.95758 36.2866 5.98805 36.1896C6.01852 36.0926 6.0692 36.0031 6.13675 35.9271C6.2043 35.851 6.2872 35.7902 6.37997 35.7485C6.47274 35.7068 6.57328 35.6853 6.67498 35.6853C6.77669 35.6853 6.87723 35.7068 6.97 35.7485C7.06277 35.7902 7.14567 35.851 7.21322 35.9271C7.28077 36.0031 7.33145 36.0926 7.36192 36.1896C7.39239 36.2866 7.40195 36.389 7.38998 36.49V37.41H20.57C20.7451 37.4307 20.9064 37.515 21.0235 37.6468C21.1406 37.7785 21.2053 37.9487 21.2053 38.125C21.2053 38.3013 21.1406 38.4715 21.0235 38.6032C20.9064 38.735 20.7451 38.8193 20.57 38.84Z" fill="#22253E"/>
<path d="M16.11 8.65999H6.67999C6.52971 8.66001 6.38319 8.61301 6.26097 8.52557C6.13874 8.43814 6.04694 8.31465 5.99842 8.17242C5.94991 8.03019 5.94711 7.87633 5.99043 7.73243C6.03375 7.58853 6.12101 7.46181 6.23999 7.36999L15.67 0.149991C15.7765 0.0706308 15.903 0.0222961 16.0353 0.010358C16.1677 -0.00158004 16.3007 0.0233419 16.4198 0.082349C16.5388 0.141356 16.6392 0.232154 16.7098 0.344693C16.7805 0.457233 16.8186 0.58712 16.82 0.719983V7.93998C16.82 8.12922 16.7455 8.31086 16.6127 8.4456C16.4798 8.58034 16.2992 8.65736 16.11 8.65999ZM8.78999 7.22999H15.39V2.17999L8.78999 7.22999Z" fill="#22253E"/>
<path d="M24.8 12.3H17.12C17.019 12.3119 16.9166 12.3024 16.8196 12.2719C16.7226 12.2414 16.6331 12.1908 16.5571 12.1232C16.481 12.0557 16.4202 11.9728 16.3785 11.88C16.3368 11.7872 16.3153 11.6867 16.3153 11.585C16.3153 11.4833 16.3368 11.3827 16.3785 11.29C16.4202 11.1972 16.481 11.1143 16.5571 11.0467C16.6331 10.9792 16.7226 10.9285 16.8196 10.8981C16.9166 10.8676 17.019 10.858 17.12 10.87H24.8C24.901 10.858 25.0034 10.8676 25.1004 10.8981C25.1974 10.9285 25.2869 10.9792 25.3629 11.0467C25.439 11.1143 25.4998 11.1972 25.5415 11.29C25.5832 11.3827 25.6047 11.4833 25.6047 11.585C25.6047 11.6867 25.5832 11.7872 25.5415 11.88C25.4998 11.9728 25.439 12.0557 25.3629 12.1232C25.2869 12.1908 25.1974 12.2414 25.1004 12.2719C25.0034 12.3024 24.901 12.3119 24.8 12.3Z" fill="#22253E"/>
<path d="M30.3 16.41H11.61C11.509 16.4219 11.4066 16.4124 11.3096 16.3819C11.2126 16.3514 11.1231 16.3007 11.0471 16.2332C10.971 16.1656 10.9102 16.0828 10.8685 15.99C10.8268 15.8972 10.8053 15.7967 10.8053 15.695C10.8053 15.5933 10.8268 15.4927 10.8685 15.3999C10.9102 15.3072 10.971 15.2243 11.0471 15.1567C11.1231 15.0892 11.2126 15.0385 11.3096 15.008C11.4066 14.9776 11.509 14.968 11.61 14.98H30.3C30.401 14.968 30.5034 14.9776 30.6004 15.008C30.6974 15.0385 30.7869 15.0892 30.8629 15.1567C30.939 15.2243 30.9998 15.3072 31.0415 15.3999C31.0832 15.4927 31.1047 15.5933 31.1047 15.695C31.1047 15.7967 31.0832 15.8972 31.0415 15.99C30.9998 16.0828 30.939 16.1656 30.8629 16.2332C30.7869 16.3007 30.6974 16.3514 30.6004 16.3819C30.5034 16.4124 30.401 16.4219 30.3 16.41Z" fill="#22253E"/>
<path d="M37.79 41.28H30.56C30.3849 41.2593 30.2236 41.1751 30.1065 41.0433C29.9894 40.9115 29.9247 40.7413 29.9247 40.565C29.9247 40.3888 29.9894 40.2186 30.1065 40.0868C30.2236 39.955 30.3849 39.8708 30.56 39.8501H37.07V3.85005H35.95V38.1101C35.95 38.2046 35.9314 38.2982 35.8952 38.3856C35.859 38.4729 35.806 38.5523 35.7391 38.6192C35.6722 38.686 35.5929 38.7391 35.5055 38.7753C35.4182 38.8114 35.3246 38.8301 35.23 38.8301H30.56C30.3849 38.8093 30.2236 38.7251 30.1065 38.5933C29.9894 38.4615 29.9247 38.2913 29.9247 38.115C29.9247 37.9387 29.9894 37.7686 30.1065 37.6368C30.2236 37.505 30.3849 37.4208 30.56 37.4H34.56V3.15005C34.56 3.0555 34.5786 2.96187 34.6148 2.87451C34.651 2.78716 34.704 2.70779 34.7709 2.64093C34.8377 2.57407 34.9171 2.52105 35.0045 2.48486C35.0918 2.44868 35.1854 2.43005 35.28 2.43005H37.83C38.021 2.43005 38.2041 2.5059 38.3391 2.64093C38.4741 2.77596 38.55 2.9591 38.55 3.15005V40.56C38.5501 40.6581 38.5303 40.7551 38.4916 40.8451C38.453 40.9352 38.3963 41.0164 38.3252 41.0838C38.254 41.1513 38.1698 41.2034 38.0778 41.2372C37.9858 41.2709 37.8879 41.2855 37.79 41.28Z" fill="#22253E"/>
<path d="M20.57 41.28H9.19C8.99905 41.28 8.81592 41.2042 8.68089 41.0692C8.54587 40.9341 8.47 40.751 8.47 40.56V38.13C8.47 37.9391 8.54587 37.7559 8.68089 37.6209C8.81592 37.4859 8.99905 37.41 9.19 37.41H20.53C20.7051 37.4308 20.8664 37.515 20.9835 37.6468C21.1006 37.7786 21.1653 37.9487 21.1653 38.125C21.1653 38.3013 21.1006 38.4715 20.9835 38.6033C20.8664 38.7351 20.7051 38.8193 20.53 38.84H9.95V39.84H20.57C20.761 39.84 20.9441 39.9159 21.0791 40.0509C21.2141 40.1859 21.29 40.3691 21.29 40.56C21.29 40.751 21.2141 40.9341 21.0791 41.0692C20.9441 41.2042 20.761 41.28 20.57 41.28Z" fill="#22253E"/>
<path d="M25.57 36.27C24.0738 36.2621 22.6135 35.8116 21.3729 34.9752C20.1323 34.1389 19.1669 32.954 18.5985 31.57C18.03 30.186 17.8839 28.6648 18.1784 27.1978C18.473 25.7309 19.195 24.384 20.2537 23.3267C21.3124 22.2694 22.6603 21.5491 24.1276 21.2565C25.5949 20.9639 27.1159 21.112 28.4992 21.6823C29.8824 22.2526 31.066 23.2195 31.9007 24.4612C32.7355 25.7029 33.1841 27.1638 33.19 28.66C33.1926 29.6609 32.9973 30.6525 32.6151 31.5777C32.233 32.5028 31.6717 33.3432 30.9634 34.0505C30.2552 34.7579 29.414 35.3181 28.4884 35.699C27.5628 36.0799 26.5709 36.274 25.57 36.27ZM25.57 22.55C24.3556 22.55 23.1685 22.9101 22.1588 23.5848C21.1491 24.2595 20.3621 25.2184 19.8974 26.3403C19.4327 27.4623 19.3111 28.6968 19.548 29.8878C19.7849 31.0789 20.3697 32.173 21.2284 33.0316C22.0871 33.8903 23.1811 34.4751 24.3721 34.712C25.5632 34.949 26.7977 34.8273 27.9197 34.3626C29.0416 33.8979 30.0006 33.1109 30.6752 32.1012C31.3499 31.0915 31.71 29.9044 31.71 28.69C31.7073 27.0624 31.0596 25.5022 29.9087 24.3513C28.7578 23.2004 27.1976 22.5526 25.57 22.55Z" fill="#22253E"/>
<path d="M25.57 32.87C24.7433 32.87 23.9351 32.6249 23.2477 32.1656C22.5603 31.7063 22.0245 31.0534 21.7082 30.2896C21.3918 29.5258 21.309 28.6854 21.4703 27.8745C21.6316 27.0637 22.0297 26.3189 22.6143 25.7343C23.1989 25.1497 23.9437 24.7516 24.7545 24.5903C25.5654 24.429 26.4058 24.5118 27.1696 24.8282C27.9334 25.1446 28.5862 25.6803 29.0455 26.3677C29.5048 27.0551 29.75 27.8633 29.75 28.69C29.75 29.2389 29.6419 29.7825 29.4318 30.2896C29.2217 30.7968 28.9138 31.2576 28.5257 31.6457C28.1375 32.0339 27.6767 32.3418 27.1696 32.5518C26.6625 32.7619 26.1189 32.87 25.57 32.87ZM25.57 25.94C25.0261 25.94 24.4944 26.1013 24.0422 26.4035C23.5899 26.7056 23.2374 27.1351 23.0293 27.6376C22.8212 28.1401 22.7667 28.6931 22.8728 29.2265C22.9789 29.76 23.2408 30.25 23.6254 30.6346C24.01 31.0192 24.5 31.2811 25.0335 31.3872C25.5669 31.4933 26.1199 31.4388 26.6224 31.2307C27.1249 31.0226 27.5543 30.6701 27.8565 30.2178C28.1587 29.7656 28.32 29.2339 28.32 28.69C28.32 27.9607 28.0303 27.2612 27.5145 26.7455C26.9988 26.2297 26.2993 25.94 25.57 25.94Z" fill="#22253E"/>
<path d="M30.56 43.29C30.4493 43.292 30.3397 43.268 30.24 43.22L25.56 40.93L20.88 43.22C20.7723 43.2656 20.6552 43.2842 20.5387 43.2743C20.4223 43.2644 20.31 43.2263 20.2115 43.1633C20.1131 43.1003 20.0314 43.0143 19.9737 42.9126C19.9159 42.811 19.8838 42.6969 19.88 42.5801V33.39C19.8816 33.247 19.9257 33.1077 20.0068 32.9898C20.0879 32.872 20.2023 32.7809 20.3354 32.7284C20.4684 32.6758 20.6141 32.664 20.7538 32.6946C20.8936 32.7252 21.0211 32.7967 21.12 32.9C21.6926 33.5138 22.3854 34.0033 23.1553 34.3379C23.9251 34.6726 24.7556 34.8452 25.595 34.8452C26.4344 34.8452 27.2649 34.6726 28.0348 34.3379C28.8046 34.0033 29.4974 33.5138 30.07 32.9C30.1689 32.7967 30.2964 32.7252 30.4362 32.6946C30.5759 32.664 30.7216 32.6758 30.8546 32.7284C30.9877 32.7809 31.1021 32.872 31.1832 32.9898C31.2643 33.1077 31.3084 33.247 31.31 33.39V42.5801C31.3087 42.6763 31.2882 42.7714 31.2495 42.8596C31.2109 42.9478 31.155 43.0273 31.0851 43.0935C31.0151 43.1597 30.9326 43.2112 30.8424 43.245C30.7523 43.2788 30.6562 43.2941 30.56 43.29ZM25.56 39.41C25.6706 39.4085 25.7801 39.4324 25.88 39.48L29.88 41.42V34.94C28.6204 35.8052 27.1281 36.2683 25.6 36.2683C24.0719 36.2683 22.5796 35.8052 21.32 34.94V41.42L25.32 39.48C25.3977 39.4383 25.4825 39.4112 25.57 39.4L25.56 39.41Z" fill="#22253E"/>
<path d="M8.41 34.51C7.96126 34.5098 7.52303 34.3742 7.15258 34.1209C6.78213 33.8677 6.49671 33.5086 6.3336 33.0905C6.17049 32.6725 6.13728 32.215 6.23834 31.7778C6.33939 31.3406 6.56999 30.944 6.9 30.64L6.19 29L4.41 29.19C4.31287 29.6286 4.08554 30.0276 3.75779 30.3348C3.43004 30.642 3.01717 30.8431 2.57322 30.9117C2.12927 30.9802 1.67496 30.9132 1.26978 30.7192C0.864609 30.5252 0.527469 30.2134 0.302513 29.8245C0.0775575 29.4357 -0.024736 28.988 0.00905635 28.5401C0.0428487 28.0921 0.211146 27.6648 0.49189 27.3141C0.772634 26.9635 1.15275 26.7057 1.58244 26.5747C2.01213 26.4437 2.47137 26.4456 2.9 26.58L3.96 25.13L2.9 23.66C2.61489 23.7558 2.31333 23.793 2.01348 23.7693C1.71363 23.7455 1.42168 23.6614 1.15519 23.5219C0.888702 23.3824 0.653189 23.1905 0.462822 22.9576C0.272456 22.7247 0.131165 22.4557 0.0474627 22.1668C-0.03624 21.8779 -0.0606287 21.575 -0.0242383 21.2764C0.012152 20.9778 0.108564 20.6897 0.259209 20.4294C0.409854 20.169 0.611619 19.9418 0.852349 19.7615C1.09308 19.5812 1.3678 19.4514 1.66 19.38C1.9504 19.3027 2.25342 19.2849 2.55087 19.3277C2.84831 19.3705 3.13402 19.473 3.39088 19.6289C3.64773 19.7849 3.87041 19.9912 4.04554 20.2354C4.22067 20.4796 4.34464 20.7567 4.41 21.05L6.19 21.24L6.91 19.6C6.57694 19.2972 6.34329 18.9008 6.23977 18.4627C6.13625 18.0247 6.16771 17.5656 6.33001 17.1458C6.49231 16.7259 6.77784 16.365 7.14909 16.1105C7.52033 15.8561 7.9599 15.7198 8.41 15.7198C8.8601 15.7198 9.29966 15.8561 9.67091 16.1105C10.0421 16.365 10.3277 16.7259 10.49 17.1458C10.6523 17.5656 10.6837 18.0247 10.5802 18.4627C10.4767 18.9008 10.2431 19.2972 9.91 19.6L10.63 21.24L12.41 21.05C12.5071 20.6114 12.7344 20.2123 13.0622 19.9051C13.3899 19.5979 13.8028 19.3969 14.2468 19.3283C14.6907 19.2597 15.145 19.3268 15.5502 19.5208C15.9554 19.7147 16.2925 20.0266 16.5175 20.4154C16.7424 20.8042 16.8447 21.2519 16.8109 21.6999C16.7771 22.1478 16.6088 22.5751 16.3281 22.9258C16.0474 23.2765 15.6672 23.5342 15.2376 23.6652C14.8079 23.7962 14.3486 23.7944 13.92 23.66L12.86 25.11L13.92 26.56C14.3486 26.4256 14.8079 26.4237 15.2376 26.5547C15.6672 26.6857 16.0474 26.9434 16.3281 27.2941C16.6088 27.6448 16.7771 28.0721 16.8109 28.5201C16.8447 28.968 16.7424 29.4157 16.5175 29.8045C16.2925 30.1934 15.9554 30.5052 15.5502 30.6992C15.145 30.8932 14.6907 30.9602 14.2468 30.8917C13.8028 30.8231 13.3899 30.622 13.0622 30.3148C12.7344 30.0076 12.5071 29.6086 12.41 29.17L10.63 28.98L9.91999 30.66C10.2429 30.9654 10.4671 31.3603 10.564 31.794C10.6609 32.2278 10.6259 32.6806 10.4637 33.0943C10.3014 33.5081 10.0192 33.8639 9.65327 34.1161C9.28735 34.3684 8.85441 34.5055 8.41 34.51ZM8.41 31.28C8.33395 31.4034 8.22241 31.501 8.08999 31.56C7.92439 31.6333 7.78904 31.7614 7.7066 31.9226C7.62415 32.0839 7.59961 32.2686 7.63711 32.4458C7.6746 32.623 7.77184 32.7819 7.91254 32.896C8.05325 33.01 8.22888 33.0723 8.41 33.0723C8.59112 33.0723 8.76673 33.01 8.90743 32.896C9.04814 32.7819 9.14539 32.623 9.18288 32.4458C9.22038 32.2686 9.19584 32.0839 9.1134 31.9226C9.03095 31.7614 8.89558 31.6333 8.72999 31.56C8.60091 31.4998 8.49291 31.4023 8.41999 31.28H8.41ZM6.61999 27.52C6.75988 27.5198 6.89681 27.5603 7.01402 27.6367C7.13123 27.7131 7.22365 27.8219 7.27999 27.95L8.41 30.51L9.54 27.95C9.60093 27.8112 9.70464 27.6956 9.83599 27.62C9.96734 27.5445 10.1194 27.5129 10.27 27.53L13.05 27.83L11.4 25.57C11.3098 25.4466 11.2612 25.2978 11.2612 25.145C11.2612 24.9922 11.3098 24.8433 11.4 24.72L13.05 22.46L10.27 22.76C10.1194 22.777 9.96734 22.7455 9.83599 22.6699C9.70464 22.5943 9.60093 22.4787 9.54 22.34L8.41 19.78L7.27999 22.34C7.21906 22.4787 7.11533 22.5943 6.98399 22.6699C6.85264 22.7455 6.70057 22.777 6.55 22.76L3.77 22.46L5.41999 24.72C5.51019 24.8433 5.55882 24.9922 5.55882 25.145C5.55882 25.2978 5.51019 25.4466 5.41999 25.57L3.77 27.83L6.55 27.53H6.63L6.61999 27.52ZM2.21999 27.92C2.06051 27.9208 1.905 27.9699 1.77393 28.0607C1.64287 28.1516 1.54237 28.28 1.48566 28.4291C1.42896 28.5781 1.41871 28.7409 1.45625 28.8959C1.49378 29.0509 1.57736 29.1909 1.69598 29.2975C1.8146 29.4042 1.96272 29.4724 2.12084 29.4932C2.27896 29.514 2.43968 29.4865 2.58187 29.4143C2.72406 29.342 2.84106 29.2285 2.91747 29.0885C2.99389 28.9485 3.02615 28.7886 3.01 28.63C2.99353 28.4851 3.02141 28.3386 3.08999 28.21C2.94551 28.2051 2.80597 28.1563 2.69 28.07C2.54479 27.9655 2.36875 27.9127 2.19 27.92H2.21999ZM13.72 28.21C13.7886 28.3386 13.8165 28.4851 13.8 28.63C13.7797 28.8101 13.8219 28.9918 13.9196 29.1445C14.0174 29.2972 14.1646 29.4116 14.3367 29.4686C14.5088 29.5256 14.6953 29.5216 14.8648 29.4574C15.0344 29.3932 15.1767 29.2726 15.2678 29.1159C15.359 28.9592 15.3935 28.7759 15.3656 28.5968C15.3376 28.4177 15.2489 28.2536 15.1143 28.1321C14.9797 28.0107 14.8074 27.9392 14.6264 27.9297C14.4454 27.9202 14.2665 27.9733 14.12 28.08C14.0057 28.1608 13.87 28.206 13.73 28.21H13.72ZM13.72 22.07C13.8645 22.0748 14.004 22.1237 14.12 22.21C14.2681 22.3191 14.4493 22.3738 14.6331 22.3649C14.8168 22.356 14.9919 22.2841 15.1288 22.1612C15.2657 22.0383 15.3561 21.872 15.3847 21.6903C15.4133 21.5086 15.3784 21.3225 15.2859 21.1635C15.1934 21.0045 15.0489 20.8822 14.8768 20.8173C14.7047 20.7524 14.5154 20.7488 14.3409 20.8071C14.1665 20.8654 14.0174 20.982 13.9189 21.1374C13.8203 21.2927 13.7783 21.4773 13.8 21.66C13.8181 21.8006 13.7937 21.9434 13.73 22.07H13.72ZM2.21999 20.77H2.01C1.9027 20.8047 1.80408 20.8621 1.72079 20.9381C1.6375 21.0142 1.57147 21.1072 1.52712 21.2109C1.48278 21.3146 1.46115 21.4266 1.46371 21.5394C1.46626 21.6522 1.49294 21.7631 1.54194 21.8647C1.59094 21.9663 1.66111 22.0562 1.74776 22.1284C1.83442 22.2006 1.93552 22.2534 2.04429 22.2833C2.15305 22.3132 2.26696 22.3194 2.37833 22.3016C2.48971 22.2838 2.59598 22.2423 2.69 22.18C2.76208 22.2121 2.84351 22.2165 2.91863 22.1923C2.99375 22.168 3.05727 22.1169 3.09696 22.0487C3.13666 21.9804 3.14973 21.8999 3.13367 21.8227C3.11762 21.7454 3.07358 21.6767 3.01 21.63C3.02007 21.5179 3.00608 21.405 2.96899 21.2988C2.93189 21.1926 2.87255 21.0955 2.79491 21.0141C2.71728 20.9327 2.62316 20.8688 2.51884 20.8267C2.41451 20.7846 2.3024 20.7653 2.19 20.77H2.21999ZM8.4 17.2C8.21561 17.1956 8.03552 17.256 7.89094 17.3705C7.74636 17.485 7.6464 17.6465 7.60841 17.827C7.57041 18.0075 7.59677 18.1956 7.6829 18.3587C7.76903 18.5218 7.90951 18.6496 8.07999 18.72C8.07999 18.8048 8.1137 18.8862 8.17371 18.9462C8.23373 19.0063 8.31513 19.04 8.4 19.04C8.48487 19.04 8.56626 19.0063 8.62627 18.9462C8.68629 18.8862 8.71999 18.8048 8.71999 18.72C8.88957 18.6498 9.02945 18.5229 9.11561 18.3609C9.20177 18.1988 9.22883 18.0119 9.19216 17.8321C9.15549 17.6523 9.05738 17.4908 8.91465 17.3755C8.77192 17.2601 8.59349 17.1981 8.41 17.2H8.4Z" fill="#22253E"/>
</g>

</symbol><symbol id="guarantee" viewBox="0 0 40 43">
<g clip-path="url(#clip0)">
<path d="M29.89 42.72H1.95999C1.42956 42.72 0.920849 42.5092 0.545776 42.1342C0.170704 41.7591 -0.0400085 41.2504 -0.0400085 40.72V4.70996C-0.0400085 4.17953 0.170704 3.67082 0.545776 3.29575C0.920849 2.92067 1.42956 2.70996 1.95999 2.70996H29.89C30.4204 2.70996 30.9291 2.92067 31.3042 3.29575C31.6793 3.67082 31.89 4.17953 31.89 4.70996V18.01C31.9019 18.111 31.8924 18.2133 31.8619 18.3104C31.8314 18.4074 31.7808 18.4969 31.7132 18.5729C31.6457 18.6489 31.5628 18.7098 31.47 18.7514C31.3772 18.7931 31.2767 18.8147 31.175 18.8147C31.0733 18.8147 30.9727 18.7931 30.88 18.7514C30.7872 18.7098 30.7043 18.6489 30.6367 18.5729C30.5692 18.4969 30.5185 18.4074 30.4881 18.3104C30.4576 18.2133 30.448 18.111 30.46 18.01V4.70996C30.46 4.57205 30.4052 4.43979 30.3077 4.34227C30.2102 4.24475 30.0779 4.18996 29.94 4.18996H1.95999C1.82208 4.18996 1.68982 4.24475 1.5923 4.34227C1.49478 4.43979 1.43999 4.57205 1.43999 4.70996V40.77C1.43999 40.9079 1.49478 41.0401 1.5923 41.1376C1.68982 41.2352 1.82208 41.29 1.95999 41.29H29.89C30.0279 41.29 30.1602 41.2352 30.2577 41.1376C30.3552 41.0401 30.41 40.9079 30.41 40.77V37.7C30.4307 37.5249 30.515 37.3635 30.6468 37.2464C30.7785 37.1294 30.9487 37.0647 31.125 37.0647C31.3013 37.0647 31.4714 37.1294 31.6032 37.2464C31.735 37.3635 31.8193 37.5249 31.84 37.7V40.77C31.8273 41.2832 31.6178 41.7718 31.2548 42.1348C30.8918 42.4978 30.4032 42.7073 29.89 42.72Z" fill="#22253E"/>
<path d="M34 22.1199C33.9055 22.1199 33.8118 22.1013 33.7245 22.0651C33.6371 22.029 33.5577 21.9759 33.4909 21.9091C33.424 21.8422 33.371 21.7628 33.3348 21.6755C33.2986 21.5881 33.28 21.4945 33.28 21.3999V2.00995C33.28 1.85612 33.2189 1.70859 33.1101 1.59982C33.0014 1.49105 32.8538 1.42995 32.7 1.42995H4.27C4.20172 1.42995 4.1341 1.4434 4.07101 1.46953C4.00793 1.49566 3.9506 1.53397 3.90231 1.58226C3.85403 1.63055 3.81571 1.68786 3.78958 1.75095C3.76345 1.81404 3.75 1.88166 3.75 1.94995V2.74995H29.89C30.4204 2.74995 30.9291 2.96067 31.3042 3.33574C31.6793 3.71081 31.89 4.21952 31.89 4.74995V19.8699C31.8693 20.045 31.785 20.2064 31.6532 20.3235C31.5215 20.4406 31.3513 20.5052 31.175 20.5052C30.9987 20.5052 30.8285 20.4406 30.6968 20.3235C30.565 20.2064 30.4807 20.045 30.46 19.8699V4.70995C30.46 4.57203 30.4052 4.43977 30.3077 4.34225C30.2102 4.24474 30.0779 4.18994 29.94 4.18994H3.03C2.83904 4.18994 2.65592 4.11409 2.52089 3.97906C2.38586 3.84404 2.31 3.66091 2.31 3.46996V1.94995C2.31 1.41952 2.52072 0.910809 2.8958 0.535736C3.27087 0.160663 3.77956 -0.0500488 4.31 -0.0500488H32.74C33.2704 -0.0500488 33.7791 0.160663 34.1542 0.535736C34.5293 0.910809 34.74 1.41952 34.74 1.94995V21.34C34.7485 21.4411 34.7355 21.543 34.7019 21.6388C34.6683 21.7346 34.6148 21.8222 34.5449 21.8958C34.475 21.9695 34.3903 22.0276 34.2964 22.0662C34.2025 22.1048 34.1015 22.1231 34 22.1199Z" fill="#22253E"/>
<path d="M32.77 40.53H31.14C30.949 40.53 30.7659 40.4541 30.6309 40.3191C30.4958 40.1841 30.42 40.0009 30.42 39.81V37.31C30.4407 37.1349 30.525 36.9735 30.6568 36.8564C30.7886 36.7394 30.9587 36.6747 31.135 36.6747C31.3113 36.6747 31.4814 36.7394 31.6132 36.8564C31.745 36.9735 31.8292 37.1349 31.85 37.31V39.09H32.77C32.9079 39.09 33.0402 39.0352 33.1377 38.9377C33.2352 38.8402 33.29 38.7079 33.29 38.57V35.57C33.3107 35.3949 33.395 35.2335 33.5268 35.1165C33.6585 34.9994 33.8287 34.9347 34.005 34.9347C34.1813 34.9347 34.3514 34.9994 34.4832 35.1165C34.615 35.2335 34.6993 35.3949 34.72 35.57V38.57C34.7099 39.0849 34.5015 39.5761 34.1382 39.9412C33.775 40.3063 33.2849 40.5172 32.77 40.53Z" fill="#22253E"/>
<path d="M20.57 10.53H11.28C11.179 10.5419 11.0766 10.5324 10.9796 10.5019C10.8826 10.4714 10.7931 10.4208 10.7171 10.3532C10.641 10.2857 10.5802 10.2028 10.5385 10.11C10.4968 10.0172 10.4753 9.91667 10.4753 9.81497C10.4753 9.71327 10.4968 9.61272 10.5385 9.51995C10.5802 9.42718 10.641 9.34429 10.7171 9.27674C10.7931 9.20919 10.8826 9.15851 10.9796 9.12805C11.0766 9.09758 11.179 9.088 11.28 9.09997H20.57C20.7451 9.12071 20.9064 9.20496 21.0235 9.33674C21.1406 9.46852 21.2053 9.63868 21.2053 9.81497C21.2053 9.99125 21.1406 10.1614 21.0235 10.2932C20.9064 10.425 20.7451 10.5092 20.57 10.53Z" fill="#22253E"/>
<path d="M24.65 13.27H7.18999C7.01492 13.2492 6.85356 13.165 6.73647 13.0332C6.61937 12.9014 6.55469 12.7312 6.55469 12.555C6.55469 12.3787 6.61937 12.2085 6.73647 12.0767C6.85356 11.945 7.01492 11.8607 7.18999 11.84H24.65C24.751 11.828 24.8534 11.8376 24.9504 11.868C25.0474 11.8985 25.1369 11.9492 25.2129 12.0167C25.2889 12.0843 25.3498 12.1672 25.3915 12.2599C25.4332 12.3527 25.4547 12.4533 25.4547 12.555C25.4547 12.6567 25.4332 12.7572 25.3915 12.85C25.3498 12.9428 25.2889 13.0256 25.2129 13.0932C25.1369 13.1607 25.0474 13.2114 24.9504 13.2419C24.8534 13.2724 24.751 13.2819 24.65 13.27Z" fill="#22253E"/>
<path d="M24.65 16.0099H7.18999C7.01492 15.9892 6.85356 15.905 6.73647 15.7732C6.61937 15.6414 6.55469 15.4712 6.55469 15.2949C6.55469 15.1187 6.61937 14.9485 6.73647 14.8167C6.85356 14.6849 7.01492 14.6007 7.18999 14.58H24.65C24.751 14.568 24.8534 14.5775 24.9504 14.608C25.0474 14.6385 25.1369 14.6892 25.2129 14.7567C25.2889 14.8243 25.3498 14.9071 25.3915 14.9999C25.4332 15.0927 25.4547 15.1932 25.4547 15.2949C25.4547 15.3967 25.4332 15.4972 25.3915 15.59C25.3498 15.6827 25.2889 15.7656 25.2129 15.8332C25.1369 15.9007 25.0474 15.9514 24.9504 15.9819C24.8534 16.0123 24.751 16.0219 24.65 16.0099Z" fill="#22253E"/>
<path d="M24.65 18.74H7.18999C7.01492 18.7193 6.85356 18.6351 6.73647 18.5033C6.61937 18.3715 6.55469 18.2013 6.55469 18.0251C6.55469 17.8488 6.61937 17.6786 6.73647 17.5468C6.85356 17.415 7.01492 17.3308 7.18999 17.3101H24.65C24.751 17.2981 24.8534 17.3076 24.9504 17.3381C25.0474 17.3686 25.1369 17.4193 25.2129 17.4868C25.2889 17.5544 25.3498 17.6373 25.3915 17.73C25.4332 17.8228 25.4547 17.9234 25.4547 18.0251C25.4547 18.1268 25.4332 18.2273 25.3915 18.3201C25.3498 18.4128 25.2889 18.4957 25.2129 18.5633C25.1369 18.6308 25.0474 18.6815 24.9504 18.712C24.8534 18.7425 24.751 18.752 24.65 18.74Z" fill="#22253E"/>
<path d="M24.65 21.4801H7.18999C7.01492 21.4593 6.85356 21.3751 6.73647 21.2433C6.61937 21.1115 6.55469 20.9413 6.55469 20.7651C6.55469 20.5888 6.61937 20.4186 6.73647 20.2868C6.85356 20.155 7.01492 20.0708 7.18999 20.05H24.65C24.751 20.0381 24.8534 20.0477 24.9504 20.0781C25.0474 20.1086 25.1369 20.1593 25.2129 20.2268C25.2889 20.2944 25.3498 20.3773 25.3915 20.47C25.4332 20.5628 25.4547 20.6634 25.4547 20.7651C25.4547 20.8668 25.4332 20.9673 25.3915 21.0601C25.3498 21.1528 25.2889 21.2357 25.2129 21.3033C25.1369 21.3708 25.0474 21.4215 24.9504 21.452C24.8534 21.4824 24.751 21.492 24.65 21.4801Z" fill="#22253E"/>
<path d="M9.48002 35.36C9.09048 35.3621 8.70505 35.2802 8.35001 35.1199C7.99659 34.9529 7.68221 34.7135 7.42725 34.4172C7.17229 34.1209 6.98245 33.7744 6.87002 33.4C6.4176 33.3567 5.97147 33.2628 5.54002 33.1199C5.44165 33.0982 5.34895 33.0561 5.26789 32.9963C5.18684 32.9364 5.11923 32.8603 5.06945 32.7727C5.01967 32.6851 4.98883 32.5881 4.9789 32.4878C4.96898 32.3876 4.9802 32.2864 5.01185 32.1907C5.04349 32.0951 5.09486 32.0072 5.16262 31.9326C5.23038 31.8581 5.31301 31.7986 5.4052 31.758C5.49739 31.7174 5.59709 31.6966 5.69782 31.6969C5.79856 31.6973 5.8981 31.7187 5.99001 31.76C6.19602 31.8305 6.40649 31.8873 6.62002 31.93C6.58898 30.9177 6.91461 29.9266 7.54002 29.13C7.6591 28.9939 7.80487 28.8837 7.96828 28.8063C8.1317 28.7289 8.30928 28.6859 8.49001 28.68C8.76584 28.6966 9.03307 28.7822 9.2672 28.929C9.50133 29.0757 9.69486 29.2789 9.83001 29.52C10.0826 29.8613 10.2522 30.2569 10.3251 30.6753C10.398 31.0936 10.3723 31.5233 10.25 31.93C10.0777 32.2964 9.81788 32.6148 9.49354 32.8572C9.16919 33.0995 8.79022 33.2585 8.39001 33.32C8.51476 33.5378 8.7032 33.7123 8.93002 33.82C9.25706 33.9375 9.61217 33.9527 9.94804 33.8634C10.2839 33.774 10.5846 33.5845 10.81 33.32C10.8931 33.1969 10.9478 33.0568 10.97 32.91C11.05 32.67 11.16 32.32 11.36 31.77C11.89 30.29 12.2 29.5299 12.96 29.6199C13.1759 29.666 13.3704 29.7823 13.5133 29.9505C13.6562 30.1187 13.7394 30.3295 13.75 30.55C13.7661 30.7914 13.8691 31.0187 14.04 31.19C14.1437 31.0321 14.2245 30.8605 14.28 30.68C14.37 30.44 14.47 30.1599 14.6 29.8399C14.7967 29.3707 15.0204 28.9133 15.27 28.47C15.3724 28.3239 15.5254 28.2211 15.6993 28.1814C15.8732 28.1417 16.0557 28.168 16.2113 28.2551C16.367 28.3423 16.4847 28.4841 16.5417 28.6531C16.5988 28.8221 16.591 29.0063 16.52 29.17C16.2999 29.5649 16.1029 29.9722 15.93 30.39C15.81 30.68 15.71 30.94 15.63 31.17C15.5821 31.5015 15.4479 31.8146 15.2408 32.0779C15.0337 32.3412 14.761 32.5454 14.45 32.67C14.2287 32.7132 14.0005 32.706 13.7823 32.6488C13.5642 32.5917 13.3617 32.4861 13.19 32.3399C13.0499 32.2347 12.9253 32.1101 12.82 31.97L12.72 32.25C12.53 32.77 12.42 33.1099 12.35 33.3399C12.275 33.657 12.1316 33.954 11.93 34.21C11.6274 34.5654 11.2522 34.852 10.8296 35.0503C10.407 35.2487 9.94682 35.3543 9.48002 35.36ZM8.54002 30.17C8.21533 30.6947 8.0519 31.3032 8.07001 31.92C8.24262 31.9013 8.40903 31.845 8.55759 31.7552C8.70616 31.6654 8.83328 31.5441 8.93002 31.4C8.96063 31.1789 8.9415 30.9537 8.87403 30.7409C8.80656 30.5281 8.69245 30.333 8.54002 30.17Z" fill="#22253E"/>
<path d="M14.77 38.0099H6.06999C5.89493 37.9892 5.73355 37.905 5.61646 37.7732C5.49936 37.6414 5.43469 37.4712 5.43469 37.295C5.43469 37.1187 5.49936 36.9485 5.61646 36.8167C5.73355 36.6849 5.89493 36.6007 6.06999 36.58H14.77C14.9451 36.6007 15.1064 36.6849 15.2235 36.8167C15.3406 36.9485 15.4053 37.1187 15.4053 37.295C15.4053 37.4712 15.3406 37.6414 15.2235 37.7732C15.1064 37.905 14.9451 37.9892 14.77 38.0099Z" fill="#22253E"/>
<path d="M31.12 38.01C31.0406 38.0234 30.9594 38.0234 30.88 38.01C30.8 38.01 22.83 34.96 22.7 24.25C22.6988 24.1225 22.7316 23.997 22.7948 23.8863C22.8581 23.7756 22.9496 23.6837 23.06 23.62L30.77 19.11C30.8794 19.0468 31.0036 19.0135 31.13 19.0135C31.2564 19.0135 31.3805 19.0468 31.49 19.11L39.2 23.59C39.3104 23.6537 39.4019 23.7457 39.4651 23.8563C39.5284 23.967 39.5611 24.0925 39.56 24.22C39.43 34.93 31.46 37.95 31.38 37.98C31.2959 38.0058 31.2078 38.016 31.12 38.01ZM24.12 24.6C24.4 33.05 29.85 35.96 31.12 36.52C32.37 35.96 37.83 33.06 38.12 24.6L31.12 20.54L24.12 24.6Z" fill="#22253E"/>
<path d="M31.12 34.1801C31.0254 34.1801 30.9318 34.1614 30.8445 34.1253C30.7571 34.0891 30.6777 34.036 30.6109 33.9692C30.544 33.9023 30.491 33.8229 30.4548 33.7356C30.4186 33.6482 30.4 33.5546 30.4 33.4601V24.0101C30.4207 23.835 30.505 23.6736 30.6367 23.5565C30.7685 23.4394 30.9387 23.3748 31.115 23.3748C31.2913 23.3748 31.4614 23.4394 31.5932 23.5565C31.725 23.6736 31.8092 23.835 31.83 24.0101V33.44C31.8326 33.5354 31.8163 33.6304 31.782 33.7194C31.7476 33.8085 31.6959 33.8897 31.6298 33.9586C31.5638 34.0275 31.4846 34.0825 31.3971 34.1205C31.3096 34.1585 31.2154 34.1788 31.12 34.1801Z" fill="#22253E"/>
</g>

</symbol><symbol id="lock" viewBox="0 0 34 43">
<g clip-path="url(#clip0)">
<path d="M32.2753 36.8077C32.1786 36.8077 32.0829 36.7888 31.9936 36.7521C31.9043 36.7154 31.8231 36.6616 31.7548 36.5938C31.6864 36.526 31.6322 36.4455 31.5952 36.3569C31.5582 36.2683 31.5392 36.1733 31.5392 36.0774V34.911C31.5269 34.8086 31.5367 34.7047 31.5679 34.6063C31.599 34.5079 31.6508 34.4172 31.7199 34.3401C31.7889 34.2629 31.8737 34.2012 31.9685 34.159C32.0634 34.1167 32.1662 34.0948 32.2701 34.0948C32.3741 34.0948 32.4769 34.1167 32.5717 34.159C32.6666 34.2012 32.7513 34.2629 32.8204 34.3401C32.8895 34.4172 32.9413 34.5079 32.9724 34.6063C33.0036 34.7047 33.0133 34.8086 33.0011 34.911V36.0774C33.0011 36.2693 32.925 36.4536 32.7891 36.5902C32.6533 36.7269 32.4687 36.805 32.2753 36.8077Z" fill="#22253E"/>
<path d="M32.2753 30.4787C32.08 30.4787 31.8928 30.4017 31.7548 30.2648C31.6167 30.1278 31.5392 29.9421 31.5392 29.7484V27.1418C31.5269 27.0393 31.5367 26.9355 31.5679 26.8371C31.599 26.7386 31.6508 26.6479 31.7199 26.5708C31.7889 26.4937 31.8737 26.4319 31.9685 26.3897C32.0634 26.3474 32.1662 26.3256 32.2701 26.3256C32.3741 26.3256 32.4769 26.3474 32.5717 26.3897C32.6666 26.4319 32.7513 26.4937 32.8204 26.5708C32.8895 26.6479 32.9413 26.7386 32.9724 26.8371C33.0036 26.9355 33.0133 27.0393 33.0011 27.1418V29.7484C33.0011 29.9403 32.925 30.1246 32.7891 30.2612C32.6533 30.3979 32.4687 30.476 32.2753 30.4787Z" fill="#22253E"/>
<path d="M32.2753 22.6283C32.08 22.6283 31.8928 22.5513 31.7548 22.4144C31.6167 22.2774 31.5392 22.0917 31.5392 21.898V20.7417C31.5269 20.6393 31.5367 20.5354 31.5679 20.437C31.599 20.3386 31.6508 20.2479 31.7199 20.1708C31.7889 20.0937 31.8737 20.0319 31.9685 19.9897C32.0634 19.9474 32.1662 19.9255 32.2701 19.9255C32.3741 19.9255 32.4769 19.9474 32.5717 19.9897C32.6666 20.0319 32.7513 20.0937 32.8204 20.1708C32.8895 20.2479 32.9413 20.3386 32.9724 20.437C33.0036 20.5354 33.0133 20.6393 33.0011 20.7417V21.9081C32.9985 22.0983 32.9211 22.2799 32.7856 22.4144C32.65 22.5489 32.4669 22.6256 32.2753 22.6283Z" fill="#22253E"/>
<path d="M28.3802 42.6498H4.62097C3.39624 42.6471 2.22244 42.1633 1.35642 41.3041C0.490406 40.4449 0.00270063 39.2804 0 38.0654V20.0723C0.00270063 18.8572 0.490406 17.6927 1.35642 16.8335C2.22244 15.9743 3.39624 15.4905 4.62097 15.4878H28.3802C29.6049 15.4905 30.7787 15.9743 31.6447 16.8335C32.5107 17.6927 32.9984 18.8572 33.0011 20.0723V20.7417C32.9799 20.9192 32.8938 21.0829 32.7591 21.2017C32.6243 21.3204 32.4504 21.386 32.2701 21.386C32.0899 21.386 31.9159 21.3204 31.7812 21.2017C31.6465 21.0829 31.5604 20.9192 31.5392 20.7417V20.0723C31.5392 19.2411 31.2064 18.4439 30.6139 17.8561C30.0215 17.2684 29.218 16.9382 28.3802 16.9382H4.62097C3.78314 16.9382 2.97964 17.2684 2.3872 17.8561C1.79477 18.4439 1.46194 19.2411 1.46194 20.0723V38.0856C1.46194 38.9168 1.79477 39.714 2.3872 40.3018C2.97964 40.8895 3.78314 41.2197 4.62097 41.2197H28.3802C29.218 41.2197 30.0215 40.8895 30.6139 40.3018C31.2064 39.714 31.5392 38.9168 31.5392 38.0856V36.0571C31.5604 35.8795 31.6465 35.7159 31.7812 35.5971C31.9159 35.4783 32.0899 35.4127 32.2701 35.4127C32.4504 35.4127 32.6243 35.4783 32.7591 35.5971C32.8938 35.7159 32.9799 35.8795 33.0011 36.0571V38.0856C32.993 39.2972 32.503 40.4565 31.6375 41.3113C30.7721 42.1661 29.6014 42.6472 28.3802 42.6498Z" fill="#22253E"/>
<path d="M25.9163 16.9382H7.08481C6.88959 16.9382 6.70237 16.8613 6.56433 16.7243C6.42628 16.5874 6.34872 16.4016 6.34872 16.208V10.0717C6.43239 7.45715 7.53808 4.9775 9.43183 3.15741C11.3256 1.33731 13.8588 0.31958 16.4955 0.31958C19.1321 0.31958 21.6653 1.33731 23.5591 3.15741C25.4528 4.9775 26.5585 7.45715 26.6422 10.0717V16.208C26.6422 16.3999 26.566 16.5841 26.4302 16.7208C26.2944 16.8575 26.1098 16.9356 25.9163 16.9382ZM7.8209 15.4878H25.2007V10.0818C25.2007 7.79531 24.2852 5.60246 22.6555 3.98566C21.0258 2.36886 18.8155 1.46055 16.5108 1.46055C14.2061 1.46055 11.9958 2.36886 10.3661 3.98566C8.73644 5.60246 7.8209 7.79531 7.8209 10.0818V15.4878Z" fill="#22253E"/>
<path d="M21.5305 16.9382H11.4809C11.2857 16.9382 11.0984 16.8613 10.9604 16.7243C10.8224 16.5874 10.7448 16.4016 10.7448 16.2079V10.4064C10.7448 8.89189 11.3512 7.43945 12.4306 6.36856C13.5101 5.29766 14.9741 4.69604 16.5006 4.69604C18.0271 4.69604 19.4911 5.29766 20.5705 6.36856C21.6499 7.43945 22.2564 8.89189 22.2564 10.4064V16.2079C22.2564 16.3999 22.1802 16.5841 22.0444 16.7208C21.9086 16.8574 21.7239 16.9356 21.5305 16.9382ZM12.217 15.4878H20.7944V10.4165C20.7406 9.32398 20.2653 8.29384 19.4669 7.53949C18.6685 6.78514 17.6082 6.36439 16.5057 6.36439C15.4032 6.36439 14.3429 6.78514 13.5445 7.53949C12.7461 8.29384 12.2708 9.32398 12.217 10.4165V15.4878Z" fill="#22253E"/>
<path d="M16.5006 36.5642C15.7034 36.5642 14.9389 36.25 14.3752 35.6908C13.8116 35.1316 13.4949 34.3731 13.4949 33.5823V29.8904C12.8565 29.4213 12.3386 28.8094 11.9833 28.1045C11.628 27.3996 11.4454 26.6214 11.4502 25.8333C11.4502 24.4883 11.9888 23.1984 12.9474 22.2473C13.906 21.2963 15.2062 20.762 16.5619 20.762C17.9176 20.762 19.2178 21.2963 20.1764 22.2473C21.1351 23.1984 21.6736 24.4883 21.6736 25.8333C21.6785 26.6214 21.4958 27.3996 21.1405 28.1045C20.7853 28.8094 20.2674 29.4213 19.6289 29.8904V33.5823C19.6293 33.9843 19.5477 34.3823 19.389 34.7522C19.2303 35.1222 18.9979 35.4565 18.7057 35.735C18.4135 36.0136 18.0675 36.2307 17.6885 36.3731C17.3096 36.5156 16.9055 36.5806 16.5006 36.5642ZM16.5006 22.2124C15.7083 22.208 14.9365 22.4617 14.3036 22.9345C13.6707 23.4073 13.2117 24.073 12.9969 24.8296C12.7822 25.5862 12.8236 26.3918 13.1149 27.1228C13.4061 27.8537 13.9311 28.4697 14.6093 28.8761C14.7153 28.9415 14.8029 29.0326 14.8637 29.1408C14.9245 29.2491 14.9566 29.3709 14.9568 29.4948V33.5518C14.9318 33.7664 14.9528 33.9838 15.0185 34.1897C15.0841 34.3956 15.193 34.5854 15.3378 34.7467C15.4826 34.9079 15.6601 35.0369 15.8588 35.1253C16.0574 35.2137 16.2727 35.2594 16.4904 35.2594C16.7081 35.2594 16.9233 35.2137 17.1219 35.1253C17.3206 35.0369 17.4981 34.9079 17.643 34.7467C17.7878 34.5854 17.8966 34.3956 17.9622 34.1897C18.0279 33.9838 18.0489 33.7664 18.0239 33.5518V29.4948C18.0241 29.3709 18.0562 29.2491 18.117 29.1408C18.1778 29.0326 18.2654 28.9415 18.3715 28.8761C19.0481 28.4706 19.5722 27.8564 19.8639 27.1275C20.1555 26.3985 20.1986 25.5949 19.9864 24.8394C19.7743 24.0839 19.3187 23.4181 18.6893 22.9437C18.0598 22.4693 17.2911 22.2125 16.5006 22.2124Z" fill="#22253E"/>
</g>

</symbol><symbol id="phone" viewBox="0 0 42 43">
<path d="M23.5697 40.6701C23.1629 41.2636 22.5564 41.6911 21.8606 41.8747C21.1649 42.0583 20.4264 41.9857 19.7797 41.6701C13.9826 38.7237 9.20055 34.1088 6.04974 28.4201C2.72092 22.8306 1.16904 16.3615 1.59974 9.87014C1.668 9.15582 1.99003 8.48963 2.50742 7.99243C3.02481 7.49522 3.70327 7.19994 4.41974 7.16014L7.74974 7.01014C8.16598 6.99401 8.5812 7.06194 8.9706 7.20986C9.36001 7.35779 9.71561 7.58268 10.0162 7.87109C10.3167 8.15951 10.5561 8.50555 10.7199 8.88853C10.8837 9.27151 10.9687 9.68358 10.9697 10.1001C10.9697 11.8601 10.9697 13.9001 11.0597 15.0301C11.2097 17.2901 7.57974 17.0301 7.72974 19.2701C7.87974 21.5101 9.37974 24.1801 10.3897 25.9401C11.3997 27.7001 12.9297 30.3601 14.8097 31.6401C16.6897 32.9201 18.2897 29.6401 20.1697 30.9401C21.1097 31.5801 22.8597 32.6301 24.3797 33.5201C24.7376 33.7328 25.0486 34.0158 25.294 34.352C25.5394 34.6882 25.7142 35.0707 25.8076 35.4763C25.9011 35.882 25.9114 36.3023 25.8378 36.7121C25.7643 37.1218 25.6084 37.5123 25.3797 37.8601L23.5697 40.6701Z"/>
<path d="M24.48 1C29.6837 3.11532 34.0599 6.86328 36.95 11.68C39.95 16.81 40.5 22 40.5 28"/>
<path d="M21.73 5.58984C25.9804 7.48203 29.5105 10.6896 31.8 14.7398C34.2405 18.6879 35.3515 23.3141 34.97 27.9398"/>
<path d="M18.9502 10.72C22.2155 12.1767 24.9132 14.6637 26.6302 17.8C28.5531 20.8146 29.4348 24.3764 29.1402 27.94"/>
</symbol></svg>