<svg xmlns="http://www.w3.org/2000/svg" width="1801" height="631" viewBox="0 0 1801 631"><g transform="translate(-53 -1070)"><line x2="1487" transform="translate(212.5 1384.5)" stroke-dasharray="1 26" stroke="#e6e6e6" stroke-linecap="square" stroke-width="15" fill="none"/><path d="M0,0H1488" transform="translate(211.5 1264.5)" fill="none" stroke="#e6e6e6" stroke-linecap="square" stroke-width="15" stroke-dasharray="1 26"/><line x2="1502" transform="translate(212.5 1623.5)" stroke-dasharray="1 26" stroke="#e6e6e6" stroke-linecap="square" stroke-width="15" fill="none"/><line x2="1488" transform="translate(211.5 1145.5)" stroke-dasharray="1 26" stroke="#e6e6e6" stroke-linecap="square" stroke-width="15" fill="none"/><line x2="1488" transform="translate(211.5 1504.5)" stroke-dasharray="1 26" stroke="#e6e6e6" stroke-linecap="square" stroke-width="15" fill="none"/><g transform="translate(886.027 953.202)"><path d="M836.445,423.8h2.08l.037,0h.227l.038,0h.047l.04,0h.007l.037,0h.093l.037,0h.009l.037,0h.009l.037,0h.4l.037,0h.008l.038,0h0l.039,0h0l.039,0h.007l.037,0h.008l.038,0h0l.039,0h.008l.037,0h.008l.037,0h.008l.035,0h0l.038,0h.008l.038,0h.007l.038,0h.006l.034,0h.008l.036,0h.009l.037,0h.008l.035,0h.006l.036,0h.008l.036,0h.01l.036,0h.007l.034,0h.007l.037,0h.009l.035,0h.01l.037,0h.006l.032,0h.01l.035,0h.01l.036,0h.009l.034,0h.006l.035,0h.01l.035,0h.01l.036,0h.008l.032,0h.008l.035,0h.011l.035,0h.01l.036,0h.007l.032,0h.009l.035,0h.011l.035,0h.01l.032,0h.008l.035,0h.009l.035,0h.011l.035,0h.008l.032,0h.008l.035,0h.011l.034,0h.011l.035,0h.008l.031,0h.01l.034,0h.012l.033,0h.012l.031,0h.01l.031,0h.012l.033,0h.012l.034,0h.011l.029,0h.009l.034,0h.012l.034,0h.011l.031,0,.014,0,.028,0h.011l.034,0h.011l.034,0h.011l.03,0h.011l.031,0h.012l.033,0h.013l.033,0h.011l.028,0h.011l.033,0h.012l.034,0h.011l.034,0h.009l.029,0h.012l.033,0h.012l.033,0h.012l.03,0h.011l.031,0h.011l.034,0h.011l.035,0h.009l.031,0h.008l.035,0h.01l.035,0h.009l.036,0h.008l.031,0h.01l.034,0h.011l.034,0h.01l.032,0h.009l.032,0,.011,0,.034,0h.011l.035,0h.008l.031,0h.009l.034,0h.012l.032,0h.014l.03,0h.012l.028,0h.011l.034,0h.012l.033,0h.012l.028,0h.013l.03,0,.012,0,.033,0h.011l.034,0h.011l.028,0h.01l.033,0,.013,0,.032,0h.013l.028,0,.016,0,.026,0,.012,0,.032,0h.014l.032,0,.013,0,.026,0,.015,0,.028,0h.013l.031,0,.015,0,.031,0h.013l.025,0h.014l.031,0,.013,0,.031,0h.015l.025,0,.019,0,.023,0,.014,0,.031,0h.014l.031,0,.015,0,.023,0,.02,0,.024,0,.015,0,.03,0,.016,0,.028,0,.016,0,.022,0,.02,0,.024,0,.017,0,.028,0,.017,0,.023,0,.02,0,.023,0,.016,0,.028,0,.017,0,.029,0,.017,0,.018,0,.025,0,.021,0,.016,0,.028,0,.019,0,.021,0,.023,0,.02,0,.022,0,.023,0,.016,0,.029,0,.016,0,.023,0,.021,0,.022,0,.015,0,.029,0,.017,0,.026,0,.02,0,.019,0,.024,0,.021,0,.016,0,.029.005.016,0,.025,0,.02,0,.02,0,.021,0,.024,0,.017,0,.028.005.017,0,.019,0,.027,0,.017,0,.021,0,.025,0,.018,0,.028,0,.017,0,.018,0,.025,0,.02,0,.017,0,.028,0,.017,0,.024,0,.021,0,.018,0,.026,0,.02,0,.017,0,.028,0,.018,0,.019,0,.025,0,.018,0,.025,0,.02,0,.018,0,.025,0,.021,0,.017,0,.027,0,.018,0,.019,0,.026,0,.019,0,.018,0,.028,0,.014,0,.03.005.016,0,.019,0,.026.005.02,0,.015,0,.031.005.014,0,.032,0,.013,0,.021,0,.018,0,.027,0,.014,0,.031.006.014,0,.026,0,.019,0,.021,0,.013,0,.032.005.014,0,.033.005.012,0,.021,0h.007l.039.007.012,0,.033.006.013,0,.032.005.013,0,.022,0,.007,0,.039.006.01,0,.036.006.01,0,.04.007h.006l.022,0,.009,0,.038.006.009,0,.038.007h.008l.068.012.011,0,.035.006.011,0,.036.007h.01l.022,0,.006,0,.04.007h.008l.04.008h.006l.07.012.007,0,.039.007h.009l.037.007.009,0,.069.013h.007l.041.008h.005l.071.013h0l.046.009h.006l.041.008h.006l.07.013h.005l.042.008h.005l.119.023h0l.044.008h.005l.118.023h0l.045.009h0l.118.024h0l.046.009h0l.072.014h0l.043.009h.006l.116.023.006,0,.043.009h0l.119.025h0l.12.025h0l.048.01h0l.29.062h0a63.065,63.065,0,0,1,8.14,2.334l-5.094,14.108a48.382,48.382,0,0,0-16.472-2.864v-15Z" transform="translate(-8)" fill="#e6e6e6"/><path d="M871.386,434.267a63.831,63.831,0,0,1,11.521,9.746h0l.116.125h0l.028.031h0c.049.052.1.105.146.158h0l.116.126h0l.028.031h0l.027.031h0l.114.126h0l.114.126v0l.028.03v0l.028.03h0l.084.1h0l.026.03,0,0,.027.03,0,0,.027.03v0l.028.03h0l.026.03,0,0,.026.029,0,0,.025.028,0,0,.026.03h0l.027.031h0l.027.03,0,0,.025.028,0,.005.025.028,0,0,.026.029,0,0,.054.061,0,0,.025.029,0,0,.026.029,0,0,.026.029,0,0,.025.029,0,0,.026.03,0,0,.026.029,0,0,.025.029,0,0,.026.029,0,0,.053.061,0,0,.025.029,0,.005.024.027.005.006.024.028,0,0,.023.027,0,0,.024.027,0,.005.023.027.006.007.023.027.005.006.024.027.005.006.024.029h0l.023.027.006.007.022.026.007.007.022.026.006.008.022.026.007.007.02.025.007.008.02.024.006.006.022.026.007.009.022.025.007.008.021.026.007.008.02.024.008.008.018.023.007.007.021.026.008.008.021.025.007.01.021.024.008.01.018.021.01.012.017.02.01.012.017.021.009.011.02.024.009.01.02.024.008.01.018.021.01.012.015.019.012.014.017.02.009.011.019.023.01.011.018.023.01.012.015.018.013.016.015.017.011.014.017.02.009.011.019.023.009.012.019.022.01.013.014.017.015.017.012.016.015.018.013.015.012.016.016.018.012.015.015.019.013.016.012.014.016.02.012.015.016.019.011.014.016.02.012.015.012.015.016.019.013.016.011.013.017.022.01.011.019.024.009.011.017.022.011.013.013.016.016.02.012.015.01.013.019.023.008.01.02.025.008.01.023.028.005.007.043.053,0,0,.025.032.005.006.024.03.005.006.026.032,0,0,.044.054,0,0,.027.034,0,0,.027.034h0l.029.037h0l.074.093h0l.029.036v0c.315.4.623.8.927,1.208l-12.008,8.989a48.658,48.658,0,0,0-12.185-11.488Z" transform="translate(-6)" fill="#e6e6e6"/><path d="M894.809,462.238a63.037,63.037,0,0,1,4.495,16.006h0l.018.124h0l.007.046v.005l.017.121h0l.007.049h0l.017.123v0l.006.045v.005l.006.046v0l.01.072v0l.006.044v.006l.015.119v.006l.005.042v.007l.01.071v0l.005.043,0,.009,0,.04v.007l.009.072v0l.005.043v.01l.005.037v.01l.009.07v.008l0,.038,0,.011,0,.034v.013l.009.068v.013l0,.033,0,.014,0,.031,0,.016,0,.02,0,.026,0,.021,0,.016,0,.029,0,.016,0,.028,0,.019,0,.018,0,.027,0,.02,0,.016,0,.03,0,.017,0,.026,0,.02,0,.019,0,.027,0,.019,0,.017,0,.029,0,.016,0,.024,0,.023,0,.018,0,.027,0,.02,0,.019,0,.025,0,.02,0,.02,0,.026,0,.018,0,.025,0,.021,0,.019,0,.025,0,.02,0,.018,0,.028v.018l0,.025,0,.021,0,.021,0,.021,0,.024v.016l0,.03,0,.016,0,.028,0,.018,0,.022,0,.02,0,.024,0,.017,0,.029v.017l0,.024,0,.022,0,.021,0,.022,0,.023,0,.017,0,.03v.015l0,.027v.019l0,.023v.016l0,.029v.015l0,.031,0,.015,0,.024,0,.022,0,.022v.016l0,.03v.015l0,.031v.015l0,.027v.017l0,.025v.014l0,.031v.015l0,.031v.015l0,.025,0,.02,0,.025v.013l0,.032v.015l0,.031v.014l0,.026v.017l0,.028v.012l0,.033v.013l0,.033v.013l0,.027,0,.016,0,.028v.013l0,.033v.013l0,.034v.01l0,.03v.011l0,.033v.011l0,.035v.01l0,.036v.008l0,.032v.009l0,.035v.011l0,.035v.01l0,.036v.008l0,.032v.009l0,.035v.011l0,.035v.01l0,.036v.006l0,.034v.009l0,.035v.011l0,.035v.009l0,.038v.005l0,.035v.007l0,.038v.008l0,.037v.008l0,.038v0l0,.038v.006l0,.038v.008l0,.038v.007l0,.039v0l0,.038v.007l0,.038v.007l0,.038v.007l0,.038v0l0,.039v.005l-14.975.873a48.1,48.1,0,0,0-3.833-16.252l13.781-5.925Z" transform="translate(-6 2.936)" fill="#e6e6e6"/><path d="M884.194,495.859l14.769,2.625q-.274,1.542-.622,3.058v0l-.011.044v0l-.01.042v.006l-.016.069,0,0-.009.041,0,.007-.009.039,0,.007-.016.068v.009l-.009.037,0,.01-.008.034,0,.012-.005.025-.005.021-.005.019,0,.017-.007.028,0,.016-.007.027,0,.017-.005.023-.006.022,0,.018-.006.027-.005.018,0,.019-.006.023-.005.021-.005.019-.006.025,0,.015-.007.029,0,.015-.007.026,0,.018-.006.023,0,.016-.006.027,0,.014-.007.029,0,.015-.007.03,0,.013-.007.026,0,.015-.007.027,0,.012-.008.032,0,.012-.008.033,0,.009-.008.032,0,.01-.008.031,0,.008-.009.034,0,.01-.009.034,0,.008-.009.036v0l-.009.036v0l-.01.036,0,.008-.009.036v.006l-.01.038v0l-.01.041h0l-.01.038,0,.006-.009.037,0,0-.009.038,0,0-.02.079v0l-.01.039v0l-.01.039v0l-.022.081h0l-.011.04v0l-.011.04v0l-.045.166h0a63.1,63.1,0,0,1-4.353,11.535h0l-.018.037v0l-.037.074h0l-.019.037v0l-.019.036v0l-.037.074v0l-.018.035,0,0-.017.035,0,0-.018.035v0l-.018.035h0l-.018.035,0,.005-.017.034,0,0-.017.034,0,.005-.018.035h0l-.017.034,0,.006-.016.032,0,.007-.016.032,0,.007-.016.032,0,0-.016.031,0,.006-.017.032,0,.007-.016.032,0,.007-.016.032,0,.005-.015.03,0,.006-.015.031-.005.009-.015.029-.005.01-.015.03-.005.009-.013.025-.006.012-.014.026-.005.01-.014.028-.007.012-.014.028-.006.01-.012.024-.008.015-.011.022-.006.012-.014.026-.008.014-.013.026-.007.013-.012.023-.008.015-.011.021-.007.014-.013.024-.007.014-.014.026-.006.013-.014.026-.007.013-.01.019-.01.018-.01.02-.008.015-.013.024-.008.015-.013.024-.008.015-.01.019-.01.02-.009.017-.01.018-.012.022-.008.015-.012.024-.009.016-.009.017-.012.021-.007.015-.014.026-.008.013-.009.017-.012.023-.009.017-.008.014-.013.026-.007.012-.015.028-.006.012-.012.021-.01.019-.01.017-.006.012-.015.028-.006.011-.016.029-.005.01-.018.033,0,.007-.011.019,0,.005-.02.036,0,.005-.019.035,0,.007-.021.038v0l-.057.1h0l-.1.188h0c-.182.326-.365.65-.552.973l-12.985-7.51A47.979,47.979,0,0,0,884.194,495.859Z" transform="translate(-5 5.557)" fill="#e6e6e6"/><path d="M871.613,520.7l10.875,10.332q-2.071,2.181-4.343,4.16h0l-.035.03h0l-.126.109h0l-.036.031h0l-.126.109h0l-.035.031h0l-.126.108h0l-.162.138h0l-.034.029,0,0-.032.028,0,0-.089.075,0,0-.034.028,0,0-.089.076h0l-.033.028,0,0-.03.025-.007.005-.031.026,0,0-.054.045h0l-.034.028-.005,0-.031.026-.005,0-.031.026,0,0-.053.044-.007.006-.027.022-.01.008-.026.022-.008.007-.027.022-.008.007-.053.043-.007.005-.028.023-.007.006-.028.023-.008.006-.029.025-.006,0-.052.043-.009.007-.027.022-.007.006-.029.023-.006.006-.031.025-.005,0-.053.043-.008.007-.027.022-.008.007-.027.021-.009.007-.025.02-.011.009-.015.013-.02.016-.016.012-.01.009-.025.02-.011.008-.025.02-.01.008-.023.019-.013.01-.015.012-.016.013-.02.016-.01.008-.025.02-.01.008-.024.019-.012.01-.022.017-.012.01-.018.014-.018.014-.016.013-.011.009-.025.019-.01.009-.024.018-.012.01-.024.019-.011.009-.016.012-.02.016-.015.012-.013.01-.022.017-.013.01-.022.018-.013.01-.019.015-.016.013-.015.011-.021.016-.014.012-.014.011-.022.017-.013.01-.022.017-.012.01-.022.017-.014.011-.015.012-.02.015-.016.012-.016.012-.018.015-.014.011-.022.017-.013.01-.02.015-.015.012-.016.012-.021.016-.014.011-.017.013-.018.014-.015.012-.019.014-.016.012-.018.014-.017.014-.014.01-.022.017-.014.011-.018.013-.017.014-.015.011-.02.015-.015.012-.015.011-.021.016-.013.01-.023.017-.013.01-.018.014-.018.014-.015.012-.019.014-.017.012-.013.01-.023.018-.012.009-.023.017-.013.01-.021.016-.013.01-.018.014-.017.013-.018.013-.012.009-.023.017-.014.01-.022.017-.013.01-.021.015-.014.012-.018.013-.016.012-.019.014-.012.009-.023.017-.013.01-.023.017-.013.01-.019.014-.017.012-.016.013-.018.013-.018.013-.013.01-.022.016-.013.01-.023.017-.013.01-.02.014-.016.012-.018.013-.017.012-.017.014-.013.009-.024.017-.012.009-.023.017-.013.01-.024.018-.011.007-.019.015-.015.01-.021.016-.01.007-.025.018-.011.009-.026.018-.009.007-.026.019-.01.008-.022.015-.013.01-.02.014-.012.009-.025.018-.011.008-.025.018-.011.008-.025.019-.01.007-.021.015-.013.009-.023.016-.009.007-.026.019-.01.008-.026.018-.011.008-.023.016-.013.01-.02.014-.013.01-.023.016-.01.007-.026.019-.01.007-.026.018-.01.008-.026.018-.009.007-.023.016-.011.007-.024.018-.009.006-.026.019-.011.008-.026.018-.01.007-.026.019-.009.006-.024.017-.009.006-.025.018-.01.007-.026.018-.01.008-.027.018-.009.007-.027.019-.009.006-.023.016-.01.007-.025.018-.009.006-.027.019-.009.007-.028.019-.008.006-.028.019-.008.005-.025.018-.008.006-.027.018-.008.006-.028.019-.009.006-.027.019-.009.007-.028.019-.006,0-.027.019-.007.005-.028.019-.007.005-.028.02-.009.006-.028.019-.008.005-.029.02-.006.005-.027.018-.006.005-.028.019-.009.005-.027.02-.009.005-.028.02-.008,0-.029.02-.007,0-.026.019-.007,0-.028.019-.008.005-.028.02-.008.005-.028.019-.009.007-.028.018-.009.006-.025.017-.006.005-.029.019-.007.005-.03.02-.007.005-.029.019-.008.005-.029.02-.006,0-.028.019-.005,0-.03.021-.006,0-.029.019-.009.006-.028.019-.008.005-.03.02-.005,0-.029.019,0,0-.03.02-.007.005-.03.019-.007.005-.029.019-.008.006-.029.019-.006,0-.028.018-.006,0-.029.02-.007,0-.03.02-.007.005-.03.019-.007,0-.03.02-.005,0-.03.02,0,0-.031.02-.007.005-.03.019-.007.005-.029.019-.008.005-.03.02,0,0-.03.019,0,0-.031.02-.007.005-.029.019-.008.005-.03.019-.007.005-.029.019-.008.005-.026.017-.007,0-.028.018-.009.006-.028.018-.009.006-.029.019-.008.005-.029.019-.006,0-.029.018-.005,0-.03.02-.007,0-.03.02-.007,0-.03.019-.007.005-.03.019-.007,0-.028.018-.005,0-.03.02-.008,0-.029.019-.008.005-.029.019-.008.005-.03.019-.005,0-.029.019-.005,0-.031.019-.007.005-.029.018-.009.006-.029.018-.008.005-.029.019-.008,0-.027.017-.006,0-.029.019-.009.005-.029.018-.008.005-.029.019-.008,0-.03.018-.006,0-.028.018-.006,0-.03.019-.008.005-.029.018-.009.005-.029.018-.008.005-.029.019-.008,0-.026.017-.008,0-.028.018-.009.006-.029.017-.009.006-.028.017-.01.006-.029.018-.006,0-.027.017-.008,0-.029.018-.008.005-.029.018-.009.006-.03.018-.007,0-.03.019-.007,0-.028.017-.006,0-.03.019-.008.005-.03.018-.007,0-.031.019-.006,0-.032.019,0,0-.03.018-.005,0-.031.019-.008,0-.03.018-.008.005-.03.018-.008.005-.028.018-.009,0-.027.016-.006,0-.031.018-.007.005-.031.018-.007,0-.03.018-.008.005-.031.018-.005,0-.029.018-.006,0-.031.019-.007,0-.029.017-.01.006-.029.017-.008,0-.031.018-.006,0-.028.017-.006,0-.031.018-.008,0-.029.018-.009.005-.03.017-.008.005-.03.018-.008,0-.025.015-.009.006-.028.016-.01.006-.028.016-.011.006-.028.017-.009.005-.03.018-.007,0-.028.016-.006,0-.03.017-.009.005-.03.017-.009.006-.029.016-.009.006-.03.017-.006,0-.028.016-.007,0-.03.018-.008,0-.03.017-.009.005-.03.018-.007,0-.032.018-.006,0-.028.017-.007,0-.029.016-.01.006-.029.017-.009.005-.03.017-.008.005-.03.017-.008,0-.026.015-.008.005-.03.016-.009.006-.029.016-.01.006-.029.016-.009.006-.028.015-.01.006-.025.014-.01.006-.028.016-.01.005-.029.016-.01.006-.028.016-.011.006-.027.015-.01.006-.025.014-.01.005-.028.016-.01.006-.028.015-.012.007-.027.015-.011.006-.026.015-.013.007-.024.013-.009,0-.029.016-.01.006-.028.016-.011.006-.029.015-.009.006-.03.016-.007,0-.028.015-.007,0-.03.017-.01.005-.029.016-.009.005-.03.017-.009.005-.028.015-.01.006-.027.014-.007,0-.03.016-.01.006-.03.016-.009.005-.029.016-.01.006-.03.016-.006,0-.028.015-.008.005-.031.016-.008.005-.03.016-.01.005-.029.016-.009,0-.029.015-.01.006-.025.013-.01.006-.028.015-.012.006-.028.015-.011.006-.029.015-.009.006-.028.014-.011.006-.024.013-.011.006-.028.015-.011.006-.028.015-.011.006-.029.015-.011.006-.023.012-.016.009-.023.011-.012.007-.026.014-.012.006-.028.015-.011.006-.028.014-.013.007-.024.013-.014.007-.022.012-.014.007-.025.013-.012.007-.027.014-.014.007-.027.014-.012.006-.024.013-.014.007-.023.012-.013.007-.026.013-.013.007-.026.014-.013.006-.027.015-.013.006-.023.012-.016.008-.021.011-.016.008-.023.012-.014.007-.026.014-.013.007-.028.014-.012.006-.024.012-.014.008-.024.012-.012.006-.026.013-.013.007-.027.014-.013.006-.027.014-.014.007-.022.011-.016.008-.021.011-.017.009-.022.011-.014.007-.026.013-.015.008-.025.013-.014.007-.022.01-.018.01-.019.009-.019.01-.021.01-.009.005-6.733-13.4A48.53,48.53,0,0,0,871.613,520.7Z" transform="translate(-3 8.006)" fill="#e6e6e6"/><path d="M847.45,534.547l3.386,14.613a63.512,63.512,0,0,1-10.717,1.533h0l-.024,0h0l-.177.01h0l-.177.009h-.1l-.119.006h-.109l-.094,0h-.135l-.1,0h-.134l-.092,0h-.138l-.066,0h-4.134l-.06,0h-.322l-.063,0h-.143l-.062,0h-.14l-.037,0h-.947l-.027,0h-.148l-.057,0h-.063l-.021,0h-.035l-.086-.005h-.061l-.023,0h-.005l-.027,0h0l-.088-.005h0l-.028,0h0l-.027,0h0q-1.543-.1-3.069-.26l1.6-14.915a55.124,55.124,0,0,0,5.875.313A48.808,48.808,0,0,0,847.45,534.547Z" transform="translate(0 8.006)" fill="#e6e6e6"/></g><g transform="translate(886.027 714.202)"><path d="M836.445,423.8h2.08l.037,0h.227l.038,0h.047l.04,0h.007l.037,0h.093l.037,0h.009l.037,0h.009l.037,0h.4l.037,0h.008l.038,0h0l.039,0h0l.039,0h.007l.037,0h.008l.038,0h0l.039,0h.008l.037,0h.008l.037,0h.008l.035,0h0l.038,0h.008l.038,0h.007l.038,0h.006l.034,0h.008l.036,0h.009l.037,0h.008l.035,0h.006l.036,0h.008l.036,0h.01l.036,0h.007l.034,0h.007l.037,0h.009l.035,0h.01l.037,0h.006l.032,0h.01l.035,0h.01l.036,0h.009l.034,0h.006l.035,0h.01l.035,0h.01l.036,0h.008l.032,0h.008l.035,0h.011l.035,0h.01l.036,0h.007l.032,0h.009l.035,0h.011l.035,0h.01l.032,0h.008l.035,0h.009l.035,0h.011l.035,0h.008l.032,0h.008l.035,0h.011l.034,0h.011l.035,0h.008l.031,0h.01l.034,0h.012l.033,0h.012l.031,0h.01l.031,0h.012l.033,0h.012l.034,0h.011l.029,0h.009l.034,0h.012l.034,0h.011l.031,0,.014,0,.028,0h.011l.034,0h.011l.034,0h.011l.03,0h.011l.031,0h.012l.033,0h.013l.033,0h.011l.028,0h.011l.033,0h.012l.034,0h.011l.034,0h.009l.029,0h.012l.033,0h.012l.033,0h.012l.03,0h.011l.031,0h.011l.034,0h.011l.035,0h.009l.031,0h.008l.035,0h.01l.035,0h.009l.036,0h.008l.031,0h.01l.034,0h.011l.034,0h.01l.032,0h.009l.032,0,.011,0,.034,0h.011l.035,0h.008l.031,0h.009l.034,0h.012l.032,0h.014l.03,0h.012l.028,0h.011l.034,0h.012l.033,0h.012l.028,0h.013l.03,0,.012,0,.033,0h.011l.034,0h.011l.028,0h.01l.033,0,.013,0,.032,0h.013l.028,0,.016,0,.026,0,.012,0,.032,0h.014l.032,0,.013,0,.026,0,.015,0,.028,0h.013l.031,0,.015,0,.031,0h.013l.025,0h.014l.031,0,.013,0,.031,0h.015l.025,0,.019,0,.023,0,.014,0,.031,0h.014l.031,0,.015,0,.023,0,.02,0,.024,0,.015,0,.03,0,.016,0,.028,0,.016,0,.022,0,.02,0,.024,0,.017,0,.028,0,.017,0,.023,0,.02,0,.023,0,.016,0,.028,0,.017,0,.029,0,.017,0,.018,0,.025,0,.021,0,.016,0,.028,0,.019,0,.021,0,.023,0,.02,0,.022,0,.023,0,.016,0,.029,0,.016,0,.023,0,.021,0,.022,0,.015,0,.029,0,.017,0,.026,0,.02,0,.019,0,.024,0,.021,0,.016,0,.029.005.016,0,.025,0,.02,0,.02,0,.021,0,.024,0,.017,0,.028.005.017,0,.019,0,.027,0,.017,0,.021,0,.025,0,.018,0,.028,0,.017,0,.018,0,.025,0,.02,0,.017,0,.028,0,.017,0,.024,0,.021,0,.018,0,.026,0,.02,0,.017,0,.028,0,.018,0,.019,0,.025,0,.018,0,.025,0,.02,0,.018,0,.025,0,.021,0,.017,0,.027,0,.018,0,.019,0,.026,0,.019,0,.018,0,.028,0,.014,0,.03.005.016,0,.019,0,.026.005.02,0,.015,0,.031.005.014,0,.032,0,.013,0,.021,0,.018,0,.027,0,.014,0,.031.006.014,0,.026,0,.019,0,.021,0,.013,0,.032.005.014,0,.033.005.012,0,.021,0h.007l.039.007.012,0,.033.006.013,0,.032.005.013,0,.022,0,.007,0,.039.006.01,0,.036.006.01,0,.04.007h.006l.022,0,.009,0,.038.006.009,0,.038.007h.008l.068.012.011,0,.035.006.011,0,.036.007h.01l.022,0,.006,0,.04.007h.008l.04.008h.006l.07.012.007,0,.039.007h.009l.037.007.009,0,.069.013h.007l.041.008h.005l.071.013h0l.046.009h.006l.041.008h.006l.07.013h.005l.042.008h.005l.119.023h0l.044.008h.005l.118.023h0l.045.009h0l.118.024h0l.046.009h0l.072.014h0l.043.009h.006l.116.023.006,0,.043.009h0l.119.025h0l.12.025h0l.048.01h0l.29.062h0a63.065,63.065,0,0,1,8.14,2.334l-5.094,14.108a48.382,48.382,0,0,0-16.472-2.864v-15Z" transform="translate(-8)" fill="#e6e6e6"/><path d="M871.386,434.267a63.831,63.831,0,0,1,11.521,9.746h0l.116.125h0l.028.031h0c.049.052.1.105.146.158h0l.116.126h0l.028.031h0l.027.031h0l.114.126h0l.114.126v0l.028.03v0l.028.03h0l.084.1h0l.026.03,0,0,.027.03,0,0,.027.03v0l.028.03h0l.026.03,0,0,.026.029,0,0,.025.028,0,0,.026.03h0l.027.031h0l.027.03,0,0,.025.028,0,.005.025.028,0,0,.026.029,0,0,.054.061,0,0,.025.029,0,0,.026.029,0,0,.026.029,0,0,.025.029,0,0,.026.03,0,0,.026.029,0,0,.025.029,0,0,.026.029,0,0,.053.061,0,0,.025.029,0,.005.024.027.005.006.024.028,0,0,.023.027,0,0,.024.027,0,.005.023.027.006.007.023.027.005.006.024.027.005.006.024.029h0l.023.027.006.007.022.026.007.007.022.026.006.008.022.026.007.007.02.025.007.008.02.024.006.006.022.026.007.009.022.025.007.008.021.026.007.008.02.024.008.008.018.023.007.007.021.026.008.008.021.025.007.01.021.024.008.01.018.021.01.012.017.02.01.012.017.021.009.011.02.024.009.01.02.024.008.01.018.021.01.012.015.019.012.014.017.02.009.011.019.023.01.011.018.023.01.012.015.018.013.016.015.017.011.014.017.02.009.011.019.023.009.012.019.022.01.013.014.017.015.017.012.016.015.018.013.015.012.016.016.018.012.015.015.019.013.016.012.014.016.02.012.015.016.019.011.014.016.02.012.015.012.015.016.019.013.016.011.013.017.022.01.011.019.024.009.011.017.022.011.013.013.016.016.02.012.015.01.013.019.023.008.01.02.025.008.01.023.028.005.007.043.053,0,0,.025.032.005.006.024.03.005.006.026.032,0,0,.044.054,0,0,.027.034,0,0,.027.034h0l.029.037h0l.074.093h0l.029.036v0c.315.4.623.8.927,1.208l-12.008,8.989a48.658,48.658,0,0,0-12.185-11.488Z" transform="translate(-6)" fill="#e6e6e6"/><path d="M894.809,462.238a63.037,63.037,0,0,1,4.495,16.006h0l.018.124h0l.007.046v.005l.017.121h0l.007.049h0l.017.123v0l.006.045v.005l.006.046v0l.01.072v0l.006.044v.006l.015.119v.006l.005.042v.007l.01.071v0l.005.043,0,.009,0,.04v.007l.009.072v0l.005.043v.01l.005.037v.01l.009.07v.008l0,.038,0,.011,0,.034v.013l.009.068v.013l0,.033,0,.014,0,.031,0,.016,0,.02,0,.026,0,.021,0,.016,0,.029,0,.016,0,.028,0,.019,0,.018,0,.027,0,.02,0,.016,0,.03,0,.017,0,.026,0,.02,0,.019,0,.027,0,.019,0,.017,0,.029,0,.016,0,.024,0,.023,0,.018,0,.027,0,.02,0,.019,0,.025,0,.02,0,.02,0,.026,0,.018,0,.025,0,.021,0,.019,0,.025,0,.02,0,.018,0,.028v.018l0,.025,0,.021,0,.021,0,.021,0,.024v.016l0,.03,0,.016,0,.028,0,.018,0,.022,0,.02,0,.024,0,.017,0,.029v.017l0,.024,0,.022,0,.021,0,.022,0,.023,0,.017,0,.03v.015l0,.027v.019l0,.023v.016l0,.029v.015l0,.031,0,.015,0,.024,0,.022,0,.022v.016l0,.03v.015l0,.031v.015l0,.027v.017l0,.025v.014l0,.031v.015l0,.031v.015l0,.025,0,.02,0,.025v.013l0,.032v.015l0,.031v.014l0,.026v.017l0,.028v.012l0,.033v.013l0,.033v.013l0,.027,0,.016,0,.028v.013l0,.033v.013l0,.034v.01l0,.03v.011l0,.033v.011l0,.035v.01l0,.036v.008l0,.032v.009l0,.035v.011l0,.035v.01l0,.036v.008l0,.032v.009l0,.035v.011l0,.035v.01l0,.036v.006l0,.034v.009l0,.035v.011l0,.035v.009l0,.038v.005l0,.035v.007l0,.038v.008l0,.037v.008l0,.038v0l0,.038v.006l0,.038v.008l0,.038v.007l0,.039v0l0,.038v.007l0,.038v.007l0,.038v.007l0,.038v0l0,.039v.005l-14.975.873a48.1,48.1,0,0,0-3.833-16.252l13.781-5.925Z" transform="translate(-6 2.936)" fill="#e6e6e6"/><path d="M884.194,495.859l14.769,2.625q-.274,1.542-.622,3.058v0l-.011.044v0l-.01.042v.006l-.016.069,0,0-.009.041,0,.007-.009.039,0,.007-.016.068v.009l-.009.037,0,.01-.008.034,0,.012-.005.025-.005.021-.005.019,0,.017-.007.028,0,.016-.007.027,0,.017-.005.023-.006.022,0,.018-.006.027-.005.018,0,.019-.006.023-.005.021-.005.019-.006.025,0,.015-.007.029,0,.015-.007.026,0,.018-.006.023,0,.016-.006.027,0,.014-.007.029,0,.015-.007.03,0,.013-.007.026,0,.015-.007.027,0,.012-.008.032,0,.012-.008.033,0,.009-.008.032,0,.01-.008.031,0,.008-.009.034,0,.01-.009.034,0,.008-.009.036v0l-.009.036v0l-.01.036,0,.008-.009.036v.006l-.01.038v0l-.01.041h0l-.01.038,0,.006-.009.037,0,0-.009.038,0,0-.02.079v0l-.01.039v0l-.01.039v0l-.022.081h0l-.011.04v0l-.011.04v0l-.045.166h0a63.1,63.1,0,0,1-4.353,11.535h0l-.018.037v0l-.037.074h0l-.019.037v0l-.019.036v0l-.037.074v0l-.018.035,0,0-.017.035,0,0-.018.035v0l-.018.035h0l-.018.035,0,.005-.017.034,0,0-.017.034,0,.005-.018.035h0l-.017.034,0,.006-.016.032,0,.007-.016.032,0,.007-.016.032,0,0-.016.031,0,.006-.017.032,0,.007-.016.032,0,.007-.016.032,0,.005-.015.03,0,.006-.015.031-.005.009-.015.029-.005.01-.015.03-.005.009-.013.025-.006.012-.014.026-.005.01-.014.028-.007.012-.014.028-.006.01-.012.024-.008.015-.011.022-.006.012-.014.026-.008.014-.013.026-.007.013-.012.023-.008.015-.011.021-.007.014-.013.024-.007.014-.014.026-.006.013-.014.026-.007.013-.01.019-.01.018-.01.02-.008.015-.013.024-.008.015-.013.024-.008.015-.01.019-.01.02-.009.017-.01.018-.012.022-.008.015-.012.024-.009.016-.009.017-.012.021-.007.015-.014.026-.008.013-.009.017-.012.023-.009.017-.008.014-.013.026-.007.012-.015.028-.006.012-.012.021-.01.019-.01.017-.006.012-.015.028-.006.011-.016.029-.005.01-.018.033,0,.007-.011.019,0,.005-.02.036,0,.005-.019.035,0,.007-.021.038v0l-.057.1h0l-.1.188h0c-.182.326-.365.65-.552.973l-12.985-7.51A47.979,47.979,0,0,0,884.194,495.859Z" transform="translate(-5 5.557)" fill="#e6e6e6"/><path d="M871.613,520.7l10.875,10.332q-2.071,2.181-4.343,4.16h0l-.035.03h0l-.126.109h0l-.036.031h0l-.126.109h0l-.035.031h0l-.126.108h0l-.162.138h0l-.034.029,0,0-.032.028,0,0-.089.075,0,0-.034.028,0,0-.089.076h0l-.033.028,0,0-.03.025-.007.005-.031.026,0,0-.054.045h0l-.034.028-.005,0-.031.026-.005,0-.031.026,0,0-.053.044-.007.006-.027.022-.01.008-.026.022-.008.007-.027.022-.008.007-.053.043-.007.005-.028.023-.007.006-.028.023-.008.006-.029.025-.006,0-.052.043-.009.007-.027.022-.007.006-.029.023-.006.006-.031.025-.005,0-.053.043-.008.007-.027.022-.008.007-.027.021-.009.007-.025.02-.011.009-.015.013-.02.016-.016.012-.01.009-.025.02-.011.008-.025.02-.01.008-.023.019-.013.01-.015.012-.016.013-.02.016-.01.008-.025.02-.01.008-.024.019-.012.01-.022.017-.012.01-.018.014-.018.014-.016.013-.011.009-.025.019-.01.009-.024.018-.012.01-.024.019-.011.009-.016.012-.02.016-.015.012-.013.01-.022.017-.013.01-.022.018-.013.01-.019.015-.016.013-.015.011-.021.016-.014.012-.014.011-.022.017-.013.01-.022.017-.012.01-.022.017-.014.011-.015.012-.02.015-.016.012-.016.012-.018.015-.014.011-.022.017-.013.01-.02.015-.015.012-.016.012-.021.016-.014.011-.017.013-.018.014-.015.012-.019.014-.016.012-.018.014-.017.014-.014.01-.022.017-.014.011-.018.013-.017.014-.015.011-.02.015-.015.012-.015.011-.021.016-.013.01-.023.017-.013.01-.018.014-.018.014-.015.012-.019.014-.017.012-.013.01-.023.018-.012.009-.023.017-.013.01-.021.016-.013.01-.018.014-.017.013-.018.013-.012.009-.023.017-.014.01-.022.017-.013.01-.021.015-.014.012-.018.013-.016.012-.019.014-.012.009-.023.017-.013.01-.023.017-.013.01-.019.014-.017.012-.016.013-.018.013-.018.013-.013.01-.022.016-.013.01-.023.017-.013.01-.02.014-.016.012-.018.013-.017.012-.017.014-.013.009-.024.017-.012.009-.023.017-.013.01-.024.018-.011.007-.019.015-.015.01-.021.016-.01.007-.025.018-.011.009-.026.018-.009.007-.026.019-.01.008-.022.015-.013.01-.02.014-.012.009-.025.018-.011.008-.025.018-.011.008-.025.019-.01.007-.021.015-.013.009-.023.016-.009.007-.026.019-.01.008-.026.018-.011.008-.023.016-.013.01-.02.014-.013.01-.023.016-.01.007-.026.019-.01.007-.026.018-.01.008-.026.018-.009.007-.023.016-.011.007-.024.018-.009.006-.026.019-.011.008-.026.018-.01.007-.026.019-.009.006-.024.017-.009.006-.025.018-.01.007-.026.018-.01.008-.027.018-.009.007-.027.019-.009.006-.023.016-.01.007-.025.018-.009.006-.027.019-.009.007-.028.019-.008.006-.028.019-.008.005-.025.018-.008.006-.027.018-.008.006-.028.019-.009.006-.027.019-.009.007-.028.019-.006,0-.027.019-.007.005-.028.019-.007.005-.028.02-.009.006-.028.019-.008.005-.029.02-.006.005-.027.018-.006.005-.028.019-.009.005-.027.02-.009.005-.028.02-.008,0-.029.02-.007,0-.026.019-.007,0-.028.019-.008.005-.028.02-.008.005-.028.019-.009.007-.028.018-.009.006-.025.017-.006.005-.029.019-.007.005-.03.02-.007.005-.029.019-.008.005-.029.02-.006,0-.028.019-.005,0-.03.021-.006,0-.029.019-.009.006-.028.019-.008.005-.03.02-.005,0-.029.019,0,0-.03.02-.007.005-.03.019-.007.005-.029.019-.008.006-.029.019-.006,0-.028.018-.006,0-.029.02-.007,0-.03.02-.007.005-.03.019-.007,0-.03.02-.005,0-.03.02,0,0-.031.02-.007.005-.03.019-.007.005-.029.019-.008.005-.03.02,0,0-.03.019,0,0-.031.02-.007.005-.029.019-.008.005-.03.019-.007.005-.029.019-.008.005-.026.017-.007,0-.028.018-.009.006-.028.018-.009.006-.029.019-.008.005-.029.019-.006,0-.029.018-.005,0-.03.02-.007,0-.03.02-.007,0-.03.019-.007.005-.03.019-.007,0-.028.018-.005,0-.03.02-.008,0-.029.019-.008.005-.029.019-.008.005-.03.019-.005,0-.029.019-.005,0-.031.019-.007.005-.029.018-.009.006-.029.018-.008.005-.029.019-.008,0-.027.017-.006,0-.029.019-.009.005-.029.018-.008.005-.029.019-.008,0-.03.018-.006,0-.028.018-.006,0-.03.019-.008.005-.029.018-.009.005-.029.018-.008.005-.029.019-.008,0-.026.017-.008,0-.028.018-.009.006-.029.017-.009.006-.028.017-.01.006-.029.018-.006,0-.027.017-.008,0-.029.018-.008.005-.029.018-.009.006-.03.018-.007,0-.03.019-.007,0-.028.017-.006,0-.03.019-.008.005-.03.018-.007,0-.031.019-.006,0-.032.019,0,0-.03.018-.005,0-.031.019-.008,0-.03.018-.008.005-.03.018-.008.005-.028.018-.009,0-.027.016-.006,0-.031.018-.007.005-.031.018-.007,0-.03.018-.008.005-.031.018-.005,0-.029.018-.006,0-.031.019-.007,0-.029.017-.01.006-.029.017-.008,0-.031.018-.006,0-.028.017-.006,0-.031.018-.008,0-.029.018-.009.005-.03.017-.008.005-.03.018-.008,0-.025.015-.009.006-.028.016-.01.006-.028.016-.011.006-.028.017-.009.005-.03.018-.007,0-.028.016-.006,0-.03.017-.009.005-.03.017-.009.006-.029.016-.009.006-.03.017-.006,0-.028.016-.007,0-.03.018-.008,0-.03.017-.009.005-.03.018-.007,0-.032.018-.006,0-.028.017-.007,0-.029.016-.01.006-.029.017-.009.005-.03.017-.008.005-.03.017-.008,0-.026.015-.008.005-.03.016-.009.006-.029.016-.01.006-.029.016-.009.006-.028.015-.01.006-.025.014-.01.006-.028.016-.01.005-.029.016-.01.006-.028.016-.011.006-.027.015-.01.006-.025.014-.01.005-.028.016-.01.006-.028.015-.012.007-.027.015-.011.006-.026.015-.013.007-.024.013-.009,0-.029.016-.01.006-.028.016-.011.006-.029.015-.009.006-.03.016-.007,0-.028.015-.007,0-.03.017-.01.005-.029.016-.009.005-.03.017-.009.005-.028.015-.01.006-.027.014-.007,0-.03.016-.01.006-.03.016-.009.005-.029.016-.01.006-.03.016-.006,0-.028.015-.008.005-.031.016-.008.005-.03.016-.01.005-.029.016-.009,0-.029.015-.01.006-.025.013-.01.006-.028.015-.012.006-.028.015-.011.006-.029.015-.009.006-.028.014-.011.006-.024.013-.011.006-.028.015-.011.006-.028.015-.011.006-.029.015-.011.006-.023.012-.016.009-.023.011-.012.007-.026.014-.012.006-.028.015-.011.006-.028.014-.013.007-.024.013-.014.007-.022.012-.014.007-.025.013-.012.007-.027.014-.014.007-.027.014-.012.006-.024.013-.014.007-.023.012-.013.007-.026.013-.013.007-.026.014-.013.006-.027.015-.013.006-.023.012-.016.008-.021.011-.016.008-.023.012-.014.007-.026.014-.013.007-.028.014-.012.006-.024.012-.014.008-.024.012-.012.006-.026.013-.013.007-.027.014-.013.006-.027.014-.014.007-.022.011-.016.008-.021.011-.017.009-.022.011-.014.007-.026.013-.015.008-.025.013-.014.007-.022.01-.018.01-.019.009-.019.01-.021.01-.009.005-6.733-13.4A48.53,48.53,0,0,0,871.613,520.7Z" transform="translate(-3 8.006)" fill="#e6e6e6"/><path d="M847.45,534.547l3.386,14.613a63.512,63.512,0,0,1-10.717,1.533h0l-.024,0h0l-.177.01h0l-.177.009h-.1l-.119.006h-.109l-.094,0h-.135l-.1,0h-.134l-.092,0h-.138l-.066,0h-4.134l-.06,0h-.322l-.063,0h-.143l-.062,0h-.14l-.037,0h-.947l-.027,0h-.148l-.057,0h-.063l-.021,0h-.035l-.086-.005h-.061l-.023,0h-.005l-.027,0h0l-.088-.005h0l-.028,0h0l-.027,0h0q-1.543-.1-3.069-.26l1.6-14.915a55.124,55.124,0,0,0,5.875.313A48.808,48.808,0,0,0,847.45,534.547Z" transform="translate(0 8.006)" fill="#e6e6e6"/></g><g transform="translate(1024.435 1814.804) rotate(180)"><path d="M836.445,423.8h2.08l.037,0h.227l.038,0h.047l.04,0h.007l.037,0h.093l.037,0h.009l.037,0h.009l.037,0h.4l.037,0h.008l.038,0h0l.039,0h0l.039,0h.007l.037,0h.008l.038,0h0l.039,0h.008l.037,0h.008l.037,0h.008l.035,0h0l.038,0h.008l.038,0h.007l.038,0h.006l.034,0h.008l.036,0h.009l.037,0h.008l.035,0h.006l.036,0h.008l.036,0h.01l.036,0h.007l.034,0h.007l.037,0h.009l.035,0h.01l.037,0h.006l.032,0h.01l.035,0h.01l.036,0h.009l.034,0h.006l.035,0h.01l.035,0h.01l.036,0h.008l.032,0h.008l.035,0h.011l.035,0h.01l.036,0h.007l.032,0h.009l.035,0h.011l.035,0h.01l.032,0h.008l.035,0h.009l.035,0h.011l.035,0h.008l.032,0h.008l.035,0h.011l.034,0h.011l.035,0h.008l.031,0h.01l.034,0h.012l.033,0h.012l.031,0h.01l.031,0h.012l.033,0h.012l.034,0h.011l.029,0h.009l.034,0h.012l.034,0h.011l.031,0,.014,0,.028,0h.011l.034,0h.011l.034,0h.011l.03,0h.011l.031,0h.012l.033,0h.013l.033,0h.011l.028,0h.011l.033,0h.012l.034,0h.011l.034,0h.009l.029,0h.012l.033,0h.012l.033,0h.012l.03,0h.011l.031,0h.011l.034,0h.011l.035,0h.009l.031,0h.008l.035,0h.01l.035,0h.009l.036,0h.008l.031,0h.01l.034,0h.011l.034,0h.01l.032,0h.009l.032,0,.011,0,.034,0h.011l.035,0h.008l.031,0h.009l.034,0h.012l.032,0h.014l.03,0h.012l.028,0h.011l.034,0h.012l.033,0h.012l.028,0h.013l.03,0,.012,0,.033,0h.011l.034,0h.011l.028,0h.01l.033,0,.013,0,.032,0h.013l.028,0,.016,0,.026,0,.012,0,.032,0h.014l.032,0,.013,0,.026,0,.015,0,.028,0h.013l.031,0,.015,0,.031,0h.013l.025,0h.014l.031,0,.013,0,.031,0h.015l.025,0,.019,0,.023,0,.014,0,.031,0h.014l.031,0,.015,0,.023,0,.02,0,.024,0,.015,0,.03,0,.016,0,.028,0,.016,0,.022,0,.02,0,.024,0,.017,0,.028,0,.017,0,.023,0,.02,0,.023,0,.016,0,.028,0,.017,0,.029,0,.017,0,.018,0,.025,0,.021,0,.016,0,.028,0,.019,0,.021,0,.023,0,.02,0,.022,0,.023,0,.016,0,.029,0,.016,0,.023,0,.021,0,.022,0,.015,0,.029,0,.017,0,.026,0,.02,0,.019,0,.024,0,.021,0,.016,0,.029.005.016,0,.025,0,.02,0,.02,0,.021,0,.024,0,.017,0,.028.005.017,0,.019,0,.027,0,.017,0,.021,0,.025,0,.018,0,.028,0,.017,0,.018,0,.025,0,.02,0,.017,0,.028,0,.017,0,.024,0,.021,0,.018,0,.026,0,.02,0,.017,0,.028,0,.018,0,.019,0,.025,0,.018,0,.025,0,.02,0,.018,0,.025,0,.021,0,.017,0,.027,0,.018,0,.019,0,.026,0,.019,0,.018,0,.028,0,.014,0,.03.005.016,0,.019,0,.026.005.02,0,.015,0,.031.005.014,0,.032,0,.013,0,.021,0,.018,0,.027,0,.014,0,.031.006.014,0,.026,0,.019,0,.021,0,.013,0,.032.005.014,0,.033.005.012,0,.021,0h.007l.039.007.012,0,.033.006.013,0,.032.005.013,0,.022,0,.007,0,.039.006.01,0,.036.006.01,0,.04.007h.006l.022,0,.009,0,.038.006.009,0,.038.007h.008l.068.012.011,0,.035.006.011,0,.036.007h.01l.022,0,.006,0,.04.007h.008l.04.008h.006l.07.012.007,0,.039.007h.009l.037.007.009,0,.069.013h.007l.041.008h.005l.071.013h0l.046.009h.006l.041.008h.006l.07.013h.005l.042.008h.005l.119.023h0l.044.008h.005l.118.023h0l.045.009h0l.118.024h0l.046.009h0l.072.014h0l.043.009h.006l.116.023.006,0,.043.009h0l.119.025h0l.12.025h0l.048.01h0l.29.062h0a63.065,63.065,0,0,1,8.14,2.334l-5.094,14.108a48.382,48.382,0,0,0-16.472-2.864v-15Z" transform="translate(-8)" fill="#e6e6e6"/><path d="M871.386,434.267a63.831,63.831,0,0,1,11.521,9.746h0l.116.125h0l.028.031h0c.049.052.1.105.146.158h0l.116.126h0l.028.031h0l.027.031h0l.114.126h0l.114.126v0l.028.03v0l.028.03h0l.084.1h0l.026.03,0,0,.027.03,0,0,.027.03v0l.028.03h0l.026.03,0,0,.026.029,0,0,.025.028,0,0,.026.03h0l.027.031h0l.027.03,0,0,.025.028,0,.005.025.028,0,0,.026.029,0,0,.054.061,0,0,.025.029,0,0,.026.029,0,0,.026.029,0,0,.025.029,0,0,.026.03,0,0,.026.029,0,0,.025.029,0,0,.026.029,0,0,.053.061,0,0,.025.029,0,.005.024.027.005.006.024.028,0,0,.023.027,0,0,.024.027,0,.005.023.027.006.007.023.027.005.006.024.027.005.006.024.029h0l.023.027.006.007.022.026.007.007.022.026.006.008.022.026.007.007.02.025.007.008.02.024.006.006.022.026.007.009.022.025.007.008.021.026.007.008.02.024.008.008.018.023.007.007.021.026.008.008.021.025.007.01.021.024.008.01.018.021.01.012.017.02.01.012.017.021.009.011.02.024.009.01.02.024.008.01.018.021.01.012.015.019.012.014.017.02.009.011.019.023.01.011.018.023.01.012.015.018.013.016.015.017.011.014.017.02.009.011.019.023.009.012.019.022.01.013.014.017.015.017.012.016.015.018.013.015.012.016.016.018.012.015.015.019.013.016.012.014.016.02.012.015.016.019.011.014.016.02.012.015.012.015.016.019.013.016.011.013.017.022.01.011.019.024.009.011.017.022.011.013.013.016.016.02.012.015.01.013.019.023.008.01.02.025.008.01.023.028.005.007.043.053,0,0,.025.032.005.006.024.03.005.006.026.032,0,0,.044.054,0,0,.027.034,0,0,.027.034h0l.029.037h0l.074.093h0l.029.036v0c.315.4.623.8.927,1.208l-12.008,8.989a48.658,48.658,0,0,0-12.185-11.488Z" transform="translate(-6)" fill="#e6e6e6"/><path d="M894.809,462.238a63.037,63.037,0,0,1,4.495,16.006h0l.018.124h0l.007.046v.005l.017.121h0l.007.049h0l.017.123v0l.006.045v.005l.006.046v0l.01.072v0l.006.044v.006l.015.119v.006l.005.042v.007l.01.071v0l.005.043,0,.009,0,.04v.007l.009.072v0l.005.043v.01l.005.037v.01l.009.07v.008l0,.038,0,.011,0,.034v.013l.009.068v.013l0,.033,0,.014,0,.031,0,.016,0,.02,0,.026,0,.021,0,.016,0,.029,0,.016,0,.028,0,.019,0,.018,0,.027,0,.02,0,.016,0,.03,0,.017,0,.026,0,.02,0,.019,0,.027,0,.019,0,.017,0,.029,0,.016,0,.024,0,.023,0,.018,0,.027,0,.02,0,.019,0,.025,0,.02,0,.02,0,.026,0,.018,0,.025,0,.021,0,.019,0,.025,0,.02,0,.018,0,.028v.018l0,.025,0,.021,0,.021,0,.021,0,.024v.016l0,.03,0,.016,0,.028,0,.018,0,.022,0,.02,0,.024,0,.017,0,.029v.017l0,.024,0,.022,0,.021,0,.022,0,.023,0,.017,0,.03v.015l0,.027v.019l0,.023v.016l0,.029v.015l0,.031,0,.015,0,.024,0,.022,0,.022v.016l0,.03v.015l0,.031v.015l0,.027v.017l0,.025v.014l0,.031v.015l0,.031v.015l0,.025,0,.02,0,.025v.013l0,.032v.015l0,.031v.014l0,.026v.017l0,.028v.012l0,.033v.013l0,.033v.013l0,.027,0,.016,0,.028v.013l0,.033v.013l0,.034v.01l0,.03v.011l0,.033v.011l0,.035v.01l0,.036v.008l0,.032v.009l0,.035v.011l0,.035v.01l0,.036v.008l0,.032v.009l0,.035v.011l0,.035v.01l0,.036v.006l0,.034v.009l0,.035v.011l0,.035v.009l0,.038v.005l0,.035v.007l0,.038v.008l0,.037v.008l0,.038v0l0,.038v.006l0,.038v.008l0,.038v.007l0,.039v0l0,.038v.007l0,.038v.007l0,.038v.007l0,.038v0l0,.039v.005l-14.975.873a48.1,48.1,0,0,0-3.833-16.252l13.781-5.925Z" transform="translate(-6 2.936)" fill="#e6e6e6"/><path d="M884.194,495.859l14.769,2.625q-.274,1.542-.622,3.058v0l-.011.044v0l-.01.042v.006l-.016.069,0,0-.009.041,0,.007-.009.039,0,.007-.016.068v.009l-.009.037,0,.01-.008.034,0,.012-.005.025-.005.021-.005.019,0,.017-.007.028,0,.016-.007.027,0,.017-.005.023-.006.022,0,.018-.006.027-.005.018,0,.019-.006.023-.005.021-.005.019-.006.025,0,.015-.007.029,0,.015-.007.026,0,.018-.006.023,0,.016-.006.027,0,.014-.007.029,0,.015-.007.03,0,.013-.007.026,0,.015-.007.027,0,.012-.008.032,0,.012-.008.033,0,.009-.008.032,0,.01-.008.031,0,.008-.009.034,0,.01-.009.034,0,.008-.009.036v0l-.009.036v0l-.01.036,0,.008-.009.036v.006l-.01.038v0l-.01.041h0l-.01.038,0,.006-.009.037,0,0-.009.038,0,0-.02.079v0l-.01.039v0l-.01.039v0l-.022.081h0l-.011.04v0l-.011.04v0l-.045.166h0a63.1,63.1,0,0,1-4.353,11.535h0l-.018.037v0l-.037.074h0l-.019.037v0l-.019.036v0l-.037.074v0l-.018.035,0,0-.017.035,0,0-.018.035v0l-.018.035h0l-.018.035,0,.005-.017.034,0,0-.017.034,0,.005-.018.035h0l-.017.034,0,.006-.016.032,0,.007-.016.032,0,.007-.016.032,0,0-.016.031,0,.006-.017.032,0,.007-.016.032,0,.007-.016.032,0,.005-.015.03,0,.006-.015.031-.005.009-.015.029-.005.01-.015.03-.005.009-.013.025-.006.012-.014.026-.005.01-.014.028-.007.012-.014.028-.006.01-.012.024-.008.015-.011.022-.006.012-.014.026-.008.014-.013.026-.007.013-.012.023-.008.015-.011.021-.007.014-.013.024-.007.014-.014.026-.006.013-.014.026-.007.013-.01.019-.01.018-.01.02-.008.015-.013.024-.008.015-.013.024-.008.015-.01.019-.01.02-.009.017-.01.018-.012.022-.008.015-.012.024-.009.016-.009.017-.012.021-.007.015-.014.026-.008.013-.009.017-.012.023-.009.017-.008.014-.013.026-.007.012-.015.028-.006.012-.012.021-.01.019-.01.017-.006.012-.015.028-.006.011-.016.029-.005.01-.018.033,0,.007-.011.019,0,.005-.02.036,0,.005-.019.035,0,.007-.021.038v0l-.057.1h0l-.1.188h0c-.182.326-.365.65-.552.973l-12.985-7.51A47.979,47.979,0,0,0,884.194,495.859Z" transform="translate(-5 5.557)" fill="#e6e6e6"/><path d="M871.613,520.7l10.875,10.332q-2.071,2.181-4.343,4.16h0l-.035.03h0l-.126.109h0l-.036.031h0l-.126.109h0l-.035.031h0l-.126.108h0l-.162.138h0l-.034.029,0,0-.032.028,0,0-.089.075,0,0-.034.028,0,0-.089.076h0l-.033.028,0,0-.03.025-.007.005-.031.026,0,0-.054.045h0l-.034.028-.005,0-.031.026-.005,0-.031.026,0,0-.053.044-.007.006-.027.022-.01.008-.026.022-.008.007-.027.022-.008.007-.053.043-.007.005-.028.023-.007.006-.028.023-.008.006-.029.025-.006,0-.052.043-.009.007-.027.022-.007.006-.029.023-.006.006-.031.025-.005,0-.053.043-.008.007-.027.022-.008.007-.027.021-.009.007-.025.02-.011.009-.015.013-.02.016-.016.012-.01.009-.025.02-.011.008-.025.02-.01.008-.023.019-.013.01-.015.012-.016.013-.02.016-.01.008-.025.02-.01.008-.024.019-.012.01-.022.017-.012.01-.018.014-.018.014-.016.013-.011.009-.025.019-.01.009-.024.018-.012.01-.024.019-.011.009-.016.012-.02.016-.015.012-.013.01-.022.017-.013.01-.022.018-.013.01-.019.015-.016.013-.015.011-.021.016-.014.012-.014.011-.022.017-.013.01-.022.017-.012.01-.022.017-.014.011-.015.012-.02.015-.016.012-.016.012-.018.015-.014.011-.022.017-.013.01-.02.015-.015.012-.016.012-.021.016-.014.011-.017.013-.018.014-.015.012-.019.014-.016.012-.018.014-.017.014-.014.01-.022.017-.014.011-.018.013-.017.014-.015.011-.02.015-.015.012-.015.011-.021.016-.013.01-.023.017-.013.01-.018.014-.018.014-.015.012-.019.014-.017.012-.013.01-.023.018-.012.009-.023.017-.013.01-.021.016-.013.01-.018.014-.017.013-.018.013-.012.009-.023.017-.014.01-.022.017-.013.01-.021.015-.014.012-.018.013-.016.012-.019.014-.012.009-.023.017-.013.01-.023.017-.013.01-.019.014-.017.012-.016.013-.018.013-.018.013-.013.01-.022.016-.013.01-.023.017-.013.01-.02.014-.016.012-.018.013-.017.012-.017.014-.013.009-.024.017-.012.009-.023.017-.013.01-.024.018-.011.007-.019.015-.015.01-.021.016-.01.007-.025.018-.011.009-.026.018-.009.007-.026.019-.01.008-.022.015-.013.01-.02.014-.012.009-.025.018-.011.008-.025.018-.011.008-.025.019-.01.007-.021.015-.013.009-.023.016-.009.007-.026.019-.01.008-.026.018-.011.008-.023.016-.013.01-.02.014-.013.01-.023.016-.01.007-.026.019-.01.007-.026.018-.01.008-.026.018-.009.007-.023.016-.011.007-.024.018-.009.006-.026.019-.011.008-.026.018-.01.007-.026.019-.009.006-.024.017-.009.006-.025.018-.01.007-.026.018-.01.008-.027.018-.009.007-.027.019-.009.006-.023.016-.01.007-.025.018-.009.006-.027.019-.009.007-.028.019-.008.006-.028.019-.008.005-.025.018-.008.006-.027.018-.008.006-.028.019-.009.006-.027.019-.009.007-.028.019-.006,0-.027.019-.007.005-.028.019-.007.005-.028.02-.009.006-.028.019-.008.005-.029.02-.006.005-.027.018-.006.005-.028.019-.009.005-.027.02-.009.005-.028.02-.008,0-.029.02-.007,0-.026.019-.007,0-.028.019-.008.005-.028.02-.008.005-.028.019-.009.007-.028.018-.009.006-.025.017-.006.005-.029.019-.007.005-.03.02-.007.005-.029.019-.008.005-.029.02-.006,0-.028.019-.005,0-.03.021-.006,0-.029.019-.009.006-.028.019-.008.005-.03.02-.005,0-.029.019,0,0-.03.02-.007.005-.03.019-.007.005-.029.019-.008.006-.029.019-.006,0-.028.018-.006,0-.029.02-.007,0-.03.02-.007.005-.03.019-.007,0-.03.02-.005,0-.03.02,0,0-.031.02-.007.005-.03.019-.007.005-.029.019-.008.005-.03.02,0,0-.03.019,0,0-.031.02-.007.005-.029.019-.008.005-.03.019-.007.005-.029.019-.008.005-.026.017-.007,0-.028.018-.009.006-.028.018-.009.006-.029.019-.008.005-.029.019-.006,0-.029.018-.005,0-.03.02-.007,0-.03.02-.007,0-.03.019-.007.005-.03.019-.007,0-.028.018-.005,0-.03.02-.008,0-.029.019-.008.005-.029.019-.008.005-.03.019-.005,0-.029.019-.005,0-.031.019-.007.005-.029.018-.009.006-.029.018-.008.005-.029.019-.008,0-.027.017-.006,0-.029.019-.009.005-.029.018-.008.005-.029.019-.008,0-.03.018-.006,0-.028.018-.006,0-.03.019-.008.005-.029.018-.009.005-.029.018-.008.005-.029.019-.008,0-.026.017-.008,0-.028.018-.009.006-.029.017-.009.006-.028.017-.01.006-.029.018-.006,0-.027.017-.008,0-.029.018-.008.005-.029.018-.009.006-.03.018-.007,0-.03.019-.007,0-.028.017-.006,0-.03.019-.008.005-.03.018-.007,0-.031.019-.006,0-.032.019,0,0-.03.018-.005,0-.031.019-.008,0-.03.018-.008.005-.03.018-.008.005-.028.018-.009,0-.027.016-.006,0-.031.018-.007.005-.031.018-.007,0-.03.018-.008.005-.031.018-.005,0-.029.018-.006,0-.031.019-.007,0-.029.017-.01.006-.029.017-.008,0-.031.018-.006,0-.028.017-.006,0-.031.018-.008,0-.029.018-.009.005-.03.017-.008.005-.03.018-.008,0-.025.015-.009.006-.028.016-.01.006-.028.016-.011.006-.028.017-.009.005-.03.018-.007,0-.028.016-.006,0-.03.017-.009.005-.03.017-.009.006-.029.016-.009.006-.03.017-.006,0-.028.016-.007,0-.03.018-.008,0-.03.017-.009.005-.03.018-.007,0-.032.018-.006,0-.028.017-.007,0-.029.016-.01.006-.029.017-.009.005-.03.017-.008.005-.03.017-.008,0-.026.015-.008.005-.03.016-.009.006-.029.016-.01.006-.029.016-.009.006-.028.015-.01.006-.025.014-.01.006-.028.016-.01.005-.029.016-.01.006-.028.016-.011.006-.027.015-.01.006-.025.014-.01.005-.028.016-.01.006-.028.015-.012.007-.027.015-.011.006-.026.015-.013.007-.024.013-.009,0-.029.016-.01.006-.028.016-.011.006-.029.015-.009.006-.03.016-.007,0-.028.015-.007,0-.03.017-.01.005-.029.016-.009.005-.03.017-.009.005-.028.015-.01.006-.027.014-.007,0-.03.016-.01.006-.03.016-.009.005-.029.016-.01.006-.03.016-.006,0-.028.015-.008.005-.031.016-.008.005-.03.016-.01.005-.029.016-.009,0-.029.015-.01.006-.025.013-.01.006-.028.015-.012.006-.028.015-.011.006-.029.015-.009.006-.028.014-.011.006-.024.013-.011.006-.028.015-.011.006-.028.015-.011.006-.029.015-.011.006-.023.012-.016.009-.023.011-.012.007-.026.014-.012.006-.028.015-.011.006-.028.014-.013.007-.024.013-.014.007-.022.012-.014.007-.025.013-.012.007-.027.014-.014.007-.027.014-.012.006-.024.013-.014.007-.023.012-.013.007-.026.013-.013.007-.026.014-.013.006-.027.015-.013.006-.023.012-.016.008-.021.011-.016.008-.023.012-.014.007-.026.014-.013.007-.028.014-.012.006-.024.012-.014.008-.024.012-.012.006-.026.013-.013.007-.027.014-.013.006-.027.014-.014.007-.022.011-.016.008-.021.011-.017.009-.022.011-.014.007-.026.013-.015.008-.025.013-.014.007-.022.01-.018.01-.019.009-.019.01-.021.01-.009.005-6.733-13.4A48.53,48.53,0,0,0,871.613,520.7Z" transform="translate(-3 8.006)" fill="#e6e6e6"/><path d="M847.45,534.547l3.386,14.613a63.512,63.512,0,0,1-10.717,1.533h0l-.024,0h0l-.177.01h0l-.177.009h-.1l-.119.006h-.109l-.094,0h-.135l-.1,0h-.134l-.092,0h-.138l-.066,0h-4.134l-.06,0h-.322l-.063,0h-.143l-.062,0h-.14l-.037,0h-.947l-.027,0h-.148l-.057,0h-.063l-.021,0h-.035l-.086-.005h-.061l-.023,0h-.005l-.027,0h0l-.088-.005h0l-.028,0h0l-.027,0h0q-1.543-.1-3.069-.26l1.6-14.915a55.124,55.124,0,0,0,5.875.313A48.808,48.808,0,0,0,847.45,534.547Z" transform="translate(0 6.006)" fill="#e6e6e6"/></g><g transform="translate(1024.435 2054.804) rotate(180)"><path d="M836.445,423.8h2.08l.037,0h.227l.038,0h.047l.04,0h.007l.037,0h.093l.037,0h.009l.037,0h.009l.037,0h.4l.037,0h.008l.038,0h0l.039,0h0l.039,0h.007l.037,0h.008l.038,0h0l.039,0h.008l.037,0h.008l.037,0h.008l.035,0h0l.038,0h.008l.038,0h.007l.038,0h.006l.034,0h.008l.036,0h.009l.037,0h.008l.035,0h.006l.036,0h.008l.036,0h.01l.036,0h.007l.034,0h.007l.037,0h.009l.035,0h.01l.037,0h.006l.032,0h.01l.035,0h.01l.036,0h.009l.034,0h.006l.035,0h.01l.035,0h.01l.036,0h.008l.032,0h.008l.035,0h.011l.035,0h.01l.036,0h.007l.032,0h.009l.035,0h.011l.035,0h.01l.032,0h.008l.035,0h.009l.035,0h.011l.035,0h.008l.032,0h.008l.035,0h.011l.034,0h.011l.035,0h.008l.031,0h.01l.034,0h.012l.033,0h.012l.031,0h.01l.031,0h.012l.033,0h.012l.034,0h.011l.029,0h.009l.034,0h.012l.034,0h.011l.031,0,.014,0,.028,0h.011l.034,0h.011l.034,0h.011l.03,0h.011l.031,0h.012l.033,0h.013l.033,0h.011l.028,0h.011l.033,0h.012l.034,0h.011l.034,0h.009l.029,0h.012l.033,0h.012l.033,0h.012l.03,0h.011l.031,0h.011l.034,0h.011l.035,0h.009l.031,0h.008l.035,0h.01l.035,0h.009l.036,0h.008l.031,0h.01l.034,0h.011l.034,0h.01l.032,0h.009l.032,0,.011,0,.034,0h.011l.035,0h.008l.031,0h.009l.034,0h.012l.032,0h.014l.03,0h.012l.028,0h.011l.034,0h.012l.033,0h.012l.028,0h.013l.03,0,.012,0,.033,0h.011l.034,0h.011l.028,0h.01l.033,0,.013,0,.032,0h.013l.028,0,.016,0,.026,0,.012,0,.032,0h.014l.032,0,.013,0,.026,0,.015,0,.028,0h.013l.031,0,.015,0,.031,0h.013l.025,0h.014l.031,0,.013,0,.031,0h.015l.025,0,.019,0,.023,0,.014,0,.031,0h.014l.031,0,.015,0,.023,0,.02,0,.024,0,.015,0,.03,0,.016,0,.028,0,.016,0,.022,0,.02,0,.024,0,.017,0,.028,0,.017,0,.023,0,.02,0,.023,0,.016,0,.028,0,.017,0,.029,0,.017,0,.018,0,.025,0,.021,0,.016,0,.028,0,.019,0,.021,0,.023,0,.02,0,.022,0,.023,0,.016,0,.029,0,.016,0,.023,0,.021,0,.022,0,.015,0,.029,0,.017,0,.026,0,.02,0,.019,0,.024,0,.021,0,.016,0,.029.005.016,0,.025,0,.02,0,.02,0,.021,0,.024,0,.017,0,.028.005.017,0,.019,0,.027,0,.017,0,.021,0,.025,0,.018,0,.028,0,.017,0,.018,0,.025,0,.02,0,.017,0,.028,0,.017,0,.024,0,.021,0,.018,0,.026,0,.02,0,.017,0,.028,0,.018,0,.019,0,.025,0,.018,0,.025,0,.02,0,.018,0,.025,0,.021,0,.017,0,.027,0,.018,0,.019,0,.026,0,.019,0,.018,0,.028,0,.014,0,.03.005.016,0,.019,0,.026.005.02,0,.015,0,.031.005.014,0,.032,0,.013,0,.021,0,.018,0,.027,0,.014,0,.031.006.014,0,.026,0,.019,0,.021,0,.013,0,.032.005.014,0,.033.005.012,0,.021,0h.007l.039.007.012,0,.033.006.013,0,.032.005.013,0,.022,0,.007,0,.039.006.01,0,.036.006.01,0,.04.007h.006l.022,0,.009,0,.038.006.009,0,.038.007h.008l.068.012.011,0,.035.006.011,0,.036.007h.01l.022,0,.006,0,.04.007h.008l.04.008h.006l.07.012.007,0,.039.007h.009l.037.007.009,0,.069.013h.007l.041.008h.005l.071.013h0l.046.009h.006l.041.008h.006l.07.013h.005l.042.008h.005l.119.023h0l.044.008h.005l.118.023h0l.045.009h0l.118.024h0l.046.009h0l.072.014h0l.043.009h.006l.116.023.006,0,.043.009h0l.119.025h0l.12.025h0l.048.01h0l.29.062h0a63.065,63.065,0,0,1,8.14,2.334l-5.094,14.108a48.382,48.382,0,0,0-16.472-2.864v-15Z" transform="translate(-8)" fill="#e6e6e6"/><path d="M871.386,434.267a63.831,63.831,0,0,1,11.521,9.746h0l.116.125h0l.028.031h0c.049.052.1.105.146.158h0l.116.126h0l.028.031h0l.027.031h0l.114.126h0l.114.126v0l.028.03v0l.028.03h0l.084.1h0l.026.03,0,0,.027.03,0,0,.027.03v0l.028.03h0l.026.03,0,0,.026.029,0,0,.025.028,0,0,.026.03h0l.027.031h0l.027.03,0,0,.025.028,0,.005.025.028,0,0,.026.029,0,0,.054.061,0,0,.025.029,0,0,.026.029,0,0,.026.029,0,0,.025.029,0,0,.026.03,0,0,.026.029,0,0,.025.029,0,0,.026.029,0,0,.053.061,0,0,.025.029,0,.005.024.027.005.006.024.028,0,0,.023.027,0,0,.024.027,0,.005.023.027.006.007.023.027.005.006.024.027.005.006.024.029h0l.023.027.006.007.022.026.007.007.022.026.006.008.022.026.007.007.02.025.007.008.02.024.006.006.022.026.007.009.022.025.007.008.021.026.007.008.02.024.008.008.018.023.007.007.021.026.008.008.021.025.007.01.021.024.008.01.018.021.01.012.017.02.01.012.017.021.009.011.02.024.009.01.02.024.008.01.018.021.01.012.015.019.012.014.017.02.009.011.019.023.01.011.018.023.01.012.015.018.013.016.015.017.011.014.017.02.009.011.019.023.009.012.019.022.01.013.014.017.015.017.012.016.015.018.013.015.012.016.016.018.012.015.015.019.013.016.012.014.016.02.012.015.016.019.011.014.016.02.012.015.012.015.016.019.013.016.011.013.017.022.01.011.019.024.009.011.017.022.011.013.013.016.016.02.012.015.01.013.019.023.008.01.02.025.008.01.023.028.005.007.043.053,0,0,.025.032.005.006.024.03.005.006.026.032,0,0,.044.054,0,0,.027.034,0,0,.027.034h0l.029.037h0l.074.093h0l.029.036v0c.315.4.623.8.927,1.208l-12.008,8.989a48.658,48.658,0,0,0-12.185-11.488Z" transform="translate(-6)" fill="#e6e6e6"/><path d="M894.809,462.238a63.037,63.037,0,0,1,4.495,16.006h0l.018.124h0l.007.046v.005l.017.121h0l.007.049h0l.017.123v0l.006.045v.005l.006.046v0l.01.072v0l.006.044v.006l.015.119v.006l.005.042v.007l.01.071v0l.005.043,0,.009,0,.04v.007l.009.072v0l.005.043v.01l.005.037v.01l.009.07v.008l0,.038,0,.011,0,.034v.013l.009.068v.013l0,.033,0,.014,0,.031,0,.016,0,.02,0,.026,0,.021,0,.016,0,.029,0,.016,0,.028,0,.019,0,.018,0,.027,0,.02,0,.016,0,.03,0,.017,0,.026,0,.02,0,.019,0,.027,0,.019,0,.017,0,.029,0,.016,0,.024,0,.023,0,.018,0,.027,0,.02,0,.019,0,.025,0,.02,0,.02,0,.026,0,.018,0,.025,0,.021,0,.019,0,.025,0,.02,0,.018,0,.028v.018l0,.025,0,.021,0,.021,0,.021,0,.024v.016l0,.03,0,.016,0,.028,0,.018,0,.022,0,.02,0,.024,0,.017,0,.029v.017l0,.024,0,.022,0,.021,0,.022,0,.023,0,.017,0,.03v.015l0,.027v.019l0,.023v.016l0,.029v.015l0,.031,0,.015,0,.024,0,.022,0,.022v.016l0,.03v.015l0,.031v.015l0,.027v.017l0,.025v.014l0,.031v.015l0,.031v.015l0,.025,0,.02,0,.025v.013l0,.032v.015l0,.031v.014l0,.026v.017l0,.028v.012l0,.033v.013l0,.033v.013l0,.027,0,.016,0,.028v.013l0,.033v.013l0,.034v.01l0,.03v.011l0,.033v.011l0,.035v.01l0,.036v.008l0,.032v.009l0,.035v.011l0,.035v.01l0,.036v.008l0,.032v.009l0,.035v.011l0,.035v.01l0,.036v.006l0,.034v.009l0,.035v.011l0,.035v.009l0,.038v.005l0,.035v.007l0,.038v.008l0,.037v.008l0,.038v0l0,.038v.006l0,.038v.008l0,.038v.007l0,.039v0l0,.038v.007l0,.038v.007l0,.038v.007l0,.038v0l0,.039v.005l-14.975.873a48.1,48.1,0,0,0-3.833-16.252l13.781-5.925Z" transform="translate(-6 2.936)" fill="#e6e6e6"/><path d="M884.194,495.859l14.769,2.625q-.274,1.542-.622,3.058v0l-.011.044v0l-.01.042v.006l-.016.069,0,0-.009.041,0,.007-.009.039,0,.007-.016.068v.009l-.009.037,0,.01-.008.034,0,.012-.005.025-.005.021-.005.019,0,.017-.007.028,0,.016-.007.027,0,.017-.005.023-.006.022,0,.018-.006.027-.005.018,0,.019-.006.023-.005.021-.005.019-.006.025,0,.015-.007.029,0,.015-.007.026,0,.018-.006.023,0,.016-.006.027,0,.014-.007.029,0,.015-.007.03,0,.013-.007.026,0,.015-.007.027,0,.012-.008.032,0,.012-.008.033,0,.009-.008.032,0,.01-.008.031,0,.008-.009.034,0,.01-.009.034,0,.008-.009.036v0l-.009.036v0l-.01.036,0,.008-.009.036v.006l-.01.038v0l-.01.041h0l-.01.038,0,.006-.009.037,0,0-.009.038,0,0-.02.079v0l-.01.039v0l-.01.039v0l-.022.081h0l-.011.04v0l-.011.04v0l-.045.166h0a63.1,63.1,0,0,1-4.353,11.535h0l-.018.037v0l-.037.074h0l-.019.037v0l-.019.036v0l-.037.074v0l-.018.035,0,0-.017.035,0,0-.018.035v0l-.018.035h0l-.018.035,0,.005-.017.034,0,0-.017.034,0,.005-.018.035h0l-.017.034,0,.006-.016.032,0,.007-.016.032,0,.007-.016.032,0,0-.016.031,0,.006-.017.032,0,.007-.016.032,0,.007-.016.032,0,.005-.015.03,0,.006-.015.031-.005.009-.015.029-.005.01-.015.03-.005.009-.013.025-.006.012-.014.026-.005.01-.014.028-.007.012-.014.028-.006.01-.012.024-.008.015-.011.022-.006.012-.014.026-.008.014-.013.026-.007.013-.012.023-.008.015-.011.021-.007.014-.013.024-.007.014-.014.026-.006.013-.014.026-.007.013-.01.019-.01.018-.01.02-.008.015-.013.024-.008.015-.013.024-.008.015-.01.019-.01.02-.009.017-.01.018-.012.022-.008.015-.012.024-.009.016-.009.017-.012.021-.007.015-.014.026-.008.013-.009.017-.012.023-.009.017-.008.014-.013.026-.007.012-.015.028-.006.012-.012.021-.01.019-.01.017-.006.012-.015.028-.006.011-.016.029-.005.01-.018.033,0,.007-.011.019,0,.005-.02.036,0,.005-.019.035,0,.007-.021.038v0l-.057.1h0l-.1.188h0c-.182.326-.365.65-.552.973l-12.985-7.51A47.979,47.979,0,0,0,884.194,495.859Z" transform="translate(-5 5.557)" fill="#e6e6e6"/><path d="M871.613,520.7l10.875,10.332q-2.071,2.181-4.343,4.16h0l-.035.03h0l-.126.109h0l-.036.031h0l-.126.109h0l-.035.031h0l-.126.108h0l-.162.138h0l-.034.029,0,0-.032.028,0,0-.089.075,0,0-.034.028,0,0-.089.076h0l-.033.028,0,0-.03.025-.007.005-.031.026,0,0-.054.045h0l-.034.028-.005,0-.031.026-.005,0-.031.026,0,0-.053.044-.007.006-.027.022-.01.008-.026.022-.008.007-.027.022-.008.007-.053.043-.007.005-.028.023-.007.006-.028.023-.008.006-.029.025-.006,0-.052.043-.009.007-.027.022-.007.006-.029.023-.006.006-.031.025-.005,0-.053.043-.008.007-.027.022-.008.007-.027.021-.009.007-.025.02-.011.009-.015.013-.02.016-.016.012-.01.009-.025.02-.011.008-.025.02-.01.008-.023.019-.013.01-.015.012-.016.013-.02.016-.01.008-.025.02-.01.008-.024.019-.012.01-.022.017-.012.01-.018.014-.018.014-.016.013-.011.009-.025.019-.01.009-.024.018-.012.01-.024.019-.011.009-.016.012-.02.016-.015.012-.013.01-.022.017-.013.01-.022.018-.013.01-.019.015-.016.013-.015.011-.021.016-.014.012-.014.011-.022.017-.013.01-.022.017-.012.01-.022.017-.014.011-.015.012-.02.015-.016.012-.016.012-.018.015-.014.011-.022.017-.013.01-.02.015-.015.012-.016.012-.021.016-.014.011-.017.013-.018.014-.015.012-.019.014-.016.012-.018.014-.017.014-.014.01-.022.017-.014.011-.018.013-.017.014-.015.011-.02.015-.015.012-.015.011-.021.016-.013.01-.023.017-.013.01-.018.014-.018.014-.015.012-.019.014-.017.012-.013.01-.023.018-.012.009-.023.017-.013.01-.021.016-.013.01-.018.014-.017.013-.018.013-.012.009-.023.017-.014.01-.022.017-.013.01-.021.015-.014.012-.018.013-.016.012-.019.014-.012.009-.023.017-.013.01-.023.017-.013.01-.019.014-.017.012-.016.013-.018.013-.018.013-.013.01-.022.016-.013.01-.023.017-.013.01-.02.014-.016.012-.018.013-.017.012-.017.014-.013.009-.024.017-.012.009-.023.017-.013.01-.024.018-.011.007-.019.015-.015.01-.021.016-.01.007-.025.018-.011.009-.026.018-.009.007-.026.019-.01.008-.022.015-.013.01-.02.014-.012.009-.025.018-.011.008-.025.018-.011.008-.025.019-.01.007-.021.015-.013.009-.023.016-.009.007-.026.019-.01.008-.026.018-.011.008-.023.016-.013.01-.02.014-.013.01-.023.016-.01.007-.026.019-.01.007-.026.018-.01.008-.026.018-.009.007-.023.016-.011.007-.024.018-.009.006-.026.019-.011.008-.026.018-.01.007-.026.019-.009.006-.024.017-.009.006-.025.018-.01.007-.026.018-.01.008-.027.018-.009.007-.027.019-.009.006-.023.016-.01.007-.025.018-.009.006-.027.019-.009.007-.028.019-.008.006-.028.019-.008.005-.025.018-.008.006-.027.018-.008.006-.028.019-.009.006-.027.019-.009.007-.028.019-.006,0-.027.019-.007.005-.028.019-.007.005-.028.02-.009.006-.028.019-.008.005-.029.02-.006.005-.027.018-.006.005-.028.019-.009.005-.027.02-.009.005-.028.02-.008,0-.029.02-.007,0-.026.019-.007,0-.028.019-.008.005-.028.02-.008.005-.028.019-.009.007-.028.018-.009.006-.025.017-.006.005-.029.019-.007.005-.03.02-.007.005-.029.019-.008.005-.029.02-.006,0-.028.019-.005,0-.03.021-.006,0-.029.019-.009.006-.028.019-.008.005-.03.02-.005,0-.029.019,0,0-.03.02-.007.005-.03.019-.007.005-.029.019-.008.006-.029.019-.006,0-.028.018-.006,0-.029.02-.007,0-.03.02-.007.005-.03.019-.007,0-.03.02-.005,0-.03.02,0,0-.031.02-.007.005-.03.019-.007.005-.029.019-.008.005-.03.02,0,0-.03.019,0,0-.031.02-.007.005-.029.019-.008.005-.03.019-.007.005-.029.019-.008.005-.026.017-.007,0-.028.018-.009.006-.028.018-.009.006-.029.019-.008.005-.029.019-.006,0-.029.018-.005,0-.03.02-.007,0-.03.02-.007,0-.03.019-.007.005-.03.019-.007,0-.028.018-.005,0-.03.02-.008,0-.029.019-.008.005-.029.019-.008.005-.03.019-.005,0-.029.019-.005,0-.031.019-.007.005-.029.018-.009.006-.029.018-.008.005-.029.019-.008,0-.027.017-.006,0-.029.019-.009.005-.029.018-.008.005-.029.019-.008,0-.03.018-.006,0-.028.018-.006,0-.03.019-.008.005-.029.018-.009.005-.029.018-.008.005-.029.019-.008,0-.026.017-.008,0-.028.018-.009.006-.029.017-.009.006-.028.017-.01.006-.029.018-.006,0-.027.017-.008,0-.029.018-.008.005-.029.018-.009.006-.03.018-.007,0-.03.019-.007,0-.028.017-.006,0-.03.019-.008.005-.03.018-.007,0-.031.019-.006,0-.032.019,0,0-.03.018-.005,0-.031.019-.008,0-.03.018-.008.005-.03.018-.008.005-.028.018-.009,0-.027.016-.006,0-.031.018-.007.005-.031.018-.007,0-.03.018-.008.005-.031.018-.005,0-.029.018-.006,0-.031.019-.007,0-.029.017-.01.006-.029.017-.008,0-.031.018-.006,0-.028.017-.006,0-.031.018-.008,0-.029.018-.009.005-.03.017-.008.005-.03.018-.008,0-.025.015-.009.006-.028.016-.01.006-.028.016-.011.006-.028.017-.009.005-.03.018-.007,0-.028.016-.006,0-.03.017-.009.005-.03.017-.009.006-.029.016-.009.006-.03.017-.006,0-.028.016-.007,0-.03.018-.008,0-.03.017-.009.005-.03.018-.007,0-.032.018-.006,0-.028.017-.007,0-.029.016-.01.006-.029.017-.009.005-.03.017-.008.005-.03.017-.008,0-.026.015-.008.005-.03.016-.009.006-.029.016-.01.006-.029.016-.009.006-.028.015-.01.006-.025.014-.01.006-.028.016-.01.005-.029.016-.01.006-.028.016-.011.006-.027.015-.01.006-.025.014-.01.005-.028.016-.01.006-.028.015-.012.007-.027.015-.011.006-.026.015-.013.007-.024.013-.009,0-.029.016-.01.006-.028.016-.011.006-.029.015-.009.006-.03.016-.007,0-.028.015-.007,0-.03.017-.01.005-.029.016-.009.005-.03.017-.009.005-.028.015-.01.006-.027.014-.007,0-.03.016-.01.006-.03.016-.009.005-.029.016-.01.006-.03.016-.006,0-.028.015-.008.005-.031.016-.008.005-.03.016-.01.005-.029.016-.009,0-.029.015-.01.006-.025.013-.01.006-.028.015-.012.006-.028.015-.011.006-.029.015-.009.006-.028.014-.011.006-.024.013-.011.006-.028.015-.011.006-.028.015-.011.006-.029.015-.011.006-.023.012-.016.009-.023.011-.012.007-.026.014-.012.006-.028.015-.011.006-.028.014-.013.007-.024.013-.014.007-.022.012-.014.007-.025.013-.012.007-.027.014-.014.007-.027.014-.012.006-.024.013-.014.007-.023.012-.013.007-.026.013-.013.007-.026.014-.013.006-.027.015-.013.006-.023.012-.016.008-.021.011-.016.008-.023.012-.014.007-.026.014-.013.007-.028.014-.012.006-.024.012-.014.008-.024.012-.012.006-.026.013-.013.007-.027.014-.013.006-.027.014-.014.007-.022.011-.016.008-.021.011-.017.009-.022.011-.014.007-.026.013-.015.008-.025.013-.014.007-.022.01-.018.01-.019.009-.019.01-.021.01-.009.005-6.733-13.4A48.53,48.53,0,0,0,871.613,520.7Z" transform="translate(-3 8.006)" fill="#e6e6e6"/><path d="M847.45,534.547l3.386,14.613a63.512,63.512,0,0,1-10.717,1.533h0l-.024,0h0l-.177.01h0l-.177.009h-.1l-.119.006h-.109l-.094,0h-.135l-.1,0h-.134l-.092,0h-.138l-.066,0h-4.134l-.06,0h-.322l-.063,0h-.143l-.062,0h-.14l-.037,0h-.947l-.027,0h-.148l-.057,0h-.063l-.021,0h-.035l-.086-.005h-.061l-.023,0h-.005l-.027,0h0l-.088-.005h0l-.028,0h0l-.027,0h0q-1.543-.1-3.069-.26l1.6-14.915a55.124,55.124,0,0,0,5.875.313A48.808,48.808,0,0,0,847.45,534.547Z" transform="translate(0 8.006)" fill="#e6e6e6"/></g><g transform="translate(2 185)"><g transform="translate(51 885)" fill="rgba(208,208,208,0)" stroke="#e6e6e6" stroke-width="15"><circle cx="77" cy="77" r="77" stroke="none"/><circle cx="77" cy="77" r="69.5" fill="none"/></g><circle cx="49" cy="49" r="49" transform="translate(79 913)" fill="#ccc"/><text transform="translate(96 970)" fill="#fff" font-size="22" font-family="SegoeUIBlack, Segoe UI"><tspan x="0" y="0"></tspan></text></g><g transform="translate(1649 662)"><g transform="translate(51 885)" fill="rgba(208,208,208,0)" stroke="#e6e6e6" stroke-width="15"><circle cx="77" cy="77" r="77" stroke="none"/><circle cx="77" cy="77" r="69.5" fill="none"/></g><circle cx="49" cy="49" r="49" transform="translate(79 913)" fill="#e30427"/><text transform="translate(85 970)" fill="#fff" font-size="22" font-family="SegoeUIBlack, Segoe UI"><tspan x="0" y="0"></tspan></text></g></g></svg>