<svg xmlns="http://www.w3.org/2000/svg" width="1801" height="631" viewBox="0 0 1801 631">
    <defs>
        <style>
            .cls-1,.cls-8{fill:none}.cls-1,.cls-3{stroke:#e6e6e6;stroke-width:15px}.cls-1{stroke-linecap:square;stroke-dasharray:1 26}.cls-2{fill:#e6e6e6}.cls-3{fill:transparent}.cls-5{fill:#fff;font-size:22px;font-family:SegoeUIBlack,Segoe UI}.cls-7{stroke:none}
        </style>
    </defs>
    <g id="Group_125" transform="translate(-53 -1070)">
        <g id="Group_122">
            <path id="Line_3" d="M0 0L1487 0" class="cls-1" transform="translate(212.5 1384.5)"/>
            <path id="Path_154" d="M0 0h1488" class="cls-1" transform="translate(211.5 1264.5)"/>
            <path id="Line_4" d="M0 0L1502 0" class="cls-1" transform="translate(212.5 1623.5)"/>
            <path id="Line_5" d="M0 0L1488 0" class="cls-1" transform="translate(211.5 1145.5)"/>
            <path id="Line_6" d="M0 0L1488 0" class="cls-1" transform="translate(211.5 1504.5)"/>
            <g id="Group_114" transform="translate(886.027 953.202)">
                <path id="Path_9" d="M836.445 423.8H845.584l.029.005H845.756l.028.005H846.627l.03.005h.035l.026.005h.035l.031.005h.139l.031.006h.093l.032.005h.014l.033.005h.04l.039.007h.012l.033.006h.013l.032.005H847.337l.039.006h.01l.036.006h.01l.04.007h.037l.038.006h.009l.038.007h.008l.068.012h.011l.035.006h.011l.036.007h.038l.04.007h.008l.04.008h.006l.07.012h.007l.039.007h.009l.037.007h.009l.069.013h.007l.041.008h.005l.071.013.046.009h.006l.041.008h.006l.07.013h.005l.042.008h.005l.119.023.044.008h.005l.118.023.045.009.118.024.046.009.072.014.043.009h.006l.116.023h.006l.043.009.119.025.12.025.048.01.29.062a63.065 63.065 0 0 1 8.14 2.334l-5.094 14.108a48.382 48.382 0 0 0-16.472-2.864v-15z" class="cls-2" transform="translate(-8)"/>
                <path id="Path_10" d="M871.386 434.267a63.831 63.831 0 0 1 11.521 9.746l.116.125.028.031c.049.052.1.105.146.158l.116.126.028.031.027.031.114.126.114.126.028.03.028.03.084.1.026.03.027.03.027.03.028.03.026.03.026.029.025.028.026.03.027.031.027.03.025.028v.005l.025.028.026.029.054.061.025.029.026.029.026.029.025.029.026.03.026.029.025.029.026.029.053.061.025.029v.005l.024.027.005.006.024.028.023.027.024.027v.005l.023.027.006.007.023.027.005.006.024.027.005.006.024.029.023.027.006.007.022.026.007.007.022.026.006.008.022.026.007.007.02.025.007.008.02.024.006.006.022.026.007.009.022.025.007.008.021.026.007.008.02.024.008.008.018.023.007.007.021.026.008.008.021.025.007.01.021.024.008.01.018.021.01.012.017.02.01.012.017.021.009.011.02.024.009.01.02.024.008.01.018.021.01.012.015.019.012.014.017.02.009.011.019.023.01.011.018.023.01.012.015.018.013.016.015.017.011.014.017.02.009.011.019.023.009.012.019.022.01.013.014.017.015.017.012.016.015.018.013.015.012.016.016.018.012.015.015.019.013.016.012.014.016.02.012.015.016.019.011.014.016.02.012.015.012.015.016.019.013.016.011.013.017.022.01.011.019.024.009.011.017.022.011.013.013.016.016.02.012.015.01.013.019.023.008.01.02.025.008.01.023.028.005.007.043.053.025.032.005.006.024.03.005.006.026.032.044.054.027.034.027.034.029.037.074.093.029.036c.315.4.623.8.927 1.208l-12.008 8.989a48.658 48.658 0 0 0-12.185-11.488z" class="cls-2" transform="translate(-6)"/>
                <path id="Path_11" d="M894.809 462.238a63.037 63.037 0 0 1 4.495 16.006l.018.124.007.046v.005l.017.121.007.049.017.123.006.045v.005l.006.046.01.072.006.044v.006l.015.119v.006l.005.042v.007l.01.071.005.043v.056l.009.072.005.043v.01l.005.037v.01l.009.07v.104l.009.068V483.519l-14.975.873a48.1 48.1 0 0 0-3.833-16.252l13.781-5.925z" class="cls-2" transform="translate(-6 2.936)"/>
                <path id="Path_12" d="M884.194 495.859l14.769 2.625q-.274 1.542-.622 3.058l-.011.044-.01.042v.006l-.016.069-.009.041v.007l-.009.039v.007l-.016.068v.009l-.009.037v.01l-.008.034v.012l-.005.025-.005.021-.005.019v.017l-.007.028v.016l-.007.027v.017l-.005.023-.006.022v.018l-.006.027-.005.018v.019l-.006.023-.005.021-.005.019-.006.025v.015l-.007.029v.015l-.007.026v.018l-.006.023v.016l-.006.027v.014l-.007.029v.015l-.007.03v.013l-.007.026v.015l-.007.027v.012l-.008.032v.012l-.008.033v.009l-.008.032v.01l-.008.031v.008l-.009.034v.01l-.009.034v.008l-.009.036-.009.036-.01.036v.008l-.009.036v.006l-.01.038-.01.041-.01.038v.006l-.009.037-.009.038-.02.079-.01.039-.01.039-.022.081-.011.04-.011.04-.045.166a63.1 63.1 0 0 1-4.353 11.535l-.018.037-.037.074-.019.037-.019.036-.037.074-.018.035-.017.035-.018.035-.018.035-.018.035v.005l-.017.034-.017.034v.005l-.018.035-.017.034v.006l-.016.032v.007l-.016.032v.007l-.016.032-.016.031v.006l-.017.032v.007l-.016.032v.007l-.016.032v.005l-.015.03v.006l-.015.031-.005.009-.015.029-.005.01-.015.03-.005.009-.013.025-.006.012-.014.026-.005.01-.014.028-.007.012-.014.028-.006.01-.012.024-.008.015-.011.022-.006.012-.014.026-.008.014-.013.026-.007.013-.012.023-.008.015-.011.021-.007.014-.013.024-.007.014-.014.026-.006.013-.014.026-.007.013-.01.019-.01.018-.01.02-.008.015-.013.024-.008.015-.013.024-.008.015-.01.019-.01.02-.009.017-.01.018-.012.022-.008.015-.012.024-.009.016-.009.017-.012.021-.007.015-.014.026-.008.013-.009.017-.012.023-.009.017-.008.014-.013.026-.007.012-.015.028-.006.012-.012.021-.01.019-.01.017-.006.012-.015.028-.006.011-.016.029-.005.01-.018.033v.007l-.011.019v.005l-.02.036v.005l-.019.035v.007l-.021.038-.057.1-.1.188c-.182.326-.365.65-.552.973l-12.985-7.51a47.979 47.979 0 0 0 5.57-15.59z" class="cls-2" transform="translate(-5 5.557)"/>
                <path id="Path_13" d="M871.613 520.7l10.875 10.332q-2.071 2.181-4.343 4.16l-.035.03-.126.109-.036.031-.126.109-.035.031-.126.108-.162.138-.034.029-.032.028-.089.075-.034.028-.089.076-.033.028-.03.025-.007.005-.031.026-.054.045-.034.028h-.005l-.031.026h-.005l-.031.026-.053.044-.007.006-.027.022-.01.008-.026.022-.008.007-.027.022-.008.007-.053.043-.007.005-.028.023-.007.006-.028.023-.008.006-.029.025h-.006l-.052.043-.009.007-.027.022-.007.006-.029.023-.006.006-.031.025h-.005l-.053.043-.008.007-.027.022-.008.007-.027.021-.009.007-.025.02-.011.009-.015.013-.02.016-.016.012-.01.009-.025.02-.011.008-.025.02-.01.008-.023.019-.013.01-.015.012-.016.013-.02.016-.01.008-.025.02-.01.008-.024.019-.012.01-.022.017-.012.01-.018.014-.018.014-.016.013-.011.009-.025.019-.01.009-.024.018-.012.01-.024.019-.011.009-.016.012-.02.016-.015.012-.013.01-.022.017-.013.01-.022.018-.013.01-.019.015-.016.013-.015.011-.021.016-.014.012-.014.011-.022.017-.013.01-.022.017-.012.01-.022.017-.014.011-.015.012-.02.015-.016.012-.016.012-.018.015-.014.011-.022.017-.013.01-.02.015-.015.012-.016.012-.021.016-.014.011-.017.013-.018.014-.015.012-.019.014-.016.012-.018.014-.017.014-.014.01-.022.017-.014.011-.018.013-.017.014-.015.011-.02.015-.015.012-.015.011-.021.016-.013.01-.023.017-.013.01-.018.014-.018.014-.015.012-.019.014-.017.012-.013.01-.023.018-.012.009-.023.017-.013.01-.021.016-.013.01-.018.014-.017.013-.018.013-.012.009-.023.017-.014.01-.022.017-.013.01-.021.015-.014.012-.018.013-.016.012-.019.014-.012.009-.023.017-.013.01-.023.017-.013.01-.019.014-.017.012-.016.013-.018.013-.018.013-.013.01-.022.016-.013.01-.023.017-.013.01-.02.014-.016.012-.018.013-.017.012-.017.014-.013.009-.024.017-.012.009-.023.017-.013.01-.024.018-.011.007-.019.015-.015.01-.021.016-.01.007-.025.018-.011.009-.026.018-.009.007-.026.019-.01.008-.022.015-.013.01-.02.014-.012.009-.025.018-.011.008-.025.018-.011.008-.025.019-.01.007-.021.015-.013.009-.023.016-.009.007-.026.019-.01.008-.026.018-.011.008-.023.016-.013.01-.02.014-.013.01-.023.016-.01.007-.026.019-.01.007-.026.018-.01.008-.026.018-.009.007-.023.016-.011.007-.024.018-.009.006-.026.019-.011.008-.026.018-.01.007-.026.019-.009.006-.024.017-.009.006-.025.018-.01.007-.026.018-.01.008-.027.018-.009.007-.027.019-.009.006-.023.016-.01.007-.025.018-.009.006-.027.019-.009.007-.028.019-.008.006-.028.019-.008.005-.025.018-.008.006-.027.018-.008.006-.028.019-.009.006-.027.019-.009.007-.028.019h-.006l-.027.019-.007.005-.028.019-.007.005-.028.02-.009.006-.028.019-.008.005-.029.02-.006.005-.027.018-.006.005-.028.019-.009.005-.027.02-.009.005-.028.02h-.008l-.029.02h-.007l-.026.019h-.007l-.028.019-.008.005-.028.02-.008.005-.028.019-.009.007-.028.018-.009.006-.025.017-.006.005-.029.019-.007.005-.03.02-.007.005-.029.019-.008.005-.029.02h-.006l-.028.019h-.005l-.03.021h-.006l-.029.019-.009.006-.028.019-.008.005-.03.02h-.005l-.029.019-.03.02-.007.005-.03.019-.007.005-.029.019-.008.006-.029.019h-.006l-.028.018h-.006l-.029.02h-.007l-.03.02-.007.005-.03.019h-.007l-.03.02h-.005l-.03.02-.031.02-.007.005-.03.019-.007.005-.029.019-.008.005-.03.02-.03.019-.031.02-.007.005-.029.019-.008.005-.03.019-.007.005-.029.019-.008.005-.026.017h-.007l-.028.018-.009.006-.028.018-.009.006-.029.019-.008.005-.029.019h-.006l-.029.018h-.005l-.03.02h-.007l-.03.02h-.007l-.03.019-.007.005-.03.019h-.007l-.028.018h-.005l-.03.02h-.008l-.029.019-.008.005-.029.019-.008.005-.03.019h-.005l-.029.019h-.005l-.031.019-.007.005-.029.018-.009.006-.029.018-.008.005-.029.019h-.008l-.027.017h-.006l-.029.019-.009.005-.029.018-.008.005-.029.019h-.008l-.03.018h-.006l-.028.018h-.006l-.03.019-.008.005-.029.018-.009.005-.029.018-.008.005-.029.019h-.008l-.026.017h-.008l-.028.018-.009.006-.029.017-.009.006-.028.017-.01.006-.029.018h-.006l-.027.017h-.008l-.029.018-.008.005-.029.018-.009.006-.03.018h-.007l-.03.019h-.007l-.028.017h-.006l-.03.019-.008.005-.03.018h-.007l-.031.019h-.006l-.032.019-.03.018h-.005l-.031.019h-.008l-.03.018-.008.005-.03.018-.008.005-.028.018h-.009l-.027.016h-.006l-.031.018-.007.005-.031.018h-.007l-.03.018-.008.005-.031.018h-.005l-.029.018h-.006l-.031.019h-.007l-.029.017-.01.006-.029.017h-.008l-.031.018h-.006l-.028.017h-.006l-.031.018h-.008l-.029.018-.009.005-.03.017-.008.005-.03.018h-.008l-.025.015-.009.006-.028.016-.01.006-.028.016-.011.006-.028.017-.009.005-.03.018h-.007l-.028.016h-.006l-.03.017-.009.005-.03.017-.009.006-.029.016-.009.006-.03.017h-.006l-.028.016h-.007l-.03.018h-.008l-.03.017-.009.005-.03.018h-.007l-.032.018h-.006l-.028.017h-.007l-.029.016-.01.006-.029.017-.009.005-.03.017-.008.005-.03.017h-.008l-.026.015-.008.005-.03.016-.009.006-.029.016-.01.006-.029.016-.009.006-.028.015-.01.006-.025.014-.01.006-.028.016-.01.005-.029.016-.01.006-.028.016-.011.006-.027.015-.01.006-.025.014-.01.005-.028.016-.01.006-.028.015-.012.007-.027.015-.011.006-.026.015-.013.007-.024.013h-.009l-.029.016-.01.006-.028.016-.011.006-.029.015-.009.006-.03.016h-.007l-.028.015h-.007l-.03.017-.01.005-.029.016-.009.005-.03.017-.009.005-.028.015-.01.006-.027.014h-.007l-.03.016-.01.006-.03.016-.009.005-.029.016-.01.006-.03.016h-.006l-.028.015-.008.005-.031.016-.008.005-.03.016-.01.005-.029.016h-.009l-.029.015-.01.006-.025.013-.01.006-.028.015-.012.006-.028.015-.011.006-.029.015-.009.006-.028.014-.011.006-.024.013-.011.006-.028.015-.011.006-.028.015-.011.006-.029.015-.011.006-.023.012-.016.009-.023.011-.012.007-.026.014-.012.006-.028.015-.011.006-.028.014-.013.007-.024.013-.014.007-.022.012-.014.007-.025.013-.012.007-.027.014-.014.007-.027.014-.012.006-.024.013-.014.007-.023.012-.013.007-.026.013-.013.007-.026.014-.013.006-.027.015-.013.006-.023.012-.016.008-.021.011-.016.008-.023.012-.014.007-.026.014-.013.007-.028.014-.012.006-.024.012-.014.008-.024.012-.012.006-.026.013-.013.007-.027.014-.013.006-.027.014-.014.007-.022.011-.016.008-.021.011-.017.009-.022.011-.014.007-.026.013-.015.008-.025.013-.014.007-.022.01-.018.01-.019.009-.019.01-.021.01-.009.005-6.733-13.4a48.53 48.53 0 0 0 13.385-9.672z" class="cls-2" transform="translate(-3 8.006)"/>
                <path id="Path_14" d="M847.45 534.547l3.386 14.613a63.512 63.512 0 0 1-10.717 1.533h-.024l-.177.01-.177.009h-.1l-.119.006h-7.127l-.086-.005H832.193l-.088-.005h-.055q-1.543-.1-3.069-.26l1.6-14.915a55.124 55.124 0 0 0 5.875.313 48.808 48.808 0 0 0 10.994-1.299z" class="cls-2" transform="translate(0 8.006)"/>
            </g>
            <g id="Group_115" transform="translate(886.027 714.202)">
                <path id="Path_9-2" d="M836.445 423.8H845.584l.029.005H845.756l.028.005H846.627l.03.005h.035l.026.005h.035l.031.005h.139l.031.006h.093l.032.005h.014l.033.005h.04l.039.007h.012l.033.006h.013l.032.005H847.337l.039.006h.01l.036.006h.01l.04.007h.037l.038.006h.009l.038.007h.008l.068.012h.011l.035.006h.011l.036.007h.038l.04.007h.008l.04.008h.006l.07.012h.007l.039.007h.009l.037.007h.009l.069.013h.007l.041.008h.005l.071.013.046.009h.006l.041.008h.006l.07.013h.005l.042.008h.005l.119.023.044.008h.005l.118.023.045.009.118.024.046.009.072.014.043.009h.006l.116.023h.006l.043.009.119.025.12.025.048.01.29.062a63.065 63.065 0 0 1 8.14 2.334l-5.094 14.108a48.382 48.382 0 0 0-16.472-2.864v-15z" class="cls-2" transform="translate(-8)"/>
                <path id="Path_10-2" d="M871.386 434.267a63.831 63.831 0 0 1 11.521 9.746l.116.125.028.031c.049.052.1.105.146.158l.116.126.028.031.027.031.114.126.114.126.028.03.028.03.084.1.026.03.027.03.027.03.028.03.026.03.026.029.025.028.026.03.027.031.027.03.025.028v.005l.025.028.026.029.054.061.025.029.026.029.026.029.025.029.026.03.026.029.025.029.026.029.053.061.025.029v.005l.024.027.005.006.024.028.023.027.024.027v.005l.023.027.006.007.023.027.005.006.024.027.005.006.024.029.023.027.006.007.022.026.007.007.022.026.006.008.022.026.007.007.02.025.007.008.02.024.006.006.022.026.007.009.022.025.007.008.021.026.007.008.02.024.008.008.018.023.007.007.021.026.008.008.021.025.007.01.021.024.008.01.018.021.01.012.017.02.01.012.017.021.009.011.02.024.009.01.02.024.008.01.018.021.01.012.015.019.012.014.017.02.009.011.019.023.01.011.018.023.01.012.015.018.013.016.015.017.011.014.017.02.009.011.019.023.009.012.019.022.01.013.014.017.015.017.012.016.015.018.013.015.012.016.016.018.012.015.015.019.013.016.012.014.016.02.012.015.016.019.011.014.016.02.012.015.012.015.016.019.013.016.011.013.017.022.01.011.019.024.009.011.017.022.011.013.013.016.016.02.012.015.01.013.019.023.008.01.02.025.008.01.023.028.005.007.043.053.025.032.005.006.024.03.005.006.026.032.044.054.027.034.027.034.029.037.074.093.029.036c.315.4.623.8.927 1.208l-12.008 8.989a48.658 48.658 0 0 0-12.185-11.488z" class="cls-2" transform="translate(-6)"/>
                <path id="Path_11-2" d="M894.809 462.238a63.037 63.037 0 0 1 4.495 16.006l.018.124.007.046v.005l.017.121.007.049.017.123.006.045v.005l.006.046.01.072.006.044v.006l.015.119v.006l.005.042v.007l.01.071.005.043v.056l.009.072.005.043v.01l.005.037v.01l.009.07v.104l.009.068V483.519l-14.975.873a48.1 48.1 0 0 0-3.833-16.252l13.781-5.925z" class="cls-2" transform="translate(-6 2.936)"/>
                <path id="Path_12-2" d="M884.194 495.859l14.769 2.625q-.274 1.542-.622 3.058l-.011.044-.01.042v.006l-.016.069-.009.041v.007l-.009.039v.007l-.016.068v.009l-.009.037v.01l-.008.034v.012l-.005.025-.005.021-.005.019v.017l-.007.028v.016l-.007.027v.017l-.005.023-.006.022v.018l-.006.027-.005.018v.019l-.006.023-.005.021-.005.019-.006.025v.015l-.007.029v.015l-.007.026v.018l-.006.023v.016l-.006.027v.014l-.007.029v.015l-.007.03v.013l-.007.026v.015l-.007.027v.012l-.008.032v.012l-.008.033v.009l-.008.032v.01l-.008.031v.008l-.009.034v.01l-.009.034v.008l-.009.036-.009.036-.01.036v.008l-.009.036v.006l-.01.038-.01.041-.01.038v.006l-.009.037-.009.038-.02.079-.01.039-.01.039-.022.081-.011.04-.011.04-.045.166a63.1 63.1 0 0 1-4.353 11.535l-.018.037-.037.074-.019.037-.019.036-.037.074-.018.035-.017.035-.018.035-.018.035-.018.035v.005l-.017.034-.017.034v.005l-.018.035-.017.034v.006l-.016.032v.007l-.016.032v.007l-.016.032-.016.031v.006l-.017.032v.007l-.016.032v.007l-.016.032v.005l-.015.03v.006l-.015.031-.005.009-.015.029-.005.01-.015.03-.005.009-.013.025-.006.012-.014.026-.005.01-.014.028-.007.012-.014.028-.006.01-.012.024-.008.015-.011.022-.006.012-.014.026-.008.014-.013.026-.007.013-.012.023-.008.015-.011.021-.007.014-.013.024-.007.014-.014.026-.006.013-.014.026-.007.013-.01.019-.01.018-.01.02-.008.015-.013.024-.008.015-.013.024-.008.015-.01.019-.01.02-.009.017-.01.018-.012.022-.008.015-.012.024-.009.016-.009.017-.012.021-.007.015-.014.026-.008.013-.009.017-.012.023-.009.017-.008.014-.013.026-.007.012-.015.028-.006.012-.012.021-.01.019-.01.017-.006.012-.015.028-.006.011-.016.029-.005.01-.018.033v.007l-.011.019v.005l-.02.036v.005l-.019.035v.007l-.021.038-.057.1-.1.188c-.182.326-.365.65-.552.973l-12.985-7.51a47.979 47.979 0 0 0 5.57-15.59z" class="cls-2" transform="translate(-5 5.557)"/>
                <path id="Path_13-2" d="M871.613 520.7l10.875 10.332q-2.071 2.181-4.343 4.16l-.035.03-.126.109-.036.031-.126.109-.035.031-.126.108-.162.138-.034.029-.032.028-.089.075-.034.028-.089.076-.033.028-.03.025-.007.005-.031.026-.054.045-.034.028h-.005l-.031.026h-.005l-.031.026-.053.044-.007.006-.027.022-.01.008-.026.022-.008.007-.027.022-.008.007-.053.043-.007.005-.028.023-.007.006-.028.023-.008.006-.029.025h-.006l-.052.043-.009.007-.027.022-.007.006-.029.023-.006.006-.031.025h-.005l-.053.043-.008.007-.027.022-.008.007-.027.021-.009.007-.025.02-.011.009-.015.013-.02.016-.016.012-.01.009-.025.02-.011.008-.025.02-.01.008-.023.019-.013.01-.015.012-.016.013-.02.016-.01.008-.025.02-.01.008-.024.019-.012.01-.022.017-.012.01-.018.014-.018.014-.016.013-.011.009-.025.019-.01.009-.024.018-.012.01-.024.019-.011.009-.016.012-.02.016-.015.012-.013.01-.022.017-.013.01-.022.018-.013.01-.019.015-.016.013-.015.011-.021.016-.014.012-.014.011-.022.017-.013.01-.022.017-.012.01-.022.017-.014.011-.015.012-.02.015-.016.012-.016.012-.018.015-.014.011-.022.017-.013.01-.02.015-.015.012-.016.012-.021.016-.014.011-.017.013-.018.014-.015.012-.019.014-.016.012-.018.014-.017.014-.014.01-.022.017-.014.011-.018.013-.017.014-.015.011-.02.015-.015.012-.015.011-.021.016-.013.01-.023.017-.013.01-.018.014-.018.014-.015.012-.019.014-.017.012-.013.01-.023.018-.012.009-.023.017-.013.01-.021.016-.013.01-.018.014-.017.013-.018.013-.012.009-.023.017-.014.01-.022.017-.013.01-.021.015-.014.012-.018.013-.016.012-.019.014-.012.009-.023.017-.013.01-.023.017-.013.01-.019.014-.017.012-.016.013-.018.013-.018.013-.013.01-.022.016-.013.01-.023.017-.013.01-.02.014-.016.012-.018.013-.017.012-.017.014-.013.009-.024.017-.012.009-.023.017-.013.01-.024.018-.011.007-.019.015-.015.01-.021.016-.01.007-.025.018-.011.009-.026.018-.009.007-.026.019-.01.008-.022.015-.013.01-.02.014-.012.009-.025.018-.011.008-.025.018-.011.008-.025.019-.01.007-.021.015-.013.009-.023.016-.009.007-.026.019-.01.008-.026.018-.011.008-.023.016-.013.01-.02.014-.013.01-.023.016-.01.007-.026.019-.01.007-.026.018-.01.008-.026.018-.009.007-.023.016-.011.007-.024.018-.009.006-.026.019-.011.008-.026.018-.01.007-.026.019-.009.006-.024.017-.009.006-.025.018-.01.007-.026.018-.01.008-.027.018-.009.007-.027.019-.009.006-.023.016-.01.007-.025.018-.009.006-.027.019-.009.007-.028.019-.008.006-.028.019-.008.005-.025.018-.008.006-.027.018-.008.006-.028.019-.009.006-.027.019-.009.007-.028.019h-.006l-.027.019-.007.005-.028.019-.007.005-.028.02-.009.006-.028.019-.008.005-.029.02-.006.005-.027.018-.006.005-.028.019-.009.005-.027.02-.009.005-.028.02h-.008l-.029.02h-.007l-.026.019h-.007l-.028.019-.008.005-.028.02-.008.005-.028.019-.009.007-.028.018-.009.006-.025.017-.006.005-.029.019-.007.005-.03.02-.007.005-.029.019-.008.005-.029.02h-.006l-.028.019h-.005l-.03.021h-.006l-.029.019-.009.006-.028.019-.008.005-.03.02h-.005l-.029.019-.03.02-.007.005-.03.019-.007.005-.029.019-.008.006-.029.019h-.006l-.028.018h-.006l-.029.02h-.007l-.03.02-.007.005-.03.019h-.007l-.03.02h-.005l-.03.02-.031.02-.007.005-.03.019-.007.005-.029.019-.008.005-.03.02-.03.019-.031.02-.007.005-.029.019-.008.005-.03.019-.007.005-.029.019-.008.005-.026.017h-.007l-.028.018-.009.006-.028.018-.009.006-.029.019-.008.005-.029.019h-.006l-.029.018h-.005l-.03.02h-.007l-.03.02h-.007l-.03.019-.007.005-.03.019h-.007l-.028.018h-.005l-.03.02h-.008l-.029.019-.008.005-.029.019-.008.005-.03.019h-.005l-.029.019h-.005l-.031.019-.007.005-.029.018-.009.006-.029.018-.008.005-.029.019h-.008l-.027.017h-.006l-.029.019-.009.005-.029.018-.008.005-.029.019h-.008l-.03.018h-.006l-.028.018h-.006l-.03.019-.008.005-.029.018-.009.005-.029.018-.008.005-.029.019h-.008l-.026.017h-.008l-.028.018-.009.006-.029.017-.009.006-.028.017-.01.006-.029.018h-.006l-.027.017h-.008l-.029.018-.008.005-.029.018-.009.006-.03.018h-.007l-.03.019h-.007l-.028.017h-.006l-.03.019-.008.005-.03.018h-.007l-.031.019h-.006l-.032.019-.03.018h-.005l-.031.019h-.008l-.03.018-.008.005-.03.018-.008.005-.028.018h-.009l-.027.016h-.006l-.031.018-.007.005-.031.018h-.007l-.03.018-.008.005-.031.018h-.005l-.029.018h-.006l-.031.019h-.007l-.029.017-.01.006-.029.017h-.008l-.031.018h-.006l-.028.017h-.006l-.031.018h-.008l-.029.018-.009.005-.03.017-.008.005-.03.018h-.008l-.025.015-.009.006-.028.016-.01.006-.028.016-.011.006-.028.017-.009.005-.03.018h-.007l-.028.016h-.006l-.03.017-.009.005-.03.017-.009.006-.029.016-.009.006-.03.017h-.006l-.028.016h-.007l-.03.018h-.008l-.03.017-.009.005-.03.018h-.007l-.032.018h-.006l-.028.017h-.007l-.029.016-.01.006-.029.017-.009.005-.03.017-.008.005-.03.017h-.008l-.026.015-.008.005-.03.016-.009.006-.029.016-.01.006-.029.016-.009.006-.028.015-.01.006-.025.014-.01.006-.028.016-.01.005-.029.016-.01.006-.028.016-.011.006-.027.015-.01.006-.025.014-.01.005-.028.016-.01.006-.028.015-.012.007-.027.015-.011.006-.026.015-.013.007-.024.013h-.009l-.029.016-.01.006-.028.016-.011.006-.029.015-.009.006-.03.016h-.007l-.028.015h-.007l-.03.017-.01.005-.029.016-.009.005-.03.017-.009.005-.028.015-.01.006-.027.014h-.007l-.03.016-.01.006-.03.016-.009.005-.029.016-.01.006-.03.016h-.006l-.028.015-.008.005-.031.016-.008.005-.03.016-.01.005-.029.016h-.009l-.029.015-.01.006-.025.013-.01.006-.028.015-.012.006-.028.015-.011.006-.029.015-.009.006-.028.014-.011.006-.024.013-.011.006-.028.015-.011.006-.028.015-.011.006-.029.015-.011.006-.023.012-.016.009-.023.011-.012.007-.026.014-.012.006-.028.015-.011.006-.028.014-.013.007-.024.013-.014.007-.022.012-.014.007-.025.013-.012.007-.027.014-.014.007-.027.014-.012.006-.024.013-.014.007-.023.012-.013.007-.026.013-.013.007-.026.014-.013.006-.027.015-.013.006-.023.012-.016.008-.021.011-.016.008-.023.012-.014.007-.026.014-.013.007-.028.014-.012.006-.024.012-.014.008-.024.012-.012.006-.026.013-.013.007-.027.014-.013.006-.027.014-.014.007-.022.011-.016.008-.021.011-.017.009-.022.011-.014.007-.026.013-.015.008-.025.013-.014.007-.022.01-.018.01-.019.009-.019.01-.021.01-.009.005-6.733-13.4a48.53 48.53 0 0 0 13.385-9.672z" class="cls-2" transform="translate(-3 8.006)"/>
                <path id="Path_14-2" d="M847.45 534.547l3.386 14.613a63.512 63.512 0 0 1-10.717 1.533h-.024l-.177.01-.177.009h-.1l-.119.006h-7.127l-.086-.005H832.193l-.088-.005h-.055q-1.543-.1-3.069-.26l1.6-14.915a55.124 55.124 0 0 0 5.875.313 48.808 48.808 0 0 0 10.994-1.299z" class="cls-2" transform="translate(0 8.006)"/>
            </g>
            <g id="Group_116" transform="rotate(180 512.217 907.402)">
                <path id="Path_9-3" d="M836.445 423.8H845.584l.029.005H845.756l.028.005H846.627l.03.005h.035l.026.005h.035l.031.005h.139l.031.006h.093l.032.005h.014l.033.005h.04l.039.007h.012l.033.006h.013l.032.005H847.337l.039.006h.01l.036.006h.01l.04.007h.037l.038.006h.009l.038.007h.008l.068.012h.011l.035.006h.011l.036.007h.038l.04.007h.008l.04.008h.006l.07.012h.007l.039.007h.009l.037.007h.009l.069.013h.007l.041.008h.005l.071.013.046.009h.006l.041.008h.006l.07.013h.005l.042.008h.005l.119.023.044.008h.005l.118.023.045.009.118.024.046.009.072.014.043.009h.006l.116.023h.006l.043.009.119.025.12.025.048.01.29.062a63.065 63.065 0 0 1 8.14 2.334l-5.094 14.108a48.382 48.382 0 0 0-16.472-2.864v-15z" class="cls-2" transform="translate(-8)"/>
                <path id="Path_10-3" d="M871.386 434.267a63.831 63.831 0 0 1 11.521 9.746l.116.125.028.031c.049.052.1.105.146.158l.116.126.028.031.027.031.114.126.114.126.028.03.028.03.084.1.026.03.027.03.027.03.028.03.026.03.026.029.025.028.026.03.027.031.027.03.025.028v.005l.025.028.026.029.054.061.025.029.026.029.026.029.025.029.026.03.026.029.025.029.026.029.053.061.025.029v.005l.024.027.005.006.024.028.023.027.024.027v.005l.023.027.006.007.023.027.005.006.024.027.005.006.024.029.023.027.006.007.022.026.007.007.022.026.006.008.022.026.007.007.02.025.007.008.02.024.006.006.022.026.007.009.022.025.007.008.021.026.007.008.02.024.008.008.018.023.007.007.021.026.008.008.021.025.007.01.021.024.008.01.018.021.01.012.017.02.01.012.017.021.009.011.02.024.009.01.02.024.008.01.018.021.01.012.015.019.012.014.017.02.009.011.019.023.01.011.018.023.01.012.015.018.013.016.015.017.011.014.017.02.009.011.019.023.009.012.019.022.01.013.014.017.015.017.012.016.015.018.013.015.012.016.016.018.012.015.015.019.013.016.012.014.016.02.012.015.016.019.011.014.016.02.012.015.012.015.016.019.013.016.011.013.017.022.01.011.019.024.009.011.017.022.011.013.013.016.016.02.012.015.01.013.019.023.008.01.02.025.008.01.023.028.005.007.043.053.025.032.005.006.024.03.005.006.026.032.044.054.027.034.027.034.029.037.074.093.029.036c.315.4.623.8.927 1.208l-12.008 8.989a48.658 48.658 0 0 0-12.185-11.488z" class="cls-2" transform="translate(-6)"/>
                <path id="Path_11-3" d="M894.809 462.238a63.037 63.037 0 0 1 4.495 16.006l.018.124.007.046v.005l.017.121.007.049.017.123.006.045v.005l.006.046.01.072.006.044v.006l.015.119v.006l.005.042v.007l.01.071.005.043v.056l.009.072.005.043v.01l.005.037v.01l.009.07v.104l.009.068V483.519l-14.975.873a48.1 48.1 0 0 0-3.833-16.252l13.781-5.925z" class="cls-2" transform="translate(-6 2.936)"/>
                <path id="Path_12-3" d="M884.194 495.859l14.769 2.625q-.274 1.542-.622 3.058l-.011.044-.01.042v.006l-.016.069-.009.041v.007l-.009.039v.007l-.016.068v.009l-.009.037v.01l-.008.034v.012l-.005.025-.005.021-.005.019v.017l-.007.028v.016l-.007.027v.017l-.005.023-.006.022v.018l-.006.027-.005.018v.019l-.006.023-.005.021-.005.019-.006.025v.015l-.007.029v.015l-.007.026v.018l-.006.023v.016l-.006.027v.014l-.007.029v.015l-.007.03v.013l-.007.026v.015l-.007.027v.012l-.008.032v.012l-.008.033v.009l-.008.032v.01l-.008.031v.008l-.009.034v.01l-.009.034v.008l-.009.036-.009.036-.01.036v.008l-.009.036v.006l-.01.038-.01.041-.01.038v.006l-.009.037-.009.038-.02.079-.01.039-.01.039-.022.081-.011.04-.011.04-.045.166a63.1 63.1 0 0 1-4.353 11.535l-.018.037-.037.074-.019.037-.019.036-.037.074-.018.035-.017.035-.018.035-.018.035-.018.035v.005l-.017.034-.017.034v.005l-.018.035-.017.034v.006l-.016.032v.007l-.016.032v.007l-.016.032-.016.031v.006l-.017.032v.007l-.016.032v.007l-.016.032v.005l-.015.03v.006l-.015.031-.005.009-.015.029-.005.01-.015.03-.005.009-.013.025-.006.012-.014.026-.005.01-.014.028-.007.012-.014.028-.006.01-.012.024-.008.015-.011.022-.006.012-.014.026-.008.014-.013.026-.007.013-.012.023-.008.015-.011.021-.007.014-.013.024-.007.014-.014.026-.006.013-.014.026-.007.013-.01.019-.01.018-.01.02-.008.015-.013.024-.008.015-.013.024-.008.015-.01.019-.01.02-.009.017-.01.018-.012.022-.008.015-.012.024-.009.016-.009.017-.012.021-.007.015-.014.026-.008.013-.009.017-.012.023-.009.017-.008.014-.013.026-.007.012-.015.028-.006.012-.012.021-.01.019-.01.017-.006.012-.015.028-.006.011-.016.029-.005.01-.018.033v.007l-.011.019v.005l-.02.036v.005l-.019.035v.007l-.021.038-.057.1-.1.188c-.182.326-.365.65-.552.973l-12.985-7.51a47.979 47.979 0 0 0 5.57-15.59z" class="cls-2" transform="translate(-5 5.557)"/>
                <path id="Path_13-3" d="M871.613 520.7l10.875 10.332q-2.071 2.181-4.343 4.16l-.035.03-.126.109-.036.031-.126.109-.035.031-.126.108-.162.138-.034.029-.032.028-.089.075-.034.028-.089.076-.033.028-.03.025-.007.005-.031.026-.054.045-.034.028h-.005l-.031.026h-.005l-.031.026-.053.044-.007.006-.027.022-.01.008-.026.022-.008.007-.027.022-.008.007-.053.043-.007.005-.028.023-.007.006-.028.023-.008.006-.029.025h-.006l-.052.043-.009.007-.027.022-.007.006-.029.023-.006.006-.031.025h-.005l-.053.043-.008.007-.027.022-.008.007-.027.021-.009.007-.025.02-.011.009-.015.013-.02.016-.016.012-.01.009-.025.02-.011.008-.025.02-.01.008-.023.019-.013.01-.015.012-.016.013-.02.016-.01.008-.025.02-.01.008-.024.019-.012.01-.022.017-.012.01-.018.014-.018.014-.016.013-.011.009-.025.019-.01.009-.024.018-.012.01-.024.019-.011.009-.016.012-.02.016-.015.012-.013.01-.022.017-.013.01-.022.018-.013.01-.019.015-.016.013-.015.011-.021.016-.014.012-.014.011-.022.017-.013.01-.022.017-.012.01-.022.017-.014.011-.015.012-.02.015-.016.012-.016.012-.018.015-.014.011-.022.017-.013.01-.02.015-.015.012-.016.012-.021.016-.014.011-.017.013-.018.014-.015.012-.019.014-.016.012-.018.014-.017.014-.014.01-.022.017-.014.011-.018.013-.017.014-.015.011-.02.015-.015.012-.015.011-.021.016-.013.01-.023.017-.013.01-.018.014-.018.014-.015.012-.019.014-.017.012-.013.01-.023.018-.012.009-.023.017-.013.01-.021.016-.013.01-.018.014-.017.013-.018.013-.012.009-.023.017-.014.01-.022.017-.013.01-.021.015-.014.012-.018.013-.016.012-.019.014-.012.009-.023.017-.013.01-.023.017-.013.01-.019.014-.017.012-.016.013-.018.013-.018.013-.013.01-.022.016-.013.01-.023.017-.013.01-.02.014-.016.012-.018.013-.017.012-.017.014-.013.009-.024.017-.012.009-.023.017-.013.01-.024.018-.011.007-.019.015-.015.01-.021.016-.01.007-.025.018-.011.009-.026.018-.009.007-.026.019-.01.008-.022.015-.013.01-.02.014-.012.009-.025.018-.011.008-.025.018-.011.008-.025.019-.01.007-.021.015-.013.009-.023.016-.009.007-.026.019-.01.008-.026.018-.011.008-.023.016-.013.01-.02.014-.013.01-.023.016-.01.007-.026.019-.01.007-.026.018-.01.008-.026.018-.009.007-.023.016-.011.007-.024.018-.009.006-.026.019-.011.008-.026.018-.01.007-.026.019-.009.006-.024.017-.009.006-.025.018-.01.007-.026.018-.01.008-.027.018-.009.007-.027.019-.009.006-.023.016-.01.007-.025.018-.009.006-.027.019-.009.007-.028.019-.008.006-.028.019-.008.005-.025.018-.008.006-.027.018-.008.006-.028.019-.009.006-.027.019-.009.007-.028.019h-.006l-.027.019-.007.005-.028.019-.007.005-.028.02-.009.006-.028.019-.008.005-.029.02-.006.005-.027.018-.006.005-.028.019-.009.005-.027.02-.009.005-.028.02h-.008l-.029.02h-.007l-.026.019h-.007l-.028.019-.008.005-.028.02-.008.005-.028.019-.009.007-.028.018-.009.006-.025.017-.006.005-.029.019-.007.005-.03.02-.007.005-.029.019-.008.005-.029.02h-.006l-.028.019h-.005l-.03.021h-.006l-.029.019-.009.006-.028.019-.008.005-.03.02h-.005l-.029.019-.03.02-.007.005-.03.019-.007.005-.029.019-.008.006-.029.019h-.006l-.028.018h-.006l-.029.02h-.007l-.03.02-.007.005-.03.019h-.007l-.03.02h-.005l-.03.02-.031.02-.007.005-.03.019-.007.005-.029.019-.008.005-.03.02-.03.019-.031.02-.007.005-.029.019-.008.005-.03.019-.007.005-.029.019-.008.005-.026.017h-.007l-.028.018-.009.006-.028.018-.009.006-.029.019-.008.005-.029.019h-.006l-.029.018h-.005l-.03.02h-.007l-.03.02h-.007l-.03.019-.007.005-.03.019h-.007l-.028.018h-.005l-.03.02h-.008l-.029.019-.008.005-.029.019-.008.005-.03.019h-.005l-.029.019h-.005l-.031.019-.007.005-.029.018-.009.006-.029.018-.008.005-.029.019h-.008l-.027.017h-.006l-.029.019-.009.005-.029.018-.008.005-.029.019h-.008l-.03.018h-.006l-.028.018h-.006l-.03.019-.008.005-.029.018-.009.005-.029.018-.008.005-.029.019h-.008l-.026.017h-.008l-.028.018-.009.006-.029.017-.009.006-.028.017-.01.006-.029.018h-.006l-.027.017h-.008l-.029.018-.008.005-.029.018-.009.006-.03.018h-.007l-.03.019h-.007l-.028.017h-.006l-.03.019-.008.005-.03.018h-.007l-.031.019h-.006l-.032.019-.03.018h-.005l-.031.019h-.008l-.03.018-.008.005-.03.018-.008.005-.028.018h-.009l-.027.016h-.006l-.031.018-.007.005-.031.018h-.007l-.03.018-.008.005-.031.018h-.005l-.029.018h-.006l-.031.019h-.007l-.029.017-.01.006-.029.017h-.008l-.031.018h-.006l-.028.017h-.006l-.031.018h-.008l-.029.018-.009.005-.03.017-.008.005-.03.018h-.008l-.025.015-.009.006-.028.016-.01.006-.028.016-.011.006-.028.017-.009.005-.03.018h-.007l-.028.016h-.006l-.03.017-.009.005-.03.017-.009.006-.029.016-.009.006-.03.017h-.006l-.028.016h-.007l-.03.018h-.008l-.03.017-.009.005-.03.018h-.007l-.032.018h-.006l-.028.017h-.007l-.029.016-.01.006-.029.017-.009.005-.03.017-.008.005-.03.017h-.008l-.026.015-.008.005-.03.016-.009.006-.029.016-.01.006-.029.016-.009.006-.028.015-.01.006-.025.014-.01.006-.028.016-.01.005-.029.016-.01.006-.028.016-.011.006-.027.015-.01.006-.025.014-.01.005-.028.016-.01.006-.028.015-.012.007-.027.015-.011.006-.026.015-.013.007-.024.013h-.009l-.029.016-.01.006-.028.016-.011.006-.029.015-.009.006-.03.016h-.007l-.028.015h-.007l-.03.017-.01.005-.029.016-.009.005-.03.017-.009.005-.028.015-.01.006-.027.014h-.007l-.03.016-.01.006-.03.016-.009.005-.029.016-.01.006-.03.016h-.006l-.028.015-.008.005-.031.016-.008.005-.03.016-.01.005-.029.016h-.009l-.029.015-.01.006-.025.013-.01.006-.028.015-.012.006-.028.015-.011.006-.029.015-.009.006-.028.014-.011.006-.024.013-.011.006-.028.015-.011.006-.028.015-.011.006-.029.015-.011.006-.023.012-.016.009-.023.011-.012.007-.026.014-.012.006-.028.015-.011.006-.028.014-.013.007-.024.013-.014.007-.022.012-.014.007-.025.013-.012.007-.027.014-.014.007-.027.014-.012.006-.024.013-.014.007-.023.012-.013.007-.026.013-.013.007-.026.014-.013.006-.027.015-.013.006-.023.012-.016.008-.021.011-.016.008-.023.012-.014.007-.026.014-.013.007-.028.014-.012.006-.024.012-.014.008-.024.012-.012.006-.026.013-.013.007-.027.014-.013.006-.027.014-.014.007-.022.011-.016.008-.021.011-.017.009-.022.011-.014.007-.026.013-.015.008-.025.013-.014.007-.022.01-.018.01-.019.009-.019.01-.021.01-.009.005-6.733-13.4a48.53 48.53 0 0 0 13.385-9.672z" class="cls-2" transform="translate(-3 8.006)"/>
                <path id="Path_14-3" d="M847.45 534.547l3.386 14.613a63.512 63.512 0 0 1-10.717 1.533h-.024l-.177.01-.177.009h-.1l-.119.006h-7.127l-.086-.005H832.193l-.088-.005h-.055q-1.543-.1-3.069-.26l1.6-14.915a55.124 55.124 0 0 0 5.875.313 48.808 48.808 0 0 0 10.994-1.299z" class="cls-2" transform="translate(0 6.006)"/>
            </g>
            <g id="Group_117" transform="rotate(180 512.217 1027.402)">
                <path id="Path_9-4" d="M836.445 423.8H845.584l.029.005H845.756l.028.005H846.627l.03.005h.035l.026.005h.035l.031.005h.139l.031.006h.093l.032.005h.014l.033.005h.04l.039.007h.012l.033.006h.013l.032.005H847.337l.039.006h.01l.036.006h.01l.04.007h.037l.038.006h.009l.038.007h.008l.068.012h.011l.035.006h.011l.036.007h.038l.04.007h.008l.04.008h.006l.07.012h.007l.039.007h.009l.037.007h.009l.069.013h.007l.041.008h.005l.071.013.046.009h.006l.041.008h.006l.07.013h.005l.042.008h.005l.119.023.044.008h.005l.118.023.045.009.118.024.046.009.072.014.043.009h.006l.116.023h.006l.043.009.119.025.12.025.048.01.29.062a63.065 63.065 0 0 1 8.14 2.334l-5.094 14.108a48.382 48.382 0 0 0-16.472-2.864v-15z" class="cls-2" transform="translate(-8)"/>
                <path id="Path_10-4" d="M871.386 434.267a63.831 63.831 0 0 1 11.521 9.746l.116.125.028.031c.049.052.1.105.146.158l.116.126.028.031.027.031.114.126.114.126.028.03.028.03.084.1.026.03.027.03.027.03.028.03.026.03.026.029.025.028.026.03.027.031.027.03.025.028v.005l.025.028.026.029.054.061.025.029.026.029.026.029.025.029.026.03.026.029.025.029.026.029.053.061.025.029v.005l.024.027.005.006.024.028.023.027.024.027v.005l.023.027.006.007.023.027.005.006.024.027.005.006.024.029.023.027.006.007.022.026.007.007.022.026.006.008.022.026.007.007.02.025.007.008.02.024.006.006.022.026.007.009.022.025.007.008.021.026.007.008.02.024.008.008.018.023.007.007.021.026.008.008.021.025.007.01.021.024.008.01.018.021.01.012.017.02.01.012.017.021.009.011.02.024.009.01.02.024.008.01.018.021.01.012.015.019.012.014.017.02.009.011.019.023.01.011.018.023.01.012.015.018.013.016.015.017.011.014.017.02.009.011.019.023.009.012.019.022.01.013.014.017.015.017.012.016.015.018.013.015.012.016.016.018.012.015.015.019.013.016.012.014.016.02.012.015.016.019.011.014.016.02.012.015.012.015.016.019.013.016.011.013.017.022.01.011.019.024.009.011.017.022.011.013.013.016.016.02.012.015.01.013.019.023.008.01.02.025.008.01.023.028.005.007.043.053.025.032.005.006.024.03.005.006.026.032.044.054.027.034.027.034.029.037.074.093.029.036c.315.4.623.8.927 1.208l-12.008 8.989a48.658 48.658 0 0 0-12.185-11.488z" class="cls-2" transform="translate(-6)"/>
                <path id="Path_11-4" d="M894.809 462.238a63.037 63.037 0 0 1 4.495 16.006l.018.124.007.046v.005l.017.121.007.049.017.123.006.045v.005l.006.046.01.072.006.044v.006l.015.119v.006l.005.042v.007l.01.071.005.043v.056l.009.072.005.043v.01l.005.037v.01l.009.07v.104l.009.068V483.519l-14.975.873a48.1 48.1 0 0 0-3.833-16.252l13.781-5.925z" class="cls-2" transform="translate(-6 2.936)"/>
                <path id="Path_12-4" d="M884.194 495.859l14.769 2.625q-.274 1.542-.622 3.058l-.011.044-.01.042v.006l-.016.069-.009.041v.007l-.009.039v.007l-.016.068v.009l-.009.037v.01l-.008.034v.012l-.005.025-.005.021-.005.019v.017l-.007.028v.016l-.007.027v.017l-.005.023-.006.022v.018l-.006.027-.005.018v.019l-.006.023-.005.021-.005.019-.006.025v.015l-.007.029v.015l-.007.026v.018l-.006.023v.016l-.006.027v.014l-.007.029v.015l-.007.03v.013l-.007.026v.015l-.007.027v.012l-.008.032v.012l-.008.033v.009l-.008.032v.01l-.008.031v.008l-.009.034v.01l-.009.034v.008l-.009.036-.009.036-.01.036v.008l-.009.036v.006l-.01.038-.01.041-.01.038v.006l-.009.037-.009.038-.02.079-.01.039-.01.039-.022.081-.011.04-.011.04-.045.166a63.1 63.1 0 0 1-4.353 11.535l-.018.037-.037.074-.019.037-.019.036-.037.074-.018.035-.017.035-.018.035-.018.035-.018.035v.005l-.017.034-.017.034v.005l-.018.035-.017.034v.006l-.016.032v.007l-.016.032v.007l-.016.032-.016.031v.006l-.017.032v.007l-.016.032v.007l-.016.032v.005l-.015.03v.006l-.015.031-.005.009-.015.029-.005.01-.015.03-.005.009-.013.025-.006.012-.014.026-.005.01-.014.028-.007.012-.014.028-.006.01-.012.024-.008.015-.011.022-.006.012-.014.026-.008.014-.013.026-.007.013-.012.023-.008.015-.011.021-.007.014-.013.024-.007.014-.014.026-.006.013-.014.026-.007.013-.01.019-.01.018-.01.02-.008.015-.013.024-.008.015-.013.024-.008.015-.01.019-.01.02-.009.017-.01.018-.012.022-.008.015-.012.024-.009.016-.009.017-.012.021-.007.015-.014.026-.008.013-.009.017-.012.023-.009.017-.008.014-.013.026-.007.012-.015.028-.006.012-.012.021-.01.019-.01.017-.006.012-.015.028-.006.011-.016.029-.005.01-.018.033v.007l-.011.019v.005l-.02.036v.005l-.019.035v.007l-.021.038-.057.1-.1.188c-.182.326-.365.65-.552.973l-12.985-7.51a47.979 47.979 0 0 0 5.57-15.59z" class="cls-2" transform="translate(-5 5.557)"/>
                <path id="Path_13-4" d="M871.613 520.7l10.875 10.332q-2.071 2.181-4.343 4.16l-.035.03-.126.109-.036.031-.126.109-.035.031-.126.108-.162.138-.034.029-.032.028-.089.075-.034.028-.089.076-.033.028-.03.025-.007.005-.031.026-.054.045-.034.028h-.005l-.031.026h-.005l-.031.026-.053.044-.007.006-.027.022-.01.008-.026.022-.008.007-.027.022-.008.007-.053.043-.007.005-.028.023-.007.006-.028.023-.008.006-.029.025h-.006l-.052.043-.009.007-.027.022-.007.006-.029.023-.006.006-.031.025h-.005l-.053.043-.008.007-.027.022-.008.007-.027.021-.009.007-.025.02-.011.009-.015.013-.02.016-.016.012-.01.009-.025.02-.011.008-.025.02-.01.008-.023.019-.013.01-.015.012-.016.013-.02.016-.01.008-.025.02-.01.008-.024.019-.012.01-.022.017-.012.01-.018.014-.018.014-.016.013-.011.009-.025.019-.01.009-.024.018-.012.01-.024.019-.011.009-.016.012-.02.016-.015.012-.013.01-.022.017-.013.01-.022.018-.013.01-.019.015-.016.013-.015.011-.021.016-.014.012-.014.011-.022.017-.013.01-.022.017-.012.01-.022.017-.014.011-.015.012-.02.015-.016.012-.016.012-.018.015-.014.011-.022.017-.013.01-.02.015-.015.012-.016.012-.021.016-.014.011-.017.013-.018.014-.015.012-.019.014-.016.012-.018.014-.017.014-.014.01-.022.017-.014.011-.018.013-.017.014-.015.011-.02.015-.015.012-.015.011-.021.016-.013.01-.023.017-.013.01-.018.014-.018.014-.015.012-.019.014-.017.012-.013.01-.023.018-.012.009-.023.017-.013.01-.021.016-.013.01-.018.014-.017.013-.018.013-.012.009-.023.017-.014.01-.022.017-.013.01-.021.015-.014.012-.018.013-.016.012-.019.014-.012.009-.023.017-.013.01-.023.017-.013.01-.019.014-.017.012-.016.013-.018.013-.018.013-.013.01-.022.016-.013.01-.023.017-.013.01-.02.014-.016.012-.018.013-.017.012-.017.014-.013.009-.024.017-.012.009-.023.017-.013.01-.024.018-.011.007-.019.015-.015.01-.021.016-.01.007-.025.018-.011.009-.026.018-.009.007-.026.019-.01.008-.022.015-.013.01-.02.014-.012.009-.025.018-.011.008-.025.018-.011.008-.025.019-.01.007-.021.015-.013.009-.023.016-.009.007-.026.019-.01.008-.026.018-.011.008-.023.016-.013.01-.02.014-.013.01-.023.016-.01.007-.026.019-.01.007-.026.018-.01.008-.026.018-.009.007-.023.016-.011.007-.024.018-.009.006-.026.019-.011.008-.026.018-.01.007-.026.019-.009.006-.024.017-.009.006-.025.018-.01.007-.026.018-.01.008-.027.018-.009.007-.027.019-.009.006-.023.016-.01.007-.025.018-.009.006-.027.019-.009.007-.028.019-.008.006-.028.019-.008.005-.025.018-.008.006-.027.018-.008.006-.028.019-.009.006-.027.019-.009.007-.028.019h-.006l-.027.019-.007.005-.028.019-.007.005-.028.02-.009.006-.028.019-.008.005-.029.02-.006.005-.027.018-.006.005-.028.019-.009.005-.027.02-.009.005-.028.02h-.008l-.029.02h-.007l-.026.019h-.007l-.028.019-.008.005-.028.02-.008.005-.028.019-.009.007-.028.018-.009.006-.025.017-.006.005-.029.019-.007.005-.03.02-.007.005-.029.019-.008.005-.029.02h-.006l-.028.019h-.005l-.03.021h-.006l-.029.019-.009.006-.028.019-.008.005-.03.02h-.005l-.029.019-.03.02-.007.005-.03.019-.007.005-.029.019-.008.006-.029.019h-.006l-.028.018h-.006l-.029.02h-.007l-.03.02-.007.005-.03.019h-.007l-.03.02h-.005l-.03.02-.031.02-.007.005-.03.019-.007.005-.029.019-.008.005-.03.02-.03.019-.031.02-.007.005-.029.019-.008.005-.03.019-.007.005-.029.019-.008.005-.026.017h-.007l-.028.018-.009.006-.028.018-.009.006-.029.019-.008.005-.029.019h-.006l-.029.018h-.005l-.03.02h-.007l-.03.02h-.007l-.03.019-.007.005-.03.019h-.007l-.028.018h-.005l-.03.02h-.008l-.029.019-.008.005-.029.019-.008.005-.03.019h-.005l-.029.019h-.005l-.031.019-.007.005-.029.018-.009.006-.029.018-.008.005-.029.019h-.008l-.027.017h-.006l-.029.019-.009.005-.029.018-.008.005-.029.019h-.008l-.03.018h-.006l-.028.018h-.006l-.03.019-.008.005-.029.018-.009.005-.029.018-.008.005-.029.019h-.008l-.026.017h-.008l-.028.018-.009.006-.029.017-.009.006-.028.017-.01.006-.029.018h-.006l-.027.017h-.008l-.029.018-.008.005-.029.018-.009.006-.03.018h-.007l-.03.019h-.007l-.028.017h-.006l-.03.019-.008.005-.03.018h-.007l-.031.019h-.006l-.032.019-.03.018h-.005l-.031.019h-.008l-.03.018-.008.005-.03.018-.008.005-.028.018h-.009l-.027.016h-.006l-.031.018-.007.005-.031.018h-.007l-.03.018-.008.005-.031.018h-.005l-.029.018h-.006l-.031.019h-.007l-.029.017-.01.006-.029.017h-.008l-.031.018h-.006l-.028.017h-.006l-.031.018h-.008l-.029.018-.009.005-.03.017-.008.005-.03.018h-.008l-.025.015-.009.006-.028.016-.01.006-.028.016-.011.006-.028.017-.009.005-.03.018h-.007l-.028.016h-.006l-.03.017-.009.005-.03.017-.009.006-.029.016-.009.006-.03.017h-.006l-.028.016h-.007l-.03.018h-.008l-.03.017-.009.005-.03.018h-.007l-.032.018h-.006l-.028.017h-.007l-.029.016-.01.006-.029.017-.009.005-.03.017-.008.005-.03.017h-.008l-.026.015-.008.005-.03.016-.009.006-.029.016-.01.006-.029.016-.009.006-.028.015-.01.006-.025.014-.01.006-.028.016-.01.005-.029.016-.01.006-.028.016-.011.006-.027.015-.01.006-.025.014-.01.005-.028.016-.01.006-.028.015-.012.007-.027.015-.011.006-.026.015-.013.007-.024.013h-.009l-.029.016-.01.006-.028.016-.011.006-.029.015-.009.006-.03.016h-.007l-.028.015h-.007l-.03.017-.01.005-.029.016-.009.005-.03.017-.009.005-.028.015-.01.006-.027.014h-.007l-.03.016-.01.006-.03.016-.009.005-.029.016-.01.006-.03.016h-.006l-.028.015-.008.005-.031.016-.008.005-.03.016-.01.005-.029.016h-.009l-.029.015-.01.006-.025.013-.01.006-.028.015-.012.006-.028.015-.011.006-.029.015-.009.006-.028.014-.011.006-.024.013-.011.006-.028.015-.011.006-.028.015-.011.006-.029.015-.011.006-.023.012-.016.009-.023.011-.012.007-.026.014-.012.006-.028.015-.011.006-.028.014-.013.007-.024.013-.014.007-.022.012-.014.007-.025.013-.012.007-.027.014-.014.007-.027.014-.012.006-.024.013-.014.007-.023.012-.013.007-.026.013-.013.007-.026.014-.013.006-.027.015-.013.006-.023.012-.016.008-.021.011-.016.008-.023.012-.014.007-.026.014-.013.007-.028.014-.012.006-.024.012-.014.008-.024.012-.012.006-.026.013-.013.007-.027.014-.013.006-.027.014-.014.007-.022.011-.016.008-.021.011-.017.009-.022.011-.014.007-.026.013-.015.008-.025.013-.014.007-.022.01-.018.01-.019.009-.019.01-.021.01-.009.005-6.733-13.4a48.53 48.53 0 0 0 13.385-9.672z" class="cls-2" transform="translate(-3 8.006)"/>
                <path id="Path_14-4" d="M847.45 534.547l3.386 14.613a63.512 63.512 0 0 1-10.717 1.533h-.024l-.177.01-.177.009h-.1l-.119.006h-7.127l-.086-.005H832.193l-.088-.005h-.055q-1.543-.1-3.069-.26l1.6-14.915a55.124 55.124 0 0 0 5.875.313 48.808 48.808 0 0 0 10.994-1.299z" class="cls-2" transform="translate(0 8.006)"/>
            </g>
            <g id="Group_118" transform="translate(2 185)">
                <g id="Group_41">
                    <g id="Ellipse_4" class="cls-3" transform="translate(51 885)">
                        <circle cx="77" cy="77" r="77" class="cls-7"/>
                        <circle cx="77" cy="77" r="69.5" class="cls-8"/>
                    </g>
                    <circle id="Ellipse_5" cx="49" cy="49" r="49" fill="#ccc" transform="translate(79 913)"/>
                    <text id="СТАРТ" class="cls-5" transform="translate(96 970)">
                        <tspan x="0" y="0">СТАРТ</tspan>
                    </text>
                </g>
            </g>
            <g id="Group_119" transform="translate(1649 662)">
                <g id="Group_41-2">
                    <g id="Ellipse_4-2" class="cls-3" transform="translate(51 885)">
                        <circle cx="77" cy="77" r="77" class="cls-7"/>
                        <circle cx="77" cy="77" r="69.5" class="cls-8"/>
                    </g>
                    <circle id="Ellipse_5-2" cx="49" cy="49" r="49" fill="#e30427" transform="translate(79 913)"/>
                    <text id="Финиш" class="cls-5" transform="translate(85 970)">
                        <tspan x="0" y="0">ФИНИШ</tspan>
                    </text>
                </g>
            </g>
        </g>
    </g>
</svg>
