<svg width="257" height="162" fill="none" xmlns="http://www.w3.org/2000/svg"><path fill-rule="evenodd" clip-rule="evenodd" d="M9.28 1.668c-2.82.907-6.17 3.847-7.627 6.692L.545 10.523v141.462l1.089 2.123c.598 1.169 1.991 2.976 3.095 4.017 4.024 3.795-5.747 3.517 123.566 3.517s119.542.278 123.566-3.517c1.103-1.041 2.496-2.848 3.095-4.017l1.089-2.123V10.523l-1.108-2.163c-1.505-2.938-4.831-5.791-7.836-6.723C243.462.509 12.788.539 9.279 1.667zM211.542 23.18c.683 4.568 1.96 8.613 3.672 11.64 3.735 6.604 10.897 11.55 18.341 12.67l3.739.563v66.372l-3.875.644c-11.095 1.843-19.258 10.181-21.476 21.94l-.807 4.274H45.34l-.293-1.958c-1.14-7.608-3.765-13.215-8.15-17.404-3.642-3.478-9.054-6.182-13.805-6.897l-3.797-.571V47.981l3.068-.363c11.286-1.333 19.99-9.975 22.283-22.12l.806-4.274H211.25l.294 1.957zm-88.055 11.58c-7.047 1.171-13.366 4.53-19.01 10.108-6.662 6.584-10.574 13.565-13.071 23.33-1.105 4.317-1.27 6.019-1.26 13.055.01 7 .184 8.773 1.295 13.157 4.131 16.301 14.128 27.904 27.853 32.325 5.216 1.681 12.704 1.673 17.987-.018 14.137-4.523 24.037-16.247 28.118-33.298 1.636-6.836 1.525-18.271-.246-25.278-4.034-15.967-14.338-28.032-27.542-32.252-3.891-1.244-10.33-1.758-14.124-1.128zm10.307 20.915c.963 1.006 1 1.74 1 20.097v19.053h3.971c5.092 0 5.529.516 5.529 6.525 0 6.967 1.083 6.525-16 6.525-17.084 0-16 .442-16-6.525 0-6.01.437-6.525 5.528-6.525h3.972V71.858h-1.745c-1.506 0-1.984-.341-3.48-2.48-4.849-6.932-4.699-7.397 4.195-13.025 2.562-1.62 2.994-1.721 7.375-1.721 3.988 0 4.798.15 5.655 1.044z" fill="#69A61B"/></svg>