<svg xmlns="http://www.w3.org/2000/svg" width="154.633" height="154.633"><defs><style>.cls-1{fill:rgba(41,197,30,.55);stroke:#fff;stroke-width:.572px}</style></defs><g id="compass" transform="translate(.286 .286)"><path id="Path_7" d="M101.579 52.09a2.257 2.257 0 002.516.47l20.792-9.241 20.792 9.241a2.257 2.257 0 002.974-2.989l-21.708-48.24a2.257 2.257 0 00-4.116 0l-21.708 48.241a2.256 2.256 0 00.458 2.518zm25.564-12.707V12.771l14.969 33.265zm-4.513-26.612v26.612l-14.969 6.653z" class="cls-1" transform="translate(-47.857)"/><path id="Path_8" d="M142.918 103.179V115.7l-10.41-13.88a2.257 2.257 0 00-4.062 1.354v19.3a2.257 2.257 0 104.513 0v-12.525l10.41 13.88a2.257 2.257 0 004.062-1.354v-19.3a2.257 2.257 0 00-4.513 0z" class="cls-1" transform="translate(-60.908 -47.857)"/><path id="Path_9" d="M177.395 27.374a62.872 62.872 0 0145.157 51.22 2.257 2.257 0 004.464-.663 67.391 67.391 0 00-48.4-54.9 2.257 2.257 0 10-1.22 4.346z" class="cls-1" transform="translate(-83.339 -10.88)"/><path id="Path_10" d="M16.729 89.98a2.257 2.257 0 000-4.513H14.2a62.937 62.937 0 0146.53-58.479 2.257 2.257 0 10-1.167-4.36A67.458 67.458 0 009.689 85.467H2.257a2.257 2.257 0 000 4.513z" class="cls-1" transform="translate(0 -10.693)"/><path id="Path_11" d="M161.145 142.208h-14.472a2.257 2.257 0 100 4.513h2.522a62.944 62.944 0 01-60.567 60.567v-2.522a2.257 2.257 0 00-4.513 0v2.523a62.876 62.876 0 01-59.927-53.507 2.257 2.257 0 00-4.464.663A67.388 67.388 0 0084.115 211.8v7.433a2.257 2.257 0 004.513 0V211.8a67.369 67.369 0 0065.084-65.084h7.433a2.257 2.257 0 000-4.513z" class="cls-1" transform="translate(-9.341 -67.435)"/></g></svg>