<svg width="240" height="292" fill="none" xmlns="http://www.w3.org/2000/svg"><path d="M78.209 249.462l-.698.726v24.999h-50.84c-6.379 0-12.516-2.635-17.057-7.358-4.545-4.727-7.114-11.157-7.114-17.883V28.021c0-14.109 10.84-25.24 24.17-25.24h105.617l78.576 81.728v26.976l-24.035 24.999H24.17v32.74h131.181l-21.863 22.741H24.17v32.741h77.84l-23.801 24.756zm43.61-230.108l-4.302-4.475v84.994h81.715l-4.07-4.233-73.343-76.286zm90.012 137.452c.951-.989 2.145-1.452 3.532-1.452 1.23 0 2.432.446 3.399 1.452l17.336 18.031c1.842 1.916 1.903 5.391-.019 7.511l-11.777 12.13-24.403-25.261 11.932-12.411zm-102.65 132.251v-25.344l79.384-82.704 24.393 25.25-79.604 82.798h-24.173z" fill="#fff" stroke="#fff" stroke-width="5"/></svg>