<svg width="123" height="231" fill="none" xmlns="http://www.w3.org/2000/svg"><path fill-rule="evenodd" clip-rule="evenodd" d="M57.668 1.256c-5.413 1.424-10.112 5.522-12.557 10.95-1.387 3.08-1.547 3.984-1.732 9.784l-.204 6.392-2.065.543c-12.175 3.206-21.916 8.909-29.58 17.317-3.507 3.847-4.68 5.592-6.706 9.977C1.469 63.48.612 67.902.928 76.318c.293 7.813 1.094 11.242 4.105 17.58 7.186 15.128 22.835 25.02 52.012 32.879 16.315 4.394 25.093 8.49 30.852 14.396 6.866 7.041 8.602 16.415 4.692 25.33-2.679 6.11-9.629 10.884-18.687 12.837-6.581 1.42-21.27 1.142-27.166-.513-9.21-2.586-14.866-7.043-18.657-14.705-4.27-8.632-6.378-10.19-13.784-10.19-5.387 0-7.77.933-10.263 4.019-3.562 4.412-3.817 8.788-.88 15.142 6.327 13.685 19.666 24.126 36.47 28.545l3.423.9.274 6.232c.329 7.479 1.177 10.391 4.193 14.401 2.622 3.486 7.648 6.421 11.96 6.983 3.117.407 7.667-.436 10.52-1.949 3.034-1.61 6.657-5.476 8.149-8.699 1.197-2.587 1.392-3.744 1.632-9.71l.272-6.773 4.29-1.144c20.23-5.395 32.53-16.288 37.05-32.812 1.614-5.898 1.607-17.175-.014-24.012-4.99-21.048-20.896-33.468-55.542-43.37-11.71-3.347-16.494-5.095-22.784-8.322-6.634-3.405-9.98-6.339-12.283-10.774-1.632-3.143-1.716-3.563-1.71-8.526.006-4.526.18-5.602 1.305-8.091 2.62-5.794 7.48-9.986 14.688-12.673 5.452-2.03 10.227-2.625 18.834-2.343 8.871.29 13.255 1.456 18.104 4.817 4.244 2.94 6.53 6.142 8.76 12.271 2.289 6.287 5.36 8.865 11.068 9.292 6.814.509 11.601-1.916 13.835-7.01 1.801-4.107 1.49-7.493-1.231-13.415-2.558-5.566-4.334-8.294-8.223-12.634-5.733-6.399-12.294-10.739-20.876-13.812l-5.27-1.887-.25-7.011c-.226-6.329-.387-7.302-1.648-9.982C74.611 4.065 65.143-.71 57.668 1.256z" fill="#69A61B"/></svg>