<svg width="123" height="231" viewBox="0 0 123 231" fill="none" xmlns="http://www.w3.org/2000/svg">
<path fill-rule="evenodd" clip-rule="evenodd" d="M57.6682 1.25646C52.2552 2.68047 47.5562 6.77817 45.1112 12.2059C43.7242 15.2852 43.5642 16.1898 43.3787 21.9903L43.1747 28.3817L41.1096 28.9251C28.9346 32.1312 19.1941 37.834 11.5301 46.2419C8.02309 50.089 6.85061 51.8336 4.8236 56.2194C1.4691 63.4789 0.611609 67.9023 0.927609 76.318C1.22061 84.1313 2.02159 87.5598 5.03259 93.8989C12.2186 109.026 27.8677 118.918 57.0452 126.777C73.3597 131.171 82.1382 135.267 87.8972 141.173C94.7627 148.214 96.4991 157.588 92.5891 166.503C89.9101 172.613 82.9602 177.387 73.9022 179.34C67.3207 180.76 52.6317 180.482 46.7362 178.827C37.5252 176.241 31.8697 171.784 28.0792 164.122C23.8092 155.49 21.7006 153.932 14.2951 153.932C8.9081 153.932 6.5246 154.865 4.0321 157.951C0.4696 162.363 0.215096 166.739 3.1521 173.093C9.4786 186.778 22.8182 197.219 39.6222 201.638L43.0452 202.538L43.3192 208.77C43.6477 216.249 44.4957 219.161 47.5122 223.171C50.1342 226.657 55.1602 229.592 59.4722 230.154C62.5892 230.561 67.1392 229.718 69.9912 228.205C73.0262 226.595 76.6486 222.729 78.1406 219.506C79.3381 216.919 79.5327 215.762 79.7727 209.796L80.0452 203.023L84.3352 201.879C104.565 196.484 116.865 185.591 121.385 169.067C122.999 163.169 122.992 151.892 121.371 145.055C116.381 124.007 100.475 111.587 65.8286 101.685C54.1196 98.3375 49.3347 96.5898 43.0452 93.3628C36.4107 89.9583 33.0652 87.0242 30.7622 82.5887C29.1297 79.4458 29.0456 79.0256 29.0516 74.0629C29.0576 69.5367 29.2312 68.4613 30.3567 65.9719C32.9772 60.1777 37.8362 55.9855 45.0452 53.2993C50.4967 51.2682 55.2717 50.6737 63.8787 50.9556C72.7502 51.2463 77.1342 52.4125 81.9832 55.7726C86.2272 58.7135 88.5127 61.9155 90.7437 68.0443C93.0317 74.3307 96.1032 76.9094 101.811 77.3359C108.625 77.8448 113.412 75.4196 115.646 70.3264C117.447 66.2188 117.136 62.8326 114.415 56.911C111.857 51.3455 110.081 48.617 106.192 44.2771C100.459 37.8784 93.8982 33.538 85.3162 30.4655L80.0452 28.5785L79.7952 21.567C79.5697 15.2382 79.4092 14.2652 78.1482 11.5847C74.6107 4.06482 65.1432 -0.709915 57.6682 1.25646Z" fill="#69A61B"/>
</svg>
