<svg width="169" height="280" fill="none" xmlns="http://www.w3.org/2000/svg"><path d="M125.311 109.667H44.246L5.316 45.083h158.926l-38.931 64.584zm40.857-83.5H3.389V3.333h162.779v22.834zm-120.834 250.5V128.583h78.889v148.084h-78.89zm39.444-125.25a16.516 16.516 0 00-11.65 4.804 16.385 16.385 0 00-4.831 11.612 16.39 16.39 0 004.831 11.613 16.516 16.516 0 0011.65 4.804c4.368 0 8.559-1.727 11.65-4.804a16.385 16.385 0 004.832-11.613c0-4.357-1.74-8.534-4.832-11.612a16.516 16.516 0 00-11.65-4.804z" fill="#fff" stroke="#fff" stroke-width="5"/></svg>