<svg width="169" height="280" viewBox="0 0 169 280" fill="none" xmlns="http://www.w3.org/2000/svg">
<path d="M125.311 109.667H44.2459L5.31523 45.0834H164.242L125.311 109.667ZM166.168 26.1668H3.38916V3.33344H166.168V26.1668ZM45.3338 276.667V128.583H124.223V276.667H45.3338ZM84.7784 151.417C80.411 151.417 76.2201 153.144 73.1283 156.221C70.0362 159.299 68.2969 163.476 68.2969 167.833C68.2969 172.191 70.0362 176.368 73.1283 179.446C76.2201 182.523 80.411 184.25 84.7784 184.25C89.1459 184.25 93.3367 182.523 96.4285 179.446C99.5207 176.368 101.26 172.191 101.26 167.833C101.26 163.476 99.5207 159.299 96.4285 156.221C93.3367 153.144 89.1459 151.417 84.7784 151.417Z" fill="white" stroke="white" stroke-width="5"/>
</svg>
