<svg width="241" height="270" viewBox="0 0 241 270" fill="none" xmlns="http://www.w3.org/2000/svg">
<path d="M104.581 2.97705L102.012 50.6994L101.871 53.3337H104.509H137.029H139.667L139.525 50.6994L136.957 2.97705H189.874C195.141 2.97705 199.746 6.82187 200.955 14.2981C200.955 14.3 200.956 14.302 200.956 14.304L237.535 249.261C238.119 253.653 236.929 258.068 234.717 261.356C232.482 264.678 229.443 266.546 226.459 266.546H150.251L146.301 184.997L146.186 182.618H143.804H97.7338H95.3519L95.2367 184.997L91.2869 266.546H13.7236C10.7395 266.546 7.70071 264.678 5.46598 261.356C3.25403 258.068 2.06366 253.653 2.64788 249.261L39.2199 14.3474C39.8155 11.4491 41.293 8.54089 43.3211 6.38744C45.3581 4.22447 47.7887 2.97705 50.3087 2.97705H104.581ZM96.5908 151.446L96.4858 154.047H99.0888H139.739H142.342L142.237 151.446L139.527 84.304L139.43 81.9048H137.029H101.799H99.3977L99.3008 84.304L96.5908 151.446Z" fill="white" stroke="white" stroke-width="5"/>
</svg>
