<svg width="188" height="230" fill="none" xmlns="http://www.w3.org/2000/svg"><path d="M94 0L0 41.818v62.727C0 162.568 40.107 216.827 94 230c53.893-13.173 94-67.432 94-125.455V41.818L94 0zm0 41.818c8.31 0 16.28 3.305 22.156 9.186a31.38 31.38 0 019.177 22.178 31.38 31.38 0 01-9.177 22.177A31.318 31.318 0 0194 104.545c-8.31 0-16.28-3.304-22.156-9.186a31.379 31.379 0 01-9.177-22.177 31.379 31.379 0 019.177-22.178A31.318 31.318 0 0194 41.818zm53.58 125.455c-12.638 19.341-31.542 33.872-53.58 40.982-22.038-7.11-40.942-21.641-53.58-40.982-3.551-5.228-6.58-10.455-9.087-15.996 0-17.25 28.305-31.363 62.667-31.363s62.667 13.8 62.667 31.363c-2.507 5.541-5.536 10.768-9.087 15.996z" fill="#fff"/></svg>