<svg width="188" height="230" viewBox="0 0 188 230" fill="none" xmlns="http://www.w3.org/2000/svg">
<path d="M94 0L0 41.8182V104.545C0 162.568 40.1067 216.827 94 230C147.893 216.827 188 162.568 188 104.545V41.8182L94 0ZM94 41.8182C102.31 41.8182 110.28 45.1226 116.156 51.0044C122.032 56.8862 125.333 64.8637 125.333 73.1818C125.333 81.5 122.032 89.4774 116.156 95.3593C110.28 101.241 102.31 104.545 94 104.545C85.6899 104.545 77.7201 101.241 71.844 95.3593C65.9678 89.4774 62.6667 81.5 62.6667 73.1818C62.6667 64.8637 65.9678 56.8862 71.844 51.0044C77.7201 45.1226 85.6899 41.8182 94 41.8182ZM147.58 167.273C134.942 186.614 116.038 201.145 94 208.255C71.9622 201.145 53.0578 186.614 40.42 167.273C36.8689 162.045 33.84 156.818 31.3333 151.277C31.3333 134.027 59.6378 119.914 94 119.914C128.362 119.914 156.667 133.714 156.667 151.277C154.16 156.818 151.131 162.045 147.58 167.273Z" fill="white"/>
</svg>
