<svg width="318" height="221" fill="none" xmlns="http://www.w3.org/2000/svg"><path d="M28.91.578h202.363v55.084h43.363L318 110.748v68.856h-28.909c0 10.957-4.569 21.466-12.701 29.214-8.132 7.747-19.162 12.1-30.663 12.1-11.5 0-22.53-4.353-30.662-12.1-8.133-7.748-12.701-18.257-12.701-29.214h-86.728c0 10.957-4.568 21.466-12.701 29.214-8.132 7.747-19.162 12.1-30.662 12.1-11.501 0-22.53-4.353-30.663-12.1-8.132-7.748-12.7-18.257-12.7-29.214H0V28.12C0 12.834 13.01.578 28.91.578zm202.363 75.741v34.428h64.612l-28.476-34.428h-36.136zm-159 82.628c-5.75 0-11.265 2.176-15.332 6.05-4.066 3.874-6.35 9.128-6.35 14.606 0 5.479 2.284 10.733 6.35 14.607 4.066 3.874 9.581 6.05 15.332 6.05 5.75 0 11.265-2.176 15.331-6.05 4.066-3.874 6.35-9.128 6.35-14.607 0-5.478-2.284-10.732-6.35-14.606-4.066-3.874-9.58-6.05-15.331-6.05zm173.454 0c-5.75 0-11.265 2.176-15.331 6.05-4.066 3.874-6.351 9.128-6.351 14.606 0 5.479 2.285 10.733 6.351 14.607 4.066 3.874 9.581 6.05 15.331 6.05 5.751 0 11.265-2.176 15.332-6.05 4.066-3.874 6.35-9.128 6.35-14.607 0-5.478-2.284-10.732-6.35-14.606-4.067-3.874-9.581-6.05-15.332-6.05zM101.182 138.29l86.727-82.627-20.381-19.556-66.346 63.21-30.21-28.782L50.59 90.091l50.591 48.199z" fill="#fff"/></svg>