<svg width="318" height="221" viewBox="0 0 318 221" fill="none" xmlns="http://www.w3.org/2000/svg">
<path d="M28.9091 0.577637H231.273V55.6625H274.636L318 110.747V179.603H289.091C289.091 190.56 284.522 201.069 276.39 208.817C268.258 216.564 257.228 220.917 245.727 220.917C234.227 220.917 223.197 216.564 215.065 208.817C206.932 201.069 202.364 190.56 202.364 179.603H115.636C115.636 190.56 111.068 201.069 102.935 208.817C94.8032 216.564 83.7735 220.917 72.2727 220.917C60.772 220.917 49.7423 216.564 41.61 208.817C33.4777 201.069 28.9091 190.56 28.9091 179.603H0V28.1201C0 12.834 13.0091 0.577637 28.9091 0.577637ZM231.273 76.3193V110.747H295.885L267.409 76.3193H231.273ZM72.2727 158.947C66.5223 158.947 61.0075 161.123 56.9414 164.997C52.8752 168.871 50.5909 174.125 50.5909 179.603C50.5909 185.082 52.8752 190.336 56.9414 194.21C61.0075 198.084 66.5223 200.26 72.2727 200.26C78.0231 200.26 83.538 198.084 87.6041 194.21C91.6702 190.336 93.9545 185.082 93.9545 179.603C93.9545 174.125 91.6702 168.871 87.6041 164.997C83.538 161.123 78.0231 158.947 72.2727 158.947ZM245.727 158.947C239.977 158.947 234.462 161.123 230.396 164.997C226.33 168.871 224.045 174.125 224.045 179.603C224.045 185.082 226.33 190.336 230.396 194.21C234.462 198.084 239.977 200.26 245.727 200.26C251.478 200.26 256.992 198.084 261.059 194.21C265.125 190.336 267.409 185.082 267.409 179.603C267.409 174.125 265.125 168.871 261.059 164.997C256.992 161.123 251.478 158.947 245.727 158.947ZM101.182 138.29L187.909 55.6625L167.528 36.1074L101.182 99.3172L70.9718 70.5354L50.5909 90.0905L101.182 138.29Z" fill="white"/>
</svg>
