<svg width="262" height="270" viewBox="0 0 262 270" fill="none" xmlns="http://www.w3.org/2000/svg">
<path d="M143.262 0.185547V0.454964V27.3967C200.698 34.671 241.387 88.4199 234.322 147.557C228.304 196.591 190.886 235.522 143.262 241.314V268.256C215.221 260.847 267.554 195.109 260.358 121.019C254.471 57.0327 205.147 6.51687 143.262 0.185547ZM117.096 0.589673C91.5833 3.14914 67.2483 13.2523 47.3617 30.2256L66.0708 50.1625C80.7242 38.0387 98.3866 30.2256 117.096 27.5315V0.589673ZM28.9142 49.2196C12.4292 69.6953 2.61667 94.6165 0 121.019H26.1667C28.6525 101.891 35.9792 83.7051 47.6233 68.483L28.9142 49.2196ZM0.130833 147.961C2.7475 174.364 12.8217 199.285 29.045 219.761L47.6233 200.498C36.11 185.276 28.6525 167.09 26.2975 147.961H0.130833ZM66.0708 220.3L47.3617 238.755C67.1175 255.728 91.4525 266.37 117.096 269.199V242.257C98.5175 239.833 80.855 232.154 66.0708 220.3ZM193.241 177.462L139.468 122.097C144.832 108.087 141.823 91.6529 130.572 80.2026C118.797 67.9441 101.134 65.5194 86.8733 72.2548L112.255 98.3883L94.5925 116.709L68.5566 90.4405C61.4916 105.124 64.7625 123.309 76.2758 135.568C87.5275 147.153 103.489 150.117 117.096 144.728L170.868 199.959C173.223 202.518 176.756 202.518 179.111 199.959L192.717 186.084C195.596 183.659 195.596 179.348 193.241 177.462Z" fill="white"/>
</svg>
