<?xml version="1.0" standalone="no"?>
<!DOCTYPE svg PUBLIC "-//W3C//DTD SVG 20010904//EN"
 "http://www.w3.org/TR/2001/REC-SVG-20010904/DTD/svg10.dtd">
<svg version="1.0" xmlns="http://www.w3.org/2000/svg"
 width="880.000000pt" height="880.000000pt" viewBox="0 0 880.000000 880.000000"
 preserveAspectRatio="xMidYMid meet">
<metadata>
Created by potrace 1.14, written by Peter Selinger 2001-2017
</metadata>
<g transform="translate(0.000000,880.000000) scale(0.100000,-0.100000)"
fill="#000000" stroke="none">
<path d="M1223 8659 c-11 -4 -24 -16 -28 -26 -8 -21 -17 -212 -15 -348 1 -11
1 -155 1 -320 -1 -632 12 -1346 24 -1364 3 -5 1 -12 -5 -16 -6 -4 -8 -11 -4
-17 3 -5 8 -34 10 -65 6 -86 30 -187 61 -256 15 -34 31 -63 35 -65 4 -2 8 -12
8 -23 0 -10 5 -19 10 -19 6 0 10 -7 10 -15 0 -8 5 -15 10 -15 6 0 10 -5 10
-11 0 -11 25 -44 95 -128 35 -42 119 -124 174 -171 29 -25 59 -49 65 -55 7 -5
19 -14 27 -20 9 -5 34 -22 55 -36 21 -14 42 -26 45 -25 4 1 15 -6 25 -15 23
-19 140 -66 185 -74 18 -3 36 -8 40 -11 22 -13 218 -31 319 -29 157 4 252 19
395 66 267 86 549 345 673 619 40 87 44 99 57 145 4 17 10 34 13 39 3 5 6 23
8 40 2 17 6 42 9 56 3 14 8 68 11 120 3 52 7 107 9 123 4 31 -10 37 -85 35
-25 0 -391 3 -815 7 -423 3 -886 7 -1028 8 -221 1 -258 4 -261 17 -2 8 -4 287
-4 620 0 333 -3 700 -6 815 -10 318 -15 359 -56 395 -32 28 -44 31 -77 19z"/>
<path d="M3360 8642 c-127 -33 -239 -124 -291 -237 -34 -72 -42 -110 -42 -195
-1 -94 13 -151 54 -230 29 -55 122 -149 174 -175 22 -11 42 -23 45 -26 3 -3
14 -9 25 -14 114 -47 242 -34 383 40 49 26 132 98 132 115 0 6 3 10 8 10 10 0
48 84 65 145 21 78 10 275 -16 275 -6 0 -8 3 -4 6 11 11 -40 97 -92 157 -28
32 -51 55 -51 51 0 -4 -8 0 -17 8 -40 33 -92 57 -163 75 -51 12 -152 10 -210
-5z"/>
<path d="M7818 8160 c-18 -9 -43 -35 -56 -56 -19 -33 -22 -49 -19 -101 5 -67
22 -103 61 -128 48 -32 128 -36 187 -10 102 46 109 226 12 291 -42 28 -137 30
-185 4z"/>
<path d="M2124 7989 c-3 -5 -9 -7 -13 -5 -14 9 -70 -33 -87 -65 -34 -67 -24
-168 22 -214 36 -36 132 -57 191 -42 141 36 173 229 50 301 -45 27 -152 43
-163 25z"/>
<path d="M5466 7632 c-66 -8 -113 -71 -122 -163 -9 -96 49 -164 149 -175 81
-9 137 20 165 84 57 132 -48 271 -192 254z"/>
<path d="M7189 7536 c-176 -47 -299 -218 -285 -393 14 -174 104 -276 273 -310
84 -16 222 -1 260 30 39 31 107 107 134 146 38 58 53 111 52 192 -1 207 -236
388 -434 335z"/>
<path d="M478 7456 c-99 -35 -154 -169 -110 -269 40 -90 148 -117 241 -60 44
27 95 96 87 118 -2 6 0 17 5 26 12 23 -32 109 -72 143 -32 27 -88 57 -106 56
-4 -1 -24 -7 -45 -14z"/>
<path d="M4166 6705 c-14 -8 -26 -12 -26 -9 0 13 -65 -57 -86 -92 -41 -70 -27
-136 43 -197 49 -43 72 -54 118 -54 44 0 64 8 101 39 65 57 95 144 69 203 -40
90 -150 146 -219 110z"/>
<path d="M8033 6520 c-13 -5 -23 -6 -23 -3 0 12 -52 -42 -66 -68 -30 -60 -18
-175 24 -225 47 -55 153 -71 211 -32 62 42 76 70 76 157 0 65 -4 83 -24 112
-13 20 -36 42 -50 50 -30 17 -116 23 -148 9z"/>
<path d="M5455 6063 c-95 -21 -96 -21 -175 -49 -193 -68 -359 -186 -387 -276
-10 -35 -9 -39 22 -76 20 -23 64 -54 111 -77 89 -45 201 -130 259 -199 47 -55
96 -136 89 -148 -9 -14 17 -49 44 -59 104 -41 343 -26 514 31 71 24 194 84
215 106 8 8 18 14 22 14 18 0 104 99 128 148 39 79 39 186 0 264 -73 149 -245
249 -545 318 -75 17 -226 19 -297 3z"/>
<path d="M499 6055 c-174 -62 -274 -254 -234 -449 9 -42 29 -76 72 -121 165
-175 320 -196 477 -65 116 96 174 197 171 296 -3 137 -148 301 -300 341 -43
11 -152 10 -186 -2z"/>
<path d="M6575 5513 c-30 -8 -52 -31 -87 -92 -17 -31 -47 -76 -67 -101 -37
-47 -122 -130 -132 -130 -3 0 -19 -11 -35 -25 -16 -14 -80 -51 -142 -82 -125
-62 -147 -82 -128 -116 35 -69 171 -206 212 -215 8 -2 14 -7 14 -12 0 -4 14
-13 30 -20 17 -7 30 -16 30 -20 0 -4 37 -20 83 -35 322 -108 754 -40 950 149
82 79 121 150 130 236 17 167 -139 332 -388 410 -72 22 -85 25 -145 36 -19 4
-44 8 -55 11 -32 6 -248 11 -270 6z"/>
<path d="M4272 5498 c-66 -10 -191 -58 -261 -100 -29 -18 -62 -38 -72 -44 -35
-21 -117 -109 -142 -155 -14 -25 -28 -65 -32 -90 -4 -24 -7 -46 -8 -49 -4 -16
18 -90 38 -129 21 -43 115 -151 130 -151 3 0 21 -11 38 -24 68 -51 217 -113
317 -132 56 -10 290 -13 345 -4 78 13 97 17 145 31 25 7 48 13 53 15 4 1 8 2
10 4 1 1 9 3 17 5 30 5 115 48 170 83 62 41 134 113 152 155 7 15 16 27 20 27
5 0 7 3 6 8 -1 4 4 27 11 52 18 61 8 155 -21 207 -23 41 -103 133 -115 133 -3
0 -14 6 -22 14 -57 51 -233 117 -365 137 -89 14 -343 18 -414 7z"/>
<path d="M2338 4955 c-2 -2 -25 -6 -53 -10 -62 -8 -126 -22 -157 -34 -21 -9
-55 -22 -68 -26 -98 -34 -257 -163 -279 -226 -24 -68 18 -73 679 -73 336 0
640 6 698 14 9 1 -1 45 -15 68 -40 62 -189 182 -227 182 -9 0 -16 4 -16 9 0
11 -168 66 -250 81 -56 10 -304 22 -312 15z"/>
<path d="M1297 4394 c-1 -1 -49 -4 -107 -7 -101 -6 -174 -22 -166 -35 5 -9 18
-82 19 -109 1 -13 4 -23 7 -23 3 0 6 -8 6 -17 1 -26 15 -106 20 -114 2 -3 6
-21 8 -40 3 -19 12 -70 21 -114 9 -44 19 -91 21 -105 3 -14 7 -32 9 -40 2 -8
7 -31 10 -50 3 -19 8 -42 11 -51 2 -9 7 -33 9 -54 3 -20 7 -40 9 -44 3 -3 7
-26 11 -51 4 -25 8 -48 11 -51 2 -4 6 -24 10 -44 7 -45 8 -52 28 -140 16 -74
24 -111 32 -160 3 -16 9 -43 14 -60 5 -16 11 -43 14 -60 2 -16 12 -66 21 -110
9 -44 19 -88 21 -98 10 -55 10 -55 89 -54 41 1 75 0 75 -3 0 -5 148 -8 635
-13 l160 -2 0 85 c-1 47 -4 114 -8 150 -12 106 -17 153 -23 190 -3 19 -7 55
-10 80 -6 61 -13 120 -18 150 -2 14 -7 52 -11 85 -4 32 -9 68 -11 80 -3 18 -9
60 -19 160 -2 17 -8 64 -14 105 -5 41 -13 95 -16 120 -3 25 -7 54 -9 65 -2 11
-7 48 -11 82 -4 35 -9 75 -11 90 -6 41 -16 135 -17 160 -1 27 -18 32 -135 39
-74 5 -680 12 -685 8z"/>
<path d="M2305 4330 c7 -75 10 -100 19 -155 5 -40 16 -124 21 -180 2 -16 6
-50 9 -75 4 -25 9 -63 11 -85 3 -22 8 -51 10 -65 2 -14 7 -54 11 -90 3 -36 8
-74 10 -85 2 -11 7 -40 10 -65 3 -25 7 -56 9 -70 2 -14 7 -52 11 -85 3 -33 8
-69 10 -80 3 -11 7 -42 9 -70 3 -27 7 -59 10 -70 2 -11 7 -47 10 -80 4 -33 8
-71 11 -85 3 -14 7 -45 10 -70 2 -25 8 -70 12 -100 l7 -55 90 -2 c151 -5 490
-13 688 -17 l187 -4 1 27 c0 14 0 51 -2 81 -1 30 -3 85 -3 122 -1 38 -3 68 -6
68 -3 0 -5 39 -6 88 -1 121 -22 562 -39 827 -6 91 -12 167 -22 258 -3 34 -6
77 -7 95 0 17 -3 32 -6 32 -3 0 -6 12 -5 27 l0 28 -538 0 -539 0 7 -65z"/>
<path d="M3569 4385 c-3 -24 -1 -64 4 -115 13 -117 21 -228 31 -410 3 -47 7
-123 10 -170 10 -163 20 -370 31 -620 4 -85 8 -175 10 -200 2 -25 4 -63 4 -85
l1 -40 740 0 740 0 1 30 c0 16 2 66 4 110 3 44 7 134 10 200 9 200 23 484 31
603 2 46 7 125 10 175 2 51 6 115 8 142 7 89 17 209 21 240 3 31 7 122 6 140
-1 14 -1661 14 -1662 0z"/>
<path d="M5438 4392 c-12 -2 -18 -13 -19 -30 -1 -15 -2 -38 -4 -52 -1 -14 -5
-59 -9 -100 -4 -41 -9 -93 -11 -115 -3 -22 -7 -85 -10 -140 -3 -55 -8 -134
-10 -175 -8 -139 -15 -284 -20 -395 -3 -60 -7 -153 -10 -205 -2 -53 -7 -163
-10 -245 -4 -83 -7 -152 -7 -155 -2 -36 -16 -35 487 -35 316 0 485 3 486 10 1
28 19 179 24 205 2 14 7 50 10 81 3 31 8 67 10 80 3 13 7 47 10 74 2 28 6 61
9 75 4 22 11 78 21 170 1 14 5 44 9 68 3 23 8 61 11 85 3 23 7 58 10 77 2 19
7 59 11 89 3 30 7 61 9 70 1 9 6 48 10 86 4 39 9 79 11 90 2 11 6 40 10 65 3
25 7 61 9 80 26 206 27 218 7 224 -42 13 -215 19 -607 20 -231 1 -428 0 -437
-2z"/>
<path d="M6997 4394 c-1 -1 -60 -4 -132 -7 -71 -4 -139 -8 -150 -11 -11 -2
-23 -5 -26 -5 -3 -1 -5 -13 -4 -28 1 -16 -2 -44 -6 -63 -4 -19 -10 -66 -14
-103 -3 -37 -8 -78 -11 -90 -2 -12 -7 -49 -10 -82 -3 -33 -11 -100 -18 -150
-8 -49 -17 -117 -20 -150 -4 -33 -11 -89 -16 -125 -5 -36 -11 -87 -15 -115 -3
-27 -8 -66 -10 -85 -3 -19 -7 -55 -10 -80 -3 -25 -7 -61 -10 -80 -27 -204 -38
-311 -39 -384 l-1 -59 40 -14 c32 -11 105 -13 385 -8 190 3 352 5 360 5 8 0
33 1 55 1 22 1 54 1 72 1 33 -1 39 6 49 65 3 15 12 59 20 98 9 38 17 79 20 90
5 28 33 166 38 190 2 11 12 52 21 90 9 39 18 85 21 104 3 18 8 42 10 52 6 29
21 99 30 139 2 14 6 36 9 50 2 14 8 45 14 70 5 25 12 59 15 75 13 69 18 92 27
133 5 23 12 59 15 80 3 20 7 39 9 42 2 3 6 25 10 50 4 25 8 47 10 50 2 3 6 23
9 45 4 22 12 68 20 103 17 82 12 86 -126 98 -69 6 -635 13 -641 8z"/>
<path d="M1024 2541 c3 -9 14 -61 26 -116 28 -128 37 -170 40 -170 1 0 3 -7 5
-15 2 -8 11 -40 19 -70 9 -30 19 -66 22 -80 3 -14 11 -36 17 -50 l12 -25 3233
-1 c2248 0 3235 3 3241 10 9 13 25 64 56 181 9 33 19 67 22 75 3 8 7 22 8 30
4 19 41 187 50 221 l6 25 -3380 0 c-3067 0 -3381 -1 -3377 -15z"/>
<path d="M1720 1840 c0 -3 -24 -5 -52 -4 -29 0 -68 -3 -87 -8 -31 -9 -33 -11
-26 -41 3 -18 8 -43 11 -57 2 -14 10 -50 16 -80 6 -30 12 -59 13 -65 0 -5 4
-23 8 -40 3 -16 9 -41 11 -55 3 -14 8 -36 11 -50 3 -14 7 -36 10 -50 3 -14 7
-36 10 -50 2 -14 10 -50 16 -80 5 -30 14 -68 19 -85 5 -16 12 -48 15 -70 3
-22 7 -47 10 -55 2 -8 6 -26 9 -40 3 -14 7 -34 9 -45 22 -95 44 -204 51 -249
2 -13 7 -34 11 -46 4 -12 8 -32 10 -43 1 -12 8 -44 15 -72 6 -27 14 -61 16
-75 8 -41 12 -62 24 -120 7 -30 13 -66 15 -80 2 -14 4 -26 5 -27 4 -4 7 -21 9
-40 3 -39 17 -45 106 -49 48 -1 90 -5 92 -8 3 -3 14 -1 24 4 10 6 20 7 23 2 5
-9 78 -8 94 2 7 4 12 4 12 -1 0 -10 171 -9 188 1 7 4 12 4 12 -1 0 -4 46 -8
102 -7 l103 0 -1 90 c0 49 -3 116 -7 149 -4 33 -9 87 -13 120 -3 33 -8 71 -10
85 -6 33 -12 81 -19 155 -3 33 -8 67 -10 76 -3 9 -7 40 -10 70 -2 30 -6 63 -9
74 -2 11 -7 49 -11 85 -3 36 -8 72 -11 81 -2 9 -6 34 -9 55 -4 34 -7 60 -19
139 -2 11 -6 45 -10 75 -4 30 -10 69 -12 85 -6 36 -11 64 -19 125 -10 66 -34
192 -38 196 -6 6 -167 26 -194 25 -7 -1 -19 -1 -25 -1 -358 4 -488 4 -488 0z"/>
<path d="M2809 1846 c-3 -3 -32 -8 -65 -10 -96 -5 -104 -13 -99 -94 3 -37 7
-85 10 -107 3 -22 8 -56 10 -75 2 -19 7 -60 11 -90 4 -30 8 -67 8 -82 1 -16 5
-28 9 -28 5 0 5 -5 2 -10 -4 -6 -1 -45 5 -88 6 -42 13 -93 16 -112 3 -19 7
-55 10 -80 2 -25 6 -54 8 -66 2 -12 7 -45 11 -74 4 -29 8 -60 10 -69 1 -9 6
-45 10 -81 4 -36 9 -74 11 -85 3 -11 7 -38 9 -60 3 -22 7 -56 10 -75 6 -38 23
-164 30 -220 2 -19 7 -57 11 -85 4 -27 8 -53 8 -57 2 -17 22 -22 89 -24 170
-6 485 -15 520 -14 53 0 56 0 112 -3 l50 -2 -1 75 c-2 91 -13 365 -15 365 0 0
-2 34 -4 75 -3 96 -15 309 -20 380 -3 49 -12 187 -20 310 -4 63 -14 194 -20
260 -3 30 -7 85 -10 122 -2 38 -6 72 -9 77 -6 8 -42 10 -366 16 -91 2 -167 4
-170 5 -10 4 -143 -1 -151 -5 -4 -3 -9 0 -11 6 -2 5 -6 8 -9 5z"/>
<path d="M3716 1840 c-2 -3 -1 -18 0 -35 1 -16 5 -77 8 -135 3 -58 8 -139 11
-180 2 -41 7 -129 10 -195 4 -66 8 -149 11 -185 2 -36 6 -110 9 -165 3 -55 7
-129 10 -165 2 -36 7 -110 9 -165 3 -55 8 -136 12 -180 3 -44 7 -119 9 -168 1
-48 8 -93 14 -100 11 -14 58 -16 79 -3 7 4 12 4 12 -1 0 -10 841 -10 858 1 7
4 12 4 12 -1 0 -8 196 -10 204 -2 3 2 7 54 11 114 6 118 11 197 20 340 4 50 8
124 10 165 4 71 9 146 20 340 3 47 7 130 10 185 8 153 16 283 21 360 2 39 5
95 6 125 l3 55 -684 0 c-375 0 -684 -2 -685 -5z"/>
<path d="M5476 1842 c-2 -1 -30 -4 -64 -6 -93 -6 -132 -22 -133 -54 -1 -15 -3
-36 -4 -47 -6 -47 -23 -265 -30 -375 -2 -41 -4 -75 -5 -75 0 0 -3 -36 -5 -80
-2 -44 -7 -111 -9 -150 -7 -92 -16 -248 -22 -360 -13 -273 -16 -349 -15 -465
l1 -75 103 1 c56 0 108 4 115 8 7 4 12 4 12 -1 0 -10 181 -10 198 1 7 4 12 4
12 -1 0 -10 522 -9 538 1 7 4 12 4 12 -1 0 -4 29 -8 65 -8 36 0 65 4 65 8 0 5
6 5 13 0 15 -10 36 -10 63 -2 11 4 27 4 34 -1 7 -4 26 -4 41 0 18 5 29 5 29
-1 0 -6 4 -7 10 -4 8 5 61 7 130 5 45 -2 273 11 280 15 4 3 12 29 16 58 4 28
8 54 9 57 4 17 26 119 30 140 3 14 9 48 15 75 6 28 12 59 14 70 3 11 9 40 15
65 5 25 12 59 15 75 10 51 15 78 30 150 9 39 18 81 21 95 2 14 12 57 21 95 8
39 17 85 19 103 2 18 6 36 9 40 3 5 8 24 11 43 3 19 8 41 10 49 2 8 7 31 11
50 3 19 7 40 8 45 5 19 26 120 31 148 3 15 8 39 11 55 30 147 43 226 39 230
-17 17 -168 20 -767 13 l-106 -1 -7 -42 c-4 -24 -9 -56 -11 -72 -3 -16 -7 -48
-9 -70 -2 -23 -7 -57 -10 -76 -5 -33 -10 -75 -20 -160 -10 -90 -53 -352 -71
-430 -3 -14 -6 -31 -8 -39 -9 -46 -116 -30 -136 20 -13 30 -6 166 16 304 2 17
7 59 9 94 2 35 7 80 10 100 4 33 9 81 21 211 2 25 6 73 10 108 4 48 2 62 -8
63 -27 3 -680 4 -682 1z"/>
<path d="M8090 1451 c-55 -17 -98 -46 -152 -104 -32 -34 -58 -64 -58 -68 0 -4
-6 -14 -13 -21 -31 -31 -55 -115 -51 -176 12 -202 198 -371 394 -358 121 8
311 167 325 273 2 16 4 28 5 28 6 0 5 70 -2 118 -16 115 -103 230 -215 283
-58 28 -181 41 -233 25z"/>
<path d="M820 1156 c-32 -13 -69 -52 -81 -83 -17 -45 -13 -129 8 -170 39 -75
139 -99 222 -54 65 36 95 93 89 168 -8 92 -70 151 -160 150 -29 0 -64 -5 -78
-11z"/>
</g>
</svg>
