<?xml version="1.0" standalone="no"?>
<!DOCTYPE svg PUBLIC "-//W3C//DTD SVG 20010904//EN"
 "http://www.w3.org/TR/2001/REC-SVG-20010904/DTD/svg10.dtd">
<svg version="1.0" xmlns="http://www.w3.org/2000/svg"
 width="800.000000pt" height="800.000000pt" viewBox="0 0 800.000000 800.000000"
 preserveAspectRatio="xMidYMid meet">
<metadata>
Created by potrace 1.14, written by Peter Selinger 2001-2017
</metadata>
<g transform="translate(0.000000,800.000000) scale(0.100000,-0.100000)"
fill="#000000" stroke="none">
<path d="M756 7992 c-4 -3 -15 -7 -24 -7 -9 -1 -26 -2 -38 -3 -33 -3 -110 -77
-129 -124 -55 -138 20 -282 167 -318 l63 -16 1 -272 c1 -149 4 -278 7 -287 4
-8 3 -15 -1 -15 -4 0 -7 -29 -7 -65 0 -36 2 -65 5 -65 3 0 5 -16 5 -35 0 -19
-3 -35 -6 -35 -3 0 -4 -12 -2 -27 8 -56 8 -123 0 -123 -5 0 -5 -5 -1 -12 4 -6
8 -102 10 -212 1 -111 2 -205 3 -209 1 -9 64 32 69 45 2 4 8 8 12 8 11 0 194
122 198 133 2 4 7 7 11 7 6 0 104 64 325 212 10 7 29 21 41 31 13 9 28 17 33
17 6 0 12 3 14 8 5 10 66 52 77 52 5 0 11 3 13 8 2 4 50 38 108 76 58 39 107
73 110 76 3 4 10 9 15 11 6 2 57 36 114 74 57 39 112 75 122 81 10 6 27 18 37
27 10 10 21 17 25 17 3 0 51 32 107 70 56 39 105 70 109 70 4 0 16 8 27 19 11
10 31 24 44 31 13 7 29 17 34 21 6 5 23 18 37 28 24 19 25 23 24 126 0 58 3
109 8 112 4 3 23 7 40 10 74 11 156 84 183 162 18 53 9 125 -22 179 -36 62
-83 98 -143 109 -40 8 -1818 13 -1825 5z"/>
<path d="M6334 7991 c-3 -3 -9 -6 -12 -6 -4 -1 -22 -9 -40 -18 -65 -35 -140
-172 -171 -312 -19 -87 -19 -124 2 -235 5 -28 55 -124 90 -173 l34 -48 -19
-41 c-49 -101 -55 -184 -19 -260 25 -55 47 -78 96 -104 92 -48 217 -18 289 70
67 81 118 226 118 335 0 109 -25 186 -94 286 l-49 71 33 69 c36 77 47 172 25
224 -24 57 -100 126 -150 137 -34 8 -127 11 -133 5z"/>
<path d="M3850 7617 c-18 -5 -58 -25 -89 -45 -31 -20 -61 -39 -66 -42 -21 -10
-280 -185 -293 -197 -7 -7 -19 -13 -27 -13 -7 0 -15 -3 -17 -7 -4 -11 -97 -73
-107 -73 -5 0 -11 -4 -13 -8 -4 -10 -94 -72 -104 -72 -4 0 -14 -7 -23 -16 -9
-8 -90 -64 -181 -124 -91 -60 -171 -114 -178 -120 -7 -6 -23 -17 -35 -24 -32
-17 -140 -89 -155 -103 -7 -7 -17 -13 -21 -13 -4 0 -21 -11 -37 -25 -16 -14
-37 -28 -46 -31 -10 -3 -18 -10 -18 -16 0 -6 -3 -8 -6 -5 -4 4 -23 -6 -43 -21
-20 -16 -110 -77 -201 -138 -91 -60 -166 -112 -168 -116 -2 -5 -10 -8 -18 -8
-8 0 -14 -4 -14 -10 0 -5 -5 -10 -10 -10 -10 0 -70 -38 -80 -51 -3 -4 -19 -15
-37 -25 -18 -11 -171 -113 -340 -227 -938 -634 -1169 -796 -1198 -841 -24 -36
-28 -88 -27 -361 0 -328 2 -340 62 -408 38 -44 72 -57 162 -64 117 -8 6259
-10 6264 -1 3 4 15 4 27 0 12 -4 137 -7 278 -6 246 1 258 2 292 23 42 26 95
83 108 117 13 36 20 155 21 379 1 247 -8 299 -66 359 -42 43 -127 107 -158
119 -10 3 -18 11 -18 17 0 5 -4 10 -10 10 -5 0 -45 25 -87 55 -43 31 -89 61
-103 68 -14 6 -29 17 -35 23 -5 5 -57 42 -115 80 -58 38 -107 71 -110 74 -3 3
-115 79 -250 170 -135 90 -287 192 -338 227 -51 35 -96 63 -98 63 -3 0 -12 6
-19 13 -33 29 -45 37 -55 37 -5 0 -10 5 -10 10 0 6 -5 10 -10 10 -6 0 -38 19
-71 43 -33 23 -68 46 -77 52 -10 5 -30 19 -47 31 -106 74 -348 234 -355 234
-4 0 -10 3 -12 8 -5 11 -185 132 -196 132 -6 0 -12 4 -14 9 -4 11 -1026 691
-1039 691 -5 0 -9 4 -9 9 0 5 -13 14 -30 21 -16 7 -30 16 -30 20 0 3 -12 13
-27 21 -15 8 -53 30 -83 50 -76 50 -128 62 -190 46z m205 -1022 c123 -24 251
-83 374 -172 57 -41 181 -179 181 -200 0 -7 4 -13 8 -13 11 0 69 -119 97 -199
61 -172 50 -421 -26 -593 -109 -249 -326 -436 -577 -497 -89 -21 -100 -22
-207 -24 -134 -1 -239 21 -364 79 -120 56 -245 157 -318 257 -21 29 -40 54
-43 57 -11 9 -89 174 -94 200 -3 14 -10 44 -16 68 -36 149 -22 385 30 481 6
12 8 21 6 21 -8 0 43 98 81 158 95 148 279 291 438 342 22 7 45 16 51 21 6 5
13 7 15 5 2 -2 31 2 64 9 59 12 241 12 300 0z"/>
<path d="M3918 6145 c-2 -2 -23 -5 -48 -6 -59 -4 -127 -29 -182 -67 -199 -137
-229 -411 -65 -589 40 -44 108 -90 144 -98 10 -2 32 -8 48 -12 17 -5 53 -9 80
-8 158 3 285 77 350 205 31 61 37 92 37 180 0 82 -6 112 -40 179 -27 55 -116
151 -139 151 -7 0 -13 5 -13 10 0 6 -5 10 -11 10 -6 0 -25 6 -42 14 -34 15
-114 36 -119 31z"/>
<path d="M7341 7348 c-88 -24 -151 -99 -207 -250 -20 -55 -28 -95 -30 -165 -5
-128 17 -197 100 -313 21 -29 30 -51 25 -60 -72 -142 -69 -269 11 -351 67 -70
180 -84 266 -34 63 36 87 64 130 148 57 112 82 251 60 344 -4 18 -7 35 -7 38
1 16 -46 108 -84 160 l-44 62 18 29 c65 107 65 232 -1 315 -49 64 -156 98
-237 77z"/>
<path d="M675 3920 c-2 -3 -4 -99 -4 -213 l0 -207 3235 0 3234 0 1 188 c1 187
0 224 -7 231 -5 6 -6456 7 -6459 1z"/>
<path d="M733 3032 l-62 -3 1 -199 c0 -141 3 -200 11 -202 7 -2 1461 -4 3232
-4 l3220 1 2 75 c1 41 2 80 3 85 3 18 -1 240 -4 243 -4 4 -6322 8 -6403 4z"/>
<path d="M680 2150 c-5 -3 -9 -94 -9 -203 l0 -197 500 0 499 0 1 23 c3 99 -1
370 -6 375 -8 8 -972 10 -985 2z"/>
<path d="M2144 2151 c-2 -2 -4 -487 -4 -1078 l0 -1073 515 0 515 0 1 38 c0 51
0 2038 0 2082 l-1 36 -511 0 c-280 0 -512 -2 -515 -5z"/>
<path d="M3641 1953 l0 -203 265 2 266 3 0 73 c-1 39 -1 130 -1 200 l-1 128
-264 0 -265 0 0 -203z"/>
<path d="M4640 2145 c-5 -6 -5 -17 0 -25 5 -8 5 -21 -1 -32 -5 -10 -6 -18 -2
-18 4 0 8 -11 8 -25 0 -14 -3 -25 -7 -25 -4 0 -5 -6 -2 -14 9 -23 10 -137 1
-143 -4 -2 -4 -10 0 -16 6 -10 8 -48 3 -62 -5 -13 -3 -76 3 -81 3 -3 2 -17 -3
-30 -5 -13 -6 -24 -1 -24 5 0 5 -18 1 -40 -4 -23 -3 -40 2 -40 5 0 6 -5 3 -10
-6 -10 -7 -53 -2 -133 2 -21 -1 -41 -5 -43 -5 -3 -5 -11 -1 -17 6 -10 8 -52 3
-59 -5 -8 -4 -78 2 -78 4 0 3 -13 -2 -30 -5 -17 -5 -30 0 -30 5 0 5 -13 0 -30
-5 -16 -6 -30 -2 -30 4 0 7 -11 7 -25 0 -14 -3 -25 -7 -25 -4 0 -3 -13 2 -29
4 -16 6 -31 4 -34 -5 -5 -6 -77 -1 -102 4 -20 12 -20 515 -20 l512 0 0 25 c1
35 1 1233 0 1245 0 15 -1018 15 -1030 0z"/>
<path d="M6141 2152 c-6 -2 -8 -8 -5 -13 3 -6 5 -38 5 -72 -1 -34 -1 -71 -1
-82 0 -11 0 -68 0 -127 l1 -108 499 0 499 0 3 185 c2 102 0 194 -3 203 -6 16
-44 17 -496 17 -270 1 -495 -1 -502 -3z"/>
<path d="M687 1282 c-14 -3 -16 -26 -14 -205 l2 -202 493 0 c272 0 496 4 499
8 7 11 7 387 0 394 -6 5 -951 10 -980 5z"/>
<path d="M3649 1280 c-4 -3 -7 -96 -6 -205 l2 -200 263 0 c256 0 262 0 262 20
2 93 -2 380 -5 383 -6 6 -506 8 -516 2z"/>
<path d="M6140 1245 c0 -22 0 -47 0 -55 -1 -24 -1 -140 0 -250 l1 -65 494 0
c271 0 497 3 501 7 6 6 7 91 3 126 -1 4 0 12 1 17 3 18 -1 250 -5 254 -4 4
-801 5 -820 1 -5 -1 -12 -2 -15 -1 -3 1 -40 3 -83 4 l-78 2 1 -40z"/>
<path d="M673 285 c2 -110 5 -125 29 -166 32 -55 81 -95 129 -104 19 -4 215
-10 437 -12 385 -5 402 -4 403 14 0 26 0 333 0 364 l-1 25 -500 0 -500 0 3
-121z"/>
<path d="M3641 203 l-1 -204 1583 6 c870 3 1620 7 1667 9 99 5 122 13 172 58
57 52 71 106 80 298 l2 35 -1751 1 -1751 0 -1 -203z"/>
</g>
</svg>
