<?xml version="1.0" standalone="no"?>
<!DOCTYPE svg PUBLIC "-//W3C//DTD SVG 20010904//EN"
 "http://www.w3.org/TR/2001/REC-SVG-20010904/DTD/svg10.dtd">
<svg version="1.0" xmlns="http://www.w3.org/2000/svg"
 width="624.000000pt" height="624.000000pt" viewBox="0 0 624.000000 624.000000"
 preserveAspectRatio="xMidYMid meet">
<metadata>
Created by potrace 1.14, written by Peter Selinger 2001-2017
</metadata>
<g transform="translate(0.000000,624.000000) scale(0.100000,-0.100000)"
fill="#000000" stroke="none">
<path d="M1949 6236 c-2 -2 -29 -6 -59 -10 -117 -12 -141 -16 -148 -20 -4 -2
-27 -7 -52 -11 -24 -4 -52 -11 -62 -16 -10 -5 -18 -8 -18 -5 0 5 -128 -35
-214 -68 -146 -56 -352 -167 -451 -243 -16 -13 -34 -27 -40 -31 -126 -92 -291
-256 -389 -387 -37 -49 -74 -98 -82 -108 -8 -9 -14 -19 -14 -22 0 -3 -16 -30
-36 -61 -56 -87 -163 -314 -188 -399 -2 -5 -6 -18 -10 -27 -4 -9 -9 -25 -11
-35 -2 -10 -4 -18 -5 -18 -1 0 -3 -7 -5 -15 -1 -8 -8 -35 -15 -60 -7 -25 -14
-56 -16 -70 -3 -14 -7 -32 -10 -40 -3 -8 -8 -28 -10 -45 -3 -16 -6 -39 -9 -50
-16 -78 -20 -320 -20 -1385 0 -1069 3 -1288 20 -1365 3 -11 7 -31 9 -45 5 -24
19 -90 30 -140 14 -60 50 -176 58 -185 4 -5 8 -15 8 -22 0 -14 80 -205 89
-213 3 -3 18 -30 33 -60 38 -75 63 -118 82 -139 9 -10 13 -21 9 -24 -3 -4 -2
-7 3 -7 5 0 18 -15 29 -32 16 -28 85 -118 160 -207 11 -13 37 -40 59 -60 21
-20 55 -52 75 -72 30 -30 70 -63 216 -177 30 -24 163 -102 173 -102 7 0 12 -4
12 -8 0 -11 173 -92 280 -131 90 -33 270 -83 270 -75 0 3 8 0 18 -5 9 -5 40
-12 67 -15 28 -3 75 -9 105 -14 71 -9 2398 -9 2470 0 30 4 65 10 76 12 12 2
37 7 55 10 51 8 67 12 154 35 44 12 87 23 95 26 27 7 219 84 252 101 18 9 36
22 40 28 4 6 8 8 8 4 0 -11 98 44 189 104 185 123 382 309 502 472 33 45 66
89 74 99 8 9 15 19 15 22 0 3 16 29 34 59 19 29 53 91 76 137 23 46 48 96 56
111 8 15 14 29 13 30 0 2 4 14 9 28 24 57 62 167 67 195 4 17 9 37 12 45 8 20
8 19 18 70 5 25 9 47 10 50 2 6 13 65 20 105 3 17 9 62 13 100 9 86 9 2485 0
2540 -3 22 -9 63 -13 90 -4 28 -14 79 -21 115 -8 36 -17 76 -20 89 -12 55 -69
223 -107 310 -45 106 -110 227 -168 315 -21 32 -39 60 -39 62 0 2 -9 14 -19
26 -11 13 -42 52 -71 88 -176 222 -415 414 -680 546 -60 30 -115 54 -123 54
-7 0 -18 5 -24 11 -6 6 -17 12 -24 13 -8 2 -21 6 -29 9 -21 9 -142 48 -160 52
-72 16 -172 37 -205 41 -22 3 -51 8 -65 12 -26 7 -2424 15 -2431 8z"/>
</g>
</svg>
