<svg xmlns="http://www.w3.org/2000/svg" xmlns:xlink="http://www.w3.org/1999/xlink"><defs><style>.cls-1{fill:#fff;}</style></defs><symbol id="check" viewBox="0 0 9.48 8.12"><polygon class="cls-1" points="3.77 8.12 0 4.35 1.41 2.93 3.64 5.16 7.94 0 9.48 1.28 3.77 8.12"/></symbol><symbol id="clock" viewBox="0 0 101.7 101.6"><path d="M63.5,9.5h.9c.2,0,.3.1.5.1,1.7.2,3.4.4,5,.7A49.56,49.56,0,0,1,96.7,24.8a49.12,49.12,0,0,1,13.8,27.8c.2,1.2.3,2.4.5,3.6v.9h-8.2a2.11,2.11,0,0,0-2.1,2.1v2.2a2.05,2.05,0,0,0,2.1,2.1H111v.9a4.33,4.33,0,0,1-.1.5,49.1,49.1,0,0,1-1.7,9.3A50.32,50.32,0,0,1,93.9,98.4,49.39,49.39,0,0,1,68,110.5c-1.2.2-2.4.3-3.6.5h-.9v-8a2.1,2.1,0,0,0-2.2-2.2H59.1a2.05,2.05,0,0,0-2.1,2.1v8.2h-.9c-.2,0-.3-.1-.5-.1-1.6-.2-3.1-.3-4.7-.6A50.4,50.4,0,0,1,19.4,90.8,49,49,0,0,1,9.9,67.9c-.2-1.1-.3-2.3-.5-3.4v-.9h8a2.08,2.08,0,0,0,2.2-2.1V59.3a2.05,2.05,0,0,0-2.1-2.1H9.3v-.9a4.33,4.33,0,0,1,.1-.5,47.44,47.44,0,0,1,2.3-11.2A50.65,50.65,0,0,1,29,20.2a50.12,50.12,0,0,1,23.3-10c1.2-.2,2.4-.3,3.6-.5h.9v8a2.08,2.08,0,0,0,2.1,2.2h2.2a2.05,2.05,0,0,0,2.1-2.1A78.61,78.61,0,0,0,63.5,9.5Zm13,47.3H66.7a1.81,1.81,0,0,1-1.7-.7,2.36,2.36,0,0,0-.9-.8,1,1,0,0,1-.4-.9V34a3.37,3.37,0,0,0-2.9-3.4,3.54,3.54,0,0,0-3.9,2.5,7.57,7.57,0,0,0-.1,1.5V54.1a1.49,1.49,0,0,1-.6,1.3,6.37,6.37,0,1,0,9.1,8.8c.3-.3.5-.5.9-.5H86.4a7.72,7.72,0,0,0,1.5-.2,3.52,3.52,0,0,0,2.2-3.9,3.44,3.44,0,0,0-3.4-2.8C83.3,56.7,79.9,56.8,76.5,56.8Z" transform="translate(-9.3 -9.5)"/></symbol><symbol id="facebook" viewBox="0 0 512 512"><path d="m475.074219 0h-438.148438c-20.394531 0-36.925781 16.53125-36.925781 36.925781v438.148438c0 20.394531 16.53125 36.925781 36.925781 36.925781h236.574219v-198h-66.5v-77.5h66.5v-57.035156c0-66.140625 40.378906-102.140625 99.378906-102.140625 28.257813 0 52.542969 2.105469 59.621094 3.046875v69.128906h-40.683594c-32.101562 0-38.316406 15.253906-38.316406 37.640625v49.359375h76.75l-10 77.5h-66.75v198h121.574219c20.394531 0 36.925781-16.53125 36.925781-36.925781v-438.148438c0-20.394531-16.53125-36.925781-36.925781-36.925781zm0 0"/></symbol><symbol id="instagram" viewBox="0 0 78.9 78.9">
<g transform="matrix(0.39 0 0 0.39 200 200)">
	<path d="M-411.7-444.1c-17.9,0-32.4,14.6-32.4,32.4s14.5,32.4,32.4,32.4s32.4-14.5,32.4-32.4S-393.8-444.1-411.7-444.1
		z"/>
</g>
<g transform="matrix(0.39 0 0 0.39 200.02 200.02)">
	<path d="M-345.5-512.9h-132.4c-19.3,0-35,15.7-35,35v132.4c0,19.3,15.7,35,35,35h132.4c19.3,0,35-15.7,35-35v-132.4
		C-310.5-497.2-326.2-512.9-345.5-512.9z M-411.7-353.2c-32.2,0-58.5-26.2-58.5-58.5s26.2-58.5,58.5-58.5s58.5,26.2,58.5,58.5
		S-379.5-353.2-411.7-353.2z M-331.8-477.1c0,8-6.5,14.5-14.5,14.5l0,0c-8,0-14.5-6.5-14.5-14.5l0,0c0-8,6.5-14.5,14.5-14.5l0,0
		C-338.3-491.6-331.8-485.1-331.8-477.1L-331.8-477.1z"/>
</g>
</symbol><symbol id="logo" viewBox="0 0 511.93 512"><path id="_Group_" data-name="&lt;Group&gt;" d="M505.1,392.1l-1.1-1.7-45.6-42.3A131.48,131.48,0,0,1,421,256c0-73.8-48.7-136.4-115.7-157.5C319.1,92.9,333,90,346,90a45,45,0,0,0,0-90c-53.1,0-97,39.9-104,91.6C157.5,98.7,91,169.7,91,256a129.86,129.86,0,0,1-37.7,91.8L8.1,390.2l-1,1.6a45,45,0,0,0,28.4,68.1c109,23.3,97.7,21.1,102.3,21.1,6.5,19,23.8,31,42.5,31H331.7c18.8,0,36.1-12.2,42.5-31,4.6,0-6.7,2.2,102.4-21.1h.1C507,453.1,521.6,418.4,505.1,392.1ZM346,30a15,15,0,0,1,0,30c-28.6,0-49.9,9.2-70.2,19.3A75,75,0,0,1,346,30ZM41.8,430.6a14.91,14.91,0,0,1-10.2-21.3c.6-.6,42.2-39.5,42.8-40.1A160,160,0,0,0,121,256a134.87,134.87,0,0,1,64.3-114.9A74.48,74.48,0,0,0,181,166v62.8a590.42,590.42,0,0,1-42.5,220.5c-.2.6-.4,1.1-.6,1.7C137.4,451,42.3,430.7,41.8,430.6ZM331.7,482H180.3c-10.5,0-17.9-11.7-13.9-21.6A621.3,621.3,0,0,0,211,228.7V166a45.05,45.05,0,0,1,44.3-45h1.2c26.7.3,44.5,23.5,44.5,48.2v59.5a621.3,621.3,0,0,0,44.6,231.7C349.6,470.3,342.2,482,331.7,482Zm138.6-51.5c-.5.1-95.7,20.5-96.2,20.5-.2-.6-.4-1.1-.6-1.7A591.19,591.19,0,0,1,331,228.8V169.3a81.33,81.33,0,0,0-5.3-28.8A134.79,134.79,0,0,1,391,256a161.11,161.11,0,0,0,46.3,113.3l43.2,40.1A14.94,14.94,0,0,1,470.3,430.5Z" transform="translate(-0.06)"/></symbol><symbol id="marker" viewBox="0 0 44.45 71.1"><path d="M62.3,25.4l2.2.3a20.73,20.73,0,0,1,11,5.1,21.28,21.28,0,0,1,7.4,12.8,21.91,21.91,0,0,1-2.1,14.2c-6.5,12.8-13,25.6-19.6,38.4,0,.1-.1.2-.2.3-.1-.1-.1-.2-.2-.4C54.2,83.2,47.6,70.3,41.1,57.4a20.89,20.89,0,0,1-2.2-11.3,21.44,21.44,0,0,1,7.2-14.9,21.8,21.8,0,0,1,13.4-5.7.37.37,0,0,0,.3-.1ZM74.4,47.6A13.35,13.35,0,1,0,61,60.9,13.29,13.29,0,0,0,74.4,47.6Z" transform="translate(-38.83 -25.4)"/></symbol><symbol id="phone" viewBox="0 0 512.021 512.021"><g><path d="m367.988 512.021c-16.528 0-32.916-2.922-48.941-8.744-70.598-25.646-136.128-67.416-189.508-120.795s-95.15-118.91-120.795-189.508c-8.241-22.688-10.673-46.108-7.226-69.612 3.229-22.016 11.757-43.389 24.663-61.809 12.963-18.501 30.245-33.889 49.977-44.5 21.042-11.315 44.009-17.053 68.265-17.053 7.544 0 14.064 5.271 15.645 12.647l25.114 117.199c1.137 5.307-.494 10.829-4.331 14.667l-42.913 42.912c40.482 80.486 106.17 146.174 186.656 186.656l42.912-42.913c3.838-3.837 9.361-5.466 14.667-4.331l117.199 25.114c7.377 1.581 12.647 8.101 12.647 15.645 0 24.256-5.738 47.224-17.054 68.266-10.611 19.732-25.999 37.014-44.5 49.977-18.419 12.906-39.792 21.434-61.809 24.663-6.899 1.013-13.797 1.518-20.668 1.519zm-236.349-479.321c-31.995 3.532-60.393 20.302-79.251 47.217-21.206 30.265-26.151 67.49-13.567 102.132 49.304 135.726 155.425 241.847 291.151 291.151 34.641 12.584 71.866 7.64 102.132-13.567 26.915-18.858 43.685-47.256 47.217-79.251l-95.341-20.43-44.816 44.816c-4.769 4.769-12.015 6.036-18.117 3.168-95.19-44.72-172.242-121.772-216.962-216.962-2.867-6.103-1.601-13.349 3.168-18.117l44.816-44.816z"/></g></symbol><symbol id="star" viewBox="0 0 24 24"><path d="m23.363 8.584-7.378-1.127-3.307-7.044c-.247-.526-1.11-.526-1.357 0l-3.306 7.044-7.378 1.127c-.606.093-.848.83-.423 1.265l5.36 5.494-1.267 7.767c-.101.617.558 1.08 1.103.777l6.59-3.642 6.59 3.643c.54.3 1.205-.154 1.103-.777l-1.267-7.767 5.36-5.494c.425-.436.182-1.173-.423-1.266z"/></symbol><symbol id="user" viewBox="0 0 513.323 513.323">
<g>
	<g>
		<path d="M256.661,257.323c-135.275,0-245.333,110.059-245.333,245.333c0,5.888,4.779,10.667,10.667,10.667h469.333
			c5.888,0,10.667-4.779,10.667-10.667C501.995,367.381,391.936,257.323,256.661,257.323z"/>
	</g>
</g>
<g>
	<g>
		<circle cx="256.661" cy="117.333" r="117.333"/>
	</g>
</g>
<g>
</g>
<g>
</g>
<g>
</g>
<g>
</g>
<g>
</g>
<g>
</g>
<g>
</g>
<g>
</g>
<g>
</g>
<g>
</g>
<g>
</g>
<g>
</g>
<g>
</g>
<g>
</g>
<g>
</g>
</symbol><symbol id="vk" viewBox="0 0 14.171 14.171">
<g>
	<path d="M13.268,0H0.905C0.405,0,0,0.405,0,0.904v12.363c0,0.499,0.405,0.904,0.905,0.904h12.362
		c0.499,0,0.904-0.405,0.904-0.904V0.904C14.172,0.404,13.767,0,13.268,0z M11.755,8.635c0.259,0.264,0.821,0.707,0.719,1.158
		c-0.094,0.414-0.712,0.263-1.312,0.287c-0.685,0.029-1.091,0.044-1.503-0.287C9.465,9.636,9.351,9.45,9.165,9.242
		C8.996,9.054,8.783,8.717,8.493,8.73C7.972,8.756,8.135,9.482,7.95,9.977c-2.896,0.456-4.059-1.333-5.085-3.069
		C2.368,6.067,1.65,4.261,1.65,4.261l2.048-0.007c0,0,0.657,1.195,0.831,1.503c0.148,0.262,0.311,0.47,0.479,0.704
		c0.141,0.194,0.364,0.574,0.608,0.543c0.397-0.051,0.469-1.591,0.223-2.107C5.741,4.688,5.506,4.615,5.263,4.544
		C5.345,4.026,7.56,3.918,7.918,4.32c0.52,0.584-0.36,2.21,0.352,2.684c1-0.524,1.854-2.718,1.854-2.718l2.398,0.015
		c0,0-0.375,1.186-0.768,1.712c-0.229,0.308-0.989,0.994-0.959,1.503C10.819,7.919,11.437,8.311,11.755,8.635z"/>
</g>
</symbol></svg>