<svg width="183" height="45" fill="none" xmlns="http://www.w3.org/2000/svg"><path d="M65.569 18.345c-.78-1.418-2.532-2.315-4.368-2.315-4.007-.029-7.15 2.547-7.15 7.466 0 5.006 3.004 7.61 7.066 7.582 1.53-.03 3.673-.84 4.452-2.518l.167 2.084h3.2V16.377H65.68l-.111 1.968zm-4.062.84c5.342 0 5.342 8.652 0 8.652-2.254 0-4.062-1.62-4.062-4.34 0-2.721 1.808-4.313 4.062-4.313zm11.096-6.454v3.675h-2.56v3.039h2.56v6.164c0 3.559 1.948 5.324 4.925 5.208 1.029-.029 1.836-.202 2.81-.607l-.947-3.01c-.5.26-1.112.434-1.64.434-1.058 0-1.782-.665-1.782-2.025v-6.164h3.812v-3.039h-3.784v-4.051l-3.394.376zm22.241 17.913v-7.64c0-1.88 1.14-3.53 2.977-3.53 1.836 0 2.587 1.591 2.587 3.472v7.698h3.394v-7.698c0-4.283-1.919-6.771-5.814-6.771-1.781 0-3.367.578-4.59 2.604-.78-1.968-2.421-2.662-4.063-2.662-1.307 0-2.893.52-3.617 1.968l-.25-1.737h-3.144v14.296h3.394v-7.64c0-1.88 1.085-3.588 2.922-3.588 1.864 0 2.81 1.707 2.81 3.588v7.64h3.394zm23.188-12.299c-.779-1.418-2.531-2.315-4.368-2.315-4.006-.029-7.15 2.547-7.15 7.466 0 5.006 3.005 7.61 7.067 7.582 1.53-.03 3.672-.84 4.451-2.518l.167 2.084h3.2V16.377h-3.255l-.112 1.968zm-4.062.84c5.342 0 5.342 8.652 0 8.652-2.253 0-4.061-1.62-4.061-4.34 0-2.721 1.808-4.313 4.061-4.313zm19.707-2.46c-.946-.666-2.059-.81-3.144-.81-3.839 0-6.955 2.777-6.955 7.234 0 4.456 2.671 7.177 6.955 7.177 1.697 0 3.478.897 3.478 2.864 0 1.968-1.53 3.068-3.478 3.068-1.947 0-3.589-1.216-3.589-3.068h-3.366c0 3.85 2.977 6.367 6.955 6.367 3.979 0 6.872-2.431 6.872-6.367 0-1.823-.556-3.53-2.838-4.717 2.254-1.07 2.894-3.559 2.894-5.324 0-1.563-.39-2.98-1.447-4.225l1.53-2.026-2.504-1.968-1.363 1.795zm-3.144 2.401c1.948 0 3.561 1.563 3.561 4.023s-1.613 3.964-3.561 3.964c-1.975 0-3.589-1.476-3.589-3.964 0-2.489 1.614-4.023 3.589-4.023zm9.174-2.749v7.495c0 4.428 2.393 7.003 5.676 7.003 1.92 0 3.227-.694 4.646-2.141l.223 1.939h3.032V16.377h-3.366v7.293c0 2.17-1.419 3.993-3.506 3.993-2.17 0-3.31-1.65-3.31-3.82v-7.466h-3.395zm16.572 0v14.267h3.394V23.12c0-2.634 1.641-3.617 3.422-3.617 1.113 0 1.753.318 2.448.926l1.53-3.068c-.751-.781-2.114-1.36-3.533-1.36-1.391 0-2.81.26-3.867 2.026l-.251-1.65h-3.143zm12.418 0v7.495c0 4.428 2.393 7.003 5.675 7.003 1.92 0 3.228-.694 4.647-2.141l.222 1.939h3.033V16.377h-3.367v7.293c0 2.17-1.419 3.993-3.505 3.993-2.17 0-3.311-1.65-3.311-3.82v-7.466h-3.394z" fill="#1D1D1D"/><circle cx="22.094" cy="22.738" r="21.82" fill="#D9F94B"/><path d="M31.962 30.903a5.056 5.056 0 00-.567-7.156 5.124 5.124 0 00-7.195.564 5.056 5.056 0 00.566 7.155 5.124 5.124 0 007.196-.563zm-3.11-23.357a5.076 5.076 0 011.475 2.105 5.05 5.05 0 01-.784 4.903 5.102 5.102 0 01-2.06 1.545l-.143.056-2.535 1.017c-1.72.687-3.795 1.02-5.488 2.992-1.476 1.718-1.707 4.326-2.123 6.061l-.608 2.477-.027.116a5.07 5.07 0 01-1.212 2.267 5.134 5.134 0 01-7.073.422A5.077 5.077 0 016.8 29.4a5.051 5.051 0 01.788-4.906 5.103 5.103 0 012.062-1.545l.012-.014.07-.024.336-.118 2.482-.86c1.588-.555 3.579-1.21 5.198-3.095.608-.709 1.64-4.098 2.007-5.507l.81-3.102a5.067 5.067 0 011.211-2.264 5.131 5.131 0 017.067-.42l.01.001z" fill="#1D1D1D"/></svg>