<svg xmlns="http://www.w3.org/2000/svg" xmlns:xlink="http://www.w3.org/1999/xlink"><symbol id="mail" viewBox="0 0 13 11">
<path d="M0.676292 10.1766H12.3234C12.6963 10.1766 12.9995 9.85427 12.9995 9.48124V1.48352C12.9995 1.4821 13 1.49034 13 1.48891C13 1.11668 12.6966 0.823242 12.3235 0.823242H12.3232H0.731144H0.676134C0.303269 0.823242 0 1.1078 0 1.48067V9.48124C0 9.85427 0.303269 10.1766 0.676292 10.1766ZM4.68062 5.12307L0.634123 9.13707V2.07405L4.68062 5.12307ZM12.3654 2.12113V8.82524L8.54703 5.03731L12.3654 2.12113ZM8.04116 5.42381C8.04813 5.43221 8.05416 5.4506 8.06208 5.45868L12.1695 9.54244H1.14475L5.19252 5.51782L6.37849 6.4067C6.43492 6.44918 6.50198 6.46821 6.5692 6.46821C6.63705 6.46821 6.70474 6.44538 6.76166 6.40194L8.04116 5.42381ZM12.2143 1.45737L6.56809 5.76972L0.844335 1.45737H12.2143Z" fill="white"/>
</symbol><symbol id="phone" viewBox="0 0 13 13">
<path d="M0.623927 9.32101L2.19693 7.73501C2.45693 7.47501 2.80793 7.31901 3.13293 7.31901C3.48393 7.31901 3.79593 7.46201 4.06893 7.73501L4.97893 8.64501C5.01793 8.61901 5.06993 8.59301 5.10893 8.58001C5.10893 8.58001 5.12193 8.58001 5.12193 8.56701L5.13493 8.55401C5.25193 8.47601 5.38193 8.39801 5.53793 8.33301C6.33093 7.83901 7.07193 7.15001 7.82593 6.22701C8.17693 5.78501 8.42393 5.39501 8.61893 4.96601C8.41093 4.79701 8.25493 4.62801 8.13793 4.49801L7.73493 4.09501C7.42293 3.80901 7.26693 3.48401 7.26693 3.14601C7.26693 2.79501 7.42293 2.47001 7.72193 2.15801L8.95693 0.923007C9.07393 0.806007 9.19093 0.689007 9.32093 0.572007C9.58093 0.325007 9.90593 0.182007 10.2439 0.182007C10.6209 0.182007 10.9329 0.312007 11.2189 0.598007L12.1679 1.54701C12.5449 1.89801 12.7659 2.34001 12.8179 2.88601V2.89901C12.8439 3.57501 12.7399 4.19901 12.4539 4.97901C11.9989 6.20101 11.3099 7.34501 10.2829 8.60601C8.94393 10.114 7.43593 11.284 5.75893 12.09L5.71993 12.103C5.22593 12.324 4.28993 12.74 3.24993 12.805H3.10693C2.41793 12.805 1.89793 12.584 1.46893 12.116C1.31293 11.934 1.14393 11.765 1.00093 11.609C0.883927 11.518 0.805927 11.427 0.727927 11.336L0.623927 11.232L0.597927 11.206C0.0519276 10.608 0.0519266 9.88001 0.623927 9.32101ZM1.07893 10.764L1.20893 10.894L1.22193 10.92C1.28693 10.998 1.33893 11.063 1.40393 11.115L1.44293 11.154C1.59893 11.31 1.78093 11.492 1.96293 11.7C2.26193 12.025 2.59993 12.168 3.10693 12.168H3.21093C4.12093 12.103 4.95293 11.739 5.44693 11.518L5.47293 11.505C7.07193 10.738 8.51493 9.62001 9.77593 8.19001C10.7639 6.99401 11.4139 5.90201 11.8429 4.75801C12.1029 4.04301 12.1939 3.52301 12.1679 2.93801C12.1289 2.56101 11.9859 2.26201 11.7259 2.02801L10.7639 1.06601C10.6079 0.910007 10.4519 0.845007 10.2569 0.845007C10.0879 0.845007 9.93193 0.923007 9.78893 1.05301L9.77593 1.06601C9.65893 1.17001 9.54193 1.28701 9.42493 1.40401L8.18993 2.63901C7.95593 2.87301 7.91693 3.05501 7.91693 3.15901C7.91693 3.26301 7.94293 3.41901 8.18993 3.64001L8.60593 4.05601C8.74893 4.21201 8.91793 4.38101 9.13893 4.56301L9.16493 4.58901L9.19093 4.62801C9.30793 4.78401 9.32093 4.92701 9.25593 5.13501L9.24293 5.18701L9.22993 5.23901C9.00893 5.72001 8.73593 6.16201 8.34593 6.65601C7.53993 7.64401 6.73393 8.38501 5.87593 8.91801L5.83693 8.94401C5.73293 8.99601 5.62893 9.04801 5.53793 9.10001C5.49893 9.13901 5.44693 9.16501 5.40793 9.17801C5.35593 9.20401 5.31693 9.21701 5.29093 9.24301L5.19993 9.30801H5.17393L5.13493 9.32101C5.05693 9.34701 5.00493 9.34701 4.96593 9.34701C4.83593 9.34701 4.71893 9.29501 4.60193 9.17801L3.62693 8.20301C3.47093 8.04701 3.32793 7.98201 3.14593 7.98201C2.95093 7.98201 2.76893 8.09901 2.66493 8.20301L1.07893 9.78901C0.766927 10.101 0.753926 10.426 1.07893 10.764Z" fill="white"/>
</symbol><symbol id="pin-mark" viewBox="0 0 11 13">
<path d="M5.5 12.5938C5.33032 12.5923 5.16281 12.5554 5.0082 12.4854C4.8536 12.4155 4.71531 12.314 4.60219 12.1875C3.11938 10.5625 0.625002 7.47094 0.625002 5.4275C0.606545 4.11545 1.10957 2.84971 2.02361 1.90824C2.93765 0.966782 4.18798 0.426573 5.5 0.40625C6.81203 0.426573 8.06235 0.966782 8.97639 1.90824C9.89043 2.84971 10.3935 4.11545 10.375 5.4275C10.375 7.45875 7.88063 10.5422 6.39781 12.1916C6.28433 12.3173 6.14588 12.418 5.99129 12.4873C5.83671 12.5565 5.66939 12.5928 5.5 12.5938ZM5.5 1.21875C4.40381 1.24011 3.36076 1.69504 2.59931 2.4839C1.83787 3.27276 1.4201 4.33124 1.4375 5.4275C1.4375 6.70312 2.84719 9.02688 5.2075 11.6472C5.2454 11.6865 5.29083 11.7178 5.34109 11.7391C5.39135 11.7605 5.44539 11.7715 5.5 11.7715C5.55461 11.7715 5.60866 11.7605 5.65891 11.7391C5.70917 11.7178 5.7546 11.6865 5.7925 11.6472C8.15281 9.02688 9.5625 6.70312 9.5625 5.4275C9.57991 4.33124 9.16214 3.27276 8.40069 2.4839C7.63924 1.69504 6.5962 1.24011 5.5 1.21875Z" fill="white"/>
<path d="M5.5 7.71875C5.01791 7.71875 4.54664 7.57579 4.1458 7.30796C3.74495 7.04012 3.43253 6.65944 3.24804 6.21404C3.06356 5.76865 3.01529 5.27855 3.10934 4.80572C3.20339 4.33289 3.43554 3.89857 3.77643 3.55768C4.11732 3.21679 4.55164 2.98464 5.02447 2.89059C5.4973 2.79654 5.9874 2.84481 6.43279 3.02929C6.87819 3.21378 7.25887 3.5262 7.52671 3.92705C7.79454 4.32789 7.9375 4.79916 7.9375 5.28125C7.9375 5.92772 7.68069 6.5477 7.22357 7.00482C6.76645 7.46194 6.14647 7.71875 5.5 7.71875ZM5.5 3.65625C5.17861 3.65625 4.86443 3.75156 4.5972 3.93011C4.32997 4.10867 4.12169 4.36246 3.9987 4.65939C3.8757 4.95632 3.84352 5.28305 3.90622 5.59827C3.96893 5.91349 4.12369 6.20304 4.35095 6.4303C4.57821 6.65756 4.86776 6.81233 5.18298 6.87503C5.4982 6.93773 5.82493 6.90555 6.12186 6.78256C6.41879 6.65956 6.67258 6.45128 6.85114 6.18405C7.0297 5.91682 7.125 5.60265 7.125 5.28125C7.125 4.85027 6.9538 4.43695 6.64905 4.1322C6.3443 3.82746 5.93098 3.65625 5.5 3.65625Z" fill="white"/>
</symbol></svg>