<svg xmlns="http://www.w3.org/2000/svg" width="225.815" height="243.156"><defs><style>.cls-1{fill:#fff;fill-rule:evenodd}</style></defs><path class="cls-1" d="M50.599 232.137a.738.738 0 110 1.356H1.041a.738.738 0 110-1.356h49.558zm174.186 0a.738.738 0 110 1.356h-49.55a.738.738 0 110-1.356h49.55zm-157.994-5.43a5.531 5.531 0 014.131 1.766 6.277 6.277 0 010 8.608 5.534 5.534 0 01-4.131 1.765 4.9 4.9 0 01-4.362-2.284v1.985h-2.004v-16.155h2v6.6a4.9 4.9 0 014.362-2.285zm-.254 10.2a3.929 3.929 0 002.908-1.189 4.267 4.267 0 000-5.885 4.179 4.179 0 00-5.839 0 4.267 4.267 0 000 5.885 3.957 3.957 0 002.931 1.189zm15.943-3.208a3.8 3.8 0 001.42 2.4 4.414 4.414 0 002.758.854 3.609 3.609 0 003.323-1.685l1.708.97a5.639 5.639 0 01-5.077 2.607 6.042 6.042 0 01-4.466-1.719 5.9 5.9 0 01-1.719-4.35 5.971 5.971 0 011.684-4.339 5.819 5.819 0 014.362-1.731 5.308 5.308 0 014.143 1.789 6.222 6.222 0 011.6 4.3 6.09 6.09 0 01-.069.9h-9.671zm3.993-5.1a3.834 3.834 0 00-3.993 3.347h7.709a3.85 3.85 0 00-1.292-2.493 3.706 3.706 0 00-2.424-.854zm23.629-1.592h2.007v11.54h-2.007v-1.985a4.9 4.9 0 01-4.362 2.284 5.534 5.534 0 01-4.131-1.765 6.277 6.277 0 010-8.608 5.531 5.531 0 014.131-1.766 4.9 4.9 0 014.362 2.285v-1.985zm-4.108 9.9a3.957 3.957 0 002.931-1.189 4.267 4.267 0 000-5.885 4.179 4.179 0 00-5.839 0 4.267 4.267 0 000 5.885 3.929 3.929 0 002.908 1.189zm23.166-9.9h2.008v11.54h-2.008v-1.662a4.1 4.1 0 01-3.738 1.961 4.288 4.288 0 01-3.254-1.28 4.819 4.819 0 01-1.224-3.473v-7.086h2.008v6.97a2.975 2.975 0 00.762 2.181 2.816 2.816 0 002.1.773 3.25 3.25 0 002.423-.935 3.94 3.94 0 00.923-2.873v-6.116zm17.375 1.939h-3.07v6.254a1.757 1.757 0 00.335 1.212 1.379 1.379 0 001.027.369q.693.011 1.708-.035v1.8a5.945 5.945 0 01-3.854-.427 3.187 3.187 0 01-1.224-2.92v-6.254h-2.285v-1.939h2.285v-2.631l2.008-.6v3.23h3.07v1.939zm16.73-1.939h2.14l-4.7 12.255a6.629 6.629 0 01-2.07 2.989 4.35 4.35 0 01-3.06.911v-1.869c1.41.108 2.44-.677 3.11-2.358l.22-.435-5.04-11.493h2.15l3.85 8.847zm-91.781-19.088a3.112 3.112 0 001.1-1.289l.184-.441 1.162.387-.116.462a4.439 4.439 0 01-2.2 2.634 7.8 7.8 0 01-3.88.973 6.037 6.037 0 01-6.306-4.364 7.808 7.808 0 01-3.055 2.805 14.443 14.443 0 01-6.8 1.559c-3.45 0-6.479-.762-8.59-2.425a8.308 8.308 0 01-3.1-6.892 12.4 12.4 0 011.144-5.421 7.971 7.971 0 013.27-3.577 20.182 20.182 0 013.582-1.583 16.848 16.848 0 013.206-.678h.014c2.669-.246 4.786-.515 6.355-.8a9.775 9.775 0 002.831-.778 1.474 1.474 0 00.189-.251 1.919 1.919 0 00.141-.285v-6.348a9.8 9.8 0 00-1.605-6.044 5.4 5.4 0 00-4.485-2.063 3.128 3.128 0 00-2.367.791 3.535 3.535 0 00-.756 2.5 6.709 6.709 0 00.3 1.536 6.45 6.45 0 01.292 1.51 3.132 3.132 0 01-1.16 2.508 4.531 4.531 0 01-2.911.886 3.611 3.611 0 01-2.798-1.131 4.432 4.432 0 01-1.017-3.028 6.266 6.266 0 013.206-5.028 13.217 13.217 0 017.211-1.92q6.9 0 10.364 4 3.442 3.97 3.437 11.835v18.193a2.859 2.859 0 00.445 1.769 1.484 1.484 0 001.239.507 2.63 2.63 0 001.473-.508zm-13.112-.671a4.757 4.757 0 002.238-3.635v-13.6a23.969 23.969 0 01-5.671 1.033c-.872.091-1.628.172-2.089.264a5.654 5.654 0 00-4.031 2.92 14.541 14.541 0 00-1.393 7.025q0 3.945 1.429 5.845a4.949 4.949 0 004.232 1.832 9.163 9.163 0 005.285-1.687zm33.722-.358a4 4 0 01-2.969 1.537 1.685 1.685 0 01-1.937-1.937v-32.233h7.531v-1.37h-7.531v-13.962h-1.23l-.115.359a4.092 4.092 0 01-1.873 2.267 10.77 10.77 0 01-4.056 1.272l-.444.063v10h-6.345v1.37h6.346v27.664q0 4.308 1.845 6.538a6.879 6.879 0 005.61 2.271 7.823 7.823 0 005.488-1.988 11.558 11.558 0 003.136-5.848l.1-.4-1.285-.643-.156.622a10.537 10.537 0 01-2.116 4.418zm18.269 1.707h5.247v1.371H97.484V208.6h5.162v-34.34h-5.162v-1.37h12.879v35.71zm-.528-46.861a4.649 4.649 0 01-3.373 1.437 4.539 4.539 0 01-3.312-1.451 5.122 5.122 0 010-6.932 4.542 4.542 0 013.312-1.45 4.648 4.648 0 013.373 1.436 5.094 5.094 0 010 6.96zM188.195 208a3.161 3.161 0 001.1-1.29l.19-.442 1.16.388-.12.462a4.418 4.418 0 01-2.2 2.633 7.818 7.818 0 01-3.88.973 6.033 6.033 0 01-6.31-4.363 7.848 7.848 0 01-3.05 2.8 14.478 14.478 0 01-6.81 1.558c-3.45 0-6.48-.761-8.59-2.424a8.3 8.3 0 01-3.09-6.892 12.48 12.48 0 011.14-5.422 7.99 7.99 0 013.27-3.576 20.211 20.211 0 013.58-1.583 16.953 16.953 0 013.21-.678h.01c2.67-.246 4.79-.515 6.36-.795a9.651 9.651 0 002.83-.781 1.8 1.8 0 00.19-.25 1.444 1.444 0 00.14-.286v-6.345a9.85 9.85 0 00-1.6-6.044 5.414 5.414 0 00-4.48-2.072 3.136 3.136 0 00-2.37.791 3.515 3.515 0 00-.76 2.5 7.113 7.113 0 00.3 1.536 6.452 6.452 0 01.3 1.51 3.141 3.141 0 01-1.16 2.508 4.562 4.562 0 01-2.91.886 3.605 3.605 0 01-2.8-1.127 4.395 4.395 0 01-1.02-3.028 6.273 6.273 0 013.2-5.028 13.25 13.25 0 017.22-1.92q6.885 0 10.36 4 3.435 3.97 3.44 11.835v18.193a2.88 2.88 0 00.44 1.769 1.487 1.487 0 001.24.507 2.63 2.63 0 001.47-.507zm-13.11-.672a4.746 4.746 0 002.24-3.635V190.1a24.041 24.041 0 01-5.67 1.032c-.87.092-1.63.171-2.09.264-3.62.707-5.42 3.994-5.42 9.945q0 3.945 1.42 5.845a4.968 4.968 0 004.24 1.833 9.146 9.146 0 005.28-1.688zm38.7.368c2.75-2.266 4.13-7.633 4.13-16.019a44.019 44.019 0 00-1.05-10.507 11.245 11.245 0 00-3-5.774 8.078 8.078 0 00-2.7-1.353 12.614 12.614 0 00-3.57-.467 9.384 9.384 0 00-7.35 3.315v28.323a5.957 5.957 0 002.61 3.031 9.1 9.1 0 004.66 1.193 14.03 14.03 0 003.73-.434 6.378 6.378 0 002.53-1.3l.01-.012zm-19.05-1a2.693 2.693 0 012.2-.88 2.23 2.23 0 011.09.325 6.7 6.7 0 011.42 1.131 9.774 9.774 0 003.55 2.645 11.421 11.421 0 004.6.891 16.6 16.6 0 006.94-1.453 18.009 18.009 0 005.88-4.386 21.085 21.085 0 004.03-6.27 18.971 18.971 0 00-.01-14.082 21.68 21.68 0 00-4.02-6.315 18.258 18.258 0 00-5.83-4.562 15.8 15.8 0 00-6.9-1.536 11.465 11.465 0 00-4.67.922 10.4 10.4 0 00-2.77 1.81V146.82h-12.88v1.372h5.24v61.857h1.38v-.516a4.441 4.441 0 01.75-2.833z"/><path class="cls-1" d="M21.778 149.285H7.86L1.89 164.45H.549l.035-17.331h21.194l8.63-.081h21.194l.035 17.331h-1.342l-5.97-15.169H30.408v57.54l3.956 1.626v1.083l-16.543.081v-1.084l3.957-1.625v-57.536zm97.234 60.166l8.63.081h24.883l.034-17.331h-1.341l-5.97 15.166h-17.6v-57.541l3.957-1.625v-1.082l-16.543-.082v1.084l3.956 1.624v59.706zM112.915-.012a56.59 56.59 0 0139.663 96.993c-5.854 6.367-16.392 8.03-24.568 6.7-12.464-2.03-26.173-10.612-36.964-16.76a33.526 33.526 0 01-5.121 1.19 43.267 43.267 0 01-10.032.26 9.9 9.9 0 01-2.609-.5 3.657 3.657 0 01-1.329-.822 1.738 1.738 0 01-.519-1.235 2.647 2.647 0 011.89-2.488c4.591-1.96 14.853.2 19.361 1.778a23.649 23.649 0 009.05-6.059 57.05 57.05 0 007.123-9.02l.025-.039.026-.039.025-.039.026-.039.016-.025.009-.014.025-.038.026-.04.025-.039.026-.039.025-.039.024-.037.026-.039.025-.04.025-.039.026-.04.011-.017.014-.022.025-.04.025-.039.026-.04.025-.04.021-.032v-.006l.025-.041.025-.039.026-.041.025-.04.037-.043v-.008l.02-.031.025-.04.026-.04.025-.04.025-.041.016-.025.01-.015.025-.04.025-.04.025-.041.026-.04.025-.041.024-.04.026-.041.025-.041.026-.04.025-.04.011-.018.014-.023.026-.041.025-.041.026-.042.025-.04.02-.033v-.008l.026-.041.025-.041.025-.041.025-.041.026-.042v-.008l.02-.033.025-.041.026-.042.025-.041.026-.041.015-.026.01-.016.025-.041.026-.042.025-.042.026-.041.025-.042-.024.006h-.025l-.024.006-.025.006-.024.006h-.024l-.025.006h-.024l-.025.007h-.025l-.024.006h-.025l-.024.007h-.048l-.025.007h-.025l-.049.011-.025.006-.05.011-.025.006-.025.006h-.026l-.025.006h-.025l-.025.006h-.046l-.025.006h-.026l-.025.006-.025.006h-.026l-.025.006-.026.005-.025.006-.026.006h-.051l-.026.006h-.026l-.025.006h-.052l-.025.006h-.027l-.026.006-.025.005-.027.006h-.026l-.026.006h-.052l-.026.006h-.026l-.026.006h-.026l-.026.006h-.027l-.026.005-.026.006h-.027c-7.363 1.5-18.209 2.028-21.552-5.809a10.181 10.181 0 01-.8-4.037c0-11.448 12.226-17.344 22.03-19.086l.326-.058V23.879H92.743l-6.918 17.563h-1.553l.041-20.071h57.2l.033 16.364a10.528 10.528 0 00-2 .147 13.65 13.65 0 00-.874.176l-5.582-14.179h-16.12v29.9q-1.974 2.4-3.861 5.163-1.62 2.379-3.17 5.039c-.339.073-.7.146-1.079.218v-23.89l-.153.033q-1.425.3-2.861.706c-7.234 2.032-13.9 5.79-16.818 13.112a12.651 12.651 0 00-.946 4.72c0 9.661 13.312 8.992 20.778 7.642l.045-.008.224-.041.044-.009.044-.008.044-.008.044-.008.043-.009.13-.025.043-.008.086-.017.043-.008.21-.042.042-.009.041-.008.042-.008.041-.009.04-.008.041-.009.039-.008.04-.009.04-.008.041-.008.04-.009.039-.008.04-.009.039-.008.031-.007h.008l.039-.008.039-.009.039-.008.038-.009.038-.008.039-.009.038-.008.037-.008h.038l.037-.008.037-.009.037-.008.037-.008.037-.009.036-.008.036-.009.037-.008h.009l.026-.006.036-.009.036-.008.07-.017.035-.008.034-.008.035-.009.034-.008.083-.145.025-.045.058-.1.051-.089.031-.055.078-.135v-.009l.083-.144.021-.035.063-.109.046-.078.037-.064.072-.123.012-.019.084-.143.014-.025.069-.117.041-.068.044-.073.066-.112.018-.029.084-.141.009-.014.075-.125.035-.059.05-.081.061-.1.023-.038.085-.139.082-.133.029-.049.056-.09.056-.09.029-.047.082-.134.086-.137.023-.038.113-.179.035-.056.077-.122.008-.014.086-.135.018-.029.068-.106.045-.071.041-.064.072-.112.015-.022.086-.134.012-.019.074-.115.04-.06.047-.073.067-.1.02-.031.094-.142.08-.122.034-.051.053-.081.061-.091.027-.04.087-.131.087-.13.028-.042.06-.088.055-.082.033-.049.082-.12.006-.009.088-.128.022-.032.066-.1.049-.072.039-.057.077-.11.012-.017.088-.127.017-.023.072-.1.044-.062.045-.065.071-.1.018-.025.089-.126.01-.014.079-.111.038-.053.052-.072.065-.091.024-.034.09-.124.086-.119.032-.043.059-.08.059-.082.03-.041.088-.12.09-.122.026-.035.065-.087.054-.072.037-.049.082-.11.008-.012.091-.12q.9-1.2 1.83-2.319a52.92 52.92 0 0116.443-13.43 18.557 18.557 0 014.289-1.555l.032-.007.033-.006h.032l.032-.007.032-.006.032-.006.032-.006h.065l.032-.006h.032l.032-.006.062-.01h1.591a4.318 4.318 0 012.929 1.163 3.921 3.921 0 011.212 2.963q0 2.7-2.551 5.853c-3.991 4.93-11.786 9.88-17.511 12.572a56.06 56.06 0 01-8.661 3.243l-.026.007-.022.007-.026.007-.026.007-.026.008-.026.007-.026.007h-.026l-.026.008-.026.007-.027.007-.026.007-.026.007h-.026l-.026.006-.026.008-.026.007-.026.007-.026.007-.026.007-.026.007-.026.007-.027.007-.026.007-.026.007-.026.007h-.026l-.026.007-.026.007-.026.007-.026.007-.026.007h-.026l-.026.007-.026.006-.027.007-.026.007-.026.007-.023.006-.026.007-.026.007-.027.006-.026.007-.026.007-.026.007h-.022l-.026.007-.026.007-.026.006-.027.007-.026.006h-.026l-.026.007-.026.007-.026.006-.027.007-.026.006h-.026l-.026.007-.026.006-.026.006-.027.007-.026.007-.026.006q-1.957 3.017-3.4 5.124l-.048.071-.048.071-.009.013-.04.056-.048.071-.018.026-.03.043-.048.069-.027.04-.02.03-.049.068-.036.053-.011.016-.048.069-.045.065-.048.068-.047.068-.007.01-.04.057-.048.068-.016.023-.031.044-.047.067-.026.036-.022.031-.047.067-.034.048-.013.018-.047.066-.043.061v.006l-.047.066-.047.065v.007l-.042.058-.047.066-.014.019-.033.046-.047.065-.023.032-.024.033-.047.064-.032.044-.015.021-.046.064-.041.056-.007.008-.046.064-.048.064-.044.061-.047.062-.012.017-.035.047-.047.063-.021.028-.026.035-.047.063-.03.04-.017.022-.048.063-.038.051-.008.011-.048.062-.085.111-.009.013-.047.062-.01.012-.038.049-.047.061-.019.025-.029.037-.047.061-.028.036-.02.025-.047.061-.037.047-.011.014-.047.06-.047.059-.047.061-.049.06-.007.01-.041.05-.048.06-.017.022-.031.038-.048.06-.027.033-.022.027a34.859 34.859 0 01-4.208 4.362 26.857 26.857 0 01-10.084 5.931c3.037 1.544 6.307 3.31 9.71 5.075l.029.016.03.015.029.016.03.015.029.015.03.015.029.016.03.015.03.015.029.015.03.016h.01l.019.01.03.015.03.016.029.014.03.016.029.015.03.016.029.015.03.015.029.016.03.015.03.016.03.014.029.016.03.015.029.015.03.015.03.016h.007l.023.012.029.015.03.016.029.015.03.015.03.015.03.016.029.015.03.015.03.016.03.015.029.016.03.014.03.016.03.015.029.015.03.015.03.016.026.014.029.015.03.016.03.014.03.016.03.015.029.016.03.015.03.015.03.015.03.015.03.016.03.015.03.015.029.015.03.016.03.015c7.312 3.724 15.14 7.236 22.539 8.409 8.206 1.29 16.616.152 23.232-6.845a53.494 53.494 0 10-18.909 12.942 33.151 33.151 0 009.132-1.3l.135-.039A56.629 56.629 0 11112.915-.012zm4.055 64.6a61.759 61.759 0 009.455-3.666c5.432-2.655 12.251-7.335 15.942-12.176 1.237-1.622 3.267-4.9 1.2-6.667a2.959 2.959 0 00-2.014-.8h-1.208l-.044.007h-.262l-.026.006h-.025a21.09 21.09 0 00-6.46 2.919 45.233 45.233 0 00-9.775 9.317q-2.544 3.135-4.562 6.165-1.2 1.81-2.221 3.584l-.013.023-.011.019-.012.022-.013.022-.009.015v.007l-.013.023-.012.022-.013.023-.011.019-.013.022-.012.021-.009.016v.007l-.012.023-.013.022-.012.022-.011.019-.013.023-.012.021-.008.014v.009l-.013.022-.012.022-.013.022-.01.019-.013.023-.012.022-.008.014v.008l-.013.022-.012.022-.012.023-.011.02-.012.022-.013.022-.007.013v.009l-.012.022-.012.022-.012.023-.012.02-.012.022-.012.022-.007.013v.009l-.012.022-.013.022-.012.023-.012.021-.012.022-.012.022-.006.012-.006.01-.012.023-.012.022-.012.022-.011.022-.012.022-.012.022-.006.012-.006.01-.012.023-.012.021-.012.022-.012.022-.011.021-.012.023-.006.011-.006.01-.012.023-.012.022-.012.021h.773zM88.925 86.244c-1.847-.608-16.111-4.338-16.111-.465a.6.6 0 00.2.412 2.749 2.749 0 00.866.528 8.071 8.071 0 002.178.393 45.087 45.087 0 009.821-.22 22.134 22.134 0 003.042-.648zm28.042-18.06l-.245.065-1.336 2.033q-.88 1.326-1.608 2.388c-1.152 1.681-2.24 3.186-3.468 4.658a37.281 37.281 0 01-1.453 1.647v9.744l-2.108.865a187.08 187.08 0 004.574 2.271h10.226V90.6l-4.582-1.881V68.184z"/></svg>