<svg xmlns="http://www.w3.org/2000/svg" width="113.254" height="113.25"><path fill="#6c6966" d="M56.634-.012a56.59 56.59 0 0139.663 96.993c-5.854 6.367-16.392 8.03-24.568 6.7-12.464-2.03-26.173-10.612-36.964-16.76a33.526 33.526 0 01-5.121 1.19 43.267 43.267 0 01-10.032.26 9.9 9.9 0 01-2.609-.5 3.657 3.657 0 01-1.329-.822 1.738 1.738 0 01-.519-1.235 2.647 2.647 0 011.89-2.488c4.591-1.96 14.853.2 19.361 1.778a23.649 23.649 0 009.05-6.059 57.05 57.05 0 007.123-9.02l.025-.039.026-.039.025-.039.026-.039.016-.025.009-.014.025-.038.026-.04.025-.039.026-.039.025-.039.024-.037.026-.039.025-.04.025-.039.026-.04.011-.017.014-.022.025-.04.025-.039.026-.04.025-.04.021-.032v-.006l.025-.041.025-.039.026-.041.025-.04.037-.043v-.008l.02-.031.025-.04.026-.04.025-.04.025-.041.016-.025.01-.015.025-.04.025-.04.025-.041.026-.04.025-.041.024-.04.026-.041.025-.041.026-.04.025-.04.011-.018.014-.023.026-.041.025-.041.026-.042.025-.04.02-.033v-.008l.026-.041.025-.041.025-.041.025-.041.026-.042v-.008l.02-.033.025-.041.026-.042.025-.041.026-.041.015-.026.01-.016.025-.041.026-.042.025-.042.026-.041.025-.042-.024.006h-.025l-.024.006-.025.006-.024.006h-.024l-.025.006h-.024l-.025.007h-.025l-.024.006h-.025l-.024.007h-.048l-.025.007h-.025l-.049.011-.025.006-.05.011-.025.006-.025.006h-.026l-.025.006h-.025l-.025.006h-.046l-.025.006h-.026l-.025.006-.025.006h-.026l-.025.006-.026.005-.025.006-.026.006h-.051l-.026.006h-.026l-.025.006h-.052l-.025.006h-.027l-.026.006-.025.005-.027.006h-.026l-.026.006h-.052l-.026.006h-.026l-.026.006h-.026l-.026.006h-.027l-.026.005-.026.006h-.027c-7.363 1.5-18.209 2.028-21.552-5.809a10.181 10.181 0 01-.8-4.037c0-11.448 12.226-17.344 22.03-19.086l.326-.058V23.879H36.462l-6.918 17.563h-1.553l.041-20.071h57.2l.033 16.364a10.528 10.528 0 00-2 .147 13.65 13.65 0 00-.874.176l-5.582-14.179h-16.12v29.9q-1.974 2.4-3.861 5.163-1.62 2.379-3.17 5.039c-.339.073-.7.146-1.079.218v-23.89l-.153.033q-1.425.3-2.861.706c-7.234 2.032-13.9 5.79-16.818 13.112a12.651 12.651 0 00-.946 4.72c0 9.661 13.312 8.992 20.778 7.642l.045-.008.224-.041.044-.009.044-.008.044-.008.044-.008.043-.009.13-.025.043-.008.086-.017.043-.008.21-.042.042-.009.041-.008.042-.008.041-.009.04-.008.041-.009.039-.008.04-.009.04-.008.041-.008.04-.009.039-.008.04-.009.039-.008.031-.007h.008l.039-.008.039-.009.039-.008.038-.009.038-.008.039-.009.038-.008.037-.008h.038l.037-.008.037-.009.037-.008.037-.008.037-.009.036-.008.036-.009.037-.008h.009l.026-.006.036-.009.036-.008.07-.017.035-.008.034-.008.035-.009.034-.008.083-.145.025-.045.058-.1.051-.089.031-.055.078-.135v-.009l.083-.144.021-.035.063-.109.046-.078.037-.064.072-.123.012-.019.084-.143.014-.025.069-.117.041-.068.044-.073.066-.112.018-.029.084-.141.009-.014.075-.125.035-.059.05-.081.061-.1.023-.038.085-.139.082-.133.029-.049.056-.09.056-.09.029-.047.082-.134.086-.137.023-.038.113-.179.035-.056.077-.122.008-.014.086-.135.018-.029.068-.106.045-.071.041-.064.072-.112.015-.022.086-.134.012-.019.074-.115.04-.06.047-.073.067-.1.02-.031.094-.142.08-.122.034-.051.053-.081.061-.091.027-.04.087-.131.087-.13.028-.042.06-.088.055-.082.033-.049.082-.12.006-.009.088-.128.022-.032.066-.1.049-.072.039-.057.077-.11.012-.017.088-.127.017-.023.072-.1.044-.062.045-.065.071-.1.018-.025.089-.126.01-.014.079-.111.038-.053.052-.072.065-.091.024-.034.09-.124.086-.119.032-.043.059-.08.059-.082.03-.041.088-.12.09-.122.026-.035.065-.087.054-.072.037-.049.082-.11.008-.012.091-.12q.9-1.2 1.83-2.319a52.92 52.92 0 0116.443-13.43 18.557 18.557 0 014.289-1.555l.032-.007.033-.006h.032l.032-.007.032-.006.032-.006.032-.006h.065l.032-.006h.032l.032-.006.062-.01h1.591a4.318 4.318 0 012.929 1.163 3.921 3.921 0 011.212 2.963q0 2.7-2.551 5.853c-3.991 4.93-11.786 9.88-17.511 12.572a56.06 56.06 0 01-8.661 3.243l-.026.007-.022.007-.026.007-.026.007-.026.008-.026.007-.026.007h-.026L60.46 66l-.026.007-.027.007-.026.007-.026.007h-.026l-.026.006-.026.008-.026.007-.026.007-.026.007-.026.007-.026.007-.026.007-.027.007-.026.007-.026.007-.026.007h-.026l-.026.007-.026.007-.026.007-.026.007-.026.007h-.026l-.026.007-.026.006-.027.007-.026.007-.026.007-.023.006-.026.007-.026.007-.027.006-.026.007-.026.007-.026.007h-.022l-.026.007-.026.007-.026.006-.027.007-.026.006h-.026l-.026.007-.026.007-.026.006-.027.007-.026.006h-.026l-.026.007-.026.006-.026.006-.027.007-.026.007-.026.006q-1.957 3.017-3.4 5.124l-.048.071-.048.071-.009.013-.04.056-.048.071-.018.026-.03.043-.048.069-.027.04-.02.03-.049.068-.036.053-.011.016-.048.069-.045.065-.048.068-.047.068-.007.01-.04.057-.048.068-.016.023-.031.044-.047.067-.026.036-.022.031-.047.067-.034.048-.013.018-.047.066-.043.061v.006l-.047.066-.047.065v.007l-.042.058-.047.066-.014.019-.033.046-.047.065-.023.032-.024.033-.047.064-.032.044-.015.021-.046.064-.041.056-.007.008-.046.064-.048.064-.044.061-.047.062-.012.017-.035.047-.047.063-.021.028-.026.035-.047.063-.03.04-.017.022-.048.063-.038.051-.008.011-.048.062-.085.111-.009.013-.047.062-.01.012-.038.049-.047.061-.019.025-.029.037-.047.061-.028.036-.02.025-.047.061-.037.047-.011.014-.047.06-.047.059-.047.061-.049.06-.007.01-.041.05-.048.06-.017.022-.031.038-.048.06-.027.033-.022.027a34.859 34.859 0 01-4.208 4.362 26.857 26.857 0 01-10.084 5.931c3.037 1.544 6.307 3.31 9.71 5.075l.029.016.03.015.029.016.03.015.029.015.03.015.029.016.03.015.03.015.029.015.03.016h.01l.019.01.03.015.03.016.029.014.03.016.029.015.03.016.029.015.03.015.029.016.03.015.03.016.03.014.029.016.03.015.029.015.03.015.03.016h.007l.023.012.029.015.03.016.029.015.03.015.03.015.03.016.029.015.03.015.03.016.03.015.029.016.03.014.03.016.03.015.029.015.03.015.03.016.026.014.029.015.03.016.03.014.03.016.03.015.029.016.03.015.03.015.03.015.03.015.03.016.03.015.03.015.029.015.03.016.03.015c7.312 3.724 15.14 7.236 22.539 8.409 8.206 1.29 16.616.152 23.232-6.845a53.494 53.494 0 10-18.909 12.942 33.151 33.151 0 009.132-1.3l.135-.039A56.629 56.629 0 1156.634-.012zm4.055 64.6a61.759 61.759 0 009.455-3.666c5.432-2.655 12.251-7.335 15.942-12.176 1.237-1.622 3.267-4.9 1.2-6.667a2.959 2.959 0 00-2.014-.8h-1.208l-.044.007h-.262l-.026.006h-.025a21.09 21.09 0 00-6.46 2.919 45.233 45.233 0 00-9.775 9.317q-2.544 3.135-4.562 6.165-1.2 1.81-2.221 3.584l-.013.023-.011.019-.012.022-.013.022-.009.015v.007l-.013.023-.012.022-.013.023-.011.019-.013.022-.012.021-.009.016v.007l-.012.023-.013.022-.012.022-.011.019-.013.023-.012.021-.008.014v.009l-.013.022-.012.022-.013.022-.01.019-.013.023-.012.022-.008.014v.008l-.013.022-.012.022-.012.023-.011.02-.012.022-.013.022-.007.013v.009l-.012.022-.012.022-.012.023-.012.02-.012.022-.012.022-.007.013v.009l-.012.022-.013.022-.012.023-.012.021-.012.022-.012.022-.006.012-.006.01-.012.023-.012.022-.012.022-.011.022-.012.022-.012.022-.006.012-.006.01-.012.023-.012.021-.012.022-.012.022-.011.021-.012.023-.006.011-.006.01-.012.023-.012.022-.012.021h.773zM32.644 86.244c-1.847-.608-16.111-4.338-16.111-.465a.6.6 0 00.2.412 2.749 2.749 0 00.866.528 8.071 8.071 0 002.178.393 45.087 45.087 0 009.821-.22 22.134 22.134 0 003.042-.648zm28.042-18.06l-.245.065-1.336 2.033q-.88 1.326-1.608 2.388c-1.152 1.681-2.24 3.186-3.468 4.658a37.281 37.281 0 01-1.453 1.647v9.744l-2.108.865a187.08 187.08 0 004.574 2.271h10.226V90.6l-4.582-1.881V68.184z"/></svg>