<svg id="карта" xmlns="http://www.w3.org/2000/svg" width="511" height="434"><defs><style>.cls-1,.cls-4{fill:#868685}.cls-1,.cls-4,.cls-5,.cls-6{fill-rule:evenodd}.cls-1{opacity:.2}.cls-5{fill:#515151}</style></defs><g id="Layer_4" data-name="Layer 4"><path id="_Ellipse_" data-name="&lt;Ellipse&gt;" class="cls-1" d="M2293.48 5280.2a31.69 31.69 0 11-31.66 31.69 31.68 31.68 0 0131.66-31.69z" transform="translate(-2022 -5174)"/><path id="_Ellipse_2" data-name="&lt;Ellipse&gt;" class="cls-1" d="M2293.48 5264.22a47.67 47.67 0 11-47.62 47.67 47.643 47.643 0 0147.62-47.67z" transform="translate(-2022 -5174)"/><path id="_Ellipse_3" data-name="&lt;Ellipse&gt;" class="cls-1" d="M2293.48 5240.42a71.47 71.47 0 11-71.39 71.47 71.43 71.43 0 0171.39-71.47z" transform="translate(-2022 -5174)"/><path id="_Ellipse_4" data-name="&lt;Ellipse&gt;" class="cls-1" d="M2293.48 5212.3a99.59 99.59 0 11-99.48 99.59 99.537 99.537 0 0199.48-99.59z" transform="translate(-2022 -5174)"/></g><g id="Layer_2" data-name="Layer 2"><path id="_Path_" data-name="&lt;Path&gt;" d="M2532.68 5206.1L2335.21 5314a129.48 129.48 0 01-1.16 23.45c-.12.99-.23 1.97-.34 2.95-1.03 9.3-5.57 68.04-10.38 130.24-4.29 55.56-8.73 113.02-10.84 137.3l-6.78-.59c.79-9.1 1.91-22.88 3.22-39.48l-286.62-154.28v-7.74l287.21 154.6c2.08-26.4 4.58-58.67 7.02-90.35 4.81-62.24 9.35-121.04 10.4-130.45.11-.99.23-1.98.34-2.99 2.01-17.35 4.29-37.03-15.22-71.55-7.05-12.49-19.7-34.82-33.4-59.01h7.83c12.96 22.89 24.77 43.75 31.5 55.65 10.27 18.19 14.8 32.71 16.5 44.88l183.98-100.53h14.21z" transform="translate(-2022 -5174)" fill="#ddd" fill-rule="evenodd"/><path id="_Path_2" data-name="&lt;Path&gt;" d="M2299.9 5309.21l-21.84-37.85-10.26 5.93 19.7 34.15-53.13 30.71 5.92 10.27 56.65-32.74-.96-1.66a5.347 5.347 0 003.2-4.91 5.406 5.406 0 00-.89-2.97z" transform="translate(-2022 -5174)" fill="#fff" fill-rule="evenodd"/><path id="_Path_3" data-name="&lt;Path&gt;" class="cls-4" d="M2280.54 5398.61l4.6-42.99 20.19 2.8 1.09 20.2-3.95 2.86a12.189 12.189 0 01-2.41 9 76.2 76.2 0 01-7.68 8.13h-11.84z" transform="translate(-2022 -5174)"/><path id="_Compound_Path_" data-name="&lt;Compound Path&gt;" class="cls-4" d="M2295.33 5468.16l-.29 7.46 6.68.26.29-7.46zm-2.16-19.32l-1.15-.04.24-6.04 1.64.07.09-2.09 3.39.14.31-7.79-2.3-.09.12-3.3.11-2.63.06-1.64-12.05-.48-.17 4.28 1.09.04-.16 4.17.99.04-.19 4.83-2.08-.08-.13 3.29-1.98-.08-.33 8.56 1.31.05-.12 3.19.66.02-.2 4.94-1.97-.08-.12 3.19-1.32-.06-.17 4.28-3.83-.15-.05 1.21-1.75-.07.02-.66-3.61-.14-.06 1.43-3.4-.14.08-1.97-3.18-.13.08-2.08-4.93-.19-.48 12.4 4.93.19-.12 2.96 3.18.13 4.34.17.05-1.43 1.37.05 1.31.05 1.76.07-.13 3.08 2.2.08-.06 1.43 8.55.33.06-1.42.87.03a4.819 4.819 0 004.99-4.42l2.76.11.18-4.72-1.59-.06.17-4.39-1.15-.05.05-1.2-.44-.02.16-3.95 3.17.12.09-2.19.05-1.32.23-5.92-1.59-.06z" transform="translate(-2022 -5174)"/><path id="_Path_4" data-name="&lt;Path&gt;" class="cls-4" d="M2284.68 5510.92l-19.93-2.42-.27 2.18-3.26-.4-.66 5.45 3.26.4-.26 2.18 19.93 2.42a4.941 4.941 0 001.19-9.81z" transform="translate(-2022 -5174)"/><path id="_Rectangle_" data-name="&lt;Rectangle&gt;" class="cls-4" d="M2295.36 5523.41l4.57.35-.63 8.32-4.57-.34z" transform="translate(-2022 -5174)"/><path id="_Compound_Path_2" data-name="&lt;Compound Path&gt;" class="cls-4" d="M2221.94 5360.49l1.55-2.9-12.8-6.52-1.6 2.98 1.21.61-1.56 2.91 1.61.81-2.97 5.55-.77-.4-1.68 3.12-.7-.36-3.59 6.71 1.56.79-1.47 2.74.48.25-1.66 3.13-.53-.27-1.46 2.75-1.55-.78-3.56 6.72.7.35-1.65 3.13.77.39-2.94 5.56-1.61-.81-1.54 2.91-1.2-.61-1.59 2.99 12.84 6.46 1.54-2.91 1.23-2.33 1.73.88 3.3-6.22-1.64-.82 4.88-9.21 2.73 1.38 1.78-3.36 1.65-3.11.05.02 1.81-3.38-2.73-1.39 2.02-3.78 2.89-5.4 1.63.83 3.32-6.21-1.72-.88z" transform="translate(-2022 -5174)"/><path id="_Compound_Path_3" data-name="&lt;Compound Path&gt;" class="cls-4" d="M2225.84 5470.47l2.9 1.55 6.52-12.82-2.98-1.59-.61 1.2-2.9-1.55-.82 1.6-5.54-2.97.4-.77-3.12-1.67.36-.71-6.69-3.59-.79 1.55-2.74-1.47-.25.49-3.13-1.67.26-.53-2.74-1.46.78-1.55-6.71-3.56-.35.7-3.13-1.66-.39.78-5.55-2.94.81-1.62-2.91-1.54.61-1.21-2.98-1.58-6.46 12.85 2.91 1.54 2.32 1.23-.87 1.74 6.21 3.29.82-1.63 9.2 4.88-1.38 2.74 3.36 1.78 3.1 1.65-.02.05 3.37 1.81 1.39-2.73 3.78 2.02 5.4 2.9-.83 1.63 6.2 3.32.88-1.73z" transform="translate(-2022 -5174)"/><path id="_Compound_Path_4" data-name="&lt;Compound Path&gt;" class="cls-4" d="M2350.8 5363.25l-1.84 27.29 61.07 4.12 1.84-27.28zm-3.17 47.01l54.42 3.56.88-13.15-54.41-3.56zm-1.21 18.08l-.4 5.91-.24 3.62-3.62-.25-1.06 15.82 10.5.71.41-5.96 27.25 1.84.26-3.94 12.81.86.31-4.6 5.58.38 1.46-21.7-52.53-3.54z" transform="translate(-2022 -5174)"/><path id="_Path_5" data-name="&lt;Path&gt;" class="cls-4" d="M2347.63 5330.92l21.1-5.89 26.98 2.95 1.65-11.84-36.2-3.03-12.2 4.02z" transform="translate(-2022 -5174)"/><path id="_Rectangle_2" data-name="&lt;Rectangle&gt;" class="cls-4" d="M2345.06 5272.74l107.62-56.35 6.41 12.27-107.62 56.34z" transform="translate(-2022 -5174)"/><path id="_Path_6" data-name="&lt;Path&gt;" class="cls-4" d="M2236.53 5277.76l-4.26-8.15-73.2 38.33 3.18 6.08-25.05 13.12 4.26 8.15 27.1-14.19-3.18-6.09z" transform="translate(-2022 -5174)"/><path id="_Compound_Path_5" data-name="&lt;Compound Path&gt;" class="cls-4" d="M2387.65 5471.12l-25.5-2.32-2.93 32.16 25.51 2.33zm61.23 53.11l2.74-30.17-6.48-.59 1.91-21.07-6.01-.55 1.66-18.28-16.16-1.48-1.66 18.29-4.39-.4-1.15 12.7-25.82-2.35-2.53 27.8-40.68-3.71 2.8-30.82-15.57-1.41-3.22 35.46-2.84-.25-6.34 69.8 31.18 2.84-.64 7.01 20.83 1.9 1.11-12.22 23.7 2.16-2.05 22.58 34.14 3.11 2.93-32.16-14.82-1.35 4.44-48.93zm-45.08 31.76l-24.09-2.2 2.4-26.46 24.09 2.19z" transform="translate(-2022 -5174)"/><path id="_Path_7" data-name="&lt;Path&gt;" class="cls-4" d="M2409.61 5191.85l9.34-4.88-6.77-12.96-9.34 4.89-1.1.57-2.86-5.47-17.49 9.16 2.86 5.48-5.94 3.1-.59.31-2.09 1.09 6.77 12.96 9.34-4.89-3.6-6.89 17.87-9.36z" transform="translate(-2022 -5174)"/><path id="_Rectangle_3" data-name="&lt;Rectangle&gt;" class="cls-4" d="M2241.24 5494.76l12.99 6.12-7.5 15.95-12.99-6.13z" transform="translate(-2022 -5174)"/><path id="_Compound_Path_6" data-name="&lt;Compound Path&gt;" class="cls-4" d="M2162.22 5418.58l-10.24-4.83 1.72-3.64-8.4-3.95-1.71 3.64-10.23-4.83-3.39 7.2-19.09-9 7.03-14.94 3.14-6.67-10.73-5.06-3.14 6.67-6.97-3.29-8.34 17.73-5.89 12.52 11.8 5.56 2.06-4.39 25 11.79-9.13 19.41 28.86 13.6 5.63-11.98 2.72 1.29 5.14-10.92-2.73-1.28zm-88.74-45.63l-5.66 12.03 13.35 6.29 5.66-12.03z" transform="translate(-2022 -5174)"/><path id="_Compound_Path_7" data-name="&lt;Compound Path&gt;" class="cls-4" d="M2477.1 5341.28a38.6 38.6 0 0127.01 66.13c-3.99 4.34-11.17 5.47-16.73 4.56-8.49-1.38-17.83-7.23-25.18-11.42a23.487 23.487 0 01-3.48.81 30.089 30.089 0 01-6.84.18 7.145 7.145 0 01-1.77-.34 2.68 2.68 0 01-.91-.56 1.221 1.221 0 01-.35-.85 1.794 1.794 0 011.29-1.69c3.12-1.34 10.11.13 13.18 1.21a16.075 16.075 0 006.16-4.13 38.338 38.338 0 004.85-6.15l.02-.03.02-.02.02-.03.01-.03.01-.01.01-.01.02-.03.01-.03.02-.02.02-.03.02-.03.01-.02.02-.03.02-.03.02-.02.01-.03.01-.01.01-.02.02-.02.01-.03.02-.03.02-.03.01-.02h.01l.01-.03.02-.03.02-.02.02-.03.01-.03h.01l.01-.03.02-.02.01-.03.02-.03.02-.02.01-.02.01-.01.01-.03.02-.03.02-.02.02-.03.01-.03.02-.03.02-.02.01-.03.02-.03.02-.03.01-.01.01-.02.01-.02.02-.03.02-.03.02-.03.01-.02.02-.03.02-.03.01-.03.02-.03.02-.02v-.01l.02-.02.01-.03.02-.03.02-.03.02-.03.01-.01v-.01l.02-.03.02-.03.01-.03.02-.03.02-.03-.02.01h-.01l-.02.01h-.03l-.02.01h-.03l-.02.01h-.02l-.01.01h-.04l-.01.01h-.02l-.02.01h-.02l-.03.01h-.02l-.03.01h-.02l-.01.01h-.04l-.02.01h-.02l-.01.01h-.03l-.02.01h-.04l-.01.01h-.02l-.02.01h-.03l-.02.01h-.02l-.02.01h-.03l-.02.01h-.03l-.02.01h-.02l-.02.01h-.03l-.02.01h-.04l-.01.01h-.04l-.02.01h-.01l-.02.01h-.04l-.02.01c-5.01 1.02-12.4 1.38-14.67-3.96a6.905 6.905 0 01-.55-2.76c0-7.8 8.33-11.82 15-13.01l.22-.04v-10.18h-10.97l-4.71 11.97h-1.06l.03-13.68h38.95l.02 11.15a7.856 7.856 0 00-1.36.1l-.6.12-3.8-9.66h-10.97v20.39a43.557 43.557 0 00-2.63 3.52c-.74 1.08-1.46 2.22-2.16 3.43-.23.05-.48.1-.74.15v-16.29l-.1.02q-.975.21-1.95.48c-4.93 1.39-9.47 3.95-11.45 8.94a8.649 8.649 0 00-.65 3.22c0 6.59 9.07 6.13 14.15 5.21l.03-.01.16-.02.03-.01h.03l.03-.01.03-.01h.03l.08-.02h.03l.06-.02h.03l.14-.03.03-.01h.03l.03-.01h.03l.03-.01h.02l.03-.01.03-.01h.03l.02-.01h.03l.03-.01h.02l.03-.01.02-.01h.03l.03-.01h.03l.02-.01.03-.01h.03l.02-.01h.03l.01-.01h.04l.02-.01.03-.01h.02l.03-.01h.02l.03-.01h.02l.01-.01h.02l.02-.01h.03l.04-.01.03-.01h.02l.02-.01.03-.01.05-.09.02-.03.04-.07.03-.06.03-.04.05-.09v-.01l.06-.1.01-.02.05-.08.03-.05.02-.04.05-.09.01-.01.06-.1.01-.01.04-.08.03-.05.03-.05.05-.08.01-.02.06-.09v-.01l.05-.09.03-.04.03-.05.04-.07.02-.03.06-.09v-.01l.05-.09.02-.03.04-.06.04-.06.02-.03.06-.1.06-.09.01-.03.08-.12.02-.04.05-.08.01-.01.06-.09.01-.02.05-.08.03-.04.03-.05.05-.07.01-.02.05-.09.01-.01.05-.08.03-.04.03-.05.05-.07.01-.02.07-.1.05-.08.02-.04.04-.05.04-.06.02-.03.06-.09.06-.09.02-.03.04-.06.03-.05.03-.04.05-.08.01-.01.06-.08.01-.02.05-.07.03-.05.03-.04.05-.07.01-.02.06-.08.01-.02.05-.07.03-.04.03-.04.05-.07.01-.02.06-.09.01-.01.05-.07.03-.04.03-.05.05-.06.01-.02.06-.09h.01l.05-.08.03-.03.04-.06.04-.05.02-.03.06-.08.06-.09.02-.02.04-.06.04-.05.02-.03.06-.08h.01l.06-.09c.41-.54.82-1.07 1.24-1.58a36.178 36.178 0 0111.19-9.13 12.787 12.787 0 012.92-1.06h.02l.02-.01h.03l.02-.01h.02l.02-.01h.05l.02-.01h.04l.02-.01.05-.01h.04l.02-.01h.05l.02-.01h.06l.03-.01h.06l.02-.01h.07l.02-.01h.09l.02-.01h.15l.02-.01h.41a2.948 2.948 0 011.99.8 2.672 2.672 0 01.83 2.02 6.578 6.578 0 01-1.74 3.99c-2.72 3.36-8.03 6.73-11.93 8.57a37.512 37.512 0 01-5.89 2.21h-.02l-.02.01h-.02l-.01.01h-.02l-.02.01h-.02l-.01.01h-.02l-.02.01h-.02l-.02.01h-.01l-.02.01h-.02l-.02.01h-.01l-.02.01h-.02l-.02.01h-.02l-.01.01h-.02l-.02.01h-.02l-.01.01h-.04l-.02.01h-.02l-.01.01h-.02l-.01.01h-.03l-.01.01h-.02l-.02.01h-.02l-.01.01h-.02l-.02.01h-.02l-.02.01h-.03l-.01.01h-.03l-.02.01h-.01l-.02.01h-.03l-.01.01h-.02l-.01.01h-.04l-.02.01h-.01l-.02.01h-.02l-.02.01h-.02l-.01.01h-.02c-.89 1.37-1.66 2.54-2.32 3.49l-.03.05-.03.05-.01.01-.03.04-.03.05-.01.01-.02.03-.04.05-.01.03-.02.02-.03.04-.03.04v.01l-.04.05-.03.04-.03.05-.03.05h-.01l-.03.04-.03.05-.01.01-.02.04-.03.04-.02.03-.01.02-.04.04-.02.03-.01.02-.03.04-.03.04v.01l-.03.04-.04.05-.03.04-.03.05-.01.01-.02.03-.03.04-.02.03-.02.02-.03.04-.02.03-.01.02-.03.04-.03.04-.04.05-.03.04-.03.04-.03.05-.01.01-.02.03-.04.04-.01.02-.02.03-.03.04-.02.03-.01.01-.03.04-.03.04-.01.01-.03.04-.06.08-.03.05h-.01l-.03.04-.03.04-.01.02-.02.02-.03.04-.02.03-.02.02-.03.04-.02.03-.01.01-.03.04-.04.04-.03.04-.03.04-.01.01-.02.03-.04.04-.01.02-.02.03-.03.04-.02.02-.02.02a23.29 23.29 0 01-2.86 2.97 18.19 18.19 0 01-6.87 4.04c2.07 1.06 4.3 2.26 6.61 3.46l.02.02.02.01.02.01.02.01.02.01.02.01.02.01.02.01.02.01.02.01.02.01h.01l.01.01.03.01.02.01.02.01.02.01.02.01.02.01.02.01.02.01.02.01.02.01.02.01.02.02.02.01.02.01.02.01.02.01.02.01.02.01.02.01.02.01.02.01.02.01.02.01.02.01.02.01.02.01.02.01.02.01.02.01.02.01.02.01.02.01.02.01.02.01.02.01v.01h.02l.02.01.02.02.02.01.02.01.02.01.02.01.02.01.03.01.02.01.02.01.02.01.02.01.02.01.02.01.02.01.02.01c4.98 2.54 10.31 4.93 15.35 5.73 5.58.88 11.31.11 15.82-4.66a36.43 36.43 0 10-12.88 8.82 22.739 22.739 0 006.22-.88l.09-.03a38.593 38.593 0 11-20.01-71.61zm2.76 44.04a42.445 42.445 0 006.44-2.5c3.7-1.81 8.34-5 10.85-8.3.84-1.11 2.23-3.34.82-4.55a2.007 2.007 0 00-1.37-.54h-.02l-.01-.01h-.28l-.01.01h-.15l-.02.01h-.08l-.02.01h-.08l-.02.01h-.05l-.02.01h-.05l-.02.01h-.05l-.02.01h-.03l-.02.01h-.03l-.02.01h-.03l-.02.01h-.02a14.45 14.45 0 00-4.4 1.99 30.816 30.816 0 00-6.65 6.35q-1.74 2.145-3.11 4.2c-.55.83-1.05 1.64-1.51 2.45l-.01.01v.01l-.01.01-.01.01-.01.02v.01h-.01l-.01.02v.01l-.01.02-.01.01-.01.02-.01.01v.01l-.01.01-.01.01v.02l-.01.02-.01.01-.01.02-.01.01v.01l-.01.01-.01.01v.02l-.01.01-.01.02-.01.01-.01.02v.01h-.01v.02l-.01.01-.01.02-.01.01-.01.02-.01.01v.02l-.01.01-.01.02-.01.01-.01.02-.01.01v.02l-.01.01-.01.02-.01.01-.01.02-.01.01v.02l-.01.01-.01.01v.01l-.01.01-.01.02v.01h-.01v.02l-.01.01-.01.02v.01h-.01l-.01.02v.01l-.01.02-.01.01-.01.02-.01.02v.01l-.01.02-.01.01-.01.01h.04v-.01h.03l.01-.01h.02l.01-.01h.03v-.01h.03l.01-.01h.02l.01-.01h.03v-.01h.03l.01-.01h.02l.01-.01h.04v-.01h.03l.01-.01h.02l.01-.01h.03v-.01h.03l.01-.01h.02l.01-.01h.02zm-19.1 14.77c-1.26-.42-10.97-2.96-10.97-.32a.417.417 0 00.14.28 1.664 1.664 0 00.59.36 5.253 5.253 0 001.48.27 31.165 31.165 0 006.69-.15 15.288 15.288 0 002.07-.44zm19.1-12.32l-.17.05-.91 1.38c-.4.61-.77 1.15-1.09 1.63-.79 1.15-1.53 2.17-2.37 3.18-.31.38-.64.75-.99 1.12v6.64l-1.43.59c1.02.53 2.06 1.05 3.11 1.55h6.97v-.85l-3.12-1.29v-14z" transform="translate(-2022 -5174)"/><path id="_Path_8" data-name="&lt;Path&gt;" class="cls-4" d="M2310.12 5561.55l-.92-.5-287.21-154.6.65-1.2 286.29 154.1c2.21-28.09 4.86-62.42 6.94-89.3 4.8-62.25 9.34-121.04 10.4-130.48q.12-1.065.24-2.16l.1-.82c2-17.27 4.26-36.82-15.14-71.15-7.05-12.48-19.7-34.81-33.4-59l1.18-.68c13.71 24.19 26.35 46.53 33.41 59.01 19.61 34.71 17.32 54.5 15.3 71.96l-.09.84c-.09.72-.17 1.44-.25 2.15-1.05 9.42-5.59 68.2-10.4 130.44-2.1 27.21-4.79 62.06-7.02 90.34z" transform="translate(-2022 -5174)"/><path id="_Path_9" data-name="&lt;Path&gt;" class="cls-4" d="M2306.39 5607.41l-1.36-.12c.73-8.35 1.77-21.11 3.19-39.03l-286.23-154.07.65-1.2 287.01 154.49-.04.45c-1.44 18.15-2.49 31.06-3.22 39.48z" transform="translate(-2022 -5174)"/><path id="_Path_10" data-name="&lt;Path&gt;" class="cls-4" d="M2313.17 5608l-1.36-.12c2.14-24.62 6.77-84.48 10.85-137.3l.23-3.09c4.7-60.69 9.13-118.01 10.15-127.17l.04-.4c.1-.84.19-1.69.29-2.55a128.48 128.48 0 001.16-23.34l-.02-.43.37-.2 197.47-107.9.65 1.2-197.09 107.69a131.641 131.641 0 01-1.19 23.14c-.1.85-.19 1.7-.29 2.54l-.04.41c-1.02 9.13-5.45 66.44-10.14 127.12l-.24 3.09c-4.08 52.82-8.7 112.69-10.84 137.31z" transform="translate(-2022 -5174)"/><path id="_Path_11" data-name="&lt;Path&gt;" class="cls-4" d="M2333.95 5307.7l-.14-.98c-1.95-13.94-7.32-28.53-16.41-44.63-6.73-11.9-18.54-32.77-31.5-55.65l1.19-.68c12.95 22.89 24.76 43.75 31.49 55.66 8.97 15.87 14.36 30.32 16.44 44.14l183.12-100.06.65 1.2z" transform="translate(-2022 -5174)"/><g id="_Group_" data-name="&lt;Group&gt;"><path id="_Path_12" data-name="&lt;Path&gt;" class="cls-5" d="M2431.36 5360.21l-128.76-43.8.44-1.29 128.76 43.8z" transform="translate(-2022 -5174)"/><g id="_Group_2" data-name="&lt;Group&gt;"><path id="_Path_13" data-name="&lt;Path&gt;" class="cls-5" d="M2295.04 5313.11a40.98 40.98 0 0013.1-2.39l-4.3 5.39.13 6.89a41.319 41.319 0 00-8.93-9.89z" transform="translate(-2022 -5174)"/></g></g><g id="_Group_3" data-name="&lt;Group&gt;"><path id="_Compound_Path_8" data-name="&lt;Compound Path&gt;" class="cls-6" d="M2310.14 5479.7c-.9-.02-1.98-.05-2.77-.12l-.01.03c.74.28 1.52.6 2.38.99l3.02 1.37-.05.63-3.13.81c-.92.23-1.77.43-2.55.55v.02c.8.08 1.87.21 2.83.34l2.73.38-.06.79-6.37-.93.08-1.06 3.18-.86c.81-.21 1.53-.37 2.21-.48v-.03c-.63-.21-1.32-.5-2.11-.84l-3.01-1.38.08-1.06 6.44.09-.06.81z" transform="translate(-2022 -5174)"/><path id="_Compound_Path_9" data-name="&lt;Compound Path&gt;" class="cls-6" d="M2311.1 5473.35a2.259 2.259 0 012.27 2.48 2.194 2.194 0 01-2.54 2.03 2.263 2.263 0 01-2.27-2.47 2.184 2.184 0 012.54-2.04zm-.23 3.66a1.445 1.445 0 10.19-2.8 1.444 1.444 0 10-.19 2.8z" transform="translate(-2022 -5174)"/><path id="_Compound_Path_10" data-name="&lt;Compound Path&gt;" class="cls-6" d="M2313.6 5469.17a3.229 3.229 0 01.16 1.35 2.182 2.182 0 01-2.52 2.11 2.343 2.343 0 01-2.26-2.66 2.875 2.875 0 01.33-1.14l.63.24a1.9 1.9 0 00-.29.95 1.74 1.74 0 003.46.29 2.566 2.566 0 00-.15-1.04z" transform="translate(-2022 -5174)"/><path id="_Compound_Path_11" data-name="&lt;Compound Path&gt;" class="cls-6" d="M2309.3 5467.03l2 .15.01-.2-1.86-1.88.07-1.02 1.94 2.16a1.938 1.938 0 011.51-1.44 10.315 10.315 0 001.16-.41l-.07.87a5.32 5.32 0 01-.97.36 1.5 1.5 0 00-1.2 1.44l-.01.16 2.02.16-.06.83-4.6-.35z" transform="translate(-2022 -5174)"/><path id="_Compound_Path_12" data-name="&lt;Compound Path&gt;" class="cls-6" d="M2312.16 5459.36a2.259 2.259 0 012.27 2.48 2.2 2.2 0 01-2.54 2.03 2.263 2.263 0 01-2.27-2.47 2.184 2.184 0 012.54-2.04zm-.23 3.66a1.444 1.444 0 10-1.68-1.56 1.571 1.571 0 001.68 1.56z" transform="translate(-2022 -5174)"/><path id="_Compound_Path_13" data-name="&lt;Compound Path&gt;" class="cls-6" d="M2310.03 5458.16a9.2 9.2 0 01.01-1.48c.05-.77.27-2.04 1.3-1.96a1.1 1.1 0 01.97 1.04h.01a1.181 1.181 0 011.23-1.08c1.21.09 1.25 1.62 1.18 2.53-.04.51-.12 1.04-.15 1.29zm1.93-.66l.05-.63c.05-.62-.08-1.27-.63-1.31-.45-.04-.7.35-.77 1.18-.02.28-.01.45-.01.65zm2.12.17a4.66 4.66 0 00.09-.68c.05-.56-.02-1.41-.69-1.46s-.86.61-.92 1.41l-.05.61z" transform="translate(-2022 -5174)"/><path id="_Compound_Path_14" data-name="&lt;Compound Path&gt;" class="cls-6" d="M2315.02 5450.42a3.229 3.229 0 01.16 1.35 2.191 2.191 0 01-2.52 2.11 2.343 2.343 0 01-2.26-2.66 2.718 2.718 0 01.33-1.14l.63.24a1.9 1.9 0 00-.29.95 1.74 1.74 0 003.46.29 2.6 2.6 0 00-.15-1.04z" transform="translate(-2022 -5174)"/><path id="_Compound_Path_15" data-name="&lt;Compound Path&gt;" class="cls-6" d="M2310.72 5448.28l2 .15.01-.2-1.86-1.88.07-1.02 1.93 2.16a1.951 1.951 0 011.52-1.44 10.315 10.315 0 001.16-.41l-.07.87a5.624 5.624 0 01-.97.36 1.5 1.5 0 00-1.2 1.44l-.01.17 2.02.15-.06.83-4.6-.35z" transform="translate(-2022 -5174)"/><path id="_Compound_Path_16" data-name="&lt;Compound Path&gt;" class="cls-6" d="M2311.06 5443.78l1.94.15c.73.05 1.19.1 1.84.18l.01-.02c-.54-.32-.85-.51-1.36-.85l-2.27-1.62.08-.98 4.6.35-.06.8-1.95-.15c-.75-.06-1.14-.11-1.88-.2v.03c.57.34.92.56 1.37.87.68.49 1.52 1.06 2.3 1.62l-.08.96-4.6-.35z" transform="translate(-2022 -5174)"/><path id="_Compound_Path_17" data-name="&lt;Compound Path&gt;" class="cls-6" d="M2309.63 5437.82a.645.645 0 00.76-.55.67.67 0 00-.67-.71l.05-.59a1.147 1.147 0 011.08 1.35 1.109 1.109 0 01-1.27 1.11zm1.83.69l1.94.14c.73.06 1.19.1 1.84.19l.01-.03c-.54-.31-.85-.5-1.36-.85l-2.27-1.62.08-.98 4.6.35-.06.8-1.95-.14c-.75-.06-1.14-.11-1.88-.2v.02c.57.34.92.57 1.37.87.68.5 1.52 1.07 2.3 1.62l-.08.97-4.6-.35z" transform="translate(-2022 -5174)"/><path id="_Compound_Path_18" data-name="&lt;Compound Path&gt;" class="cls-6" d="M2312.24 5428.2l4.6.35-.06.83-3.94-.29-.16 2.14 3.94.3-.07.83-4.6-.35z" transform="translate(-2022 -5174)"/><path id="_Compound_Path_19" data-name="&lt;Compound Path&gt;" class="cls-6" d="M2313.84 5426.95c-.59-.04-1.06-.06-1.5-.07l.05-.76.8.03v-.02a1.816 1.816 0 01-.77-1.71 2.088 2.088 0 012.49-1.77 2.18 2.18 0 012.31 2.28 1.614 1.614 0 01-.83 1.36v.02l2.5.19-.06.83zm1.29-.73a1.988 1.988 0 00.35-.01 1.3 1.3 0 001.07-1.19c.07-.88-.61-1.45-1.67-1.53a1.507 1.507 0 00-1.82 1.24 1.335 1.335 0 00.95 1.34 1.241 1.241 0 00.33.09z" transform="translate(-2022 -5174)"/><path id="_Compound_Path_20" data-name="&lt;Compound Path&gt;" class="cls-6" d="M2315.33 5417.42a2.264 2.264 0 012.27 2.48 2.194 2.194 0 01-2.54 2.03 2.253 2.253 0 01-2.27-2.47 2.2 2.2 0 012.54-2.04zm-.23 3.66a1.574 1.574 0 001.88-1.26 1.6 1.6 0 00-1.69-1.54 1.443 1.443 0 10-.19 2.8z" transform="translate(-2022 -5174)"/><path id="_Compound_Path_21" data-name="&lt;Compound Path&gt;" class="cls-6" d="M2317.83 5413.25a3.176 3.176 0 01.16 1.34 2.189 2.189 0 01-2.52 2.12 2.353 2.353 0 01-2.26-2.66 2.822 2.822 0 01.33-1.14l.63.23a1.942 1.942 0 00-.29.96 1.6 1.6 0 001.62 1.76 1.582 1.582 0 001.84-1.47 2.62 2.62 0 00-.15-1.05z" transform="translate(-2022 -5174)"/><path id="_Compound_Path_22" data-name="&lt;Compound Path&gt;" class="cls-6" d="M2313.75 5408.15l4.61.34-.06.84-3.94-.3-.16 2.15 3.93.29-.06.83-4.6-.35z" transform="translate(-2022 -5174)"/><path id="_Compound_Path_23" data-name="&lt;Compound Path&gt;" class="cls-6" d="M2316.35 5406.51a1.481 1.481 0 001.71-1.46 3.005 3.005 0 00-.14-1.3l.61-.09a3.653 3.653 0 01.17 1.55 2.14 2.14 0 01-2.49 2.09 2.242 2.242 0 01-2.32-2.35 1.961 1.961 0 012.31-1.74 2.146 2.146 0 01.39.06zm-.42-2.51a1.2 1.2 0 00-1.45 1.06 1.4 1.4 0 001.27 1.39z" transform="translate(-2022 -5174)"/><path id="_Compound_Path_24" data-name="&lt;Compound Path&gt;" class="cls-6" d="M2314.28 5401.19l2 .15.01-.2-1.86-1.88.07-1.02 1.94 2.16a1.938 1.938 0 011.51-1.44 10.315 10.315 0 001.16-.41l-.07.87a5.32 5.32 0 01-.97.36 1.5 1.5 0 00-1.2 1.44l-.01.17 2.02.15-.06.83-4.6-.35z" transform="translate(-2022 -5174)"/><path id="_Compound_Path_25" data-name="&lt;Compound Path&gt;" class="cls-6" d="M2314.81 5394.18l.67.05-.11 1.44 3.94.3-.07.83-3.93-.3-.11 1.44-.67-.05z" transform="translate(-2022 -5174)"/></g><g id="_Group_4" data-name="&lt;Group&gt;"><path id="_Compound_Path_26" data-name="&lt;Compound Path&gt;" class="cls-6" d="M2409.81 5280.4l-.01.01-.65 1.04-.46-.47.82-1.31.62-.35 3.09 5.38-.71.4z" transform="translate(-2022 -5174)"/><path id="_Compound_Path_27" data-name="&lt;Compound Path&gt;" class="cls-6" d="M2415.65 5279.96l.31.54-2.04 1.17-.31-.53z" transform="translate(-2022 -5174)"/><path id="_Compound_Path_28" data-name="&lt;Compound Path&gt;" class="cls-6" d="M2415.85 5275.68a.654.654 0 00.89.33.679.679 0 00.2-.95l.52-.3a1.161 1.161 0 01-.51 1.66 1.117 1.117 0 01-1.63-.43zm.46 1.91l.97 1.69c.37.63.59 1.04.88 1.63l.03-.01c-.04-.63-.06-.99-.06-1.61l.06-2.78.85-.49 2.3 4-.69.4-.98-1.69c-.37-.66-.55-1.01-.89-1.67l-.03.01c.04.66.06 1.09.06 1.62-.03.84-.02 1.87-.05 2.82l-.84.48-2.3-4.01z" transform="translate(-2022 -5174)"/><path id="_Compound_Path_29" data-name="&lt;Compound Path&gt;" class="cls-6" d="M2423.69 5270.95l.28.5a2.892 2.892 0 012.87 5.01l.3.52-.7.4-.3-.52a2.63 2.63 0 01-3.76-1.1 2.761 2.761 0 01.91-3.92l-.29-.49zm-.11 1.42a2.011 2.011 0 00-.47 2.92 2.034 2.034 0 002.75 1.05zm2.96 3.58a2.026 2.026 0 00.48-2.92c-.83-1.43-1.93-1.48-2.76-1.05z" transform="translate(-2022 -5174)"/><path id="_Compound_Path_30" data-name="&lt;Compound Path&gt;" class="cls-6" d="M2432.45 5273.63l-.35-.47-.02.01a1.7 1.7 0 01-.89 1.3 1.3 1.3 0 01-1.88-.44c-.56-.97 0-2 1.55-2.88l-.05-.08a.949.949 0 00-1.44-.4 2.318 2.318 0 00-.87.89l-.44-.38a2.879 2.879 0 011.11-1.11 1.633 1.633 0 012.46.76l.86 1.5a5.874 5.874 0 00.62.92zm-1.28-1.98c-.81.44-1.63 1.1-1.18 1.88a.75.75 0 001.09.3 1.122 1.122 0 00.49-1.49z" transform="translate(-2022 -5174)"/><path id="_Compound_Path_31" data-name="&lt;Compound Path&gt;" class="cls-6" d="M2434.16 5265.51a6.015 6.015 0 01-.73.66 2.285 2.285 0 00-.99 1.57 3.394 3.394 0 00.32 1.58l.03-.02a1.749 1.749 0 01.87-1.7 2 2 0 012.84 1c.75 1.31.54 2.51-.64 3.19-1.4.81-2.64-.28-3.4-1.61a4.128 4.128 0 01-.66-2.58 2.791 2.791 0 011.18-1.93 6.656 6.656 0 00.87-.79zm-.34 2.72a1.109 1.109 0 00-.59 1.06 2.126 2.126 0 00.29.97c.38.66 1.25 1.43 2.05.97s.65-1.41.23-2.15a1.476 1.476 0 00-1.98-.85z" transform="translate(-2022 -5174)"/><path id="_Compound_Path_32" data-name="&lt;Compound Path&gt;" class="cls-6" d="M2437.03 5267.4c-.29-.51-.55-.91-.78-1.29l.65-.37.43.67.02-.01a1.813 1.813 0 01.97-1.6 2.091 2.091 0 012.87 1.06 2.2 2.2 0 01-.59 3.2 1.6 1.6 0 01-1.59.08l-.02.01 1.25 2.18-.72.41zm1.33.66a2.266 2.266 0 00.21.28 1.289 1.289 0 001.58.22c.77-.44.85-1.33.33-2.25a1.511 1.511 0 00-2.05-.8 1.321 1.321 0 00-.58 1.53 1.306 1.306 0 00.12.33z" transform="translate(-2022 -5174)"/><path id="_Compound_Path_33" data-name="&lt;Compound Path&gt;" class="cls-6" d="M2441.65 5263l.97 1.69c.37.64.59 1.04.88 1.63h.03c-.04-.63-.06-.99-.06-1.61l.06-2.79.85-.49 2.3 4.01-.69.4-.98-1.7c-.37-.65-.55-1-.89-1.67l-.02.02c.04.66.05 1.08.05 1.62-.02.84-.02 1.86-.05 2.82l-.83.48-2.3-4.01z" transform="translate(-2022 -5174)"/><path id="_Compound_Path_34" data-name="&lt;Compound Path&gt;" class="cls-6" d="M2446.13 5260.43l.76 1.31a.843.843 0 001.32.38 1.67 1.67 0 00.69-.78l-1.08-1.88.72-.42 2.3 4.01-.72.41-.92-1.6-.02.01a2.449 2.449 0 01-.91.93 1.369 1.369 0 01-2.06-.56l-.8-1.4z" transform="translate(-2022 -5174)"/><path id="_Compound_Path_35" data-name="&lt;Compound Path&gt;" class="cls-6" d="M2450.43 5257.95l.93 1.62 1.9-1.1-.93-1.61.72-.42 2.3 4.01-.72.42-1.04-1.82-1.9 1.1 1.04 1.81-.72.41-2.3-4z" transform="translate(-2022 -5174)"/><path id="_Compound_Path_36" data-name="&lt;Compound Path&gt;" class="cls-6" d="M2454.94 5255.36l.79 1.36a4.351 4.351 0 01.62-.42c.86-.5 1.94-.64 2.5.34a1.337 1.337 0 01.12 1.17 2.894 2.894 0 01-1.35 1.39c-.4.23-.79.42-1.1.56l-2.3-3.99zm2.01 3.5a5.047 5.047 0 00.53-.26 1.15 1.15 0 00.67-1.52 1.091 1.091 0 00-1.61-.2 3.338 3.338 0 00-.52.36zm1.6-5.58l2.3 4.01-.72.41-2.3-4z" transform="translate(-2022 -5174)"/><path id="_Compound_Path_37" data-name="&lt;Compound Path&gt;" class="cls-6" d="M2459.94 5250.31a.658.658 0 00.89.32.666.666 0 00.2-.95l.53-.3a1.166 1.166 0 01-.51 1.66 1.116 1.116 0 01-1.64-.43zm.47 1.9l.97 1.69c.36.64.58 1.04.88 1.63l.03-.01c-.04-.62-.06-.98-.06-1.6l.06-2.79.85-.49 2.3 4.01-.7.4-.97-1.7c-.38-.65-.56-1-.89-1.67l-.03.02c.04.66.05 1.08.05 1.62-.02.84-.02 1.86-.04 2.81l-.84.48-2.3-4z" transform="translate(-2022 -5174)"/><path id="_Compound_Path_38" data-name="&lt;Compound Path&gt;" class="cls-6" d="M2469.36 5247.06l2.3 4.01-.73.42-1.96-3.43-1.86 1.07 1.96 3.43-.72.41-2.3-4.01z" transform="translate(-2022 -5174)"/><path id="_Compound_Path_39" data-name="&lt;Compound Path&gt;" class="cls-6" d="M2471.29 5247.69c-.29-.51-.55-.92-.78-1.29l.65-.38.43.67.01-.01a1.816 1.816 0 01.98-1.59 2.091 2.091 0 012.87 1.06 2.192 2.192 0 01-.59 3.2 1.621 1.621 0 01-1.59.08l-.02.01 1.25 2.17-.72.42zm1.34.65a1.545 1.545 0 00.2.28 1.291 1.291 0 001.58.23 1.8 1.8 0 00-1.72-3.06 1.347 1.347 0 00-.58 1.54 1.462 1.462 0 00.12.33z" transform="translate(-2022 -5174)"/><path id="_Compound_Path_40" data-name="&lt;Compound Path&gt;" class="cls-6" d="M2480 5243.56a2.273 2.273 0 01-.77 3.28 2.21 2.21 0 01-3.11-.96 2.259 2.259 0 01.77-3.27 2.19 2.19 0 013.11.95zm-3.15 1.87a1.568 1.568 0 002.1.84 1.845 1.845 0 00-1.77-3.11 1.573 1.573 0 00-.33 2.27z" transform="translate(-2022 -5174)"/><path id="_Compound_Path_41" data-name="&lt;Compound Path&gt;" class="cls-6" d="M2481.41 5242.97a1.491 1.491 0 002.18.6 2.968 2.968 0 00.98-.85l.43.45a3.675 3.675 0 01-1.19 1.02 2.146 2.146 0 01-3.13-.89 2.244 2.244 0 01.64-3.24 1.966 1.966 0 012.74.93c.08.15.13.28.17.36zm1.84-1.75a1.2 1.2 0 00-1.69-.61 1.4 1.4 0 00-.44 1.83z" transform="translate(-2022 -5174)"/><path id="_Compound_Path_42" data-name="&lt;Compound Path&gt;" class="cls-6" d="M2485.24 5240.16l.35-.2a1 1 0 00.65-1.25.767.767 0 00-1.11-.13 2.333 2.333 0 00-.81.84l-.43-.34a2.833 2.833 0 011.12-1.13 1.349 1.349 0 011.96.27 1.2 1.2 0 01-.38 1.43l.01.01a1.234 1.234 0 011.67.38c.5.87-.2 1.7-1.05 2.18a3.214 3.214 0 01-1.48.43l-.09-.6a2.64 2.64 0 001.21-.34.943.943 0 00.59-1.25c-.31-.54-.95-.36-1.56-.02l-.36.21z" transform="translate(-2022 -5174)"/><path id="_Compound_Path_43" data-name="&lt;Compound Path&gt;" class="cls-6" d="M2490.61 5234.83l1.99 3.46.42-.23 1 1.84-.57.33-.77-1.26-2.77 1.6.7 1.29-.57.33-1.08-1.8.34-.2a3.669 3.669 0 00-.07-1.05 6.32 6.32 0 00-.69-1.73l-.6-1.04zm-1.33 2.38a5.853 5.853 0 01.65 1.61 4.438 4.438 0 01.11.93l1.84-1.06-1.66-2.89-1.31.75z" transform="translate(-2022 -5174)"/></g><g id="_Group_5" data-name="&lt;Group&gt;"><path id="_Compound_Path_44" data-name="&lt;Compound Path&gt;" class="cls-6" d="M2140.3 5485.32l-.43 2.88c-.05.32-.13.69-.19.97l.02.01c.2-.2.46-.46.72-.7l2.1-1.94.78.43-2.68 2.28a7.083 7.083 0 01-2.78 1.78 2.271 2.271 0 01-1.17-.02l.16-.72a2.164 2.164 0 00.84-.01 2.649 2.649 0 001.07-.48.7.7 0 00.15-.14.664.664 0 00.06-.22l.54-4.56z" transform="translate(-2022 -5174)"/><path id="_Compound_Path_45" data-name="&lt;Compound Path&gt;" class="cls-6" d="M2146.97 5488.98l-2.22 4.05-.72-.4 1.9-3.47-1.39-.76-.58 1.05c-.62 1.14-1.15 1.84-1.86 1.9a1.368 1.368 0 01-.94-.19l.24-.62a1.031 1.031 0 00.49.05c.53-.07.88-.61 1.38-1.52l.89-1.63z" transform="translate(-2022 -5174)"/><path id="_Compound_Path_46" data-name="&lt;Compound Path&gt;" class="cls-6" d="M2146.02 5493.16a.567.567 0 11.99.55.567.567 0 11-.99-.55z" transform="translate(-2022 -5174)"/><path id="_Compound_Path_47" data-name="&lt;Compound Path&gt;" class="cls-6" d="M2155.11 5492.44l-2.07-1.14-.98 1.29a3.78 3.78 0 01.46.2 2.624 2.624 0 011.01.94 1.777 1.777 0 01.02 1.83 2.167 2.167 0 01-3.05.75 3.109 3.109 0 01-1.17-1.08l.49-.46a3.053 3.053 0 001 .94 1.374 1.374 0 001.94-.48c.37-.71.18-1.47-.91-2.06a7.917 7.917 0 00-.78-.36l1.78-2.42 2.6 1.43z" transform="translate(-2022 -5174)"/><path id="_Compound_Path_48" data-name="&lt;Compound Path&gt;" class="cls-6" d="M2158.65 5497.04c-1.01 1.85-2.26 2.49-3.46 1.83-1.06-.58-1.24-1.97-.27-3.78 1-1.83 2.33-2.4 3.44-1.79 1.15.62 1.24 2 .29 3.74zm-3-1.54c-.77 1.42-.78 2.46-.11 2.83.76.41 1.6-.27 2.36-1.66.73-1.34.87-2.41.11-2.83-.65-.35-1.55.18-2.36 1.66z" transform="translate(-2022 -5174)"/><path id="_Compound_Path_49" data-name="&lt;Compound Path&gt;" class="cls-6" d="M2165.07 5498.9l-2.22 4.05-.73-.4 1.9-3.47-1.39-.76-.57 1.05c-.63 1.14-1.15 1.84-1.87 1.9a1.386 1.386 0 01-.94-.19l.24-.62a1.085 1.085 0 00.5.05c.52-.07.88-.61 1.37-1.52l.9-1.63z" transform="translate(-2022 -5174)"/><path id="_Compound_Path_50" data-name="&lt;Compound Path&gt;" class="cls-6" d="M2165.5 5501.94a1.478 1.478 0 00.62 2.17 3.079 3.079 0 001.23.41l-.16.59a3.728 3.728 0 01-1.49-.48 2.157 2.157 0 01-.87-3.14 2.243 2.243 0 013.1-1.14 1.949 1.949 0 01.62 2.82 2.82 2.82 0 01-.21.33zm2.44.66a1.193 1.193 0 00-.36-1.76 1.393 1.393 0 00-1.79.58z" transform="translate(-2022 -5174)"/><path id="_Compound_Path_51" data-name="&lt;Compound Path&gt;" class="cls-6" d="M2173.16 5503.34l-.32.58-1.26-.69-1.9 3.47-.73-.4 1.9-3.47-1.26-.69.32-.59z" transform="translate(-2022 -5174)"/><path id="_Compound_Path_52" data-name="&lt;Compound Path&gt;" class="cls-6" d="M2171.07 5506.89a.563.563 0 01.79-.25.6.6 0 01-.58 1.05.562.562 0 01-.21-.8z" transform="translate(-2022 -5174)"/><path id="_Compound_Path_53" data-name="&lt;Compound Path&gt;" class="cls-6" d="M2178.35 5504.11l-1.37 2.5.22.13 3.3-1.45.88.48-3.55 1.42a2.167 2.167 0 01.79 2.33 15.475 15.475 0 00-.26 1.94l-.79-.44a11.926 11.926 0 01.22-1.61 1.741 1.741 0 00-.88-2.12l-.24-.12-1.41 2.58-.72-.39 3.09-5.65z" transform="translate(-2022 -5174)"/><path id="_Compound_Path_54" data-name="&lt;Compound Path&gt;" class="cls-6" d="M2183.81 5511.77a2.245 2.245 0 01-3.19 1.04 2.2 2.2 0 01-.8-3.15 2.255 2.255 0 013.18-1.05 2.19 2.19 0 01.81 3.16zm-3.23-1.72a1.57 1.57 0 00.37 2.23 1.586 1.586 0 002.09-.9 1.44 1.44 0 10-2.46-1.33z" transform="translate(-2022 -5174)"/><path id="_Compound_Path_55" data-name="&lt;Compound Path&gt;" class="cls-6" d="M2185.87 5510.3l.9.5-.38 2.45c-.06.35-.16.94-.24 1.31l.02.01c.25-.25.83-.77 1.24-1.13l1.61-1.41.92.5-1.94 4.21-.7-.38.97-1.99c.21-.45.46-.99.71-1.49l-.02-.01c-.31.31-.6.57-1.16 1.07l-1.9 1.62-.53-.3.37-2.39c.09-.46.23-1.14.34-1.57l-.04-.02c-.28.47-.59.99-.86 1.42l-1.15 1.86-.68-.37z" transform="translate(-2022 -5174)"/><path id="_Compound_Path_56" data-name="&lt;Compound Path&gt;" class="cls-6" d="M2191.92 5518.7a3.233 3.233 0 01-1.29-.41 2.191 2.191 0 01-.88-3.17 2.336 2.336 0 013.35-.96 2.965 2.965 0 01.91.77l-.48.47a2.019 2.019 0 00-.75-.66 1.743 1.743 0 00-1.69 3.04 2.278 2.278 0 001.01.29z" transform="translate(-2022 -5174)"/><path id="_Compound_Path_57" data-name="&lt;Compound Path&gt;" class="cls-6" d="M2197.44 5519.24a2.257 2.257 0 01-3.19 1.05 2.2 2.2 0 01-.8-3.15 2.252 2.252 0 013.18-1.06 2.19 2.19 0 01.81 3.16zm-3.23-1.72a1.566 1.566 0 00.37 2.23 1.836 1.836 0 001.73-3.12 1.555 1.555 0 00-2.1.89z" transform="translate(-2022 -5174)"/><path id="_Compound_Path_58" data-name="&lt;Compound Path&gt;" class="cls-6" d="M2199.5 5517.78l.9.49-.38 2.45c-.06.35-.16.94-.24 1.31l.02.01c.25-.25.83-.77 1.24-1.13l1.61-1.41.92.5-1.94 4.21-.7-.38.97-1.99c.21-.45.46-.98.71-1.49l-.02-.01c-.31.31-.6.58-1.16 1.07l-1.9 1.62-.53-.29.37-2.4c.09-.46.23-1.14.34-1.57l-.04-.02c-.28.47-.59.99-.86 1.42l-1.15 1.87-.68-.38z" transform="translate(-2022 -5174)"/><path id="_Compound_Path_59" data-name="&lt;Compound Path&gt;" class="cls-6" d="M2207.38 5524.68a2.26 2.26 0 01-3.2 1.05 2.2 2.2 0 01-.8-3.15 2.258 2.258 0 013.19-1.05 2.194 2.194 0 01.81 3.15zm-3.24-1.72a1.446 1.446 0 102.11-.89 1.581 1.581 0 00-2.11.89z" transform="translate(-2022 -5174)"/><path id="_Compound_Path_60" data-name="&lt;Compound Path&gt;" class="cls-6" d="M2212.46 5524.88l-2.21 4.06-.73-.4 1.9-3.48-1.39-.76-.58 1.05c-.62 1.14-1.15 1.85-1.86 1.9a1.315 1.315 0 01-.94-.19l.24-.62a1.055 1.055 0 00.49.05c.53-.06.88-.61 1.38-1.52l.89-1.63z" transform="translate(-2022 -5174)"/><path id="_Compound_Path_61" data-name="&lt;Compound Path&gt;" class="cls-6" d="M2213.69 5530.82l.22-.54-.02-.01a1.727 1.727 0 01-1.57-.08 1.313 1.313 0 01-.6-1.84c.53-.98 1.7-1.04 3.26-.18l.04-.08a.947.947 0 00-.41-1.44 2.221 2.221 0 00-1.21-.28l.09-.57a2.792 2.792 0 011.53.36 1.643 1.643 0 01.63 2.51l-.83 1.51a6.7 6.7 0 00-.46 1.01zm1.02-2.12c-.79-.46-1.78-.82-2.21-.03a.736.736 0 00.31 1.08 1.145 1.145 0 001.35-.14 1.118 1.118 0 00.17-.21z" transform="translate(-2022 -5174)"/></g><g id="_Group_6" data-name="&lt;Group&gt;"><path id="_Compound_Path_62" data-name="&lt;Compound Path&gt;" class="cls-6" d="M2088.96 5393.25v6.44h-.83v-5.74h-2.99v5.74h-.83v-6.44h4.65z" transform="translate(-2022 -5174)"/><path id="_Compound_Path_63" data-name="&lt;Compound Path&gt;" class="cls-6" d="M2094.55 5397.34a2.25 2.25 0 01-2.29 2.45 2.2 2.2 0 01-2.22-2.37 2.259 2.259 0 012.29-2.46 2.187 2.187 0 012.22 2.38zm-3.66.05a1.446 1.446 0 101.42-1.8 1.567 1.567 0 00-1.42 1.8z" transform="translate(-2022 -5174)"/><path id="_Compound_Path_64" data-name="&lt;Compound Path&gt;" class="cls-6" d="M2099.11 5395.07v4.62h-.83v-3.97h-1.58v1.21c0 1.3-.13 2.17-.73 2.56a1.338 1.338 0 01-.91.28l-.09-.65a1.012 1.012 0 00.46-.2c.43-.31.48-.96.48-1.99v-1.86h3.2z" transform="translate(-2022 -5174)"/><path id="_Compound_Path_65" data-name="&lt;Compound Path&gt;" class="cls-6" d="M2101.26 5395.07v1.94c0 .74-.01 1.2-.05 1.86l.03.01c.27-.57.43-.89.74-1.43l1.44-2.38h.98v4.62h-.8v-1.96c0-.75.02-1.15.06-1.89h-.03c-.3.59-.5.96-.76 1.43-.44.72-.95 1.61-1.44 2.42h-.97v-4.62h.8z" transform="translate(-2022 -5174)"/><path id="_Compound_Path_66" data-name="&lt;Compound Path&gt;" class="cls-6" d="M2106.59 5395.07v2h.2l1.74-2h1.02l-2.01 2.09a1.92 1.92 0 011.55 1.4 10.393 10.393 0 00.5 1.13h-.88a6.988 6.988 0 01-.43-.95 1.5 1.5 0 00-1.52-1.09h-.17v2.04h-.83v-4.62h.83z" transform="translate(-2022 -5174)"/><path id="_Compound_Path_67" data-name="&lt;Compound Path&gt;" class="cls-6" d="M2114.05 5395.07v4.62h-.83v-3.97h-1.58v1.21c0 1.3-.13 2.17-.73 2.56a1.338 1.338 0 01-.91.28l-.09-.65a1.061 1.061 0 00.46-.2c.43-.31.48-.96.48-1.99v-1.86h3.2z" transform="translate(-2022 -5174)"/><path id="_Compound_Path_68" data-name="&lt;Compound Path&gt;" class="cls-6" d="M2116.19 5395.07v1.94c0 .74-.01 1.2-.04 1.86l.03.01c.27-.57.43-.89.74-1.43l1.44-2.38h.98v4.62h-.8v-1.96c0-.75.02-1.15.06-1.89h-.03c-.3.59-.5.96-.76 1.43-.44.72-.95 1.61-1.44 2.42h-.97v-4.62h.79z" transform="translate(-2022 -5174)"/><path id="_Compound_Path_69" data-name="&lt;Compound Path&gt;" class="cls-6" d="M2121.51 5395.07v1.86h2.2v-1.86h.83v4.62h-.83v-2.09h-2.2v2.09h-.83v-4.62h.83z" transform="translate(-2022 -5174)"/><path id="_Compound_Path_70" data-name="&lt;Compound Path&gt;" class="cls-6" d="M2126.68 5395.07v1.94c0 .74-.01 1.2-.05 1.86l.03.01c.28-.57.44-.89.75-1.43l1.44-2.38h.98v4.62h-.8v-1.96c0-.75.02-1.15.06-1.89h-.03c-.3.59-.5.96-.77 1.43-.44.72-.94 1.61-1.44 2.42h-.96v-4.62h.79z" transform="translate(-2022 -5174)"/><path id="_Compound_Path_71" data-name="&lt;Compound Path&gt;" class="cls-6" d="M2132.02 5395.07v2h.2l1.74-2h1.02l-2.02 2.09a1.919 1.919 0 011.56 1.4 8.756 8.756 0 00.5 1.13h-.88a5.163 5.163 0 01-.43-.95 1.515 1.515 0 00-1.53-1.09h-.16v2.04h-.83v-4.62h.83z" transform="translate(-2022 -5174)"/><path id="_Compound_Path_72" data-name="&lt;Compound Path&gt;" class="cls-6" d="M2138.41 5399.69l-.07-.58h-.03a1.705 1.705 0 01-1.41.68 1.316 1.316 0 01-1.41-1.32c0-1.12.99-1.73 2.78-1.72v-.1a.956.956 0 00-1.05-1.07 2.346 2.346 0 00-1.21.35l-.19-.56a2.886 2.886 0 011.52-.41 1.645 1.645 0 011.76 1.89v1.73a6.347 6.347 0 00.07 1.11h-.76zm-.13-2.36c-.91-.02-1.95.14-1.95 1.04a.742.742 0 00.79.8 1.161 1.161 0 001.12-.77.842.842 0 00.04-.27v-.8z" transform="translate(-2022 -5174)"/></g><g id="_Group_7" data-name="&lt;Group&gt;"><path id="_Compound_Path_73" data-name="&lt;Compound Path&gt;" class="cls-6" d="M2263.77 5487.18h-1.96v-.71h4.76v.71h-1.96v5.73h-.84v-5.73z" transform="translate(-2022 -5174)"/><path id="_Compound_Path_74" data-name="&lt;Compound Path&gt;" class="cls-6" d="M2266.62 5489.8c0-.6-.02-1.07-.04-1.51h.76l.03.79h.02a1.834 1.834 0 011.64-.9 2.1 2.1 0 011.96 2.35 2.184 2.184 0 01-2.1 2.48 1.613 1.613 0 01-1.42-.72h-.02v2.51h-.83v-5zm.83 1.23a1.761 1.761 0 00.04.34 1.3 1.3 0 001.26.99 1.523 1.523 0 001.4-1.79 1.506 1.506 0 00-1.37-1.72 1.332 1.332 0 00-1.27 1.04 1.35 1.35 0 00-.06.35v.79z" transform="translate(-2022 -5174)"/><path id="_Compound_Path_75" data-name="&lt;Compound Path&gt;" class="cls-6" d="M2272.82 5488.29v1.95c0 .73-.01 1.19-.05 1.85l.03.01c.27-.57.44-.89.74-1.42l1.44-2.39h.99v4.62h-.81v-1.96c0-.75.02-1.14.06-1.89h-.03c-.29.59-.49.97-.76 1.43-.44.72-.95 1.61-1.44 2.42h-.96v-4.62h.79z" transform="translate(-2022 -5174)"/><path id="_Compound_Path_76" data-name="&lt;Compound Path&gt;" class="cls-6" d="M2278.14 5488.29v3.96h2.12v-3.96h.83v3.99l.48.01-.05 2.09h-.65l-.03-1.47h-3.53v-4.62h.83z" transform="translate(-2022 -5174)"/><path id="_Compound_Path_77" data-name="&lt;Compound Path&gt;" class="cls-6" d="M2283.4 5488.29v2h.2l1.74-2h1.02l-2.02 2.09a1.934 1.934 0 011.56 1.4 8.6 8.6 0 00.49 1.13h-.87a5.163 5.163 0 01-.43-.95 1.507 1.507 0 00-1.53-1.08h-.16v2.03h-.83v-4.62h.83z" transform="translate(-2022 -5174)"/><path id="_Compound_Path_78" data-name="&lt;Compound Path&gt;" class="cls-6" d="M2289.79 5492.91l-.07-.58h-.03a1.72 1.72 0 01-1.41.68 1.311 1.311 0 01-1.41-1.32c0-1.12.99-1.73 2.77-1.72v-.1a.948.948 0 00-1.04-1.07 2.346 2.346 0 00-1.21.35l-.19-.56a2.953 2.953 0 011.52-.41 1.638 1.638 0 011.75 1.89v1.73a6.29 6.29 0 00.08 1.11h-.76zm-.13-2.36c-.91-.02-1.95.14-1.95 1.04a.737.737 0 00.79.8 1.161 1.161 0 001.12-.77 1.259 1.259 0 00.04-.27v-.8z" transform="translate(-2022 -5174)"/><path id="_Compound_Path_79" data-name="&lt;Compound Path&gt;" class="cls-6" d="M2295.26 5492.91h-.83v-1.94h-.62a1.1 1.1 0 00-.77.26 3.126 3.126 0 00-.65 1.3 2.691 2.691 0 01-.19.38h-.9a2.931 2.931 0 00.29-.53 3.557 3.557 0 01.72-1.39 1.215 1.215 0 01.53-.27v-.03a1.224 1.224 0 01-1.22-1.14 1.093 1.093 0 01.61-1 3.2 3.2 0 011.54-.32 12.2 12.2 0 011.49.1v4.58zm-.83-4.07a4.485 4.485 0 00-.7-.05 1.019 1.019 0 00-1.24.81 1.078 1.078 0 001.23.8h.71v-1.56z" transform="translate(-2022 -5174)"/><path id="_Compound_Path_80" data-name="&lt;Compound Path&gt;" class="cls-6" d="M2263.33 5499.74v3.96h2.13v-3.96h.83v3.99l.48.01-.05 2.09h-.65l-.04-1.47h-3.53v-4.62h.83z" transform="translate(-2022 -5174)"/><path id="_Compound_Path_81" data-name="&lt;Compound Path&gt;" class="cls-6" d="M2268.19 5502.2a1.487 1.487 0 001.59 1.61 3.032 3.032 0 001.27-.24l.15.6a3.64 3.64 0 01-1.54.29 2.148 2.148 0 01-2.27-2.33 2.238 2.238 0 012.17-2.49 1.958 1.958 0 011.91 2.17 2.938 2.938 0 01-.03.39h-3.25zm2.46-.6a1.193 1.193 0 00-1.16-1.36 1.393 1.393 0 00-1.29 1.36h2.45z" transform="translate(-2022 -5174)"/><path id="_Compound_Path_82" data-name="&lt;Compound Path&gt;" class="cls-6" d="M2272.5 5501.25c0-.59-.02-1.07-.04-1.51h.76l.04.79h.01a1.826 1.826 0 011.64-.89 2.087 2.087 0 011.96 2.34 2.188 2.188 0 01-2.1 2.49 1.62 1.62 0 01-1.42-.73h-.02v2.51h-.83v-5zm.83 1.23a1.87 1.87 0 00.04.35 1.3 1.3 0 001.26.98c.89 0 1.4-.73 1.4-1.79a1.511 1.511 0 00-1.37-1.72 1.467 1.467 0 00-1.33 1.39v.79z" transform="translate(-2022 -5174)"/><path id="_Compound_Path_83" data-name="&lt;Compound Path&gt;" class="cls-6" d="M2278.76 5499.74v2.01h.2l1.73-2.01h1.02l-2.01 2.09a1.973 1.973 0 011.56 1.41 9.134 9.134 0 00.49 1.12h-.88a7.37 7.37 0 01-.43-.94 1.485 1.485 0 00-1.52-1.09h-.16v2.03h-.83v-4.62h.83z" transform="translate(-2022 -5174)"/><path id="_Compound_Path_84" data-name="&lt;Compound Path&gt;" class="cls-6" d="M2286.61 5502.01a2.259 2.259 0 01-2.29 2.46 2.2 2.2 0 01-2.22-2.38 2.25 2.25 0 012.29-2.45 2.179 2.179 0 012.22 2.37zm-3.66.05a1.577 1.577 0 001.4 1.78 1.6 1.6 0 001.41-1.8 1.445 1.445 0 10-2.81.02z" transform="translate(-2022 -5174)"/><path id="_Compound_Path_85" data-name="&lt;Compound Path&gt;" class="cls-6" d="M2287.65 5499.8a9.4 9.4 0 011.47-.11c.77 0 2.05.13 2.05 1.16a1.092 1.092 0 01-.96 1.04v.02a1.179 1.179 0 011.17 1.14c0 1.22-1.53 1.37-2.43 1.37-.52 0-1.05-.04-1.3-.06v-4.56zm.79 4.01a4.879 4.879 0 00.68.04c.56 0 1.4-.14 1.4-.8s-.67-.82-1.47-.82h-.61v1.58zm.01-2.13h.63c.62 0 1.26-.18 1.26-.73 0-.45-.4-.67-1.24-.67-.28 0-.45.02-.65.03v1.37z" transform="translate(-2022 -5174)"/><path id="_Compound_Path_86" data-name="&lt;Compound Path&gt;" class="cls-6" d="M2293.25 5499.74v1.57a4.4 4.4 0 01.76-.05c1.04 0 2.14.32 2.14 1.56a1.313 1.313 0 01-.49 1.06 3.175 3.175 0 01-2 .53 10.823 10.823 0 01-1.24-.07v-4.6h.83zm0 4.04a4.558 4.558 0 00.62.04 1.056 1.056 0 10-.02-1.96 3.733 3.733 0 00-.6.05v1.87z" transform="translate(-2022 -5174)"/></g></g></svg>