<svg id="Группа_1" data-name="Группа 1" xmlns="http://www.w3.org/2000/svg" width="225.815" height="96.344"><defs><style>.cls-1{fill:#fff;fill-rule:evenodd}</style></defs><path id="_Compound_Path_" data-name="&lt;Compound Path&gt;" class="cls-1" d="M897.474 492.137a.738.738 0 110 1.356h-49.558a.738.738 0 110-1.356h49.558zm174.186 0a.738.738 0 110 1.356h-49.55a.738.738 0 110-1.356h49.55z" transform="translate(-846.875 -406.812)"/><path id="_Compound_Path_2" data-name="&lt;Compound Path&gt;" class="cls-1" d="M913.666 486.707a5.531 5.531 0 014.131 1.766 6.277 6.277 0 010 8.608 5.534 5.534 0 01-4.131 1.765 4.9 4.9 0 01-4.362-2.284v1.985H907.3v-16.155h2v6.6a4.9 4.9 0 014.362-2.285zm-.254 10.2a3.929 3.929 0 002.908-1.189 4.267 4.267 0 000-5.885 4.179 4.179 0 00-5.839 0 4.267 4.267 0 000 5.885 3.957 3.957 0 002.931 1.189zm15.943-3.208a3.8 3.8 0 001.42 2.4 4.414 4.414 0 002.758.854 3.609 3.609 0 003.323-1.685l1.708.97a5.639 5.639 0 01-5.077 2.607 6.042 6.042 0 01-4.466-1.719 5.9 5.9 0 01-1.719-4.35 5.971 5.971 0 011.684-4.339 5.819 5.819 0 014.362-1.731 5.308 5.308 0 014.143 1.789 6.222 6.222 0 011.6 4.3 6.09 6.09 0 01-.069.9h-9.671zm3.993-5.1a3.834 3.834 0 00-3.993 3.347h7.709a3.85 3.85 0 00-1.292-2.493 3.706 3.706 0 00-2.424-.854zm23.629-1.592h2.007v11.54h-2.007v-1.985a4.9 4.9 0 01-4.362 2.284 5.534 5.534 0 01-4.131-1.765 6.277 6.277 0 010-8.608 5.531 5.531 0 014.131-1.766 4.9 4.9 0 014.362 2.285v-1.985zm-4.108 9.9a3.957 3.957 0 002.931-1.189 4.267 4.267 0 000-5.885 4.179 4.179 0 00-5.839 0 4.267 4.267 0 000 5.885 3.929 3.929 0 002.908 1.189zm23.166-9.9h2.008v11.54h-2.008v-1.662a4.1 4.1 0 01-3.738 1.961 4.288 4.288 0 01-3.254-1.28 4.819 4.819 0 01-1.224-3.473v-7.086h2.008v6.97a2.975 2.975 0 00.762 2.181 2.816 2.816 0 002.1.773 3.25 3.25 0 002.423-.935 3.94 3.94 0 00.923-2.873v-6.116zm17.375 1.939h-3.07v6.254a1.757 1.757 0 00.335 1.212 1.379 1.379 0 001.027.369q.693.011 1.708-.035v1.8a5.945 5.945 0 01-3.854-.427 3.187 3.187 0 01-1.224-2.92v-6.254h-2.285v-1.939h2.285v-2.631l2.008-.6v3.23h3.07v1.939zm16.73-1.939h2.14l-4.7 12.255a6.629 6.629 0 01-2.07 2.989 4.35 4.35 0 01-3.06.911v-1.869c1.41.108 2.44-.677 3.11-2.358l.22-.435-5.04-11.493h2.15l3.85 8.847z" transform="translate(-846.875 -406.812)"/><path id="_Compound_Path_3" data-name="&lt;Compound Path&gt;" class="cls-1" d="M918.359 467.919a3.112 3.112 0 001.1-1.289l.184-.441 1.162.387-.116.462a4.439 4.439 0 01-2.2 2.634 7.8 7.8 0 01-3.88.973 6.037 6.037 0 01-6.306-4.364 7.808 7.808 0 01-3.055 2.805 14.443 14.443 0 01-6.8 1.559c-3.45 0-6.479-.762-8.59-2.425a8.308 8.308 0 01-3.1-6.892 12.4 12.4 0 011.144-5.421 7.971 7.971 0 013.27-3.577 20.182 20.182 0 013.582-1.583 16.848 16.848 0 013.206-.678h.014c2.669-.246 4.786-.515 6.355-.8a9.775 9.775 0 002.831-.778 1.474 1.474 0 00.189-.251 1.919 1.919 0 00.141-.285v-6.348a9.8 9.8 0 00-1.605-6.044 5.4 5.4 0 00-4.485-2.063 3.128 3.128 0 00-2.367.791 3.535 3.535 0 00-.756 2.5 6.709 6.709 0 00.3 1.536 6.45 6.45 0 01.292 1.51 3.132 3.132 0 01-1.16 2.508 4.531 4.531 0 01-2.911.886A3.611 3.611 0 01892 442.1a4.432 4.432 0 01-1.017-3.028 6.266 6.266 0 013.206-5.028 13.217 13.217 0 017.211-1.92q6.9 0 10.364 4 3.442 3.97 3.437 11.835v18.193a2.859 2.859 0 00.445 1.769 1.484 1.484 0 001.239.507 2.63 2.63 0 001.473-.508zm-13.112-.671a4.757 4.757 0 002.238-3.635v-13.6a23.969 23.969 0 01-5.671 1.033c-.872.091-1.628.172-2.089.264a5.654 5.654 0 00-4.031 2.92 14.541 14.541 0 00-1.393 7.025q0 3.945 1.429 5.845a4.949 4.949 0 004.232 1.832 9.163 9.163 0 005.285-1.687zm33.722-.358a4 4 0 01-2.969 1.537 1.685 1.685 0 01-1.937-1.937v-32.233h7.531v-1.37h-7.531v-13.962h-1.23l-.115.359a4.092 4.092 0 01-1.873 2.267 10.77 10.77 0 01-4.056 1.272l-.444.063v10H920v1.37h6.346v27.664q0 4.308 1.845 6.538a6.879 6.879 0 005.61 2.271 7.823 7.823 0 005.488-1.988 11.558 11.558 0 003.136-5.848l.1-.4-1.285-.643-.156.622a10.537 10.537 0 01-2.116 4.418zm18.269 1.707h5.247v1.371h-18.126V468.6h5.162v-34.34h-5.162v-1.37h12.879v35.71zm-.528-46.861a4.649 4.649 0 01-3.373 1.437 4.539 4.539 0 01-3.312-1.451 5.122 5.122 0 010-6.932 4.542 4.542 0 013.312-1.45 4.648 4.648 0 013.373 1.436 5.094 5.094 0 010 6.96z" transform="translate(-846.875 -406.812)"/><path id="_Compound_Path_4" data-name="&lt;Compound Path&gt;" class="cls-1" d="M1035.07 468a3.161 3.161 0 001.1-1.29l.19-.442 1.16.388-.12.462a4.418 4.418 0 01-2.2 2.633 7.818 7.818 0 01-3.88.973 6.033 6.033 0 01-6.31-4.363 7.848 7.848 0 01-3.05 2.8 14.478 14.478 0 01-6.81 1.558c-3.45 0-6.48-.761-8.59-2.424a8.3 8.3 0 01-3.09-6.892 12.48 12.48 0 011.14-5.422 7.99 7.99 0 013.27-3.576 20.211 20.211 0 013.58-1.583 16.953 16.953 0 013.21-.678h.01c2.67-.246 4.79-.515 6.36-.795a9.651 9.651 0 002.83-.781 1.8 1.8 0 00.19-.25 1.444 1.444 0 00.14-.286v-6.345a9.85 9.85 0 00-1.6-6.044 5.414 5.414 0 00-4.48-2.072 3.136 3.136 0 00-2.37.791 3.515 3.515 0 00-.76 2.5 7.113 7.113 0 00.3 1.536 6.452 6.452 0 01.3 1.51 3.141 3.141 0 01-1.16 2.508 4.562 4.562 0 01-2.91.886 3.605 3.605 0 01-2.8-1.127 4.395 4.395 0 01-1.02-3.028 6.273 6.273 0 013.2-5.028 13.25 13.25 0 017.22-1.92q6.885 0 10.36 4 3.435 3.97 3.44 11.835v18.193a2.88 2.88 0 00.44 1.769 1.487 1.487 0 001.24.507 2.63 2.63 0 001.47-.507zm-13.11-.672a4.746 4.746 0 002.24-3.635V450.1a24.041 24.041 0 01-5.67 1.032c-.87.092-1.63.171-2.09.264-3.62.707-5.42 3.994-5.42 9.945q0 3.945 1.42 5.845a4.968 4.968 0 004.24 1.833 9.146 9.146 0 005.28-1.688zm38.7.368c2.75-2.266 4.13-7.633 4.13-16.019a44.019 44.019 0 00-1.05-10.507 11.245 11.245 0 00-3-5.774 8.078 8.078 0 00-2.7-1.353 12.614 12.614 0 00-3.57-.467 9.384 9.384 0 00-7.35 3.315v28.323a5.957 5.957 0 002.61 3.031 9.1 9.1 0 004.66 1.193 14.03 14.03 0 003.73-.434 6.378 6.378 0 002.53-1.3l.01-.012zm-19.05-1a2.693 2.693 0 012.2-.88 2.23 2.23 0 011.09.325 6.7 6.7 0 011.42 1.131 9.774 9.774 0 003.55 2.645 11.421 11.421 0 004.6.891 16.6 16.6 0 006.94-1.453 18.009 18.009 0 005.88-4.386 21.085 21.085 0 004.03-6.27 18.971 18.971 0 00-.01-14.082 21.68 21.68 0 00-4.02-6.315 18.258 18.258 0 00-5.83-4.562 15.8 15.8 0 00-6.9-1.536 11.465 11.465 0 00-4.67.922 10.4 10.4 0 00-2.77 1.81V406.82h-12.88v1.372h5.24v61.857h1.38v-.516a4.441 4.441 0 01.75-2.833z" transform="translate(-846.875 -406.812)"/><path id="_Path_" data-name="&lt;Path&gt;" class="cls-1" d="M868.653 409.285h-13.918l-5.97 15.165h-1.341l.035-17.331h21.194l8.63-.081h21.194l.035 17.331h-1.342L891.2 409.2h-13.917v57.54l3.956 1.626v1.083l-16.543.081v-1.084l3.957-1.625v-57.536z" transform="translate(-846.875 -406.812)"/><path id="_Path_2" data-name="&lt;Path&gt;" class="cls-1" d="M965.887 469.451l8.63.081H999.4l.034-17.331h-1.341l-5.97 15.166h-17.6v-57.541l3.957-1.625v-1.082l-16.543-.082v1.084l3.956 1.624v59.706z" transform="translate(-846.875 -406.812)"/></svg>