<svg width="52" height="55" fill="none" xmlns="http://www.w3.org/2000/svg"><path d="M5.937 1.14c-.07.165-.093 3.352-.046 7.079.07 6.375.093 6.844.586 7.875.632 1.406 2.226 2.976 3.703 3.726 1.71.82 4.406.797 6.234-.047 2.39-1.125 4.125-3.539 4.242-5.976l.07-1.149-6.843-.07-6.867-.047V6.953c0-4.031-.07-5.648-.282-5.86-.375-.374-.632-.35-.797.048zm13.103 0c-2.087.938-2.227 3.868-.235 5.063.89.563 1.547.586 2.625.14 1.008-.421 1.57-1.312 1.617-2.46.047-2.156-2.062-3.61-4.008-2.742zm28.1 3c-.163.165-.28.493-.28.774s.117.61.28.774c.165.164.493.28.774.28s.61-.116.773-.28c.165-.165.282-.493.282-.774s-.117-.61-.282-.773c-.164-.164-.492-.282-.773-.282s-.61.118-.773.282z" fill="#fff"/><path d="M11.281 5.313c-.351.351-.351 1.195 0 1.546.164.164.586.282.938.282.844 0 1.312-.844.914-1.618-.305-.539-1.383-.68-1.852-.21zm21.235 2.015c-.516.094-.82 1.149-.492 1.664.304.492 1.336.61 1.687.164.727-.867-.093-2.086-1.195-1.828zM42.382 8.5c-.797.703-.984 1.852-.469 2.836.352.656 1.079 1.008 2.086 1.008.657 0 1.008-.164 1.5-.727.914-1.008.891-2.156-.023-3.094-.938-.914-2.086-.937-3.094-.023zm-41.319.188c-.446.42-.493 1.288-.094 1.686.445.445 1.289.328 1.687-.21.375-.54.282-1.102-.28-1.571-.493-.375-.868-.352-1.313.094zm22.992 4.734c-.516.562-.492 1.055.023 1.523.563.516 1.055.492 1.524-.023.492-.54.515-1.078.023-1.547-.492-.492-1.101-.469-1.57.047zm24.257 1.031c-.469.469-.328 1.547.211 1.852.773.398 1.617-.07 1.617-.914 0-.774-.375-1.22-1.054-1.22-.282 0-.61.118-.774.282zM1.508 17.195C.64 17.57.102 18.391.102 19.375c0 .773.14 1.055.773 1.617 1.055.938 1.969.914 3-.117 1.008-1.008 1.055-1.945.164-2.953-.703-.75-1.758-1.055-2.531-.727zm29.93.235c-1.36.468-2.391 1.289-2.391 1.898 0 .235.398.563.96.82.938.422 2.087 1.641 2.087 2.18 0 .703 2.695.586 4.218-.187 1.22-.61 1.735-1.313 1.735-2.274 0-1.078-1.008-2.015-2.695-2.508-1.57-.468-2.391-.468-3.914.07zm-6.611 3.28c-3.515 1.15-3.82 3.727-.586 5.087 2.016.844 5.133.281 6.329-1.125 1.57-1.852-.258-3.914-3.633-4.078-.844-.047-1.782 0-2.11.117zm14.204.446c-.422.844-1.453 1.735-2.46 2.133-.4.188-.727.398-.727.492 0 .469 1.265 1.617 2.156 1.992 2.133.844 5.203.329 6.398-1.101 1.547-1.828-.21-3.844-3.539-4.125-1.43-.094-1.453-.094-1.828.61zm-27.398 3.211c-1.008.352-2.04 1.195-2.04 1.688 0 .234.891.304 4.337.304 2.39 0 4.336-.07 4.336-.14 0-.492-.68-1.149-1.711-1.64-1.407-.657-3.47-.75-4.922-.212zm-6.727 3.446c.024.164.469 2.46 1.008 5.109l1.008 4.805 2.976.07 2.977.07v-.562c0-.305-.258-2.555-.586-4.992-.328-2.438-.586-4.5-.586-4.618 0-.093-1.523-.164-3.398-.164-2.578 0-3.399.07-3.399.282zm8.11 1.054c.093.75.375 3.047.656 5.11l.492 3.75 3.024.07 3.023.07-.164-3.703c-.094-2.039-.211-4.36-.305-5.18l-.14-1.453h-6.75l.164 1.336zm7.898.352c.094.937.211 3.258.305 5.156l.164 3.469h9.234l.164-3.469c.094-1.898.211-4.219.305-5.156l.14-1.688H20.774l.141 1.688zm11.344-.235c-.094.82-.211 3.141-.305 5.157l-.164 3.703h6.07l.633-4.992c.352-2.72.633-5.04.633-5.157 0-.093-1.523-.164-3.375-.164h-3.352l-.14 1.453zm8.039-1.289c0 .117-.258 2.25-.586 4.758-.328 2.508-.586 4.758-.586 4.992 0 .375.258.399 2.977.352l2.976-.07 1.008-4.805c.539-2.649.984-4.945 1.008-5.11 0-.21-.82-.28-3.399-.28-1.875 0-3.398.07-3.398.163zM5.047 39.766c.07.422.281 1.195.422 1.71l.281.938h40.5l.281-.937c.14-.516.352-1.29.422-1.711l.188-.75H4.86l.187.75zm3.141 3.867c0 .117.468 2.437 1.054 5.18.586 2.765 1.055 5.062 1.055 5.109 0 .047 1.055.094 2.344.094h2.343v-.68c0-.89-1.148-9.422-1.312-9.68-.14-.234-5.485-.258-5.485-.023zm6.82.234c0 .235.282 2.578.633 5.227l.656 4.804 2.414.07 2.415.071-.165-3.422c-.093-1.875-.234-4.219-.328-5.226l-.14-1.805-2.742-.07c-2.532-.047-2.766-.024-2.743.351zm6.867 2.343c.07 1.524.21 3.892.305 5.274l.14 2.532h7.36l.14-2.508c.094-1.406.235-3.774.305-5.297l.164-2.742H21.71l.165 2.742zm9.633-2.46c-.094.328-.586 8.086-.586 9.445v.82h5.39c2.977 0 5.391-.046 5.391-.093s.469-2.344 1.055-5.11c.586-2.742 1.054-5.085 1.054-5.18 0-.093-1.242-.14-2.742-.116l-2.765.07-.352 2.742c-.21 1.5-.445 2.813-.516 2.906-.093.07-.351.094-.562 0-.328-.117-.375-.351-.234-1.382.07-.657.21-1.922.28-2.813l.165-1.57h-2.742c-1.969 0-2.766.07-2.836.281zm17.32 2.273c-.703.305-1.5 1.383-1.5 2.063 0 1.312 1.125 2.414 2.461 2.414.328 0 .914-.305 1.336-.68.633-.562.773-.843.773-1.64 0-1.57-1.664-2.742-3.07-2.157zM3.313 47.969c-.305.304-.375 1.101-.094 1.5.54.773 1.922.281 1.922-.703 0-.657-.422-1.078-1.055-1.078-.281 0-.61.117-.773.28z" fill="#fff"/></svg>