<svg xmlns="http://www.w3.org/2000/svg" width="22.286" height="24"><path id="calendar" d="M1.714 1.714h3.857v-3.857H1.714zm4.714 0h4.286v-3.857H6.429zM1.714-3h3.857v-4.286H1.714zm4.715 0h4.286v-4.286H6.429zM1.714-8.143h3.857V-12H1.714zm9.857 9.857h4.286v-3.857h-4.286zM6.429-8.143h4.286V-12H6.429zm10.285 9.857h3.857v-3.857h-3.857zM11.571-3h4.286v-4.286h-4.286zM6.857-14.571v-3.857a.412.412 0 00-.127-.3.412.412 0 00-.3-.127h-.859a.412.412 0 00-.3.127.412.412 0 00-.127.3v3.857a.412.412 0 00.127.3.412.412 0 00.3.127h.857a.412.412 0 00.3-.127.412.412 0 00.129-.3zM16.714-3h3.857v-4.286h-3.857zm-5.143-5.143h4.286V-12h-4.286zm5.143 0h3.857V-12h-3.857zm.429-6.429v-3.857a.412.412 0 00-.127-.3.412.412 0 00-.3-.127h-.857a.412.412 0 00-.3.127.412.412 0 00-.127.3v3.857a.412.412 0 00.127.3.412.412 0 00.3.127h.857a.412.412 0 00.3-.127.412.412 0 00.127-.299zm5.143-.857V1.714a1.647 1.647 0 01-.509 1.205 1.647 1.647 0 01-1.205.509H1.714A1.647 1.647 0 01.509 2.92 1.647 1.647 0 010 1.714v-17.143a1.647 1.647 0 01.509-1.205 1.647 1.647 0 011.205-.509h1.715v-1.286a2.063 2.063 0 01.629-1.513 2.063 2.063 0 011.513-.629h.857a2.063 2.063 0 011.513.629 2.063 2.063 0 01.629 1.513v1.286h5.143v-1.286a2.063 2.063 0 01.629-1.513 2.063 2.063 0 011.513-.629h.857a2.063 2.063 0 011.513.629 2.063 2.063 0 01.629 1.513v1.286h1.714a1.647 1.647 0 011.205.509 1.647 1.647 0 01.513 1.205z" transform="translate(0 20.571)"/></svg>