<svg xmlns="http://www.w3.org/2000/svg" width="22.286" height="24" viewBox="0 0 22.286 24">
  <path id="calendar" d="M1.714,1.714H5.571V-2.143H1.714Zm4.714,0h4.286V-2.143H6.429ZM1.714-3H5.571V-7.286H1.714ZM6.429-3h4.286V-7.286H6.429ZM1.714-8.143H5.571V-12H1.714Zm9.857,9.857h4.286V-2.143H11.571ZM6.429-8.143h4.286V-12H6.429ZM16.714,1.714h3.857V-2.143H16.714ZM11.571-3h4.286V-7.286H11.571ZM6.857-14.571v-3.857a.412.412,0,0,0-.127-.3.412.412,0,0,0-.3-.127H5.571a.412.412,0,0,0-.3.127.412.412,0,0,0-.127.3v3.857a.412.412,0,0,0,.127.3.412.412,0,0,0,.3.127h.857a.412.412,0,0,0,.3-.127A.412.412,0,0,0,6.857-14.571ZM16.714-3h3.857V-7.286H16.714ZM11.571-8.143h4.286V-12H11.571Zm5.143,0h3.857V-12H16.714Zm.429-6.429v-3.857a.412.412,0,0,0-.127-.3.412.412,0,0,0-.3-.127h-.857a.412.412,0,0,0-.3.127.412.412,0,0,0-.127.3v3.857a.412.412,0,0,0,.127.3.412.412,0,0,0,.3.127h.857a.412.412,0,0,0,.3-.127A.412.412,0,0,0,17.143-14.571Zm5.143-.857V1.714a1.647,1.647,0,0,1-.509,1.205,1.647,1.647,0,0,1-1.205.509H1.714A1.647,1.647,0,0,1,.509,2.92,1.647,1.647,0,0,1,0,1.714V-15.429a1.647,1.647,0,0,1,.509-1.205,1.647,1.647,0,0,1,1.205-.509H3.429v-1.286a2.063,2.063,0,0,1,.629-1.513,2.063,2.063,0,0,1,1.513-.629h.857a2.063,2.063,0,0,1,1.513.629,2.063,2.063,0,0,1,.629,1.513v1.286h5.143v-1.286a2.063,2.063,0,0,1,.629-1.513,2.063,2.063,0,0,1,1.513-.629h.857a2.063,2.063,0,0,1,1.513.629,2.063,2.063,0,0,1,.629,1.513v1.286h1.714a1.647,1.647,0,0,1,1.205.509A1.647,1.647,0,0,1,22.286-15.429Z" transform="translate(0 20.571)"/>
</svg>
