<svg xmlns="http://www.w3.org/2000/svg" width="20.156" height="20.571" viewBox="0 0 20.156 20.571">
  <path id="google" d="M0-10.045H9.71A9.731,9.731,0,0,1,9.871-8.33a10.849,10.849,0,0,1-1.219,5.19A8.8,8.8,0,0,1,5.176.429,10.271,10.271,0,0,1,0,1.714,10.111,10.111,0,0,1-4,.9a10.286,10.286,0,0,1-3.281-2.19,10.286,10.286,0,0,1-2.19-3.281,10.111,10.111,0,0,1-.81-4,10.111,10.111,0,0,1,.81-4,10.286,10.286,0,0,1,2.19-3.281A10.286,10.286,0,0,1-4-18.047a10.111,10.111,0,0,1,4-.81,9.747,9.747,0,0,1,6.9,2.692L4.1-13.473A5.662,5.662,0,0,0,0-15.067a6.145,6.145,0,0,0-3.194.871,6.415,6.415,0,0,0-2.324,2.364,6.437,6.437,0,0,0-.857,3.261A6.437,6.437,0,0,0-5.518-5.31,6.415,6.415,0,0,0-3.194-2.946,6.145,6.145,0,0,0,0-2.076,6.828,6.828,0,0,0,2.143-2.4,5.4,5.4,0,0,0,3.75-3.2a5.815,5.815,0,0,0,1.1-1.1,5.117,5.117,0,0,0,.69-1.165,4.921,4.921,0,0,0,.3-1.045H0Z" transform="translate(10.286 18.857)"/>
</svg>
