<svg xmlns="http://www.w3.org/2000/svg" width="20.156" height="20.571"><path id="google" d="M0-10.045h9.71a9.731 9.731 0 01.161 1.715 10.849 10.849 0 01-1.219 5.19A8.8 8.8 0 015.176.429 10.271 10.271 0 010 1.714 10.111 10.111 0 01-4 .9a10.286 10.286 0 01-3.281-2.19 10.286 10.286 0 01-2.19-3.281 10.111 10.111 0 01-.81-4 10.111 10.111 0 01.81-4 10.286 10.286 0 012.19-3.281A10.286 10.286 0 01-4-18.047a10.111 10.111 0 014-.81 9.747 9.747 0 016.9 2.692l-2.8 2.692A5.662 5.662 0 000-15.067a6.145 6.145 0 00-3.194.871 6.415 6.415 0 00-2.324 2.364 6.437 6.437 0 00-.857 3.261 6.437 6.437 0 00.857 3.261 6.415 6.415 0 002.324 2.364A6.145 6.145 0 000-2.076 6.828 6.828 0 002.143-2.4a5.4 5.4 0 001.607-.8 5.815 5.815 0 001.1-1.1 5.117 5.117 0 00.69-1.165 4.921 4.921 0 00.3-1.045H0z" transform="translate(10.286 18.857)"/></svg>