<svg xmlns="http://www.w3.org/2000/svg" width="20.571" height="20.571"><path id="info" d="M13.714-2.143v-2.143a.417.417 0 00-.121-.308.417.417 0 00-.308-.121H12v-6.857a.417.417 0 00-.121-.308.417.417 0 00-.308-.12H7.286a.417.417 0 00-.308.121.417.417 0 00-.121.308v2.143a.417.417 0 00.121.308.417.417 0 00.308.12h1.285v4.286H7.286a.417.417 0 00-.308.121.417.417 0 00-.121.308v2.143a.417.417 0 00.121.308.417.417 0 00.308.121h6a.417.417 0 00.308-.121.417.417 0 00.12-.309zm-1.714-12v-2.143a.417.417 0 00-.121-.308.417.417 0 00-.308-.121H9a.417.417 0 00-.308.121.417.417 0 00-.121.308v2.143a.417.417 0 00.121.308.417.417 0 00.308.121h2.571a.417.417 0 00.308-.121.417.417 0 00.121-.308zm7.192.408a10.062 10.062 0 011.379 5.163 10.062 10.062 0 01-1.379 5.163A10.24 10.24 0 0115.449.335a10.062 10.062 0 01-5.163 1.379A10.062 10.062 0 015.123.335a10.239 10.239 0 01-3.744-3.743A10.062 10.062 0 010-8.571a10.062 10.062 0 011.379-5.163 10.239 10.239 0 013.743-3.743 10.062 10.062 0 015.163-1.379 10.062 10.062 0 015.163 1.379 10.239 10.239 0 013.744 3.743z" transform="translate(0 18.857)"/></svg>