<svg xmlns="http://www.w3.org/2000/svg" width="20.571" height="20.571" viewBox="0 0 20.571 20.571">
  <path id="info" d="M13.714-2.143V-4.286a.417.417,0,0,0-.121-.308.417.417,0,0,0-.308-.121H12v-6.857a.417.417,0,0,0-.121-.308A.417.417,0,0,0,11.571-12H7.286a.417.417,0,0,0-.308.121.417.417,0,0,0-.121.308v2.143a.417.417,0,0,0,.121.308A.417.417,0,0,0,7.286-9H8.571v4.286H7.286a.417.417,0,0,0-.308.121.417.417,0,0,0-.121.308v2.143a.417.417,0,0,0,.121.308.417.417,0,0,0,.308.121h6a.417.417,0,0,0,.308-.121A.417.417,0,0,0,13.714-2.143ZM12-14.143v-2.143a.417.417,0,0,0-.121-.308.417.417,0,0,0-.308-.121H9a.417.417,0,0,0-.308.121.417.417,0,0,0-.121.308v2.143a.417.417,0,0,0,.121.308A.417.417,0,0,0,9-13.714h2.571a.417.417,0,0,0,.308-.121A.417.417,0,0,0,12-14.143Zm7.192.408a10.062,10.062,0,0,1,1.379,5.163,10.062,10.062,0,0,1-1.379,5.163A10.24,10.24,0,0,1,15.449.335a10.062,10.062,0,0,1-5.163,1.379A10.062,10.062,0,0,1,5.123.335,10.239,10.239,0,0,1,1.379-3.408,10.062,10.062,0,0,1,0-8.571a10.062,10.062,0,0,1,1.379-5.163,10.239,10.239,0,0,1,3.743-3.743,10.062,10.062,0,0,1,5.163-1.379,10.062,10.062,0,0,1,5.163,1.379A10.239,10.239,0,0,1,19.192-13.734Z" transform="translate(0 18.857)"/>
</svg>
