<svg xmlns="http://www.w3.org/2000/svg" width="20.571" height="20.571"><path id="instagram" d="M2.424-6.147a3.3 3.3 0 001-2.424 3.3 3.3 0 00-1-2.424A3.3 3.3 0 000-12a3.3 3.3 0 00-2.424 1 3.3 3.3 0 00-1 2.424 3.3 3.3 0 001 2.424A3.3 3.3 0 000-5.143a3.3 3.3 0 002.424-1.004zm1.313-6.161a5.088 5.088 0 011.54 3.737 5.088 5.088 0 01-1.54 3.737A5.088 5.088 0 010-3.295a5.088 5.088 0 01-3.737-1.54 5.088 5.088 0 01-1.54-3.737 5.088 5.088 0 011.54-3.737A5.088 5.088 0 010-13.848a5.088 5.088 0 013.737 1.54zm2.625-2.625a1.187 1.187 0 01.362.871 1.187 1.187 0 01-.362.871 1.187 1.187 0 01-.871.362 1.187 1.187 0 01-.871-.362 1.187 1.187 0 01-.362-.871 1.187 1.187 0 01.362-.871 1.187 1.187 0 01.871-.362 1.187 1.187 0 01.871.362zm-5.337-2.083L0-17.009l-1.025-.007q-.931-.007-1.413 0t-1.292.04a10.613 10.613 0 00-1.379.134 5.37 5.37 0 00-.958.248 3.475 3.475 0 00-1.179.777 3.475 3.475 0 00-.777 1.179 5.37 5.37 0 00-.248.958A10.613 10.613 0 00-8.4-12.3q-.033.81-.04 1.292t0 1.413l.007 1.025-.007 1.025q-.007.931 0 1.413t.04 1.292a10.613 10.613 0 00.13 1.378 5.37 5.37 0 00.248.958 3.475 3.475 0 00.777 1.179 3.475 3.475 0 001.179.777 5.37 5.37 0 00.957.248 10.613 10.613 0 001.379.133q.81.033 1.292.04t1.413 0L0-.134l1.025.007q.931.007 1.413 0t1.292-.04A10.613 10.613 0 005.109-.3a5.37 5.37 0 00.958-.248 3.475 3.475 0 001.179-.777A3.475 3.475 0 008.022-2.5a5.37 5.37 0 00.248-.958 10.613 10.613 0 00.13-1.384q.033-.81.04-1.292t0-1.413l-.007-1.025q0-.094.011-1.028.007-.931 0-1.413T8.4-12.3a10.613 10.613 0 00-.134-1.379 5.37 5.37 0 00-.248-.958 3.475 3.475 0 00-.777-1.179 3.475 3.475 0 00-1.179-.777 5.37 5.37 0 00-.958-.248 10.613 10.613 0 00-1.379-.134q-.81-.033-1.292-.04t-1.408-.001zm9.194 4.2q.067 1.179.067 4.246t-.067 4.246A6.283 6.283 0 018.558-.013a6.283 6.283 0 01-4.312 1.66Q3.067 1.714 0 1.714t-4.246-.067a6.283 6.283 0 01-4.312-1.66 6.283 6.283 0 01-1.661-4.313q-.067-1.179-.067-4.246t.067-4.246a6.283 6.283 0 011.661-4.312 6.283 6.283 0 014.312-1.66q1.179-.067 4.246-.067t4.246.067a6.283 6.283 0 014.313 1.661 6.283 6.283 0 011.66 4.312z" transform="translate(10.286 18.857)"/></svg>