<svg xmlns="http://www.w3.org/2000/svg" width="20.571" height="20.571" viewBox="0 0 20.571 20.571">
  <path id="instagram" d="M2.424-6.147a3.3,3.3,0,0,0,1-2.424,3.3,3.3,0,0,0-1-2.424A3.3,3.3,0,0,0,0-12a3.3,3.3,0,0,0-2.424,1,3.3,3.3,0,0,0-1,2.424,3.3,3.3,0,0,0,1,2.424A3.3,3.3,0,0,0,0-5.143,3.3,3.3,0,0,0,2.424-6.147Zm1.313-6.161a5.088,5.088,0,0,1,1.54,3.737,5.088,5.088,0,0,1-1.54,3.737A5.088,5.088,0,0,1,0-3.295a5.088,5.088,0,0,1-3.737-1.54,5.088,5.088,0,0,1-1.54-3.737,5.088,5.088,0,0,1,1.54-3.737A5.088,5.088,0,0,1,0-13.848,5.088,5.088,0,0,1,3.737-12.308Zm2.625-2.625a1.187,1.187,0,0,1,.362.871,1.187,1.187,0,0,1-.362.871,1.187,1.187,0,0,1-.871.362,1.187,1.187,0,0,1-.871-.362,1.187,1.187,0,0,1-.362-.871,1.187,1.187,0,0,1,.362-.871,1.187,1.187,0,0,1,.871-.362A1.187,1.187,0,0,1,6.362-14.933ZM1.025-17.016,0-17.009l-1.025-.007q-.931-.007-1.413,0t-1.292.04a10.613,10.613,0,0,0-1.379.134,5.37,5.37,0,0,0-.958.248,3.475,3.475,0,0,0-1.179.777,3.475,3.475,0,0,0-.777,1.179,5.37,5.37,0,0,0-.248.958A10.613,10.613,0,0,0-8.4-12.3q-.033.81-.04,1.292t0,1.413q.007.931.007,1.025t-.007,1.025q-.007.931,0,1.413t.04,1.292A10.613,10.613,0,0,0-8.27-3.462a5.37,5.37,0,0,0,.248.958,3.475,3.475,0,0,0,.777,1.179,3.475,3.475,0,0,0,1.179.777A5.37,5.37,0,0,0-5.109-.3,10.613,10.613,0,0,0-3.73-.167q.81.033,1.292.04t1.413,0L0-.134l1.025.007q.931.007,1.413,0T3.73-.167A10.613,10.613,0,0,0,5.109-.3a5.37,5.37,0,0,0,.958-.248,3.475,3.475,0,0,0,1.179-.777A3.475,3.475,0,0,0,8.022-2.5a5.37,5.37,0,0,0,.248-.958A10.613,10.613,0,0,0,8.4-4.842q.033-.81.04-1.292t0-1.413q-.007-.931-.007-1.025T8.444-9.6q.007-.931,0-1.413T8.4-12.3a10.613,10.613,0,0,0-.134-1.379,5.37,5.37,0,0,0-.248-.958,3.475,3.475,0,0,0-.777-1.179,3.475,3.475,0,0,0-1.179-.777,5.37,5.37,0,0,0-.958-.248,10.613,10.613,0,0,0-1.379-.134q-.81-.033-1.292-.04T1.025-17.016Zm9.194,4.2q.067,1.179.067,4.246t-.067,4.246A6.283,6.283,0,0,1,8.558-.013,6.283,6.283,0,0,1,4.246,1.647Q3.067,1.714,0,1.714t-4.246-.067A6.283,6.283,0,0,1-8.558-.013a6.283,6.283,0,0,1-1.661-4.313q-.067-1.179-.067-4.246t.067-4.246a6.283,6.283,0,0,1,1.661-4.312A6.283,6.283,0,0,1-4.246-18.79q1.179-.067,4.246-.067t4.246.067a6.283,6.283,0,0,1,4.313,1.661A6.283,6.283,0,0,1,10.219-12.817Z" transform="translate(10.286 18.857)"/>
</svg>
