<svg xmlns="http://www.w3.org/2000/svg" width="252.282" height="42.219" viewBox="0 0 252.282 42.219">
  <defs>
    <style>
      .cls-1 {
        fill: #fff;
        fill-rule: evenodd;
      }
    </style>
  </defs>
  <path id="EXGIFTS" class="cls-1" d="M317.02,73.337h8.64V33.2h-8.64v40.14Zm13.56,0h15.84v-8.4H330.58v8.4Zm0-15.84h15.84V49.1H330.58v8.4Zm0-15.9h15.84V33.2H330.58v8.4Zm22.08,31.74h10.62l7.08-9.6-5.28-7.2Zm30.78,0h10.68L364.66,33.2H353.98Zm-7.08-32.22,5.34,7.2L392.92,33.2H382.24Zm51.419,21.3a11.811,11.811,0,0,1-8.58,3.54,12.041,12.041,0,0,1-4.86-.992,12.409,12.409,0,0,1-3.96-2.707,13.081,13.081,0,0,1-2.67-4,12.122,12.122,0,0,1-.99-4.871,12.448,12.448,0,0,1,.96-4.871,12.054,12.054,0,0,1,2.67-3.969,12.569,12.569,0,0,1,8.91-3.609,11.911,11.911,0,0,1,4.65.87,14.5,14.5,0,0,1,4.23,2.91l6.3-6a20.532,20.532,0,0,0-15.18-6.48,20.747,20.747,0,0,0-8.28,1.65,21.176,21.176,0,0,0-6.709,4.53,21.57,21.57,0,0,0-4.53,6.72,21.17,21.17,0,0,0,0,16.44,21.345,21.345,0,0,0,11.3,11.25,21.175,21.175,0,0,0,14.1.81,20.938,20.938,0,0,0,9.72-6.18,22.151,22.151,0,0,0,3.36-5.04h-10.44Zm-8.58-4.8h20.52q0.238-1.26.33-2.16t0.09-2.04q0-1.139-.09-2.04t-0.33-2.16H419.2v8.4Zm32.94,15.72h8.64V33.2h-8.64v40.14Zm22.2,0h8.64V33.2h-8.64v40.14Zm13.14-15.84h15.06V49.1h-15.06v8.4Zm0-15.9h15.06V33.2h-15.06v8.4Zm30.66,31.74h8.64V46.517h-8.64v26.82ZM508.9,41.6h27.06V33.2H508.9v8.4Zm33.84,19.62a16.986,16.986,0,0,0,.57,3.723,13.053,13.053,0,0,0,1.35,3.072,12.8,12.8,0,0,0,4.83,4.714A13.148,13.148,0,0,0,556,74.417a13.012,13.012,0,0,0,5.25-1.058,13.47,13.47,0,0,0,4.23-2.87,13.2,13.2,0,0,0,2.82-4.252,13.5,13.5,0,0,0,1.02-5.26q0-8.22-8.04-11.88l-3.9,7.68a6.4,6.4,0,0,1,2.52,1.8,4.133,4.133,0,0,1,.78,2.58,4.656,4.656,0,0,1-1.32,3.39,4.426,4.426,0,0,1-3.3,1.35q-4.14,0-4.8-4.68h-8.52Zm24.72-17.04a14.152,14.152,0,0,0-1.05-4.9,11.585,11.585,0,0,0-2.52-3.773,11.037,11.037,0,0,0-3.72-2.417,12.65,12.65,0,0,0-4.71-.847,11.98,11.98,0,0,0-4.68.907A11.851,11.851,0,0,0,547,35.651a11.44,11.44,0,0,0-2.52,3.743,12.534,12.534,0,0,0-.03,9.252,11.043,11.043,0,0,0,2.43,3.69,10.717,10.717,0,0,0,2.4,1.74,18.046,18.046,0,0,0,3.36,1.26l3.9-7.8q-1.382-.3-1.74-0.42l-0.72-.24a2.961,2.961,0,0,1-1.86-2.82,3.3,3.3,0,0,1,.9-2.34,2.991,2.991,0,0,1,2.28-.96q2.7,0,3.12,3.42h8.94Z" transform="translate(-317.031 -32.25)"/>
</svg>
