<svg xmlns="http://www.w3.org/2000/svg" width="252.282" height="42.219"><path id="EXGIFTS" d="M317.02 73.337h8.64V33.2h-8.64v40.14zm13.56 0h15.84v-8.4h-15.84v8.4zm0-15.84h15.84V49.1h-15.84v8.4zm0-15.9h15.84V33.2h-15.84v8.4zm22.08 31.74h10.62l7.08-9.6-5.28-7.2zm30.78 0h10.68L364.66 33.2h-10.68zm-7.08-32.22l5.34 7.2L392.92 33.2h-10.68zm51.419 21.3a11.811 11.811 0 01-8.58 3.54 12.041 12.041 0 01-4.86-.992 12.409 12.409 0 01-3.96-2.707 13.081 13.081 0 01-2.67-4 12.122 12.122 0 01-.99-4.871 12.448 12.448 0 01.96-4.871 12.054 12.054 0 012.67-3.969 12.569 12.569 0 018.91-3.609 11.911 11.911 0 014.65.87 14.5 14.5 0 014.23 2.91l6.3-6a20.532 20.532 0 00-15.18-6.48 20.747 20.747 0 00-8.28 1.65 21.176 21.176 0 00-6.709 4.53 21.57 21.57 0 00-4.53 6.72 21.17 21.17 0 000 16.44 21.345 21.345 0 0011.3 11.25 21.175 21.175 0 0014.1.81 20.938 20.938 0 009.72-6.18 22.151 22.151 0 003.36-5.04h-10.44zm-8.58-4.8h20.52q.238-1.26.33-2.16t.09-2.04q0-1.139-.09-2.04t-.33-2.16H419.2v8.4zm32.94 15.72h8.64V33.2h-8.64v40.14zm22.2 0h8.64V33.2h-8.64v40.14zm13.14-15.84h15.06V49.1h-15.06v8.4zm0-15.9h15.06V33.2h-15.06v8.4zm30.66 31.74h8.64v-26.82h-8.64v26.82zM508.9 41.6h27.06v-8.4H508.9v8.4zm33.84 19.62a16.986 16.986 0 00.57 3.723 13.053 13.053 0 001.35 3.072 12.8 12.8 0 004.83 4.714 13.148 13.148 0 006.51 1.688 13.012 13.012 0 005.25-1.058 13.47 13.47 0 004.23-2.87 13.2 13.2 0 002.82-4.252 13.5 13.5 0 001.02-5.26q0-8.22-8.04-11.88l-3.9 7.68a6.4 6.4 0 012.52 1.8 4.133 4.133 0 01.78 2.58 4.656 4.656 0 01-1.32 3.39 4.426 4.426 0 01-3.3 1.35q-4.14 0-4.8-4.68h-8.52zm24.72-17.04a14.152 14.152 0 00-1.05-4.9 11.585 11.585 0 00-2.52-3.773 11.037 11.037 0 00-3.72-2.417 12.65 12.65 0 00-4.71-.847 11.98 11.98 0 00-4.68.907 11.851 11.851 0 00-3.78 2.501 11.44 11.44 0 00-2.52 3.743 12.534 12.534 0 00-.03 9.252 11.043 11.043 0 002.43 3.69 10.717 10.717 0 002.4 1.74 18.046 18.046 0 003.36 1.26l3.9-7.8q-1.382-.3-1.74-.42l-.72-.24a2.961 2.961 0 01-1.86-2.82 3.3 3.3 0 01.9-2.34 2.991 2.991 0 012.28-.96q2.7 0 3.12 3.42h8.94z" transform="translate(-317.031 -32.25)" fill="#fff" fill-rule="evenodd"/></svg>