<svg xmlns="http://www.w3.org/2000/svg" width="24" height="18.857" viewBox="0 0 24 18.857">
  <path id="mail" d="M24-11.063V-.429a2.063,2.063,0,0,1-.629,1.513,2.063,2.063,0,0,1-1.513.629H2.143A2.063,2.063,0,0,1,.629,1.085,2.063,2.063,0,0,1,0-.429V-11.063A7.1,7.1,0,0,0,1.353-9.9Q6.2-6.6,8.009-5.277q.763.563,1.239.877a7.653,7.653,0,0,0,1.266.643,3.86,3.86,0,0,0,1.473.328h.027a3.86,3.86,0,0,0,1.473-.328A7.653,7.653,0,0,0,14.752-4.4q.475-.315,1.239-.877,2.277-1.647,6.67-4.621A7.387,7.387,0,0,0,24-11.063ZM24-15a3.54,3.54,0,0,1-.656,2.022A6.368,6.368,0,0,1,21.71-11.33L15.442-6.978q-.134.094-.569.408t-.723.509q-.288.194-.7.435a4.057,4.057,0,0,1-.77.362,2.128,2.128,0,0,1-.67.121h-.027a2.128,2.128,0,0,1-.67-.121,4.057,4.057,0,0,1-.77-.362q-.408-.241-.7-.435t-.723-.509q-.435-.315-.569-.408Q7.339-7.835,5.049-9.422T2.3-11.33A6.65,6.65,0,0,1,.737-12.877,3.128,3.128,0,0,1,0-14.705a2.7,2.7,0,0,1,.556-1.741,1.913,1.913,0,0,1,1.587-.7H21.857a2.07,2.07,0,0,1,1.507.629A2.053,2.053,0,0,1,24-15Z" transform="translate(0 17.143)"/>
</svg>
