<svg xmlns="http://www.w3.org/2000/svg" width="24" height="18.857"><path id="mail" d="M24-11.063V-.429a2.063 2.063 0 01-.629 1.513 2.063 2.063 0 01-1.513.629H2.143a2.063 2.063 0 01-1.514-.628A2.063 2.063 0 010-.429v-10.634A7.1 7.1 0 001.353-9.9Q6.2-6.6 8.009-5.277q.763.563 1.239.877a7.653 7.653 0 001.266.643 3.86 3.86 0 001.473.328h.027a3.86 3.86 0 001.473-.328 7.653 7.653 0 001.265-.643q.475-.315 1.239-.877 2.277-1.647 6.67-4.621A7.387 7.387 0 0024-11.063zM24-15a3.54 3.54 0 01-.656 2.022 6.368 6.368 0 01-1.634 1.648l-6.268 4.352q-.134.094-.569.408t-.723.509q-.288.194-.7.435a4.057 4.057 0 01-.77.362 2.128 2.128 0 01-.67.121h-.027a2.128 2.128 0 01-.67-.121 4.057 4.057 0 01-.77-.362q-.408-.241-.7-.435T9.12-6.57q-.435-.315-.569-.408-1.212-.857-3.502-2.444T2.3-11.33a6.65 6.65 0 01-1.563-1.547A3.128 3.128 0 010-14.705a2.7 2.7 0 01.556-1.741 1.913 1.913 0 011.587-.7h19.714a2.07 2.07 0 011.507.629A2.053 2.053 0 0124-15z" transform="translate(0 17.143)"/></svg>