<svg xmlns="http://www.w3.org/2000/svg" width="13.714" height="24"><path id="map_pin" d="M-8.571-6.2a7.264 7.264 0 001.714.2 7.264 7.264 0 001.714-.2v8.771a.824.824 0 01-.254.6.824.824 0 01-.6.254h-1.717a.824.824 0 01-.6-.254.824.824 0 01-.254-.6zm-3.134-12.362a6.607 6.607 0 014.848-2.009 6.607 6.607 0 014.848 2.009A6.607 6.607 0 010-13.714a6.607 6.607 0 01-2.009 4.848 6.607 6.607 0 01-4.848 2.009 6.607 6.607 0 01-4.848-2.009 6.607 6.607 0 01-2.009-4.848 6.607 6.607 0 012.009-4.849zm4.848.991a.417.417 0 00.308-.121.417.417 0 00.12-.308.417.417 0 00-.121-.308.417.417 0 00-.308-.121 4.543 4.543 0 00-3.335 1.379 4.543 4.543 0 00-1.379 3.335.417.417 0 00.121.308.417.417 0 00.308.121.417.417 0 00.308-.121.417.417 0 00.121-.308 3.715 3.715 0 011.131-2.725 3.715 3.715 0 012.726-1.131z" transform="translate(13.714 20.571)"/></svg>