<svg xmlns="http://www.w3.org/2000/svg" width="13.714" height="24" viewBox="0 0 13.714 24">
  <path id="map_pin" d="M-8.571-6.2A7.264,7.264,0,0,0-6.857-6a7.264,7.264,0,0,0,1.714-.2V2.571a.824.824,0,0,1-.254.6.824.824,0,0,1-.6.254H-7.714a.824.824,0,0,1-.6-.254.824.824,0,0,1-.254-.6Zm-3.134-12.362a6.607,6.607,0,0,1,4.848-2.009,6.607,6.607,0,0,1,4.848,2.009A6.607,6.607,0,0,1,0-13.714,6.607,6.607,0,0,1-2.009-8.866,6.607,6.607,0,0,1-6.857-6.857a6.607,6.607,0,0,1-4.848-2.009,6.607,6.607,0,0,1-2.009-4.848A6.607,6.607,0,0,1-11.705-18.563Zm4.848.991a.417.417,0,0,0,.308-.121A.417.417,0,0,0-6.429-18a.417.417,0,0,0-.121-.308.417.417,0,0,0-.308-.121,4.543,4.543,0,0,0-3.335,1.379,4.543,4.543,0,0,0-1.379,3.335.417.417,0,0,0,.121.308.417.417,0,0,0,.308.121.417.417,0,0,0,.308-.121.417.417,0,0,0,.121-.308A3.715,3.715,0,0,1-9.583-16.44,3.715,3.715,0,0,1-6.857-17.571Z" transform="translate(13.714 20.571)"/>
</svg>
