<svg xmlns="http://www.w3.org/2000/svg" width="18.857" height="18.857" viewBox="0 0 18.857 18.857">
  <path id="phone" d="M0-3.964a4.421,4.421,0,0,1-.134.944A5.321,5.321,0,0,1-.415-2.1,3.591,3.591,0,0,1-2.049-.683,5.193,5.193,0,0,1-4.54,0a5.315,5.315,0,0,1-.71-.047,5.5,5.5,0,0,1-.77-.167q-.422-.121-.629-.194t-.743-.275q-.536-.2-.656-.241a12.13,12.13,0,0,1-2.344-1.112,20.187,20.187,0,0,1-3.536-2.893,20.187,20.187,0,0,1-2.893-3.536,12.13,12.13,0,0,1-1.112-2.344q-.04-.121-.241-.656t-.275-.743q-.074-.208-.194-.629a5.5,5.5,0,0,1-.167-.77,5.315,5.315,0,0,1-.047-.71,5.193,5.193,0,0,1,.683-2.491,3.591,3.591,0,0,1,1.42-1.634,5.321,5.321,0,0,1,.917-.281,4.421,4.421,0,0,1,.944-.134.75.75,0,0,1,.281.04q.241.08.71,1.018.147.254.4.723t.469.85q.214.382.415.717.04.054.234.335a3.741,3.741,0,0,1,.288.475.874.874,0,0,1,.094.382,1.112,1.112,0,0,1-.382.67,6.528,6.528,0,0,1-.83.737,8.066,8.066,0,0,0-.83.71,1.02,1.02,0,0,0-.382.616.9.9,0,0,0,.067.3,2.923,2.923,0,0,0,.114.275q.047.094.188.321t.154.254a14.058,14.058,0,0,0,2.33,3.147,14.058,14.058,0,0,0,3.147,2.33q.027.013.254.154t.321.188a2.924,2.924,0,0,0,.275.114.9.9,0,0,0,.3.067,1.02,1.02,0,0,0,.616-.382,8.065,8.065,0,0,0,.71-.83,6.529,6.529,0,0,1,.737-.83,1.112,1.112,0,0,1,.67-.382.874.874,0,0,1,.382.094,3.741,3.741,0,0,1,.475.288q.281.194.335.234.335.2.717.415t.85.469q.469.254.723.4.938.469,1.018.71A.75.75,0,0,1,0-3.964Z" transform="translate(18.857 18.857)"/>
</svg>
