<svg xmlns="http://www.w3.org/2000/svg" width="15.002" height="14.45" viewBox="0 0 15.002 14.45">
  <path id="star" d="M10.674,13.242c-.986-.563-1.984-1.109-2.939-1.721a1.173,1.173,0,0,0-1.4-.07C5.3,12.067,4.262,12.689,3.22,13.3c-.558.327-.747.055-.642-.475.207-1.048.459-2.086.693-3.129.59-1.32-.649-1.744-1.213-2.5C1.48,6.692.9,6.188.327,5.68.159,5.532-.054,5.389.013,5.12c.073-.292.352-.26.562-.285C1.786,4.69,3,4.536,4.213,4.441A.908.908,0,0,0,5.089,3.8C5.539,2.724,6.02,1.66,6.5.6c.111-.244.15-.608.516-.6.31.008.364.33.462.554.307.7.593,1.413.887,2.12.066.129.116.283.19.452a4.668,4.668,0,0,0,.188.455,1.3,1.3,0,0,0,1.169.91c1.18.117,2.36.23,3.539.356.209.022.482-.014.542.293.045.23-.118.366-.267.5q-1.142,1.01-2.288,2.016a1.843,1.843,0,0,0-.61,2.364,25.169,25.169,0,0,1,.579,2.667c.047.239.154.526-.115.706a.318.318,0,0,1-.18.059C10.955,13.45,10.812,13.32,10.674,13.242ZM10.8,7.68c-1.27.945-2.554,1.871-3.811,2.832-.29.222-.651.446-.653.894,0-.449.363-.673.653-.894C8.243,9.551,9.528,8.625,10.8,7.68l.01-.008Zm.024-.018h0Zm.008-.006.015-.011Zm.026-.019a.6.6,0,0,1,.314-.15A.6.6,0,0,0,10.855,7.637Zm.564-.011-.005-.006Zm-.24-.139h0Z" transform="translate(0.499 0.5)" stroke="rgba(0,0,0,0)" stroke-miterlimit="10" stroke-width="1"/>
</svg>
