<svg xmlns="http://www.w3.org/2000/svg" width="15.002" height="14.45"><path id="star" d="M11.173 13.742c-.986-.563-1.984-1.109-2.939-1.721a1.173 1.173 0 00-1.4-.07c-1.035.616-2.073 1.238-3.115 1.849-.558.327-.747.055-.642-.475.207-1.048.459-2.086.693-3.129.59-1.32-.649-1.744-1.213-2.5C1.979 7.192 1.399 6.688.826 6.18c-.168-.148-.381-.291-.314-.56.073-.292.352-.26.562-.285 1.211-.145 2.425-.299 3.638-.394a.908.908 0 00.876-.641c.45-1.076.931-2.14 1.411-3.2.111-.244.15-.608.516-.6.31.008.364.33.462.554.307.7.593 1.413.887 2.12.066.129.116.283.19.452a4.668 4.668 0 00.188.455 1.3 1.3 0 001.169.91c1.18.117 2.36.23 3.539.356.209.022.482-.014.542.293.045.23-.118.366-.267.5q-1.142 1.01-2.288 2.016a1.843 1.843 0 00-.61 2.364 25.169 25.169 0 01.579 2.667c.047.239.154.526-.115.706a.318.318 0 01-.18.059c-.157-.002-.3-.132-.438-.21zm.126-5.562c-1.27.945-2.554 1.871-3.811 2.832-.29.222-.651.446-.653.894 0-.449.363-.673.653-.894 1.254-.961 2.539-1.887 3.811-2.832l.01-.008zm.024-.018h0zm.008-.006l.015-.011zm.026-.019a.6.6 0 01.314-.15.6.6 0 00-.317.15zm.564-.011l-.005-.006zm-.24-.139h0z" stroke="rgba(0,0,0,0)" stroke-miterlimit="10" stroke-width="1"/></svg>