<svg xmlns="http://www.w3.org/2000/svg" width="24" height="24" viewBox="0 0 24 24">
  <path id="twitter" d="M3.924-3.067l1.969-9.281a.883.883,0,0,0-.141-.844.61.61,0,0,0-.69-.094L-6.509-8.826a1.173,1.173,0,0,0-.529.335.289.289,0,0,0-.033.355.73.73,0,0,0,.429.261l2.96.924,6.871-4.326q.281-.187.429-.08.094.067-.054.2L-2-6.134h0L-2.21-3.08a.86.86,0,0,0,.6-.295L-.161-4.768l3,2.21Q3.7-2.076,3.924-3.067Zm7.125-10.165A11.731,11.731,0,0,1,12-8.571a11.731,11.731,0,0,1-.951,4.661A12.055,12.055,0,0,1,8.491-.08a12.055,12.055,0,0,1-3.83,2.558A11.731,11.731,0,0,1,0,3.429a11.731,11.731,0,0,1-4.661-.951A12.055,12.055,0,0,1-8.491-.08a12.055,12.055,0,0,1-2.558-3.83A11.731,11.731,0,0,1-12-8.571a11.731,11.731,0,0,1,.951-4.661,12.055,12.055,0,0,1,2.558-3.83,12.055,12.055,0,0,1,3.83-2.558A11.731,11.731,0,0,1,0-20.571a11.731,11.731,0,0,1,4.661.951,12.055,12.055,0,0,1,3.83,2.558A12.055,12.055,0,0,1,11.049-13.232Z" transform="translate(12 20.571)"/>
</svg>
