<svg xmlns="http://www.w3.org/2000/svg" width="24" height="24"><path id="twitter" d="M3.924-3.067l1.969-9.281a.883.883 0 00-.141-.844.61.61 0 00-.69-.094l-11.571 4.46a1.173 1.173 0 00-.529.335.289.289 0 00-.033.355.73.73 0 00.429.261l2.96.924 6.871-4.326q.281-.187.429-.08.094.067-.054.2L-2-6.134l-.21 3.054a.86.86 0 00.6-.295l1.449-1.393 3 2.21q.861.482 1.085-.509zm7.125-10.165A11.731 11.731 0 0112-8.571a11.731 11.731 0 01-.951 4.661A12.055 12.055 0 018.491-.08a12.055 12.055 0 01-3.83 2.558A11.731 11.731 0 010 3.429a11.731 11.731 0 01-4.661-.951A12.055 12.055 0 01-8.491-.08a12.055 12.055 0 01-2.558-3.83A11.731 11.731 0 01-12-8.571a11.731 11.731 0 01.951-4.661 12.055 12.055 0 012.558-3.83 12.055 12.055 0 013.83-2.558A11.731 11.731 0 010-20.571a11.731 11.731 0 014.661.951 12.055 12.055 0 013.83 2.558 12.055 12.055 0 012.558 3.83z" transform="translate(12 20.571)"/></svg>