<svg xmlns="http://www.w3.org/2000/svg" width="25.724" height="14.676" viewBox="0 0 25.724 14.676">
  <path id="vk" d="M12.817-13.607q.308.857-2.009,3.938-.321.429-.871,1.138-.536.683-.737.964a6.437,6.437,0,0,0-.408.663.884.884,0,0,0-.161.563,3.023,3.023,0,0,0,.174.462,1.918,1.918,0,0,0,.435.576q.308.295.763.71a.145.145,0,0,1,.067.054,13.338,13.338,0,0,1,2.558,2.96,1.858,1.858,0,0,1,.087.167,1.648,1.648,0,0,1,.094.355A1.034,1.034,0,0,1,12.8-.6a.662.662,0,0,1-.335.368,1.552,1.552,0,0,1-.79.167L8.25-.013A1.5,1.5,0,0,1,7.5-.08a3.259,3.259,0,0,1-.7-.295L6.536-.536A6.278,6.278,0,0,1,5.6-1.393q-.536-.576-.917-1.038a4.437,4.437,0,0,0-.817-.777.85.85,0,0,0-.757-.208A.875.875,0,0,0,3-3.368a1.168,1.168,0,0,0-.228.194,1.7,1.7,0,0,0-.288.4,2.746,2.746,0,0,0-.228.7A4.416,4.416,0,0,0,2.17-1.045a1.363,1.363,0,0,1-.047.368.9.9,0,0,1-.1.248l-.054.067a1.064,1.064,0,0,1-.71.295H-.281A6.087,6.087,0,0,1-2.237-.288,7.475,7.475,0,0,1-4-1a16.061,16.061,0,0,1-1.379-.884,7.958,7.958,0,0,1-.944-.77l-.335-.321q-.134-.134-.368-.4t-.958-1.219q-.723-.951-1.42-2.022t-1.641-2.826q-.944-1.754-1.748-3.643a1.068,1.068,0,0,1-.08-.362.433.433,0,0,1,.04-.214l.054-.08A.933.933,0,0,1-12.013-14l3.67-.027a1.433,1.433,0,0,1,.308.087.909.909,0,0,1,.214.114l.067.04a.884.884,0,0,1,.321.429q.268.67.616,1.386t.549,1.092l.214.388q.388.8.75,1.393a6.88,6.88,0,0,0,.65.917,3.208,3.208,0,0,0,.556.516.849.849,0,0,0,.455.188,1,1,0,0,0,.362-.067.23.23,0,0,0,.067-.067A2.662,2.662,0,0,0-3.054-7.9a2.168,2.168,0,0,0,.181-.629q.06-.388.127-1.085a10.406,10.406,0,0,0,0-1.674,6.224,6.224,0,0,0-.121-.978,2.564,2.564,0,0,0-.187-.616l-.08-.161a1.642,1.642,0,0,0-1.138-.576q-.174-.027.067-.321a1.587,1.587,0,0,1,.509-.4,8.786,8.786,0,0,1,3.2-.321,8.9,8.9,0,0,1,1.808.174,1.542,1.542,0,0,1,.449.181.719.719,0,0,1,.275.321,2.094,2.094,0,0,1,.141.429,3.087,3.087,0,0,1,.047.609q0,.388-.013.737t-.033.944q-.02.6-.02,1.1,0,.147-.013.563t-.007.643q.007.228.047.542a1.473,1.473,0,0,0,.154.522.891.891,0,0,0,.3.328q.107.027.228.054t.348-.147a4.865,4.865,0,0,0,.509-.462,6.925,6.925,0,0,0,.7-.9q.415-.609.911-1.44a21.854,21.854,0,0,0,1.433-3.013.918.918,0,0,1,.134-.234.6.6,0,0,1,.147-.141l.054-.04.067-.033a.711.711,0,0,1,.174-.04,1.076,1.076,0,0,1,.268-.007L11.464-14a2.106,2.106,0,0,1,.857.033.782.782,0,0,1,.415.221Z" transform="translate(12.871 14.667)"/>
</svg>
