<svg xmlns="http://www.w3.org/2000/svg" width="25.724" height="14.676"><path id="vk" d="M12.817-13.607q.308.857-2.009 3.938-.321.429-.871 1.138-.536.683-.737.964a6.437 6.437 0 00-.408.663.884.884 0 00-.161.563 3.023 3.023 0 00.174.462 1.918 1.918 0 00.435.576q.308.295.763.71a.145.145 0 01.067.054 13.338 13.338 0 012.558 2.96 1.858 1.858 0 01.087.167 1.648 1.648 0 01.094.355A1.034 1.034 0 0112.8-.6a.662.662 0 01-.335.368 1.552 1.552 0 01-.79.167L8.25-.013A1.5 1.5 0 017.5-.08a3.259 3.259 0 01-.7-.295l-.264-.161a6.278 6.278 0 01-.936-.857q-.536-.576-.917-1.038a4.437 4.437 0 00-.817-.777.85.85 0 00-.757-.208.875.875 0 00-.109.048 1.168 1.168 0 00-.228.194 1.7 1.7 0 00-.288.4 2.746 2.746 0 00-.228.7 4.416 4.416 0 00-.086 1.029 1.363 1.363 0 01-.047.368.9.9 0 01-.1.248l-.054.067a1.064 1.064 0 01-.71.295h-1.54a6.087 6.087 0 01-1.956-.221A7.475 7.475 0 01-4-1a16.061 16.061 0 01-1.379-.884 7.958 7.958 0 01-.944-.77l-.335-.321q-.134-.134-.368-.4t-.958-1.219q-.723-.951-1.42-2.022t-1.641-2.826q-.944-1.754-1.748-3.643a1.068 1.068 0 01-.08-.362.433.433 0 01.04-.214l.054-.08a.933.933 0 01.766-.259l3.67-.027a1.433 1.433 0 01.308.087.909.909 0 01.214.114l.067.04a.884.884 0 01.321.429q.268.67.616 1.386t.549 1.092l.214.388q.388.8.75 1.393a6.88 6.88 0 00.65.917 3.208 3.208 0 00.556.516.849.849 0 00.455.188 1 1 0 00.362-.067.23.23 0 00.067-.067 2.662 2.662 0 00.16-.289 2.168 2.168 0 00.181-.629q.06-.388.127-1.085a10.406 10.406 0 000-1.674 6.224 6.224 0 00-.121-.978 2.564 2.564 0 00-.187-.616l-.08-.161a1.642 1.642 0 00-1.138-.576q-.174-.027.067-.321a1.587 1.587 0 01.509-.4 8.786 8.786 0 013.2-.321 8.9 8.9 0 011.808.174 1.542 1.542 0 01.449.181.719.719 0 01.275.321 2.094 2.094 0 01.141.429 3.087 3.087 0 01.047.609q0 .388-.013.737t-.033.944q-.02.6-.02 1.1 0 .147-.013.563t-.007.643q.007.228.047.542a1.473 1.473 0 00.154.522.891.891 0 00.3.328q.107.027.228.054t.348-.147a4.865 4.865 0 00.509-.462 6.925 6.925 0 00.7-.9q.415-.609.911-1.44a21.854 21.854 0 001.433-3.013.918.918 0 01.134-.234.6.6 0 01.147-.141l.054-.04.067-.033a.711.711 0 01.174-.04 1.076 1.076 0 01.268-.007L11.464-14a2.106 2.106 0 01.857.033.782.782 0 01.415.221z" transform="translate(12.871 14.667)"/></svg>