<svg xmlns="http://www.w3.org/2000/svg" width="20.571" height="20.732"><path id="whatsapp" d="M2.21-6.877q.522-.65.7-.65a6.1 6.1 0 011.306.589 5.8 5.8 0 011.2.71.571.571 0 01.027.2 2.822 2.822 0 01-.233 1.019 1.8 1.8 0 01-.951.877 3.172 3.172 0 01-1.366.355 7.233 7.233 0 01-2.545-.83 7.643 7.643 0 01-2.277-1.58 17.647 17.647 0 01-1.982-2.478 4.687 4.687 0 01-.951-2.6v-.107a2.96 2.96 0 01.991-2.116 1.013 1.013 0 01.7-.295 2.132 2.132 0 01.241.02 2.169 2.169 0 00.254.02.55.55 0 01.355.087.969.969 0 01.208.368q.107.268.442 1.179a7.828 7.828 0 01.335 1 1.359 1.359 0 01-.462.77q-.462.489-.462.623a.383.383 0 00.067.2A6.03 6.03 0 00-.83-7.674a8.54 8.54 0 002.022 1.353.594.594 0 00.295.094q.201-.001.723-.65zM.188-.429A8.185 8.185 0 003.449-1.1a8.482 8.482 0 002.685-1.793 8.482 8.482 0 001.795-2.685A8.185 8.185 0 008.6-8.839a8.185 8.185 0 00-.67-3.261 8.482 8.482 0 00-1.795-2.685 8.482 8.482 0 00-2.686-1.795 8.185 8.185 0 00-3.261-.67 8.185 8.185 0 00-3.261.67 8.482 8.482 0 00-2.685 1.795A8.482 8.482 0 00-7.554-12.1a8.185 8.185 0 00-.67 3.261 8.182 8.182 0 001.608 4.928L-7.674-.79l3.241-1.031A8.235 8.235 0 00.188-.429zM-3.73-18.134a9.812 9.812 0 013.917-.8 9.812 9.812 0 013.917.8 10.2 10.2 0 013.221 2.156 10.2 10.2 0 012.156 3.221 9.812 9.812 0 01.8 3.917 9.812 9.812 0 01-.8 3.917A10.2 10.2 0 017.326-1.7 10.2 10.2 0 014.1.455a9.812 9.812 0 01-3.917.8A9.943 9.943 0 01-4.7 0l-5.585 1.795 1.821-5.424a9.857 9.857 0 01-1.446-5.21 9.812 9.812 0 01.8-3.917 10.2 10.2 0 012.156-3.221 10.2 10.2 0 013.224-2.157z" transform="translate(10.286 18.938)"/></svg>