<svg xmlns="http://www.w3.org/2000/svg" width="20.571" height="20.732" viewBox="0 0 20.571 20.732">
  <path id="whatsapp" d="M2.21-6.877q.522-.65.7-.65a6.1,6.1,0,0,1,1.306.589,5.8,5.8,0,0,1,1.2.71.571.571,0,0,1,.027.2A2.822,2.822,0,0,1,5.21-5.009a1.8,1.8,0,0,1-.951.877,3.172,3.172,0,0,1-1.366.355,7.233,7.233,0,0,1-2.545-.83,7.643,7.643,0,0,1-2.277-1.58A17.647,17.647,0,0,1-3.911-8.665a4.687,4.687,0,0,1-.951-2.6v-.107a2.96,2.96,0,0,1,.991-2.116,1.013,1.013,0,0,1,.7-.295,2.132,2.132,0,0,1,.241.02,2.169,2.169,0,0,0,.254.02.55.55,0,0,1,.355.087.969.969,0,0,1,.208.368q.107.268.442,1.179a7.828,7.828,0,0,1,.335,1,1.359,1.359,0,0,1-.462.77q-.462.489-.462.623a.383.383,0,0,0,.067.2A6.03,6.03,0,0,0-.83-7.674,8.54,8.54,0,0,0,1.192-6.321a.594.594,0,0,0,.295.094Q1.688-6.228,2.21-6.877ZM.188-.429A8.185,8.185,0,0,0,3.449-1.1,8.482,8.482,0,0,0,6.134-2.893,8.482,8.482,0,0,0,7.929-5.578,8.185,8.185,0,0,0,8.6-8.839a8.185,8.185,0,0,0-.67-3.261,8.482,8.482,0,0,0-1.795-2.685A8.482,8.482,0,0,0,3.449-16.58a8.185,8.185,0,0,0-3.261-.67,8.185,8.185,0,0,0-3.261.67,8.482,8.482,0,0,0-2.685,1.795A8.482,8.482,0,0,0-7.554-12.1a8.185,8.185,0,0,0-.67,3.261A8.182,8.182,0,0,0-6.616-3.911L-7.674-.79l3.241-1.031A8.235,8.235,0,0,0,.188-.429ZM-3.73-18.134a9.812,9.812,0,0,1,3.917-.8,9.812,9.812,0,0,1,3.917.8,10.2,10.2,0,0,1,3.221,2.156,10.2,10.2,0,0,1,2.156,3.221,9.812,9.812,0,0,1,.8,3.917,9.812,9.812,0,0,1-.8,3.917A10.2,10.2,0,0,1,7.326-1.7,10.2,10.2,0,0,1,4.1.455a9.812,9.812,0,0,1-3.917.8A9.943,9.943,0,0,1-4.7,0l-5.585,1.795,1.821-5.424a9.857,9.857,0,0,1-1.446-5.21,9.812,9.812,0,0,1,.8-3.917,10.2,10.2,0,0,1,2.156-3.221A10.2,10.2,0,0,1-3.73-18.134Z" transform="translate(10.286 18.938)"/>
</svg>
