<svg xmlns="http://www.w3.org/2000/svg" xmlns:xlink="http://www.w3.org/1999/xlink"><symbol id="check-mark" viewBox="0 0 45.701 45.7">
<g>
	<g>
		<path d="M20.687,38.332c-2.072,2.072-5.434,2.072-7.505,0L1.554,26.704c-2.072-2.071-2.072-5.433,0-7.504
			c2.071-2.072,5.433-2.072,7.505,0l6.928,6.927c0.523,0.522,1.372,0.522,1.896,0L36.642,7.368c2.071-2.072,5.433-2.072,7.505,0
			c0.995,0.995,1.554,2.345,1.554,3.752c0,1.407-0.559,2.757-1.554,3.752L20.687,38.332z"/>
	</g>
</g>
<g>
</g>
<g>
</g>
<g>
</g>
<g>
</g>
<g>
</g>
<g>
</g>
<g>
</g>
<g>
</g>
<g>
</g>
<g>
</g>
<g>
</g>
<g>
</g>
<g>
</g>
<g>
</g>
<g>
</g>
</symbol><symbol id="clickbait" viewBox="0 0 64 64">
	<g>
		<path d="m58 .905h-52c-2.757 0-5 2.243-5 5v38c0 2.757 2.243 5 5 5h16v6h-2c-2.206 0-4 1.794-4 4v3c0 .552.447 1 1 1h30c.553 0 1-.448 1-1v-3c5.514 0 10-4.486 10-10 2.757 0 5-2.243 5-5v-38c0-2.757-2.243-5-5-5zm-52 2h52c1.654 0 3 1.346 3 3v31h-5.019c-1.638-2.172-4.131-3.665-6.981-3.949v-1.051c0-.551.448-1 1-1h2c1.654 0 3-1.346 3-3s-1.346-3-3-3h-12c-.552 0-1-.449-1-1s.448-1 1-1h7c2.206 0 4-1.794 4-4v-9c0-2.206-1.794-4-4-4h-16c-2.206 0-4 1.794-4 4v5.184c-1.161.414-2 1.514-2 2.816s.839 2.402 2 2.816v4.184c0 .551-.448 1-1 1s-1-.449-1-1v-2h-2v2c0 1.654 1.346 3 3 3s3-1.346 3-3v-4.184c1.161-.414 2-1.514 2-2.816s-.839-2.402-2-2.816v-5.184c0-1.103.897-2 2-2h16c1.103 0 2 .897 2 2v9c0 1.103-.897 2-2 2h-7c-1.654 0-3 1.346-3 3s1.346 3 3 3h12c.552 0 1 .449 1 1s-.448 1-1 1h-2c-1.654 0-3 1.346-3 3v1.051c-2.85.284-5.343 1.777-6.981 3.949h-37.019v-31c0-1.654 1.346-3 3-3zm43 36.185v-4.115c3.612.453 6.477 3.319 6.931 6.931h-4.931c0-1.303-.839-2.402-2-2.816zm-4 2.815h-4.931c.453-3.612 3.319-6.477 6.931-6.931v4.115c-1.161.415-2 1.514-2 2.816zm2 0c0-.551.448-1 1-1s1 .449 1 1v2c0 .551-.448 1-1 1s-1-.449-1-1zm-19-23c-.552 0-1-.449-1-1s.448-1 1-1 1 .449 1 1-.448 1-1 1zm-25 25v-5h35.841c-.538 1.226-.841 2.578-.841 4v4h-32c-1.654 0-3-1.345-3-3zm21 5h14c0 2.253.758 4.326 2.019 6h-16.019zm22 10v2h-28v-2c0-1.103.897-2 2-2h22.026c1.154.864 2.493 1.494 3.954 1.795.007.068.02.136.02.205zm2-2c-4.411 0-8-3.589-8-8v-5h5c0 1.654 1.346 3 3 3s3-1.346 3-3h5v5c0 4.411-3.589 8-8 8zm10-10v-4c0-1.422-.303-2.774-.841-4h3.841v5c0 1.655-1.346 3-3 3z"/>
		<path d="m6 34.905h14c.553 0 1-.448 1-1v-10c0-.552-.447-1-1-1h-14c-.553 0-1 .448-1 1v10c0 .553.447 1 1 1zm1-2v-6.826l5.35 4.585c.187.161.419.241.65.241s.464-.08.65-.241l5.35-4.585v6.826zm1.703-8h8.594l-4.297 3.683z"/>
		<path d="m6 20.905h14c.553 0 1-.448 1-1v-10c0-.552-.447-1-1-1h-14c-.553 0-1 .448-1 1v10c0 .553.447 1 1 1zm1-2v-6.826l5.35 4.585c.187.161.419.241.65.241s.464-.08.65-.241l5.35-4.585v6.826zm1.703-8h8.594l-4.297 3.683z"/>
	</g>
</symbol><symbol id="credit-card" viewBox="0 0 512 512">
<g>
	<g>
		<path d="M458.667,85.333H53.333C23.936,85.333,0,109.269,0,138.667v234.667c0,29.397,23.936,53.333,53.333,53.333h405.333
			c29.397,0,53.333-23.936,53.333-53.333V138.667C512,109.269,488.064,85.333,458.667,85.333z M490.667,373.333
			c0,17.643-14.357,32-32,32H53.333c-17.643,0-32-14.357-32-32V138.667c0-17.643,14.357-32,32-32h405.333c17.643,0,32,14.357,32,32
			V373.333z"/>
	</g>
</g>
<g>
	<g>
		<path d="M501.333,149.333H10.667C4.779,149.333,0,154.112,0,160v64c0,5.888,4.779,10.667,10.667,10.667h490.667
			c5.888,0,10.667-4.779,10.667-10.667v-64C512,154.112,507.221,149.333,501.333,149.333z M490.667,213.333H21.333v-42.667h469.333
			V213.333z"/>
	</g>
</g>
<g>
	<g>
		<path d="M202.667,298.667h-128c-5.888,0-10.667,4.779-10.667,10.667S68.779,320,74.667,320h128
			c5.888,0,10.667-4.779,10.667-10.667S208.555,298.667,202.667,298.667z"/>
	</g>
</g>
<g>
	<g>
		<path d="M202.667,341.333h-128C68.779,341.333,64,346.112,64,352c0,5.888,4.779,10.667,10.667,10.667h128
			c5.888,0,10.667-4.779,10.667-10.667C213.333,346.112,208.555,341.333,202.667,341.333z"/>
	</g>
</g>
<g>
	<g>
		<path d="M416,277.333h-21.333c-17.643,0-32,14.357-32,32v21.333c0,17.643,14.357,32,32,32H416c17.643,0,32-14.357,32-32v-21.333
			C448,291.691,433.643,277.333,416,277.333z M426.667,330.667c0,5.888-4.779,10.667-10.667,10.667h-21.333
			c-5.888,0-10.667-4.779-10.667-10.667v-21.333c0-5.888,4.779-10.667,10.667-10.667H416c5.888,0,10.667,4.779,10.667,10.667
			V330.667z"/>
	</g>
</g>
<g>
</g>
<g>
</g>
<g>
</g>
<g>
</g>
<g>
</g>
<g>
</g>
<g>
</g>
<g>
</g>
<g>
</g>
<g>
</g>
<g>
</g>
<g>
</g>
<g>
</g>
<g>
</g>
<g>
</g>
</symbol><symbol id="cyber-attack" viewBox="0 0 512 512">
	<path d="M488,328H344a8.00008,8.00008,0,0,0-8,8v36.686l-70.627-70.62647A47.68439,47.68439,0,0,0,231.43164,288H207.38989A63.58579,63.58579,0,0,0,216,256V208h40V192H221.76611l-16.70654-50.12012A31.95915,31.95915,0,0,0,174.70166,120H129.29834a31.95915,31.95915,0,0,0-30.35791,21.87988L82.23389,192H48v16H88v48a63.58579,63.58579,0,0,0,8.61011,32H80a64.07239,64.07239,0,0,0-64,64V496H32V352a48.05468,48.05468,0,0,1,48-48h29.7356a63.82123,63.82123,0,0,0,84.5288,0h37.16724a31.78649,31.78649,0,0,1,22.62744,9.373L336,395.314V448H323.314l2.34278-2.34277a8.00091,8.00091,0,0,0,1.49853-9.23535l-15.0498-30.09961a40.38139,40.38139,0,0,0-45.91358-21.11622l-10.9375,2.73438-33.59765-33.59766A8.00038,8.00038,0,0,0,208,360v39.75415l-61.5459,15.38647-44.79736-44.79785L90.34326,381.65723l48,48a7.9954,7.9954,0,0,0,7.59717,2.10351l88.81274-22.20288,11.9961,35.98853-64.84644,27.7915A82.3992,82.3992,0,0,1,91.1792,455.86523L53.65674,418.34277,42.34326,429.65723l37.52246,37.52246A98.39989,98.39989,0,0,0,188.20605,488.044l35.81165-15.34766A24.02383,24.02383,0,0,0,248,496H488a8.00008,8.00008,0,0,0,8-8V336A8.00008,8.00008,0,0,0,488,328ZM104,256v-9.37622A23.88238,23.88238,0,0,0,112,248h24a7.99967,7.99967,0,0,0,7.15527-4.42188l4.42237-8.84472a4.94416,4.94416,0,0,1,8.84472,0l4.42237,8.84472A7.99967,7.99967,0,0,0,168,248h24a23.88238,23.88238,0,0,0,8-1.37622V256a48.06511,48.06511,0,0,1-.67944,8h-8.69312a27.13451,27.13451,0,0,1-19.314-8,27.31316,27.31316,0,0,0-38.627,0,27.13451,27.13451,0,0,1-19.314,8h-8.69312A48.06511,48.06511,0,0,1,104,256Zm25.29834-120h45.40332a15.97945,15.97945,0,0,1,15.1792,10.94043L194.234,160H109.766l4.35315-13.05957A15.97945,15.97945,0,0,1,129.29834,136Zm-24.86572,40h95.13476l5.33325,16H99.09937ZM104,208h96v16a8.00917,8.00917,0,0,1-8,8H172.94434l-2.21143-4.42285a20.94437,20.94437,0,0,0-37.46582,0L131.05566,232H112a8.00917,8.00917,0,0,1-8-8Zm48,96a48.01724,48.01724,0,0,1-41.54248-24h2.915A43.03115,43.03115,0,0,0,144,267.31445a11.31192,11.31192,0,0,1,16,0A43.03115,43.03115,0,0,0,190.62744,280h2.915A48.01724,48.01724,0,0,1,152,304Zm72,75.31348,13.15234,13.15258L224,395.75415Zm26.32141,26.35229,19.74939-4.93725a24.38242,24.38242,0,0,1,27.72412,12.75l12.47119,24.9414-7.28564,7.28613-18.543-12.3623a8.00342,8.00342,0,0,0-7.58887-.69727l-15.342,6.5752ZM240,472v-6.15332L244.30908,464H336v16H248A8.00917,8.00917,0,0,1,240,472Zm240,8H352V344H480Z"/>
	<path d="M416,432a24,24,0,1,0-24-24A24.02718,24.02718,0,0,0,416,432Zm0-32a8,8,0,1,1-8,8A8.00917,8.00917,0,0,1,416,400Z"/>
	<path d="M320,224a24,24,0,1,0,24-24A24.02718,24.02718,0,0,0,320,224Zm32,0a8,8,0,1,1-8-8A8.00917,8.00917,0,0,1,352,224Z"/>
	<path d="M374.18653,98.92773A7.99889,7.99889,0,0,0,368,96H320a8.00012,8.00012,0,0,0-7.84473,9.56934l16,80A8,8,0,0,0,336,192h16a8,8,0,0,0,7.84473-6.43066l16-80A8.0025,8.0025,0,0,0,374.18653,98.92773ZM345.44142,176H342.5586l-12.80029-64h28.4834Z"/>
	<path d="M377.1084,34.14355a35.10183,35.10183,0,0,0-61.46778.001l-74.645,135.29492,14.00878,7.72852,74.646-135.29492a19.102,19.102,0,0,1,33.44922,0l117.89551,213.6875A11.08439,11.08439,0,0,1,471.29,272H272v16H471.29a27.08386,27.08386,0,0,0,23.71435-40.168Z"/>
</symbol><symbol id="smartphone" viewBox="0 0 512 512">
	<g>
		<g>
			<path d="M298.667,25.6h-85.333c-4.71,0-8.533,3.823-8.533,8.533c0,4.71,3.823,8.533,8.533,8.533h85.333
			c4.71,0,8.533-3.823,8.533-8.533C307.2,29.423,303.377,25.6,298.667,25.6z"/>
		</g>
	</g>
	<g>
		<g>
			<path d="M358.4,25.6h-8.533c-4.71,0-8.533,3.823-8.533,8.533c0,4.71,3.823,8.533,8.533,8.533h8.533
			c4.71,0,8.533-3.823,8.533-8.533C366.933,29.423,363.11,25.6,358.4,25.6z"/>
		</g>
	</g>
	<g>
		<g>
			<path d="M266.598,435.2H245.41c-12.979,0-23.543,10.564-23.543,23.543v4.122c0,12.979,10.564,23.535,23.535,23.535h21.188
			c12.979,0,23.543-10.556,23.543-23.535v-4.122C290.133,445.764,279.569,435.2,266.598,435.2z M273.067,462.865
			c0,3.567-2.901,6.468-6.468,6.468H245.41c-3.575,0-6.477-2.901-6.477-6.468v-4.122c0-3.575,2.901-6.477,6.477-6.477h21.18
			c3.576,0,6.477,2.901,6.477,6.477V462.865z"/>
		</g>
	</g>
	<g>
		<g>
			<path d="M370.227,0H141.781c-17.007,0-30.848,13.841-30.848,30.848v450.304c0,17.007,13.841,30.848,30.848,30.848h228.437
			c17.007,0,30.848-13.841,30.848-30.839V30.848C401.067,13.841,387.226,0,370.227,0z M384,481.152
			c0,7.595-6.178,13.781-13.773,13.781H141.781c-7.603,0-13.781-6.187-13.781-13.773V30.848c0-7.595,6.178-13.781,13.781-13.781
			h228.437c7.603,0,13.781,6.187,13.781,13.781V481.152z"/>
		</g>
	</g>
	<g>
		<g>
			<path d="M392.533,51.2H119.467c-4.71,0-8.533,3.823-8.533,8.533v358.4c0,4.71,3.823,8.533,8.533,8.533h273.067
			c4.71,0,8.533-3.823,8.533-8.533v-358.4C401.067,55.023,397.244,51.2,392.533,51.2z M384,409.6H128V68.267h256V409.6z"/>
		</g>
	</g>
</symbol><symbol id="steal" viewBox="0 0 64 64">
	<g>
		<path d="M19,18H11a3,3,0,0,0-3,3v6a3,3,0,0,0,3,3h8a3,3,0,0,0,3-3V21A3,3,0,0,0,19,18Zm1,3v2H18V20h1A1,1,0,0,1,20,21Zm-6,2V20h2v3Zm-3-3h1v3H10V21A1,1,0,0,1,11,20Zm-1,7V25h4v3H11A1,1,0,0,1,10,27Zm10,0a1,1,0,0,1-1,1H16V25h4Z"/>
		<path d="M52,18a5.963,5.963,0,0,0-3.5,1.139,6,6,0,1,0,0,9.722A6,6,0,1,0,52,18ZM41,24a3.992,3.992,0,0,1,6.073-3.415,5.971,5.971,0,0,0,0,6.83A3.992,3.992,0,0,1,41,24Zm11,4a4,4,0,1,1,4-4A4,4,0,0,1,52,28Z"/>
		<path d="M21,42H9a1,1,0,0,1-1-1V37a1,1,0,0,1,1-1H21a1,1,0,0,1,1,1v4A1,1,0,0,1,21,42ZM10,40H20V38H10Z"/>
		<path d="M57,12H32a1,1,0,0,0-.929,1.372L34.9,22.955l-3.8,7.6a1.006,1.006,0,0,0-.095.589L32.363,40.6l-6.178-9.611,4.663-7.462a1,1,0,0,0,.009-1.045l-6-10A1,1,0,0,0,24,12H7a5.006,5.006,0,0,0-5,5V47a5.006,5.006,0,0,0,5,5H57a5.006,5.006,0,0,0,5-5V17A5.006,5.006,0,0,0,57,12ZM29.6,40H27V38h1.311Zm4.413-2H37v2H34.3ZM60,47a3,3,0,0,1-3,3H7a3,3,0,0,1-3-3V17a3,3,0,0,1,3-3H23.434l5.393,8.989L24.152,30.47a1,1,0,0,0,.007,1.071L27.025,36H26a1,1,0,0,0-1,1v4a1,1,0,0,0,1,1h4.882l2.276,3.541a1,1,0,0,0,1.832-.682L34.582,42H38a1,1,0,0,0,1-1V37a1,1,0,0,0-1-1H33.725l-.691-4.833,3.861-7.72a1.008,1.008,0,0,0,.034-.819L33.477,14H57a3,3,0,0,1,3,3Z"/>
		<path d="M55,42H43a1,1,0,0,1-1-1V37a1,1,0,0,1,1-1H55a1,1,0,0,1,1,1v4A1,1,0,0,1,55,42ZM44,40H54V38H44Z"/>
		<path d="M55,46H39a1,1,0,0,1,0-2H55a1,1,0,0,1,0,2Z"/>
	</g>
</symbol><symbol id="withdraw" viewBox="0 0 480 480">
	<path d="m16 128h80v60.6875l-29.65625 29.65625c-1.5 1.5-2.34375 3.535156-2.34375 5.65625v104c0 .917969.160156 1.828125.472656 2.6875l39.527344 110.6875v30.625c0 4.417969 3.582031 8 8 8h96c4.417969 0 8-3.582031 8-8v-120c.003906-1.082031-.21875-2.15625-.648438-3.152344l-19.222656-44.847656h83.871094c4.417969 0 8-3.582031 8-8v-168h80v-64h16v-64h-384v64h16zm184 336h-80v-16h80zm0-32h-82.398438l-37.601562-105.382812v-99.304688l16-16v84.6875c0 4.417969 3.582031 8 8 8h32v32h16v-80c0-4.417969 3.582031-8 8-8h8c4.417969 0 8 3.582031 8 8v40c-.003906 1.082031.21875 2.15625.648438 3.152344l23.351562 54.488281zm72-144h-80v-32c0-13.253906-10.746094-24-24-24h-8c-5.921875.019531-11.625 2.246094-16 6.238281v-14.238281h-16v48h8v16h-24v-192h16v112h16v-77.808594c12.101562 13.859375 29.601562 21.808594 48 21.808594s35.898438-7.949219 48-21.808594v77.808594h16v-112h16zm-127.335938-192h94.671876c-3.886719 23.113281-23.898438 40.042969-47.335938 40.042969s-43.449219-16.929688-47.335938-40.042969zm207.335938 16h-64v-16h16v-16h-224v16h16v16h-64v-48h320zm-336-96h352v32h-352zm0 0"/>
	<path d="m48 80h16v16h-16zm0 0"/>
	<path d="m320 80h16v16h-16zm0 0"/>
	<path d="m240 256h-32v16h48v-48h-16zm0 0"/>
	<path d="m216 192c0-13.253906-10.746094-24-24-24s-24 10.746094-24 24 10.746094 24 24 24 24-10.746094 24-24zm-24 8c-4.417969 0-8-3.582031-8-8s3.582031-8 8-8 8 3.582031 8 8-3.582031 8-8 8zm0 0"/>
</symbol></svg>