<svg xmlns="http://www.w3.org/2000/svg" xmlns:xlink="http://www.w3.org/1999/xlink"><defs>

<linearGradient id="paint0_linear_182_5" x1="11" y1="13" x2="11" y2="2" gradientUnits="userSpaceOnUse">
<stop stop-color="#6666FE"/>
<stop offset="1" stop-color="#6666FE" stop-opacity="0"/>
</linearGradient>
<linearGradient id="paint1_linear_182_5" x1="11" y1="21" x2="11" y2="10" gradientUnits="userSpaceOnUse">
<stop stop-color="#6666FE"/>
<stop offset="1" stop-color="#6666FE" stop-opacity="0.22"/>
</linearGradient>
</defs><symbol id="arrow-prev" viewBox="0 0 23 16">
<path d="M0.292892 7.29289C-0.0976315 7.68342 -0.0976315 8.31658 0.292892 8.70711L6.65685 15.0711C7.04738 15.4616 7.68054 15.4616 8.07107 15.0711C8.46159 14.6805 8.46159 14.0474 8.07107 13.6569L2.41421 8L8.07107 2.34315C8.46159 1.95262 8.46159 1.31946 8.07107 0.928932C7.68054 0.538408 7.04738 0.538408 6.65685 0.928932L0.292892 7.29289ZM23 7L1 7V9L23 9V7Z"/>
</symbol><symbol id="clock" viewBox="0 0 24 24">
<path d="M12 2C6.489 2 2 6.489 2 12C2 17.511 6.489 22 12 22C17.511 22 22 17.511 22 12C22 6.489 17.511 2 12 2ZM12 4C16.4301 4 20 7.56988 20 12C20 16.4301 16.4301 20 12 20C7.56988 20 4 16.4301 4 12C4 7.56988 7.56988 4 12 4ZM11 6V12.4141L15.293 16.707L16.707 15.293L13 11.5859V6H11Z"/>
</symbol><symbol id="coins" viewBox="0 0 24 24">
<path d="M8 2.40002C6.76573 2.40002 5.63718 2.69053 4.75938 3.21721C3.88158 3.74389 3.2 4.57699 3.2 5.60002C3.2 5.96568 3.29021 6.3054 3.44219 6.61721C3.36442 6.69286 3.30284 6.78354 3.2612 6.88373C3.21957 6.98392 3.19875 7.09153 3.2 7.20002V8.80002C3.2 9.16572 3.29021 9.5054 3.44219 9.81721C3.36442 9.89286 3.30284 9.98354 3.2612 10.0837C3.21957 10.1839 3.19875 10.2915 3.2 10.4V12C3.2 12.3657 3.29021 12.7054 3.44219 13.0172C3.36442 13.0929 3.30284 13.1835 3.2612 13.2837C3.21957 13.3839 3.19875 13.4915 3.2 13.6V15.2C3.2 15.5657 3.29021 15.9054 3.44219 16.2172C3.36442 16.2929 3.30284 16.3835 3.2612 16.4837C3.21957 16.5839 3.19875 16.6915 3.2 16.8V18.4C3.2 19.4232 3.88155 20.2562 4.75938 20.7828C5.63721 21.3095 6.76589 21.6 8 21.6C9.23412 21.6 10.3628 21.3095 11.2406 20.7828C11.5201 20.6152 11.776 20.4136 12 20.1875C12.224 20.4136 12.4799 20.6152 12.7594 20.7828C13.6372 21.3095 14.7659 21.6 16 21.6C17.2341 21.6 18.3628 21.3095 19.2406 20.7828C20.1185 20.2562 20.8 19.4232 20.8 18.4V16.8C20.8015 16.6913 20.7808 16.5834 20.7391 16.4829C20.6975 16.3824 20.6358 16.2915 20.5578 16.2156C20.7094 15.9042 20.8 15.5652 20.8 15.2V13.6C20.8015 13.4913 20.7808 13.3834 20.7391 13.2829C20.6975 13.1824 20.6358 13.0915 20.5578 13.0156C20.7094 12.7042 20.8 12.3652 20.8 12C20.8 10.977 20.1184 10.1439 19.2406 9.61721C18.3628 9.09053 17.2343 8.80002 16 8.80002C14.7657 8.80002 13.6372 9.09053 12.7594 9.61721C12.6985 9.65375 12.6479 9.70276 12.5891 9.74221C12.7197 9.45055 12.8 9.13712 12.8 8.80002V7.20002C12.8015 7.09127 12.7808 6.98336 12.7391 6.88289C12.6975 6.78241 12.6358 6.69148 12.5578 6.61565C12.7094 6.30419 12.8 5.96518 12.8 5.60002C12.8 4.57699 12.1184 3.74389 11.2406 3.21721C10.3628 2.69053 9.23428 2.40002 8 2.40002ZM8 4.00002C8.97487 4.00002 9.84727 4.24714 10.4172 4.58909C10.9871 4.93104 11.2 5.29758 11.2 5.60002C11.2 5.90247 10.9871 6.26901 10.4172 6.61096C9.84727 6.95291 8.97487 7.20002 8 7.20002C7.02514 7.20002 6.15273 6.95291 5.58282 6.61096C5.0129 6.26901 4.8 5.90247 4.8 5.60002C4.8 5.29758 5.0129 4.93104 5.58282 4.58909C6.15273 4.24714 7.02514 4.00002 8 4.00002ZM4.8 8.00315C5.67223 8.51547 6.78357 8.80002 8 8.80002C9.21644 8.80002 10.3278 8.51547 11.2 8.00315V8.80002C11.2 9.10249 10.9872 9.46901 10.4172 9.81096C9.84722 10.1529 8.97469 10.4 8 10.4C7.02532 10.4 6.15279 10.1529 5.58282 9.81096C5.01285 9.46901 4.8 9.10249 4.8 8.80002V8.00315ZM16 10.4C16.9749 10.4 17.8473 10.6471 18.4172 10.9891C18.9871 11.331 19.2 11.6976 19.2 12C19.2 12.3025 18.9871 12.669 18.4172 13.011C17.8473 13.3529 16.9749 13.6 16 13.6C15.0251 13.6 14.1527 13.3529 13.5828 13.011C13.0129 12.669 12.8 12.3025 12.8 12C12.8 11.6976 13.0129 11.331 13.5828 10.9891C14.1527 10.6471 15.0251 10.4 16 10.4ZM4.8 11.2031C5.67226 11.7154 6.78373 12 8 12C9.21627 12 10.3277 11.7154 11.2 11.2031V12C11.2 12.3025 10.9872 12.669 10.4172 13.011C9.84722 13.3529 8.97469 13.6 8 13.6C7.02532 13.6 6.15279 13.3529 5.58282 13.011C5.01285 12.669 4.8 12.3025 4.8 12V11.2031ZM4.8 14.4031C5.67226 14.9154 6.78373 15.2 8 15.2C9.21627 15.2 10.3277 14.9154 11.2 14.4031V15.2C11.2 15.5025 10.9872 15.869 10.4172 16.211C9.84722 16.5529 8.97469 16.8 8 16.8C7.02532 16.8 6.15279 16.5529 5.58282 16.211C5.01285 15.869 4.8 15.5025 4.8 15.2V14.4031ZM12.8 14.4031C13.6722 14.9155 14.7836 15.2 16 15.2C17.2164 15.2 18.3278 14.9155 19.2 14.4031V15.2C19.2 15.5025 18.9872 15.869 18.4172 16.211C17.8472 16.5529 16.9747 16.8 16 16.8C15.0253 16.8 14.1528 16.5529 13.5828 16.211C13.0128 15.869 12.8 15.5025 12.8 15.2V14.4031ZM4.8 17.6031C5.67226 18.1154 6.78373 18.4 8 18.4C9.21627 18.4 10.3277 18.1154 11.2 17.6031V18.4C11.2 18.7025 10.9872 19.069 10.4172 19.411C9.84722 19.7529 8.97469 20 8 20C7.02532 20 6.15279 19.7529 5.58282 19.411C5.01285 19.069 4.8 18.7025 4.8 18.4V17.6031ZM12.8 17.6031C13.6723 18.1154 14.7837 18.4 16 18.4C17.2163 18.4 18.3277 18.1154 19.2 17.6031V18.4C19.2 18.7025 18.9872 19.069 18.4172 19.411C17.8472 19.7529 16.9747 20 16 20C15.0253 20 14.1528 19.7529 13.5828 19.411C13.0128 19.069 12.8 18.7025 12.8 18.4V17.6031Z"/>
</symbol><symbol id="graph" viewBox="0 0 24 24">
<path d="M4 3V18C4 19.0931 4.90694 20 6 20H21V18H6V3H4ZM20.293 5.29297L16 9.58594L13 6.58594L7.29297 12.293L8.70703 13.707L13 9.41406L16 12.4141L21.707 6.70703L20.293 5.29297Z"/>
</symbol><symbol id="percent" viewBox="0 0 24 24">
<path d="M7.5 4C5.57885 4 4 5.57885 4 7.5C4 9.42115 5.57885 11 7.5 11C9.42115 11 11 9.42115 11 7.5C11 5.57885 9.42115 4 7.5 4ZM15.9805 4.98828C15.8181 4.99276 15.6593 5.03671 15.5177 5.11634C15.3761 5.19597 15.2561 5.30888 15.168 5.44531L7.16797 17.4453C7.09267 17.5545 7.03984 17.6776 7.01257 17.8074C6.9853 17.9373 6.98413 18.0712 7.00913 18.2015C7.03412 18.3318 7.08479 18.4558 7.15817 18.5663C7.23155 18.6768 7.32618 18.7716 7.43656 18.8452C7.54693 18.9187 7.67084 18.9696 7.80107 18.9949C7.9313 19.0201 8.06525 19.0192 8.19512 18.9921C8.32499 18.9651 8.44818 18.9125 8.55753 18.8374C8.66687 18.7623 8.76019 18.6662 8.83203 18.5547L16.832 6.55469C16.9366 6.4026 16.9971 6.22454 17.0067 6.04021C17.0163 5.85589 16.9748 5.67249 16.8866 5.51033C16.7985 5.34817 16.6672 5.21357 16.5072 5.12143C16.3473 5.02929 16.165 4.9832 15.9805 4.98828V4.98828ZM7.5 6C8.34027 6 9 6.65973 9 7.5C9 8.34027 8.34027 9 7.5 9C6.65973 9 6 8.34027 6 7.5C6 6.65973 6.65973 6 7.5 6ZM16.5 13C14.5788 13 13 14.5788 13 16.5C13 18.4212 14.5788 20 16.5 20C18.4212 20 20 18.4212 20 16.5C20 14.5788 18.4212 13 16.5 13ZM16.5 15C17.3403 15 18 15.6597 18 16.5C18 17.3403 17.3403 18 16.5 18C15.6597 18 15 17.3403 15 16.5C15 15.6597 15.6597 15 16.5 15Z"/>
</symbol><symbol id="study" viewBox="0 0 82 28">
<path d="M41 1C40.835 1.00012 40.6727 1.04105 40.5273 1.11914L26.5371 8.11328V8.11523C26.3754 8.19968 26.2399 8.32677 26.1452 8.48272C26.0505 8.63868 26.0003 8.81756 26 9C26.0003 9.18244 26.0505 9.36132 26.1452 9.51728C26.2399 9.67323 26.3754 9.80032 26.5371 9.88477V9.88672L40.5215 16.877C40.6682 16.9573 40.8327 16.9997 41 17C41.165 16.9999 41.3273 16.959 41.4727 16.8809L55.4531 9.89062C55.4564 9.88934 55.4596 9.88804 55.4629 9.88672V9.88477C55.6246 9.80032 55.7601 9.67323 55.8548 9.51728C55.9495 9.36132 55.9997 9.18244 56 9C55.9997 8.81756 55.9495 8.63868 55.8548 8.48272C55.7601 8.32677 55.6246 8.19968 55.4629 8.11523V8.11328L41.4785 1.12305C41.3318 1.04265 41.1673 1.00035 41 1V1ZM55 12.3535L53 13.3535V22.2773C52.4044 22.6236 52 23.2611 52 24C52 25.105 54 28 54 28C54 28 56 25.105 56 24C56 23.2611 55.5956 22.6236 55 22.2773V12.3535ZM32 14.8516V19C32 21.761 36.029 24 41 24C45.971 24 50 21.761 50 19V14.8516L42.3652 18.6699C42.2812 18.7119 42.1973 18.7464 42.1113 18.7754C41.7493 18.9244 41.377 19 41 19C40.624 19 40.2526 18.9244 39.8926 18.7754C39.8056 18.7464 39.7198 18.711 39.6348 18.668L32 14.8516Z" fill="#FBAE01"/>
<path d="M68 12.5L81 5.5" stroke="#FBAE01" stroke-linecap="round"/>
<path d="M14 12.5L1 5.5" stroke="#FBAE01" stroke-linecap="round"/>
<path d="M65 6.5L70.5 1" stroke="#FBAE01" stroke-linecap="round"/>
<path d="M17 6.5L11.5 1" stroke="#FBAE01" stroke-linecap="round"/>

</symbol><symbol id="three-arrows" viewBox="0 0 24 30">
<path opacity="0.2" d="M10.9393 13.0607C11.5251 13.6464 12.4749 13.6464 13.0607 13.0607L22.6066 3.51472C23.1924 2.92893 23.1924 1.97918 22.6066 1.3934C22.0208 0.807611 21.0711 0.807611 20.4853 1.3934L12 9.87868L3.51472 1.3934C2.92893 0.807612 1.97918 0.807612 1.3934 1.3934C0.807611 1.97919 0.807611 2.92893 1.3934 3.51472L10.9393 13.0607ZM10.5 10L10.5 12L13.5 12L13.5 10L10.5 10Z" fill="url(#paint0_linear_182_5)"/>
<path opacity="0.6" d="M10.9393 21.0607C11.5251 21.6464 12.4749 21.6464 13.0607 21.0607L22.6066 11.5147C23.1924 10.9289 23.1924 9.97918 22.6066 9.3934C22.0208 8.80761 21.0711 8.80761 20.4853 9.3934L12 17.8787L3.51472 9.3934C2.92893 8.80761 1.97918 8.80761 1.3934 9.3934C0.807611 9.97919 0.807611 10.9289 1.3934 11.5147L10.9393 21.0607ZM10.5 18L10.5 20L13.5 20L13.5 18L10.5 18Z" fill="url(#paint1_linear_182_5)"/>
<path d="M10.9393 29.0607C11.5251 29.6464 12.4749 29.6464 13.0607 29.0607L22.6066 19.5147C23.1924 18.9289 23.1924 17.9792 22.6066 17.3934C22.0208 16.8076 21.0711 16.8076 20.4853 17.3934L12 25.8787L3.51472 17.3934C2.92893 16.8076 1.97918 16.8076 1.3934 17.3934C0.807611 17.9792 0.807612 18.9289 1.3934 19.5147L10.9393 29.0607ZM10.5 26L10.5 28L13.5 28L13.5 26L10.5 26Z" fill="#6666FE"/>

</symbol></svg>