<svg version="1" xmlns="http://www.w3.org/2000/svg" width="866.667" height="866.667" viewBox="0 0 650.000000 650.000000"><path d="M122 34.6c-14.6 1.9-24.4 4.2-37.2 8.4C38.2 58.5 7.2 89.9 1.4 127.3 1 130.4.5 360.7.9 389l.1 4.5 2.6-5C23.3 351 62.8 282 78.5 258c1.2-1.9 8.4-13.2 16-25 27.9-43.5 61.2-91.4 94.4-135.5 9.1-12.1 17.7-23.4 19.1-25.1 1.4-1.7 3.9-4.8 5.5-6.9 1.7-2.2 5.7-7.3 9-11.4 3.3-4.2 8.4-10.7 11.4-14.4l5.3-6.8-53.8.2c-37.5.1-56.8.6-63.4 1.5zM318.6 34.7c-1.2 4.4-38.2 124.3-42.1 136.8-6.8 21.4-10.7 35.9-16.5 60-2.8 12.1-7.6 31.9-10.5 44-2.9 12.1-5.6 24-6 26.5-1.2 7.1-.7 21.1.9 25.5l1.5 4 5.7-.2c3.2-.1 8.7-1.1 12.3-2.2 3.6-1.1 9.5-2.5 13-3.1 20.3-3.6 49.8-15.4 113.6-45.5 14.9-7 35.1-16.3 45-20.7 9.9-4.4 18.9-8.3 20-8.8 1.1-.5 12.3-5.3 24.9-10.5 36.2-15.2 41.9-16.8 59.6-16.9 14.4-.1 19 .5 28.7 3.8 8.3 2.8 12.1 4.7 19.3 9.7 7.8 5.3 13.6 11.1 27 26.9 12.5 14.8 18.9 20.5 31.1 27.8l3.6 2.2V33H484.4c-156.5 0-165.3.1-165.8 1.7z"/><path d="M234.5 115.7c-6 7.9-13.2 17.2-15.8 20.6-9.8 12.7-46.8 64.9-60.7 85.7-28.5 42.8-67.7 108.1-88.3 147-3.6 6.9-8.7 16.3-11.2 21C54 398.3 20 466.7 20 467.5c0 .2-1.8 4.1-3.9 8.7-8.2 17.2-14.9 32.3-14.5 32.7.2.2 122.6.3 272.1.3l271.8-.1 9 9.4c5 5.1 20 20.7 33.5 34.6 13.5 13.9 26.5 27.3 29 29.9 17 17.6 32.1 33 32.3 33 .2 0 .3-62.6.3-139.2l-.1-139.1-5.5-1.9c-9.9-3.3-31.6-14.7-42.7-22.4-9.1-6.4-27.2-20.3-30.9-23.9-3.8-3.5-16.7-14.9-19-16.8-5.1-4-12-5.7-21.9-5.2-11.2.5-19.3 3-31 9.5-12.7 7-15.6 8.4-28 13.1-11.8 4.5-27.9 11.8-55 24.9-9.3 4.5-20.1 9.7-24 11.5-3.8 1.8-11.3 5.3-16.5 7.7-16.6 7.9-20.1 9.4-38 16.5-18.3 7.4-40.8 14.8-51 16.8-21.8 4.4-28.3 5.2-40.9 4.9-27.1-.6-45.4-12.3-52.8-33.5-2.1-6.1-2.6-9.7-2.9-20.4-.1-7.2.1-15.7.7-19 .5-3.3 1.1-7.1 1.3-8.5 1.8-12.1 6.9-30.8 15.7-57.5 8.5-26.2 7.9-23.9 12.5-44.5 5.7-25.9 16.1-61 23.6-79.9 1.6-4 2.7-7.5 2.6-7.6-.2-.1-5.2 6.2-11.3 14.2z"/></svg>