<svg xmlns="http://www.w3.org/2000/svg" xmlns:xlink="http://www.w3.org/1999/xlink"><symbol id="atma" viewBox="0 0 13 22"><g fill="none">
<path fill-rule="evenodd" clip-rule="evenodd" d="M1.57987 8.33937C4.00375 6.94544 8.57223 6.31355 11.0032 8.33937C12.7886 9.8272 12.761 12.0297 12.7229 15.0705C12.7008 16.8313 12.6753 18.8732 12.9961 21.2202H9.69083L9.3992 19.6319C7.55212 22.3539 0.795684 22.5484 0.552644 17.5418C0.309844 12.5402 7.06605 12.0978 9.15616 12.195C9.35058 8.59809 4.63567 9.13276 2.26041 10.5267L1.57987 8.33937ZM9.20474 14.6254V16.5696C9.20474 19.4375 4.39265 19.9721 4.0524 17.5905C3.71215 15.2087 6.09388 14.6254 9.20474 14.6254ZM10.2741 3.31816C10.2741 -0.424589 3.66348 -0.375982 3.66348 3.31816C3.66348 7.01231 10.2741 7.0609 10.2741 3.31816ZM6.99539 4.89614C5.14832 4.89614 5.14219 1.79309 6.99539 1.79309C8.8486 1.79309 8.84247 4.89614 6.99539 4.89614Z" fill="#AAB2BD"/>
</g></symbol><symbol id="brain" viewBox="0 0 152 162"><g fill="none">
<path d="M76.2731 19.6096C74.784 19.6096 73.5761 18.4095 73.5761 16.9288V16.9277C73.5829 16.1957 73.5084 15.4649 73.3526 14.7498C72.1266 9.3657 67.2812 5.56663 61.7303 5.63618C57.8435 5.61597 54.1879 7.46608 51.9155 10.6015C50.5958 12.4505 49.8857 14.661 49.8823 16.9276C49.8823 18.4095 48.6743 19.6096 47.1853 19.6096C45.6952 19.6096 44.4883 18.4084 44.4883 16.9276C44.4917 13.5519 45.5473 10.2604 47.5093 7.5054C50.7955 2.94961 56.0936 0.255287 61.7314 0.271094C69.8212 0.204858 76.8602 5.76292 78.6268 13.6137C78.865 14.7027 78.9813 15.8129 78.9723 16.9276V16.9288C78.9723 18.4095 77.7655 19.6107 76.2753 19.6107H76.2742L76.2731 19.6096Z" fill="#E72A8B"/>
<path d="M36.5381 39.1728C36.0019 39.1728 35.4781 39.0134 35.0344 38.7159C30.7783 35.8981 27.9391 31.402 27.2348 26.3645C27.0993 25.5551 27.0338 24.7345 27.0372 23.9138C27.3341 13.6518 35.9411 5.5723 46.2606 5.86746C47.6604 5.90787 49.0512 6.10433 50.4072 6.45348C51.8466 6.83517 52.7023 8.30471 52.3196 9.7361C51.9369 11.1641 50.4647 12.0151 49.0275 11.6401C47.9517 11.3606 46.8442 11.2214 45.7323 11.2247C38.5411 11.0878 32.5928 16.7628 32.4324 23.9138C32.4313 24.4639 32.4753 25.0128 32.5667 25.5551C33.0511 29.107 35.0481 32.2795 38.0488 34.2646C39.285 35.0919 39.6124 36.7591 38.7804 37.9872C38.278 38.7281 37.4381 39.1727 36.5395 39.1716L36.5381 39.1728Z" fill="#E72A8B"/>
<path d="M22.9 61.5264C22.094 61.5275 21.3297 61.1694 20.8161 60.5519C18.066 57.1661 16.2946 53.0986 15.6929 48.7877C15.4987 47.4911 15.4005 46.1821 15.4005 44.872C15.4005 34.9074 21.019 26.1037 29.0637 23.4599C30.4782 22.9951 32.0046 23.7597 32.4708 25.1663C32.9381 26.573 32.1693 28.0908 30.7548 28.5544C24.8912 30.4797 20.7955 37.1898 20.7955 44.8707C20.7955 45.9158 20.8734 46.9588 21.0303 47.9915C21.4864 51.3391 22.8512 54.5004 24.9792 57.1341C25.9275 58.277 25.7638 59.9688 24.6146 60.9119C24.1325 61.3071 23.5263 61.5237 22.9009 61.5249L22.9 61.5264Z" fill="#E72A8B"/>
<path d="M15.1865 89.9498C14.6593 89.9498 14.1434 89.796 13.7032 89.5052C10.1923 87.0971 7.49739 83.6889 5.97232 79.728C5.94636 79.664 5.92265 79.5978 5.9012 79.5316C4.46974 76.0728 3.74385 72.3668 3.76529 68.6264C3.76529 57.9839 9.4075 48.62 17.484 45.8561C18.894 45.3789 20.4272 46.1289 20.9069 47.5322C21.3845 48.9287 20.6394 50.4466 19.2384 50.9303C13.3037 52.96 9.16058 60.237 9.16058 68.6264C9.13913 71.7193 9.74876 74.7852 10.9522 77.6376C10.986 77.7185 11.0176 77.8027 11.0447 77.8869C12.1816 80.7631 14.1391 83.2453 16.6768 85.0292C17.9209 85.8442 18.2641 87.5069 17.4445 88.7441C16.9444 89.4985 16.0965 89.952 15.1878 89.9498H15.1865Z" fill="#E72A8B"/>
<path d="M9.70125 112.97C9.01487 112.97 8.35559 112.706 7.85998 112.233C3.21339 107.214 0.703688 100.599 0.858305 93.7773C0.748799 87.7868 2.65669 81.9323 6.27943 77.1454C7.14193 75.9397 8.82288 75.6579 10.0353 76.5145C10.7431 77.0152 11.1642 77.8235 11.1676 78.6868V78.7138C11.1676 79.3222 10.9599 79.9128 10.5772 80.3876C7.66231 84.2404 6.13955 88.9566 6.25226 93.7773C6.12018 99.149 8.03934 104.373 11.6237 108.394C12.6713 109.453 12.6578 111.155 11.5932 112.196C11.0886 112.69 10.4089 112.967 9.70111 112.969L9.70125 112.97Z" fill="#E72A8B"/>
<path d="M57.8983 161.212C53.8219 161.206 49.8163 160.144 46.2795 158.129C43.7778 156.688 41.5843 154.775 39.8209 152.496L35.2904 146.691C34.2033 145.34 32.9299 144.149 31.5074 143.152L19.3378 134.809C15.1992 131.979 12.15 127.833 10.6925 123.053L7.16004 111.163C6.67122 109.765 7.41405 108.238 8.82068 107.752C9.81413 107.409 10.9171 107.671 11.6464 108.425C11.95 108.741 12.1747 109.124 12.3045 109.542L15.8627 121.523C16.9668 125.131 19.2709 128.258 22.3979 130.391L34.5811 138.743C36.4405 140.042 38.1044 141.598 39.5225 143.363L44.0902 149.215C45.4235 150.942 47.0828 152.391 48.9761 153.484C54.9244 156.785 62.2306 156.502 67.9023 152.75L74.8508 147.972C76.0734 147.127 77.7533 147.428 78.6032 148.644C79.4533 149.86 79.1507 151.53 77.9282 152.375C77.9236 152.378 77.9202 152.381 77.9157 152.383L70.9695 157.16C67.1313 159.809 62.5682 161.224 57.8968 161.213L57.8983 161.212Z" fill="#E72A8B"/>
<path d="M76.2731 19.6095C74.7841 19.6095 73.5761 18.4094 73.5761 16.9287V16.9275V15.3715C72.9055 14.0457 73.4418 12.4315 74.775 11.7633C75.073 11.614 75.3959 11.5208 75.729 11.4894L76.0191 11.4624C77.5025 11.3221 78.8188 12.4043 78.96 13.8795C78.9679 13.9637 78.9724 14.0479 78.9724 14.1332V16.9297C78.9724 18.4104 77.7656 19.6117 76.2754 19.6117H76.2743L76.2731 19.6095Z" fill="#E72A8B"/>
<path d="M105.581 19.6095C104.092 19.6095 102.884 18.4094 102.884 16.9287V16.9275C102.879 14.6553 102.166 12.4405 100.843 10.5879C98.5692 7.45904 94.9171 5.61454 91.0358 5.63609C85.4996 5.562 80.6632 9.33975 79.4248 14.706C79.2622 15.4357 79.1843 16.18 79.19 16.9277C79.19 18.4096 77.982 19.6097 76.493 19.6097C75.0028 19.6097 73.796 18.4084 73.796 16.9277C73.7881 15.7994 73.9067 14.6734 74.1516 13.5709C75.9308 5.73826 82.9616 0.200449 91.0369 0.272297C96.669 0.255458 101.964 2.94418 105.251 7.49309C107.218 10.2514 108.276 13.5474 108.28 16.9288V16.93C108.28 18.4107 107.073 19.6119 105.583 19.6119H105.582L105.581 19.6095Z" fill="#E72A8B"/>
<path d="M116.228 39.1728C114.738 39.175 113.529 37.9749 113.527 36.4942C113.526 35.6005 113.973 34.7653 114.718 34.2657C117.694 32.3045 119.685 29.1711 120.185 25.6551C120.285 25.0803 120.335 24.4977 120.335 23.9139C120.174 16.7626 114.226 11.0877 107.035 11.2248C105.923 11.2215 104.815 11.3607 103.74 11.6402C102.299 12.0163 100.824 11.1608 100.446 9.72724C100.067 8.29811 100.924 6.83432 102.36 6.45352C112.355 3.88045 122.554 9.85168 125.142 19.7892C125.493 21.1375 125.69 22.5206 125.731 23.9128C125.733 24.7671 125.662 25.6203 125.518 26.4623C124.797 31.4624 121.966 35.9193 117.734 38.7136C117.289 39.0123 116.765 39.1705 116.23 39.1705L116.228 39.1728Z" fill="#E72A8B"/>
<path d="M129.866 61.5264C128.376 61.5242 127.169 60.3218 127.171 58.84C127.172 58.218 127.39 57.6163 127.787 57.1358C129.914 54.5021 131.279 51.3431 131.736 47.9963C131.892 46.9624 131.971 45.9172 131.971 44.8709C131.971 37.1889 127.875 30.4799 122.012 28.5547C120.597 28.0899 119.829 26.5732 120.296 25.1666C120.763 23.7599 122.288 22.9954 123.703 23.4602C131.748 26.1028 137.366 34.9077 137.366 44.8722V44.87C137.366 46.1823 137.268 47.4925 137.074 48.7915C136.471 53.1012 134.7 57.1653 131.951 60.5499C131.437 61.1685 130.673 61.5266 129.867 61.5266L129.866 61.5264Z" fill="#E72A8B"/>
<path d="M137.579 89.9497C136.09 89.952 134.881 88.7541 134.878 87.2734C134.876 86.3697 135.331 85.5266 136.09 85.0292C138.631 83.2431 140.591 80.7565 141.727 77.8757C141.75 77.7948 141.779 77.7151 141.814 77.6388C143.017 74.7862 143.627 71.7213 143.605 68.6275C143.605 60.2391 139.462 52.9622 133.527 50.9315C132.12 50.4454 131.376 48.9164 131.864 47.5164C132.351 46.1232 133.877 45.3822 135.282 45.8571C143.358 48.6211 149 57.9838 149 68.6274C149.022 72.3702 148.295 76.0807 146.861 79.5418C146.84 79.6058 146.819 79.6676 146.792 79.7293C145.267 83.6899 142.571 87.0984 139.061 89.5065C138.622 89.7961 138.106 89.951 137.578 89.9499L137.579 89.9497Z" fill="#E72A8B"/>
<path d="M145.007 112.14L143.047 110.295L141.184 108.355L141.214 108.328C144.758 104.315 146.651 99.1192 146.516 93.78C146.629 88.9604 145.105 84.2431 142.191 80.3902C141.258 79.2305 141.447 77.5387 142.613 76.6104C143.78 75.682 145.481 75.8706 146.414 77.0303C146.474 77.1055 146.531 77.183 146.583 77.2638C150.144 82.0328 152.018 87.8402 151.911 93.7801C152.072 100.555 149.599 107.132 145.007 112.14V112.14Z" fill="#E72A8B"/>
<path d="M94.8675 161.212C90.1949 161.223 85.6307 159.808 81.7913 157.158L74.8474 152.383C74.1182 151.882 73.6835 151.058 73.6835 150.177V60.2711C73.6835 58.7892 74.8915 57.5891 76.3805 57.5891C77.8707 57.5891 79.0775 58.7903 79.0775 60.2711V148.771L84.8599 152.749C90.5373 156.513 97.8583 156.793 103.81 153.472C105.692 152.384 107.341 150.942 108.668 149.224L113.214 143.401C114.636 141.625 116.305 140.059 118.171 138.751L130.366 130.392C133.501 128.268 135.806 125.138 136.899 121.526L140.461 109.541C140.879 108.115 142.38 107.296 143.814 107.711C145.248 108.126 146.072 109.619 145.654 111.045C145.627 111.137 145.595 111.228 145.558 111.318L142.075 123.042C140.633 127.833 137.58 131.987 133.428 134.81L121.245 143.159C119.815 144.165 118.536 145.366 117.446 146.728L112.936 152.504C111.18 154.773 108.996 156.679 106.505 158.116C102.963 160.138 98.9494 161.205 94.8652 161.212L94.8675 161.212Z" fill="#E72A8B"/>
<path d="M76.4928 19.6095C75.0037 19.6095 73.7958 18.4094 73.7958 16.9287V16.9276V14.1322C73.7958 12.6503 75.0037 11.4491 76.4939 11.4491C76.5786 11.4491 76.6643 11.4536 76.749 11.4614L77.0391 11.4884C78.5248 11.6321 79.6119 12.9444 79.4674 14.4218C79.4347 14.7519 79.3421 15.0741 79.192 15.3705V16.9276C79.192 18.4083 77.9852 19.6095 76.495 19.6095H76.4939L76.4928 19.6095Z" fill="#E72A8B"/>
<path d="M59.878 148.23C59.2932 148.23 58.7095 148.19 58.1315 148.109C54.0234 147.528 50.6536 144.581 49.5496 140.603C47.7501 135.24 38.7178 132.326 35.3908 131.655C33.9299 131.363 32.9839 129.949 33.2763 128.497C33.5698 127.044 34.9911 126.103 36.4519 126.394C37.066 126.515 51.5083 129.49 54.6648 138.905C55.4957 141.85 58.5698 143.568 61.5321 142.743C61.7048 142.695 61.8753 142.638 62.0435 142.573C63.4569 142.104 64.9844 142.864 65.4564 144.27C65.9283 145.675 65.164 147.194 63.7506 147.663C62.4952 148.044 61.1902 148.235 59.8785 148.23L59.878 148.23Z" fill="#E72A8B"/>
<path d="M92.8879 148.231C91.576 148.235 90.271 148.044 89.0158 147.664C87.6024 147.194 86.8393 145.675 87.31 144.27C87.7819 142.864 89.3093 142.105 90.7229 142.573C93.5271 143.712 96.7275 142.375 97.8722 139.587C97.9637 139.365 98.0393 139.137 98.1002 138.906C101.256 129.491 115.699 126.518 116.313 126.395C117.774 126.103 119.195 127.045 119.489 128.498C119.782 129.95 118.835 131.364 117.374 131.656C114.047 132.326 105.015 135.24 103.215 140.604C102.111 144.582 98.7417 147.53 94.6335 148.11C94.0544 148.192 93.4708 148.233 92.8871 148.233L92.8879 148.231Z" fill="#E72A8B"/>
<path d="M65.5945 134.389C64.1054 134.389 62.8975 133.189 62.8975 131.709V131.707C63.1368 129.253 62.2427 126.823 60.4658 125.103C58.1379 123.644 55.3426 123.109 52.6367 123.609C51.1759 123.9 49.7546 122.958 49.4623 121.505C49.1699 120.052 50.117 118.639 51.5779 118.348C55.8655 117.536 60.3011 118.474 63.8842 120.953C66.9514 123.663 68.5793 127.637 68.2915 131.708V131.709C68.2915 133.19 67.0847 134.391 65.5945 134.391H65.5934L65.5945 134.389Z" fill="#E72A8B"/>
<path d="M62.8951 78.0602C61.4038 78.058 60.1959 76.8534 60.1981 75.3704C60.1981 75.111 60.2365 74.8539 60.311 74.6058C64.9261 59.348 64.0331 42.9665 57.7845 28.295C57.1229 26.9681 57.6682 25.3581 59.0026 24.6992C60.3313 24.0435 61.9435 24.5779 62.6105 25.8948C69.5443 41.7733 70.5616 59.5889 65.4791 76.1486C65.137 77.2836 64.0871 78.0616 62.895 78.0627L62.8951 78.0602Z" fill="#E72A8B"/>
<path d="M41.3182 56.6004C39.8292 56.6004 38.6212 55.4003 38.6212 53.9196V53.9184C38.6212 44.0527 48.1517 40.779 48.5569 40.6442C49.9736 40.1851 51.4954 40.9552 51.9573 42.3641C52.4122 43.7528 51.6649 45.2493 50.2774 45.7287C46.7111 46.9411 44.2367 50.1775 44.0165 53.9183V53.9194C44.0165 55.4001 42.8097 56.6013 41.3195 56.6013H41.3184L41.3182 56.6004Z" fill="#E72A8B"/>
<path d="M30.5268 99.5083H30.511C29.0287 99.5038 27.8298 98.3082 27.8298 96.8342C28.4157 88.438 32.7755 80.7525 39.6992 75.9127C49.0184 68.9592 46.7876 57.2421 46.7639 57.1254C46.4715 55.6728 47.4186 54.2593 48.8795 53.9687C50.3403 53.6779 51.7616 54.6198 52.0539 56.0725C52.1781 56.6877 54.9462 71.2461 42.9344 80.2036C37.3664 84.0375 33.8082 90.14 33.2244 96.849C33.2086 98.3207 32.0064 99.5062 30.5275 99.5096L30.5268 99.5083Z" fill="#E72A8B"/>
<path d="M65.5944 104.883C52.6682 104.883 49.5738 87.2957 49.4475 86.5479C49.2014 85.0863 50.1926 83.7043 51.6625 83.4584C53.1323 83.2137 54.522 84.1994 54.7693 85.6611C54.793 85.8003 57.2292 99.5178 65.5956 99.5178C67.0858 99.5178 68.2926 100.719 68.2926 102.2C68.2926 103.682 67.0846 104.882 65.5956 104.882L65.5944 104.883Z" fill="#E72A8B"/>
<path d="M46.7139 110.248C45.2237 110.251 44.0146 109.051 44.0135 107.57C44.0124 106.553 44.5904 105.622 45.5048 105.167C54.1026 100.892 52.2637 95.0615 52.2455 95.0043C51.7702 93.601 52.5289 92.0798 53.94 91.6073C55.3512 91.1347 56.8809 91.8891 57.356 93.2924C57.3583 93.2968 57.3594 93.3025 57.3617 93.3081C58.5527 96.8545 58.1068 104.902 47.9182 109.968C47.5445 110.154 47.1325 110.251 46.7148 110.251L46.7139 110.248Z" fill="#E72A8B"/>
<path d="M33.2261 120.977C23.3029 120.977 20.0131 111.499 19.8788 111.096C19.4035 109.692 20.1621 108.171 21.5744 107.698C22.9867 107.226 24.5164 107.98 24.9916 109.385C26.2085 112.932 29.4633 115.393 33.2258 115.612C34.716 115.612 35.9228 116.813 35.9228 118.294C35.9228 119.776 34.7149 120.976 33.2258 120.976L33.2261 120.977Z" fill="#E72A8B"/>
<path d="M25.5241 75.807C22.7244 75.807 18.6514 74.5665 14.7984 68.8187C13.9619 67.5928 14.2824 65.9247 15.5152 65.0927C16.748 64.2608 18.4255 64.5796 19.2622 65.8055C19.2701 65.8179 19.2791 65.8302 19.287 65.8426C23.1221 71.5623 26.3439 70.4139 26.6939 70.2636C28.0418 69.691 29.6053 70.2759 30.2399 71.5905C30.8665 72.8894 30.3325 74.4476 29.0388 75.0953C27.9336 75.5825 26.7346 75.8262 25.5245 75.8082L25.5241 75.807Z" fill="#E72A8B"/>
<path d="M92.8879 148.231C91.576 148.235 90.271 148.044 89.0158 147.664C87.6024 147.194 86.8393 145.675 87.31 144.27C87.7819 142.864 89.3093 142.105 90.7229 142.573C93.5271 143.712 96.7275 142.375 97.8722 139.587C97.9637 139.365 98.0393 139.137 98.1002 138.906C101.256 129.491 115.699 126.518 116.313 126.395C117.774 126.103 119.195 127.045 119.489 128.498C119.782 129.95 118.835 131.364 117.374 131.656C114.047 132.326 105.015 135.24 103.215 140.604C102.111 144.582 98.7417 147.53 94.6335 148.11C94.0544 148.192 93.4708 148.233 92.8871 148.233L92.8879 148.231Z" fill="#E72A8B"/>
<path d="M87.1714 134.39C85.6823 134.39 84.4744 133.19 84.4744 131.709V131.708C84.1854 127.637 85.8144 123.664 88.8817 120.953C92.4659 118.476 96.9004 117.538 101.188 118.348C102.649 118.636 103.599 120.048 103.309 121.501C103.02 122.954 101.6 123.899 100.139 123.61C97.423 123.105 94.6143 123.644 92.2818 125.117C90.5172 126.838 89.6299 129.26 89.8692 131.708V131.709C89.8692 133.19 88.6624 134.391 87.1723 134.391H87.1711L87.1714 134.39Z" fill="#E72A8B"/>
<path d="M89.8707 78.0602C88.6785 78.0602 87.6286 77.2822 87.2866 76.1461C82.2042 59.5895 83.2214 41.7736 90.1552 25.8922C90.8291 24.5708 92.4525 24.0421 93.7813 24.7123C95.0987 25.3758 95.6338 26.9699 94.9836 28.2878C88.7622 42.9673 87.868 59.3408 92.4548 74.6043C92.8816 76.0233 92.0721 77.5188 90.6452 77.9441C90.3934 78.0194 90.1326 78.0575 89.8707 78.0575L89.8707 78.0602Z" fill="#E72A8B"/>
<path d="M111.448 56.6004C109.959 56.6004 108.751 55.4003 108.751 53.9196V53.9185C108.529 50.1777 106.055 46.9414 102.49 45.7289C101.082 45.2428 100.338 43.7149 100.827 42.3149C101.309 40.9352 102.813 40.192 104.21 40.6444C104.615 40.7791 114.146 44.0526 114.146 53.9186V53.9197C114.146 55.4005 112.939 56.6017 111.449 56.6017H111.448L111.448 56.6004Z" fill="#E72A8B"/>
<path d="M122.239 99.5172C120.75 99.5172 119.542 98.3171 119.542 96.8364V96.8353C118.955 90.1309 115.395 84.035 109.832 80.2046C97.8206 71.2471 100.589 56.6899 100.713 56.0735C101.007 54.6208 102.431 53.6811 103.891 53.9753C105.345 54.2671 106.288 55.6716 106.004 57.1188C105.907 57.6217 103.825 69.0198 113.067 75.9138C119.99 80.7536 124.35 88.4402 124.936 96.8353V96.8364C124.936 98.3172 123.729 99.5184 122.239 99.5184H122.238L122.239 99.5172Z" fill="#E72A8B"/>
<path d="M87.1714 104.883C85.6812 104.883 84.4744 103.682 84.4744 102.201C84.4744 100.719 85.6824 99.519 87.1714 99.519C95.4453 99.519 97.974 85.8048 97.9977 85.6657C98.2563 84.2063 99.6539 83.2318 101.122 83.4889C102.571 83.7426 103.549 85.1032 103.318 86.5491C103.192 87.2968 100.097 104.884 87.1716 104.884L87.1714 104.883Z" fill="#E72A8B"/>
<path d="M106.052 110.248C105.634 110.248 105.222 110.152 104.849 109.966C94.66 104.899 94.2141 96.852 95.405 93.3055C95.8758 91.9 97.4021 91.1411 98.8156 91.6092C100.218 92.074 100.982 93.5727 100.532 94.9715C100.342 95.608 98.9985 101.057 107.262 105.166C108.594 105.829 109.135 107.44 108.469 108.764C108.012 109.675 107.076 110.249 106.053 110.247L106.052 110.248Z" fill="#E72A8B"/>
<path d="M119.54 120.977C118.05 120.977 116.843 119.776 116.843 118.295C116.843 116.813 118.051 115.613 119.54 115.613C123.303 115.394 126.557 112.932 127.774 109.385C128.249 107.98 129.779 107.226 131.191 107.698C132.603 108.171 133.362 109.692 132.887 111.096C132.752 111.499 129.463 120.977 119.54 120.977L119.54 120.977Z" fill="#E72A8B"/>
<path d="M127.242 75.8071C126.033 75.825 124.834 75.5814 123.727 75.0942C122.393 74.4352 121.848 72.8265 122.51 71.4995C123.164 70.1893 124.754 69.6415 126.082 70.2679C126.483 70.4341 129.678 71.5095 133.479 65.8426C134.297 64.6043 135.969 64.2608 137.215 65.0747C138.46 65.8886 138.805 67.5513 137.987 68.7896C137.98 68.7997 137.974 68.8087 137.968 68.8188C134.113 74.5655 130.041 75.8071 127.242 75.8071L127.242 75.8071Z" fill="#E72A8B"/>
</g></symbol><symbol id="dzen" viewBox="0 0 33 33"><g fill="none">
<path fill-rule="evenodd" clip-rule="evenodd" d="M15.7275 0.169922C15.6469 6.66167 15.2042 10.3104 12.7715 12.7452C10.3387 15.1801 6.6932 15.6232 0.207031 15.7038V16.6636C6.6932 16.7443 10.3387 17.1874 12.7715 19.6222C15.2042 22.057 15.6469 25.7058 15.7275 32.1975H16.6865C16.7671 25.7058 17.2098 22.057 19.6425 19.6222C22.0752 17.1874 25.7208 16.7443 32.2069 16.6636V15.7038C25.7208 15.6231 22.0752 15.1801 19.6425 12.7452C17.2098 10.3104 16.7671 6.66167 16.6865 0.169922H15.7275Z" fill="#F5F7FA"/>
</g></symbol><symbol id="license" viewBox="0 0 59 75"><g fill="none">
<path d="M0 2.70215C0 1.59758 0.895431 0.702148 2 0.702148H56.4219C57.5264 0.702148 58.4219 1.59758 58.4219 2.70215V72.6423C58.4219 73.7469 57.5264 74.6423 56.4219 74.6423H2C0.89543 74.6423 0 73.7469 0 72.6423V2.70215Z" fill="#D8D8D8"/>
<path d="M0 2.70215C0 1.59758 0.895431 0.702148 2 0.702148H56.4219C57.5264 0.702148 58.4219 1.59758 58.4219 2.70215V72.6423C58.4219 73.7469 57.5264 74.6423 56.4219 74.6423H2C0.89543 74.6423 0 73.7469 0 72.6423V2.70215ZM3.65137 10.9177C3.65137 9.81316 4.5468 8.91772 5.65137 8.91772H52.7705C53.8751 8.91772 54.7705 9.81316 54.7705 10.9177V68.991C54.7705 70.0955 53.8751 70.991 52.7705 70.991H5.65137C4.5468 70.991 3.65137 70.0955 3.65137 68.991V10.9177Z" fill="#AAB2BD"/>
<path d="M3.65131 10.917C3.65131 9.81242 4.54674 8.91699 5.65131 8.91699H52.7705C53.875 8.91699 54.7705 9.81242 54.7705 10.917V68.9902C54.7705 70.0948 53.875 70.9902 52.7705 70.9902H5.65131C4.54674 70.9902 3.65131 70.0948 3.65131 68.9902V10.917Z" fill="#F1F1F1"/>
<path d="M29.2109 55.4727C43.327 55.4727 54.7705 44.0293 54.7705 29.9131C54.7705 15.7969 43.327 4.35352 29.2109 4.35352C15.0947 4.35352 3.65131 15.7969 3.65131 29.9131C3.65131 44.0293 15.0947 55.4727 29.2109 55.4727Z" fill="#F1F1F1"/>
<path d="M29.2109 55.4727C43.327 55.4727 54.7705 44.0293 54.7705 29.9131C54.7705 15.7969 43.327 4.35352 29.2109 4.35352C15.0947 4.35352 3.65131 15.7969 3.65131 29.9131C3.65131 44.0293 15.0947 55.4727 29.2109 55.4727Z" fill="white"/>
<path d="M14.4223 26.2605V22.5178H13.1443L13.053 23.3394C12.9617 23.8871 12.9617 24.2522 12.8704 24.6174C12.7791 24.9825 12.6879 25.2564 12.5966 25.5302C12.5053 25.7128 12.414 25.8954 12.2314 25.9866C12.0489 26.0779 11.9576 26.2605 11.775 26.2605C11.5925 26.2605 11.5012 26.2605 11.3186 26.2605V25.4389C11.4099 25.4389 11.5012 25.4389 11.5012 25.4389C11.5925 25.4389 11.5925 25.3477 11.6837 25.2564C11.775 25.1651 11.8663 24.9825 11.8663 24.8C11.9576 24.6174 11.9576 24.3435 12.0489 23.9784C12.1402 23.6133 12.1402 23.1568 12.2314 22.6091L12.3227 21.6963H15.1525V26.2605H14.4223Z" fill="#AAB2BD"/>
<path d="M17.1614 26.2591H16.4312V21.7861H17.2527V24.9811L19.6261 21.7861H20.3564V26.2591H19.5348V23.0641L17.1614 26.2591Z" fill="#AAB2BD"/>
<path d="M21.5435 26.2591V21.7861H22.3651V25.5288H24.282V21.7861H25.1036V25.5288H25.7426V27.0806H25.0123V26.2591H21.5435Z" fill="#AAB2BD"/>
<path d="M26.4726 26.2591V21.7861H29.0286V22.5164H27.2029V23.6118H28.846V24.3421H27.2029V25.5288H29.0286V26.2591H26.4726Z" fill="#AAB2BD"/>
<path d="M32.9535 26.2591V24.3421H30.9452V26.2591H30.1237V21.7861H30.9452V23.6118H32.9535V21.7861H33.775V26.2591H32.9535Z" fill="#AAB2BD"/>
<path d="M36.0568 26.3518C35.6917 26.3518 35.4178 26.2605 35.144 26.1692C34.8701 25.9866 34.6876 25.8041 34.505 25.6215L34.9614 25.0738C35.144 25.2564 35.2353 25.3477 35.5091 25.4389C35.6917 25.5302 35.8743 25.6215 36.0568 25.6215C36.3307 25.6215 36.5133 25.5302 36.6045 25.4389C36.7871 25.3477 36.8784 25.1651 36.8784 24.9825C36.8784 24.7999 36.7871 24.6174 36.6958 24.5261C36.6045 24.4348 36.3307 24.3435 36.1481 24.3435H35.6004V23.6133H36.0568C36.2394 23.6133 36.422 23.522 36.5133 23.4307C36.6045 23.3394 36.6958 23.1568 36.6958 22.9743C36.6958 22.7917 36.6045 22.6091 36.5133 22.5178C36.422 22.4266 36.2394 22.3353 36.0568 22.3353C35.6917 22.3353 35.4178 22.5178 35.144 22.7917L34.6876 22.4266C34.8701 22.244 35.0527 22.0614 35.3266 21.8789C35.6004 21.7876 35.8743 21.6963 36.1481 21.6963C36.5133 21.6963 36.8784 21.7876 37.1522 22.0614C37.4261 22.244 37.5174 22.6091 37.5174 22.9743C37.5174 23.1568 37.4261 23.3394 37.3348 23.522C37.2435 23.7045 37.061 23.8871 36.8784 23.9784C37.1522 24.0697 37.3348 24.161 37.4261 24.3435C37.5174 24.5261 37.6087 24.7999 37.6087 24.9825C37.6087 25.3477 37.4261 25.7128 37.1522 25.8954C36.8784 26.1692 36.5133 26.3518 36.0568 26.3518Z" fill="#AAB2BD"/>
<path d="M39.4342 26.2591H38.7039V21.7861H39.5255V24.9811L41.8989 21.7861H42.6291V26.2591H41.8076V23.0641L39.4342 26.2591Z" fill="#AAB2BD"/>
<path d="M45.8243 26.2591V24.7072H45.1853L44.0899 26.2591H43.1771L44.3638 24.5247C44.0899 24.4334 43.9073 24.2508 43.816 24.0682C43.6335 23.8857 43.6335 23.6118 43.6335 23.338C43.6335 22.8815 43.8161 22.5164 44.0899 22.2426C44.3638 21.9687 44.8202 21.7861 45.4592 21.7861C45.5505 21.7861 45.733 21.7861 46.0069 21.7861C46.2807 21.7861 46.4633 21.7861 46.5546 21.7861V26.2591H45.8243ZM45.094 23.977H45.8243V22.5164C45.6417 22.5164 45.4592 22.5164 45.3679 22.5164C45.094 22.5164 44.9115 22.6077 44.7289 22.699C44.5463 22.8815 44.455 23.0641 44.455 23.2467C44.455 23.4293 44.5463 23.6118 44.6376 23.7031C44.7289 23.7944 44.9115 23.977 45.094 23.977Z" fill="#AAB2BD"/>
<path d="M18.2567 41.14H40.1649M18.2567 15.124H40.1649M8.21545 34.2937H12.7797M35.6007 34.2937H50.3887M15.5182 34.2937H18.2567M33.775 67.6124H38.3392M40.1649 67.6124H49.2933M15.792 46.6171H43.086M15.792 50.2684H43.086M15.792 53.9198H43.086M15.792 57.5712H43.086" stroke="#AAB2BD" stroke-width="0.5" stroke-linecap="square"/>
<path d="M29.2109 12.5698C30.7234 12.5698 31.9495 11.3437 31.9495 9.8313C31.9495 8.31885 30.7234 7.09277 29.2109 7.09277C27.6985 7.09277 26.4724 8.31885 26.4724 9.8313C26.4724 11.3437 27.6985 12.5698 29.2109 12.5698Z" fill="#D9F94B"/>
</g></symbol><symbol id="telegram" viewBox="0 0 19 16"><g fill="none">
<path d="M1.90106 6.98548L12.7433 2.62853C13.8135 2.17468 17.4431 0.722364 17.4431 0.722364C17.4431 0.722364 19.1183 0.0869751 18.9787 1.63006C18.9322 2.26545 18.5599 4.48931 18.1877 6.89471L17.0243 14.0201C17.0243 14.0201 16.9313 15.064 16.1402 15.2455C15.3491 15.4271 14.0462 14.6101 13.8135 14.4286C13.6274 14.2924 10.3236 12.2501 9.1137 11.2517C8.78797 10.9793 8.4157 10.4347 9.16023 9.79934C10.8354 8.30164 12.8364 6.44086 14.0462 5.26085C14.6046 4.71623 15.163 3.44546 12.8364 4.98854L6.27518 9.30011C6.27518 9.30011 5.53065 9.75396 4.13465 9.34549C2.73866 8.93703 1.11 8.39241 1.11 8.39241C1.11 8.39241 -0.00679421 7.71164 1.90106 6.98548Z" fill="#F5F7FA"/>
</g></symbol><symbol id="vkontakte" viewBox="0 0 19 12"><g fill="none">
<path fill-rule="evenodd" clip-rule="evenodd" d="M17.7835 1.13605C17.9169 0.716656 17.7835 0.411642 17.1925 0.411642H15.229C14.7333 0.411642 14.5046 0.678528 14.3711 0.964479C14.3711 0.964479 13.3608 3.40459 11.9501 4.98685C11.4925 5.44437 11.2828 5.59688 11.035 5.59688C10.9016 5.59688 10.73 5.44437 10.73 5.02498V1.11699C10.73 0.621338 10.5775 0.392578 10.1581 0.392578H7.06984C6.76483 0.392578 6.5742 0.621339 6.5742 0.8501C6.5742 1.32668 7.27954 1.44106 7.35579 2.7755V5.67313C7.35579 6.30222 7.24141 6.4166 6.99359 6.4166C6.32637 6.4166 4.70599 3.95743 3.73375 1.15511C3.54312 0.602275 3.35249 0.392578 2.85684 0.392578H0.874249C0.302348 0.392578 0.207031 0.659465 0.207031 0.945416C0.207031 1.46013 0.874249 4.05274 3.31436 7.48415C4.93475 9.82895 7.24141 11.0871 9.31932 11.0871C10.5775 11.0871 10.73 10.8012 10.73 10.3246V8.5517C10.73 7.9798 10.8444 7.88448 11.2447 7.88448C11.5307 7.88448 12.0454 8.03699 13.2082 9.16173C14.5427 10.4962 14.7714 11.1062 15.5149 11.1062H17.4784C18.0503 11.1062 18.3172 10.8202 18.1647 10.2674C17.9932 9.71456 17.345 8.9139 16.5062 7.96074C16.0487 7.42696 15.3624 6.836 15.1527 6.55005C14.8668 6.16878 14.943 6.01627 15.1527 5.67313C15.1336 5.67313 17.5356 2.27985 17.7835 1.13605Z" fill="#F5F7FA"/>
</g></symbol><symbol id="youtube" viewBox="0 0 13 14"><g fill="none">
<path fill-rule="evenodd" clip-rule="evenodd" d="M0.986816 13.0963C0.986816 13.4042 1.32015 13.5966 1.58682 13.4427L11.8271 7.53036C12.0938 7.37641 12.0938 6.99152 11.8271 6.83755L1.58684 0.924589C1.32017 0.77061 0.986816 0.963058 0.986816 1.27099V13.0963Z" fill="#F5F7FA"/>
</g></symbol></svg>