<svg width="91" height="88" fill="none" xmlns="http://www.w3.org/2000/svg"><path d="M63.718.308c20.327 0 30.943 15.2 26.135 37.317C84.58 61.81 67.117 78.972 45.633 88 18.492 76.739 2.864 54.366 0 24.138c11.98-1.996 21.409-10.4 20.745-23.83h42.973z" fill="#0095DA"/><path d="M86.644 36.912c-4.555 21.376-20.01 38.446-41 47.515C20.95 73.824 6.73 52.879 3.622 26.65c11.025-2.81 19.584-11.112 20.35-23.117h39.893c19.541-.085 26.825 15.285 22.779 33.378z" fill="#fff"/><path d="M83.8 36.285c-4.513 20.777-19.033 36.275-38.15 44.96-21.714-9.665-35.295-28.4-38.83-52.497 10.22-3.49 18.011-11.366 19.755-22.266h37.298c17.668-.085 23.46 13.624 19.926 29.803z" fill="#0095DA"/><path d="M70.11 31.179H41.62l8.14-12.067 5.188-1.785c.655-.225.47-.697.13-.697h-4.867l-.526-5.28c-.02-.282-.47-.394-.582-.018l-1.598 5.299H42.43c-.433 0-.49.507 0 .696L47.053 19 36.169 31.18H13.156c-.902 0-1.035 1.523 0 1.597l19.99 2.52c-.679 1.222-1.807 2.406-2.2 3.776-.414 1.43.694 2.52 1.804 2.274 1.786-.392 4.734-4.097 5.939-5.58l.466-.73 30.954-2.317c1.091-.055 1.07-1.54 0-1.54z" fill="#fff"/><path d="M46.573 56.34c.087.416.152.77.198 1.07-.314.01-.48.017-.88.033v-.055h-1.694c.032-.123.138-.535.267-1.048h2.109zm-8.289-1.441a21.498 21.498 0 01-.526 1.72v-6.23l1.467-.07.108-2.1v-3.644h-8.619s-.976 2.585-1.244 3.301a3662.98 3662.98 0 01-1.249-3.301h-8.786v5.737s.934.048 1.575.078l-.004 7.027c-.577.03 50.983.031 50.344.003v-7.03l1.466-.07.11-2.101v-3.644H54.262v5.745s.987.044 1.617.074v6.698c-.17-.357-.407-1.056-.764-2.595L49.152 29.03l-4.276-.04s-6.585 25.874-6.592 25.909z" fill="#0095DA"/><path d="M61.102 55.888l5.024-6.133v-.212c0-.682-.383-1.323-1.619-1.323v-1.444h6.218v1.444c-1.534 0-1.574.599-1.574 2.131v7.111c0 1.575.125 2.128 1.574 2.128v1.403h-6.218V59.59c1.406 0 1.62-.512 1.62-2.128V51.93l-5.025 6.17v.256c0 .85.47 1.234 1.619 1.234v1.403H47.265V59.59c1.107 0 1.832-.085 1.832-1.194 0-.681-.3-2.381-.766-4.256h-5.579l-.723 2.853c-.51 1.875-.343 2.597 1.659 2.597v1.403H30.79V59.59c1.53 0 1.702-.512 1.702-2.127V50.82l-3.917 9.707-3.958-10.007v7.069c0 1.363.17 2 1.66 2v1.404h-4.77V59.59c1.618 0 1.703-.978 1.703-2.34v-6.898c0-1.236 0-2.131-1.575-2.131v-1.444H26.7l2.768 7.321 2.768-7.321h4.898v1.444c-1.534 0-1.577.598-1.577 2.13v7.112c0 1.36.13 1.786.553 1.916.939.337 2.683.256 3.193-.767.341-.637.724-1.703 1.108-3.149l6.6-25.93 5.96 25.46c.64 2.767 1.024 3.445 1.619 4.045.595.511 2.555.893 3.233.127.173-.17.258-.47.258-1.702v-7.111c0-1.617-.13-2.131-1.62-2.131v-1.444h6.26v1.444c-1.534 0-1.618.64-1.618 2.13v5.537h-.001zM47.946 52.52l-2.171-10.685L43.22 52.52h4.726z" fill="#fff"/></svg>