<svg xmlns="http://www.w3.org/2000/svg" xmlns:xlink="http://www.w3.org/1999/xlink"><defs>
<clipPath id="clip0_12_126">
<rect width="24" height="24" fill="white"/>
</clipPath>
</defs><symbol id="check" viewBox="0 0 10 9"><g fill="none">
<path d="M1 3.93182L4.07817 7L9 1" stroke="white" stroke-width="2" stroke-linecap="round"/>
</g></symbol><symbol id="clock" viewBox="0 0 15 15"><g fill="none">
<path d="M7.5 13.5C9.0913 13.5 10.6174 12.8679 11.7426 11.7426C12.8679 10.6174 13.5 9.0913 13.5 7.5C13.5 5.9087 12.8679 4.38258 11.7426 3.25736C10.6174 2.13214 9.0913 1.5 7.5 1.5C5.9087 1.5 4.38258 2.13214 3.25736 3.25736C2.13214 4.38258 1.5 5.9087 1.5 7.5C1.5 9.0913 2.13214 10.6174 3.25736 11.7426C4.38258 12.8679 5.9087 13.5 7.5 13.5ZM7.5 0C8.48491 0 9.46018 0.193993 10.3701 0.570904C11.2801 0.947814 12.1069 1.50026 12.8033 2.1967C13.4997 2.89314 14.0522 3.71993 14.4291 4.62987C14.806 5.53982 15 6.51509 15 7.5C15 9.48912 14.2098 11.3968 12.8033 12.8033C11.3968 14.2098 9.48912 15 7.5 15C3.3525 15 0 11.625 0 7.5C0 5.51088 0.790176 3.60322 2.1967 2.1967C3.60322 0.790176 5.51088 0 7.5 0V0ZM7.875 3.75V7.6875L11.25 9.69L10.6875 10.6125L6.75 8.25V3.75H7.875Z" fill="#0080BB"/>
</g></symbol><symbol id="link" viewBox="0 0 24 24"><g fill="none">
<g clip-path="url(#clip0_12_126)">
<path d="M3.9 12C3.9 10.29 5.29 8.9 7 8.9H11V7H7C4.24 7 2 9.24 2 12C2 14.76 4.24 17 7 17H11V15.1H7C5.29 15.1 3.9 13.71 3.9 12ZM8 13H16V11H8V13ZM17 7H13V8.9H17C18.71 8.9 20.1 10.29 20.1 12C20.1 13.71 18.71 15.1 17 15.1H13V17H17C19.76 17 22 14.76 22 12C22 9.24 19.76 7 17 7Z" fill="#00AEFF"/>
</g>

</g></symbol><symbol id="magnifying" viewBox="0 0 28 28"><g fill="none">
<circle cx="13" cy="13" r="11.5" stroke="white" stroke-width="3"/>
<path d="M21.1211 21.0574L25.6922 25.5722" stroke="white" stroke-width="3" stroke-linecap="round" stroke-linejoin="round"/>
<rect x="12" y="9" width="2" height="8" fill="white"/>
<rect x="17" y="12" width="2" height="8" transform="rotate(90 17 12)" fill="white"/>
</g></symbol><symbol id="mail" viewBox="0 0 24 24"><g fill="none">
<path d="M12 14.72L4 9.72V17.36H20V9.72L12 14.72ZM4 7.36L12 12.36L20 7.36L12 2.36L4 7.36ZM22 7.36V17.36C22 17.8904 21.7893 18.3991 21.4142 18.7742C21.0391 19.1493 20.5304 19.36 20 19.36H4C3.46957 19.36 2.96086 19.1493 2.58579 18.7742C2.21071 18.3991 2 17.8904 2 17.36V7.36C2 6.63 2.39 6 2.97 5.65L12 -1.43051e-08L21.03 5.65C21.61 6 22 6.63 22 7.36Z" fill="#00AEFF"/>
</g></symbol><symbol id="phone" viewBox="0 0 24 24"><g fill="none">
<path d="M17 18H8V4H17V18ZM12.5 22C12.1022 22 11.7206 21.842 11.4393 21.5607C11.158 21.2794 11 20.8978 11 20.5C11 20.1022 11.158 19.7206 11.4393 19.4393C11.7206 19.158 12.1022 19 12.5 19C12.8978 19 13.2794 19.158 13.5607 19.4393C13.842 19.7206 14 20.1022 14 20.5C14 20.8978 13.842 21.2794 13.5607 21.5607C13.2794 21.842 12.8978 22 12.5 22ZM16.5 1H8.5C7.83696 1 7.20107 1.26339 6.73223 1.73223C6.26339 2.20107 6 2.83696 6 3.5V20.5C6 21.163 6.26339 21.7989 6.73223 22.2678C7.20107 22.7366 7.83696 23 8.5 23H16.5C17.163 23 17.7989 22.7366 18.2678 22.2678C18.7366 21.7989 19 21.163 19 20.5V3.5C19 2.83696 18.7366 2.20107 18.2678 1.73223C17.7989 1.26339 17.163 1 16.5 1Z" fill="#00AEFF"/>
</g></symbol></svg>