<?xml version="1.0" standalone="no"?>
<!DOCTYPE svg PUBLIC "-//W3C//DTD SVG 20010904//EN"
 "http://www.w3.org/TR/2001/REC-SVG-20010904/DTD/svg10.dtd">
<svg version="1.0" xmlns="http://www.w3.org/2000/svg"
 width="1184.000000pt" height="1184.000000pt" viewBox="0 0 1184.000000 1184.000000"
 preserveAspectRatio="xMidYMid meet">
<metadata>
Created by potrace 1.14, written by Peter Selinger 2001-2017
</metadata>
<g transform="translate(0.000000,1184.000000) scale(0.100000,-0.100000)"
fill="#000000" stroke="none">
<path d="M5329 11835 c-2 -2 -42 -6 -89 -9 -47 -3 -96 -8 -110 -10 -14 -3 -45
-7 -70 -10 -25 -3 -55 -7 -66 -10 -12 -2 -39 -7 -60 -11 -22 -3 -52 -8 -69
-10 -16 -3 -52 -11 -80 -17 -27 -7 -53 -11 -57 -10 -3 1 -8 -4 -11 -11 -7 -18
20 -80 32 -73 26 17 379 25 496 12 79 -9 199 -27 215 -33 8 -3 24 -7 35 -8 49
-7 268 -71 320 -94 11 -5 47 -19 80 -32 33 -12 75 -31 93 -41 17 -10 32 -16
32 -14 0 2 22 -8 50 -23 27 -14 82 -43 122 -65 40 -21 75 -41 78 -45 3 -3 19
-13 35 -21 17 -8 35 -18 40 -23 38 -29 83 -58 98 -63 9 -4 17 -10 17 -15 0 -5
5 -9 11 -9 8 0 82 -52 99 -70 3 -3 30 -23 60 -45 30 -22 60 -44 65 -50 6 -6
41 -38 80 -71 38 -32 86 -75 106 -94 20 -19 58 -56 85 -81 40 -39 169 -175
234 -249 8 -9 29 -32 45 -51 35 -39 9 -21 -50 36 -82 78 -211 183 -300 245
-27 19 -51 38 -53 42 -2 4 -8 8 -12 8 -5 0 -44 22 -87 50 -43 27 -83 50 -90
50 -6 0 -13 3 -15 8 -3 6 -189 100 -243 122 -11 4 -36 15 -55 23 -55 24 -192
71 -235 80 -5 2 -16 6 -22 10 -7 5 -13 6 -13 3 0 -3 -18 1 -40 9 -22 8 -42 14
-45 15 -3 0 -6 0 -7 1 -4 1 -26 5 -63 13 -16 3 -50 10 -75 16 -25 5 -61 12
-80 15 -19 2 -55 7 -80 10 -48 7 -88 11 -215 20 -157 12 -438 3 -575 -19 -27
-5 -143 -18 -147 -18 -2 1 -17 -3 -34 -8 -18 -5 -51 -12 -73 -15 -49 -7 -302
-70 -342 -85 -16 -6 -31 -11 -34 -11 -5 1 -92 -25 -120 -36 -8 -3 -19 -7 -25
-9 -46 -12 -268 -98 -375 -146 -25 -11 -65 -29 -90 -40 -82 -36 -314 -155
-414 -212 -54 -31 -100 -56 -102 -56 -3 0 -21 -11 -42 -24 -233 -147 -318
-202 -320 -208 -2 -5 -8 -8 -14 -8 -6 0 -27 -13 -48 -30 -21 -16 -43 -30 -49
-30 -7 0 -14 -7 -17 -15 -4 -8 -11 -15 -16 -15 -6 0 -23 -10 -38 -22 -15 -13
-37 -30 -50 -38 -26 -17 -120 -85 -135 -97 -5 -5 -46 -36 -90 -70 -44 -33 -90
-69 -102 -80 -12 -11 -34 -28 -48 -39 -15 -10 -39 -29 -53 -42 -15 -13 -43
-35 -62 -50 -19 -15 -37 -29 -40 -32 -5 -5 -39 -34 -138 -119 -50 -43 -51 -44
-37 -72 8 -15 20 -29 26 -31 7 -2 55 17 108 43 53 25 132 63 176 83 44 21 98
46 121 57 23 10 46 19 53 19 6 0 11 5 11 10 0 6 8 10 18 10 10 0 22 3 26 8 4
4 11 7 14 7 4 1 36 14 72 30 36 17 67 30 70 30 3 1 21 8 40 17 30 14 61 26 80
33 3 1 14 5 25 10 11 4 43 17 70 27 28 10 59 23 70 28 74 33 402 145 585 200
100 30 433 118 475 126 11 2 43 8 70 14 28 6 61 13 75 16 14 2 39 7 55 11 35
7 46 9 100 17 22 3 49 7 61 10 12 2 45 7 74 11 29 4 60 8 69 10 9 1 45 6 81 9
36 4 81 9 100 11 134 17 497 23 660 11 141 -11 171 -14 305 -37 33 -6 71 -12
85 -14 14 -2 25 -4 25 -5 0 -1 7 -3 15 -5 43 -8 184 -51 264 -79 170 -61 348
-164 449 -260 21 -20 41 -36 43 -36 3 0 11 -6 18 -12 7 -7 43 -40 80 -72 123
-108 219 -200 316 -302 109 -115 151 -164 252 -288 10 -11 22 -26 28 -33 5 -7
10 -15 10 -18 0 -3 12 -19 26 -35 15 -16 32 -38 38 -49 6 -10 33 -52 61 -92
60 -89 84 -128 91 -151 9 -24 33 -30 51 -13 64 65 198 64 297 -1 119 -79 225
-243 276 -429 12 -43 23 -88 25 -100 1 -11 5 -33 8 -50 19 -89 25 -232 16
-335 -6 -68 -85 -274 -113 -292 -6 -4 -7 -8 -3 -8 15 0 -116 -214 -205 -333
-32 -43 -58 -82 -58 -88 0 -5 -4 -9 -9 -9 -5 0 -14 -24 -19 -52 -6 -29 -18
-80 -27 -113 -10 -33 -18 -64 -20 -70 -1 -5 -4 -17 -7 -25 -3 -8 -11 -35 -19
-60 -7 -25 -15 -49 -18 -55 -3 -5 -6 -17 -8 -25 -1 -8 -6 -23 -12 -35 -5 -11
-19 -47 -29 -80 -40 -118 -235 -534 -261 -555 -3 -3 -7 -12 -9 -21 -2 -14 10
-16 89 -14 103 3 184 -20 263 -74 63 -44 167 -212 180 -291 2 -16 8 -34 12
-41 4 -7 9 -64 10 -126 3 -128 -18 -214 -86 -358 -56 -118 -213 -347 -315
-459 -6 -6 -26 -31 -45 -56 -41 -53 -37 -48 -126 -141 -72 -76 -171 -160 -259
-220 -27 -19 -52 -36 -55 -39 -21 -21 -300 -160 -322 -160 -8 0 -18 -4 -23 -9
-6 -5 -34 -16 -63 -26 l-52 -17 101 -96 c56 -54 109 -105 118 -115 43 -49 57
-67 105 -127 65 -83 102 -136 160 -232 48 -80 90 -168 79 -168 -3 0 0 -6 6
-14 15 -18 24 -83 24 -176 0 -62 -5 -85 -28 -135 -16 -33 -32 -64 -37 -70 -56
-68 -54 -64 -35 -61 19 3 60 16 82 26 11 5 58 20 105 35 47 15 91 28 98 31 7
2 13 3 15 3 1 0 29 10 62 21 33 12 67 23 75 25 8 2 15 4 15 5 0 17 210 15 290
-3 11 -3 40 -8 65 -12 25 -4 50 -10 55 -13 6 -4 18 -8 28 -9 50 -8 44 -6 182
-58 136 -51 234 -82 292 -93 71 -13 202 -8 353 12 8 1 25 8 37 14 12 7 29 12
37 12 9 0 16 4 16 9 0 5 8 12 18 15 30 10 110 96 134 144 34 71 47 156 44 287
-3 162 20 245 99 350 27 36 83 95 91 95 2 0 14 8 25 19 11 10 40 29 64 41 41
21 83 62 85 85 1 6 6 15 11 21 14 17 13 93 -1 129 -10 27 -9 32 17 52 15 13
34 23 41 23 6 0 12 4 12 8 0 5 8 17 18 28 21 23 48 78 58 119 4 17 9 34 12 39
3 5 5 41 4 80 -4 235 -4 241 17 306 34 105 91 154 189 164 71 7 182 38 262 74
54 23 153 130 168 178 22 74 10 164 -34 259 -17 37 -149 244 -163 255 -10 8
-40 61 -85 150 -50 101 -122 339 -139 460 -3 19 -6 35 -7 35 -8 0 -12 196 -5
245 2 14 6 47 9 74 4 27 8 51 10 55 3 4 7 26 11 51 4 24 13 62 20 84 15 44 44
156 51 195 3 13 9 32 15 43 5 10 8 18 5 18 -3 0 1 21 9 48 8 26 18 74 24 107
6 33 13 76 17 95 6 36 10 71 19 175 8 99 14 157 21 220 9 79 10 485 1 552 -4
29 -9 69 -12 88 -4 34 -14 92 -21 128 -2 9 -6 27 -9 40 -2 12 -9 43 -15 68 -6
26 -13 55 -15 65 -2 11 -4 19 -5 19 -1 0 -3 7 -5 15 -10 46 -45 161 -54 179
-7 12 -10 21 -7 21 3 0 -11 39 -30 87 -19 49 -34 91 -34 95 0 4 -11 31 -24 60
-13 29 -34 76 -46 103 -41 95 -134 280 -170 340 -19 33 -42 73 -50 90 -8 16
-32 56 -52 87 -21 31 -38 62 -38 68 0 5 -4 10 -10 10 -5 0 -10 5 -10 11 0 13
-135 213 -225 334 -36 48 -65 88 -65 90 0 2 -9 14 -20 27 -10 12 -78 93 -149
178 -71 85 -145 173 -165 195 -110 122 -375 377 -414 399 -9 5 -26 18 -36 28
-50 46 -152 69 -171 38 -3 -4 42 -68 100 -142 130 -165 116 -147 145 -188 13
-19 29 -40 35 -46 5 -6 42 -57 80 -115 39 -57 73 -106 76 -109 9 -8 159 -250
159 -257 0 -4 6 -14 14 -22 24 -29 207 -381 243 -467 6 -16 19 -47 28 -69 27
-64 94 -255 90 -255 -2 0 3 -16 11 -36 8 -20 13 -39 10 -42 -3 -3 -2 -10 3
-16 5 -6 12 -27 15 -46 3 -19 10 -60 16 -90 8 -44 14 -99 22 -200 0 -3 0 -27
-1 -55 -2 -39 -4 -45 -11 -29 -5 12 -11 34 -14 50 -9 53 -70 262 -86 299 -5
11 -19 49 -31 85 -13 36 -27 68 -32 71 -5 3 -8 9 -7 13 3 10 -40 114 -67 164
-13 23 -20 42 -16 42 4 0 4 4 -2 8 -5 4 -29 43 -52 88 -74 145 -235 404 -255
412 -4 2 -8 10 -8 18 0 8 -4 14 -8 14 -5 0 -13 8 -18 19 -9 20 -24 39 -138
180 -123 153 -303 336 -476 486 -114 99 -398 305 -419 305 -6 0 -11 3 -11 8 0
4 -21 19 -47 32 -26 14 -53 30 -60 37 -25 23 -353 181 -478 231 -160 63 -425
148 -425 136 0 -3 -8 0 -17 5 -10 5 -35 12 -57 15 -21 4 -42 8 -46 11 -5 3
-21 7 -37 9 -28 3 -70 11 -128 22 -47 9 -123 19 -230 31 -52 5 -522 13 -526 8z
m3839 -3555 c23 -7 54 -24 67 -36 14 -13 25 -20 25 -17 0 3 14 -10 30 -28 39
-44 57 -107 54 -183 -6 -139 -65 -232 -219 -343 -93 -67 -364 -203 -435 -218
-8 -2 -28 -8 -45 -15 -16 -6 -30 -11 -30 -10 0 2 -91 -11 -120 -17 -28 -6
-224 -4 -257 2 l-28 5 26 -57 c14 -32 29 -67 32 -78 2 -11 8 -24 12 -30 14
-17 61 -220 63 -268 1 -26 5 -47 8 -47 5 0 4 -35 -5 -109 -5 -47 -36 -108 -71
-141 -21 -20 -38 -25 -86 -27 -32 -1 -59 2 -59 7 0 5 -9 11 -20 15 -23 7 -111
117 -128 160 -35 88 -37 209 -6 355 14 63 27 126 29 140 2 14 10 45 19 69 9
24 16 49 16 57 0 7 5 25 12 41 6 15 13 36 14 45 8 41 99 252 127 295 17 26 66
82 108 123 85 84 88 86 144 120 22 13 42 28 43 32 2 4 8 8 12 8 5 0 28 13 52
28 38 25 175 90 203 97 6 1 17 5 25 8 45 16 83 26 89 23 4 -3 13 -1 21 4 21
13 229 6 278 -10z"/>
<path d="M4689 10056 c-3 -3 -44 -7 -91 -9 -47 -3 -90 -7 -95 -9 -4 -3 -30 -6
-58 -7 -27 -2 -54 -5 -59 -8 -5 -4 -19 -7 -30 -8 -58 -7 -120 -16 -126 -20 -4
-2 -22 -7 -41 -10 -60 -11 -174 -37 -184 -43 -5 -3 -16 -7 -25 -8 -57 -8 -260
-78 -415 -143 -75 -32 -234 -112 -305 -154 -47 -28 -95 -55 -106 -62 -12 -6
-35 -21 -50 -33 -16 -12 -60 -45 -99 -74 -38 -28 -75 -57 -81 -63 -7 -5 -35
-30 -63 -54 -55 -47 -64 -64 -28 -56 72 15 217 22 236 11 18 -12 13 -51 -11
-82 -13 -16 -48 -56 -79 -89 -47 -50 -97 -107 -149 -172 -6 -7 -10 -19 -10
-27 0 -8 -5 -18 -10 -21 -6 -4 -8 -11 -5 -16 9 -14 -1 -11 -40 11 -19 11 -37
20 -40 20 -3 0 -6 0 -7 1 -9 3 -67 9 -88 9 -14 0 -43 -9 -65 -20 -44 -23 -144
-92 -145 -101 0 -3 -25 -31 -55 -62 -50 -51 -105 -142 -105 -173 0 -13 -34
-92 -87 -204 -44 -92 -84 -151 -142 -210 -74 -75 -94 -118 -136 -280 -9 -36
-19 -76 -21 -90 -2 -14 -9 -45 -14 -70 -14 -60 -19 -88 -26 -130 -3 -19 -7
-40 -9 -47 -2 -6 -7 -38 -11 -70 -3 -32 -8 -61 -10 -64 -5 -9 -17 -150 -15
-179 1 -14 1 -52 0 -85 -5 -158 -3 -346 3 -400 11 -91 17 -137 24 -165 3 -13
7 -38 10 -55 2 -16 6 -41 10 -55 3 -14 7 -36 9 -50 4 -24 57 -236 75 -295 22
-78 72 -232 79 -250 5 -11 15 -36 21 -55 28 -77 96 -228 124 -275 17 -27 46
-65 65 -83 l34 -32 15 30 c8 17 20 29 26 27 13 -4 146 -161 146 -172 0 -5 105
-154 130 -184 48 -55 45 -70 -18 -111 -21 -13 -22 -18 -13 -43 6 -16 28 -49
49 -75 57 -70 119 -127 327 -301 11 -9 72 -53 135 -99 63 -45 120 -85 125 -90
65 -51 194 -109 257 -116 41 -4 41 -2 1 52 -26 35 -71 128 -78 161 -3 12 -7
29 -9 39 -2 10 4 28 13 41 16 21 21 23 53 12 19 -6 52 -28 74 -49 165 -157
347 -253 465 -247 64 4 134 24 158 46 11 10 23 19 26 19 11 0 41 35 52 61 26
61 -7 154 -80 221 -23 20 -43 35 -46 33 -2 -3 -9 -1 -15 4 -14 12 -146 62
-146 55 0 -2 -10 0 -21 7 -12 6 -31 12 -43 14 -100 13 -269 82 -308 127 -31
36 -50 89 -50 141 -1 39 10 68 53 153 57 112 72 138 106 194 31 52 64 110 85
152 19 38 33 41 68 13 17 -13 166 -97 305 -170 114 -61 157 -84 225 -125 66
-40 137 -47 208 -22 74 27 156 121 175 203 10 41 22 131 22 172 0 20 2 37 5
37 3 0 6 9 7 21 3 36 42 103 75 130 68 53 190 75 288 50 25 -6 53 -13 62 -16
33 -7 93 -40 122 -65 31 -27 91 -110 80 -110 -3 0 -1 -7 6 -15 13 -16 21 -84
12 -100 -4 -5 -7 -16 -8 -23 -6 -39 -82 -138 -181 -238 -117 -118 -142 -160
-123 -209 16 -41 52 -75 93 -86 53 -14 170 -34 257 -43 25 -3 65 -8 90 -10
106 -13 149 -17 224 -21 44 -3 81 -6 83 -9 2 -2 43 36 92 83 109 107 221 211
227 211 3 0 19 15 37 33 18 17 51 45 73 61 21 17 41 32 44 35 14 16 98 69 120
77 108 35 120 31 120 -41 -3 -240 132 -289 335 -121 54 44 127 121 162 170 12
17 26 36 31 41 30 36 65 135 67 190 6 138 -44 194 -176 200 -44 2 -56 9 -79
47 -16 27 -17 35 -6 72 24 76 85 190 117 216 13 11 132 156 148 180 8 14 18
27 22 30 9 7 48 99 55 129 3 14 8 46 10 71 7 57 12 73 23 66 4 -3 23 25 41 62
18 37 40 75 48 85 8 9 12 17 9 17 -3 0 9 26 26 58 84 148 148 357 150 483 0
54 -13 122 -30 149 -20 33 -94 100 -110 100 -7 0 -21 4 -31 9 -9 6 -42 21 -72
34 -139 61 -232 191 -232 325 0 37 2 74 4 83 4 18 35 68 54 86 31 32 115 43
144 20 14 -10 51 -77 56 -99 1 -5 2 -9 4 -10 1 -2 3 -10 5 -18 7 -36 82 -177
105 -197 49 -44 131 -20 149 44 9 29 8 52 -3 163 -8 74 -8 74 -36 195 -18 74
-65 184 -89 205 -11 10 -86 124 -85 129 1 3 -4 11 -10 16 -7 6 -45 55 -86 110
-79 105 -99 130 -115 149 -6 6 -21 26 -34 44 -18 26 -19 32 -7 32 9 0 23 11
31 24 13 19 14 28 4 50 -7 14 -16 26 -21 26 -4 0 -8 5 -8 10 0 12 -243 259
-335 341 -74 65 -146 129 -171 149 -39 32 -174 120 -183 120 -5 0 -11 4 -13 8
-1 4 -30 23 -63 41 -33 19 -74 42 -91 52 -147 82 -495 206 -689 244 -63 12
-186 32 -251 41 -21 3 -52 7 -69 10 -41 6 -531 15 -536 10z"/>
<path d="M5957 4440 c-9 -11 -17 -22 -17 -25 0 -3 -10 -16 -21 -29 -12 -14
-23 -42 -25 -63 -7 -93 -15 -172 -18 -189 -2 -11 -7 -46 -11 -79 -4 -32 -9
-68 -11 -78 -2 -11 -6 -38 -8 -61 -5 -35 -57 -304 -71 -361 -3 -11 -7 -29 -9
-40 -26 -120 -105 -318 -153 -385 -54 -75 -152 -158 -238 -202 -204 -105 -304
-101 -429 17 l-44 42 -4 -41 c-11 -103 2 -571 18 -636 3 -14 6 -32 6 -40 0 -8
4 -42 10 -75 6 -33 12 -75 14 -94 2 -18 8 -47 13 -65 5 -17 15 -58 22 -91 7
-33 13 -62 14 -65 0 -3 4 -14 7 -25 4 -11 21 -67 39 -125 31 -104 84 -249 116
-319 51 -115 142 -297 190 -380 66 -116 242 -385 254 -389 5 -2 9 -8 9 -13 0
-9 94 -135 174 -234 23 -27 46 -56 51 -63 6 -7 19 -23 30 -35 11 -12 33 -38
49 -57 34 -42 139 -160 183 -207 l32 -35 30 23 c17 13 31 26 31 29 0 4 -10 22
-23 41 -49 73 -261 465 -267 494 0 3 -10 26 -21 52 -33 75 -42 97 -45 108 -1
6 -12 35 -24 65 -46 119 -111 342 -124 430 -3 19 -8 46 -11 60 -22 111 -22
444 0 480 4 6 8 28 10 50 3 22 18 79 35 127 17 49 32 93 33 99 2 7 9 19 16 28
7 9 10 16 7 16 -4 0 2 13 13 29 12 16 21 32 21 36 0 10 73 119 82 123 5 2 8 8
8 12 0 15 200 230 214 230 3 0 14 8 24 18 81 77 269 197 456 292 68 34 70 36
72 76 2 39 0 41 -35 53 -53 19 -182 81 -215 105 -146 104 -243 282 -312 571
-4 17 -8 32 -9 35 -1 7 -14 71 -20 100 -2 14 -10 47 -16 73 -6 26 -9 51 -5 54
3 3 1 13 -4 23 -5 9 -11 36 -14 61 -3 24 -8 58 -11 74 -3 17 -7 48 -10 70 -3
22 -8 54 -11 70 -5 37 -13 111 -19 189 -2 32 -6 60 -8 62 -2 2 -11 -6 -20 -16z"/>
</g>
</svg>
