<?xml version="1.0" standalone="no"?>
<!DOCTYPE svg PUBLIC "-//W3C//DTD SVG 20010904//EN"
 "http://www.w3.org/TR/2001/REC-SVG-20010904/DTD/svg10.dtd">
<svg version="1.0" xmlns="http://www.w3.org/2000/svg"
 width="976.000000pt" height="976.000000pt" viewBox="0 0 976.000000 976.000000"
 preserveAspectRatio="xMidYMid meet">
<metadata>
Created by potrace 1.14, written by Peter Selinger 2001-2017
</metadata>
<g transform="translate(0.000000,976.000000) scale(0.100000,-0.100000)"
fill="#000000" stroke="none">
<path d="M4344 9615 c1 -24 4 -47 8 -50 4 -4 28 -9 55 -11 26 -2 59 -6 73 -9
141 -28 125 -18 188 -112 31 -47 63 -91 70 -98 6 -8 12 -18 12 -24 0 -6 4 -11
8 -11 5 0 14 -11 20 -24 10 -23 9 -24 -11 -20 -27 6 -132 17 -169 18 -16 1
-28 3 -28 6 0 7 -232 4 -310 -5 -36 -3 -83 -8 -105 -11 -159 -16 -421 -88
-642 -174 -97 -39 -371 -175 -481 -240 -88 -52 -343 -218 -352 -229 -3 -4 -16
-14 -31 -23 -44 -28 -260 -198 -364 -287 -150 -128 -155 -133 -150 -142 3 -4
-3 -12 -12 -18 -10 -6 -16 -11 -13 -11 26 -5 107 -16 190 -25 36 -4 68 -9 72
-12 4 -2 36 -6 70 -9 35 -2 74 -6 88 -9 14 -3 55 -8 93 -12 37 -3 67 -9 67
-12 0 -3 21 -6 48 -7 26 -1 70 -4 97 -8 28 -4 56 -8 64 -9 10 0 9 -4 -4 -13
-10 -8 -22 -11 -27 -8 -5 3 -7 2 -6 -3 2 -5 -17 -26 -41 -48 -119 -106 -126
-118 -68 -106 18 4 56 7 84 6 29 0 53 3 53 7 0 4 7 5 15 2 20 -8 19 -31 -2
-43 -10 -6 -15 -11 -10 -11 4 0 -1 -8 -10 -18 -32 -32 -107 -124 -131 -158
-24 -36 -32 -40 -49 -23 -10 10 -72 14 -104 7 -17 -4 -89 -55 -100 -71 -4 -5
-12 -6 -18 -3 -6 4 -10 3 -9 -2 2 -5 -10 -25 -27 -43 -16 -19 -27 -35 -25 -36
3 -1 -2 -8 -11 -15 -13 -10 -49 -89 -55 -118 -5 -29 -75 -174 -88 -182 -6 -4
-7 -8 -3 -8 11 0 -51 -79 -80 -103 -13 -10 -22 -21 -21 -25 1 -4 -4 -19 -10
-34 -15 -36 -40 -125 -46 -163 -2 -16 -9 -52 -16 -80 -6 -27 -13 -66 -16 -85
-2 -19 -6 -46 -8 -59 -6 -27 -17 -121 -21 -171 -1 -19 2 -44 7 -54 6 -11 10
-40 9 -65 -1 -25 -3 -66 -3 -91 -1 -51 10 -204 17 -241 3 -13 8 -40 11 -59 3
-19 7 -42 9 -50 2 -8 7 -31 10 -50 10 -59 55 -229 86 -327 16 -51 30 -95 30
-98 0 -9 49 -119 76 -170 31 -60 39 -66 69 -55 17 7 23 5 28 -8 3 -9 46 -80
97 -157 65 -99 91 -149 91 -169 -1 -21 10 -41 38 -70 21 -23 49 -52 62 -66 13
-14 55 -52 93 -85 39 -33 72 -63 75 -66 3 -3 37 -29 75 -57 39 -29 75 -56 80
-60 28 -21 113 -72 119 -72 5 0 6 7 3 15 -4 8 -2 17 3 20 6 4 5 17 -3 33 -8
15 -15 46 -16 70 -4 70 35 68 116 -8 151 -143 288 -188 392 -129 64 36 78 79
49 149 -27 64 -85 102 -208 135 -70 19 -92 30 -109 53 -11 15 -51 58 -89 97
l-69 69 15 45 c8 24 46 100 83 168 38 68 69 128 69 133 0 14 12 12 35 -4 22
-15 49 -31 204 -118 58 -32 106 -58 107 -58 2 0 24 -14 49 -31 59 -40 115 -45
173 -17 76 36 116 110 128 235 14 148 58 196 184 197 75 0 138 -24 184 -70 83
-84 65 -172 -62 -305 -117 -124 -127 -158 -66 -215 19 -19 38 -33 42 -32 4 1
41 -4 82 -11 77 -14 100 -17 185 -25 28 -2 82 -8 120 -11 l70 -7 64 66 c163
170 305 288 364 302 23 5 27 3 28 -17 2 -82 21 -143 51 -165 48 -36 144 1 233
90 132 134 174 240 136 349 -15 43 -35 56 -99 66 -36 5 -50 12 -61 33 -14 24
-13 31 21 100 20 40 62 102 92 138 31 36 56 71 56 78 0 6 4 12 9 12 9 0 49 79
57 109 9 43 41 117 95 227 32 67 59 127 59 132 0 6 5 23 12 39 6 15 13 37 15
48 8 38 11 50 13 50 1 0 4 32 7 71 8 128 -22 182 -129 227 -27 11 -48 24 -48
29 0 5 -4 7 -8 4 -16 -10 -108 88 -114 121 -2 10 -6 20 -10 23 -11 8 -10 72 0
146 1 6 20 20 41 32 40 23 76 20 67 -5 -3 -8 -1 -11 4 -8 6 3 13 -2 16 -12 3
-10 9 -27 14 -38 25 -62 38 -103 34 -109 -2 -3 -1 -4 3 -1 3 3 14 -8 24 -24 9
-16 31 -36 48 -44 17 -9 29 -11 26 -6 -4 5 3 9 14 9 37 0 59 47 57 125 -1 39
-5 76 -10 83 -4 6 -5 12 -3 12 4 0 0 21 -19 110 -9 46 -16 65 -29 80 -8 8 -15
22 -17 30 -2 8 -11 23 -20 34 -10 11 -18 26 -18 33 0 7 -4 13 -10 13 -5 0 -10
5 -10 10 0 6 -8 20 -18 31 -11 10 -25 32 -33 47 -8 15 -16 29 -19 32 -18 18
-80 100 -80 106 0 4 -7 12 -17 19 -15 11 -15 14 0 35 10 15 14 33 10 53 -5 23
-3 28 7 22 12 -7 27 -10 78 -14 6 -1 12 -10 12 -21 0 -25 22 -26 57 -3 22 15
27 15 37 2 11 -15 56 -21 56 -8 0 10 68 -10 99 -29 50 -31 114 -109 107 -128
-3 -8 -1 -12 4 -9 15 9 79 -133 85 -190 1 -11 5 -28 10 -38 4 -9 5 -26 2 -37
-3 -11 0 -20 6 -20 6 0 7 -3 4 -6 -3 -4 -2 -15 4 -25 6 -13 6 -19 0 -19 -6 0
-7 -9 -2 -22 9 -25 3 -68 -10 -68 -5 0 -8 -3 -7 -7 4 -14 -26 -103 -35 -103
-4 0 -5 -4 -2 -10 3 -5 3 -16 -2 -22 -14 -23 -51 -138 -45 -138 4 0 3 -4 -3
-8 -9 -7 -52 -116 -60 -155 -2 -10 -24 -48 -49 -85 -25 -37 -41 -68 -36 -70
18 -6 11 -20 -7 -16 -13 4 -18 -1 -19 -18 -1 -37 -14 -91 -24 -104 -6 -6 -7
-13 -4 -16 3 -3 -2 -22 -10 -42 -8 -20 -15 -37 -15 -39 1 -1 -5 -22 -12 -47
-7 -25 -12 -48 -11 -52 1 -5 -2 -8 -7 -8 -5 0 -11 -14 -15 -30 -3 -17 -17 -56
-32 -88 -14 -31 -37 -81 -50 -110 -13 -29 -24 -56 -24 -61 0 -5 -7 -14 -15
-21 -9 -7 -13 -15 -11 -18 3 -2 -4 -22 -14 -43 -25 -47 -25 -46 3 -53 12 -3
39 -29 60 -58 20 -29 58 -81 85 -114 26 -34 58 -76 72 -94 14 -18 31 -39 38
-47 7 -7 10 -13 5 -13 -4 0 0 -5 10 -11 9 -5 17 -17 17 -24 0 -8 4 -15 8 -15
4 0 39 -40 77 -90 64 -83 84 -102 86 -82 7 65 3 200 -8 247 -8 33 -17 71 -19
84 -3 13 -11 33 -19 45 -8 11 -15 28 -15 38 0 10 -4 18 -9 18 -5 0 -13 10 -17
22 -3 12 -15 29 -25 37 -13 11 -20 31 -21 65 -1 48 -2 49 -19 28 -18 -23 -39
-29 -39 -11 0 5 -4 7 -10 4 -5 -3 -10 -2 -10 2 0 5 -22 17 -50 27 -27 10 -50
21 -50 25 0 5 6 21 14 37 32 67 61 133 86 202 14 40 30 69 34 65 4 -5 6 -3 5
2 -5 17 12 95 19 91 4 -2 8 6 8 17 1 12 4 31 7 42 3 11 6 24 6 28 1 5 7 5 14
1 9 -5 9 -4 1 5 -11 12 -10 18 14 91 5 16 8 28 10 47 1 6 8 18 15 25 7 7 27
36 44 63 18 28 33 47 33 44 0 -16 -31 -79 -40 -79 -9 0 -7 -85 3 -127 4 -14 1
-23 -6 -23 -9 0 -8 -3 1 -8 7 -5 12 -22 11 -38 0 -16 2 -42 6 -59 3 -16 7 -38
8 -48 1 -14 9 -17 39 -15 20 1 39 7 41 12 4 10 1 61 -3 61 -4 0 -6 71 -2 79 3
5 6 25 7 45 3 56 57 281 67 281 5 0 7 4 3 9 -3 6 10 49 29 97 34 85 34 88 16
101 -19 13 -19 30 -1 98 4 17 7 82 5 145 -4 146 -3 134 -21 210 -19 81 -25
111 -26 128 0 6 -4 12 -9 12 -4 0 -8 6 -8 13 0 18 -60 138 -77 155 -7 8 -18
23 -24 34 -9 17 -8 18 9 9 11 -6 22 -8 25 -5 9 10 42 12 52 4 6 -5 18 -2 28 5
17 12 18 24 14 112 -5 92 -18 167 -31 180 -3 4 0 13 7 21 7 10 8 13 1 9 -14
-8 -28 38 -18 55 4 7 3 8 -4 4 -7 -4 -12 -1 -12 9 0 8 -4 23 -9 33 -5 9 -17
35 -26 57 -10 22 -23 53 -31 69 -8 16 -14 33 -14 38 0 6 -9 22 -19 36 -10 15
-19 29 -20 32 -1 3 -4 15 -7 28 -4 12 -11 22 -16 22 -5 0 -6 5 -3 10 3 6 3 10
-2 10 -4 0 -19 21 -33 48 -14 26 -35 62 -47 81 -13 18 -20 38 -16 44 3 5 2 7
-4 4 -6 -4 -25 17 -44 46 -56 88 -204 278 -269 347 -123 130 -170 178 -170
175 0 -2 -15 11 -33 28 -50 48 -97 88 -147 127 -25 19 -46 38 -48 42 -2 5 -8
8 -13 8 -6 0 -17 6 -25 13 -38 31 -45 36 -116 79 -45 27 -51 45 -8 23 16 -8
32 -15 35 -15 3 -1 10 -2 17 -5 7 -2 54 -16 103 -31 50 -15 96 -31 103 -37 6
-5 12 -7 12 -3 0 3 16 0 35 -8 20 -9 38 -15 40 -16 34 -5 65 -14 65 -19 0 -4
8 -8 18 -9 24 -2 44 -8 64 -16 9 -4 22 -9 30 -10 39 -7 98 -33 143 -64 81 -57
178 -133 213 -169 18 -18 36 -33 39 -33 11 0 173 -169 173 -180 0 -5 6 -10 13
-10 17 -1 196 -230 180 -230 -5 0 0 -5 10 -11 9 -5 24 -24 33 -41 9 -17 20
-36 25 -42 26 -31 57 -85 51 -90 -3 -3 0 -6 6 -6 11 0 28 -38 23 -55 -1 -5 1
-7 5 -2 13 12 164 -311 164 -351 0 -7 4 -12 8 -12 4 0 8 -8 9 -18 2 -28 7 -47
15 -52 4 -3 9 -17 11 -30 2 -14 7 -32 10 -40 4 -8 8 -24 10 -35 2 -11 6 -27 9
-35 13 -36 24 -99 18 -95 -4 2 -7 -2 -7 -10 0 -8 4 -12 9 -9 9 6 11 -5 10 -48
0 -16 3 -28 7 -28 3 0 8 -16 9 -35 1 -19 2 -41 3 -47 2 -9 25 -13 78 -13 l76
0 15 78 c9 43 19 74 24 70 4 -4 3 5 -3 19 -6 16 -7 30 -1 33 5 3 7 12 3 20 -3
8 0 15 6 15 6 0 11 -7 11 -16 0 -9 9 -35 19 -58 31 -67 49 -110 53 -126 2 -8
5 -17 8 -20 6 -6 32 -60 36 -75 6 -25 50 -121 57 -126 5 -3 9 -10 9 -15 0 -5
4 -20 9 -32 5 -13 6 -28 3 -34 -4 -7 -2 -8 4 -4 11 6 14 0 11 -20 0 -4 4 -10
9 -13 6 -3 12 -15 14 -26 1 -11 7 -23 11 -26 5 -4 10 -18 10 -32 1 -14 5 -23
8 -21 3 2 18 -27 33 -63 24 -58 26 -74 20 -130 -3 -35 -8 -83 -9 -106 -2 -23
-4 -42 -5 -42 -1 0 -3 -20 -5 -45 -7 -111 -10 -140 -15 -140 -3 0 -7 -15 -8
-32 -3 -35 -9 -73 -13 -73 -1 0 -3 -9 -5 -20 -3 -22 -6 -33 -29 -119 -8 -33
-17 -69 -20 -80 -2 -12 -4 -21 -5 -21 -3 0 -20 -83 -27 -135 -6 -47 -10 -71
-13 -80 -1 -3 -1 -9 0 -15 2 -8 7 -81 12 -185 0 -8 4 -19 8 -25 4 -5 10 -28
14 -50 9 -50 51 -196 75 -255 19 -46 35 -112 46 -185 7 -40 13 -81 20 -122 2
-13 6 -26 8 -30 3 -5 8 -30 11 -58 4 -27 10 -60 13 -72 4 -18 1 -23 -16 -23
-12 0 -21 -4 -21 -8 0 -5 -6 -9 -12 -10 -102 -12 -161 -35 -208 -82 -10 -10
-23 -19 -29 -21 -7 -3 -14 -23 -16 -47 -2 -23 -11 -64 -18 -90 -9 -28 -15 -91
-15 -152 0 -123 -9 -151 -56 -182 -36 -24 -56 -56 -59 -99 -1 -22 -19 -50 -32
-49 -7 0 -99 -44 -105 -50 -3 -3 -52 -29 -110 -58 -58 -29 -161 -82 -230 -118
-69 -36 -262 -135 -430 -221 -168 -86 -320 -164 -337 -174 -18 -10 -33 -16
-33 -13 0 2 -9 0 -20 -6 -11 -6 -20 -7 -21 -3 -2 20 -10 100 -12 123 -1 14 -5
28 -10 31 -4 3 -10 16 -12 29 -8 40 -55 130 -118 225 -57 86 -144 196 -159
203 -22 10 0 31 64 62 92 45 211 133 297 218 87 86 126 138 111 147 -7 4 -9
18 -6 31 10 40 -20 42 -60 3 -19 -18 -34 -29 -34 -25 0 5 -8 -1 -17 -12 -10
-11 -61 -52 -113 -92 -352 -267 -348 -264 -338 -284 8 -14 6 -21 -6 -28 -15
-8 -15 -12 4 -38 11 -15 20 -33 20 -39 0 -6 5 -11 10 -11 6 0 10 -5 10 -11 0
-6 14 -30 30 -54 17 -24 30 -46 30 -49 0 -5 43 -72 58 -91 11 -14 25 -49 24
-57 -1 -5 2 -8 7 -8 20 0 72 -111 88 -187 6 -29 6 -97 0 -123 -12 -51 -21 -76
-30 -87 -7 -10 -3 -13 15 -13 16 0 29 -8 36 -22 6 -13 11 -17 11 -10 1 6 12
12 26 12 13 0 28 6 32 14 7 12 62 46 138 84 29 15 189 25 210 13 6 -3 12 -6
15 -7 3 0 28 -4 55 -9 28 -4 55 -10 60 -13 6 -4 19 -8 29 -9 11 -2 33 -10 49
-18 17 -8 36 -15 43 -15 7 0 19 -6 26 -13 7 -6 24 -13 38 -15 13 -1 27 -6 30
-10 5 -7 15 -10 59 -19 14 -2 29 -7 34 -10 5 -3 41 -4 80 -4 98 3 138 9 192
32 17 7 34 11 38 10 5 -1 6 3 3 8 -4 5 2 12 11 15 16 5 53 57 59 81 1 6 7 30
14 55 7 25 12 86 11 135 -1 98 15 162 57 230 33 53 92 111 92 90 0 -8 2 -15 5
-15 12 0 84 40 90 50 4 6 11 7 17 4 6 -4 8 -2 5 3 -4 6 0 16 8 23 12 10 31 72
28 90 0 3 -4 20 -8 38 -5 25 -3 33 10 38 22 9 65 52 65 65 0 5 6 22 14 37 7
15 16 47 19 71 2 24 10 47 17 51 6 4 10 9 8 11 -4 5 102 182 114 190 6 3 10
10 10 15 0 5 14 33 30 61 23 41 37 55 64 62 48 13 114 53 145 88 24 27 62 116
54 125 -2 2 -5 25 -6 51 -2 26 -6 47 -11 47 -4 0 -8 5 -8 11 0 18 -43 101 -62
123 -10 11 -18 26 -18 33 0 7 -4 13 -10 13 -5 0 -10 5 -10 12 0 6 -11 26 -25
43 -13 18 -21 35 -18 39 4 3 1 6 -5 6 -6 0 -14 10 -18 23 -12 35 -11 357 1
357 7 0 7 3 0 8 -13 9 -14 573 -1 565 5 -4 6 0 0 8 -12 20 -12 61 0 78 9 12 8
13 -3 6 -9 -5 -12 -4 -8 2 4 6 9 41 13 79 4 38 11 74 16 81 6 7 5 14 -2 18 -6
3 -8 10 -5 15 5 9 7 24 21 190 12 138 7 330 -12 450 -11 71 -14 89 -23 130
-11 50 -16 67 -31 125 -6 22 -12 45 -13 50 -7 25 -29 92 -37 110 -25 61 -39
105 -32 105 4 0 2 4 -3 8 -6 4 -21 34 -34 67 -31 78 -177 372 -191 385 -3 3
-19 28 -34 55 -16 28 -55 89 -88 137 -32 49 -58 90 -58 93 0 3 -7 13 -16 23
-8 9 -47 60 -86 112 -141 189 -414 490 -446 490 -16 0 -82 -59 -82 -74 0 -5
12 -24 26 -43 14 -19 24 -36 23 -38 -7 -6 -278 85 -291 98 -71 65 -368 276
-368 261 0 -4 -8 0 -17 8 -15 13 -155 88 -173 93 -8 3 -42 17 -86 36 -94 41
-250 93 -317 105 -16 3 -50 12 -75 19 -36 11 -125 14 -388 14 l-341 0 1 -44z
m622 -531 c13 -3 24 -10 24 -16 0 -5 4 -7 9 -4 9 6 130 -40 146 -55 5 -5 17
-9 27 -9 10 0 18 -4 18 -10 0 -5 3 -9 8 -8 15 3 42 -15 35 -25 -3 -6 -1 -7 5
-3 15 9 95 -32 87 -44 -3 -5 0 -7 8 -5 7 3 25 -5 40 -19 14 -13 27 -22 29 -20
2 1 24 -13 48 -32 25 -19 58 -44 73 -56 28 -21 43 -34 123 -109 34 -32 116
-122 166 -183 10 -12 22 -26 28 -33 5 -7 10 -17 10 -23 0 -5 5 -10 10 -10 6 0
10 -6 10 -14 0 -8 4 -16 8 -18 11 -4 72 -94 72 -106 0 -5 9 -17 19 -26 11 -10
17 -24 14 -32 -3 -8 -1 -14 4 -14 11 0 50 -80 46 -92 -2 -5 1 -8 6 -8 5 0 14
-15 21 -32 7 -18 21 -51 31 -73 24 -55 49 -142 42 -149 -4 -3 -1 -6 6 -6 9 0
12 -10 9 -29 -2 -17 -1 -28 4 -25 4 3 8 2 9 -3 0 -4 2 -17 5 -28 2 -11 7 -42
10 -69 l7 -49 -29 29 c-25 25 -68 50 -144 84 -8 3 -44 6 -79 5 l-63 -1 -41 60
c-22 33 -40 66 -40 73 0 7 -2 11 -5 8 -5 -5 -32 20 -32 30 0 7 -148 190 -189
233 -18 18 -29 37 -26 43 4 5 3 9 -2 8 -16 -4 -43 13 -43 28 0 8 -4 11 -10 8
-5 -3 -10 0 -10 7 0 8 -13 29 -30 48 -16 19 -29 40 -30 46 0 6 -7 17 -15 24
-9 7 -14 19 -11 26 3 9 0 11 -11 7 -11 -4 -14 -2 -9 5 4 7 2 12 -3 12 -6 0
-11 7 -11 15 0 8 -4 15 -8 15 -5 0 -15 12 -22 26 -12 22 -12 27 0 35 11 8 9 9
-7 4 -22 -6 -28 2 -24 28 1 5 -2 6 -7 3 -5 -3 -19 13 -33 35 -13 22 -30 47
-37 55 -7 7 -10 19 -6 25 4 7 3 9 -3 6 -14 -9 -46 40 -37 56 4 7 4 9 -1 5 -9
-8 -35 15 -35 31 0 6 -4 11 -10 11 -5 0 -10 7 -10 15 0 8 -4 15 -10 15 -5 0
-10 6 -10 14 0 8 -4 16 -8 18 -17 6 -83 112 -78 124 3 8 0 11 -9 7 -9 -3 -18
3 -22 13 -8 23 -45 78 -55 82 -16 7 -8 34 8 28 9 -3 27 -9 40 -12z m-2530
-3066 c170 -133 182 -187 74 -333 -60 -80 -73 -112 -68 -167 6 -55 51 -150
108 -225 33 -44 36 -53 22 -57 -31 -9 -128 -9 -143 0 -15 10 -20 11 -48 13
-32 2 -109 199 -172 441 -39 150 -45 189 -28 173 37 -36 88 -3 164 105 28 39
53 71 56 72 4 0 19 -10 35 -22z m538 -543 c20 -14 41 -25 46 -25 4 0 10 -3 12
-8 2 -4 59 -45 128 -91 69 -46 129 -88 134 -92 8 -7 -27 -92 -44 -109 -3 -3
-25 -43 -49 -90 -24 -47 -47 -89 -51 -94 -7 -7 -60 91 -60 110 0 2 -20 47 -45
100 -25 52 -45 100 -46 107 0 7 -2 8 -5 1 -2 -6 5 -31 16 -57 12 -26 19 -48
18 -50 -2 -2 2 -10 9 -18 6 -8 23 -45 38 -84 l26 -70 -63 70 c-35 38 -72 79
-84 91 -48 49 -64 76 -55 93 12 22 21 94 22 175 1 36 5 66 9 66 4 0 24 -11 44
-25z m-105 -284 c15 -16 54 -60 87 -97 32 -37 82 -92 111 -123 28 -31 50 -57
48 -59 -2 -2 -32 7 -67 21 -69 28 -317 131 -361 150 -25 11 -27 16 -23 47 3
19 5 40 6 45 0 6 26 10 59 10 37 1 67 7 82 17 31 22 27 23 58 -11z m259 -370
c1 -22 9 -55 17 -75 16 -37 72 -96 93 -96 6 0 12 -3 12 -8 0 -4 42 -20 93 -35
117 -36 145 -52 241 -140 l31 -28 -35 5 c-19 2 -71 15 -115 29 -44 14 -99 31
-122 37 -24 6 -64 29 -89 51 -55 47 -87 62 -129 60 -31 -2 -75 -35 -75 -58 0
-32 -34 -21 -125 41 -53 36 -100 66 -105 66 -5 0 -10 4 -12 8 -1 4 -23 23 -47
42 -55 43 -91 76 -91 82 0 3 6 5 13 5 15 0 99 10 191 24 39 5 94 12 121 15 28
3 51 7 53 8 1 2 19 3 40 4 36 2 37 1 40 -37z m140 -59 c34 -38 65 -72 69 -77
5 -4 4 -6 -2 -3 -5 2 -26 12 -45 21 -19 8 -45 26 -56 39 -23 25 -48 88 -35 88
4 0 36 -31 69 -68z m3631 -705 c-30 -24 -98 -137 -105 -177 -4 -19 -63 -70
-83 -71 -22 -1 -25 -2 -196 -54 -363 -110 -487 -146 -492 -142 -4 5 88 50 96
47 2 -1 7 2 10 7 3 5 53 33 111 62 58 30 168 86 245 126 77 40 201 104 275
143 129 67 173 86 139 59z"/>
<path d="M5230 8800 c0 -5 5 -10 11 -10 5 0 7 5 4 10 -3 6 -8 10 -11 10 -2 0
-4 -4 -4 -10z"/>
<path d="M5315 8689 c-4 -6 -5 -12 -2 -15 2 -3 7 2 10 11 7 17 1 20 -8 4z"/>
<path d="M5396 8438 c3 -5 10 -6 15 -3 13 9 11 12 -6 12 -8 0 -12 -4 -9 -9z"/>
<path d="M5795 8249 c-4 -6 -5 -12 -2 -15 2 -3 7 2 10 11 7 17 1 20 -8 4z"/>
<path d="M5910 8199 c0 -5 5 -7 10 -4 6 3 10 8 10 11 0 2 -4 4 -10 4 -5 0 -10
-5 -10 -11z"/>
<path d="M5714 8169 c-3 -6 -2 -15 3 -20 5 -5 9 -1 9 11 0 23 -2 24 -12 9z"/>
<path d="M6387 8379 c7 -7 15 -10 18 -7 3 3 -2 9 -12 12 -14 6 -15 5 -6 -5z"/>
<path d="M6275 8280 c-3 -5 -1 -10 4 -10 6 0 11 5 11 10 0 6 -2 10 -4 10 -3 0
-8 -4 -11 -10z"/>
<path d="M6355 8280 c-3 -5 -1 -10 4 -10 6 0 11 5 11 10 0 6 -2 10 -4 10 -3 0
-8 -4 -11 -10z"/>
<path d="M6556 8087 c3 -10 9 -15 12 -12 3 3 0 11 -7 18 -10 9 -11 8 -5 -6z"/>
<path d="M6550 7840 c0 -5 5 -10 11 -10 5 0 7 5 4 10 -3 6 -8 10 -11 10 -2 0
-4 -4 -4 -10z"/>
<path d="M2796 7813 c-6 -14 -5 -15 5 -6 7 7 10 15 7 18 -3 3 -9 -2 -12 -12z"/>
<path d="M2515 7800 c-3 -5 -1 -10 4 -10 6 0 11 5 11 10 0 6 -2 10 -4 10 -3 0
-8 -4 -11 -10z"/>
<path d="M5825 7600 c-3 -6 1 -7 9 -4 18 7 21 14 7 14 -6 0 -13 -4 -16 -10z"/>
<path d="M5866 7562 c-3 -5 1 -9 9 -9 8 0 12 4 9 9 -3 4 -7 8 -9 8 -2 0 -6 -4
-9 -8z"/>
<path d="M5906 7518 c3 -5 10 -6 15 -3 13 9 11 12 -6 12 -8 0 -12 -4 -9 -9z"/>
<path d="M6513 7445 c0 -8 4 -12 9 -9 5 3 6 10 3 15 -9 13 -12 11 -12 -6z"/>
<path d="M6553 7315 c0 -8 4 -12 9 -9 4 3 8 9 8 15 0 5 -4 9 -8 9 -5 0 -9 -7
-9 -15z"/>
<path d="M7090 7280 c0 -5 5 -10 11 -10 5 0 7 5 4 10 -3 6 -8 10 -11 10 -2 0
-4 -4 -4 -10z"/>
<path d="M6938 7275 c-2 -2 -23 -5 -48 -7 -48 -5 -172 -38 -180 -47 -3 -3 -32
-19 -65 -35 -33 -16 -62 -32 -65 -35 -3 -3 -24 -19 -48 -35 -37 -25 -41 -31
-29 -45 28 -33 135 -209 131 -215 -2 -3 -1 -4 2 -1 4 2 36 -42 72 -98 93 -147
96 -151 95 -157 0 -3 7 -10 15 -16 18 -13 9 -21 -48 -42 -77 -29 -120 -34
-294 -41 -13 -1 -16 -4 -9 -13 6 -7 9 -21 8 -30 -2 -10 0 -18 5 -18 9 0 38
-99 46 -158 5 -40 3 -44 -44 -91 l-51 -50 37 3 c20 2 43 -2 51 -8 11 -8 13 -8
7 2 -5 8 2 12 26 13 18 1 38 2 43 4 6 1 15 3 21 3 5 1 10 15 10 32 -1 24 18
48 106 138 59 60 110 107 113 104 3 -3 5 0 5 7 0 7 12 25 28 40 32 32 112 85
112 74 0 -5 4 -3 8 3 4 6 26 21 50 34 23 13 42 28 42 34 0 5 3 7 6 3 3 -3 15
4 26 15 11 11 26 17 35 14 13 -5 14 -4 4 8 -10 12 -8 16 8 21 11 3 23 14 26
25 3 10 12 21 20 24 8 3 15 12 15 21 0 8 4 15 8 15 9 0 38 70 34 82 -1 4 2 8
6 8 10 0 12 12 13 116 1 58 -4 91 -16 114 -9 17 -14 38 -11 46 3 8 2 13 -3 10
-4 -3 -19 7 -33 22 -42 45 -63 59 -124 80 -51 17 -157 35 -166 27z"/>
<path d="M6000 7206 c0 -2 8 -10 18 -17 15 -13 16 -12 3 4 -13 16 -21 21 -21
13z"/>
<path d="M7035 6409 c-4 -6 -5 -12 -2 -15 2 -3 7 2 10 11 7 17 1 20 -8 4z"/>
<path d="M6953 6395 c0 -8 4 -12 9 -9 4 3 8 9 8 15 0 5 -4 9 -8 9 -5 0 -9 -7
-9 -15z"/>
<path d="M7070 6240 c0 -5 5 -10 11 -10 5 0 7 5 4 10 -3 6 -8 10 -11 10 -2 0
-4 -4 -4 -10z"/>
<path d="M6800 6200 c-9 -6 -10 -10 -3 -10 6 0 15 5 18 10 8 12 4 12 -15 0z"/>
<path d="M6430 6079 c0 -5 5 -7 10 -4 6 3 10 8 10 11 0 2 -4 4 -10 4 -5 0 -10
-5 -10 -11z"/>
<path d="M6395 6040 c-3 -5 -1 -10 4 -10 6 0 11 5 11 10 0 6 -2 10 -4 10 -3 0
-8 -4 -11 -10z"/>
<path d="M6466 6042 c-2 -4 4 -8 14 -8 10 0 16 4 14 8 -3 4 -9 8 -14 8 -5 0
-11 -4 -14 -8z"/>
<path d="M6820 5760 c-9 -6 -10 -10 -3 -10 6 0 15 5 18 10 8 12 4 12 -15 0z"/>
<path d="M6395 5740 c-3 -5 -1 -10 4 -10 6 0 11 5 11 10 0 6 -2 10 -4 10 -3 0
-8 -4 -11 -10z"/>
<path d="M7750 4406 c0 -2 7 -7 16 -10 8 -3 12 -2 9 4 -6 10 -25 14 -25 6z"/>
<path d="M4819 4193 c0 -4 -2 -15 -4 -23 -4 -19 -16 -96 -21 -135 -2 -16 -6
-41 -9 -55 -6 -26 -7 -35 -21 -110 -4 -25 -8 -47 -9 -50 -1 -3 -5 -24 -9 -47
-4 -24 -12 -43 -17 -43 -5 0 -9 -4 -9 -10 0 -5 -22 -41 -50 -80 -27 -39 -50
-74 -50 -79 0 -5 -4 -11 -8 -13 -7 -2 -88 -116 -144 -202 -7 -11 -25 -33 -40
-50 -24 -28 -31 -31 -85 -30 -40 0 -71 7 -100 22 -23 12 -44 19 -46 14 -11
-20 4 -364 19 -444 3 -18 8 -46 10 -63 5 -47 13 -87 24 -132 5 -24 14 -60 19
-80 5 -21 14 -53 19 -70 6 -18 9 -33 6 -33 -3 0 1 -10 8 -22 6 -13 13 -29 14
-35 1 -7 15 -46 30 -85 16 -40 27 -76 26 -80 -1 -5 2 -8 8 -8 5 0 10 -7 10
-15 0 -8 9 -31 21 -51 11 -21 18 -46 16 -56 -3 -10 -1 -16 4 -12 5 3 17 -12
26 -33 10 -21 20 -40 23 -43 3 -3 20 -34 39 -70 19 -36 37 -67 40 -70 15 -13
31 -52 25 -62 -5 -7 -3 -8 5 -4 8 5 14 0 18 -13 3 -12 9 -21 14 -21 5 0 9 -5
9 -10 0 -6 9 -21 20 -33 11 -12 18 -27 16 -34 -3 -7 -2 -12 3 -10 4 1 40 -41
79 -93 70 -93 100 -131 134 -172 l18 -21 40 27 c22 14 40 29 40 32 0 3 -5 2
-10 -1 -8 -5 -31 33 -34 57 -1 4 -7 13 -13 20 -7 6 -13 20 -13 30 0 10 -5 18
-11 18 -5 0 -8 4 -4 9 3 5 0 13 -6 16 -5 4 -8 14 -5 22 3 8 2 12 -3 9 -4 -3
-14 12 -21 33 -10 31 -10 43 1 62 7 13 12 25 11 27 -1 1 -2 9 -2 18 0 9 5 12
13 8 8 -5 8 -2 -2 9 -8 11 -9 17 -3 17 6 0 9 6 6 14 -3 7 2 20 11 29 9 10 11
18 5 22 -6 4 -7 13 -1 23 7 14 23 72 37 135 1 4 2 8 4 10 1 1 4 15 6 32 3 16
11 36 17 44 6 7 10 24 9 37 -2 13 0 24 5 24 4 0 9 11 10 25 4 45 6 55 14 55 4
0 7 6 6 13 -1 38 4 68 12 63 4 -3 7 6 5 19 -1 14 2 27 7 31 5 3 7 10 4 15 -4
5 -1 9 5 9 6 0 9 4 5 9 -5 9 12 81 72 296 14 50 26 97 28 105 2 8 8 35 15 60
7 25 14 55 16 67 2 12 9 34 14 49 6 14 8 30 4 35 -3 5 0 9 7 9 7 0 10 3 7 6
-4 3 -2 20 3 37 6 18 12 43 15 57 9 45 31 66 109 105 73 37 75 39 53 51 l-23
13 25 9 c25 9 25 10 -14 26 -21 9 -42 16 -47 16 -5 0 -9 5 -9 11 0 5 -3 8 -7
6 -13 -7 -106 47 -117 69 -6 10 -14 21 -17 24 -4 3 -15 23 -26 45 -19 39 -52
101 -115 213 -16 30 -32 63 -34 75 -9 39 -32 151 -37 182 -2 17 -10 64 -17
106 l-12 76 -59 2 c-33 1 -59 -2 -60 -6z m79 -433 c19 -84 69 -202 117 -275
25 -38 45 -67 45 -63 0 4 18 -10 40 -32 21 -21 49 -41 60 -45 17 -5 19 -10 9
-21 -6 -8 -17 -14 -24 -14 -8 0 -15 -3 -17 -7 -1 -5 -23 -21 -48 -38 -25 -16
-53 -36 -62 -45 -33 -29 -47 -40 -54 -40 -3 0 -42 -37 -86 -82 -76 -78 -112
-123 -148 -187 -8 -14 -18 -28 -21 -31 -10 -9 -68 -134 -75 -163 -9 -37 -20
-23 -28 33 -3 25 -8 56 -11 70 -6 27 -9 48 -20 120 -4 25 -10 49 -13 54 -2 5
-6 23 -7 40 -2 17 -6 47 -10 66 -15 80 -23 135 -18 143 3 4 0 14 -7 22 -9 10
-7 15 9 20 12 3 21 11 21 16 0 5 7 9 15 9 18 0 131 113 140 140 4 11 10 18 14
16 4 -3 8 0 8 7 0 7 12 37 26 67 14 30 33 78 43 107 9 29 30 74 47 100 17 26
30 51 29 56 -1 4 2 7 6 7 5 0 14 -22 20 -50z"/>
<path d="M5633 3235 c0 -8 4 -12 9 -9 5 3 6 10 3 15 -9 13 -12 11 -12 -6z"/>
<path d="M6400 2960 c-9 -6 -10 -10 -3 -10 6 0 15 5 18 10 8 12 4 12 -15 0z"/>
<path d="M6435 2921 c-3 -5 -2 -12 3 -15 5 -3 9 1 9 9 0 17 -3 19 -12 6z"/>
<path d="M6235 2640 c-3 -5 -1 -10 4 -10 6 0 11 5 11 10 0 6 -2 10 -4 10 -3 0
-8 -4 -11 -10z"/>
<path d="M4240 2240 c-9 -6 -10 -10 -3 -10 6 0 15 5 18 10 8 12 4 12 -15 0z"/>
<path d="M5309 2043 c-13 -16 -12 -17 4 -4 16 13 21 21 13 21 -2 0 -10 -8 -17
-17z"/>
<path d="M4435 1960 c-3 -5 -1 -10 4 -10 6 0 11 5 11 10 0 6 -2 10 -4 10 -3 0
-8 -4 -11 -10z"/>
<path d="M4430 1840 c0 -5 5 -10 11 -10 5 0 7 5 4 10 -3 6 -8 10 -11 10 -2 0
-4 -4 -4 -10z"/>
<path d="M4270 1806 c0 -2 7 -7 16 -10 8 -3 12 -2 9 4 -6 10 -25 14 -25 6z"/>
<path d="M4516 1787 c3 -10 9 -15 12 -12 3 3 0 11 -7 18 -10 9 -11 8 -5 -6z"/>
<path d="M4596 1733 c-6 -14 -5 -15 5 -6 7 7 10 15 7 18 -3 3 -9 -2 -12 -12z"/>
<path d="M4306 1642 c-3 -5 1 -9 9 -9 8 0 12 4 9 9 -3 4 -7 8 -9 8 -2 0 -6 -4
-9 -8z"/>
<path d="M4440 1520 c-9 -6 -10 -10 -3 -10 6 0 15 5 18 10 8 12 4 12 -15 0z"/>
<path d="M4514 1449 c-3 -6 -2 -15 3 -20 5 -5 9 -1 9 11 0 23 -2 24 -12 9z"/>
<path d="M4755 1331 c-3 -5 -2 -12 3 -15 5 -3 9 1 9 9 0 17 -3 19 -12 6z"/>
<path d="M4640 1320 c-9 -6 -10 -10 -3 -10 6 0 15 5 18 10 8 12 4 12 -15 0z"/>
</g>
</svg>
