<?xml version="1.0" standalone="no"?>
<!DOCTYPE svg PUBLIC "-//W3C//DTD SVG 20010904//EN"
 "http://www.w3.org/TR/2001/REC-SVG-20010904/DTD/svg10.dtd">
<svg version="1.0" xmlns="http://www.w3.org/2000/svg"
 width="1024.000000pt" height="1024.000000pt" viewBox="0 0 1024.000000 1024.000000"
 preserveAspectRatio="xMidYMid meet">
<metadata>
Created by potrace 1.14, written by Peter Selinger 2001-2017
</metadata>
<g transform="translate(0.000000,1024.000000) scale(0.100000,-0.100000)"
fill="#000000" stroke="none">
<path d="M6828 9334 c-2 -1 -37 -5 -78 -8 -41 -3 -93 -8 -115 -11 -22 -4 -49
-8 -60 -9 -11 -2 -27 -6 -35 -9 -8 -4 -28 -8 -45 -11 -16 -2 -31 -5 -32 -6 -2
-2 -6 -3 -10 -4 -54 -14 -100 -30 -108 -36 -5 -5 -14 -9 -20 -9 -37 -4 -295
-128 -295 -142 0 -5 -7 -9 -15 -9 -8 0 -15 -5 -15 -12 0 -6 -3 -9 -6 -5 -5 5
-92 -54 -130 -88 -31 -28 -72 -63 -98 -83 -16 -12 -26 -22 -23 -22 3 0 -16
-21 -42 -47 -26 -27 -65 -70 -86 -98 -22 -27 -43 -51 -47 -53 -5 -2 -8 -8 -8
-12 0 -5 -20 -37 -43 -72 -36 -51 -144 -253 -137 -253 1 0 -5 -17 -14 -39 -22
-54 -80 -252 -101 -346 -2 -8 -27 -100 -55 -205 -28 -104 -53 -199 -55 -210
-6 -31 -13 -60 -15 -60 -3 0 -11 -39 -13 -62 -1 -13 -5 -23 -8 -23 -3 0 -6 -6
-7 -12 0 -7 -3 -23 -6 -35 -3 -13 -8 -31 -10 -40 -2 -10 -11 -43 -20 -74 -17
-58 -25 -90 -31 -124 -2 -11 -15 -60 -30 -110 -72 -252 -108 -374 -120 -410
-8 -22 -26 -80 -40 -130 -14 -49 -33 -108 -42 -130 -8 -22 -16 -47 -18 -56 -2
-9 -11 -39 -20 -65 -9 -27 -18 -53 -19 -59 -1 -5 -6 -17 -11 -25 -5 -8 -10
-21 -11 -30 -2 -14 -25 -82 -41 -120 -3 -8 -7 -19 -8 -25 -3 -10 -83 -218
-100 -260 -4 -11 -7 -23 -7 -27 1 -5 -3 -8 -8 -8 -6 0 -10 -5 -10 -11 0 -7
-18 -50 -40 -96 -22 -47 -40 -89 -40 -94 0 -5 -4 -9 -10 -9 -5 0 -10 -6 -10
-12 -1 -52 -291 -350 -457 -471 -24 -17 -43 -34 -43 -39 0 -5 -4 -6 -10 -3 -5
3 -10 3 -10 -2 0 -4 -15 -17 -32 -28 -18 -11 -39 -25 -48 -30 -67 -45 -133
-87 -166 -106 -87 -50 -224 -122 -234 -124 -3 -1 -34 -15 -70 -32 -68 -32
-306 -130 -350 -144 -14 -4 -50 -17 -80 -29 -30 -12 -62 -23 -71 -25 -8 -2
-32 -10 -52 -19 -21 -8 -41 -16 -45 -17 -4 -1 -17 -5 -30 -10 -13 -5 -29 -9
-36 -9 -7 0 -16 -3 -20 -7 -3 -4 -12 -8 -19 -9 -7 -1 -104 -35 -217 -74 -113
-40 -284 -99 -380 -132 -96 -33 -190 -66 -208 -74 -18 -9 -40 -17 -50 -19 -31
-6 -253 -116 -272 -135 -14 -14 -102 -70 -110 -70 -6 0 -10 -4 -10 -8 0 -4
-22 -24 -48 -44 -26 -20 -79 -68 -117 -107 -74 -74 -81 -81 -135 -151 -19 -25
-38 -46 -42 -48 -5 -2 -8 -10 -8 -17 0 -7 -4 -15 -8 -17 -14 -5 -140 -227
-147 -258 -1 -3 -7 -18 -14 -35 -26 -59 -31 -71 -51 -133 -11 -35 -18 -67 -15
-73 4 -5 2 -9 -3 -9 -8 0 -21 -52 -27 -110 -1 -8 -5 -22 -9 -31 -4 -9 -8 -46
-9 -83 -1 -36 -4 -66 -8 -66 -6 0 -3 -228 4 -275 3 -16 8 -57 11 -89 4 -33 9
-63 11 -66 2 -4 7 -22 10 -41 17 -99 113 -354 161 -427 10 -15 18 -29 17 -32
0 -7 105 -159 122 -177 8 -8 15 -18 15 -22 0 -17 209 -220 281 -274 87 -65
237 -157 256 -157 7 0 13 -4 13 -10 0 -5 4 -10 10 -10 5 0 39 -14 75 -30 37
-17 74 -31 83 -33 9 -1 22 -5 27 -9 6 -3 30 -12 55 -19 64 -18 73 -20 95 -24
11 -2 21 -4 23 -5 1 -2 10 -3 20 -4 9 -1 27 -5 39 -10 12 -4 46 -9 75 -12 29
-3 73 -7 97 -9 23 -2 46 -6 49 -9 3 -3 11 -1 19 5 8 7 13 8 13 1 0 -5 8 -9 17
-7 10 2 65 6 123 9 58 3 121 8 140 11 19 3 47 6 63 7 15 1 27 6 27 10 0 3 8 6
18 6 9 0 28 2 42 5 14 3 35 8 46 11 23 5 109 32 134 43 8 3 20 7 26 8 30 7
288 138 304 155 3 3 18 14 35 24 32 21 47 32 76 58 10 10 21 18 24 18 15 0
176 158 230 225 22 28 43 51 48 53 4 2 7 10 7 18 0 8 4 14 8 14 4 0 21 22 37
50 17 27 33 50 38 50 4 0 7 6 7 13 0 7 11 29 25 50 14 20 22 37 18 37 -4 0 -3
4 2 8 11 8 66 115 69 135 1 7 4 17 7 22 8 12 43 120 40 120 -1 0 3 14 9 30 7
17 13 38 15 48 4 19 80 331 92 377 3 14 7 30 9 35 1 6 7 30 14 55 6 25 13 54
15 65 2 11 4 20 5 20 2 0 7 21 15 60 3 17 11 48 17 70 5 22 11 47 13 55 2 8 8
35 15 60 7 25 14 56 16 70 3 14 8 34 11 45 4 11 8 28 9 38 1 9 2 18 4 20 1 1
3 11 5 22 2 11 6 34 10 50 4 17 7 38 8 47 1 10 5 18 10 18 4 0 5 4 2 10 -3 5
-1 27 4 47 5 21 12 55 15 77 4 21 8 42 11 46 3 4 7 25 10 46 6 42 8 55 18 94
4 14 9 36 11 50 2 14 13 64 25 112 11 48 23 98 25 110 6 30 66 248 74 268 3 8
6 17 7 20 23 78 48 146 56 157 6 7 8 13 4 13 -4 0 -1 7 6 17 8 9 13 18 11 20
-5 6 21 73 28 73 4 0 7 6 7 13 0 12 82 187 93 197 3 3 16 25 30 50 13 25 28
50 32 55 4 6 25 35 45 65 20 30 40 59 45 65 64 78 98 115 183 200 108 108 148
144 210 190 22 17 42 33 43 38 2 4 9 7 16 7 7 0 22 9 33 20 37 34 179 118 307
182 45 22 98 49 119 59 20 11 37 17 37 14 0 -3 10 1 22 9 12 9 30 16 40 16 9
0 24 8 34 18 10 9 18 15 18 13 1 -5 75 18 91 28 6 3 15 6 20 8 6 1 37 11 70
23 69 26 395 140 410 144 6 2 24 9 40 15 17 7 35 14 40 15 18 5 50 17 67 27
10 5 22 9 28 9 5 0 33 11 62 23 29 13 69 30 88 37 19 7 49 19 65 26 42 18 208
84 220 88 6 2 23 8 39 15 15 6 63 25 105 42 42 17 95 40 118 50 24 10 50 19
58 19 8 0 15 4 15 10 0 5 7 7 15 4 8 -4 15 -1 15 7 0 7 3 9 6 6 4 -4 19 0 33
7 14 7 69 35 121 60 94 46 130 66 140 76 3 3 34 25 69 49 36 24 76 54 89 65
62 53 128 114 151 140 14 16 37 41 50 55 13 14 35 42 50 61 14 19 28 37 31 40
16 16 70 100 70 109 0 6 3 11 8 11 4 0 12 10 18 23 6 12 27 54 46 92 43 82 83
185 110 275 20 69 23 82 33 144 3 21 9 55 13 75 5 20 8 53 8 74 -1 20 1 37 5
37 3 0 4 55 2 123 -2 115 -8 222 -13 222 -1 0 -3 18 -6 40 -2 22 -7 47 -11 55
-3 8 -7 24 -9 35 -6 36 -11 60 -17 75 -2 8 -15 47 -27 85 -30 94 -85 214 -139
305 -25 41 -48 77 -52 80 -3 3 -14 20 -23 38 -9 17 -21 32 -26 32 -6 0 -10 4
-10 10 0 23 -183 214 -260 272 -30 23 -57 44 -60 48 -6 7 -118 81 -145 96 -11
6 -42 23 -69 38 -95 53 -291 127 -376 142 -8 2 -33 7 -55 13 -82 19 -159 28
-317 34 -43 2 -79 3 -80 1z"/>
<path d="M7558 4145 c-2 -2 -28 -6 -58 -9 -60 -6 -69 -8 -180 -32 -41 -9 -80
-21 -86 -26 -7 -5 -16 -8 -20 -7 -5 1 -16 0 -24 -3 -47 -18 -56 -21 -65 -23
-31 -8 -219 -98 -223 -107 -2 -5 -8 -8 -13 -8 -10 0 -144 -87 -170 -110 -9 -8
-29 -24 -45 -35 -30 -21 -196 -184 -229 -225 -11 -14 -33 -43 -50 -65 -16 -22
-33 -42 -37 -43 -5 -2 -6 -8 -2 -13 3 -5 1 -9 -3 -9 -5 0 -17 -17 -28 -37 -11
-21 -23 -40 -26 -43 -10 -8 -96 -181 -104 -210 -4 -14 -11 -30 -16 -36 -5 -6
-10 -19 -12 -30 -1 -10 -6 -24 -9 -30 -17 -27 -60 -213 -74 -324 -9 -68 -13
-331 -5 -345 3 -5 6 -28 7 -50 1 -22 3 -40 4 -40 1 0 3 -11 5 -25 15 -98 51
-227 90 -325 40 -98 105 -228 117 -233 5 -2 8 -9 8 -17 0 -7 7 -18 15 -25 8
-7 13 -16 10 -20 -3 -5 -2 -10 3 -12 4 -1 25 -27 46 -55 143 -198 347 -372
570 -487 84 -44 233 -105 275 -113 13 -2 32 -8 43 -14 10 -5 23 -7 28 -4 5 3
11 1 15 -4 3 -5 13 -10 23 -10 43 -2 62 -6 62 -11 0 -4 9 -6 19 -5 11 1 49 -4
84 -9 36 -6 97 -11 136 -11 39 0 71 -4 71 -8 0 -5 5 -5 12 -1 7 4 39 9 72 10
66 3 140 11 171 17 76 16 161 31 168 29 4 -1 7 3 7 9 0 5 5 7 10 4 6 -4 17 -1
25 5 8 7 15 9 15 5 0 -4 7 -2 15 5 8 7 15 9 15 5 0 -4 7 -2 15 5 8 7 15 10 15
7 0 -19 265 112 375 186 143 96 289 238 405 392 16 22 34 45 40 52 5 7 10 15
10 18 0 3 11 23 25 44 27 44 99 183 100 193 0 3 3 10 8 14 4 4 7 16 7 26 0 10
5 18 10 18 6 0 9 3 8 8 -1 4 7 34 17 67 11 33 20 63 21 68 1 4 2 8 4 10 8 10
39 176 48 257 10 82 8 343 -2 386 -2 12 -7 38 -10 58 -16 99 -79 320 -97 341
-5 5 -9 17 -9 27 0 10 -5 18 -10 18 -6 0 -9 3 -8 8 1 4 -3 17 -10 30 -7 12 -9
22 -5 22 4 0 3 4 -4 8 -6 4 -21 29 -32 55 -11 26 -25 47 -31 47 -6 0 -8 5 -5
10 3 6 1 10 -4 10 -6 0 -11 5 -11 11 0 11 -72 116 -115 169 -32 39 -196 202
-235 234 -73 59 -312 211 -322 205 -2 -1 -21 7 -43 18 -52 27 -185 74 -185 67
0 -4 -6 -2 -13 4 -7 6 -26 13 -42 16 -17 2 -30 5 -30 6 0 2 -50 13 -115 24
-19 3 -48 9 -65 12 -33 7 -361 15 -367 9z"/>
</g>
</svg>
