<svg xmlns="http://www.w3.org/2000/svg" xmlns:xlink="http://www.w3.org/1999/xlink"><defs>
<clipPath id="clip0_11_131">
<rect width="60" height="60" fill="white"/>
</clipPath>

<clipPath id="clip0_28_151">
<rect width="24" height="24" fill="white"/>
</clipPath>

<clipPath id="clip0_11_143">
<rect width="60" height="60" fill="white"/>
</clipPath>

<clipPath id="clip0_28_126">
<rect width="24" height="24" fill="white"/>
</clipPath>
</defs><symbol id="arrow" viewBox="0 0 31 12">
<path d="M25.2962 4.925C24.3243 3.79167 23.3097 2.15 22.2525 0H24.0941C26.2596 2.5 28.5616 4.35 31 5.55V6.45C28.5616 7.65 26.2596 9.5 24.0941 12H22.2525C23.3097 9.85 24.3243 8.20833 25.2962 7.075H0V4.925H25.2962Z"/>
</symbol><symbol id="builder" viewBox="0 0 60 60"><g fill="none">
<path d="M47.7701 39.9497C49.8586 41.4661 50.8454 45.9415 51.0507 47.5414L52.6082 59.2895L54.2354 59.076L52.6793 47.3142C52.6465 47.0542 51.8226 40.8585 48.7418 38.6358C47.7099 37.9461 46.6041 37.3726 45.4435 36.9278C45.3737 36.8744 45.2984 36.832 45.2149 36.8033L44.5375 36.5638C43.5138 36.1682 42.4449 35.7987 41.4184 35.4785L40.7848 35.2567C40.7218 35.2335 40.6575 35.2198 40.5904 35.213C38.8742 34.6696 37.3673 34.2686 36.5599 34.0578V32.2622C39.011 30.5104 40.4672 27.6829 40.4645 24.6706V23.2883C40.7382 23.3882 41.027 23.4402 41.3158 23.4443C42.6857 23.4443 43.7957 22.3343 43.7957 20.9644V18.7527C43.7957 18.1519 43.574 17.5729 43.1757 17.1268C43.4399 16.7052 43.574 16.2153 43.563 15.7198V14.7755C43.6013 14.0871 43.3837 13.4083 42.954 12.8677C42.7309 12.635 42.4449 12.468 42.1301 12.39C41.9358 10.1496 40.8723 3.57206 35.1995 1.00182H35.1502C33.6721 0.36815 32.0859 0.0287346 30.4805 0.002731H30.0083C28.4727 -0.028747 26.944 0.212128 25.4905 0.713039H25.4522C19.1703 3.02325 18.0385 10.0429 17.8605 12.3681C17.5444 12.4461 17.257 12.6117 17.0353 12.8458C16.585 13.3795 16.3496 14.0597 16.3783 14.755V15.7267C16.366 16.2221 16.5001 16.7107 16.7629 17.1295C16.3674 17.5798 16.1443 18.1587 16.1443 18.7595V20.9753C16.1443 22.3453 17.2556 23.4539 18.6242 23.4539C18.9157 23.4539 19.2018 23.4005 19.4741 23.2978V24.6856C19.4796 27.6637 20.9043 30.4598 23.3103 32.2143V34.0578C20.4089 34.8147 17.5499 35.733 14.7511 36.8129H14.7141C13.4741 37.2768 12.2917 37.8831 11.1872 38.6139C8.10646 40.8585 7.28393 47.0473 7.24971 47.2937L5.6936 59.0623L7.32088 59.2731L8.87699 47.5044C9.08502 45.9086 10.069 41.4388 12.1315 39.91C12.7871 39.4734 13.4824 39.1012 14.2091 38.7973V45.847C13.0102 46.2877 11.4979 47.5209 11.4979 50.124V59.1869C11.4979 59.6344 11.8606 59.9998 12.3108 59.9998H47.6565C48.1068 59.9998 48.4681 59.6344 48.4681 59.1869V50.139C48.4681 47.5359 46.9462 46.3042 45.7569 45.8648V38.8151C46.4645 39.1272 47.1365 39.5076 47.7701 39.9497ZM42.1835 18.7527V20.9712C42.1479 21.4393 41.7359 21.7896 41.2679 21.7527C40.8518 21.7185 40.5206 21.3873 40.4864 20.9712V18.7527C40.4508 18.2832 40.7984 17.874 41.2679 17.8343C41.7359 17.7974 42.1479 18.1478 42.1835 18.6158C42.1889 18.661 42.1889 18.7075 42.1835 18.7527ZM31.1196 1.66833C32.1091 1.7436 33.085 1.95847 34.017 2.30063V6.41877C33.3464 7.38364 32.2884 8.00362 31.1196 8.11585V1.66833ZM26.5964 2.07481C27.538 1.80519 28.5111 1.65601 29.4937 1.63001V8.13775C28.3249 8.02552 27.2643 7.40417 26.5964 6.4393V2.07481ZM19.4536 20.9644C19.4167 21.4324 19.0047 21.7842 18.538 21.7458C18.1219 21.7144 17.7907 21.3832 17.7565 20.9644V18.7527C17.7182 18.2832 18.0686 17.874 18.538 17.8343C19.0047 17.7974 19.4167 18.1478 19.4536 18.6158C19.4577 18.661 19.4577 18.7075 19.4536 18.7527V20.9644ZM18.6023 16.2687C18.4477 16.2687 18.2971 16.2837 18.148 16.3111C18.022 16.1427 17.9618 15.9306 17.9837 15.7198V14.7344C17.9741 14.4758 18.0385 14.2212 18.174 14.0009C18.2054 13.9749 18.2465 13.9653 18.2889 13.9708H18.6023C19.0512 13.9708 19.4167 13.6053 19.4167 13.1551C19.4167 12.776 19.5234 5.56065 24.965 2.729V6.63638C24.965 6.75682 24.9924 6.87452 25.0444 6.98264C25.1005 7.09623 26.4267 9.80334 30.2998 9.80334C34.1716 9.80334 35.5033 7.09213 35.5567 6.98264C35.6059 6.87452 35.6347 6.75682 35.6306 6.63638V3.12042C40.4002 6.16421 40.5138 12.791 40.5138 13.1551C40.5138 13.6053 40.8792 13.9708 41.3267 13.9708H41.6415C41.7222 13.9708 41.74 13.9708 41.7551 14.0009C41.8933 14.2267 41.9576 14.4867 41.9453 14.7522V15.7198C41.9672 15.9333 41.9043 16.1468 41.7715 16.3111C40.9736 16.1537 40.1483 16.4055 39.5763 16.9858H20.3637C19.897 16.5218 19.2634 16.2673 18.6078 16.2741L18.6023 16.2687ZM21.0809 24.6856V18.6131H38.8701V24.6856C38.8632 28.9502 35.4047 32.4018 31.1415 32.3977H28.7985C24.5394 32.3964 21.0864 28.9461 21.0809 24.6856ZM34.9531 33.2066V34.4096L29.9645 40.7887L24.9198 34.4096V33.1724C26.1365 33.7376 27.46 34.0291 28.7985 34.0305H31.1415C32.4568 34.0305 33.7569 33.7485 34.9531 33.2066ZM20.2187 36.6295C21.7693 36.1559 23.1051 35.7946 23.7976 35.614L29.9755 43.4246L36.0836 35.614C36.7857 35.7987 38.1433 36.1559 39.7282 36.65V45.9675H20.2009L20.2187 36.6295ZM46.8436 50.139V58.3876H13.1238V50.139C13.1238 47.6837 14.9413 47.3306 15.1356 47.2964C15.5394 47.2403 15.8364 46.8954 15.8364 46.4903V38.1363C16.7301 37.7887 17.6799 37.4588 18.6023 37.1605V46.7818C18.6023 47.2321 18.9664 47.5975 19.4167 47.5975H40.5671C41.016 47.5975 41.3815 47.2321 41.3815 46.7818V37.1769L44.1201 38.1363V46.4903C44.1201 46.8968 44.4225 47.2444 44.8249 47.2964C44.9084 47.3074 46.8436 47.5975 46.8436 50.139Z" fill="#DF4646"/>
<path d="M15.0068 49.114H19.3987V50.573H15.0068V49.114Z" fill="#DF4646"/>
<path d="M40.5425 49.114H44.9371V50.573H40.5425V49.114Z" fill="#DF4646"/>
</g></symbol><symbol id="call" viewBox="0 0 18 18"><g fill="none">
<path d="M16.4837 13.2847L16.2751 15.1617C16.1718 16.0914 15.4311 16.8069 14.5056 16.671C12.6683 16.4012 9.45641 15.4132 6.02214 11.979C2.58791 8.54473 1.59952 5.33246 1.3294 3.49478C1.19334 2.56914 1.90886 1.82824 2.83873 1.72492L4.71533 1.51641C5.50798 1.42833 6.27719 1.81961 6.6728 2.5121L7.38478 3.75842C7.83211 4.54146 7.70006 5.52702 7.06238 6.1647L7.04365 6.18344C6.5708 6.65629 6.37125 7.33971 6.68441 7.93056C6.95828 8.44728 7.40987 9.12405 8.14294 9.85712C8.87601 10.5902 9.55278 11.0418 10.0695 11.3157C10.6603 11.6288 11.3438 11.4293 11.8166 10.9564L11.8354 10.9377C12.473 10.3 13.4586 10.1679 14.2416 10.6153L15.488 11.3273C16.1804 11.7229 16.5717 12.4921 16.4837 13.2847Z" stroke="#DF4646" stroke-width="2" stroke-linecap="round" stroke-linejoin="round"/>
</g></symbol><symbol id="efficiency" viewBox="0 0 60 60"><g fill="none">
<g clip-path="url(#clip0_11_131)">
<path d="M45.5991 24.8108C45.3031 24.8108 45.0142 24.6614 44.8485 24.3903L44.7895 24.2946C44.5341 23.8818 44.6616 23.3401 45.0743 23.0847C45.487 22.829 46.0287 22.9566 46.2843 23.3695L46.348 23.4733C46.6014 23.8873 46.4709 24.4283 46.0569 24.6818C45.9137 24.7691 45.7554 24.8108 45.5991 24.8108ZM42.4191 20.9217C42.1443 20.9217 41.9333 20.7903 41.7386 20.6107C41.381 20.2823 41.3575 19.7264 41.6858 19.3688C42.0141 19.0112 42.57 18.9876 42.9277 19.3161L43.0165 19.3979C43.3726 19.7277 43.394 20.2839 43.0641 20.6401C42.891 20.8271 42.6553 20.9217 42.4191 20.9217ZM38.3037 18.0416C38.1204 18.0416 37.9637 17.9751 37.8041 17.8941C37.3706 17.6757 37.1964 17.1472 37.4149 16.7137C37.6335 16.2802 38.1619 16.1059 38.5954 16.3245C38.8065 16.4316 38.9875 16.5575 39.0945 16.7773C39.2143 17.0237 39.2119 17.3176 39.0874 17.5617C38.932 17.8662 38.6236 18.0416 38.3037 18.0416ZM33.5599 16.3952C33.4651 16.3913 33.3716 16.3785 33.2793 16.3572C32.8024 16.2665 32.4893 15.8064 32.5801 15.3295C32.6707 14.8527 33.1306 14.5396 33.6077 14.6302C33.8363 14.6746 34.0417 14.7432 34.2046 14.9198C34.394 15.1251 34.4755 15.4139 34.4209 15.688C34.3376 16.1061 33.9704 16.3952 33.5599 16.3952Z" fill="#DF4646"/>
<path d="M56.2431 40.2541L54.3712 38.7135C55.1282 35.2339 55.1253 31.5904 54.3622 28.1078L56.2661 26.4819C56.5579 26.2328 56.6543 25.8231 56.5043 25.4699L54.2795 20.2322C54.1295 19.879 53.7681 19.6652 53.3857 19.7011L50.9672 19.9358C49.0383 16.9384 46.461 14.3661 43.4655 12.4485L43.6628 9.94816C43.693 9.56555 43.4714 9.20766 43.1155 9.06398L37.838 6.9341C37.4823 6.79031 37.0745 6.89414 36.8305 7.19051L35.2842 9.06844C33.8369 8.75367 32.361 8.57238 30.8801 8.52059V5.28656H33.884C35.3417 5.28656 36.5277 4.10086 36.5277 2.64328C36.5277 1.1857 35.3415 0 33.8839 0H26.1183C24.6797 0 23.4746 1.20434 23.4746 2.6434C23.4746 4.08246 24.6796 5.28668 26.1183 5.28668H29.1222V8.5207C27.6305 8.57309 26.1431 8.75695 24.684 9.0757L23.0564 7.17012C22.8072 6.87844 22.3976 6.78199 22.0444 6.93199L16.8053 9.15773C16.4521 9.30773 16.2372 9.66961 16.2742 10.0515L16.5083 12.4676C13.5076 14.3959 10.9322 16.9739 9.01186 19.9713L6.51811 19.7748C6.13467 19.7454 5.77772 19.9662 5.63405 20.322L3.50323 25.5994C3.35955 25.9552 3.46338 26.3631 3.75963 26.607L5.63147 28.148C4.8742 31.627 4.87713 35.2711 5.6399 38.7538L3.73608 40.3789C3.44416 40.6281 3.34772 41.0378 3.49772 41.3911L5.72287 46.6295C5.87287 46.9827 6.23557 47.1972 6.61678 47.1606L9.03518 46.9256C10.964 49.9228 13.5416 52.4959 16.5371 54.414L16.3396 56.9133C16.3094 57.2959 16.5308 57.6538 16.8867 57.7976L22.1649 59.9282C22.5205 60.072 22.9286 59.968 23.1724 59.6718L24.7184 57.7937C28.1958 58.55 31.8374 58.5475 35.3187 57.7862L36.9461 59.6919C37.1169 59.892 37.363 60.0001 37.6147 60.0001C37.7303 60.0001 37.847 59.9774 37.9581 59.9302L43.197 57.7046C43.5501 57.5546 43.7651 57.1929 43.7282 56.8109L43.494 54.3947C46.4946 52.4664 49.0703 49.8882 50.991 46.8907L53.4844 47.0869C53.8661 47.1171 54.2247 46.8955 54.3683 46.5397L56.4994 41.262C56.6432 40.9059 56.5395 40.498 56.2431 40.2541ZM25.2325 2.6434C25.2325 2.15508 25.6299 1.75781 26.1184 1.75781H33.884C34.3724 1.75781 34.7699 2.15508 34.7699 2.6434C34.7699 3.1316 34.3724 3.52887 33.884 3.52887H26.1184C25.6299 3.52875 25.2325 3.1316 25.2325 2.6434ZM52.9799 45.2838L50.5976 45.0963C50.268 45.0701 49.9506 45.2322 49.7782 45.5149C47.8794 48.6287 45.2274 51.2823 42.1087 53.1885C41.8214 53.364 41.6597 53.6882 41.6922 54.0232L41.9165 56.3386L37.8644 58.0601L36.3095 56.2393C36.1403 56.0413 35.8948 55.9311 35.6411 55.9311C35.5723 55.9311 35.5029 55.9391 35.4344 55.9557C31.885 56.8148 28.1356 56.8167 24.5916 55.9611C24.264 55.8823 23.9206 55.997 23.7068 56.2569L22.2252 58.0568L18.143 56.4088L18.3315 54.0205C18.3577 53.6902 18.1957 53.3732 17.9127 53.2008C14.8007 51.3043 12.1477 48.6552 10.2405 45.5394C10.0647 45.2523 9.74053 45.0909 9.40584 45.1234L7.08881 45.3485L5.3678 41.2971L7.1869 39.7444C7.43885 39.5293 7.54854 39.1908 7.47049 38.8689C6.60975 35.3181 6.60752 31.5669 7.46405 28.0211C7.54303 27.6939 7.42819 27.3502 7.16838 27.1362L5.37459 25.6594L7.02272 21.5776L9.40537 21.7654C9.73561 21.7917 10.0524 21.6296 10.2249 21.3468C12.1231 18.2331 14.775 15.5796 17.8938 13.6734C18.1811 13.4979 18.3428 13.1737 18.3103 12.8387L18.0859 10.5234L22.1384 8.80184L23.6935 10.6225C23.9085 10.8742 24.2468 10.9838 24.5684 10.9059C28.1175 10.0477 31.8668 10.0457 35.411 10.901C35.738 10.9796 36.0817 10.865 36.2957 10.6054L37.7776 8.80547L41.8594 10.4528L41.6708 12.8422C41.6447 13.1726 41.8068 13.4895 42.0898 13.662C45.2017 15.5575 47.8546 18.2063 49.7617 21.3219C49.9374 21.6088 50.2614 21.7697 50.5963 21.7378L52.9136 21.5129L54.6342 25.5639L52.8151 27.1174C52.5633 27.3325 52.4537 27.671 52.5318 27.9929C53.3925 31.5432 53.3949 35.2943 52.5386 38.8404C52.4596 39.1677 52.5744 39.5114 52.8344 39.7254L54.628 41.2017L52.9799 45.2838Z" fill="#DF4646"/>
<path d="M47.1299 26.3346C47.0127 26.3272 46.8921 26.343 46.7747 26.3858L36.7587 30.0339C38.3603 27.2795 39.8045 24.6878 40.1146 24.1296C40.5315 23.379 39.673 22.5182 38.921 22.9336C38.2184 23.3221 34.2964 25.4969 30.879 27.5243V15.1698C30.879 14.6843 30.4855 14.2909 30.0001 14.2909C25.6354 14.2909 21.3655 15.7982 17.9769 18.535C17.0968 19.2457 18.1954 20.6182 19.0814 19.9025C21.9306 17.6013 25.466 16.2575 29.1212 16.0712V28.5831C27.4825 29.5882 26.1657 30.4575 25.7119 30.9104C23.9709 32.6477 23.9568 35.5747 25.7058 37.3141C27.4521 39.0507 30.3629 39.064 32.1105 37.3201C32.6968 36.7352 33.9806 34.7129 35.3551 32.4159L46.6213 28.3126C47.1296 29.9641 47.3877 31.6819 47.3877 33.431C47.3877 43.0154 39.5876 50.8128 30 50.8128C20.4124 50.8128 12.6123 43.0154 12.6123 33.431C12.6123 29.4411 13.9274 25.6893 16.4152 22.5806C17.122 21.6974 15.7546 20.5931 15.0428 21.4822C12.342 24.857 10.8545 29.1005 10.8545 33.431C10.8545 43.9847 19.4432 52.5707 30 52.5707C40.5568 52.5707 49.1455 43.9846 49.1455 33.431C49.1455 31.1924 48.7623 28.9996 48.0066 26.9129C47.8711 26.5385 47.5079 26.3127 47.1299 26.3346ZM30.8689 36.0757C29.7875 37.1546 28.0294 37.1531 26.9496 36.0721C26.4268 35.5484 26.1393 34.8526 26.14 34.1127C26.1407 33.3729 26.4295 32.6774 26.9534 32.1547C27.7574 31.3523 32.7401 28.4263 37.0525 25.9916C34.6092 30.298 31.6732 35.2732 30.8689 36.0757Z" fill="#DF4646"/>
</g>

</g></symbol><symbol id="fabric" viewBox="0 0 60 60"><g fill="none">
<path d="M44.7656 59.9999C45.4128 59.9999 45.9375 59.4752 45.9375 58.828C45.9375 58.1808 45.4128 57.6561 44.7656 57.6561C44.1184 57.6561 43.5938 58.1808 43.5938 58.828C43.5938 59.4752 44.1184 59.9999 44.7656 59.9999Z" fill="#DF4646"/>
<path d="M58.8281 15.4688H45.9375V9.60938C45.9375 8.96227 45.4127 8.4375 44.7656 8.4375H31.1719V1.17188C31.1719 0.524766 30.6471 0 30 0H1.17188C0.524648 0 0 0.524766 0 1.17188V44.7656C0 45.4127 0.524648 45.9375 1.17188 45.9375H14.7656V51.7969C14.7656 52.444 15.2903 52.9688 15.9375 52.9688H29.5312V58.8281C29.5312 59.4752 30.056 60 30.7031 60H39.4922C40.1393 60 40.6641 59.4752 40.6641 58.8281C40.6641 58.181 40.1393 57.6562 39.4922 57.6562H31.875V46.8582C32.3415 47.4532 32.8186 48.2357 33.2181 48.8911C34.44 50.8959 35.7034 52.9688 37.7344 52.9688C39.7654 52.9688 41.0288 50.8959 42.2507 48.8911C43.0104 47.6446 44.0509 45.9375 44.7656 45.9375C45.4804 45.9375 46.5209 47.6446 47.2806 48.8911C48.5025 50.8959 49.7659 52.9688 51.7969 52.9688C53.8279 52.9688 55.0913 50.8959 56.3132 48.8911C56.7127 48.2357 57.1897 47.4532 57.6562 46.8582V57.6562H50.0391C49.392 57.6562 48.8672 58.181 48.8672 58.8281C48.8672 59.4752 49.392 60 50.0391 60H58.8281C59.4752 60 60 59.4752 60 58.8281V16.6406C60 15.9935 59.4752 15.4688 58.8281 15.4688ZM29.5312 29.5312H17.1094V21.3281H29.5312V29.5312ZM17.1094 31.875H29.5312V40.0781H17.1094V31.875ZM31.875 25.7645C32.3415 26.3595 32.8186 27.1419 33.2181 27.7973C34.44 29.8022 35.7034 31.875 37.7344 31.875C39.7654 31.875 41.0288 29.8022 42.2507 27.7973C43.0104 26.5508 44.0509 24.8438 44.7656 24.8438C45.4804 24.8438 46.5209 26.5508 47.2806 27.7973C48.5025 29.8022 49.7659 31.875 51.7969 31.875C53.8279 31.875 55.0913 29.8022 56.3132 27.7973C56.7127 27.1419 57.1897 26.3595 57.6562 25.7645V33.2968C56.2747 33.9057 55.28 35.5359 54.3118 37.1244C53.5521 38.3711 52.5116 40.0781 51.7969 40.0781C51.0821 40.0781 50.0416 38.3711 49.2819 37.1245C48.06 35.1197 46.7966 33.0469 44.7656 33.0469C42.7346 33.0469 41.4712 35.1197 40.2493 37.1245C39.4896 38.3711 38.4491 40.0781 37.7344 40.0781C37.0196 40.0781 35.9791 38.3711 35.2194 37.1245C34.2512 35.5361 33.2565 33.9059 31.875 33.297V25.7645ZM57.6562 22.75C56.2747 23.3589 55.28 24.9891 54.3118 26.5775C53.5521 27.8242 52.5116 29.5312 51.7969 29.5312C51.0821 29.5312 50.0416 27.8242 49.2819 26.5777C48.06 24.5728 46.7966 22.5 44.7656 22.5C42.7346 22.5 41.4712 24.5728 40.2493 26.5777C39.4896 27.8242 38.4491 29.5312 37.7344 29.5312C37.0196 29.5312 35.9791 27.8242 35.2194 26.5777C34.2512 24.9892 33.2565 23.359 31.875 22.7501V17.8125H57.6562V22.75ZM43.5938 15.4688H30.7031C30.056 15.4688 29.5312 15.9935 29.5312 16.6406V18.9844H17.1094V10.7812H43.5938V15.4688ZM2.34375 43.5938V2.34375H28.8281V8.4375H15.9375C15.2903 8.4375 14.7656 8.96227 14.7656 9.60938V43.5938H2.34375ZM17.1094 50.625V42.4219H29.5312V50.625H17.1094ZM54.3118 47.6714C53.5521 48.9179 52.5116 50.625 51.7969 50.625C51.0821 50.625 50.0416 48.9179 49.2819 47.6714C48.06 45.6666 46.7966 43.5938 44.7656 43.5938C42.7346 43.5938 41.4712 45.6666 40.2493 47.6714C39.4896 48.9179 38.4491 50.625 37.7344 50.625C37.0196 50.625 35.9791 48.9179 35.2194 47.6714C34.2512 46.0829 33.2565 44.4527 31.875 43.8438V36.3115C32.3415 36.9064 32.8186 37.6889 33.2181 38.3443C34.44 40.3491 35.7034 42.4219 37.7344 42.4219C39.7654 42.4219 41.0288 40.3491 42.2507 38.3442C43.0104 37.0977 44.0509 35.3906 44.7656 35.3906C45.4804 35.3906 46.5209 37.0977 47.2806 38.3442C48.5025 40.3491 49.7659 42.4219 51.7969 42.4219C53.8279 42.4219 55.0913 40.3491 56.3132 38.3442C56.7127 37.6888 57.1897 36.9063 57.6562 36.3114V43.8437C56.2747 44.4527 55.28 46.0828 54.3118 47.6714Z" fill="#DF4646"/>
</g></symbol><symbol id="mail" viewBox="0 0 24 24"><g fill="none">
<rect x="4" y="6" width="16" height="12" rx="2.8" stroke="white" stroke-width="1.5"/>
<path d="M8 10L11.4 12.55C11.7556 12.8167 12.2444 12.8167 12.6 12.55L16 10" stroke="white" stroke-width="1.5" stroke-linecap="round"/>
</g></symbol><symbol id="map-pin" viewBox="0 0 24 24"><g fill="none">
<path d="M11 11.9004V17.0004C11 17.2657 11.1054 17.52 11.2929 17.7076C11.4804 17.8951 11.7348 18.0004 12 18.0004C12.2652 18.0004 12.5196 17.8951 12.7071 17.7076C12.8946 17.52 13 17.2657 13 17.0004V11.9004C14.214 11.6526 15.2928 10.9629 16.0272 9.96486C16.7616 8.96685 17.0992 7.73172 16.9747 6.49892C16.8501 5.26612 16.2723 4.12347 15.3532 3.29251C14.434 2.46154 13.2391 2.00146 12 2.00146C10.7609 2.00146 9.56598 2.46154 8.64685 3.29251C7.72771 4.12347 7.14986 5.26612 7.02532 6.49892C6.90078 7.73172 7.23843 8.96685 7.9728 9.96486C8.70718 10.9629 9.78596 11.6526 11 11.9004ZM12 4.00044C12.5933 4.00044 13.1734 4.17639 13.6667 4.50604C14.1601 4.83568 14.5446 5.30422 14.7716 5.85239C14.9987 6.40057 15.0581 7.00377 14.9424 7.58572C14.8266 8.16766 14.5409 8.70221 14.1213 9.12177C13.7018 9.54132 13.1672 9.82705 12.5853 9.9428C12.0033 10.0586 11.4001 9.99915 10.8519 9.77208C10.3038 9.54502 9.83524 9.1605 9.50559 8.66716C9.17595 8.17381 9 7.59379 9 7.00045C9 6.2048 9.31607 5.44173 9.87868 4.87912C10.4413 4.31652 11.2044 4.00044 12 4.00044V4.00044ZM16.21 14.4204C16.0787 14.3929 15.9432 14.3914 15.8113 14.4162C15.6795 14.441 15.5537 14.4915 15.4414 14.5648C15.329 14.6382 15.2322 14.733 15.1565 14.8437C15.0808 14.9545 15.0276 15.0791 15 15.2104C14.9724 15.3418 14.971 15.4772 14.9958 15.6091C15.0205 15.741 15.071 15.8667 15.1444 15.9791C15.2178 16.0914 15.3125 16.1882 15.4233 16.264C15.5341 16.3397 15.6587 16.3929 15.79 16.4204C18.06 16.8704 19 17.6804 19 18.0004C19 18.5804 16.55 20.0004 12 20.0004C7.45 20.0004 5 18.5804 5 18.0004C5 17.6804 5.94 16.8704 8.21 16.3804C8.34132 16.3529 8.46593 16.2997 8.5767 16.224C8.68747 16.1482 8.78224 16.0514 8.8556 15.9391C8.92896 15.8267 8.97947 15.701 9.00424 15.5691C9.02902 15.4372 9.02758 15.3018 9 15.1704C8.97242 15.0391 8.91925 14.9145 8.84352 14.8037C8.76778 14.693 8.67097 14.5982 8.55861 14.5248C8.44626 14.4515 8.32055 14.401 8.18867 14.3762C8.05679 14.3514 7.92132 14.3529 7.79 14.3804C4.75 15.0804 3 16.3904 3 18.0004C3 20.6304 7.53 22.0004 12 22.0004C16.47 22.0004 21 20.6304 21 18.0004C21 16.3904 19.25 15.0804 16.21 14.4204Z" fill="white"/>
</g></symbol><symbol id="ok" viewBox="0 0 24 24"><g fill="none">
<g clip-path="url(#clip0_28_151)">
<path d="M4.72098 12.8811C4.10798 14.0861 4.80398 14.6621 6.39198 15.6461C7.74198 16.4801 9.60698 16.7851 10.805 16.9071C10.314 17.3791 12.564 15.2151 6.08398 21.4481C4.70998 22.7651 6.92198 24.8781 8.29498 23.5891L12.012 20.0041C13.435 21.3731 14.799 22.6851 15.729 23.5941C17.103 24.8881 19.314 22.7931 17.955 21.4531C17.853 21.3561 12.918 16.6221 13.219 16.9121C14.432 16.7901 16.269 16.4671 17.603 15.6511L17.602 15.6501C19.19 14.6611 19.886 14.0861 19.282 12.8811C18.917 12.1971 17.933 11.6251 16.623 12.6141C16.623 12.6141 14.854 13.9691 12.001 13.9691C9.14698 13.9691 7.37898 12.6141 7.37898 12.6141C6.06998 11.6201 5.08198 12.1971 4.72098 12.8811Z" fill="white"/>
<path d="M11.9989 12.142C15.4769 12.142 18.3169 9.424 18.3169 6.078C18.3169 2.718 15.4769 0 11.9989 0C8.51993 0 5.67993 2.718 5.67993 6.078C5.67993 9.424 8.51993 12.142 11.9989 12.142ZM11.9989 3.079C13.7079 3.079 15.1019 4.42 15.1019 6.078C15.1019 7.722 13.7079 9.063 11.9989 9.063C10.2899 9.063 8.89593 7.722 8.89593 6.078C8.89493 4.419 10.2889 3.079 11.9989 3.079Z" fill="white"/>
</g>

</g></symbol><symbol id="production" viewBox="0 0 60 60"><g fill="none">
<path d="M59.0625 32.8125V19.6875H53.4375V15.9375H57.1875V0.9375H40.3125V8.4375H32.64C32.2519 7.34906 31.2206 6.5625 30 6.5625C28.4494 6.5625 27.1875 7.82438 27.1875 9.375C27.1875 10.5956 27.9741 11.6269 29.0625 12.015V17.8125H25.3125V29.0625H31.875V34.6875H30V37.1625C30 37.6116 29.7122 38.0109 29.2097 38.2191C28.74 38.4159 28.2488 38.3381 27.9281 38.0175L26.1862 36.2662L22.2038 40.2478L23.9541 41.9916C24.2709 42.3066 24.3497 42.81 24.1388 43.3125C23.9503 43.7681 23.5416 44.0625 23.0981 44.0625H20.4994L20.3109 42.7453C19.8713 39.6684 18.5869 36.7791 16.5975 34.3912C15.7641 33.39 15.2522 32.1713 15.0797 30.8906C16.0003 30.7828 16.8778 30.3844 17.5378 29.7253C18.3197 28.9444 18.75 27.9047 18.75 26.7994V25.0519L21.5625 24.1144V23.4384C21.5625 20.2697 20.3812 17.5378 19.5 15.9375H21.5625C22.5966 15.9375 23.4375 15.0966 23.4375 14.0625V12.1875C23.4375 11.1534 22.5966 10.3125 21.5625 10.3125H21.3937L21.1547 9.11906C20.2069 4.37813 16.0097 0.9375 11.175 0.9375C5.92406 0.9375 1.57031 4.87781 1.04719 10.1025L0.9375 11.25V14.0625C0.9375 14.5041 1.09781 14.9053 1.35375 15.2259C1.08188 16.0041 0.9375 16.83 0.9375 17.6512V18.0413C0.9375 21.135 2.44031 24.0553 4.95844 25.8544L7.5 27.6694V32.2697C6.61406 32.6531 5.85844 33.3 5.34094 34.1569C4.92375 34.8459 4.70813 35.6784 4.69875 36.5625H4.6875V59.0625H20.625V53.4384H22.14L26.1862 57.4847L27.9281 55.7334C28.2497 55.4119 28.7391 55.3331 29.25 55.5487C29.7131 55.74 30 56.1394 30 56.5884V59.0625H35.625V56.5875C35.625 56.1384 35.9128 55.7391 36.4153 55.5309C36.8841 55.3331 37.3762 55.4119 37.6969 55.7325L39.4388 57.4838L43.4213 53.5022L41.6709 51.7594C41.3494 51.4378 41.2716 50.9475 41.4853 50.4375C41.6737 49.9819 42.0825 49.6875 42.5259 49.6875H45V47.8125H51.735C52.1231 48.9009 53.1544 49.6875 54.375 49.6875C55.9256 49.6875 57.1875 48.4256 57.1875 46.875C57.1875 45.6544 56.4009 44.6231 55.3125 44.235V32.8125H59.0625ZM47.8125 30.9375V21.5625H56.8903L52.4466 26.7459L51.2878 25.5872L49.9622 26.9128L52.5534 29.5041L57.1875 24.0966V30.9375H47.8125ZM42.1875 2.8125H55.3125V14.0625H42.1875V2.8125ZM30 8.4375C30.5166 8.4375 30.9375 8.8575 30.9375 9.375C30.9375 9.8925 30.5166 10.3125 30 10.3125C29.4834 10.3125 29.0625 9.8925 29.0625 9.375C29.0625 8.8575 29.4834 8.4375 30 8.4375ZM27.1875 19.6875H33.8494L30.8972 23.0091L29.7253 21.8372L28.3997 23.1628L30.9778 25.7409L34.6875 21.5672V27.1875H27.1875V19.6875ZM18.4566 43.0116L18.5972 43.9969C16.6331 43.6847 15.0534 42.1669 14.7159 40.1494L14.0953 36.4472C14.6916 36.51 15.2906 36.5475 15.8897 36.5541C17.2387 38.4703 18.1228 40.6791 18.4566 43.0116ZM19.6669 22.7691L16.875 23.7V25.3125H15.2213C14.2856 25.3125 13.4447 24.7922 13.0266 23.9559L11.3494 24.795C12.0881 26.2706 13.5712 27.1884 15.2213 27.1884H16.8375C16.7587 27.645 16.5469 28.0669 16.2122 28.4016C15.7903 28.8225 15.2072 29.0644 14.6119 29.0644L11.25 29.0625V30.9375L13.185 30.9384C13.3294 32.2406 13.7653 33.4941 14.4563 34.6059C14.1562 34.5778 13.8581 34.5319 13.5609 34.4887C12.7894 32.9306 11.1966 31.8759 9.375 31.875V23.8256C9.375 23.3325 9.17531 22.8487 8.82562 22.5L7.88812 21.5625C7.63781 21.3113 7.5 20.9794 7.5 20.625C7.5 20.1075 7.92094 19.6875 8.4375 19.6875H9.375V17.8125C9.375 16.7784 10.2159 15.9375 11.25 15.9375H17.3175C17.9334 16.8872 19.4719 19.5516 19.6669 22.7691ZM21.5625 12.1875V14.0625H2.8125L2.80969 12.1875H21.5625ZM4.6875 10.3125H2.91094L2.91281 10.29C2.9775 9.64406 3.12188 9.02719 3.32156 8.4375H4.6875V10.3125ZM12.1875 10.3125H10.3125V6.5625H12.1875V10.3125ZM19.3162 9.48656L19.4813 10.3125H17.8125V8.4375H19.0256C19.1419 8.77781 19.2441 9.12563 19.3162 9.48656ZM11.175 2.8125C14.0278 2.8125 16.6031 4.28625 18.105 6.5625H17.8125C16.7784 6.5625 15.9375 7.40344 15.9375 8.4375V10.3125H14.0625V6.5625C14.0625 5.52844 13.2216 4.6875 12.1875 4.6875H10.3125C9.27844 4.6875 8.4375 5.52844 8.4375 6.5625V10.3125H6.5625V8.4375C6.5625 7.40344 5.72156 6.5625 4.6875 6.5625H4.22813C5.71406 4.28812 8.27531 2.8125 11.175 2.8125ZM6.04875 24.3291C4.02188 22.8816 2.8125 20.5303 2.8125 18.0413V17.6512C2.8125 17.0719 2.91 16.4897 3.09188 15.9375H8.02219C7.69875 16.4916 7.5 17.1262 7.5 17.8125V17.9728C6.40875 18.36 5.625 19.4025 5.625 20.625C5.625 21.4791 5.95781 22.2834 6.5625 22.8881L7.5 23.8256V25.3659L6.04875 24.3291ZM6.945 35.1272C7.40344 34.3669 8.16656 33.8737 9.05062 33.7697C9.14062 33.7575 9.25781 33.75 9.37313 33.75C10.7963 33.75 11.9934 34.8188 12.1669 36.2812L12.8663 40.4587C13.3978 43.6341 16.1213 45.9384 19.3416 45.9384L24.3713 45.9375V51.5625L17.6334 51.5634C12.5494 51.5634 8.16094 47.7722 7.42406 42.7444L6.58875 37.0397C6.50437 36.3262 6.63094 35.6466 6.945 35.1272ZM18.75 57.1875H6.5625V46.3275C8.51719 50.5444 12.8072 53.4384 17.6334 53.4384H18.75V57.1875ZM43.125 47.8125H42.5259C41.3213 47.8125 40.2337 48.5616 39.7397 49.7513C39.2484 50.9203 39.4866 52.23 40.3472 53.0869L40.7663 53.5041L39.4416 54.8288L39.0244 54.4106C38.1675 53.5491 36.8578 53.3109 35.6569 53.8153C34.4991 54.2962 33.75 55.3838 33.75 56.5875V57.1875H31.875V56.5875C31.875 55.3838 31.1259 54.2962 29.9372 53.8022C28.7653 53.3091 27.4566 53.5481 26.5997 54.4097L26.1834 54.8278L24.7528 53.3972C25.605 53.2209 26.2472 52.4644 26.2472 51.5616H28.2366C29.4581 52.7541 31.0997 53.4366 32.8144 53.4366C36.4331 53.4366 39.3769 50.4919 39.3769 46.8741C39.3769 43.2563 36.4331 40.3116 32.8144 40.3116C31.0828 40.3116 29.4375 40.9988 28.2141 42.2053C28.1231 42.1959 28.0322 42.1866 27.9394 42.1866C27.2644 42.1866 26.6325 42.4378 26.13 42.8794C26.1619 42.0544 25.8722 41.25 25.2797 40.6622L24.8606 40.245L26.1853 38.9203L26.6025 39.3384C27.4603 40.2 28.77 40.44 29.97 39.9338C31.1259 39.4538 31.875 38.3662 31.875 37.1625V36.5625H33.75V37.1625C33.75 38.3662 34.4991 39.4538 35.6878 39.9478C36.8587 40.44 38.1684 40.2019 39.0253 39.3403L39.4416 38.9222L40.7663 40.2469L40.3481 40.6631C39.4875 41.5191 39.2484 42.8297 39.7528 44.0316C40.2337 45.1884 41.3213 45.9375 42.5259 45.9375H43.125V47.8125ZM32.8116 44.0625H30.5775L30.4013 43.71C30.2934 43.4944 30.1575 43.3003 30.0047 43.125C30.8091 42.5222 31.7906 42.1875 32.8125 42.1875C35.3972 42.1875 37.5 44.2903 37.5 46.875C37.5 49.4597 35.3972 51.5625 32.8125 51.5625C32.4975 51.5625 32.1862 51.5278 31.8825 51.4659C34.0163 51.0272 35.625 49.1353 35.625 46.875C35.625 45.3244 34.3631 44.0625 32.8116 44.0625ZM28.7241 44.5491L29.4187 45.9375H32.8116C33.3291 45.9375 33.75 46.3575 33.75 46.875C33.75 48.4256 32.4872 49.6875 30.9366 49.6875H26.2463V45.3881L27.315 44.3203C27.7172 43.92 28.4709 44.0419 28.7241 44.5491ZM54.375 47.8125C53.8584 47.8125 53.4375 47.3925 53.4375 46.875C53.4375 46.3575 53.8584 45.9375 54.375 45.9375C54.8916 45.9375 55.3125 46.3575 55.3125 46.875C55.3125 47.3925 54.8916 47.8125 54.375 47.8125ZM53.4375 44.235C52.6434 44.5181 52.0181 45.1434 51.735 45.9375H45V44.0625H42.5259C42.0825 44.0625 41.6738 43.7691 41.4684 43.2731C41.2744 42.81 41.3531 42.3066 41.6709 41.9906L43.4213 40.2478L39.4388 36.2662L37.6969 38.0175C37.3753 38.3391 36.8859 38.4178 36.375 38.2022C35.9119 38.0109 35.625 37.6116 35.625 37.1625V34.6875H33.75V29.0625H36.5625V19.4578L39.1388 16.56L37.7372 15.315L35.5163 17.8125H30.9375V12.015C31.7316 11.7319 32.3569 11.1066 32.64 10.3125H40.3125V15.9375H51.5625V19.6875H45.9375V32.8125H53.4375V44.235Z" fill="#DF4646"/>
<path d="M46.822 9.87082L45.6633 8.71207L44.3376 10.0377L46.9289 12.6289L53.212 5.29675L51.7889 4.078L46.822 9.87082Z" fill="#DF4646"/>
</g></symbol><symbol id="sketch" viewBox="0 0 60 60"><g fill="none">
<g clip-path="url(#clip0_11_143)">
<path d="M8.74953 9.98206C6.67846 9.98206 4.99951 11.661 4.99951 13.7321V23.7321H7.49948V13.7321C7.49948 13.0417 8.05917 12.482 8.74953 12.482H38.7496V9.98206H8.74953Z" fill="#DF4646"/>
<path d="M8.75 47.4819C8.05965 47.4819 7.49996 46.9222 7.49996 46.2318V33.7318H5V46.2318C5 48.3029 6.67895 49.9818 8.75 49.9818H21.25V47.4819H8.75Z" fill="#DF4646"/>
<path d="M39.6337 50.7059L9.27601 20.3483C8.78792 19.8603 7.99667 19.8603 7.50847 20.3483L0.365978 27.4909C-0.121993 27.979 -0.121993 28.7702 0.365978 29.2584L30.7236 59.616C30.958 59.8505 31.2759 59.9822 31.6074 59.9822C31.9389 59.9821 32.2567 59.8503 32.4911 59.616L39.6336 52.4735C40.1216 51.9853 40.1216 51.194 39.6337 50.7059ZM31.6074 56.9647L3.01724 28.3746L8.3923 22.9995L36.9824 51.5898L31.6074 56.9647Z" fill="#DF4646"/>
<path d="M55.0002 47.4819H36.2502V49.9819H50.0002V56.2319C50.0002 56.9222 50.5599 57.4819 51.2502 57.4819H55.0002C57.7617 57.4819 60.0003 55.2434 60.0003 52.4819C60.0003 49.7205 57.7617 47.4819 55.0002 47.4819ZM55.0002 54.9819H52.5003V49.9819H55.0002C56.3809 49.9819 57.5002 51.1012 57.5002 52.4819C57.5002 53.8627 56.3809 54.9819 55.0002 54.9819Z" fill="#DF4646"/>
<path d="M54.9993 9.98181H48.7493V12.4818H54.9993C56.38 12.4818 57.4992 13.601 57.4992 14.9818V52.4819H59.9992V14.9818C59.9993 12.2203 57.7607 9.98181 54.9993 9.98181Z" fill="#DF4646"/>
<path d="M22.866 35.3481L19.1157 39.0984L20.8834 40.8661L24.6337 37.1158L22.866 35.3481Z" fill="#DF4646"/>
<path d="M17.867 30.3481L14.1167 34.0984L15.8844 35.8661L19.6347 32.1158L17.867 30.3481Z" fill="#DF4646"/>
<path d="M27.8619 40.3478L24.1116 44.0981L25.8793 45.8659L29.6296 42.1155L27.8619 40.3478Z" fill="#DF4646"/>
<path d="M32.8651 45.3505L29.1147 49.1008L30.8825 50.8686L34.6328 47.1182L32.8651 45.3505Z" fill="#DF4646"/>
<path d="M12.8614 25.348L9.11108 29.0983L10.8788 30.866L14.6291 27.1157L12.8614 25.348Z" fill="#DF4646"/>
<path d="M53.919 2.79167L52.1914 1.06421C50.7297 -0.331138 48.4293 -0.331138 46.9677 1.06421L27.9602 20.0717C27.4722 20.5598 27.4722 21.351 27.9602 21.8392L33.144 27.023C33.3778 27.2583 33.6961 27.3902 34.0277 27.3892C34.3592 27.3891 34.677 27.2574 34.9114 27.023L53.919 8.01543C53.9196 8.01484 53.9202 8.01425 53.9207 8.01367C55.3623 6.57121 55.3614 4.2332 53.919 2.79167ZM52.1527 6.24671L34.0277 24.3716L30.6115 20.9554L48.7365 2.83164C49.2085 2.38058 49.952 2.38058 50.424 2.83164L52.1527 4.55792C52.1528 4.55816 52.1531 4.55828 52.1533 4.55851C52.6193 5.0248 52.619 5.78066 52.1527 6.24671Z" fill="#DF4646"/>
<path d="M33.6244 24.9545L28.2294 26.7558L30.0307 21.352L27.6557 20.5608L25.0631 28.337C25.0207 28.4645 24.999 28.598 24.999 28.7323C24.9991 29.4226 25.5589 29.9822 26.2493 29.9819C26.3816 29.9824 26.5132 29.9621 26.6393 29.9219L34.4155 27.3294L33.6244 24.9545Z" fill="#DF4646"/>
<path d="M45.2777 4.51975L43.51 6.28748L48.6939 11.4714L50.4617 9.70368L45.2777 4.51975Z" fill="#DF4646"/>
<path d="M44.9997 27.4819H26.2498V29.9819H44.9997V27.4819Z" fill="#DF4646"/>
<path d="M50.0009 27.4819H47.501V29.9819H50.0009V27.4819Z" fill="#DF4646"/>
<path d="M54.9995 27.4819H52.4995V29.9819H54.9995V27.4819Z" fill="#DF4646"/>
</g>

</g></symbol><symbol id="smartphone" viewBox="0 0 24 24"><g fill="none">
<path d="M12.71 16.29L12.56 16.17C12.5043 16.1322 12.4437 16.1019 12.38 16.08L12.2 16C12.0378 15.9661 11.8698 15.973 11.7109 16.0201C11.5521 16.0673 11.4074 16.1531 11.29 16.27C11.2017 16.3672 11.1306 16.4788 11.08 16.6C11.0043 16.7822 10.9842 16.9827 11.0223 17.1763C11.0603 17.3699 11.1547 17.5479 11.2937 17.688C11.4327 17.828 11.61 17.9238 11.8033 17.9633C11.9966 18.0028 12.1972 17.9843 12.38 17.91C12.4995 17.852 12.6105 17.778 12.71 17.69C12.8488 17.5494 12.9428 17.3708 12.9801 17.1768C13.0175 16.9828 12.9966 16.7821 12.92 16.6C12.8701 16.4844 12.7989 16.3792 12.71 16.29ZM16 2H8C7.20435 2 6.44129 2.31607 5.87868 2.87868C5.31607 3.44129 5 4.20435 5 5V19C5 19.7956 5.31607 20.5587 5.87868 21.1213C6.44129 21.6839 7.20435 22 8 22H16C16.7956 22 17.5587 21.6839 18.1213 21.1213C18.6839 20.5587 19 19.7956 19 19V5C19 4.20435 18.6839 3.44129 18.1213 2.87868C17.5587 2.31607 16.7956 2 16 2ZM17 19C17 19.2652 16.8946 19.5196 16.7071 19.7071C16.5196 19.8946 16.2652 20 16 20H8C7.73478 20 7.48043 19.8946 7.29289 19.7071C7.10536 19.5196 7 19.2652 7 19V5C7 4.73478 7.10536 4.48043 7.29289 4.29289C7.48043 4.10536 7.73478 4 8 4H16C16.2652 4 16.5196 4.10536 16.7071 4.29289C16.8946 4.48043 17 4.73478 17 5V19Z" fill="white"/>
</g></symbol><symbol id="timer" viewBox="0 0 24 24"><g fill="none">
<path d="M12 9V13.6154" stroke="white" stroke-width="1.5" stroke-linecap="round" stroke-linejoin="round"/>
<path d="M13.5 14C13.5 14.8284 12.8284 15.5 12 15.5C11.1716 15.5 10.5 14.8284 10.5 14C10.5 13.1716 11.1716 12.5 12 12.5C12.8284 12.5 13.5 13.1716 13.5 14Z" fill="white"/>
<path d="M6.54869 7.06644L6.91639 7.72012L6.54869 7.06644ZM6.54869 18.9337L6.181 19.5874L6.181 19.5874L6.54869 18.9337ZM14.4513 20.6212L14.0836 19.9675L14.0836 19.9675L14.4513 20.6212ZM9.54869 20.6212L9.91639 19.9675L9.54869 20.6212ZM17.4513 18.9337L17.819 19.5874L17.819 19.5874L17.4513 18.9337ZM17.4513 7.06644L17.0836 7.72012L17.0836 7.72012L17.4513 7.06644ZM14.4513 5.37894L14.819 4.72526L14.819 4.72526L14.4513 5.37894ZM9.54869 5.37894L9.181 4.72526L9.181 4.72526L9.54869 5.37894ZM14.0836 6.03262L17.0836 7.72012L17.819 6.41276L14.819 4.72526L14.0836 6.03262ZM19.25 11.4243V14.5758H20.75V11.4243H19.25ZM17.0836 18.28L14.0836 19.9675L14.819 21.2749L17.819 19.5874L17.0836 18.28ZM9.91639 19.9675L6.91639 18.28L6.181 19.5874L9.181 21.2749L9.91639 19.9675ZM4.75 14.5758V11.4243H3.25V14.5758H4.75ZM6.91639 7.72012L9.91639 6.03262L9.181 4.72526L6.181 6.41276L6.91639 7.72012ZM4.75 11.4243C4.75 9.8889 5.57816 8.47287 6.91639 7.72012L6.181 6.41276C4.37046 7.43119 3.25 9.34699 3.25 11.4243H4.75ZM6.91639 18.28C5.57816 17.5273 4.75 16.1113 4.75 14.5758H3.25C3.25 16.6532 4.37046 18.569 6.181 19.5874L6.91639 18.28ZM14.0836 19.9675C12.7899 20.6953 11.2101 20.6953 9.91639 19.9675L9.181 21.2749C10.9314 22.2595 13.0686 22.2595 14.819 21.2749L14.0836 19.9675ZM19.25 14.5758C19.25 16.1113 18.4218 17.5273 17.0836 18.28L17.819 19.5874C19.6295 18.569 20.75 16.6532 20.75 14.5758H19.25ZM17.0836 7.72012C18.4218 8.47287 19.25 9.8889 19.25 11.4243H20.75C20.75 9.34699 19.6295 7.43119 17.819 6.41276L17.0836 7.72012ZM14.819 4.72526C13.0686 3.74067 10.9314 3.74067 9.181 4.72526L9.91639 6.03262C11.2101 5.30488 12.7899 5.30488 14.0836 6.03262L14.819 4.72526Z" fill="white"/>
<path d="M6 5L9 3" stroke="white" stroke-width="1.5" stroke-linecap="round"/>
<path d="M18 5L15 3" stroke="white" stroke-width="1.5" stroke-linecap="round"/>
</g></symbol><symbol id="vk" viewBox="0 0 24 24"><g fill="none">
<g clip-path="url(#clip0_28_126)">
<path d="M23.8728 17.5197C23.8437 17.457 23.8166 17.4051 23.7915 17.3635C23.3751 16.6135 22.5793 15.693 21.4047 14.6017L21.3799 14.5767L21.3675 14.5644L21.3549 14.5519H21.3423C20.8093 14.0437 20.4717 13.702 20.3303 13.5271C20.0716 13.1938 20.0137 12.8565 20.1551 12.5147C20.2549 12.2565 20.6301 11.7112 21.2797 10.878C21.6214 10.4364 21.892 10.0825 22.0918 9.81589C23.5331 7.89977 24.158 6.67535 23.9663 6.14213L23.8919 6.01753C23.8418 5.94251 23.7127 5.87388 23.5047 5.8113C23.2962 5.74884 23.0297 5.73851 22.7047 5.78014L19.106 5.80499C19.0477 5.78434 18.9645 5.78626 18.856 5.8113C18.7477 5.83633 18.6935 5.84889 18.6935 5.84889L18.6309 5.88019L18.5812 5.91778C18.5395 5.94264 18.4937 5.98637 18.4436 6.04887C18.3939 6.11115 18.3523 6.18424 18.319 6.26752C17.9272 7.27552 17.4817 8.21271 16.9818 9.07903C16.6735 9.59561 16.3904 10.0433 16.1319 10.4224C15.8737 10.8013 15.6571 11.0805 15.4823 11.2595C15.3073 11.4386 15.1493 11.5821 15.0074 11.6905C14.8657 11.799 14.7575 11.8448 14.6827 11.828C14.6076 11.8113 14.5369 11.7946 14.47 11.778C14.3534 11.703 14.2597 11.601 14.189 11.4719C14.118 11.3427 14.0702 11.1802 14.0452 10.9845C14.0204 10.7886 14.0057 10.6201 14.0015 10.4784C13.9976 10.3369 13.9994 10.1367 14.0078 9.87852C14.0165 9.62017 14.0204 9.44536 14.0204 9.35371C14.0204 9.0371 14.0265 8.69349 14.0389 8.32278C14.0515 7.95207 14.0617 7.65835 14.0703 7.44197C14.0788 7.22537 14.0827 6.9962 14.0827 6.75461C14.0827 6.51301 14.068 6.32355 14.0389 6.18603C14.0102 6.04869 13.9661 5.91538 13.9081 5.78613C13.8496 5.65702 13.7641 5.55714 13.6519 5.48624C13.5395 5.41542 13.3997 5.35923 13.2333 5.31747C12.7917 5.21755 12.2295 5.1635 11.5462 5.1551C9.99683 5.13847 9.00126 5.23852 8.55974 5.45512C8.3848 5.54664 8.22649 5.67168 8.08495 5.82985C7.93496 6.01319 7.91404 6.11325 8.02232 6.1297C8.52223 6.20459 8.87613 6.38373 9.08442 6.66694L9.15948 6.81702C9.21786 6.9253 9.27616 7.117 9.3345 7.39186C9.39275 7.66671 9.43035 7.97076 9.44689 8.30383C9.48847 8.91206 9.48847 9.43271 9.44689 9.86583C9.40518 10.2991 9.36579 10.6364 9.3282 10.878C9.2906 11.1196 9.23441 11.3154 9.15948 11.4653C9.08442 11.6152 9.03448 11.7069 9.00944 11.7402C8.98445 11.7734 8.96362 11.7944 8.94707 11.8026C8.83879 11.8441 8.72618 11.8652 8.60963 11.8652C8.4929 11.8652 8.35136 11.8069 8.18478 11.6902C8.01825 11.5735 7.84541 11.4132 7.66628 11.2091C7.48714 11.0049 7.28511 10.7196 7.0601 10.3531C6.83527 9.98658 6.60199 9.55342 6.3604 9.0536L6.16052 8.69112C6.03556 8.45793 5.86487 8.11839 5.64827 7.6728C5.43153 7.22703 5.23996 6.79584 5.07343 6.37931C5.00686 6.20437 4.90685 6.07119 4.77358 5.97954L4.71104 5.94194C4.66946 5.90868 4.60272 5.87336 4.51116 5.83572C4.41946 5.79812 4.32379 5.77116 4.22374 5.75457L0.799886 5.77943C0.450013 5.77943 0.21262 5.8587 0.0876216 6.017L0.0375959 6.09189C0.0126049 6.1336 0 6.20021 0 6.2919C0 6.38355 0.024991 6.49603 0.0750167 6.62922C0.574836 7.80392 1.11838 8.93683 1.70564 10.0281C2.29291 11.1194 2.80323 11.9985 3.23631 12.6645C3.66947 13.331 4.11099 13.9601 4.56087 14.5514C5.01076 15.1429 5.30855 15.522 5.45425 15.6885C5.60012 15.8553 5.7147 15.9801 5.79799 16.0634L6.11045 16.3632C6.31037 16.5632 6.60396 16.8027 6.99135 17.0817C7.37881 17.3609 7.80778 17.6357 8.27845 17.9067C8.7492 18.1772 9.29686 18.398 9.92172 18.5687C10.5465 18.7396 11.1546 18.8082 11.7461 18.7751H13.1832C13.4746 18.75 13.6954 18.6583 13.8455 18.5001L13.8952 18.4375C13.9286 18.3878 13.9599 18.3105 13.9888 18.2066C14.0181 18.1025 14.0326 17.9878 14.0326 17.863C14.024 17.5048 14.0513 17.1821 14.1136 16.8947C14.1759 16.6074 14.2469 16.3908 14.3263 16.2449C14.4057 16.0992 14.4952 15.9762 14.5949 15.8765C14.6947 15.7766 14.7659 15.716 14.8077 15.6952C14.8491 15.6742 14.8823 15.66 14.9073 15.6515C15.1072 15.5849 15.3425 15.6494 15.6135 15.8453C15.8843 16.0411 16.1383 16.2828 16.3758 16.5701C16.6133 16.8577 16.8985 17.1803 17.2317 17.5384C17.5651 17.8967 17.8566 18.163 18.1064 18.3382L18.3562 18.4882C18.523 18.5882 18.7396 18.6799 19.0063 18.7631C19.2724 18.8464 19.5056 18.8672 19.7058 18.8256L22.9046 18.7757C23.221 18.7757 23.4672 18.7233 23.6419 18.6194C23.8168 18.5152 23.9208 18.4005 23.9543 18.2758C23.9877 18.1508 23.9895 18.0091 23.9607 17.8507C23.931 17.6926 23.9018 17.5821 23.8728 17.5197Z" fill="white"/>
</g>

</g></symbol></svg>